<?xml version="1.0" standalone="no"?>
<!DOCTYPE svg PUBLIC "-//W3C//DTD SVG 1.1//EN" "http://www.w3.org/Graphics/SVG/1.1/DTD/svg11.dtd" >
<svg xmlns="http://www.w3.org/2000/svg">
<metadata></metadata>
<defs>
<font id="foundation_sansoutlineEx" horiz-adv-x="960" >
<font-face units-per-em="1000" ascent="825" descent="-175" />
<missing-glyph horiz-adv-x="423" />
<glyph unicode="&#xfb01;" horiz-adv-x="836" d="M112 0v356h-75v145h75v44q0 80 40.5 111.5t143.5 31.5q43 0 149 -6v-144q-9 1 -20 1q-45 0 -57 -6.5t-13 -31.5h90v-145h-90v-356h-243zM538 537v130h243v-130h-243zM133 21h201v356h90v103h-90q-1 52 15 65.5t75 13.5v104q-77 4 -127 4q-95 0 -129.5 -26t-34.5 -96v-65 h-75v-103h75v-356zM559 558h201v88h-201v-88zM538 0v501h243v-501h-243zM559 21h201v459h-201v-459z" />
<glyph unicode="&#xfb02;" horiz-adv-x="836" d="M112 0v356h-75v145h75v44q0 80 40.5 111.5t143.5 31.5q43 0 149 -6v-144q-9 1 -20 1q-45 0 -57 -6.5t-13 -31.5h90v-145h-90v-356h-243zM538 0v667h243v-667h-243zM133 21h201v356h90v103h-90q-1 52 15 65.5t75 13.5v104q-77 4 -127 4q-95 0 -129.5 -26t-34.5 -96v-65 h-75v-103h75v-356zM559 21h201v625h-201v-625z" />
<glyph horiz-adv-x="0" />
<glyph horiz-adv-x="333" />
<glyph unicode=" "  horiz-adv-x="423" />
<glyph unicode="&#x09;" horiz-adv-x="423" />
<glyph unicode="&#xa0;" horiz-adv-x="423" />
<glyph unicode="!" horiz-adv-x="440" d="M127 245l-38 422h262l-38 -422h-186zM147 266h146l35 380h-216zM101 0v211h238v-211h-238zM122 21h196v169h-196v-169z" />
<glyph unicode="&#x22;" horiz-adv-x="443" d="M264 388l-32 279h196l-32 -279h-132zM47 388l-32 279h196l-32 -279h-132zM283 409h94l27 237h-148zM66 409h94l27 237h-148z" />
<glyph unicode="#" horiz-adv-x="646" d="M135 42l23 157h-99l15 100h98l10 64h-99l14 100h99l21 144h105l-20 -144h72l20 144h106l-21 -144h108l-15 -100h-108l-9 -64h108l-14 -100h-108l-23 -157h-106l23 157h-72l-23 -157h-105zM160 63h62l23 157h115l-23 -157h62l23 157h108l9 58h-109l16 106h108l8 58h-108 l21 144h-62l-21 -144h-115l21 144h-63l-20 -144h-99l-9 -58h99l-15 -106h-99l-8 -58h99zM253 278l15 106h116l-16 -106h-115zM278 299h72l9 64h-72z" />
<glyph unicode="$" d="M64 220h326q6 -30 25 -41.5t63 -11.5q101 0 101 35q0 18 -20 23.5t-134 18.5q-156 19 -236 46q-121 39 -121 167q0 67 44.5 117.5t129.5 79.5q62 22 176 30v102h122v-102q135 -8 194 -30q128 -49 139 -189h-312q-5 29 -22.5 39t-65.5 10q-88 0 -88 -33q0 -15 17 -21 q15 -5 131 -16q149 -15 235 -44q60 -21 94 -67t34 -108q0 -76 -48 -131t-138 -84q-62 -20 -170 -26v-107h-122v107q-179 10 -261 64.5t-93 171.5zM89 199q14 -97 96.5 -143t253.5 -52v-106h80v106q136 5 207 34q149 58 149 186q0 90 -74 137q-39 25 -113 39.5t-242 30.5 q-45 4 -63.5 16t-18.5 35q0 53 109 53q50 0 73 -10.5t33 -38.5h270q-7 51 -39.5 90.5t-83.5 58.5q-38 13 -79 18.5t-128 10.5v101h-80v-101q-144 -8 -216 -39q-134 -57 -134 -168q0 -71 39 -108t139 -59q64 -13 247 -36q51 -6 68.5 -16.5t17.5 -34.5q0 -30 -28.5 -43.5 t-91.5 -13.5q-47 0 -72 12.5t-35 40.5h-284z" />
<glyph unicode="%" horiz-adv-x="1079" d="M244 318q-108 0 -168 48t-60 134q0 81 61 128.5t166 47.5q107 0 167 -47.5t60 -131.5q0 -83 -60 -131t-166 -48zM375 0l237 667h92l-234 -667h-95zM244 339q97 0 151 42t54 116q0 75 -54 116.5t-152 41.5q-97 0 -151.5 -41.5t-54.5 -114.5q0 -77 54 -118.5t153 -41.5z M405 21h50l219 625h-47zM243 393q-45 0 -70.5 28t-25.5 77q0 46 26 74t70 28t70 -28t26 -75q0 -48 -26 -76t-70 -28zM243 414q35 0 55 22t20 60q0 40 -20 61.5t-55 21.5t-55 -21.5t-20 -59.5q0 -40 19.5 -62t55.5 -22zM608 173q0 81 61 128.5t166 47.5q107 0 167 -47.5 t60 -131.5q0 -83 -60 -131t-166 -48q-108 0 -168 48t-60 134zM629 172q0 -77 54 -118.5t153 -41.5q97 0 151 42t54 116q0 75 -54 116.5t-152 41.5q-97 0 -151.5 -41.5t-54.5 -114.5zM739 172q0 46 26 74t70 28t70 -28t26 -76q0 -47 -26 -75t-70 -28q-45 0 -70.5 28t-25.5 77 zM760 172q0 -40 19.5 -62t55.5 -22q35 0 55 22t20 61t-20 60.5t-55 21.5t-55 -21.5t-20 -59.5z" />
<glyph unicode="&#x26;" horiz-adv-x="990" d="M649 0l-39 44q-129 -57 -255 -57q-65 0 -128.5 17.5t-107.5 48.5q-37 25 -59 69t-22 94q0 169 229 212q-33 46 -33 97q0 163 280 163q141 0 219 -44.5t78 -126.5q0 -60 -44 -100t-139 -69l72 -76q61 41 115 85l32 25l99 -120q-65 -54 -141 -103l147 -159h-303zM696 245 l-107 114q112 32 156.5 66.5t44.5 91.5q0 71 -72.5 110.5t-203.5 39.5q-259 0 -259 -141q0 -31 9.5 -52.5t40.5 -59.5q-131 -23 -188.5 -69t-57.5 -129q0 -45 19.5 -84.5t53.5 -61.5q41 -28 101.5 -45t121.5 -17q123 0 261 61l43 -48h245l-132 141q90 59 144 103l-72 88 q-57 -46 -60 -48q-13 -10 -88 -60zM518 435q-41 46 -41 74q0 25 19.5 41t49.5 16q31 0 50.5 -16.5t19.5 -41.5q0 -50 -75 -68q-9 -2 -23 -5zM526 458l10 3q59 12 59 47q0 16 -13.5 26.5t-35.5 10.5t-35 -9.5t-13 -25.5q0 -19 28 -52zM377 325l152 -168q-72 -34 -120 -34 q-56 0 -94.5 31t-38.5 77t35 70q20 14 66 24zM494 164l-125 138q-38 -10 -55 -26.5t-17 -44.5q0 -37 32 -62t79 -25q37 0 86 20z" />
<glyph unicode="'" horiz-adv-x="230" d="M47 388l-32 279h201l-32 -279h-137zM66 409h99l27 237h-153z" />
<glyph unicode="(" horiz-adv-x="554" d="M482 -47h-28q-144 0 -236 60q-147 95 -147 320q0 244 170 335q87 46 214 46h27v-164q-56 -5 -83.5 -13.5t-48.5 -29.5q-50 -50 -50 -177t60 -178q20 -17 45.5 -24.5t76.5 -11.5v-163zM461 569v124q-182 1 -275.5 -90t-93.5 -270q0 -178 93.5 -269t275.5 -90v123 q-85 9 -125 49q-57 57 -57 184q0 148 68 201q38 31 114 38z" />
<glyph unicode=")" horiz-adv-x="554" d="M71 -47v163q56 5 83.5 14.5t47.5 29.5q51 52 51 170q0 137 -60 185q-37 29 -122 35v164h28q145 0 236 -60q147 -95 147 -321q0 -243 -171 -334q-84 -46 -213 -46h-27zM92 -26q182 -1 275.5 90t93.5 269q0 179 -93.5 270t-275.5 90v-124q85 -8 125 -48q57 -57 57 -191 q0 -138 -68 -194q-38 -31 -114 -39v-123z" />
<glyph unicode="*" horiz-adv-x="717" d="M300 303l-114 81l33 41q11 15 48 54q-33 3 -69 10l-54 10l43 131l50 -19l23 -10l29 -12l14 -7q-6 32 -10 70l-6 53h140l-3 -53q-4 -57 -7 -72q24 13 49 25q3 1 6.5 2.5t5.5 2.5l2 1l51 25l43 -131l-51 -13q-45 -12 -71 -16q7 -7 24 -25t25 -25l38 -39l-114 -81l-29 45 q-8 12 -14.5 23.5t-13 22.5t-9.5 16q-12 -25 -32 -62zM293 334l66 114l72 -112l76 54l-91 97l131 32l-29 88l-123 -54l9 131h-93l14 -130l-124 49l-29 -88l131 -27l-86 -100z" />
<glyph unicode="+" d="M216 271v145h190v173h148v-173h190v-145h-190v-173h-148v173h-190zM237 292h190v-173h106v173h190v103h-190v173h-106v-173h-190v-103z" />
<glyph unicode="," horiz-adv-x="411" d="M91 0v203h231v-169q0 -51 -18 -81t-64 -55q-45 -25 -128 -39l-23 84q43 7 61 19t23 38h-82zM112 21h85q-1 -78 -82 -94l12 -44q69 11 114 40q34 21 47 45t13 66v148h-189v-161z" />
<glyph unicode="-" horiz-adv-x="392" d="M0 153v212h392v-212h-392zM21 174h350v170h-350v-170z" />
<glyph unicode="." horiz-adv-x="414" d="M91 0v219h232v-219h-232zM112 21h190v177h-190v-177z" />
<glyph unicode="/" horiz-adv-x="487" d="M21 -47l251 761h193l-251 -761h-193zM50 -26h149l237 719h-148z" />
<glyph unicode="0" d="M134 89q-101 86 -101 249q0 73 27 136t74 104q127 107 346 107q218 0 346 -107q101 -84 101 -244t-101 -245q-127 -107 -344 -107q-221 0 -348 107zM149 105q122 -102 333 -102q208 0 330 102q94 79 94 229q0 149 -94 229q-121 101 -332 101q-210 0 -331 -101 q-45 -37 -70 -97t-25 -128q0 -152 95 -233zM303 336q0 88 47.5 139t129.5 51q83 0 130 -51.5t47 -141.5t-47 -141.5t-130 -51.5t-130 52t-47 144zM324 335q0 -83 41 -128.5t115 -45.5q73 0 114.5 45.5t41.5 126.5t-41.5 126.5t-114.5 45.5t-114.5 -45.5t-41.5 -124.5z" />
<glyph unicode="1" d="M401 0v427q-53 -22 -113 -31v166q79 32 114.5 52t68.5 53h203v-667h-273zM422 21h231v625h-173q-54 -51 -171 -98v-127q49 10 113 37v-437z" />
<glyph unicode="2" d="M33 0q4 100 26.5 164.5t79.5 113t144.5 78.5t232.5 58q51 10 72 21t21 27q0 42 -102 42q-68 0 -105 -21q-18 -10 -26 -23.5t-13 -41.5h-324q6 69 28.5 112.5t71.5 77.5q107 77 351 77q215 0 325.5 -60.5t110.5 -178.5q0 -127 -139 -177q-65 -24 -242 -48 q-139 -18 -191 -44q41 3 91 3h466v-180h-878zM56 21h834v138h-606q65 41 107 54.5t152 28.5q193 27 254 53q108 44 108 153q0 106 -105.5 161t-309.5 55t-309 -55t-118 -170h283q11 45 49.5 65.5t110.5 20.5q124 0 124 -63q0 -29 -31 -45q-21 -10 -178 -44 q-199 -43 -278 -119.5t-87 -232.5z" />
<glyph unicode="3" d="M361 463h-317q9 67 35 105t82 66q105 51 337 51q406 0 406 -202q0 -43 -21 -70t-69 -46q115 -43 115 -152q0 -113 -115.5 -173t-333.5 -60q-270 0 -366 75q-41 32 -59.5 71t-24.5 107h316q9 -40 30 -54q29 -20 100 -20t103 15t32 48q0 27 -19.5 35.5t-81.5 8.5h-91v173 h65q63 0 82.5 5.5t19.5 23.5q0 44 -101 44q-36 0 -71 -7q-23 -5 -33.5 -14t-19.5 -30zM329 214h-275q7 -56 29 -92t64 -62q92 -57 333 -57q173 0 292 43q136 50 136 169q0 62 -39 96q-35 31 -119 57q76 23 101 43q32 23 32 72q0 181 -385 181q-248 0 -345 -59 q-38 -23 -57.5 -50.5t-26.5 -70.5h279q15 28 46.5 39.5t89.5 11.5q123 0 123 -64q0 -39 -43 -47q-16 -4 -80 -4h-44v-131h70q72 0 91 -11q31 -17 31 -55q0 -43 -37 -63t-118 -20q-68 0 -101.5 17t-46.5 57z" />
<glyph unicode="4" d="M41 103v188l394 376h366v-364h118v-200h-118v-103h-273v103h-487zM62 124h487v-103h231v103h118v158h-118v364h-336l-382 -364v-158zM297 282l252 241v-241h-252zM350 303h178v170z" />
<glyph unicode="5" d="M319 490l-6 -55q93 29 235 29q182 0 281.5 -59t99.5 -168q0 -78 -45.5 -134.5t-130.5 -84.5q-109 -36 -283 -36q-248 0 -352 72q-46 31 -65 70t-20 107h291q15 -38 45 -51q41 -18 105 -18t101 18.5t37 50.5q0 68 -147 68q-75 0 -137 -26h-256l47 394h757v-177h-557z M310 210h-255q5 -56 26 -90t68 -60q103 -57 321 -57q244 0 348 69q90 59 90 163q0 100 -93 154t-266 54q-147 0 -261 -38l12 106h555v135h-717l-42 -352h228q62 26 142 26t123.5 -23t43.5 -66q0 -42 -42.5 -66t-116.5 -24q-130 0 -164 69z" />
<glyph unicode="6" d="M899 462h-307q-10 25 -27 33t-58 8q-141 0 -161 -96q93 29 216 29q174 0 269.5 -57t95.5 -161q0 -113 -114.5 -174.5t-325.5 -61.5q-226 0 -339 88q-115 89 -115 263t120.5 263t355.5 89q214 0 320 -81q33 -26 49.5 -58.5t20.5 -83.5zM606 483h269q-14 89 -107 135 t-259 46q-455 0 -455 -333q0 -164 107 -245q111 -83 326 -83q201 0 310 56t109 159q0 95 -89.5 146t-255.5 51q-125 0 -242 -38q7 48 17.5 71.5t34.5 40.5q49 35 135 35q43 0 65 -9t35 -32zM337 219q0 35 39.5 55.5t107.5 20.5q70 0 108.5 -20.5t38.5 -57.5q0 -35 -39.5 -56 t-104.5 -21q-150 0 -150 79zM358 218q0 -57 129 -57q55 0 89 16t34 41q0 26 -33.5 41t-92.5 15t-92.5 -15t-33.5 -41z" />
<glyph unicode="7" d="M129 0q22 149 112 239q34 34 84 69.5t166 106.5q63 40 102 77q-37 -5 -100 -5h-453v180h879q1 -125 -40.5 -197t-177.5 -183q-107 -88 -150 -147t-58 -140h-364zM155 21h321q15 75 60.5 135t150.5 147q129 105 169 171t41 172h-836v-138h571q-46 -52 -74 -73t-140 -91 q-137 -85 -189.5 -149.5t-73.5 -173.5z" />
<glyph unicode="8" d="M126 53q-41 26 -64.5 69.5t-23.5 93.5q0 98 84 144q-73 39 -73 120q0 101 92 143q135 62 340 62q204 0 339 -62q92 -42 92 -143q0 -81 -73 -120q83 -46 83 -143q0 -51 -23.5 -94.5t-64.5 -69.5q-59 -38 -141 -54.5t-213 -16.5q-130 0 -212 16.5t-142 54.5zM138 70 q57 -36 136 -51.5t206 -15.5t206 15.5t136 51.5q37 23 58 62t21 85q0 56 -29 91q-17 22 -79 51q54 27 70 44q28 30 28 77q0 88 -81 125q-127 59 -329 59q-203 0 -330 -59q-81 -37 -81 -124q0 -48 28 -78q17 -18 70 -44q-61 -28 -80 -52q-29 -34 -29 -91q0 -45 21 -84t58 -62 zM340 476q0 31 33 44.5t108 13.5t107.5 -13.5t32.5 -45.5t-32.5 -46t-108.5 -14q-75 0 -107.5 14t-32.5 47zM361 475q0 -21 27.5 -30t91.5 -9q65 0 92.5 9t27.5 30q0 20 -27.5 29t-91.5 9q-120 0 -120 -38zM325 217q0 37 37.5 54.5t117.5 17.5q82 0 118.5 -17.5t36.5 -57.5 q0 -38 -37 -56t-117 -18q-83 0 -119.5 18t-36.5 59zM346 216q0 -29 31 -42t104 -13q70 0 101.5 13t31.5 41t-31.5 40.5t-102.5 12.5q-134 0 -134 -52z" />
<glyph unicode="9" d="M52 213h299q16 -33 42 -43q33 -15 82 -15q74 0 112 35q23 21 33 64q-68 -25 -170 -25q-171 0 -253 28q-161 56 -161 191q0 55 28.5 101.5t78.5 72.5q121 63 316 63q204 0 329 -76q136 -83 136 -273q0 -354 -445 -354q-229 0 -341 79q-35 25 -55 60t-31 92zM338 192h-259 q19 -77 73 -115q109 -74 328 -74q214 0 318.5 82.5t104.5 250.5q0 178 -127 255q-121 73 -317 73q-188 0 -305 -60q-46 -23 -71.5 -64.5t-25.5 -91.5q0 -134 171 -179q70 -19 221 -19q64 0 106 8t95 31q-16 -85 -48 -114q-46 -41 -127 -41q-103 0 -137 58zM332 447 q0 79 148 79q147 0 147 -80q0 -81 -146 -81q-149 0 -149 82zM353 447q0 -61 128 -61q125 0 125 60q0 59 -126 59q-127 0 -127 -58z" />
<glyph unicode=":" horiz-adv-x="414" d="M86 283v218h243v-218h-243zM107 304h201v176h-201v-176zM86 0v219h243v-219h-243zM107 21h201v177h-201v-177z" />
<glyph unicode=";" horiz-adv-x="411" d="M91 283v218h231v-218h-231zM112 304h189v176h-189v-176zM91 0v203h231v-169q0 -51 -18 -81t-64 -55q-45 -25 -128 -39l-23 84q43 7 61 19t23 38h-82zM112 21h85q-1 -78 -82 -94l12 -44q69 11 114 40q34 21 47 45t13 66v148h-189v-161z" />
<glyph unicode="&#x3c;" horiz-adv-x="500" d="M23 267v142l453 234v-177l-252 -129l251 -129l1 -176zM44 280l411 -213l-1 128l-277 142l278 142v129l-411 -212v-116z" />
<glyph unicode="=" d="M220 361v131h528v-131h-528zM241 382h486v89h-486v-89zM220 194v132h528v-132h-528zM241 215h486v90h-486v-90z" />
<glyph unicode="&#x3e;" horiz-adv-x="500" d="M23 32v177l252 129l-251 129l-1 176l453 -234v-143zM44 67l411 212v117l-411 212l1 -128l277 -142l-278 -142v-129z" />
<glyph unicode="?" horiz-adv-x="819" d="M286 249q5 73 34 107.5t109 65.5q47 18 63.5 32.5t16.5 35.5q0 23 -24 36t-67 13q-60 0 -87 -22t-31 -75h-279q3 62 21 100.5t58 69.5q98 76 311 76q184 0 285.5 -56.5t101.5 -157.5q0 -44 -21 -79.5t-58 -54.5q-41 -21 -137 -47q-26 -8 -36 -15.5t-20 -28.5h-240z M310 270h203q13 22 30 31t73 23q84 23 116 50q45 37 45 100q0 91 -96.5 142t-269.5 51q-220 0 -311 -83q-50 -46 -56 -121h237q15 97 137 97q52 0 82 -19t30 -51q0 -29 -20 -48t-73 -40q-69 -27 -95 -53.5t-32 -78.5zM287 0v221h242v-221h-242zM308 21h200v179h-200v-179z " />
<glyph unicode="@" horiz-adv-x="674" d="M583 185h79q-19 -38 -27 -50t-27 -32q-106 -111 -256 -111q-143 0 -243.5 97.5t-100.5 236.5q0 140 100.5 237t245.5 97q129 0 220.5 -81.5t91.5 -196.5q0 -118 -94 -187q-64 -49 -128 -49q-48 0 -75 36q-52 -38 -100 -38q-56 0 -92.5 38.5t-36.5 98.5q0 85 62 154.5 t138 69.5q55 0 93 -37l8 22h100l-82 -242l-6 -18q-3 -8 -3 -14q0 -12 16 -12q37 0 80 46q50 55 50 128q0 90 -71 153.5t-171 63.5q-115 0 -194 -77.5t-79 -190.5t79 -190.5t194 -77.5q70 0 131 33.5t98 92.5zM438 423l-21 30q-26 31 -76 31q-67 0 -123.5 -64t-56.5 -140 q0 -50 30.5 -82.5t77.5 -32.5q26 0 47 9.5t61 40.5l6 -13q16 -35 60 -35q58 0 117 44q85 65 85 171q0 107 -85 182t-206 75q-136 0 -230.5 -91t-94.5 -222t94 -222t229 -91q84 0 157 40t118 111h-32q-38 -57 -104 -91.5t-137 -34.5q-123 0 -208.5 84t-85.5 205 q0 122 85 205.5t209 83.5q109 0 186 -70t77 -168q0 -81 -56 -142q-48 -53 -95 -53q-15 0 -26 10t-11 23q0 9 10 39l72 214h-55zM411 349l-22 -61q-38 -106 -105 -106q-26 0 -42.5 20t-16.5 52q0 36 17.5 84.5t40.5 76.5q38 49 82 49q24 0 40.5 -18.5t16.5 -44.5 q0 -21 -11 -52zM369 295l22 61q10 27 10 45t-10.5 30t-25.5 12q-38 0 -73 -51q-18 -26 -32 -68t-14 -70q0 -23 10 -37t27 -14q53 0 86 92z" />
<glyph unicode="A" horiz-adv-x="884" d="M-4 0l272 667h347l273 -667h-294l-28 60h-263l-25 -60h-282zM28 21h236l25 60h291l28 -60h247l-254 625h-318zM325 220l109 297l107 -297h-216zM354 241h158l-54 148q-17 47 -24 80q-6 -29 -25 -80z" />
<glyph unicode="B" horiz-adv-x="1016" d="M77 0v667h534q144 0 208 -25q45 -18 71 -58.5t26 -93.5q0 -77 -63 -120q55 -25 79.5 -65t24.5 -103q0 -54 -22 -98t-59 -66q-36 -22 -84 -30t-137 -8h-578zM98 21h557q86 0 131.5 7.5t77.5 26.5q33 20 52.5 59t19.5 88q0 69 -33 108q-26 30 -94 57q51 30 68.5 55t17.5 68 q0 85 -68 126q-52 30 -216 30h-513v-625zM325 404v112h200q79 0 98 -11q28 -15 28 -45q0 -20 -11.5 -34t-30.5 -18q-18 -4 -85 -4h-199zM346 425h178q59 0 80 4q26 5 26 31q0 22 -20 28.5t-85 6.5h-179v-70zM325 152v120h228q88 0 107 -9q31 -15 31 -50q0 -37 -35 -53 q-19 -8 -103 -8h-228zM346 173h207q62 0 76 1t23 7q18 10 18 32q0 25 -22 32q-14 6 -95 6h-207v-78z" />
<glyph unicode="C" horiz-adv-x="1008" d="M664 257h306q-8 -77 -34.5 -122.5t-85.5 -82.5q-65 -40 -143.5 -56.5t-203.5 -16.5q-124 0 -203 20t-140 67q-122 95 -122 270q0 177 119 264q123 88 351 88q268 0 387 -110q33 -32 50.5 -72t24.5 -103h-306q-14 49 -34 68q-39 36 -122 36q-176 0 -176 -167 q0 -86 46 -133.5t131 -47.5q74 0 112 30q23 19 43 68zM680 424h266q-15 90 -66 139q-113 104 -372 104q-449 0 -449 -330q0 -182 136 -270q56 -36 126.5 -51.5t181.5 -15.5q130 0 211 19t144 63q75 54 88 154h-268q-20 -44 -43 -63q-41 -35 -126 -35q-94 0 -146 53.5 t-52 148.5q0 92 50.5 140t147.5 48q72 0 113 -25t58 -79z" />
<glyph unicode="D" horiz-adv-x="981" d="M77 0v667h449q130 0 198.5 -17.5t120.5 -63.5q98 -87 98 -261q0 -163 -85 -245q-51 -48 -116.5 -64t-211.5 -16h-453zM98 21h432q143 0 205 14.5t108 59.5q79 76 79 230q0 164 -91 246q-49 43 -114 59t-191 16h-428v-625zM325 159v348h134q76 0 104 -5t53 -22 q61 -42 61 -148q0 -110 -63 -148q-39 -25 -152 -25h-137zM346 180h116q71 0 104 7t53 27q37 37 37 118q0 95 -52 131q-21 15 -46.5 19t-98.5 4h-113v-306z" />
<glyph unicode="E" horiz-adv-x="926" d="M78 0v667h769v-181h-500v-58h414v-181h-414v-67h531v-180h-800zM99 21h758v138h-531v109h414v139h-414v100h500v139h-727v-625z" />
<glyph unicode="F" horiz-adv-x="883" d="M77 0v667h777v-181h-508v-62h420v-181h-420v-243h-269zM98 21h227v243h420v139h-420v104h508v139h-735v-625z" />
<glyph unicode="G" horiz-adv-x="1023" d="M837 2l-32 66q-98 -89 -319 -89q-214 0 -331 92t-117 261q0 86 34 157.5t95 113.5q120 85 332 85q227 0 347 -86q53 -37 78.5 -77.5t34.5 -102.5h-317q-29 85 -140 85q-79 0 -124 -44.5t-45 -123.5q0 -86 50.5 -132.5t144.5 -46.5q117 0 143 62h-109v156h396v-376h-121z M657 443h277q-21 104 -137 164t-298 60q-204 0 -319 -80q-58 -40 -89.5 -107t-31.5 -149q0 -159 110.5 -245t315.5 -86q123 0 216 31q33 11 56.5 26t54.5 46l38 -80h87v334h-354v-114h119q-26 -104 -174 -104q-103 0 -159.5 52.5t-56.5 147.5q0 88 51 138.5t139 50.5 q119 0 155 -85z" />
<glyph unicode="H" horiz-adv-x="975" d="M77 0v667h269v-230h284v230h269v-667h-269v256h-284v-256h-269zM98 21h227v256h326v-256h227v625h-227v-230h-326v230h-227v-625z" />
<glyph unicode="I" horiz-adv-x="423" d="M77 0v667h270v-667h-270zM98 21h228v625h-228v-625z" />
<glyph unicode="J" horiz-adv-x="816" d="M739 667v-403q0 -85 -15.5 -131t-55.5 -79q-91 -75 -282 -75q-135 0 -227.5 32.5t-127.5 93.5q-17 30 -23.5 68.5t-6.5 114.5h268q3 -69 18 -93q21 -36 84 -36q61 0 80 33.5t19 140.5v334h269zM249 267h-227q0 -118 37 -166t122.5 -74.5t204.5 -26.5q182 0 267 69 q37 30 51 72.5t14 122.5v382h-227v-313q0 -127 -26 -158q-28 -37 -94 -37q-62 0 -90 29.5t-32 99.5z" />
<glyph unicode="K" horiz-adv-x="998" d="M77 0v667h269v-237l250 237h369l-287 -241l298 -426h-340l-182 271l-108 -102v-169h-269zM98 21h227v157l133 125l189 -282h288l-286 408l258 217h-303l-279 -265v265h-227v-625z" />
<glyph unicode="L" horiz-adv-x="822" d="M76 0v667h269v-487h477v-180h-746zM97 21h704v138h-477v487h-227v-625z" />
<glyph unicode="M" horiz-adv-x="1213" d="M77 0v667h431l83 -247q12 -36 19 -78q5 36 17 75l81 250h429v-667h-270v370q0 32 5 64q0 8 3 21q-11 -43 -22 -76l-135 -379h-220l-132 363q-14 40 -26 92q6 -71 6 -100v-355h-269zM98 21h227v519l188 -519h190l185 520v-520h228v625h-393l-113 -349l-117 349h-395v-625z " />
<glyph unicode="N" horiz-adv-x="994" d="M77 0v667h299l236 -293q33 -40 44 -62q-5 38 -5 80v275h266v-667h-291l-241 301q-24 29 -46 66q4 -32 4 -74v-293h-266zM98 21h224v391l314 -391h260v625h-224v-380l-307 380h-267v-625z" />
<glyph unicode="O" horiz-adv-x="998" d="M38 339q0 174 105 257q115 92 356 92q237 0 349 -86t112 -268q0 -181 -112.5 -268t-345.5 -87q-241 0 -352.5 86.5t-111.5 273.5zM59 339q0 -178 105.5 -258.5t337.5 -80.5q225 0 331 81t106 253q0 173 -106 253t-334 80q-226 0 -333 -80t-107 -248zM311 336 q0 93 48.5 142.5t139.5 49.5q92 0 140 -49.5t48 -145.5q0 -95 -48 -145t-139 -50q-189 0 -189 198zM332 336q0 -177 168 -177q166 0 166 174t-167 174t-167 -171z" />
<glyph unicode="P" horiz-adv-x="922" d="M77 0v667h505q97 0 146 -10t87 -37q77 -55 77 -177q0 -136 -92 -190q-36 -20 -79 -27t-137 -7h-238v-219h-269zM98 21h227v219h259q91 0 131.5 6t73.5 25q82 48 82 172q0 110 -69 161q-34 24 -80.5 33t-139.5 9h-484v-625zM325 370v158h175q80 0 104 -21q23 -20 23 -55 q0 -54 -40 -73q-18 -9 -88 -9h-174zM346 391h153q66 0 81 9q26 14 26 52q0 32 -22 43.5t-84 11.5h-154v-116z" />
<glyph unicode="Q" horiz-adv-x="997" d="M809 -141l-133 135q-90 -15 -179 -15q-236 0 -347.5 86.5t-111.5 269.5q0 181 113 267t350 86q235 0 346.5 -87t111.5 -269q0 -128 -50 -201q-17 -26 -55 -58l88 -88zM912 -14l-90 88q58 45 80 86q36 67 36 173q0 172 -106 253t-331 81q-232 0 -346 -88q-96 -75 -96 -244 q0 -174 105.5 -254.5t332.5 -80.5q92 0 186 17l127 -128zM500 198l57 -56q-39 -4 -60 -4q-186 0 -186 195t187 195t187 -196q0 -54 -18 -102l-66 64zM601 324l56 -55q7 28 7 61q0 177 -166 177t-166 -174t164 -174h13l-39 39z" />
<glyph unicode="R" horiz-adv-x="943" d="M77 0v667h501q116 0 163 -8t79 -33q65 -50 65 -155q0 -73 -31.5 -116.5t-88.5 -51.5q67 -8 90 -69q10 -27 16 -144q2 -40 5 -53t18 -37h-285q-6 37 -9 93q-2 38 -3.5 57.5t-6.5 38t-11 25.5t-20.5 13t-30 6.5t-44.5 0.5h-138v-234h-269zM98 21h227v234h159q88 0 110 -26 t28 -135q2 -47 5 -73h232q-7 24 -9 68q-2 40 -2.5 58t-4.5 43t-5.5 33t-12 23t-16.5 18.5t-26.5 13.5t-34.5 14t-47 14q105 22 133 57q30 38 30 109q0 100 -66 143q-29 19 -72 25t-148 6h-480v-625zM325 365v156h185q64 0 87 -19q23 -18 23 -57q0 -50 -36 -70 q-20 -10 -76 -10h-183zM346 386h162q54 0 68 9q23 15 23 50q0 32 -18.5 43.5t-70.5 11.5h-164v-114z" />
<glyph unicode="S" horiz-adv-x="978" d="M914 462h-348q-22 59 -115 59q-36 0 -57.5 -10t-21.5 -26q0 -19 34.5 -27t186.5 -24q92 -10 130.5 -17.5t81.5 -23.5q127 -47 127 -176q0 -121 -111 -179.5t-338 -58.5q-218 0 -322 55q-57 31 -82 69.5t-32 106.5h366q17 -27 42.5 -38.5t71.5 -11.5q85 0 85 36 q0 19 -19 25t-96 14q-185 19 -256 35q-97 22 -142 67t-45 119q0 113 111 172.5t323 59.5q216 0 319 -65q43 -27 66.5 -62t40.5 -99zM402 189h-331q8 -53 37 -87.5t87 -59.5q96 -42 289 -42q217 0 322 53.5t105 163.5q0 114 -114 157q-42 16 -79.5 23t-125.5 16 q-187 19 -213 32q-28 14 -28 40t27 41.5t73 15.5q100 0 130 -59h304q-16 50 -41.5 80.5t-69.5 53.5q-97 50 -287 50q-202 0 -307 -54t-105 -157q0 -71 45.5 -110t152.5 -61q77 -15 226 -29q94 -9 116 -23q18 -11 18 -38q0 -56 -107 -56q-90 0 -124 50z" />
<glyph unicode="T" horiz-adv-x="823" d="M275 0v486h-254v181h780v-181h-256v-486h-270zM296 21h228v486h256v139h-738v-139h254v-486z" />
<glyph unicode="U" horiz-adv-x="959" d="M887 667v-385q0 -83 -18 -134.5t-61 -87.5q-96 -81 -328 -81q-248 0 -340 91q-37 36 -52.5 85t-15.5 127v385h269v-342q0 -89 32 -127t107 -38t106.5 38t31.5 127v342h269zM93 646v-364q0 -78 17 -126t55 -81q90 -75 315 -75q238 0 324 85q33 32 47.5 78t14.5 119v364 h-227v-321q0 -86 -27 -128q-38 -58 -132 -58q-85 0 -122.5 44t-37.5 142v321h-227z" />
<glyph unicode="V" horiz-adv-x="893" d="M299 0l-303 667h295l135 -336q18 -44 29 -85q9 35 28 85l131 336h283l-290 -667h-308zM313 21h280l272 625h-236l-174 -445l-179 445h-247z" />
<glyph unicode="W" horiz-adv-x="1331" d="M266 0l-237 667h286l102 -297q9 -25 17 -72q6 46 13 67l90 302h259l96 -304q6 -21 12 -65q6 42 15 70l97 299h285l-229 -667h-302l-97 307q-6 19 -9 49q-3 -29 -9 -50l-93 -306h-296zM282 21h264l118 385l121 -385h272l214 625h-239l-128 -395l-124 395h-227l-118 -394 l-136 394h-240z" />
<glyph unicode="X" horiz-adv-x="991" d="M29 0l291 356l-262 311h349l96 -121l94 121h338l-265 -318l291 -349h-352l-120 153l-126 -153h-334zM74 21h279l136 166l131 -166h296l-274 328l248 297h-282l-104 -135l-108 135h-292l243 -290z" />
<glyph unicode="Y" horiz-adv-x="879" d="M300 0v170l-313 497h316l137 -234l140 234h311l-320 -497v-170h-271zM321 21h229v155l303 470h-261l-152 -255l-149 255h-266l296 -470v-155z" />
<glyph unicode="Z" horiz-adv-x="898" d="M38 0v155l342 286q14 12 63 47q-16 -2 -65 -2h-320v181h802v-160l-332 -279q-20 -16 -69 -52q44 4 79 4h314v-180h-814zM59 21h772v138h-418l426 358v129h-760v-139h414l-434 -362v-124z" />
<glyph unicode="[" horiz-adv-x="554" d="M89 -47v761h397v-164h-171v-433h171v-164h-397zM110 -26h355v122h-171v475h171v122h-355v-719z" />
<glyph unicode="\" horiz-adv-x="487" d="M304 -141l-267 808h193l267 -808h-193zM319 -120h149l-253 766h-149z" />
<glyph unicode="]" horiz-adv-x="554" d="M68 -47v164h171v433h-171v164h397v-761h-397zM89 -26h355v719h-355v-122h171v-475h-171v-122z" />
<glyph unicode="^" horiz-adv-x="500" d="M-3 337l158 334h190l158 -334h-163l-90 195l-90 -195h-163zM31 358h115l104 226l104 -226h115l-138 292h-162z" />
<glyph unicode="_" horiz-adv-x="500" d="M-10 -33h520v-112h-520v112zM11 -54v-70h478v70h-478z" />
<glyph unicode="`" horiz-adv-x="530" d="M222 543l-155 137h327l70 -137h-242zM230 564h199l-49 95h-257z" />
<glyph unicode="a" horiz-adv-x="876" d="M562 0l-4 40q-98 -53 -237 -53q-137 0 -214.5 46.5t-77.5 128.5q0 85 94.5 123t326.5 45q66 2 82.5 5t16.5 12q0 15 -32.5 25.5t-78.5 10.5q-84 0 -106 -31l-264 -10q13 59 38 91t76 54q79 35 241 35q247 0 322 -66q28 -24 38.5 -57t10.5 -95v-190q0 -49 4.5 -68 t21.5 -46h-258zM96 363l225 9q26 32 116 32q61 0 97 -16t36 -42q0 -21 -23 -28t-97 -8q-203 -3 -319 -44q-81 -30 -81 -104q0 -73 71.5 -113.5t199.5 -40.5q80 0 134 14t121 51l5 -52h203q-11 36 -11 93v190q0 61 -11 91.5t-40 52.5q-72 53 -300 53q-152 0 -228.5 -32.5 t-97.5 -105.5zM571 244v-28q0 -53 -37.5 -74t-132.5 -21q-107 0 -107 55q0 21 15.5 35t43.5 18q22 3 111 6q62 1 107 9zM315 176q0 -34 84 -34q109 0 138 28q13 13 13 49q-34 -4 -119 -6q-76 -2 -93 -9q-23 -9 -23 -28z" />
<glyph unicode="b" horiz-adv-x="847" d="M55 0v667h243v-196q95 43 197 43q148 0 235 -70.5t87 -189.5q0 -123 -85.5 -195t-232.5 -72q-114 0 -205 60l5 -47h-244zM76 21h200l-8 68q70 -49 116.5 -65t114.5 -16q138 0 217.5 66t79.5 180q0 110 -81 174.5t-219 64.5q-59 0 -106.5 -12t-112.5 -43v208h-201v-625z M276 251q0 52 39.5 82t107.5 30t107.5 -30.5t39.5 -83.5t-39.5 -83.5t-107.5 -30.5q-70 0 -108.5 30.5t-38.5 85.5zM297 250q0 -45 32.5 -69.5t93.5 -24.5q59 0 92.5 24.5t33.5 68.5t-33.5 68.5t-92.5 24.5t-92.5 -24.5t-33.5 -67.5z" />
<glyph unicode="c" horiz-adv-x="854" d="M553 226h269q-7 -63 -24 -100.5t-51 -67.5q-90 -79 -302 -79q-183 0 -288 48q-60 28 -94 87t-34 135q0 85 38.5 145t110.5 88q106 40 250 40q107 0 190.5 -21.5t127.5 -60.5q34 -29 50.5 -61t26.5 -85h-277q-27 71 -118 71q-61 0 -95.5 -30.5t-34.5 -85.5t35 -86t96 -31 q59 0 91 29q22 20 33 65zM560 315h237q-18 79 -86 125q-41 28 -117.5 44.5t-165.5 16.5q-141 0 -242 -38q-66 -25 -101 -80t-35 -134q0 -70 31 -123.5t86 -79.5q98 -46 278 -46q169 0 252.5 49t100.5 156h-229q-26 -94 -140 -94q-70 0 -111 37.5t-41 101.5q0 63 40.5 99.5 t110.5 36.5q47 0 81.5 -18.5t50.5 -52.5z" />
<glyph unicode="d" horiz-adv-x="847" d="M547 0l5 47q-89 -60 -205 -60q-147 0 -232.5 72t-85.5 195q0 119 87 189t235 70q106 0 197 -42v196h243v-667h-244zM569 646v-208q-64 30 -112 42t-106 12q-139 0 -220 -64t-81 -174q0 -114 79.5 -180t216.5 -66q69 0 115.5 16t116.5 65l-7 -68h199v625h-201zM277 249 q0 53 39 83.5t108 30.5q70 0 108 -30.5t38 -85.5q0 -52 -39.5 -82t-106.5 -30q-69 0 -108 30.5t-39 83.5zM298 249q0 -44 33 -68.5t93 -24.5q59 0 92 24t33 67q0 46 -32.5 70.5t-92.5 24.5t-93 -24.5t-33 -68.5z" />
<glyph unicode="e" horiz-adv-x="847" d="M534 156h275q-14 -51 -35.5 -79.5t-62.5 -49.5q-93 -48 -258 -48q-207 0 -306 59q-50 29 -79.5 87.5t-29.5 129.5q0 62 23.5 113t64.5 80q107 74 300 74q124 0 213.5 -35t127.5 -97q21 -34 29.5 -77.5t10.5 -128.5h-499q13 -33 44 -47.5t89 -14.5q38 0 57.5 7t35.5 27z M279 205h506q-2 75 -13.5 118.5t-37.5 75.5q-39 48 -121 75t-188 27q-186 0 -286 -69q-37 -25 -58.5 -72.5t-21.5 -104.5q0 -66 26.5 -119.5t72.5 -79.5q94 -56 294 -56q283 0 328 135h-236q-31 -34 -103 -34q-75 0 -113 24.5t-49 79.5zM279 301q26 96 148 96q124 0 145 -96 h-293zM310 322h232q-22 54 -115 54q-92 0 -117 -54z" />
<glyph unicode="f" horiz-adv-x="482" d="M112 0v356h-75v145h75v44q0 80 40.5 111.5t143.5 31.5q43 0 149 -6v-144q-9 1 -20 1q-45 0 -57 -6.5t-13 -31.5h90v-145h-90v-356h-243zM133 21h201v356h90v103h-90q-1 52 15 65.5t75 13.5v104q-77 4 -127 4q-95 0 -129.5 -26t-34.5 -96v-65h-75v-103h75v-356z" />
<glyph unicode="g" horiz-adv-x="856" d="M49 21h283q15 -20 32 -27t52 -7q70 0 101 21.5t38 74.5q-65 -40 -185 -40q-179 0 -270 66q-33 24 -52 67t-19 93q0 114 85 179.5t233 65.5q141 0 210 -57v44h243v-394q0 -74 -14 -116.5t-47 -71.5q-84 -70 -341 -70q-173 0 -253 39.5t-96 132.5zM75 0q25 -72 97 -101 t226 -29q262 0 334 72q26 26 36.5 63t10.5 102v373h-201v-71q-47 47 -92 63q-63 21 -140 21q-138 0 -217 -59.5t-79 -164.5q0 -45 17 -84t46 -60q87 -61 256 -61q71 0 117 13t95 47q-5 -88 -34 -117q-37 -40 -130 -40q-66 0 -95 33h-247zM276 263q0 45 42 72.5t110 27.5 q69 0 109.5 -27t40.5 -73q0 -45 -41.5 -73t-108.5 -28q-69 0 -110.5 27.5t-41.5 73.5zM297 263q0 -37 35.5 -58.5t95.5 -21.5q58 0 93.5 22t35.5 58q0 37 -34.5 58t-93.5 21q-60 0 -96 -21.5t-36 -57.5z" />
<glyph unicode="h" horiz-adv-x="824" d="M55 0v667h243v-208q94 55 223 55q128 0 191 -53q36 -31 46.5 -69.5t10.5 -142.5v-249h-244v208q0 77 -16 102q-21 34 -85 34q-67 0 -96.5 -32t-29.5 -104v-208h-243zM76 21h201v187q0 67 21 100q37 57 125 57q77 0 104 -43q19 -33 19 -114v-187h202v228q0 99 -9 133.5 t-42 62.5q-55 48 -174 48q-73 0 -125.5 -15t-120.5 -55v223h-201v-625z" />
<glyph unicode="i" horiz-adv-x="354" d="M55 537v130h244v-130h-244zM76 558h202v88h-202v-88zM55 0v501h244v-501h-244zM76 21h202v459h-202v-459z" />
<glyph unicode="j" horiz-adv-x="399" d="M100 537v130h244v-130h-244zM121 558h202v88h-202v-88zM8 12q37 -4 49 -4q26 0 34.5 11.5t8.5 46.5v435h244v-474q0 -63 -6.5 -93.5t-24.5 -48.5q-37 -38 -136 -38q-71 0 -169 22v143zM29 -11v-103q80 -18 148 -18q91 0 121 31q25 26 25 128v453h-202v-414q0 -45 -14 -62 t-50 -16z" />
<glyph unicode="k" horiz-adv-x="822" d="M55 0v667h243v-307l155 141h334l-215 -180l227 -321h-304l-119 184l-78 -67v-117h-243zM76 21h201v106l104 88l126 -194h252l-216 304l186 155h-267l-185 -168v334h-201v-625z" />
<glyph unicode="l" horiz-adv-x="354" d="M55 0v667h244v-667h-244zM76 21h202v625h-202v-625z" />
<glyph unicode="m" horiz-adv-x="1286" d="M55 0v501h234v-54q91 67 231 67q142 0 210 -72q102 72 252 72q139 0 200 -67q49 -55 49 -179v-268h-244v194q0 88 -21.5 119t-81.5 31q-70 0 -99 -40q-21 -28 -21 -93v-211h-244v195q0 55 -3.5 77.5t-13.5 38.5q-21 33 -84 33q-73 0 -102 -44q-19 -28 -19 -88v-212h-243z M76 21h201v191q0 67 22 99q35 54 119 54q75 0 102 -42q12 -19 16.5 -45t4.5 -83v-174h202v190q0 71 25 105q34 49 117 49q78 0 105 -50q18 -36 18 -121v-173h202v247q0 117 -44 165q-56 60 -183 60q-82 0 -139.5 -17.5t-116.5 -61.5q-38 43 -74 57q-58 22 -133 22 q-76 0 -142 -23q-52 -18 -110 -66v76h-192v-459z" />
<glyph unicode="n" horiz-adv-x="824" d="M55 0v501h243v-42q97 55 224 55q128 0 190 -54q40 -35 51 -89q6 -25 6 -122v-249h-244v208q0 77 -16 102q-21 34 -85 34q-67 0 -96.5 -32t-29.5 -104v-208h-243zM76 21h201v187q0 67 21 100q37 57 125 57q77 0 104 -43q19 -33 19 -114v-187h202v228q0 78 -3.5 105 t-16.5 53q-43 86 -204 86q-72 0 -125 -15t-122 -55v57h-201v-459z" />
<glyph unicode="o" horiz-adv-x="854" d="M179 18q-150 57 -150 238q0 80 39.5 140t110.5 87q103 39 248 39q146 0 248 -39q72 -28 110.5 -88t38.5 -145q0 -84 -38.5 -144t-110.5 -88q-103 -39 -247 -39q-146 0 -249 39zM187 37q99 -37 241 -37q141 0 238 37q67 25 102 80t35 134q0 78 -35.5 133t-101.5 80 q-97 37 -239 37q-141 0 -240 -37q-65 -25 -101 -79.5t-36 -129.5q0 -166 137 -218zM277 252q0 61 41 98.5t109 37.5t108.5 -37.5t40.5 -100.5q0 -60 -41.5 -98.5t-107.5 -38.5q-67 0 -108.5 38.5t-41.5 100.5zM298 252q0 -53 35.5 -85.5t93.5 -32.5q57 0 92.5 32.5 t35.5 84.5q0 53 -34.5 84.5t-93.5 31.5t-94 -31t-35 -84z" />
<glyph unicode="p" horiz-adv-x="856" d="M55 -141v642h243v-40q78 53 205 53q148 0 235 -71.5t87 -192.5q0 -60 -24.5 -112.5t-67.5 -86.5q-81 -64 -236 -64q-124 0 -199 45v-173h-243zM76 -120h201v191q52 -35 100 -49t121 -14q146 0 222 59q39 30 61.5 79.5t22.5 104.5q0 111 -81 176.5t-219 65.5 q-78 0 -124.5 -14.5t-102.5 -57.5v59h-201v-600zM276 253q0 54 39 83t112 29t112 -29t39 -84t-39 -84.5t-111 -29.5q-152 0 -152 115zM297 253q0 -94 130 -94t130 93q0 92 -130 92t-130 -91z" />
<glyph unicode="q" horiz-adv-x="856" d="M557 -141v173q-75 -45 -199 -45q-155 0 -236 64q-43 34 -67.5 87t-24.5 113q0 121 87.5 192t235.5 71q126 0 204 -53v40h243v-642h-243zM578 480v-59q-56 43 -102.5 57.5t-123.5 14.5q-139 0 -220 -65.5t-81 -176.5q0 -55 22.5 -104.5t61.5 -79.5q76 -59 222 -59 q73 0 121.5 14t99.5 49v-191h201v600h-201zM277 252q0 55 38.5 84t111.5 29q151 0 151 -115q0 -54 -39 -83t-111 -29q-74 0 -112.5 29.5t-38.5 84.5zM298 252q0 -93 130 -93q129 0 129 91q0 94 -130 94q-129 0 -129 -92z" />
<glyph unicode="r" horiz-adv-x="709" d="M55 0v501h243v-40q81 53 182 53q150 0 184 -106q13 -37 14 -148h-243q-2 45 -16 62.5t-48 17.5q-39 0 -56 -25t-17 -81v-234h-243zM76 21h201v213q0 66 22.5 96.5t71.5 30.5q76 0 84 -80h202q-1 93 -19 134q-32 78 -159 78q-58 0 -102.5 -16t-99.5 -56v59h-201v-459z" />
<glyph unicode="s" horiz-adv-x="832" d="M770 342l-307 10q-18 22 -74 22q-57 0 -57 -18q0 -9 14 -13t57 -7q136 -10 213 -25q88 -18 129 -55.5t41 -99.5q0 -177 -352 -177q-220 0 -308 56q-39 26 -56 55.5t-23 82.5l290 -13q12 -20 31 -27.5t58 -7.5q62 0 62 23q0 10 -23.5 15t-137.5 19q-124 15 -177 35 q-97 38 -97 130q0 93 86 134q83 41 247 41q216 0 302 -54q36 -23 53.5 -49.5t28.5 -76.5zM72 151q13 -80 98 -115.5t264 -35.5q331 0 331 157q0 54 -36 85.5t-117 48.5q-95 20 -210 25q-52 3 -71.5 11.5t-19.5 28.5q0 21 18.5 30t59.5 9q54 0 84 -22l270 -9q-22 73 -105 105 t-252 32q-161 0 -236.5 -37t-75.5 -117q0 -95 124 -124q34 -8 109 -18l17.5 -2.5t33 -4.5t62.5 -8q57 -8 73 -15.5t16 -26.5q0 -44 -83 -44q-76 0 -102 36z" />
<glyph unicode="t" horiz-adv-x="461" d="M424 0h-143q-68 0 -104 10t-55 35q-13 16 -17 37.5t-4 67.5v206h-81v145h81v166h244v-166h79v-145h-79v-172q0 -32 11 -38t68 -6v-140zM122 377v-227q0 -44 4 -63.5t17 -33.5q29 -32 138 -32h122v98q-49 0 -64 12.5t-15 52.5v193h79v103h-79v166h-202v-166h-81v-103h81z " />
<glyph unicode="u" horiz-adv-x="824" d="M525 0v42q-99 -55 -224 -55q-129 0 -189 53q-39 35 -51 90q-6 25 -6 121v250h243v-208q0 -77 16 -102q20 -34 86 -34q80 0 109 51q16 28 16 85v208h244v-501h-244zM76 480v-229q0 -75 3.5 -103t16.5 -54q44 -86 204 -86q72 0 124 15t122 55v-57h202v459h-202v-187 q0 -68 -21 -100q-37 -57 -125 -57q-77 0 -104 43q-19 33 -19 114v187h-201z" />
<glyph unicode="v" horiz-adv-x="769" d="M255 0l-242 501h270l109 -254l108 254h257l-239 -501h-263zM268 21h237l218 459h-208l-122 -287l-124 287h-222z" />
<glyph unicode="w" horiz-adv-x="1257" d="M272 0l-251 501h270l112 -228l105 228h264l106 -227l106 227h251l-238 -501h-247l-115 241l-125 -241h-238zM285 21h212l139 268l128 -268h219l218 459h-203l-120 -257l-120 257h-236l-118 -256l-127 256h-222z" />
<glyph unicode="x" horiz-adv-x="881" d="M21 0l266 269l-228 232h312l84 -92l85 92h304l-229 -235l245 -266h-310l-100 109l-111 -109h-318zM71 21h259l121 118l109 -118h252l-226 246l208 213h-244l-95 -102l-93 102h-253l208 -211z" />
<glyph unicode="y" horiz-adv-x="799" d="M87 47q65 -32 117 -32q28 0 51 6l-234 480h272l121 -267l110 267h252l-148 -356q-78 -187 -132 -240q-63 -58 -218 -58q-89 0 -191 19v181zM108 14v-131q93 -15 171 -15q145 0 203 53q52 50 127 231l136 328h-207l-123 -300l-136 300h-224l230 -472q-46 -14 -79 -14 q-50 0 -98 20z" />
<glyph unicode="z" horiz-adv-x="757" d="M38 0v134l235 171l5 3l15 11l36 23q-32 -4 -86 -4h-176v163h652v-132l-265 -178q-19 -13 -61 -34q42 6 84 6h235v-163h-674zM59 21h632v121h-348l355 238v100h-610v-121h296l-325 -235v-103z" />
<glyph unicode="{" horiz-adv-x="507" d="M64 22v96q0 37 -10.5 50t-44.5 17v156q34 4 44.5 17t10.5 50v96q0 96 55 134q37 25 88 28q19 1 112 1h71v-164h-38q-50 0 -57 -5q-5 -4 -5 -39v-67q0 -88 -47 -129q47 -40 47 -129v-67q0 -37 5 -39q10 -5 57 -5h38v-164h-71q-93 0 -115 1t-41 7q-99 29 -99 155zM86 22 q0 -87 45 -117q31 -21 78 -24q18 -1 110 -1h49v122h-16q-58 0 -71 10t-13 55v67q0 50 -12.5 77t-47.5 52q35 25 47.5 52t12.5 77v67q0 45 13 55t71 10h16v122h-49q-125 0 -150 -7q-44 -13 -63.5 -45t-19.5 -90v-95q0 -41 -12.5 -60.5t-42.5 -24.5v-122q30 -5 42.5 -24 t12.5 -60v-96z" />
<glyph unicode="|" horiz-adv-x="500" d="M159 -162v829h181v-829h-181zM180 -141h139v787h-139v-787z" />
<glyph unicode="}" horiz-adv-x="507" d="M117 23h38q50 0 57 5q5 4 5 39v67q0 88 47 129q-47 40 -47 129v67q0 37 -5 39q-10 5 -57 5h-38v164h71q93 0 115 -1t41 -7q52 -15 76 -52.5t24 -102.5v-96q0 -38 10.5 -51t43.5 -16v-156q-33 -3 -43.5 -16t-10.5 -51v-96q0 -96 -55 -134q-37 -25 -88 -28q-20 -1 -113 -1 h-71v164zM139 2v-122h49q96 0 115.5 1t35.5 6q43 13 63 45t20 90v95q0 41 12.5 60.5t41.5 24.5v122q-29 5 -41.5 24.5t-12.5 59.5v96q0 85 -46 117q-30 21 -77 24q-19 1 -111 1h-49v-122h16q58 0 71 -10t13 -55v-67q0 -50 12.5 -77t47.5 -52q-35 -25 -47.5 -52t-12.5 -77 v-67q0 -45 -13 -55t-71 -10h-16z" />
<glyph unicode="~" horiz-adv-x="667" d="M173 527l-93 75q31 78 70.5 113.5t92.5 35.5q34 0 116 -33q56 -23 71 -23q19 0 31.5 12.5t34.5 51.5l92 -75q-24 -58 -42 -82q-49 -65 -127 -65q-23 0 -41.5 5.5t-73.5 28.5q-49 20 -67 20t-30.5 -12.5t-33.5 -51.5zM166 560q33 52 70 52q25 0 76 -22q52 -22 69.5 -27 t37.5 -5q50 0 82.5 27.5t60.5 91.5l-60 49q-31 -52 -72 -52q-21 0 -79 24q-79 32 -108 32q-85 0 -137 -121z" />
<glyph unicode="&#xa1;" horiz-adv-x="440" d="M101 455v212h238v-212h-238zM122 476h196v170h-196v-170zM89 0l38 421h186l38 -421h-262zM112 21h216l-35 379h-146z" />
<glyph unicode="&#xa2;" d="M429 -47v105q-129 5 -220 46q-69 32 -106 93.5t-37 146.5q0 184 174 248q68 26 189 34v101h121v-101q166 -14 244.5 -68t99.5 -169h-288q-31 75 -122 75q-63 0 -101 -32q-34 -28 -34 -90q0 -125 140 -125q56 0 84 22.5t41 77.5h279q-9 -246 -345 -259v-105h-119zM450 706 v-100q-152 -9 -225 -42q-138 -63 -138 -220q0 -102 57 -168q77 -91 306 -97v-105h77v104q164 5 248.5 58.5t94.5 159.5h-239q-15 -52 -49 -76t-93 -24q-78 0 -119.5 37.5t-41.5 108.5t41 105q44 38 115 38q99 0 136 -75h248q-26 97 -101 140.5t-238 56.5v99h-79z" />
<glyph unicode="&#xa3;" d="M111 157q34 26 49 56.5t19 83.5h-55v126h42q-12 39 -12 75q0 85 58 128q77 59 279 59q227 0 305 -84q26 -28 37.5 -64.5t14.5 -97.5h-280q-2 53 -16 72t-52 19q-64 0 -64 -57q0 -21 10 -50h105v-126h-105q-17 -59 -63 -108q45 27 72 36.5t59 9.5t77 -17q53 -21 81 -21 q24 0 44 9t70 44l63 -196q-53 -40 -91.5 -56t-82.5 -16q-31 0 -49 3.5t-97 24.5q-75 21 -145 21q-97 0 -175 -44zM138 152l79 -137q71 37 167 37q46 0 86.5 -7.5t135.5 -33.5q32 -8 69 -8q69 0 149 59l-49 155q-36 -25 -56.5 -33t-46.5 -8q-31 0 -89 23q-41 15 -69 15 q-42 0 -120 -36q-28 -13 -67 -33q50 61 72 98t31 75h100v84h-100q-15 42 -15 71q0 38 22 58t63 20q43 0 64 -22t24 -69h237q-6 83 -45 127q-71 77 -289 77q-195 0 -266 -54q-50 -38 -50 -111q0 -37 20 -97h-50v-84h58q-4 -64 -18.5 -101t-46.5 -65z" />
<glyph unicode="&#xa4;" horiz-adv-x="667" d="M96 42l-67 67l94 96q-45 70 -45 141t45 139l-97 97l68 68l96 -96q72 45 143 45t141 -45l97 95l67 -68l-96 -95q46 -70 46 -141q0 -69 -45 -139l96 -96l-67 -69l-96 97q-70 -45 -142 -45t-142 45zM96 71l94 94q71 -51 144 -51q76 0 144 51l94 -94l38 39l-94 94 q51 68 51 141q0 75 -52 143l93 94l-37 37l-95 -93q-66 52 -143 52q-76 0 -145 -52l-94 94l-38 -38l95 -94q-52 -69 -52 -142q0 -76 52 -143l-92 -94zM333 174q-71 0 -121 50t-50 121q0 72 50.5 122t122.5 50q69 0 119 -51t50 -121q0 -71 -50 -121t-121 -50zM333 195 q62 0 106 44t44 106t-43.5 106.5t-104.5 44.5q-64 0 -108 -44t-44 -107q0 -61 44.5 -105.5t105.5 -44.5z" />
<glyph unicode="&#xa5;" d="M47 177v126h210l-42 67h-175v127h95l-107 170h316l137 -234l140 234h311l-109 -170h97v-127h-179l-43 -67h215v-126h-296l-5 -7v-170h-271v170l-5 7h-289zM68 198h280l14 -22v-155h229v155l14 22h287v84h-233l70 109h170v85h-115l109 170h-260l-152 -256l-149 256h-266 l107 -170h-112v-85h165l69 -109h-227v-84z" />
<glyph unicode="&#xa6;" horiz-adv-x="500" d="M159 304v363h181v-363h-181zM180 325h139v321h-139v-321zM159 -162v331h181v-331h-181zM180 -141h139v289h-139v-289z" />
<glyph unicode="&#xa7;" horiz-adv-x="717" d="M97 122v13h186q4 -21 19.5 -28.5t53.5 -7.5q58 0 58 22q0 7 -15.5 13.5t-108.5 34.5q-156 48 -191 75q-59 44 -59 114q0 90 96 131q-22 28 -22 73q0 74 71.5 119.5t186.5 45.5q143 0 210 -72q41 -44 41 -113h-192q-1 19 -12 24.5t-44 5.5q-51 0 -51 -16q0 -5 6 -8t32 -11 l188 -61q66 -22 97 -56.5t31 -87.5q0 -87 -85 -128q30 -40 30 -85q0 -83 -71 -131t-194 -48t-192 48t-69 134zM117 108q0 -68 64.5 -107.5t176.5 -39.5q114 0 179 42.5t65 116.5q0 51 -46 90q57 24 79 51t22 71q0 88 -114 124l-188 62q-33 11 -42.5 18t-9.5 20q0 37 72 37 q67 0 77 -30h149q-5 65 -67 104t-163 39q-105 0 -170.5 -40t-65.5 -104q0 -42 35 -82q-59 -22 -84 -50t-25 -72q0 -78 80 -115q38 -18 230 -77q35 -10 46 -17q18 -11 18 -30q0 -41 -80 -41q-43 0 -67 10q-17 6 -22 26h-149v-6zM263 331q-31 10 -42.5 19t-11.5 24q0 39 54 39 l202 -63q28 -9 38 -18t10 -24q0 -37 -54 -37zM260 354l200 -62q30 0 30 18q0 11 -32 20l-196 62h-1q-13 1 -21.5 -4t-8.5 -13q0 -7 6 -11.5t23 -9.5z" />
<glyph unicode="&#xa8;" horiz-adv-x="701" d="M391 564v130h244v-130h-244zM67 564v130h244v-130h-244zM412 585h202v88h-202v-88zM88 585h202v88h-202v-88z" />
<glyph unicode="&#xa9;" horiz-adv-x="909" d="M33 338q0 143 124.5 246.5t297.5 103.5q174 0 297.5 -104t123.5 -250q0 -147 -123.5 -251t-296.5 -104q-178 0 -300.5 104t-122.5 255zM55 338q0 -142 116.5 -240t283.5 -98q165 0 282 98t117 236q0 137 -117 235t-282 98q-164 0 -282 -97t-118 -232zM86 337 q0 124 109 214t260 90q152 0 260 -90t108 -217t-107.5 -217.5t-259.5 -90.5q-155 0 -262.5 90.5t-107.5 220.5zM108 337q0 -122 101 -206t246 -84q143 0 244.5 84t101.5 203q0 118 -101.5 202t-244.5 84t-245 -83.5t-102 -199.5zM544 300h185q-4 -48 -19.5 -74.5 t-52.5 -48.5q-69 -42 -204 -42t-202 50q-72 55 -72 155q0 201 277 201q159 0 228 -63q38 -35 46 -106h-186q-9 33 -27.5 45.5t-59.5 12.5q-98 0 -98 -88q0 -46 25.5 -71.5t72.5 -25.5q37 0 55.5 11.5t31.5 43.5zM559 393h146q-24 127 -249 127q-256 0 -256 -180 q0 -99 77 -147q58 -37 176 -37q139 0 203 45q42 28 50 78h-148q-15 -30 -38 -42.5t-63 -12.5q-56 0 -87.5 31t-31.5 86q0 53 30.5 81.5t88.5 28.5q83 0 102 -58z" />
<glyph unicode="&#xaa;" horiz-adv-x="568" d="M359 267l-2 21q-59 -29 -145 -29q-88 0 -138 28.5t-50 78.5q0 55 67 78t229 25q30 0 30 7q0 8 -21 14t-46 6q-49 0 -63 -14l-173 -6q8 36 25 55t51 32q51 20 152 20q157 0 206 -40q18 -15 25 -35.5t7 -57.5v-111q0 -30 3 -41.5t17 -30.5h-174zM75 497l135 5q18 15 73 15 q41 0 65 -11t24 -30q0 -16 -15 -21t-64 -6q-128 -2 -200 -25q-48 -16 -48 -57t44 -64t122 -23q51 0 85 8.5t79 32.5l3 -33h120q-6 19 -6 51v111q0 35 -6.5 52t-24.5 29q-43 31 -189 31q-62 0 -117 -11q-32 -7 -47.5 -17t-32.5 -37zM372 419v-21q0 -33 -24.5 -46.5 t-85.5 -13.5q-72 0 -72 36q0 35 55 38q4 0 10 0.5t25 0.5t44 1q13 0 48 5zM351 394v2q-1 -1 -3 -1q-12 -2 -68 -3q-43 -1 -56 -4t-13 -13q0 -16 50 -16t70 8t20 27z" />
<glyph unicode="&#xab;" horiz-adv-x="696" d="M335 259l104 198h168l-102 -198l102 -199h-168zM193 60l-104 199l104 198h167l-101 -198l101 -199h-167zM359 259l93 -178h120l-91 178l91 177h-120zM206 81h120l-91 178l91 177h-120l-93 -177z" />
<glyph unicode="&#xac;" horiz-adv-x="500" d="M23 148v156h453v-304h-175v148h-278zM44 169h278v-148h133v262h-411v-114z" />
<glyph unicode="&#xad;" horiz-adv-x="392" d="M0 153v212h392v-212h-392zM21 174h350v170h-350v-170z" />
<glyph unicode="&#xae;" horiz-adv-x="909" d="M33 338q0 143 124.5 246.5t297.5 103.5q174 0 297.5 -104t123.5 -250q0 -147 -123.5 -251t-296.5 -104q-178 0 -300.5 104t-122.5 255zM55 338q0 -142 116.5 -240t283.5 -98q165 0 282 98t117 236q0 137 -117 235t-282 98q-164 0 -282 -97t-118 -232zM86 337 q0 124 109 214t260 90q152 0 260 -90t108 -217t-107.5 -217.5t-259.5 -90.5q-155 0 -262.5 90.5t-107.5 220.5zM108 337q0 -122 101 -206t246 -84q143 0 244.5 84t101.5 203q0 118 -101.5 202t-244.5 84t-245 -83.5t-102 -199.5zM221 147v382h295q69 0 96.5 -4.5t46.5 -19.5 q40 -31 40 -90q0 -68 -54 -94q27 -14 35 -34.5t10 -84.5q1 -22 3.5 -30t14.5 -25h-177q-5 26 -6 56q-3 55 -11.5 65t-52.5 10h-75v-131h-165zM242 168h123v131h96q53 0 67.5 -16t17.5 -79l1 -19q0 -3 2 -17h124q-3 12 -4 34q-3 67 -12 82.5t-56 39.5q46 16 61.5 34.5 t15.5 56.5q0 54 -36 77q-27 16 -126 16h-274v-340zM365 351v96h112q33 0 46 -7q22 -11 22 -40q0 -30 -24 -43q-12 -6 -45 -6h-111zM386 372h90q29 0 38.5 5.5t9.5 22.5q0 15 -9.5 20.5t-37.5 5.5h-91v-54z" />
<glyph unicode="&#xaf;" horiz-adv-x="500" d="M-83 564v137h667v-137h-667zM-62 585h625v95h-625v-95z" />
<glyph unicode="&#xb0;" horiz-adv-x="500" d="M251 344q-71 0 -120.5 48t-49.5 116t50 116.5t120 48.5q71 0 119.5 -48t48.5 -118q0 -67 -49.5 -115t-118.5 -48zM251 365q60 0 103.5 42t43.5 100q0 61 -42.5 103t-104.5 42t-105.5 -42t-43.5 -102q0 -59 43.5 -101t105.5 -42zM250 402q-44 0 -76 31.5t-32 74.5 q0 44 32 75.5t75 31.5q45 0 77 -31.5t32 -77.5q0 -42 -32 -73t-76 -31zM250 423q35 0 61 25t26 58q0 37 -25.5 62.5t-62.5 25.5q-35 0 -60.5 -26t-25.5 -60q0 -35 25.5 -60t61.5 -25z" />
<glyph unicode="&#xb1;" d="M216 349v145h190v139h148v-139h190v-145h-190v-139h-148v139h-190zM237 370h190v-139h106v139h190v103h-190v139h-106v-139h-190v-103zM216 33v145h528v-145h-528zM237 54h486v103h-486v-103z" />
<glyph unicode="&#xb2;" horiz-adv-x="599" d="M30 266q3 117 62.5 168t228.5 83q54 10 54 26q0 22 -59 22q-42 0 -60 -11t-23 -40h-200q3 43 17 70t45 48q64 46 212 46q264 0 264 -144q0 -78 -85 -108q-40 -15 -146 -28q-89 -11 -114 -23q40 4 94 4h242v-113h-532zM52 287h489v71h-368q34 29 64.5 40t100.5 20 q111 15 150 31q62 25 62 85q0 123 -243 123q-233 0 -250 -122h159q15 51 99 51q81 0 81 -43q0 -21 -21 -31q-10 -6 -109 -27q-116 -25 -162 -67.5t-52 -130.5z" />
<glyph unicode="&#xb3;" horiz-adv-x="599" d="M231 540h-195q5 43 21 66.5t51 40.5q65 31 203 31q246 0 246 -121q0 -25 -13 -41t-45 -30q73 -27 73 -91q0 -68 -70.5 -104t-201.5 -36q-162 0 -221 45q-25 20 -36.5 44t-15.5 67h195q5 -26 21 -35t55 -9q78 0 78 35q0 14 -10.5 18.5t-47.5 4.5h-57v108h42q43 0 50.5 2 t7.5 12q0 23 -57 23q-35 0 -50.5 -6.5t-22.5 -23.5zM51 390q10 -62 67 -88t183 -26q122 0 186 31t64 89q0 35 -21.5 53.5t-84.5 37.5q56 16 73.5 29t17.5 39q0 102 -225 102q-230 0 -250 -96h157q19 30 85 30q79 0 79 -44q0 -27 -30 -33h-6q-6 -1 -17.5 -1.5t-25.5 -0.5h-21 v-66h36q44 0 58 -7q21 -13 21 -38q0 -55 -99 -55q-76 0 -92 44h-155z" />
<glyph unicode="&#xb4;" horiz-adv-x="530" d="M67 543l70 137h327l-155 -137h-242zM102 564h199l107 95h-258z" />
<glyph unicode="&#xb5;" horiz-adv-x="500" d="M18 -166v652h155v-251q0 -55 14 -78q23 -37 63 -37q77 0 77 118v248h154v-486h-154v30q-32 -39 -79 -39q-44 0 -75 33v-190h-155zM39 -145h113v247q29 -55 38 -64q23 -26 58 -26q42 0 65 36q6 10 35 84v-111h112v444h-112v-227q0 -67 -25.5 -103t-72.5 -36q-56 0 -85 54 q-13 25 -13 82v230h-113v-610z" />
<glyph unicode="&#xb6;" d="M465 219h-104q-95 0 -138 7t-79 27q-92 54 -92 190q0 122 77 177q38 27 87 37t146 10h506v-808h-164v720h-76v-720h-163v360zM847 646h-485q-93 0 -139.5 -9t-80.5 -34q-69 -49 -69 -161q0 -123 82 -171q33 -19 73.5 -25t132.5 -6h125v-360h120v720h120v-720h121v766z " />
<glyph unicode="&#xb7;" d="M364 152v219h232v-219h-232zM385 173h190v177h-190v-177z" />
<glyph unicode="&#xb8;" horiz-adv-x="443" d="M121 -83l57 83h80q-23 -32 -33 -42q28 5 44 5q49 0 78 -23.5t29 -63.5q0 -49 -40.5 -78.5t-106.5 -29.5q-81 0 -162 30l30 59q71 -22 112 -22t41 28q0 29 -40 29q-20 0 -56 -9zM148 -81l13 -13q31 7 48 7q29 0 45.5 -13.5t16.5 -36.5t-17 -36t-45 -13q-47 0 -101 18 l-11 -22q80 -21 125 -21q62 0 97.5 23t35.5 63q0 67 -94 67q-24 0 -72 -7l31 47h-29z" />
<glyph unicode="&#xb9;" horiz-adv-x="599" d="M249 266v252q-33 -12 -68 -18v104q50 20 70 31t42 32h125v-401h-169zM270 287h127v359h-96q-33 -31 -99 -56v-65q31 8 68 24v-262z" />
<glyph unicode="&#xba;" horiz-adv-x="554" d="M279 254q-130 0 -193 41t-63 127q0 48 25.5 85t71.5 53q64 23 158 23q254 0 254 -165q0 -51 -25.5 -88t-71.5 -53q-69 -23 -156 -23zM279 275q87 0 148 22q84 29 84 121q0 73 -57 108.5t-176 35.5q-234 0 -234 -141q0 -75 57 -110.5t178 -35.5zM277 333q-44 0 -71 24 t-27 63q0 38 27 61t71 23t71 -23.5t27 -62.5q0 -37 -27.5 -61t-70.5 -24zM277 353q35 0 56 18t21 47q0 30 -20.5 47.5t-56.5 17.5q-35 0 -56 -17.5t-21 -46.5q0 -30 21 -48t56 -18z" />
<glyph unicode="&#xbb;" horiz-adv-x="696" d="M335 60l102 199l-102 198h168l104 -198l-104 -199h-168zM89 60l102 199l-102 198h167l104 -198l-104 -199h-167zM370 81h120l92 178l-92 177h-120l91 -177zM124 81h119l93 178l-93 177h-119l91 -177z" />
<glyph unicode="&#xbc;" horiz-adv-x="1313" d="M492 0l237 667h92l-233 -667h-96zM249 266v252q-35 -12 -68 -18v104q50 20 70 31t42 32h125v-401h-169zM522 21h50l219 625h-46zM270 287h127v359h-96q-33 -31 -99 -56v-65q31 8 68 24v-262zM748 61v115l238 224h223v-215h71v-124h-71v-61h-169v61h-292zM769 82h292v-61 h127v61h71v82h-71v215h-193l-226 -212v-85zM890 164l171 162v-162h-171zM1010 246l-44 -41q-13 -13 -30 -23q27 3 59 3h45v62q0 17 2 35q-2 -3 -13 -16z" />
<glyph unicode="&#xbd;" horiz-adv-x="1313" d="M492 0l237 667h92l-233 -667h-96zM249 266v252q-35 -12 -68 -18v104q50 20 70 31t42 32h125v-401h-169zM522 21h50l219 625h-46zM270 287h127v359h-96q-33 -31 -99 -56v-65q31 8 68 24v-262zM744 0q2 61 15.5 100t48 68t87.5 47.5t140 34.5q54 9 54 26q0 22 -59 22 q-42 0 -60 -11t-23 -40h-200q3 43 17 70t45 48q64 46 212 46q264 0 264 -144q0 -78 -85 -108q-35 -13 -146 -28q-89 -11 -114 -23q40 4 94 4h242v-112h-532zM766 21h489v70h-368q35 29 65 40t100 20q113 15 150 31q62 25 62 85q0 123 -243 123q-232 0 -250 -122h159 q15 51 99 51q81 0 81 -43q0 -20 -21 -31q-10 -6 -109 -27q-115 -25 -161.5 -67.5t-52.5 -129.5z" />
<glyph unicode="&#xbe;" horiz-adv-x="1313" d="M231 540h-195q5 43 21 66.5t51 40.5q65 31 203 31q246 0 246 -121q0 -25 -13 -41t-45 -30q73 -27 73 -91q0 -68 -70.5 -104t-201.5 -36q-162 0 -221 45q-25 20 -36.5 44t-15.5 67h195q5 -26 21 -35t55 -9q78 0 78 35q0 14 -10.5 18.5t-47.5 4.5h-57v108h42q43 0 50.5 2 t7.5 12q0 23 -57 23q-35 0 -50.5 -6.5t-22.5 -23.5zM492 0l238 667h91l-233 -667h-96zM51 390q10 -62 67 -88t183 -26q122 0 186 31t64 89q0 35 -21.5 53.5t-84.5 37.5q56 16 73.5 29t17.5 39q0 102 -225 102q-230 0 -250 -96h157q19 30 85 30q79 0 79 -44q0 -27 -30 -33h-6 q-6 -1 -17.5 -1.5t-25.5 -0.5h-21v-66h36q44 0 58 -7q21 -13 21 -38q0 -55 -99 -55q-76 0 -92 44h-155zM523 21h50l218 625h-46zM748 61v115l238 224h223v-215h71v-124h-71v-61h-169v61h-292zM769 82h292v-61h127v61h71v82h-71v215h-193l-226 -212v-85zM890 164l171 162 v-162h-171zM1010 246l-44 -41q-13 -13 -30 -23q27 3 59 3h45v62q0 17 2 35q-2 -3 -13 -16z" />
<glyph unicode="&#xbf;" horiz-adv-x="819" d="M287 446v221h242v-221h-242zM308 467h200v179h-200v-179zM515 225h280q-3 -62 -21 -100.5t-58 -69.5q-98 -76 -311 -76q-184 0 -285.5 56.5t-101.5 157.5q0 44 21 79.5t58 54.5q41 21 137 47q26 8 36 15.5t20 28.5h240q-5 -73 -34 -107.5t-109 -65.5q-47 -18 -63.5 -32.5 t-16.5 -35.5q0 -23 24 -36t67 -13q60 0 86.5 22t30.5 75zM506 397h-203q-13 -22 -29.5 -30.5t-73.5 -23.5q-82 -21 -116 -50q-45 -37 -45 -100q0 -91 96.5 -142t269.5 -51q220 0 311 83q50 46 56 121h-237q-15 -97 -137 -97q-52 0 -82 19t-30 51q0 29 20 48t73 40 q69 27 95 53.5t32 78.5z" />
<glyph unicode="&#xc0;" horiz-adv-x="884" d="M334 725l-184 140h330l87 -140h-233zM341 746h188l-61 98h-255zM-4 0l272 667h347l273 -667h-294l-28 60h-263l-25 -60h-282zM28 21h236l25 60h291l28 -60h247l-254 625h-318zM325 220l109 297l107 -297h-216zM354 241h158l-54 148q-17 47 -24 80q-6 -29 -25 -80z" />
<glyph unicode="&#xc1;" horiz-adv-x="884" d="M334 725l86 140h331l-184 -140h-233zM372 746h187l129 98h-255zM-4 0l272 667h347l273 -667h-294l-28 60h-263l-25 -60h-282zM28 21h236l25 60h291l28 -60h247l-254 625h-318zM325 220l109 297l107 -297h-216zM354 241h158l-54 148q-17 47 -24 80q-6 -29 -25 -80z" />
<glyph unicode="&#xc2;" horiz-adv-x="884" d="M134 726l191 137h272l172 -137h-287l-41 39l-43 -39h-264zM200 747h189l52 47l49 -47h219l-120 95h-257zM-4 0l272 667h347l273 -667h-294l-28 60h-263l-25 -60h-282zM28 21h236l25 60h291l28 -60h247l-254 625h-318zM325 220l109 297l107 -297h-216zM354 241h158 l-54 148q-17 47 -24 80q-6 -29 -25 -80z" />
<glyph unicode="&#xc3;" horiz-adv-x="884" d="M116 721q14 42 32 66.5t48 44.5q59 39 156 39q37 0 147 -14q65 -9 105 -9q36 0 60 20h131q-21 -74 -73 -112q-51 -37 -153 -37q-56 0 -225 17q-24 3 -44 3q-27 0 -44 -18h-140zM147 742h100q21 18 54 18q18 0 127 -11q86 -9 141 -9q103 0 150 40q31 25 47 67h-94 q-27 -20 -70 -20q-42 0 -175 18q-43 5 -75 5q-162 0 -205 -108zM-4 0l272 667h347l273 -667h-294l-28 60h-263l-25 -60h-282zM28 21h236l25 60h291l28 -60h247l-254 625h-318zM325 220l109 297l107 -297h-216zM354 241h158l-54 148q-17 47 -24 80q-6 -29 -25 -80z" />
<glyph unicode="&#xc4;" horiz-adv-x="884" d="M474 726v137h247v-137h-247zM150 726v137h246v-137h-246zM495 747h205v95h-205v-95zM171 747h204v95h-204v-95zM-4 0l272 667h324l296 -667h-294l-28 60h-263l-25 -60h-282zM28 21h236l25 60h291l28 -60h247l-277 625h-295zM330 220l96 297l108 -297h-204zM359 241h145 l-54 148q-14 36 -23 80q-6 -36 -20 -80z" />
<glyph unicode="&#xc5;" horiz-adv-x="884" d="M439 703q-59 0 -94 26.5t-35 72.5q0 41 36 67t93 26q58 0 93.5 -26t35.5 -69q0 -44 -35 -70.5t-94 -26.5zM440 724q50 0 78.5 20.5t28.5 55.5q0 33 -29.5 53.5t-78.5 20.5q-48 0 -78 -20t-30 -53q0 -36 29 -56.5t80 -20.5zM439 752q-21 0 -35.5 14.5t-14.5 34.5 q0 19 15 33.5t35 14.5t34.5 -14t14.5 -34t-14.5 -34.5t-34.5 -14.5zM439 773q11 0 19.5 8t8.5 19t-8.5 19.5t-19.5 8.5q-12 0 -20.5 -8t-8.5 -19q0 -12 8.5 -20t20.5 -8zM-4 0l272 667h324l296 -667h-294l-28 60h-263l-25 -60h-282zM28 21h236l25 60h291l28 -60h247 l-277 625h-295zM330 220l96 297l108 -297h-204zM359 241h145l-54 148q-14 36 -23 80q-6 -36 -20 -80z" />
<glyph unicode="&#xc6;" horiz-adv-x="1541" d="M-4 0l580 667h899v-181h-495v-58h418v-181h-418v-67h514v-180h-783v105h-305l-88 -105h-322zM42 21h266l88 105h336v-105h741v138h-514v109h418v139h-418v100h495v139h-868zM509 265l223 260v-260h-223zM555 286h156v125q0 29 5 69q-12 -24 -40 -55z" />
<glyph unicode="&#xc7;" horiz-adv-x="1008" d="M385 -99l57 79q-104 6 -165.5 25t-116.5 61q-122 95 -122 270q0 178 119 263q122 89 351 89q268 0 387 -110q33 -32 50.5 -72t24.5 -103h-306q-15 48 -34 68q-36 36 -122 36q-176 0 -176 -166q0 -87 46 -134.5t131 -47.5q65 0 99.5 22t55.5 76h306q-6 -75 -33.5 -122 t-86.5 -83q-67 -40 -130.5 -54.5t-186.5 -18.5q-16 -20 -33 -34q29 7 52 7q61 0 96.5 -25t35.5 -68q0 -55 -49 -87t-133 -32q-83 0 -182 34l34 63q83 -24 130 -24q23 0 37 9t14 23q0 31 -53 31q-21 0 -57 -10zM680 424h266q-15 90 -66 139q-113 104 -372 104 q-449 0 -449 -332q0 -210 183 -294q48 -22 94 -29.5t146 -11.5l-69 -96l17 -14q28 7 50 7q35 0 55.5 -14t20.5 -37t-20 -38.5t-51 -15.5q-52 0 -120 20l-14 -26q83 -25 151 -25q75 0 118 26t43 72q0 34 -30 53t-86 19q-27 0 -83 -8l58 77q107 2 164 11.5t110 34.5 q72 34 107 78.5t43 111.5h-268q-20 -44 -43 -63q-41 -35 -126 -35q-93 0 -145.5 53.5t-52.5 148.5q0 92 50.5 140t147.5 48q72 0 113 -25t58 -79z" />
<glyph unicode="&#xc8;" horiz-adv-x="926" d="M375 725l-184 140h330l87 -140h-233zM382 746h188l-61 98h-255zM78 0v667h769v-181h-500v-58h414v-181h-414v-67h531v-180h-800zM99 21h758v138h-531v109h414v139h-414v100h500v139h-727v-625z" />
<glyph unicode="&#xc9;" horiz-adv-x="926" d="M344 725l86 140h331l-184 -140h-233zM382 746h187l129 98h-255zM78 0v667h769v-181h-500v-58h414v-181h-414v-67h531v-180h-800zM99 21h758v138h-531v109h414v139h-414v100h500v139h-727v-625z" />
<glyph unicode="&#xca;" horiz-adv-x="926" d="M162 726l191 137h271l173 -137h-288l-40 39l-44 -39h-263zM227 747h190l52 47l49 -47h219l-120 95h-257zM78 0v667h769v-181h-500v-58h414v-181h-414v-67h531v-180h-800zM99 21h758v138h-531v109h414v139h-414v100h500v139h-727v-625z" />
<glyph unicode="&#xcb;" horiz-adv-x="926" d="M515 726v137h246v-137h-246zM191 726v137h246v-137h-246zM536 747h204v95h-204v-95zM212 747h204v95h-204v-95zM78 0v667h769v-181h-500v-58h414v-181h-414v-67h531v-180h-800zM99 21h758v138h-531v109h414v139h-414v100h500v139h-727v-625z" />
<glyph unicode="&#xcc;" horiz-adv-x="423" d="M107 725l-184 140h330l87 -140h-233zM114 746h188l-61 98h-255zM77 0v667h269v-667h-269zM98 21h227v625h-227v-625z" />
<glyph unicode="&#xcd;" horiz-adv-x="423" d="M103 725l86 140h331l-184 -140h-233zM141 746h187l129 98h-255zM77 0v667h270v-667h-270zM98 21h228v625h-228v-625z" />
<glyph unicode="&#xce;" horiz-adv-x="423" d="M-86 726l191 137h272l172 -137h-287l-41 39l-43 -39h-264zM-20 747h189l52 47l49 -47h219l-120 95h-257zM77 0v667h269v-667h-269zM98 21h227v625h-227v-625z" />
<glyph unicode="&#xcf;" horiz-adv-x="423" d="M238 726v137h186v-137h-186zM11 726v137h186v-137h-186zM259 747h144v95h-144v-95zM32 747h144v95h-144v-95zM76 0v667h270v-667h-270zM97 21h228v625h-228v-625z" />
<glyph unicode="&#xd0;" horiz-adv-x="980" d="M77 0v294h-80v102h80v271h448q131 0 199 -17.5t120 -63.5q98 -87 98 -261q0 -163 -85 -245q-50 -48 -115.5 -64t-212.5 -16h-452zM98 21h431q143 0 205 14.5t108 59.5q79 76 79 230q0 164 -91 246q-48 43 -113.5 59t-191.5 16h-427v-271h-80v-60h80v-294zM325 159v156 h126v60h-126v132h134q76 0 104 -5t53 -22q61 -42 61 -148q0 -110 -63 -148q-39 -25 -152 -25h-137zM346 180h116q71 0 104 7t53 27q37 37 37 119q0 95 -52 130q-21 15 -47 19t-98 4h-113v-90h126v-102h-126v-114z" />
<glyph unicode="&#xd1;" horiz-adv-x="994" d="M188 721q14 42 32 66.5t48 44.5q59 39 156 39q37 0 147 -14q65 -9 105 -9q36 0 60 20h131q-21 -74 -73 -112q-51 -37 -153 -37q-56 0 -225 17q-24 3 -44 3q-27 0 -44 -18h-140zM219 742h100q21 18 54 18q18 0 127 -11q86 -9 141 -9q103 0 150 40q31 25 47 67h-94 q-27 -20 -70 -20q-42 0 -175 18q-43 5 -75 5q-162 0 -205 -108zM77 0v667h299l236 -293q33 -40 44 -62q-5 38 -5 80v275h266v-667h-291l-241 301q-24 29 -46 66q4 -32 4 -74v-293h-266zM98 21h224v391l314 -391h260v625h-224v-380l-307 380h-267v-625z" />
<glyph unicode="&#xd2;" horiz-adv-x="998" d="M398 725l-184 140h330l87 -140h-233zM405 746h188l-61 98h-255zM38 339q0 174 105 257q115 92 356 92q237 0 349 -86t112 -268q0 -181 -112.5 -268t-345.5 -87q-241 0 -352.5 86.5t-111.5 273.5zM59 339q0 -178 105.5 -258.5t337.5 -80.5q225 0 331 81t106 253 q0 173 -106 253t-334 80q-226 0 -333 -80t-107 -248zM311 336q0 93 48.5 142.5t139.5 49.5q92 0 140 -49.5t48 -145.5q0 -95 -48 -145t-139 -50q-189 0 -189 198zM332 336q0 -177 168 -177q166 0 166 174t-167 174t-167 -171z" />
<glyph unicode="&#xd3;" horiz-adv-x="998" d="M394 725l86 140h331l-184 -140h-233zM432 746h187l129 98h-255zM38 339q0 174 105 257q115 92 356 92q237 0 349 -86t112 -268q0 -181 -112.5 -268t-345.5 -87q-241 0 -352.5 86.5t-111.5 273.5zM59 339q0 -178 105.5 -258.5t337.5 -80.5q225 0 331 81t106 253 q0 173 -106 253t-334 80q-226 0 -333 -80t-107 -248zM311 336q0 93 48.5 142.5t139.5 49.5q92 0 140 -49.5t48 -145.5q0 -95 -48 -145t-139 -50q-189 0 -189 198zM332 336q0 -177 168 -177q166 0 166 174t-167 174t-167 -171z" />
<glyph unicode="&#xd4;" horiz-adv-x="998" d="M192 726l191 137h272l172 -137h-287l-41 39l-43 -39h-264zM258 747h189l52 47l49 -47h219l-120 95h-257zM38 339q0 174 105 257q115 92 356 92q237 0 349 -86t112 -268q0 -181 -112.5 -268t-345.5 -87q-241 0 -352.5 86.5t-111.5 273.5zM59 339q0 -178 105.5 -258.5 t337.5 -80.5q225 0 331 81t106 253q0 173 -106 253t-334 80q-226 0 -333 -80t-107 -248zM311 336q0 93 48.5 142.5t139.5 49.5q92 0 140 -49.5t48 -145.5q0 -95 -48 -145t-139 -50q-189 0 -189 198zM332 336q0 -177 168 -177q166 0 166 174t-167 174t-167 -171z" />
<glyph unicode="&#xd5;" horiz-adv-x="998" d="M180 721q14 42 32 66.5t48 44.5q59 39 156 39q37 0 147 -14q65 -9 105 -9q36 0 60 20h131q-21 -74 -73 -112q-51 -37 -153 -37q-56 0 -225 17q-24 3 -44 3q-27 0 -44 -18h-140zM211 742h100q21 18 54 18q18 0 127 -11q86 -9 141 -9q103 0 150 40q31 25 47 67h-94 q-27 -20 -70 -20q-42 0 -175 18q-43 5 -75 5q-162 0 -205 -108zM38 339q0 174 105 257q115 92 356 92q237 0 349 -86t112 -268q0 -181 -112.5 -268t-345.5 -87q-241 0 -352.5 86.5t-111.5 273.5zM59 339q0 -178 105.5 -258.5t337.5 -80.5q225 0 331 81t106 253 q0 173 -106 253t-334 80q-226 0 -333 -80t-107 -248zM311 336q0 93 48.5 142.5t139.5 49.5q92 0 140 -49.5t48 -145.5q0 -95 -48 -145t-139 -50q-189 0 -189 198zM332 336q0 -177 168 -177q166 0 166 174t-167 174t-167 -171z" />
<glyph unicode="&#xd6;" horiz-adv-x="998" d="M542 726v137h246v-137h-246zM217 726v137h246v-137h-246zM563 747h204v95h-204v-95zM238 747h204v95h-204v-95zM38 339q0 174 105 257q115 92 356 92q237 0 349 -86t112 -268q0 -181 -112.5 -268t-345.5 -87q-241 0 -352.5 86.5t-111.5 273.5zM59 339 q0 -178 105.5 -258.5t337.5 -80.5q225 0 331 81t106 253q0 173 -106 253t-334 80q-226 0 -333 -80t-107 -248zM311 336q0 93 48.5 142.5t139.5 49.5q92 0 140 -49.5t48 -145.5q0 -95 -48 -145t-139 -50q-189 0 -189 198zM332 336q0 -177 168 -177q166 0 166 174t-167 174 t-167 -171z" />
<glyph unicode="&#xd7;" d="M234 205l141 138l-141 139l104 102l142 -138l141 138l105 -102l-142 -139l142 -138l-105 -102l-141 138l-142 -138zM264 205l74 -73l142 139l141 -139l74 73l-141 138l141 139l-74 73l-141 -139l-142 139l-74 -73l142 -139z" />
<glyph unicode="&#xd8;" horiz-adv-x="1005" d="M48 43l75 57q-42 45 -60 98.5t-18 131.5q0 191 114 274q117 84 340 84q207 0 312 -63l80 61l67 -79l-65 -49q37 -40 52.5 -91t15.5 -127q0 -185 -99 -265q-118 -96 -354 -96q-200 0 -301 55l-95 -73zM78 39l38 -49l88 69q107 -59 304 -59q228 0 340 91q92 74 92 250 q0 78 -17 126t-61 94l66 50l-40 46l-75 -57q-59 37 -130.5 52t-182.5 15q-216 0 -329 -80q-55 -40 -80 -102t-25 -157q0 -79 19 -129.5t69 -101.5zM330 234q-12 49 -12 100q0 94 46.5 143.5t134.5 49.5q100 0 145 -58zM345 271l267 201q-35 34 -110 34q-80 0 -121.5 -42.5 t-41.5 -123.5q0 -40 6 -69zM368 186l309 232q11 -54 11 -88q0 -93 -48 -142t-139 -49q-45 0 -74 10.5t-59 36.5zM402 185q33 -25 104 -25q77 0 119 43t42 122q0 23 -5 55z" />
<glyph unicode="&#xd9;" horiz-adv-x="959" d="M382 725l-184 140h330l87 -140h-233zM389 746h188l-61 98h-255zM887 667v-385q0 -83 -18 -134.5t-61 -87.5q-96 -81 -328 -81q-248 0 -340 91q-37 36 -52.5 85t-15.5 127v385h269v-342q0 -89 32 -127t107 -38t106.5 38t31.5 127v342h269zM93 646v-364q0 -78 17 -126 t55 -81q90 -75 315 -75q238 0 324 85q33 32 47.5 78t14.5 119v364h-227v-321q0 -86 -27 -128q-38 -58 -132 -58q-85 0 -122.5 44t-37.5 142v321h-227z" />
<glyph unicode="&#xda;" horiz-adv-x="959" d="M371 725l86 140h331l-184 -140h-233zM409 746h187l129 98h-255zM887 667v-385q0 -83 -18 -134.5t-61 -87.5q-96 -81 -328 -81q-248 0 -340 91q-37 36 -52.5 85t-15.5 127v385h269v-342q0 -89 32 -127t107 -38t106.5 38t31.5 127v342h269zM93 646v-364q0 -78 17 -126 t55 -81q90 -75 315 -75q238 0 324 85q33 32 47.5 78t14.5 119v364h-227v-321q0 -86 -27 -128q-38 -58 -132 -58q-85 0 -122.5 44t-37.5 142v321h-227z" />
<glyph unicode="&#xdb;" horiz-adv-x="959" d="M182 726l191 137h272l172 -137h-287l-41 39l-43 -39h-264zM248 747h189l52 47l49 -47h219l-120 95h-257zM887 667v-385q0 -83 -18 -134.5t-61 -87.5q-96 -81 -328 -81q-248 0 -340 91q-37 36 -52.5 85t-15.5 127v385h269v-342q0 -89 32 -127t107 -38t106.5 38t31.5 127 v342h269zM93 646v-364q0 -78 17 -126t55 -81q90 -75 315 -75q238 0 324 85q33 32 47.5 78t14.5 119v364h-227v-321q0 -86 -27 -128q-38 -58 -132 -58q-85 0 -122.5 44t-37.5 142v321h-227z" />
<glyph unicode="&#xdc;" horiz-adv-x="959" d="M525 726v137h246v-137h-246zM200 726v137h246v-137h-246zM546 747h204v95h-204v-95zM221 747h204v95h-204v-95zM887 667v-385q0 -83 -18 -134.5t-61 -87.5q-96 -81 -328 -81q-248 0 -340 91q-37 36 -52.5 85t-15.5 127v385h269v-342q0 -89 32 -127t107 -38t106.5 38 t31.5 127v342h269zM93 646v-364q0 -78 17 -126t55 -81q90 -75 315 -75q238 0 324 85q33 32 47.5 78t14.5 119v364h-227v-321q0 -86 -27 -128q-38 -58 -132 -58q-85 0 -122.5 44t-37.5 142v321h-227z" />
<glyph unicode="&#xdd;" horiz-adv-x="879" d="M341 725l86 140h331l-184 -140h-233zM379 746h187l129 98h-255zM300 0v170l-313 497h316l137 -234l140 234h311l-320 -497v-170h-271zM321 21h229v155l303 470h-261l-152 -255l-149 255h-266l296 -470v-155z" />
<glyph unicode="&#xde;" horiz-adv-x="922" d="M77 0v667h269v-79h236q97 0 146.5 -10t86.5 -37q77 -55 77 -177q0 -136 -92 -190q-36 -20 -79 -27t-137 -7h-238v-140h-269zM98 21h227v140h259q91 0 131.5 6t73.5 25q82 48 82 172q0 110 -69 161q-34 24 -80.5 33t-139.5 9h-257v79h-227v-625zM325 291v159h175 q80 0 104 -21q23 -20 23 -56q0 -54 -40 -73q-18 -9 -88 -9h-174zM346 312h153q65 0 81 9q26 15 26 52q0 33 -22 44.5t-84 11.5h-154v-117z" />
<glyph unicode="&#xdf;" horiz-adv-x="872" d="M55 0v433q0 74 12.5 112t47.5 67q92 76 316 76q171 0 261.5 -50.5t90.5 -145.5q0 -87 -81 -112q131 -49 131 -181q0 -212 -309 -212q-92 0 -185 16v170q67 -16 117 -16q107 0 107 70q0 44 -47 57q-28 8 -90 8h-60v133h59q93 0 93 48q0 24 -25 37.5t-69 13.5 q-70 0 -101 -35q-25 -26 -25 -96v-393h-243zM76 21h201v372q0 78 29 110q39 42 118 42q54 0 84.5 -19t30.5 -53q0 -69 -114 -69h-38v-91h39q66 0 96 -9q29 -8 45.5 -28.5t16.5 -48.5q0 -44 -33.5 -67.5t-94.5 -23.5q-41 0 -96 11v-126q75 -13 164 -13q288 0 288 191 q0 79 -50 124q-26 24 -126 62q72 12 99 35t27 72q0 85 -85 130t-246 45q-108 0 -189.5 -21t-120.5 -58q-26 -26 -35.5 -57.5t-9.5 -97.5v-412z" />
<glyph unicode="&#xe0;" horiz-adv-x="876" d="M334 543l-155 137h327l70 -137h-242zM342 564h199l-49 95h-257zM562 0l-4 40q-98 -53 -237 -53q-137 0 -214.5 46.5t-77.5 128.5q0 85 94.5 123t326.5 45q66 2 82.5 5t16.5 12q0 15 -32.5 25.5t-78.5 10.5q-84 0 -106 -31l-264 -10q13 59 38 91t76 54q79 35 241 35 q247 0 322 -66q28 -24 38.5 -57t10.5 -95v-190q0 -49 4.5 -68t21.5 -46h-258zM96 363l225 9q26 32 116 32q61 0 97 -16t36 -42q0 -21 -23 -28t-97 -8q-203 -3 -319 -44q-81 -30 -81 -104q0 -73 71.5 -113.5t199.5 -40.5q80 0 134 14t121 51l5 -52h203q-11 36 -11 93v190 q0 61 -11 91.5t-40 52.5q-72 53 -300 53q-152 0 -228.5 -32.5t-97.5 -105.5zM571 244v-28q0 -53 -37.5 -74t-132.5 -21q-107 0 -107 55q0 21 15.5 35t43.5 18q22 3 111 6q62 1 107 9zM315 176q0 -34 84 -34q109 0 138 28q13 13 13 49q-34 -4 -119 -6q-76 -2 -93 -9 q-23 -9 -23 -28z" />
<glyph unicode="&#xe1;" horiz-adv-x="876" d="M348 543l70 137h327l-155 -137h-242zM383 564h199l107 95h-258zM562 0l-4 40q-98 -53 -237 -53q-137 0 -214.5 46.5t-77.5 128.5q0 85 94.5 123t326.5 45q66 2 82.5 5t16.5 12q0 15 -32.5 25.5t-78.5 10.5q-84 0 -106 -31l-264 -10q13 59 38 91t76 54q79 35 241 35 q247 0 322 -66q28 -24 38.5 -57t10.5 -95v-190q0 -49 4.5 -68t21.5 -46h-258zM96 363l225 9q26 32 116 32q61 0 97 -16t36 -42q0 -21 -23 -28t-97 -8q-203 -3 -319 -44q-81 -30 -81 -104q0 -73 71.5 -113.5t199.5 -40.5q80 0 134 14t121 51l5 -52h203q-11 36 -11 93v190 q0 61 -11 91.5t-40 52.5q-72 53 -300 53q-152 0 -228.5 -32.5t-97.5 -105.5zM571 244v-28q0 -53 -37.5 -74t-132.5 -21q-107 0 -107 55q0 21 15.5 35t43.5 18q22 3 111 6q62 1 107 9zM315 176q0 -34 84 -34q109 0 138 28q13 13 13 49q-34 -4 -119 -6q-76 -2 -93 -9 q-23 -9 -23 -28z" />
<glyph unicode="&#xe2;" horiz-adv-x="876" d="M140 543l191 137h272l172 -137h-287l-41 39l-43 -39h-264zM206 564h189l52 47l49 -47h219l-120 95h-257zM562 0l-4 40q-98 -53 -237 -53q-137 0 -214.5 46.5t-77.5 128.5q0 85 94.5 123t326.5 45q66 2 82.5 5t16.5 12q0 15 -32.5 25.5t-78.5 10.5q-84 0 -106 -31 l-264 -10q13 59 38 91t76 54q79 35 241 35q247 0 322 -66q28 -24 38.5 -57t10.5 -95v-190q0 -49 4.5 -68t21.5 -46h-258zM96 363l225 9q26 32 116 32q61 0 97 -16t36 -42q0 -21 -23 -28t-97 -8q-203 -3 -319 -44q-81 -30 -81 -104q0 -73 71.5 -113.5t199.5 -40.5 q80 0 134 14t121 51l5 -52h203q-11 36 -11 93v190q0 61 -11 91.5t-40 52.5q-72 53 -300 53q-152 0 -228.5 -32.5t-97.5 -105.5zM571 244v-28q0 -53 -37.5 -74t-132.5 -21q-107 0 -107 55q0 21 15.5 35t43.5 18q22 3 111 6q62 1 107 9zM315 176q0 -34 84 -34q109 0 138 28 q13 13 13 49q-34 -4 -119 -6q-76 -2 -93 -9q-23 -9 -23 -28z" />
<glyph unicode="&#xe3;" horiz-adv-x="876" d="M125 537q27 78 80 112q59 39 156 39q37 0 147 -15q67 -9 105 -9q36 0 60 21h131q-21 -75 -73 -112q-51 -38 -153 -38q-54 0 -225 17q-24 3 -44 3q-27 0 -44 -18h-140zM156 558h100q21 18 54 18q18 0 127 -11q87 -9 141 -9q102 0 150 41q32 27 47 67h-94q-27 -21 -70 -21 q-45 0 -175 18q-41 6 -75 6q-161 0 -205 -109zM562 0l-4 40q-98 -53 -237 -53q-137 0 -214.5 46.5t-77.5 128.5q0 85 94.5 123t326.5 45q66 2 82.5 5t16.5 12q0 15 -32.5 25.5t-78.5 10.5q-84 0 -106 -31l-264 -10q13 59 38 91t76 54q79 35 241 35q247 0 322 -66 q28 -24 38.5 -57t10.5 -95v-190q0 -49 4.5 -68t21.5 -46h-258zM96 363l225 9q26 32 116 32q61 0 97 -16t36 -42q0 -21 -23 -28t-97 -8q-203 -3 -319 -44q-81 -30 -81 -104q0 -73 71.5 -113.5t199.5 -40.5q80 0 134 14t121 51l5 -52h203q-11 36 -11 93v190q0 61 -11 91.5 t-40 52.5q-72 53 -300 53q-152 0 -228.5 -32.5t-97.5 -105.5zM571 244v-28q0 -53 -37.5 -74t-132.5 -21q-107 0 -107 55q0 21 15.5 35t43.5 18q22 3 111 6q62 1 107 9zM315 176q0 -34 84 -34q109 0 138 28q13 13 13 49q-34 -4 -119 -6q-76 -2 -93 -9q-23 -9 -23 -28z" />
<glyph unicode="&#xe4;" horiz-adv-x="876" d="M492 564v130h244v-130h-244zM168 564v130h244v-130h-244zM513 585h202v88h-202v-88zM189 585h202v88h-202v-88zM562 0l-4 40q-98 -53 -237 -53q-137 0 -214.5 46.5t-77.5 128.5q0 85 94.5 123t326.5 45q66 2 82.5 5t16.5 12q0 15 -32.5 25.5t-78.5 10.5q-84 0 -106 -31 l-264 -10q13 59 38 91t76 54q79 35 241 35q247 0 322 -66q28 -24 38.5 -57t10.5 -95v-190q0 -49 4.5 -68t21.5 -46h-258zM96 363l225 9q26 32 116 32q61 0 97 -16t36 -42q0 -21 -23 -28t-97 -8q-203 -3 -319 -44q-81 -30 -81 -104q0 -73 71.5 -113.5t199.5 -40.5 q80 0 134 14t121 51l5 -52h203q-11 36 -11 93v190q0 61 -11 91.5t-40 52.5q-72 53 -300 53q-152 0 -228.5 -32.5t-97.5 -105.5zM571 244v-28q0 -53 -37.5 -74t-132.5 -21q-107 0 -107 55q0 21 15.5 35t43.5 18q22 3 111 6q62 1 107 9zM315 176q0 -34 84 -34q109 0 138 28 q13 13 13 49q-34 -4 -119 -6q-76 -2 -93 -9q-23 -9 -23 -28z" />
<glyph unicode="&#xe5;" horiz-adv-x="876" d="M438 564q-59 0 -94 26.5t-35 72.5q0 41 36 67t93 26q58 0 93.5 -26t35.5 -69q0 -44 -35 -70.5t-94 -26.5zM438 585q49 0 78.5 20.5t29.5 55.5q0 33 -29.5 53.5t-78.5 20.5q-48 0 -78 -20t-30 -53q0 -36 29 -56.5t79 -20.5zM438 612q-21 0 -35.5 14.5t-14.5 34.5t15 34.5 t36 14.5q19 0 34 -15t15 -34q0 -20 -15 -34.5t-35 -14.5zM438 633q12 0 20.5 8.5t8.5 19.5t-8.5 19.5t-20.5 8.5t-20.5 -8t-8.5 -20q0 -11 8.5 -19.5t20.5 -8.5zM562 0l-4 40q-98 -53 -237 -53q-137 0 -214.5 46.5t-77.5 128.5q0 85 94.5 123t326.5 45q66 2 82.5 5t16.5 12 q0 15 -32.5 25.5t-78.5 10.5q-84 0 -106 -31l-264 -10q13 59 38 91t76 54q79 35 241 35q247 0 322 -66q28 -24 38.5 -57t10.5 -95v-190q0 -49 4.5 -68t21.5 -46h-258zM96 363l225 9q26 32 116 32q61 0 97 -16t36 -42q0 -21 -23 -28t-97 -8q-203 -3 -319 -44 q-81 -30 -81 -104q0 -73 71.5 -113.5t199.5 -40.5q80 0 134 14t121 51l5 -52h203q-11 36 -11 93v190q0 61 -11 91.5t-40 52.5q-72 53 -300 53q-152 0 -228.5 -32.5t-97.5 -105.5zM571 244v-28q0 -53 -37.5 -74t-132.5 -21q-107 0 -107 55q0 21 15.5 35t43.5 18q22 3 111 6 q62 1 107 9zM315 176q0 -34 84 -34q109 0 138 28q13 13 13 49q-34 -4 -119 -6q-76 -2 -93 -9q-23 -9 -23 -28z" />
<glyph unicode="&#xe6;" horiz-adv-x="1309" d="M1003 156h276q-22 -79 -97 -123q-95 -54 -258 -54q-195 0 -293 49q-89 -49 -251 -49q-166 0 -264 49q-41 20 -64 56.5t-23 80.5q0 89 94 125q92 36 233 37l177 1q-1 30 -23 42.5t-75 12.5q-80 0 -103 -31l-264 -10q14 60 38.5 91.5t75.5 53.5q82 36 229 36q159 0 252 -49 q100 48 246 48q113 0 197 -31.5t124 -88.5q25 -36 36 -83t13 -130h-486q19 -65 114 -65q65 0 96 32zM556 306h-200q-136 0 -225 -35q-81 -30 -81 -107q0 -38 20 -69.5t56 -48.5q92 -46 254 -46q80 0 156 16q51 11 95 35q52 -26 105 -36q84 -15 189 -15q257 0 325 135h-238 q-35 -32 -105 -32q-64 0 -97.5 25.5t-43.5 81.5h491q-3 74 -17 120.5t-43 78.5q-39 43 -115.5 67.5t-172.5 24.5q-80 0 -135 -11t-112 -39q-92 51 -252 51q-158 0 -236 -42q-59 -32 -79 -97l226 9q27 32 114 32q80 0 108 -34q12 -15 13 -64zM761 306q17 48 51 69t93 21 q53 0 84.5 -21.5t46.5 -68.5h-275zM795 327h209q-25 48 -99 48q-85 0 -110 -48zM399 226h157q0 -38 -9 -57.5t-32 -32.5q-37 -22 -123 -22q-115 0 -115 53q0 59 122 59zM533 205h-134q-101 0 -101 -37q0 -33 94 -33q86 0 118 22q22 15 23 48z" />
<glyph unicode="&#xe7;" horiz-adv-x="853" d="M329 -89l48 70q-91 8 -135 17.5t-85 28.5q-61 29 -94.5 87t-33.5 134q0 86 38.5 146t110.5 88q106 40 250 40q107 0 190.5 -21.5t127.5 -60.5q34 -29 50.5 -61t26.5 -85h-277q-27 71 -118 71q-61 0 -95.5 -30.5t-34.5 -85.5t35 -86t96 -31q59 0 91 29q22 20 33 65h269 q-6 -62 -22.5 -100t-52.5 -68q-49 -41 -107 -56.5t-184 -22.5l-23 -28q25 6 44 6q49 0 78 -23.5t29 -64.5q0 -48 -40.5 -77.5t-106.5 -29.5q-81 0 -162 30l30 59q69 -22 111 -22t42 28t-40 28q-19 0 -56 -9zM560 315h237q-18 79 -86 125q-41 28 -117.5 44.5t-165.5 16.5 q-141 0 -242 -38q-66 -25 -101 -80t-35 -135q0 -121 82 -181q40 -30 105 -45.5t179 -21.5l-59 -87l12 -13q31 6 48 6q29 0 45.5 -13t16.5 -36t-17 -36t-45 -13q-43 0 -101 18l-11 -22q80 -21 125 -21q62 0 97.5 23t35.5 63q0 67 -94 67q-20 0 -72 -7l47 71q171 1 255.5 49.5 t98.5 155.5h-229q-26 -94 -140 -94q-70 0 -111 37.5t-41 101.5q0 63 40.5 99.5t110.5 36.5q47 0 81.5 -18.5t50.5 -52.5z" />
<glyph unicode="&#xe8;" horiz-adv-x="847" d="M317 543l-155 137h327l70 -137h-242zM325 564h199l-49 95h-257zM534 156h275q-14 -51 -35.5 -79.5t-62.5 -49.5q-93 -48 -258 -48q-207 0 -306 59q-50 29 -79.5 87.5t-29.5 129.5q0 62 23.5 113t64.5 80q107 74 300 74q124 0 213.5 -35t127.5 -97q21 -34 29.5 -77.5 t10.5 -128.5h-499q13 -33 44 -47.5t89 -14.5q38 0 57.5 7t35.5 27zM279 205h506q-2 75 -13.5 118.5t-37.5 75.5q-39 48 -121 75t-188 27q-186 0 -286 -69q-37 -25 -58.5 -72.5t-21.5 -104.5q0 -66 26.5 -119.5t72.5 -79.5q94 -56 294 -56q283 0 328 135h-236 q-31 -34 -103 -34q-75 0 -113 24.5t-49 79.5zM279 301q26 96 148 96q124 0 145 -96h-293zM310 322h232q-22 54 -115 54q-92 0 -117 -54z" />
<glyph unicode="&#xe9;" horiz-adv-x="847" d="M312 543l70 137h327l-155 -137h-242zM347 564h199l107 95h-258zM534 156h275q-14 -51 -35.5 -79.5t-62.5 -49.5q-93 -48 -258 -48q-207 0 -306 59q-50 29 -79.5 87.5t-29.5 129.5q0 62 23.5 113t64.5 80q107 74 300 74q124 0 213.5 -35t127.5 -97q21 -34 29.5 -77.5 t10.5 -128.5h-499q13 -33 44 -47.5t89 -14.5q38 0 57.5 7t35.5 27zM279 205h506q-2 75 -13.5 118.5t-37.5 75.5q-39 48 -121 75t-188 27q-186 0 -286 -69q-37 -25 -58.5 -72.5t-21.5 -104.5q0 -66 26.5 -119.5t72.5 -79.5q94 -56 294 -56q283 0 328 135h-236 q-31 -34 -103 -34q-75 0 -113 24.5t-49 79.5zM279 301q26 96 148 96q124 0 145 -96h-293zM310 322h232q-22 54 -115 54q-92 0 -117 -54z" />
<glyph unicode="&#xea;" horiz-adv-x="847" d="M126 543l191 137h272l172 -137h-287l-41 39l-43 -39h-264zM192 564h189l52 47l49 -47h219l-120 95h-257zM534 156h275q-14 -51 -35.5 -79.5t-62.5 -49.5q-93 -48 -258 -48q-207 0 -306 59q-50 29 -79.5 87.5t-29.5 129.5q0 62 23.5 113t64.5 80q107 74 300 74 q124 0 213.5 -35t127.5 -97q21 -34 29.5 -77.5t10.5 -128.5h-499q13 -33 44 -47.5t89 -14.5q38 0 57.5 7t35.5 27zM279 205h506q-2 75 -13.5 118.5t-37.5 75.5q-39 48 -121 75t-188 27q-186 0 -286 -69q-37 -25 -58.5 -72.5t-21.5 -104.5q0 -66 26.5 -119.5t72.5 -79.5 q94 -56 294 -56q283 0 328 135h-236q-31 -34 -103 -34q-75 0 -113 24.5t-49 79.5zM279 301q26 96 148 96q124 0 145 -96h-293zM310 322h232q-22 54 -115 54q-92 0 -117 -54z" />
<glyph unicode="&#xeb;" horiz-adv-x="847" d="M470 564v130h244v-130h-244zM146 564v130h244v-130h-244zM491 585h202v88h-202v-88zM167 585h202v88h-202v-88zM534 156h275q-14 -51 -35.5 -79.5t-62.5 -49.5q-93 -48 -258 -48q-207 0 -306 59q-50 29 -79.5 87.5t-29.5 129.5q0 62 23.5 113t64.5 80q107 74 300 74 q124 0 213.5 -35t127.5 -97q21 -34 29.5 -77.5t10.5 -128.5h-499q13 -33 44 -47.5t89 -14.5q38 0 57.5 7t35.5 27zM279 205h506q-2 75 -13.5 118.5t-37.5 75.5q-39 48 -121 75t-188 27q-186 0 -286 -69q-37 -25 -58.5 -72.5t-21.5 -104.5q0 -66 26.5 -119.5t72.5 -79.5 q94 -56 294 -56q283 0 328 135h-236q-31 -34 -103 -34q-75 0 -113 24.5t-49 79.5zM279 301q26 96 148 96q124 0 145 -96h-293zM310 322h232q-22 54 -115 54q-92 0 -117 -54z" />
<glyph unicode="&#xec;" horiz-adv-x="354" d="M60 543l-155 137h327l70 -137h-242zM68 564h199l-49 95h-257zM55 0v501h243v-501h-243zM76 21h201v459h-201v-459z" />
<glyph unicode="&#xed;" horiz-adv-x="354" d="M65 543l70 137h327l-155 -137h-242zM100 564h199l107 95h-258zM55 0v501h244v-501h-244zM76 21h202v459h-202v-459z" />
<glyph unicode="&#xee;" horiz-adv-x="354" d="M-120 543l191 137h272l172 -137h-287l-41 39l-43 -39h-264zM-54 564h189l52 47l49 -47h219l-120 95h-257zM56 0v501h243v-501h-243zM77 21h201v459h-201v-459z" />
<glyph unicode="&#xef;" horiz-adv-x="354" d="M210 564v130h151v-130h-151zM13 564v130h151v-130h-151zM231 585h109v88h-109v-88zM34 585h109v88h-109v-88zM55 0v501h244v-501h-244zM76 21h202v459h-202v-459z" />
<glyph unicode="&#xf0;" horiz-adv-x="859" d="M399 698l-22 -15q-18 -11 -43 -23q73 -4 140 -23q167 -47 261 -148t94 -234q0 -88 -38.5 -148.5t-111.5 -88.5q-103 -39 -247 -39q-145 0 -248 39q-71 27 -110.5 87t-39.5 142q0 175 150 236q82 35 177 35q25 0 52 -5q-22 17 -87 39.5t-93 23.5l-134 -85l-44 65l26 17 q12 8 43 22h-34t-50 2l-13 1l49 79q31 2 57 2q9 0 84 -3l138 88zM105 520l123 78q74 -13 127 -35.5t125 -71.5q-63 8 -94 8q-69 0 -145 -19q-90 -24 -132 -71q-54 -59 -54 -158q0 -79 35 -134t102 -80q97 -37 240 -37q142 0 239 37q137 52 137 217q0 101 -59 184.5 t-169 137.5q-96 48 -294 75l83 53l-20 31l-126 -80q-79 3 -87 3q-26 0 -46 -1l-26 -40q41 -2 111 -10l-90 -57zM282 253q0 59 42 97t108 38t107.5 -38t41.5 -99t-41.5 -99.5t-107.5 -38.5q-68 0 -109 38.5t-41 101.5zM303 252q0 -53 35.5 -85.5t93.5 -32.5q57 0 92.5 32.5 t35.5 84.5t-35.5 84t-92.5 32t-93 -32t-36 -83z" />
<glyph unicode="&#xf1;" horiz-adv-x="824" d="M96 537q27 78 80 112q58 39 156 39q37 0 147 -15q67 -9 105 -9q36 0 60 21h131q-21 -75 -73 -112q-51 -38 -153 -38q-54 0 -225 17q-24 3 -44 3q-27 0 -44 -18h-140zM127 558h100q21 18 54 18q18 0 127 -11q87 -9 141 -9q102 0 150 41q32 27 47 67h-94q-27 -21 -70 -21 q-44 0 -175 18q-41 6 -75 6q-161 0 -205 -109zM55 0v501h243v-42q97 55 224 55q128 0 190 -54q40 -35 51 -89q6 -25 6 -122v-249h-244v208q0 77 -16 102q-21 34 -85 34q-67 0 -96.5 -32t-29.5 -104v-208h-243zM76 21h201v187q0 67 21 100q37 57 125 57q77 0 104 -43 q19 -33 19 -114v-187h202v228q0 78 -3.5 105t-16.5 53q-43 86 -204 86q-72 0 -125 -15t-122 -55v57h-201v-459z" />
<glyph unicode="&#xf2;" horiz-adv-x="854" d="M320 543l-155 137h327l70 -137h-242zM328 564h199l-49 95h-257zM179 18q-150 57 -150 238q0 80 39.5 140t110.5 87q103 39 248 39q146 0 248 -39q72 -28 110.5 -88t38.5 -145q0 -84 -38.5 -144t-110.5 -88q-103 -39 -247 -39q-146 0 -249 39zM187 37q99 -37 241 -37 q141 0 238 37q67 25 102 80t35 134q0 78 -35.5 133t-101.5 80q-97 37 -239 37q-141 0 -240 -37q-65 -25 -101 -79.5t-36 -129.5q0 -166 137 -218zM277 252q0 61 41 98.5t109 37.5t108.5 -37.5t40.5 -100.5q0 -60 -41.5 -98.5t-107.5 -38.5q-67 0 -108.5 38.5t-41.5 100.5z M298 252q0 -53 35.5 -85.5t93.5 -32.5q57 0 92.5 32.5t35.5 84.5q0 53 -34.5 84.5t-93.5 31.5t-94 -31t-35 -84z" />
<glyph unicode="&#xf3;" horiz-adv-x="854" d="M305 543l70 137h327l-155 -137h-242zM340 564h199l107 95h-258zM179 18q-150 57 -150 238q0 80 39.5 140t110.5 87q103 39 248 39q146 0 248 -39q72 -28 110.5 -88t38.5 -145q0 -84 -38.5 -144t-110.5 -88q-103 -39 -247 -39q-146 0 -249 39zM187 37q99 -37 241 -37 q141 0 238 37q67 25 102 80t35 134q0 78 -35.5 133t-101.5 80q-97 37 -239 37q-141 0 -240 -37q-65 -25 -101 -79.5t-36 -129.5q0 -166 137 -218zM277 252q0 61 41 98.5t109 37.5t108.5 -37.5t40.5 -100.5q0 -60 -41.5 -98.5t-107.5 -38.5q-67 0 -108.5 38.5t-41.5 100.5z M298 252q0 -53 35.5 -85.5t93.5 -32.5q57 0 92.5 32.5t35.5 84.5q0 53 -34.5 84.5t-93.5 31.5t-94 -31t-35 -84z" />
<glyph unicode="&#xf4;" horiz-adv-x="854" d="M119 543l191 137h272l172 -137h-287l-41 39l-43 -39h-264zM185 564h189l52 47l49 -47h219l-120 95h-257zM179 18q-150 57 -150 238q0 80 39.5 140t110.5 87q103 39 248 39q146 0 248 -39q72 -28 110.5 -88t38.5 -145q0 -84 -38.5 -144t-110.5 -88q-103 -39 -247 -39 q-146 0 -249 39zM187 37q99 -37 241 -37q141 0 238 37q67 25 102 80t35 134q0 78 -35.5 133t-101.5 80q-97 37 -239 37q-141 0 -240 -37q-65 -25 -101 -79.5t-36 -129.5q0 -166 137 -218zM277 252q0 61 41 98.5t109 37.5t108.5 -37.5t40.5 -100.5q0 -60 -41.5 -98.5 t-107.5 -38.5q-67 0 -108.5 38.5t-41.5 100.5zM298 252q0 -53 35.5 -85.5t93.5 -32.5q57 0 92.5 32.5t35.5 84.5q0 53 -34.5 84.5t-93.5 31.5t-94 -31t-35 -84z" />
<glyph unicode="&#xf5;" horiz-adv-x="854" d="M110 537q27 78 80 112q58 39 156 39q37 0 147 -15q67 -9 105 -9q36 0 60 21h131q-21 -75 -73 -112q-51 -38 -153 -38q-54 0 -225 17q-24 3 -44 3q-27 0 -44 -18h-140zM141 558h100q21 18 54 18q18 0 127 -11q87 -9 141 -9q102 0 150 41q32 27 47 67h-94q-27 -21 -70 -21 q-44 0 -175 18q-41 6 -75 6q-161 0 -205 -109zM179 18q-150 57 -150 238q0 80 39.5 140t110.5 87q103 39 248 39q146 0 248 -39q72 -28 110.5 -88t38.5 -145q0 -84 -38.5 -144t-110.5 -88q-103 -39 -247 -39q-146 0 -249 39zM187 37q99 -37 241 -37q141 0 238 37 q67 25 102 80t35 134q0 78 -35.5 133t-101.5 80q-97 37 -239 37q-141 0 -240 -37q-65 -25 -101 -79.5t-36 -129.5q0 -166 137 -218zM277 252q0 61 41 98.5t109 37.5t108.5 -37.5t40.5 -100.5q0 -60 -41.5 -98.5t-107.5 -38.5q-67 0 -108.5 38.5t-41.5 100.5zM298 252 q0 -53 35.5 -85.5t93.5 -32.5q57 0 92.5 32.5t35.5 84.5q0 53 -34.5 84.5t-93.5 31.5t-94 -31t-35 -84z" />
<glyph unicode="&#xf6;" horiz-adv-x="854" d="M469 564v130h244v-130h-244zM145 564v130h244v-130h-244zM490 585h202v88h-202v-88zM166 585h202v88h-202v-88zM179 18q-150 57 -150 238q0 80 39.5 140t110.5 87q103 39 248 39q146 0 248 -39q72 -28 110.5 -88t38.5 -145q0 -84 -38.5 -144t-110.5 -88 q-103 -39 -247 -39q-146 0 -249 39zM187 37q99 -37 241 -37q141 0 238 37q67 25 102 80t35 134q0 78 -35.5 133t-101.5 80q-97 37 -239 37q-141 0 -240 -37q-65 -25 -101 -79.5t-36 -129.5q0 -166 137 -218zM277 252q0 61 41 98.5t109 37.5t108.5 -37.5t40.5 -100.5 q0 -60 -41.5 -98.5t-107.5 -38.5q-67 0 -108.5 38.5t-41.5 100.5zM298 252q0 -53 35.5 -85.5t93.5 -32.5q57 0 92.5 32.5t35.5 84.5q0 53 -34.5 84.5t-93.5 31.5t-94 -31t-35 -84z" />
<glyph unicode="&#xf7;" d="M399 441v155h161v-155h-161zM420 462h119v113h-119v-113zM216 279v129h528v-129h-528zM237 300h486v87h-486v-87zM399 90v156h161v-156h-161zM420 111h119v114h-119v-114z" />
<glyph unicode="&#xf8;" horiz-adv-x="873" d="M38 22l70 49q-65 62 -65 183q0 137 90 196q110 72 306 72q158 0 252 -40l91 63l48 -65l-64 -45q71 -65 71 -184q0 -130 -77 -190q-50 -38 -135 -60t-186 -22q-163 0 -260 43l-92 -67zM68 18l24 -34l85 62q99 -46 262 -46q97 0 178.5 20.5t128.5 56.5q70 54 70 175 q0 63 -19 105t-65 80l68 48l-23 31l-84 -58q-96 43 -253 43q-190 0 -294 -68q-82 -53 -82 -179q0 -76 29 -131q14 -26 49 -54zM303 186q-12 37 -12 67q0 59 42.5 97.5t107.5 38.5q53 0 103 -38zM316 220l190 131q-27 17 -66 17q-57 0 -92.5 -32t-35.5 -83q0 -12 4 -33z M328 155l243 166q18 -39 18 -74q0 -59 -42 -96.5t-108 -37.5q-59 0 -111 42zM365 155q31 -21 75 -21q56 0 92 31.5t36 81.5q0 21 -8 42z" />
<glyph unicode="&#xf9;" horiz-adv-x="824" d="M298 543l-155 137h327l70 -137h-242zM306 564h199l-49 95h-257zM525 0v42q-99 -55 -224 -55q-129 0 -189 53q-39 35 -51 90q-6 25 -6 121v250h243v-208q0 -77 16 -102q20 -34 86 -34q80 0 109 51q16 28 16 85v208h244v-501h-244zM76 480v-229q0 -75 3.5 -103t16.5 -54 q44 -86 204 -86q72 0 124 15t122 55v-57h202v459h-202v-187q0 -68 -21 -100q-37 -57 -125 -57q-77 0 -104 43q-19 33 -19 114v187h-201z" />
<glyph unicode="&#xfa;" horiz-adv-x="824" d="M297 543l70 137h327l-155 -137h-242zM332 564h199l107 95h-258zM525 0v42q-99 -55 -224 -55q-129 0 -189 53q-39 35 -51 90q-6 25 -6 121v250h243v-208q0 -77 16 -102q20 -34 86 -34q80 0 109 51q16 28 16 85v208h244v-501h-244zM76 480v-229q0 -75 3.5 -103t16.5 -54 q44 -86 204 -86q72 0 124 15t122 55v-57h202v459h-202v-187q0 -68 -21 -100q-37 -57 -125 -57q-77 0 -104 43q-19 33 -19 114v187h-201z" />
<glyph unicode="&#xfb;" horiz-adv-x="824" d="M108 543l191 137h272l172 -137h-287l-41 39l-43 -39h-264zM174 564h189l52 47l49 -47h219l-120 95h-257zM525 0v42q-99 -55 -224 -55q-129 0 -189 53q-39 35 -51 90q-6 25 -6 121v250h243v-208q0 -77 16 -102q20 -34 86 -34q80 0 109 51q16 28 16 85v208h244v-501h-244z M76 480v-229q0 -75 3.5 -103t16.5 -54q44 -86 204 -86q72 0 124 15t122 55v-57h202v459h-202v-187q0 -68 -21 -100q-37 -57 -125 -57q-77 0 -104 43q-19 33 -19 114v187h-201z" />
<glyph unicode="&#xfc;" horiz-adv-x="824" d="M458 564v130h244v-130h-244zM134 564v130h244v-130h-244zM479 585h202v88h-202v-88zM155 585h202v88h-202v-88zM525 0v42q-99 -55 -224 -55q-129 0 -189 53q-39 35 -51 90q-6 25 -6 121v250h243v-208q0 -77 16 -102q20 -34 86 -34q80 0 109 51q16 28 16 85v208h244v-501 h-244zM76 480v-229q0 -75 3.5 -103t16.5 -54q44 -86 204 -86q72 0 124 15t122 55v-57h202v459h-202v-187q0 -68 -21 -100q-37 -57 -125 -57q-77 0 -104 43q-19 33 -19 114v187h-201z" />
<glyph unicode="&#xfd;" horiz-adv-x="799" d="M291 543l70 137h327l-155 -137h-242zM326 564h199l107 95h-258zM87 47q65 -32 117 -32q28 0 51 6l-234 480h272l121 -267l110 267h252l-148 -356q-78 -187 -132 -240q-63 -58 -218 -58q-89 0 -191 19v181zM108 14v-131q93 -15 171 -15q145 0 203 53q52 50 127 231 l136 328h-207l-123 -300l-136 300h-224l230 -472q-46 -14 -79 -14q-50 0 -98 20z" />
<glyph unicode="&#xfe;" horiz-adv-x="856" d="M55 -141v808h243v-205q75 52 203 52q135 0 218 -57q106 -73 106 -206q0 -60 -24.5 -113.5t-67.5 -86.5q-83 -64 -236 -64q-124 0 -199 45v-173h-243zM76 -120h201v191q52 -35 100 -49t121 -14q146 0 222 59q39 30 61.5 79.5t22.5 104.5q0 112 -81 177t-221 65 q-77 0 -124.5 -15t-100.5 -57v225h-201v-766zM276 253q0 54 39 83t112 29t112 -29t39 -84t-38.5 -84.5t-111.5 -29.5q-152 0 -152 115zM297 253q0 -94 131 -94q129 0 129 93q0 92 -130 92t-130 -91z" />
<glyph unicode="&#xff;" horiz-adv-x="799" d="M452 564v130h244v-130h-244zM128 564v130h244v-130h-244zM473 585h202v88h-202v-88zM149 585h202v88h-202v-88zM87 47q65 -32 117 -32q28 0 51 6l-234 480h272l121 -267l110 267h252l-148 -356q-78 -187 -132 -240q-63 -58 -218 -58q-89 0 -191 19v181zM108 14v-131 q93 -15 171 -15q145 0 203 53q52 50 127 231l136 328h-207l-123 -300l-136 300h-224l230 -472q-46 -14 -79 -14q-50 0 -98 20z" />
<glyph unicode="&#x152;" horiz-adv-x="1501" d="M1463 0h-553q-68 0 -195 -11q-108 -10 -211 -10q-213 0 -324 66q-68 40 -105 116t-37 177q0 193 135 278q64 39 140.5 56t188.5 17q108 0 253 -15q69 -7 155 -7h520v-181h-492v-58h414v-181h-414v-67h525v-180zM1409 646h-499q-86 0 -198 11q-106 11 -210 11 q-109 0 -182.5 -16t-135.5 -54q-125 -78 -125 -260q0 -95 34.5 -167t98.5 -109q107 -62 312 -62q99 0 252 14q76 7 154 7h532v138h-525v109h414v139h-414v100h492v139zM311 335q0 94 48.5 143.5t141.5 49.5q189 0 189 -197q0 -95 -48 -144t-141 -49q-190 0 -190 197z M332 335q0 -90 41.5 -133t127.5 -43q168 0 168 172q0 176 -168 176q-169 0 -169 -172z" />
<glyph unicode="&#x153;" horiz-adv-x="1329" d="M1017 152h283q-28 -81 -92 -117q-103 -56 -275 -56q-164 0 -253 52q-95 -52 -258 -52q-180 0 -285 60q-50 29 -78.5 85t-28.5 126q0 77 32 134.5t91 86.5q103 51 278 51q153 0 249 -44q104 44 249 44q226 0 316 -114q28 -36 39 -82.5t15 -138.5h-498q28 -62 129 -62 q33 0 51.5 5.5t35.5 21.5zM770 208h507q-4 83 -18 127.5t-48 78.5q-86 87 -283 87q-142 0 -248 -46q-100 46 -249 46q-171 0 -268 -48q-54 -26 -83 -79t-29 -124q0 -64 26 -116t71 -78q99 -56 273 -56q88 0 168 17q39 9 91 37q95 -54 252 -54q168 0 265 53q44 24 72 78h-244 q-32 -27 -94 -27q-68 0 -108 27q-34 22 -53 77zM774 304q17 49 50 71t90 22q58 0 90 -21.5t49 -71.5h-279zM278 251q0 65 39 101.5t108 36.5t107.5 -37t38.5 -103q0 -65 -38.5 -101t-107.5 -36q-70 0 -108.5 36.5t-38.5 102.5zM807 325h213q-27 51 -106 51q-82 0 -107 -51z M299 251q0 -58 32 -88t94 -30q60 0 92.5 30t32.5 86q0 58 -32.5 88.5t-93.5 30.5q-59 0 -92 -31t-33 -86z" />
<glyph unicode="&#x178;" horiz-adv-x="879" d="M485 726v137h246v-137h-246zM160 726v137h246v-137h-246zM506 747h204v95h-204v-95zM181 747h204v95h-204v-95zM300 0v170l-313 497h316l137 -234l140 234h311l-320 -497v-170h-271zM321 21h229v155l303 470h-261l-152 -255l-149 255h-266l296 -470v-155z" />
<glyph unicode="&#x2c6;" horiz-adv-x="769" d="M67 543l191 137h272l172 -137h-287l-41 39l-43 -39h-264zM133 564h189l52 47l49 -47h219l-120 95h-257z" />
<glyph unicode="&#x2dc;" horiz-adv-x="812" d="M67 537q27 78 80 112q59 39 156 39q37 0 147 -15q67 -9 105 -9q36 0 60 21h131q-21 -75 -73 -112q-51 -38 -153 -38q-54 0 -225 17q-24 3 -44 3q-27 0 -44 -18h-140zM98 558h100q21 18 54 18q18 0 127 -11q87 -9 141 -9q102 0 150 41q32 27 47 67h-94q-27 -21 -70 -21 q-45 0 -175 18q-40 6 -75 6q-161 0 -205 -109z" />
<glyph unicode="&#x2000;" horiz-adv-x="447" />
<glyph unicode="&#x2001;" horiz-adv-x="895" />
<glyph unicode="&#x2002;" horiz-adv-x="447" />
<glyph unicode="&#x2003;" horiz-adv-x="895" />
<glyph unicode="&#x2004;" horiz-adv-x="298" />
<glyph unicode="&#x2005;" horiz-adv-x="223" />
<glyph unicode="&#x2006;" horiz-adv-x="149" />
<glyph unicode="&#x2007;" horiz-adv-x="149" />
<glyph unicode="&#x2008;" horiz-adv-x="111" />
<glyph unicode="&#x2009;" horiz-adv-x="179" />
<glyph unicode="&#x200a;" horiz-adv-x="49" />
<glyph unicode="&#x2010;" horiz-adv-x="392" d="M0 153v212h392v-212h-392zM21 174h350v170h-350v-170z" />
<glyph unicode="&#x2011;" horiz-adv-x="392" d="M0 153v212h392v-212h-392zM21 174h350v170h-350v-170z" />
<glyph unicode="&#x2012;" horiz-adv-x="392" d="M0 153v212h392v-212h-392zM21 174h350v170h-350v-170z" />
<glyph unicode="&#x2013;" d="M131 153v212h699v-212h-699zM152 174h657v170h-657v-170z" />
<glyph unicode="&#x2014;" horiz-adv-x="1176" d="M0 153v212h1176v-212h-1176zM21 174h1134v170h-1134v-170z" />
<glyph unicode="&#x2018;" horiz-adv-x="381" d="M89 397v120q0 72 37 105t146 58l20 -71q-27 -7 -39 -14t-16 -20h53v-178h-201zM110 418h159v136h-59q6 32 16.5 45.5t39.5 24.5l-9 31q-89 -23 -118 -50t-29 -88v-99z" />
<glyph unicode="&#x2019;" horiz-adv-x="381" d="M109 384l-20 71q27 7 39 14t16 20h-53v178h201v-120q0 -72 -37 -105t-146 -58zM124 409q88 23 117.5 50.5t29.5 87.5v99h-159v-136h59q-6 -33 -16.5 -46t-39.5 -24z" />
<glyph unicode="&#x201a;" horiz-adv-x="381" d="M91 0v178h201v-120q0 -72 -37 -105t-146 -58l-20 71q27 7 39 14t16 20h-53zM112 21h59q-6 -33 -16.5 -46t-39.5 -24l9 -31q88 23 117.5 50.5t29.5 87.5v99h-159v-136z" />
<glyph unicode="&#x201c;" horiz-adv-x="635" d="M344 383v120q0 72 36.5 105t145.5 59l20 -72q-47 -11 -54 -34h52v-178h-200zM89 383v120q0 72 36.5 105t146.5 59l20 -72q-47 -10 -55 -34h53v-178h-201zM365 404h158v136h-58q5 33 15.5 46t39.5 24l-9 32q-87 -23 -116.5 -50.5t-29.5 -88.5v-99zM110 404h159v136h-59 q6 33 16.5 46t39.5 24l-9 32q-88 -23 -117.5 -50.5t-29.5 -88.5v-99z" />
<glyph unicode="&#x201d;" horiz-adv-x="635" d="M363 384l-20 71q27 7 39 14t16 20h-53v178h201v-120q0 -72 -37 -105t-146 -58zM109 384l-20 71q47 11 54 34h-52v178h200v-120q0 -72 -36.5 -105t-145.5 -58zM378 409q88 23 117.5 50.5t29.5 87.5v99h-159v-136h59q-6 -33 -16.5 -46t-39.5 -24zM124 409q88 23 117 50 t29 88v99h-158v-136h58q-5 -33 -15.5 -46t-39.5 -24z" />
<glyph unicode="&#x201e;" horiz-adv-x="635" d="M343 -34q27 7 39 14t16 20h-53v178h201v-120q0 -72 -37 -105t-146 -58zM91 0v178h200v-120q0 -72 -36.5 -105t-145.5 -58l-20 71q47 11 54 34h-52zM366 21h59q-6 -33 -16.5 -46t-39.5 -24l9 -31q88 23 117.5 50.5t29.5 87.5v99h-159v-136zM112 21h58q-5 -33 -15.5 -46 t-39.5 -24l9 -31q88 23 117 50t29 88v99h-158v-136z" />
<glyph unicode="&#x2022;" horiz-adv-x="667" d="M334 194q-61 0 -104.5 43t-43.5 102q0 61 43.5 103.5t106.5 42.5q59 0 102 -43t43 -103t-43 -102.5t-104 -42.5zM207 339q0 -51 37.5 -87.5t89.5 -36.5t89 36.5t37 87.5t-37 88t-88 37q-53 0 -90.5 -36.5t-37.5 -88.5z" />
<glyph unicode="&#x2026;" horiz-adv-x="1243" d="M920 0v219h231v-219h-231zM505 0v219h232v-219h-232zM91 0v219h231v-219h-231zM941 21h189v177h-189v-177zM526 21h190v177h-190v-177zM112 21h189v177h-189v-177z" />
<glyph unicode="&#x202f;" horiz-adv-x="179" />
<glyph unicode="&#x2039;" horiz-adv-x="450" d="M193 60l-104 199l104 198h167l-101 -198l101 -199h-167zM206 81h120l-91 178l91 177h-120l-93 -177z" />
<glyph unicode="&#x203a;" horiz-adv-x="450" d="M89 60l102 199l-102 198h167l104 -198l-104 -199h-167zM124 81h119l93 178l-93 177h-119l91 -177z" />
<glyph unicode="&#x205f;" horiz-adv-x="223" />
<glyph unicode="&#x20ac;" horiz-adv-x="1090" d="M33 231l35 90h57v3v4v4v4v8h-92l35 90h68q31 103 93 154q121 100 366 100q296 0 404 -128q25 -29 37.5 -63t20.5 -94h-306q-13 45 -27 61q-37 43 -128 43q-110 0 -156 -72h194l-35 -90h-180v-5q0 -12 1 -18h168l-35 -90h-107q49 -73 150 -73q86 0 124 41q15 18 31 57h306 q-9 -76 -29.5 -115t-67.5 -74q-64 -48 -149 -68.5t-217 -20.5q-137 0 -222.5 24.5t-147.5 81.5q-59 54 -86 146h-105zM63 253h91q16 -61 40.5 -100t67.5 -72q58 -44 134 -62.5t197 -18.5q138 0 227.5 24t147.5 76q28 26 42.5 56t22.5 80h-268q-18 -39 -35 -56 q-42 -42 -133 -42q-97 0 -149 55q-19 21 -36 59h127l19 48h-157q-3 18 -3 39q0 19 1 26h185l19 48h-195q21 57 62 83q50 32 127 32q81 0 124 -34q28 -21 46 -70h266q-16 85 -57 130q-50 54 -147 83.5t-226 29.5q-290 0 -395 -131q-37 -48 -55 -122h-71l-19 -48h84 q-1 -11 -1 -29q0 -25 1 -36h-65z" />
<glyph unicode="&#x2122;" horiz-adv-x="1181" d="M517 286v383h258l56 -164l54 164h256v-383h-165v214l-79 -214h-134l-81 215v-215h-165zM155 286v273h-147v110h461v-110h-149v-273h-165zM538 307h123v306l117 -306h104l115 307v-307h123v341h-220l-69 -201l-71 201h-222v-341zM176 307h123v273h149v68h-419v-68h147 v-273z" />
<glyph unicode="&#x25fc;" horiz-adv-x="500" d="M0 500h500v-500h-500v500z" />
</font>
</defs>
</svg>
