<?xml version="1.0" standalone="no"?>
<!DOCTYPE svg PUBLIC "-//W3C//DTD SVG 1.1//EN" "http://www.w3.org/Graphics/SVG/1.1/DTD/svg11.dtd" >
<svg xmlns="http://www.w3.org/2000/svg">
<metadata></metadata>
<defs>
<font id="foundation_sansultraLtIt" horiz-adv-x="567" >
<font-face units-per-em="1000" ascent="825" descent="-175" />
<missing-glyph horiz-adv-x="250" />
<glyph unicode="&#xfb01;" horiz-adv-x="470" d="M116 0l97 457h-76l3 16h76l14 64q10 49 18.5 69t26.5 36q28 27 84 27q14 0 22 -1l-3 -15q-39 0 -53.5 -2.5t-29.5 -11.5q-32 -20 -47 -89l-16 -77h97l-3 -16h-97l-97 -457h-16zM505 571l20 96h16l-20 -96h-16zM384 0l100 473h16l-100 -473h-16z" />
<glyph unicode="&#xfb02;" horiz-adv-x="470" d="M116 0l97 457h-76l3 16h76l14 64q10 49 18.5 69t26.5 36q28 27 84 27q14 0 22 -1l-3 -15q-39 0 -53.5 -2.5t-29.5 -11.5q-32 -20 -47 -89l-16 -77h97l-3 -16h-97l-97 -457h-16zM384 0l141 667h16l-141 -667h-16z" />
<glyph unicode="&#xfb03;" horiz-adv-x="739" d="M116 0l97 457h-76l3 16h76l14 64q10 49 18.5 69t26.5 36q28 27 84 27q14 0 22 -1l-3 -15q-39 0 -53.5 -2.5t-29.5 -11.5q-32 -20 -47 -89l-16 -77h252l14 64q10 49 18.5 69t26.5 36q30 27 85 27q14 0 22 -1l-3 -15q-41 0 -55 -2.5t-29 -11.5q-32 -19 -47 -89l-16 -77h98 l-3 -16h-98l-97 -457h-16l97 457h-252l-97 -457h-16zM774 571l20 96h16l-20 -96h-16zM653 0l100 473h16l-100 -473h-16z" />
<glyph unicode="&#xfb04;" horiz-adv-x="739" d="M116 0l97 457h-76l3 16h76l14 64q10 49 18.5 69t26.5 36q28 27 84 27q14 0 22 -1l-3 -15q-39 0 -53.5 -2.5t-29.5 -11.5q-32 -20 -47 -89l-16 -77h252l14 64q10 49 18.5 69t26.5 36q30 27 85 27q14 0 22 -1l-3 -15q-41 0 -55 -2.5t-29 -11.5q-32 -19 -47 -89l-16 -77h98 l-3 -16h-98l-97 -457h-16l97 457h-252l-97 -457h-16zM653 0l141 667h16l-141 -667h-16z" />
<glyph horiz-adv-x="0" />
<glyph horiz-adv-x="333" />
<glyph unicode=" "  horiz-adv-x="250" />
<glyph unicode="&#x09;" horiz-adv-x="250" />
<glyph unicode="&#xa0;" horiz-adv-x="250" />
<glyph unicode="!" horiz-adv-x="162" d="M109 173l105 494h16l-105 -494h-16zM73 0l19 91h16l-19 -91h-16z" />
<glyph unicode="&#x22;" horiz-adv-x="298" d="M278 403l52 264h23l-60 -264h-15zM175 403l53 264h22l-59 -264h-16z" />
<glyph unicode="#" horiz-adv-x="571" d="M88 0l93 229h-99l7 16h99l86 213h-98l6 16h98l79 193h15l-78 -193h227l78 193h16l-79 -193h99l-6 -16h-99l-86 -213h99l-7 -16h-99l-93 -229h-15l92 229h-227l-92 -229h-16zM204 245h226l87 213h-227z" />
<glyph unicode="$" d="M93 187q-19 -92 23.5 -135.5t158.5 -50.5l68 321q-93 20 -120 37q-68 42 -50 125q16 73 79 116.5t160 47.5l14 67h16l-14 -67q109 -5 150 -50.5t19 -135.5h-17q20 83 -17.5 124.5t-137.5 45.5l-63 -296q125 -23 171 -63.5t30 -113.5q-10 -52 -47 -91.5t-93 -60.5 q-49 -18 -136 -22l-14 -68h-16l14 68q-246 6 -193 210h17zM347 339l62 293q-86 -1 -146 -41.5t-74 -107.5q-17 -81 55 -116q22 -11 103 -28zM291 0q87 3 142 27q95 42 115 133q19 89 -77 128q-32 12 -113 30z" />
<glyph unicode="%" horiz-adv-x="642" d="M83 -26l587 703h22l-587 -704zM238 344q-67 0 -96.5 42.5t-13.5 116.5q16 73 64 115t116 42q65 0 94.5 -43t13.5 -115q-15 -71 -64 -114.5t-114 -43.5zM241 360q59 0 102 39t57 104q14 66 -11.5 103.5t-84.5 37.5q-61 0 -103.5 -37.5t-56.5 -105.5q-14 -67 11.5 -104 t85.5 -37zM366 148q16 73 63.5 115.5t115.5 42.5q65 0 94.5 -42t13.5 -114q-15 -73 -63 -116.5t-114 -43.5q-67 0 -96.5 42t-13.5 116zM382 147q-14 -67 11.5 -104t85.5 -37q59 0 101.5 38.5t57.5 106.5q13 64 -13 101.5t-84 37.5q-128 0 -159 -143z" />
<glyph unicode="&#x26;" horiz-adv-x="572" d="M513 0l-65 112q-100 -125 -219 -125q-81 0 -126.5 49t-29.5 120q15 76 101 137q35 26 126 76l-40 63q-35 55 -24 107q12 56 58 92t106 36q57 0 87.5 -35.5t18.5 -90.5q-13 -63 -92 -119q-21 -15 -90 -58l128 -220q36 54 49 115h18q-15 -69 -60 -132l73 -127h-19zM316 378 q80 46 102 63q62 47 72 100q11 49 -15.5 79.5t-79.5 30.5t-93 -30.5t-50 -79.5q-5 -25 0 -43.5t23 -49.5zM440 126l-134 229q-88 -47 -133 -80q-70 -52 -84 -118q-14 -65 28 -109.5t115 -44.5q66 0 128 44q34 22 80 79z" />
<glyph unicode="'" horiz-adv-x="196" d="M175 403l53 264h22l-59 -264h-16z" />
<glyph unicode="(" horiz-adv-x="347" d="M261 -117q-70 201 -27 407q22 102 64.5 192t120.5 195h17q-83 -116 -123.5 -201t-62.5 -188q-45 -207 31 -405h-20z" />
<glyph unicode=")" horiz-adv-x="347" d="M29 -117q83 116 123.5 201t62.5 188q45 208 -32 405h20q71 -201 28 -407q-22 -103 -65 -192.5t-121 -194.5h-16z" />
<glyph unicode="*" horiz-adv-x="365" d="M204 439l-11 11l88 89l-98 38l8 15l100 -37l24 112h17l-24 -112l116 37l2 -15l-114 -38l50 -89l-15 -11l-52 91z" />
<glyph unicode="+" d="M308 153l37 176h-177l4 16h177l37 177h16l-37 -177h176l-4 -16h-176l-37 -176h-16z" />
<glyph unicode="," horiz-adv-x="146" d="M63 3l19 88h16l-18 -83q-8 -39 -21 -63.5t-43 -54.5l6 27q30 31 41 86z" />
<glyph unicode="-" horiz-adv-x="208" d="M48 229l4 16h208l-4 -16h-208z" />
<glyph unicode="." horiz-adv-x="149" d="M67 0l19 91h16l-19 -91h-16z" />
<glyph unicode="/" horiz-adv-x="397" d="M-18 -117h-19l521 794h20z" />
<glyph unicode="0" d="M280 -13q-109 0 -155 88.5t-14 238.5q32 151 117.5 243.5t192.5 92.5q52 0 94 -25t63 -69q42 -88 9 -250q-31 -145 -114.5 -232t-192.5 -87zM283 3q102 0 180 82.5t108 220.5q33 154 -8 240q-20 41 -59 64.5t-87 23.5q-100 0 -179.5 -87.5t-110.5 -232.5 q-30 -144 11.5 -227.5t144.5 -83.5z" />
<glyph unicode="1" d="M307 0l131 621q-30 -37 -84.5 -70.5t-111.5 -49.5l3 16q50 14 103.5 46.5t93.5 73.5h16l-135 -637h-16z" />
<glyph unicode="2" d="M69 0q26 69 72.5 110.5t193.5 129.5q111 67 166 123.5t67 115.5q15 70 -25 112.5t-122 42.5q-88 0 -149 -51.5t-81 -142.5l-3 -13h-16q2 13 3 17q20 95 88 150.5t162 55.5q87 0 131.5 -47t28.5 -123q-10 -45 -39 -85t-86 -85q-51 -42 -180 -119q-92 -56 -129.5 -91.5 t-56.5 -83.5h407l-3 -16h-429z" />
<glyph unicode="3" d="M183 438h-18q13 53 31 85t49 60q78 67 185 67q87 0 132.5 -45t29.5 -116q-12 -59 -57.5 -96.5t-116.5 -47.5q68 -11 93 -35q51 -46 34 -129q-18 -86 -91.5 -140t-172.5 -54q-67 0 -113 26.5t-63 74.5q-17 47 -1 128h19q-2 -8 -3 -9q-16 -76 7 -124q39 -80 155 -80 q92 0 161 50t86 129q11 51 -7.5 87.5t-63.5 52.5q-32 11 -131 15l4 17h4h10q82 0 127 18q87 35 104 117q14 65 -27 105t-123 40q-113 0 -182 -73q-44 -47 -61 -123z" />
<glyph unicode="4" d="M92 170l5 23l409 444h22l-96 -451h118l-3 -16h-118l-36 -170h-16l36 170h-321zM111 186h305l92 431z" />
<glyph unicode="5" d="M296 621l-119 -274q84 88 197 88q99 0 145 -60q22 -29 30 -73.5t-1 -89.5q-20 -94 -96.5 -157t-169.5 -63q-61 0 -106.5 26t-64.5 70q-20 52 -4 122h16l-1 -6q-3 -19 -5 -50q0 -75 56 -114q48 -32 113 -32q86 0 156.5 58t89.5 146q19 92 -25 149.5t-135 57.5 q-123 0 -200 -97h-20l134 315h329l-4 -16h-315z" />
<glyph unicode="6" d="M592 488h-16q-1 71 -40 108.5t-111 37.5q-162 0 -236 -182q-31 -71 -58 -202q17 44 35.5 69.5t50.5 49.5q76 57 161 57q91 0 141 -63.5t31 -154.5q-20 -93 -97 -157t-169 -64q-55 0 -98.5 26t-63.5 71q-29 64 0 200q40 187 115 276.5t192 89.5q78 0 120 -41.5t43 -120.5z M126 206q-18 -84 29 -143.5t131 -59.5q85 0 157 59.5t90 143.5t-28 144t-128 60q-88 0 -160 -59t-91 -145z" />
<glyph unicode="7" d="M187 0q42 174 154.5 341t264.5 280h-396l4 16h408l-5 -24q-152 -114 -263 -279t-149 -334h-18z" />
<glyph unicode="8" d="M93 176q10 45 40 84t72 61q39 19 103 27q-64 9 -88 27q-55 38 -39 118q16 73 79.5 115t157.5 42q96 0 143.5 -43.5t32.5 -116.5q-17 -75 -89 -115q-34 -19 -94 -27q70 -9 100 -34q26 -22 35.5 -59.5t-0.5 -81.5q-18 -84 -92 -135t-178 -51q-97 0 -148.5 53.5t-34.5 135.5 zM362 357q89 0 145.5 34.5t69.5 97.5q14 67 -30 106t-133 39q-87 0 -145 -38t-72 -104t28 -100.5t137 -34.5zM109 178q-16 -77 32.5 -126t140.5 -49q95 0 163.5 46.5t84.5 121.5q18 85 -26 127t-151 42q-97 0 -155 -37q-71 -44 -89 -125z" />
<glyph unicode="9" d="M110 149h15q5 -146 151 -146q160 0 237 182q32 76 59 202q-19 -44 -37.5 -69.5t-49.5 -49.5q-74 -57 -162 -57q-90 0 -139.5 63.5t-30.5 154.5q19 93 96.5 157t169.5 64q55 0 98.5 -26t62.5 -71q29 -66 1 -200q-40 -187 -115 -276.5t-192 -89.5q-79 0 -121 41.5 t-43 120.5zM330 227q83 0 155.5 60t90.5 144q18 83 -28.5 143t-129.5 60q-87 0 -159 -59t-90 -145q-18 -84 29.5 -143.5t131.5 -59.5z" />
<glyph unicode=":" horiz-adv-x="149" d="M148 383l19 90h16l-19 -90h-16zM67 0l19 91h16l-19 -91h-16z" />
<glyph unicode=";" horiz-adv-x="146" d="M145 383l19 90h16l-19 -90h-16zM63 3l19 88h16l-18 -83q-8 -39 -21 -63.5t-43 -54.5l6 27q30 31 41 86z" />
<glyph unicode="&#x3c;" horiz-adv-x="500" d="M101 323l5 21l472 186l-4 -21l-448 -176l373 -176l-4 -20z" />
<glyph unicode="=" d="M181 390l4 16h369l-4 -16h-369zM155 268l4 16h369l-4 -16h-369z" />
<glyph unicode="&#x3e;" horiz-adv-x="500" d="M63 137l4 20l447 176l-372 176l4 21l394 -186l-5 -21z" />
<glyph unicode="?" horiz-adv-x="467" d="M265 171l3 13q10 51 32.5 80.5t90.5 81.5q63 48 90.5 81.5t35.5 71.5q14 66 -26 107.5t-117 41.5q-106 0 -171 -82q-31 -37 -53 -120h-16q22 92 68 142q74 76 177 76q83 0 126 -46t28 -117q-10 -46 -36.5 -78.5t-101.5 -90.5q-64 -49 -83 -75.5t-30 -80.5l-1 -5h-16z M229 0l19 91h16l-19 -91h-16z" />
<glyph unicode="@" horiz-adv-x="705" d="M611 56l2 -19q-115 -50 -236 -50q-149 0 -220 98q-34 47 -44 113t4 135q32 146 146 246t249 100q126 0 190.5 -85t36.5 -214q-19 -93 -76 -164.5t-110 -71.5q-23 0 -33.5 20.5t-3.5 52.5l8 32q-76 -107 -191 -107q-63 0 -91.5 36t-15.5 98q9 44 32.5 88.5t53.5 74.5 q70 71 162 71q73 0 100 -47q11 -19 11 -57l37 93h16l-90 -230q-14 -33 -17 -48q-5 -28 3.5 -44.5t27.5 -16.5q43 0 93.5 69t67.5 152q27 123 -34 202.5t-181 79.5q-129 0 -237 -95.5t-138 -235.5q-29 -136 34 -232q63 -97 212 -97q106 0 232 53zM243 279q-12 -55 15 -88 t83 -33q80 0 143.5 59.5t82.5 152.5q12 56 -15 90t-83 34q-93 0 -158 -76q-22 -26 -41 -65t-27 -74z" />
<glyph unicode="A" horiz-adv-x="571" d="M7 0l414 667h18l126 -667h-19l-41 217h-345l-135 -217h-18zM171 233h329l-76 411z" />
<glyph unicode="B" horiz-adv-x="618" d="M90 0l141 667h250q103 0 152.5 -44.5t33.5 -121.5q-15 -71 -78 -118q-39 -28 -103 -39q40 -4 64 -13t44 -29q45 -43 29 -123q-21 -94 -113 -146q-63 -33 -170 -33h-250zM181 353h248q92 0 150 40q58 41 72 107q15 71 -31 111t-142 40h-234zM109 16h234q116 0 175 39 q72 47 89 124q17 87 -47 129q-43 29 -135 29h-248z" />
<glyph unicode="C" horiz-adv-x="658" d="M662 257h16q-25 -86 -82 -147q-115 -123 -262 -123q-125 0 -193 88q-72 96 -38 255q33 156 139 253t244 97q148 0 206 -112q22 -43 22 -106h-17q-1 95 -57 148.5t-156 53.5q-133 0 -233.5 -92t-132.5 -243t37 -243q63 -83 181 -83q74 0 143.5 35.5t121.5 100.5 q38 46 61 118z" />
<glyph unicode="D" horiz-adv-x="638" d="M90 0l141 667h196q81 0 132 -18t84 -59q32 -41 41 -108t-7 -147q-37 -168 -148 -259q-50 -41 -106.5 -58.5t-137.5 -17.5h-195zM109 16h174q89 0 146.5 19.5t106.5 66.5q93 87 126 237q35 166 -43 251q-31 33 -77.5 47t-124.5 14h-173z" />
<glyph unicode="E" horiz-adv-x="609" d="M90 0l141 667h445l-3 -16h-429l-63 -298h403l-4 -16h-403l-68 -321h429l-3 -16h-445z" />
<glyph unicode="F" horiz-adv-x="573" d="M90 0l141 667h413l-3 -16h-397l-63 -298h352l-4 -16h-352l-71 -337h-16z" />
<glyph unicode="G" horiz-adv-x="690" d="M620 0l41 194q-37 -75 -85 -118q-45 -41 -107 -65t-125 -24q-61 0 -114 23t-87 63q-76 92 -42 251q34 156 140 253.5t243 97.5q102 0 164.5 -59t67.5 -161h-15q-5 94 -63.5 149t-155.5 55q-131 0 -231.5 -92.5t-132.5 -241.5q-32 -152 39 -240q67 -82 191 -82 q75 0 142.5 33t116.5 93q48 59 76 168h-262l3 16h278l-66 -313h-16z" />
<glyph unicode="H" horiz-adv-x="683" d="M90 0l141 667h16l-66 -313h471l66 313h16l-141 -667h-16l71 338h-471l-71 -338h-16z" />
<glyph unicode="I" horiz-adv-x="222" d="M103 0l141 667h16l-141 -667h-16z" />
<glyph unicode="J" horiz-adv-x="482" d="M533 667l-103 -488q-20 -95 -76 -141q-62 -51 -152 -51q-57 0 -93 23t-46 65q-6 39 13 132h16l-7 -35q-36 -169 120 -169q100 0 161 69q19 21 30 49.5t23 85.5l98 460h16z" />
<glyph unicode="K" horiz-adv-x="642" d="M90 0l141 667h16l-86 -408l552 408h24l-382 -282l261 -385h-20l-255 375l-185 -136l-50 -239h-16z" />
<glyph unicode="L" horiz-adv-x="528" d="M90 0l141 667h16l-138 -651h395l-3 -16h-411z" />
<glyph unicode="M" horiz-adv-x="809" d="M90 0l141 667h27l149 -650l427 650h26l-141 -667h-16l136 644l-425 -644h-21l-151 644l-136 -644h-16z" />
<glyph unicode="N" horiz-adv-x="683" d="M90 0l141 667h24l326 -646l137 646h16l-141 -667h-22l-328 649l-137 -649h-16z" />
<glyph unicode="O" horiz-adv-x="686" d="M335 -13q-134 0 -199 97t-33 250q33 154 139.5 250t244.5 96q137 0 202.5 -96t33.5 -249q-34 -157 -141 -252q-108 -96 -247 -96zM338 3q134 0 235 91t134 241q31 146 -31 237.5t-192 91.5q-132 0 -232.5 -91t-132.5 -239q-31 -146 30 -238.5t189 -92.5z" />
<glyph unicode="P" horiz-adv-x="580" d="M90 0l141 667h269q105 0 141 -52q38 -51 22 -127q-19 -90 -96 -140q-61 -40 -154 -40h-242l-65 -308h-16zM174 324h242q97 0 158 46q57 43 73 118q18 81 -29 128q-34 35 -132 35h-242z" />
<glyph unicode="Q" horiz-adv-x="685" d="M651 -17l-96 78q-98 -74 -214 -74q-138 0 -204.5 94t-34.5 244q34 159 140 257t245 98q137 0 202.5 -96t33.5 -249q-33 -155 -152 -262l93 -75zM455 164l104 -81q63 58 97 117t51 137q31 144 -31.5 235.5t-191.5 91.5q-131 0 -233 -94.5t-134 -245.5q-28 -136 27 -221 q66 -100 199 -100q110 0 200 68l-100 79z" />
<glyph unicode="R" horiz-adv-x="624" d="M91 0l141 667h244q119 0 162 -39q53 -50 35 -138q-18 -80 -87 -128q-42 -29 -109 -39q49 -6 73.5 -19.5t36.5 -41.5q11 -34 9.5 -58.5t-21.5 -139.5q-7 -35 -4 -64h-17q-1 27 5 64q22 127 20 155q-4 52 -42 74t-123 22h-241l-66 -315h-16zM177 331h246q94 0 156 42.5 t78 117.5q19 90 -45 134q-36 26 -152 26h-215z" />
<glyph unicode="S" horiz-adv-x="613" d="M101 226l5 27h16l-6 -31q-23 -107 28 -163t172 -56q92 0 159 37q87 49 106 136q15 71 -31 105q-32 24 -110 46l-124 35q-69 20 -99 41q-51 37 -35 112q16 76 85.5 120.5t172.5 44.5q170 0 199 -111q8 -25 7 -45.5t-11 -67.5h-17q9 45 10 64t-5 43q-11 48 -60.5 74.5 t-126.5 26.5q-93 0 -158.5 -41t-79.5 -109q-14 -62 29 -95q23 -20 96 -41l125 -37q55 -16 77 -25.5t40 -23.5q48 -40 32 -116q-18 -85 -96.5 -137t-190.5 -52q-126 0 -180 61.5t-29 177.5z" />
<glyph unicode="T" horiz-adv-x="554" d="M268 0l138 651h-241l3 16h501l-3 -16h-244l-138 -651h-16z" />
<glyph unicode="U" horiz-adv-x="676" d="M727 667l-84 -398q-18 -85 -41.5 -131t-66.5 -83q-78 -68 -200 -68q-136 0 -182 83q-20 36 -21 78.5t15 120.5l84 398h16l-84 -398q-16 -77 -13.5 -121.5t25.5 -78.5q45 -66 163 -66q131 0 205 80q57 61 84 186l84 398h16z" />
<glyph unicode="V" horiz-adv-x="558" d="M269 0l-121 667h19l116 -649l391 649h19l-401 -667h-23z" />
<glyph unicode="W" horiz-adv-x="851" d="M207 0l-59 667h18l56 -642l331 642h29l58 -651l328 651h17l-336 -667h-24l-60 658l-339 -658h-19z" />
<glyph unicode="X" horiz-adv-x="591" d="M27 0l331 343l-175 324h21l167 -311l301 311h21l-314 -324l185 -343h-20l-179 329l-317 -329h-21z" />
<glyph unicode="Y" horiz-adv-x="576" d="M284 0l59 282l-195 385h20l186 -371l337 371h20l-352 -385l-59 -282h-16z" />
<glyph unicode="Z" horiz-adv-x="602" d="M53 0l5 24l600 627h-446l3 16h462l-4 -22l-602 -629h480l-3 -16h-495z" />
<glyph unicode="[" horiz-adv-x="329" d="M150 -107l164 774h142l-3 -16h-126l-158 -742h126l-3 -16h-142z" />
<glyph unicode="\" horiz-adv-x="397" d="M363 -117l-186 794h20l185 -794h-19z" />
<glyph unicode="]" horiz-adv-x="329" d="M-7 -91h126l158 742h-126l3 16h142l-164 -774h-142z" />
<glyph unicode="^" horiz-adv-x="500" d="M128 393l250 274h26l135 -274h-27l-125 259l-234 -259h-25z" />
<glyph unicode="_" horiz-adv-x="500" d="M0 -83h500v-21h-500v21z" />
<glyph unicode="`" horiz-adv-x="500" d="M377 550l-138 98h30l139 -98h-31z" />
<glyph unicode="a" horiz-adv-x="475" d="M397 66l10 50q-83 -129 -216 -129q-73 0 -111 37t-25 96q19 89 122 125q40 14 175 22q66 4 85 22q8 8 14 35l4 18q15 70 -19 101q-33 27 -100 27q-77 0 -121.5 -32.5t-69.5 -105.5h-17q47 154 209 154q80 0 118 -38q17 -19 20.5 -43t-5.5 -67l-56 -265q-8 -38 -3 -47.5 t36 -9.5h18l-3 -16q-48 0 -58 7q-11 7 -12.5 18.5t5.5 40.5zM424 194l18 87q-19 -18 -45.5 -23.5t-111.5 -9.5q-188 -9 -214 -129q-11 -52 22.5 -84t100.5 -32q91 0 161 69q53 52 69 122z" />
<glyph unicode="b" horiz-adv-x="516" d="M70 0l141 667h16l-68 -323q32 57 67 86q68 56 154 56q97 0 138.5 -68t16.5 -187q-25 -114 -93.5 -179t-163.5 -65q-96 0 -136 61q-21 30 -27 89l-29 -137h-16zM137 241q-24 -110 15 -174t129 -64q86 0 150.5 61t86.5 164q24 112 -14.5 177t-127.5 65q-85 0 -151 -63 t-88 -166z" />
<glyph unicode="c" horiz-adv-x="471" d="M459 163h16q-27 -72 -71 -112q-67 -64 -165 -64q-95 0 -139 69.5t-20 181.5q24 111 98 179.5t171 68.5q79 0 122.5 -41.5t33.5 -109.5h-17q10 60 -29.5 97.5t-112.5 37.5q-91 0 -159 -63t-90 -167q-23 -106 16.5 -171.5t127.5 -65.5q155 0 218 160z" />
<glyph unicode="d" horiz-adv-x="516" d="M430 0l29 137q-33 -61 -65 -89q-67 -61 -162 -61q-96 0 -137 65t-16 179q25 119 95 187t168 68q86 0 130 -56q23 -30 31 -86l68 323h16l-141 -667h-16zM236 3q89 0 155.5 64.5t89.5 173.5q22 103 -17.5 166t-125.5 63q-88 0 -154 -64t-89 -171q-23 -108 15 -170t126 -62z " />
<glyph unicode="e" horiz-adv-x="478" d="M496 228h-400q-17 -92 9 -146q36 -79 137 -79q73 0 131 43t87 119h17q-34 -84 -97 -131t-142 -47q-94 0 -138 67.5t-21 176.5q24 115 97.5 185t171.5 70q58 0 98 -28.5t56 -80.5q14 -53 -4 -138zM99 244h383q13 56 9 96q-7 62 -46 96t-102 34q-89 0 -154 -60t-90 -166z " />
<glyph unicode="f" horiz-adv-x="267" d="M116 0l97 457h-76l3 16h76l14 64q10 49 18.5 69t26.5 36q28 27 84 27q14 0 22 -1l-3 -15q-39 0 -53.5 -2.5t-29.5 -11.5q-32 -20 -47 -89l-16 -77h97l-3 -16h-97l-97 -457h-16z" />
<glyph unicode="g" horiz-adv-x="506" d="M50 -28h17q-10 -64 24.5 -96.5t111.5 -32.5q103 0 162 61q43 43 64 142l25 115q-28 -50 -65 -80q-70 -54 -155 -54q-91 0 -132.5 61.5t-19.5 165.5q23 106 92 169t163 63q86 0 131 -59q16 -20 27 -70l25 116h16l-91 -429q-14 -65 -30.5 -98.5t-50.5 -62.5 q-64 -56 -166 -56q-101 0 -136 55q-20 33 -12 90zM239 43q84 0 151 59q64 56 83 150q22 101 -19 159q-42 59 -123 59q-85 0 -148.5 -58.5t-83.5 -156.5q-21 -97 17 -154.5t123 -57.5z" />
<glyph unicode="h" horiz-adv-x="499" d="M71 6l140 661h16l-67 -316q37 58 71 86q63 49 136 49q92 0 126 -64q26 -46 8 -126l-62 -296h-16l60 283q11 53 9 83.5t-19 54.5q-34 49 -110 49q-99 0 -169 -90q-39 -50 -55 -130l-53 -250z" />
<glyph unicode="i" horiz-adv-x="156" d="M191 571l20 96h16l-20 -96h-16zM70 0l100 473h16l-100 -473h-16z" />
<glyph unicode="j" horiz-adv-x="167" d="M202 571l20 96h16l-20 -96h-16zM68 -57l113 530h16l-116 -547q-12 -57 -48 -76q-26 -14 -88 -14l3 15q8 1 17 1q54 1 75 20q17 14 28 71z" />
<glyph unicode="k" horiz-adv-x="460" d="M70 0l141 667h16l-98 -462l389 268h23l-253 -176l172 -297h-19l-167 287l-149 -103l-39 -184h-16z" />
<glyph unicode="l" horiz-adv-x="156" d="M70 0l141 667h16l-141 -667h-16z" />
<glyph unicode="m" horiz-adv-x="757" d="M70 0l100 473h16l-24 -112q28 51 60 79q52 46 124 46q74 0 104 -49q15 -22 15 -66q32 53 64 76q51 39 119 39q76 0 108 -50q15 -23 17 -46t-8 -70l-68 -320h-16l68 320q15 79 -11 112q-30 38 -91 38q-70 0 -122.5 -45t-67.5 -118l-65 -307h-16l65 307q10 49 9 75.5 t-15 46.5q-28 41 -93 41q-71 0 -125 -53.5t-73 -142.5l-58 -274h-16z" />
<glyph unicode="n" horiz-adv-x="499" d="M70 0l100 473h16l-26 -122q38 60 72 87q60 48 135 48q91 0 126 -63q26 -47 8 -127l-62 -296h-16l60 283q11 53 9 83.5t-19 54.5q-34 49 -110 49q-99 0 -169 -90q-39 -50 -55 -130l-53 -250h-16z" />
<glyph unicode="o" horiz-adv-x="490" d="M242 -13q-97 0 -141.5 69t-20.5 181t98 180.5t171 68.5q99 0 141.5 -69.5t17.5 -190.5q-23 -109 -95.5 -174t-170.5 -65zM245 3q91 0 157.5 60t89.5 163q24 113 -15.5 178.5t-131.5 65.5q-90 0 -158 -64t-91 -169t18 -169.5t131 -64.5z" />
<glyph unicode="p" horiz-adv-x="516" d="M186 473l-29 -137q33 61 65 89q66 61 162 61t136.5 -65t16.5 -179q-26 -119 -96 -187t-167 -68q-86 0 -130 56q-23 30 -31 86l-62 -289h-16l135 633h16zM135 232q-22 -103 17.5 -166t124.5 -63q88 0 154.5 64.5t88.5 171.5q23 107 -14.5 169t-126.5 62t-155 -64t-89 -174 z" />
<glyph unicode="q" horiz-adv-x="516" d="M395 -160l62 289q-32 -57 -67 -86q-68 -56 -154 -56q-98 0 -139 68t-16 187q24 114 93 179t164 65t136 -61q21 -30 27 -89l29 137h16l-135 -633h-16zM239 3q86 0 152 63t88 166q23 110 -16 174t-129 64q-86 0 -150 -61t-86 -164q-24 -112 14 -177t127 -65z" />
<glyph unicode="r" horiz-adv-x="277" d="M70 0l100 473h16l-30 -139q39 73 92 106.5t129 32.5l-3 -14q-49 -2 -78.5 -12t-59.5 -33q-76 -59 -101 -181l-49 -233h-16z" />
<glyph unicode="s" horiz-adv-x="459" d="M81 162h17q-16 -76 19.5 -117.5t118.5 -41.5q74 0 124.5 32.5t62.5 87.5t-31 79q-32 18 -99 34l-36 9q-58 15 -85 32q-42 28 -31 85q12 56 63.5 90t125.5 34q103 0 133 -56q20 -33 6 -92h-16q12 61 -10 91q-32 41 -119 41q-66 0 -111 -29t-55 -78q-9 -40 14.5 -62.5 t90.5 -39.5l37 -9q89 -22 119.5 -50t19.5 -78q-14 -62 -70 -99.5t-136 -37.5q-89 0 -128.5 45t-23.5 130z" />
<glyph unicode="t" horiz-adv-x="289" d="M237 1h-19q-35 0 -52 9.5t-23 32.5q-6 20 6 79l72 335h-81l3 16h81l33 155h16l-33 -155h102l-3 -16h-102l-72 -335q-13 -62 -1.5 -83t58.5 -21h18z" />
<glyph unicode="u" horiz-adv-x="491" d="M405 0l24 116q-30 -59 -83 -94t-114 -35q-89 0 -125 68q-25 49 -7 134l60 284h16l-60 -284q-18 -84 11 -132q34 -54 106 -54q88 0 154 74q25 27 38 55t24 77l56 264h16l-100 -473h-16z" />
<glyph unicode="v" horiz-adv-x="420" d="M208 0l-101 473h19l96 -456l273 456h19l-283 -473h-23z" />
<glyph unicode="w" horiz-adv-x="701" d="M174 0l-54 473h17l51 -460l251 460h25l51 -454l248 454h18l-258 -473h-23l-52 459l-249 -459h-25z" />
<glyph unicode="x" horiz-adv-x="477" d="M20 0l257 249l-137 224h20l132 -212l218 212h23l-232 -224l156 -249h-24l-146 237l-247 -237h-20z" />
<glyph unicode="y" horiz-adv-x="418" d="M32 -144q14 -1 27 -1q39 0 58.5 14t47.5 59l45 73l-103 472h19l97 -453l271 453h18l-326 -543q-34 -56 -58.5 -73.5t-71.5 -17.5q-14 0 -28 1z" />
<glyph unicode="z" horiz-adv-x="453" d="M43 0l4 23l433 434h-315l3 16h334l-4 -21l-435 -436h359l-3 -16h-376z" />
<glyph unicode="{" horiz-adv-x="329" d="M267 -107h-12q-28 0 -48.5 12t-26.5 33q-8 29 8 107l27 128q10 45 1.5 66.5t-39.5 32.5l4 16q36 11 53 32.5t27 66.5l27 128q17 79 38 107q32 45 93 45h12l-3 -16h-13q-82 0 -105 -108l-32 -152q-10 -46 -27.5 -70.5t-50.5 -40.5q27 -16 33.5 -40t-3.5 -71l-32 -152 q-13 -59 6 -85q16 -23 52 -23h14z" />
<glyph unicode="|" horiz-adv-x="500" d="M204 -167l177 834h19l-177 -834h-19z" />
<glyph unicode="}" horiz-adv-x="329" d="M20 -91h13q82 0 105 108l32 152q10 46 27.5 70.5t50.5 40.5q-27 16 -33.5 40t3.5 71l32 152q13 59 -6 85q-16 23 -52 23h-14l3 16h12q28 0 48.5 -12t26.5 -33q8 -29 -8 -107l-27 -128q-10 -45 -1.5 -66.5t39.5 -32.5l-4 -16q-36 -11 -53 -32.5t-27 -66.5l-27 -128 q-17 -79 -38 -107q-32 -45 -93 -45h-12z" />
<glyph unicode="~" horiz-adv-x="667" d="M241 603l-15 10q73 93 144 93q39 0 109 -44q66 -40 99 -40q32 0 60.5 19.5t66.5 66.5l14 -10q-73 -94 -144 -94q-24 0 -47.5 10t-79.5 44q-48 30 -82 30q-58 0 -125 -85z" />
<glyph unicode="&#xa1;" horiz-adv-x="162" d="M169 456l20 91h16l-20 -91h-16zM47 -120l105 493h16l-105 -493h-16z" />
<glyph unicode="&#xa2;" d="M280 -21l21 98q-89 5 -130 63q-47 72 -22 193q23 109 92 174.5t167 73.5l17 82h16l-17 -82q76 -4 114 -44.5t32 -110.5h-17q5 63 -32 101t-101 37l-100 -470q144 8 204 162h18q-26 -79 -87 -127.5t-138 -51.5l-21 -98h-16zM304 94l100 470q-76 -7 -132 -49 q-82 -63 -107 -182q-27 -126 29 -192q36 -42 110 -47z" />
<glyph unicode="&#xa3;" d="M49 7q61 46 83 69q56 62 68 120q10 43 -6 112h-73l3 16h66q-5 10 -9 22q-23 57 -28 83t2 57q16 74 84.5 119t164.5 45q102 0 146.5 -52t24.5 -147l-3 -18h-16q17 87 -7 133q-38 68 -148 68q-92 0 -154 -40.5t-77 -110.5q-6 -31 -2 -50t31 -86l9 -23h150l-3 -16h-143 q15 -60 4 -111q-11 -53 -45.5 -97.5t-102.5 -92.5q48 27 69 34t53 7q38 0 85 -19q61 -26 92 -26q70 0 158 78l8 -12q-87 -82 -169 -82q-39 0 -95 24q-53 21 -87 21q-53 0 -123 -43z" />
<glyph unicode="&#xa4;" horiz-adv-x="543" d="M57 94l-8 11l77 64q-45 73 -23 175q21 101 91 169l-46 58l13 11l46 -57q82 68 191 68q107 0 160 -68l70 57l9 -11l-71 -58q41 -68 18 -178q-22 -103 -94 -169l48 -61l-14 -11l-48 61q-80 -62 -186 -62q-103 0 -155 64zM295 109q103 0 176.5 60.5t95.5 162.5 q24 114 -22 179.5t-151 65.5q-102 0 -177.5 -64t-97.5 -169q-23 -106 25.5 -170.5t150.5 -64.5z" />
<glyph unicode="&#xa5;" d="M278 0l55 262h-179l4 16h179v3l-41 115h-113l3 16h104l-94 255h20l91 -255h130l195 255h20l-198 -255h100l-3 -16h-109l-89 -115v-3h173l-4 -16h-173l-55 -262h-16zM348 295l77 101h-112z" />
<glyph unicode="&#xa6;" horiz-adv-x="500" d="M313 347l68 320h19l-68 -320h-19zM204 -167l68 320h19l-68 -320h-19z" />
<glyph unicode="&#xa7;" horiz-adv-x="455" d="M287 448l94 -31q61 -20 84.5 -50t14.5 -75q-13 -57 -60 -93q-24 -19 -91 -48q56 -19 77.5 -48.5t11.5 -76.5q-14 -67 -71.5 -107t-137.5 -40q-140 0 -165 82q-8 34 4 87h17q-3 -11 -6 -23q-13 -61 28 -96t126 -35q73 0 125 36t65 95q11 53 -23 81q-23 19 -84 37l-89 27 q-114 35 -93 132q13 61 68 99q30 22 82 39q-36 12 -53 27q-39 36 -27 94q12 56 62.5 87.5t129.5 31.5q118 0 140 -54q10 -24 2 -80h-15q9 70 -18 94.5t-113 24.5q-152 0 -173 -103q-10 -51 21 -84q13 -12 67 -30zM382 400l-99 33q-134 -36 -154 -129q-10 -50 17 -83 q11 -14 25.5 -21t50.5 -18l89 -26q3 1 6.5 3t6.5 3l3 2q65 28 85 45q43 35 52 81q9 40 -10.5 66.5t-71.5 43.5z" />
<glyph unicode="&#xa8;" horiz-adv-x="500" d="M453 549l21 99h16l-21 -99h-16zM263 549l21 99h16l-21 -99h-16z" />
<glyph unicode="&#xa9;" horiz-adv-x="782" d="M117 333q31 145 154 245.5t269 100.5q139 0 217.5 -102t48.5 -244q-30 -143 -152.5 -244t-264.5 -101t-222 101t-50 244zM133 333q-29 -136 47 -232.5t212 -96.5t252.5 96.5t145.5 232.5q29 135 -46 232.5t-208 97.5q-139 0 -256.5 -96t-146.5 -234zM608 297h16 q-12 -36 -23 -53q-29 -48 -77.5 -76.5t-98.5 -28.5q-77 0 -114 55t-18 141q19 88 79.5 143.5t138.5 55.5q47 0 80.5 -21.5t45.5 -58.5q6 -17 5 -49h-16q0 54 -30.5 83.5t-86.5 29.5q-73 0 -128 -50.5t-73 -133.5q-17 -80 16.5 -129.5t103.5 -49.5q46 0 90.5 26.5t69.5 69.5 q11 17 20 46z" />
<glyph unicode="&#xaa;" horiz-adv-x="322" d="M307 309l3 14q-53 -65 -124 -65q-46 0 -69 22.5t-15 59.5q11 55 75 77q23 8 107 13q32 1 41.5 6.5t13.5 23.5l3 11q8 38 -9 55.5t-61 17.5q-46 0 -71 -18.5t-39 -63.5h-17q30 98 130 98q50 0 73 -23q20 -21 9 -68l-33 -156q-5 -23 -0.5 -27.5t31.5 -3.5l-3 -16 q-35 0 -43 7.5t-2 35.5zM323 384l9 43q-16 -11 -90 -14q-110 -5 -124 -73q-7 -30 13 -48t59 -18q47 0 85 31.5t48 78.5z" />
<glyph unicode="&#xab;" horiz-adv-x="304" d="M286 108l-64 123l3 17l118 126l-7 -31l-97 -103l54 -102zM173 108l-64 123l3 17l118 126l-7 -31l-97 -103l54 -102z" />
<glyph unicode="&#xac;" horiz-adv-x="500" d="M85 249l4 18h433l-56 -267h-19l52 249h-414z" />
<glyph unicode="&#xad;" horiz-adv-x="208" d="M48 229l4 16h208l-4 -16h-208z" />
<glyph unicode="&#xae;" horiz-adv-x="782" d="M117 333q31 145 154 245.5t269 100.5q139 0 217.5 -102t48.5 -244q-30 -143 -152.5 -244t-264.5 -101t-222 101t-50 244zM133 333q-29 -136 47 -232.5t212 -96.5t252.5 96.5t145.5 232.5q29 135 -46 232.5t-208 97.5q-139 0 -256.5 -96t-146.5 -234zM284 147l81 380h140 q67 0 93 -23q31 -29 20 -80q-16 -74 -94 -94q41 -11 48 -37.5t-9 -106.5q-4 -22 -2 -39h-17q-1 12 3 39q11 62 11 81t-11 33q-18 22 -78 22h-132l-37 -175h-16zM340 338h134q52 0 85.5 22.5t42.5 63.5q9 49 -24 73q-20 14 -84 14h-117z" />
<glyph unicode="&#xaf;" horiz-adv-x="500" d="M231 593l3 16h290l-3 -16h-290z" />
<glyph unicode="&#xb0;" horiz-adv-x="343" d="M255 396q-60 0 -91 39t-18 98q13 61 60 99.5t109 38.5q59 0 90 -39.5t18 -98.5t-60 -98t-108 -39zM258 412q54 0 96 34t53 87t-15.5 87.5t-79.5 34.5q-56 0 -97.5 -33.5t-52.5 -88.5q-11 -53 16 -87t80 -34z" />
<glyph unicode="&#xb1;" d="M308 153l37 176h-177l4 16h177l37 177h16l-37 -177h176l-4 -16h-176l-37 -176h-16zM112 63l3 16h369l-3 -16h-369z" />
<glyph unicode="&#xb2;" horiz-adv-x="373" d="M107 254q14 42 43.5 68.5t119.5 79.5q124 73 137 139q9 40 -15 64t-71 24q-52 0 -88 -29.5t-46 -81.5q-2 -6 -2 -12h-16q0 2 1 5v3q13 62 54 96.5t101 34.5q54 0 81 -29t17 -75q-9 -44 -46.5 -79.5t-137.5 -94.5q-53 -32 -75.5 -52t-32.5 -45h244l-4 -16h-264z" />
<glyph unicode="&#xb3;" horiz-adv-x="373" d="M183 513h-17q10 43 28 68q46 64 135 64q54 0 82 -27t19 -71q-14 -66 -90 -86q36 -7 52.5 -33t8.5 -64q-11 -52 -56 -85t-106 -33q-64 0 -93.5 36t-16.5 99l2 7h18l-2 -8l-2 -9q-10 -49 16.5 -79t79.5 -30q54 0 94 28.5t50 74.5q7 33 -8.5 55.5t-47.5 27.5q-23 4 -66 5 l3 17q40 0 64 4q33 6 55.5 25.5t28.5 46.5q8 38 -16.5 60.5t-72.5 22.5q-115 0 -142 -116z" />
<glyph unicode="&#xb4;" horiz-adv-x="500" d="M324 550l181 98h30l-180 -98h-31z" />
<glyph unicode="&#xb5;" d="M63 -160l135 633h16l-51 -238q-6 -30 -4 -75t10 -71q28 -86 105 -86q83 0 151 74q25 27 38 55t24 77l56 264h16l-100 -473h-16l24 116q-28 -58 -81 -93.5t-111 -35.5q-115 0 -127 152l-1 17l-68 -316h-16z" />
<glyph unicode="&#xb6;" horiz-adv-x="520" d="M286 -80l83 388h-42q-56 0 -89 11t-57 37q-45 50 -28 132t87 136q58 43 152 43h182l-159 -747h-16l156 731h-97l-156 -731h-16z" />
<glyph unicode="&#xb7;" horiz-adv-x="136" d="M102 200l19 91h16l-19 -91h-16z" />
<glyph unicode="&#xb8;" horiz-adv-x="500" d="M241 -66h16l-14 -66q-8 -41 -20 -59.5t-46 -41.5l5 22q22 17 30.5 31.5t15.5 49.5z" />
<glyph unicode="&#xb9;" horiz-adv-x="373" d="M243 254l77 360q-43 -45 -117 -65l4 17q67 16 120 71h14l-82 -383h-16z" />
<glyph unicode="&#xba;" horiz-adv-x="327" d="M218 259q-59 0 -86.5 42t-13.5 110q14 67 60 108.5t105 41.5q61 0 87.5 -42.5t10.5 -114.5q-14 -66 -58 -105.5t-105 -39.5zM221 275q54 0 93 35t51 94q14 65 -9 103t-77 38q-53 0 -92.5 -37t-52.5 -98t10.5 -98t76.5 -37z" />
<glyph unicode="&#xbb;" horiz-adv-x="304" d="M175 108l7 30l98 102l-55 103l7 31l64 -126l-3 -17zM62 108l7 30l98 102l-55 103l7 31l64 -126l-3 -17z" />
<glyph unicode="&#xbc;" horiz-adv-x="849" d="M211 0l568 667h20l-568 -667h-20zM243 254l77 360q-43 -45 -117 -65l4 17q67 16 120 71h14l-82 -383h-16zM543 100l4 18l247 265h18l-57 -267h71l-3 -16h-71l-21 -100h-16l21 100h-193zM566 116h173l51 241z" />
<glyph unicode="&#xbd;" horiz-adv-x="849" d="M211 0l568 667h20l-568 -667h-20zM243 254l77 360q-43 -45 -117 -65l4 17q67 16 120 71h14l-82 -383h-16zM530 0q16 43 44.5 69t117.5 79q124 72 138 139q8 40 -16 64t-71 24q-52 0 -88 -29.5t-46 -81.5q-2 -6 -2 -12h-16q0 2 1 5v3q13 62 54 96.5t101 34.5q54 0 81 -29 t18 -75q-10 -43 -47.5 -78.5t-137.5 -95.5q-53 -31 -75 -51t-33 -46h244l-3 -16h-264z" />
<glyph unicode="&#xbe;" horiz-adv-x="849" d="M211 0l569 667h19l-568 -667h-20zM183 513h-17q10 43 28 68q46 64 135 64q54 0 82 -27t19 -71q-14 -66 -90 -86q36 -7 52.5 -33t8.5 -64q-11 -52 -56 -85t-106 -33q-64 0 -93.5 36t-16.5 99l2 7h18l-2 -8l-2 -9q-10 -49 16.5 -79t79.5 -30q54 0 94 28.5t50 74.5 q7 33 -8.5 55.5t-47.5 27.5q-23 4 -66 5l3 17q40 0 64 4q33 6 55.5 25.5t28.5 46.5q8 38 -16.5 60.5t-72.5 22.5q-115 0 -142 -116zM543 100l4 18l247 265h18l-57 -267h71l-3 -16h-71l-21 -100h-16l21 100h-193zM566 116h173l51 241z" />
<glyph unicode="&#xbf;" horiz-adv-x="467" d="M318 456l20 91h16l-20 -91h-16zM432 101h16q-21 -93 -68 -141q-71 -76 -176 -76q-83 0 -126.5 46t-28.5 117q10 45 36.5 77.5t101.5 90.5q64 49 83 75.5t30 80.5l1 5h16q-13 -61 -35.5 -92.5t-90.5 -82.5q-62 -47 -89.5 -80.5t-35.5 -72.5q-14 -66 25.5 -107t117.5 -41 q104 0 171 82q30 36 52 119z" />
<glyph unicode="&#xc0;" horiz-adv-x="571" d="M442 737l-138 98h30l139 -98h-31zM7 0l414 667h18l126 -667h-19l-41 217h-345l-135 -217h-18zM171 233h329l-76 411z" />
<glyph unicode="&#xc1;" horiz-adv-x="571" d="M420 737l181 98h30l-180 -98h-31zM7 0l414 667h18l126 -667h-19l-41 217h-345l-135 -217h-18zM171 233h329l-76 411z" />
<glyph unicode="&#xc2;" horiz-adv-x="571" d="M303 736l154 99h22l114 -99h-28l-101 86l-133 -86h-28zM7 0l414 667h18l126 -667h-19l-41 217h-345l-135 -217h-18zM171 233h329l-76 411z" />
<glyph unicode="&#xc3;" horiz-adv-x="571" d="M334 754q13 33 35 53t46 20q26 0 57 -31q30 -30 51 -30q32 0 58 57h17q-26 -71 -78 -71q-26 0 -54 28q-33 32 -54 32q-37 0 -61 -58h-17zM7 0l414 667h18l126 -667h-19l-41 217h-345l-135 -217h-18zM171 233h329l-76 411z" />
<glyph unicode="&#xc4;" horiz-adv-x="571" d="M535 736l21 98h16l-21 -98h-16zM345 736l21 98h16l-21 -98h-16zM7 0l414 667h18l126 -667h-19l-41 217h-345l-135 -217h-18zM171 233h329l-76 411z" />
<glyph unicode="&#xc5;" horiz-adv-x="571" d="M440 719q-31 0 -46.5 20t-9.5 51q7 31 32 51t56 20t46.5 -20t8.5 -51q-6 -31 -30.5 -51t-56.5 -20zM444 735q25 0 43.5 15.5t23.5 39.5t-7 39.5t-36 15.5q-25 0 -44 -15.5t-24 -39.5t7.5 -39.5t36.5 -15.5zM7 0l414 667h18l126 -667h-19l-41 217h-345l-135 -217h-18z M171 233h329l-76 411z" />
<glyph unicode="&#xc6;" horiz-adv-x="892" d="M7 0l400 667h573l-3 -16h-409l-64 -299h365l-3 -16h-365l-68 -320h409l-3 -16h-425l46 219h-304l-131 -219h-18zM166 235h297l89 416h-137z" />
<glyph unicode="&#xc7;" horiz-adv-x="658" d="M662 257h16q-25 -86 -82 -147q-115 -123 -262 -123q-125 0 -193 88q-72 96 -38 255q33 156 139 253t244 97q148 0 206 -112q22 -43 22 -106h-17q-1 95 -57 148.5t-156 53.5q-133 0 -233.5 -92t-132.5 -243t37 -243q63 -83 181 -83q74 0 143.5 35.5t121.5 100.5 q38 46 61 118zM316 -61h16l-15 -70q-11 -48 -23.5 -68.5t-46.5 -41.5l5 24q23 15 32 31t17 55z" />
<glyph unicode="&#xc8;" horiz-adv-x="609" d="M474 737l-138 98h30l139 -98h-31zM90 0l141 667h445l-3 -16h-429l-63 -298h403l-4 -16h-403l-68 -321h429l-3 -16h-445z" />
<glyph unicode="&#xc9;" horiz-adv-x="609" d="M435 737l181 98h30l-180 -98h-31zM90 0l141 667h445l-3 -16h-429l-63 -298h403l-4 -16h-403l-68 -321h429l-3 -16h-445z" />
<glyph unicode="&#xca;" horiz-adv-x="609" d="M335 736l154 99h22l114 -99h-28l-101 86l-133 -86h-28zM90 0l141 667h445l-3 -16h-429l-63 -298h403l-4 -16h-403l-68 -321h429l-3 -16h-445z" />
<glyph unicode="&#xcb;" horiz-adv-x="609" d="M564 736l21 98h16l-21 -98h-16zM374 736l21 98h16l-21 -98h-16zM90 0l141 667h445l-3 -16h-429l-63 -298h403l-4 -16h-403l-68 -321h429l-3 -16h-445z" />
<glyph unicode="&#xcc;" horiz-adv-x="222" d="M268 737l-138 98h30l139 -98h-31zM103 0l141 667h16l-141 -667h-16z" />
<glyph unicode="&#xcd;" horiz-adv-x="222" d="M245 737l181 98h30l-180 -98h-31zM103 0l141 667h16l-141 -667h-16z" />
<glyph unicode="&#xce;" horiz-adv-x="222" d="M125 736l154 99h22l114 -99h-28l-101 86l-133 -86h-28zM103 0l141 667h16l-141 -667h-16z" />
<glyph unicode="&#xcf;" horiz-adv-x="222" d="M291 736l21 98h16l-21 -98h-16zM234 736l21 98h16l-21 -98h-16zM103 0l141 667h16l-141 -667h-16z" />
<glyph unicode="&#xd0;" horiz-adv-x="638" d="M90 0l71 337h-67l4 16h67l66 314h196q155 0 216 -77q32 -41 40.5 -108.5t-8.5 -147.5q-35 -166 -148 -259q-49 -40 -105 -57.5t-137 -17.5h-195zM109 16h174q88 0 145 19t107 66q94 90 125 237q37 167 -42 252q-31 33 -77.5 47t-124.5 14h-172l-63 -298h320l-4 -16h-320z " />
<glyph unicode="&#xd1;" horiz-adv-x="683" d="M400 754q13 33 35 53t46 20q26 0 57 -31q30 -30 51 -30q32 0 58 57h17q-26 -71 -78 -71q-26 0 -54 28q-33 32 -54 32q-37 0 -61 -58h-17zM90 0l141 667h24l326 -646l137 646h16l-141 -667h-22l-328 649l-137 -649h-16z" />
<glyph unicode="&#xd2;" horiz-adv-x="686" d="M499 737l-138 98h30l139 -98h-31zM335 -13q-134 0 -199 97t-33 250q33 154 139.5 250t244.5 96q137 0 202.5 -96t33.5 -249q-34 -157 -141 -252q-108 -96 -247 -96zM338 3q134 0 235 91t134 241q31 146 -31 237.5t-192 91.5q-132 0 -232.5 -91t-132.5 -239 q-31 -146 30 -238.5t189 -92.5z" />
<glyph unicode="&#xd3;" horiz-adv-x="686" d="M473 737l181 98h30l-180 -98h-31zM335 -13q-134 0 -199 97t-33 250q33 154 139.5 250t244.5 96q137 0 202.5 -96t33.5 -249q-34 -157 -141 -252q-108 -96 -247 -96zM338 3q134 0 235 91t134 241q31 146 -31 237.5t-192 91.5q-132 0 -232.5 -91t-132.5 -239 q-31 -146 30 -238.5t189 -92.5z" />
<glyph unicode="&#xd4;" horiz-adv-x="686" d="M360 736l154 99h22l114 -99h-28l-101 86l-133 -86h-28zM335 -13q-134 0 -199 97t-33 250q33 154 139.5 250t244.5 96q137 0 202.5 -96t33.5 -249q-34 -157 -141 -252q-108 -96 -247 -96zM338 3q134 0 235 91t134 241q31 146 -31 237.5t-192 91.5q-132 0 -232.5 -91 t-132.5 -239q-31 -146 30 -238.5t189 -92.5z" />
<glyph unicode="&#xd5;" horiz-adv-x="686" d="M397 754q13 33 35 53t46 20q26 0 57 -31q30 -30 51 -30q32 0 58 57h17q-26 -71 -78 -71q-26 0 -54 28q-33 32 -54 32q-37 0 -61 -58h-17zM335 -13q-134 0 -199 97t-33 250q33 154 139.5 250t244.5 96q137 0 202.5 -96t33.5 -249q-34 -157 -141 -252q-108 -96 -247 -96z M338 3q134 0 235 91t134 241q31 146 -31 237.5t-192 91.5q-132 0 -232.5 -91t-132.5 -239q-31 -146 30 -238.5t189 -92.5z" />
<glyph unicode="&#xd6;" horiz-adv-x="686" d="M592 736l21 98h16l-21 -98h-16zM402 736l21 98h16l-21 -98h-16zM335 -13q-134 0 -199 97t-33 250q33 154 139.5 250t244.5 96q137 0 202.5 -96t33.5 -249q-34 -157 -141 -252q-108 -96 -247 -96zM338 3q134 0 235 91t134 241q31 146 -31 237.5t-192 91.5 q-132 0 -232.5 -91t-132.5 -239q-31 -146 30 -238.5t189 -92.5z" />
<glyph unicode="&#xd7;" d="M155 164l-8 11l197 162l-128 163l13 11l128 -163l197 163l9 -11l-197 -163l128 -162l-14 -11l-127 162z" />
<glyph unicode="&#xd8;" horiz-adv-x="685" d="M47 17l84 76q-32 62 -38 114t11 129q33 156 138 249q107 95 242 95q128 0 198 -88l70 64l9 -12l-70 -64q61 -99 30 -247q-34 -162 -141 -254q-106 -92 -243 -92q-127 0 -197 93l-83 -74zM146 106l523 474q-66 84 -189 84q-127 0 -230 -92q-98 -89 -130 -235 q-16 -74 -10 -126t36 -105zM153 93q40 -50 81.5 -70t104.5 -20q132 0 232 88q102 88 133 238q30 143 -27 239z" />
<glyph unicode="&#xd9;" horiz-adv-x="676" d="M508 737l-138 98h30l139 -98h-31zM727 667l-84 -398q-18 -85 -41.5 -131t-66.5 -83q-78 -68 -200 -68q-136 0 -182 83q-20 36 -21 78.5t15 120.5l84 398h16l-84 -398q-16 -77 -13.5 -121.5t25.5 -78.5q45 -66 163 -66q131 0 205 80q57 61 84 186l84 398h16z" />
<glyph unicode="&#xda;" horiz-adv-x="676" d="M462 737l181 98h30l-180 -98h-31zM727 667l-84 -398q-18 -85 -41.5 -131t-66.5 -83q-78 -68 -200 -68q-136 0 -182 83q-20 36 -21 78.5t15 120.5l84 398h16l-84 -398q-16 -77 -13.5 -121.5t25.5 -78.5q45 -66 163 -66q131 0 205 80q57 61 84 186l84 398h16z" />
<glyph unicode="&#xdb;" horiz-adv-x="676" d="M362 736l154 99h22l114 -99h-28l-101 86l-133 -86h-28zM727 667l-84 -398q-18 -85 -41.5 -131t-66.5 -83q-78 -68 -200 -68q-136 0 -182 83q-20 36 -21 78.5t15 120.5l84 398h16l-84 -398q-16 -77 -13.5 -121.5t25.5 -78.5q45 -66 163 -66q131 0 205 80q57 61 84 186 l84 398h16z" />
<glyph unicode="&#xdc;" horiz-adv-x="676" d="M591 736l21 98h16l-21 -98h-16zM401 736l21 98h16l-21 -98h-16zM727 667l-84 -398q-18 -85 -41.5 -131t-66.5 -83q-78 -68 -200 -68q-136 0 -182 83q-20 36 -21 78.5t15 120.5l84 398h16l-84 -398q-16 -77 -13.5 -121.5t25.5 -78.5q45 -66 163 -66q131 0 205 80 q57 61 84 186l84 398h16z" />
<glyph unicode="&#xdd;" horiz-adv-x="576" d="M433 737l181 98h30l-180 -98h-31zM284 0l59 282l-195 385h20l186 -371l337 371h20l-352 -385l-59 -282h-16z" />
<glyph unicode="&#xde;" horiz-adv-x="580" d="M90 0l141 667h16l-17 -80h253q105 0 141 -52q38 -51 22 -127q-19 -90 -96 -140q-61 -40 -154 -40h-242l-48 -228h-16zM157 244h242q97 0 158 46q57 43 73 118q18 81 -29 128q-34 35 -132 35h-242z" />
<glyph unicode="&#xdf;" horiz-adv-x="470" d="M70 0l107 508q11 51 27.5 80.5t46.5 52.5q51 39 121 39q77 0 116.5 -44.5t24.5 -115.5q-23 -112 -148 -145q64 -12 89 -35q49 -44 27 -147q-28 -126 -129 -173q-26 -12 -55 -16t-92 -4l3 18l38 -1q92 -3 148 47q53 47 71 131q26 120 -60 154q-36 15 -123 16l4 17 q74 -1 119 21q75 39 92 118q13 64 -22 103.5t-105 39.5q-81 0 -131 -55q-19 -21 -28 -42t-20 -71l-105 -496h-16z" />
<glyph unicode="&#xe0;" horiz-adv-x="475" d="M351 550l-138 98h30l139 -98h-31zM397 66l10 50q-83 -129 -216 -129q-73 0 -111 37t-25 96q19 89 122 125q40 14 175 22q66 4 85 22q8 8 14 35l4 18q15 70 -19 101q-33 27 -100 27q-77 0 -121.5 -32.5t-69.5 -105.5h-17q47 154 209 154q80 0 118 -38q17 -19 20.5 -43 t-5.5 -67l-56 -265q-8 -38 -3 -47.5t36 -9.5h18l-3 -16q-48 0 -58 7q-11 7 -12.5 18.5t5.5 40.5zM424 194l18 87q-19 -18 -45.5 -23.5t-111.5 -9.5q-188 -9 -214 -129q-11 -52 22.5 -84t100.5 -32q91 0 161 69q53 52 69 122z" />
<glyph unicode="&#xe1;" horiz-adv-x="475" d="M335 550l181 98h30l-180 -98h-31zM397 66l10 50q-83 -129 -216 -129q-73 0 -111 37t-25 96q19 89 122 125q40 14 175 22q66 4 85 22q8 8 14 35l4 18q15 70 -19 101q-33 27 -100 27q-77 0 -121.5 -32.5t-69.5 -105.5h-17q47 154 209 154q80 0 118 -38q17 -19 20.5 -43 t-5.5 -67l-56 -265q-8 -38 -3 -47.5t36 -9.5h18l-3 -16q-48 0 -58 7q-11 7 -12.5 18.5t5.5 40.5zM424 194l18 87q-19 -18 -45.5 -23.5t-111.5 -9.5q-188 -9 -214 -129q-11 -52 22.5 -84t100.5 -32q91 0 161 69q53 52 69 122z" />
<glyph unicode="&#xe2;" horiz-adv-x="475" d="M218 550l155 100h22l113 -100h-28l-100 87l-134 -87h-28zM397 66l10 50q-83 -129 -216 -129q-73 0 -111 37t-25 96q19 89 122 125q40 14 175 22q66 4 85 22q8 8 14 35l4 18q15 70 -19 101q-33 27 -100 27q-77 0 -121.5 -32.5t-69.5 -105.5h-17q47 154 209 154 q80 0 118 -38q17 -19 20.5 -43t-5.5 -67l-56 -265q-8 -38 -3 -47.5t36 -9.5h18l-3 -16q-48 0 -58 7q-11 7 -12.5 18.5t5.5 40.5zM424 194l18 87q-19 -18 -45.5 -23.5t-111.5 -9.5q-188 -9 -214 -129q-11 -52 22.5 -84t100.5 -32q91 0 161 69q53 52 69 122z" />
<glyph unicode="&#xe3;" horiz-adv-x="475" d="M241 567q13 33 35.5 53t46.5 20q25 0 56 -31q30 -30 52 -30q30 0 58 57h17q-28 -71 -78 -71q-27 0 -54 28q-35 32 -55 32q-37 0 -61 -58h-17zM397 66l10 50q-83 -129 -216 -129q-73 0 -111 37t-25 96q19 89 122 125q40 14 175 22q66 4 85 22q8 8 14 35l4 18 q15 70 -19 101q-33 27 -100 27q-77 0 -121.5 -32.5t-69.5 -105.5h-17q47 154 209 154q80 0 118 -38q17 -19 20.5 -43t-5.5 -67l-56 -265q-8 -38 -3 -47.5t36 -9.5h18l-3 -16q-48 0 -58 7q-11 7 -12.5 18.5t5.5 40.5zM424 194l18 87q-19 -18 -45.5 -23.5t-111.5 -9.5 q-188 -9 -214 -129q-11 -52 22.5 -84t100.5 -32q91 0 161 69q53 52 69 122z" />
<glyph unicode="&#xe4;" horiz-adv-x="475" d="M454 549l21 99h16l-21 -99h-16zM264 549l21 99h16l-21 -99h-16zM397 66l10 50q-83 -129 -216 -129q-73 0 -111 37t-25 96q19 89 122 125q40 14 175 22q66 4 85 22q8 8 14 35l4 18q15 70 -19 101q-33 27 -100 27q-77 0 -121.5 -32.5t-69.5 -105.5h-17q47 154 209 154 q80 0 118 -38q17 -19 20.5 -43t-5.5 -67l-56 -265q-8 -38 -3 -47.5t36 -9.5h18l-3 -16q-48 0 -58 7q-11 7 -12.5 18.5t5.5 40.5zM424 194l18 87q-19 -18 -45.5 -23.5t-111.5 -9.5q-188 -9 -214 -129q-11 -52 22.5 -84t100.5 -32q91 0 161 69q53 52 69 122z" />
<glyph unicode="&#xe5;" horiz-adv-x="475" d="M353 533q-31 0 -47 20t-9 51t31.5 51t55.5 20t47 -20t9 -51t-31.5 -51t-55.5 -20zM356 549q25 0 44 15.5t24 39.5t-7 39.5t-36 15.5q-25 0 -44 -15.5t-24 -39.5t7 -39.5t36 -15.5zM397 66l10 50q-83 -129 -216 -129q-73 0 -111 37t-25 96q19 89 122 125q40 14 175 22 q66 4 85 22q8 8 14 35l4 18q15 70 -19 101q-33 27 -100 27q-77 0 -121.5 -32.5t-69.5 -105.5h-17q47 154 209 154q80 0 118 -38q17 -19 20.5 -43t-5.5 -67l-56 -265q-8 -38 -3 -47.5t36 -9.5h18l-3 -16q-48 0 -58 7q-11 7 -12.5 18.5t5.5 40.5zM424 194l18 87 q-19 -18 -45.5 -23.5t-111.5 -9.5q-188 -9 -214 -129q-11 -52 22.5 -84t100.5 -32q91 0 161 69q53 52 69 122z" />
<glyph unicode="&#xe6;" horiz-adv-x="831" d="M813 165h17q-34 -84 -97 -131t-142 -47q-107 0 -150 87q-11 23 -18 76q-26 -57 -54 -85q-75 -78 -178 -78q-74 0 -111.5 37t-24.5 97q20 89 122 124q44 15 175 22q67 4 85 21q9 8 16 46q10 44 6 68.5t-23 40.5q-33 27 -100 27q-77 0 -121.5 -32.5t-69.5 -105.5h-17 q47 154 210 154q81 0 117 -38q18 -19 21.5 -42.5t-5.5 -67.5q23 44 53 74q77 74 177 74q58 0 98 -28.5t56 -80.5q14 -51 -4 -138l-2 -11h-401q-17 -93 9 -146q37 -79 138 -79q73 0 131 43t87 119zM451 244h384q13 59 9 96q-7 62 -46 96t-103 34q-89 0 -154 -60t-90 -166z M424 195l18 86q-19 -18 -45.5 -23.5t-111.5 -9.5q-188 -9 -214 -128q-11 -53 22.5 -85t100.5 -32q91 0 161 69q55 55 69 123z" />
<glyph unicode="&#xe7;" horiz-adv-x="471" d="M459 163h16q-27 -72 -71 -112q-67 -64 -165 -64q-95 0 -139 69.5t-20 181.5q24 111 98 179.5t171 68.5q79 0 122.5 -41.5t33.5 -109.5h-17q10 60 -29.5 97.5t-112.5 37.5q-91 0 -159 -63t-90 -167q-23 -106 16.5 -171.5t127.5 -65.5q155 0 218 160zM220 -66h16l-14 -66 q-8 -41 -20 -59.5t-46 -41.5l5 22q22 17 30.5 31.5t15.5 49.5z" />
<glyph unicode="&#xe8;" horiz-adv-x="478" d="M355 550l-138 98h30l139 -98h-31zM496 228h-400q-17 -92 9 -146q36 -79 137 -79q73 0 131 43t87 119h17q-34 -84 -97 -131t-142 -47q-94 0 -138 67.5t-21 176.5q24 115 97.5 185t171.5 70q58 0 98 -28.5t56 -80.5q14 -53 -4 -138zM99 244h383q13 56 9 96q-7 62 -46 96 t-102 34q-89 0 -154 -60t-90 -166z" />
<glyph unicode="&#xe9;" horiz-adv-x="478" d="M336 550l181 98h30l-180 -98h-31zM496 228h-400q-17 -92 9 -146q36 -79 137 -79q73 0 131 43t87 119h17q-34 -84 -97 -131t-142 -47q-94 0 -138 67.5t-21 176.5q24 115 97.5 185t171.5 70q58 0 98 -28.5t56 -80.5q14 -53 -4 -138zM99 244h383q13 56 9 96q-7 62 -46 96 t-102 34q-89 0 -154 -60t-90 -166z" />
<glyph unicode="&#xea;" horiz-adv-x="478" d="M223 550l155 100h22l113 -100h-28l-100 87l-134 -87h-28zM496 228h-400q-17 -92 9 -146q36 -79 137 -79q73 0 131 43t87 119h17q-34 -84 -97 -131t-142 -47q-94 0 -138 67.5t-21 176.5q24 115 97.5 185t171.5 70q58 0 98 -28.5t56 -80.5q14 -53 -4 -138zM99 244h383 q13 56 9 96q-7 62 -46 96t-102 34q-89 0 -154 -60t-90 -166z" />
<glyph unicode="&#xeb;" horiz-adv-x="478" d="M452 549l21 99h16l-21 -99h-16zM262 549l21 99h16l-21 -99h-16zM496 228h-400q-17 -92 9 -146q36 -79 137 -79q73 0 131 43t87 119h17q-34 -84 -97 -131t-142 -47q-94 0 -138 67.5t-21 176.5q24 115 97.5 185t171.5 70q58 0 98 -28.5t56 -80.5q14 -53 -4 -138zM99 244 h383q13 56 9 96q-7 62 -46 96t-102 34q-89 0 -154 -60t-90 -166z" />
<glyph unicode="&#xec;" horiz-adv-x="156" d="M191 550l-138 98h30l139 -98h-31zM70 0l100 473h16l-100 -473h-16z" />
<glyph unicode="&#xed;" horiz-adv-x="156" d="M175 550l181 98h30l-180 -98h-31zM70 0l100 473h16l-100 -473h-16z" />
<glyph unicode="&#xee;" horiz-adv-x="156" d="M52 550l155 100h22l113 -100h-28l-100 87l-134 -87h-28zM70 0l100 473h16l-100 -473h-16z" />
<glyph unicode="&#xef;" horiz-adv-x="156" d="M221 549l21 99h16l-21 -99h-16zM158 549l21 99h16l-21 -99h-16zM71 0l100 473h16l-100 -473h-16z" />
<glyph unicode="&#xf0;" horiz-adv-x="490" d="M486 682l-96 -64q61 -90 87 -153q31 -72 37.5 -122.5t-6.5 -113.5q-23 -112 -95 -177t-171 -65q-97 0 -141.5 69t-20.5 181t98 180.5t171 68.5q71 0 118 -41q-25 68 -91 163l-99 -65l-8 12l98 65q-42 62 -52 78l14 9l53 -78l98 65zM245 3q91 0 157.5 60t89.5 163 q24 113 -15.5 178.5t-131.5 65.5q-90 0 -158 -64t-91 -169t18 -169.5t131 -64.5z" />
<glyph unicode="&#xf1;" horiz-adv-x="499" d="M264 567q13 33 35.5 53t46.5 20q25 0 56 -31q30 -30 52 -30q30 0 58 57h17q-28 -71 -78 -71q-27 0 -54 28q-35 32 -55 32q-37 0 -61 -58h-17zM70 0l100 473h16l-26 -122q38 60 72 87q60 48 135 48q91 0 126 -63q26 -47 8 -127l-62 -296h-16l60 283q11 53 9 83.5t-19 54.5 q-34 49 -110 49q-99 0 -169 -90q-39 -50 -55 -130l-53 -250h-16z" />
<glyph unicode="&#xf2;" horiz-adv-x="490" d="M358 550l-138 98h30l139 -98h-31zM242 -13q-97 0 -141.5 69t-20.5 181t98 180.5t171 68.5q99 0 141.5 -69.5t17.5 -190.5q-23 -109 -95.5 -174t-170.5 -65zM245 3q91 0 157.5 60t89.5 163q24 113 -15.5 178.5t-131.5 65.5q-90 0 -158 -64t-91 -169t18 -169.5t131 -64.5z " />
<glyph unicode="&#xf3;" horiz-adv-x="490" d="M342 550l181 98h30l-180 -98h-31zM242 -13q-97 0 -141.5 69t-20.5 181t98 180.5t171 68.5q99 0 141.5 -69.5t17.5 -190.5q-23 -109 -95.5 -174t-170.5 -65zM245 3q91 0 157.5 60t89.5 163q24 113 -15.5 178.5t-131.5 65.5q-90 0 -158 -64t-91 -169t18 -169.5t131 -64.5z " />
<glyph unicode="&#xf4;" horiz-adv-x="490" d="M222 550l155 100h22l113 -100h-28l-100 87l-134 -87h-28zM242 -13q-97 0 -141.5 69t-20.5 181t98 180.5t171 68.5q99 0 141.5 -69.5t17.5 -190.5q-23 -109 -95.5 -174t-170.5 -65zM245 3q91 0 157.5 60t89.5 163q24 113 -15.5 178.5t-131.5 65.5q-90 0 -158 -64t-91 -169 t18 -169.5t131 -64.5z" />
<glyph unicode="&#xf5;" horiz-adv-x="490" d="M263 567q13 33 35.5 53t46.5 20q25 0 56 -31q30 -30 52 -30q30 0 58 57h17q-28 -71 -78 -71q-27 0 -54 28q-35 32 -55 32q-37 0 -61 -58h-17zM242 -13q-97 0 -141.5 69t-20.5 181t98 180.5t171 68.5q99 0 141.5 -69.5t17.5 -190.5q-23 -109 -95.5 -174t-170.5 -65zM245 3 q91 0 157.5 60t89.5 163q24 113 -15.5 178.5t-131.5 65.5q-90 0 -158 -64t-91 -169t18 -169.5t131 -64.5z" />
<glyph unicode="&#xf6;" horiz-adv-x="490" d="M458 549l21 99h16l-21 -99h-16zM268 549l21 99h16l-21 -99h-16zM242 -13q-97 0 -141.5 69t-20.5 181t98 180.5t171 68.5q99 0 141.5 -69.5t17.5 -190.5q-23 -109 -95.5 -174t-170.5 -65zM245 3q91 0 157.5 60t89.5 163q24 113 -15.5 178.5t-131.5 65.5q-90 0 -158 -64 t-91 -169t18 -169.5t131 -64.5z" />
<glyph unicode="&#xf7;" d="M381 460q-10 0 -15.5 7t-3.5 17t10.5 17t18.5 7t15.5 -7t3.5 -17q-1 -10 -10 -17t-19 -7zM168 329l4 16h369l-4 -16h-369zM298 182q2 10 10.5 17t18.5 7t15.5 -7t3.5 -17t-10.5 -17t-18.5 -7t-15.5 7t-3.5 17z" />
<glyph unicode="&#xf8;" horiz-adv-x="494" d="M34 20l61 54q-31 72 -11 165q24 111 98 179t171 68q89 0 143 -68l53 47l11 -13l-57 -48q31 -74 10 -172q-24 -113 -95.5 -179t-170.5 -66q-98 0 -145 72l-58 -51zM110 86l371 320q-48 64 -135 64q-88 0 -155.5 -63.5t-89.5 -166.5q-21 -96 9 -154zM116 72q45 -69 134 -69 q91 0 157.5 61t88.5 164q20 98 -7 164z" />
<glyph unicode="&#xf9;" horiz-adv-x="491" d="M362 550l-138 98h30l139 -98h-31zM405 0l24 116q-30 -59 -83 -94t-114 -35q-89 0 -125 68q-25 49 -7 134l60 284h16l-60 -284q-18 -84 11 -132q34 -54 106 -54q88 0 154 74q25 27 38 55t24 77l56 264h16l-100 -473h-16z" />
<glyph unicode="&#xfa;" horiz-adv-x="491" d="M340 550l181 98h30l-180 -98h-31zM405 0l24 116q-30 -59 -83 -94t-114 -35q-89 0 -125 68q-25 49 -7 134l60 284h16l-60 -284q-18 -84 11 -132q34 -54 106 -54q88 0 154 74q25 27 38 55t24 77l56 264h16l-100 -473h-16z" />
<glyph unicode="&#xfb;" horiz-adv-x="491" d="M223 550l155 100h22l113 -100h-28l-100 87l-134 -87h-28zM405 0l24 116q-30 -59 -83 -94t-114 -35q-89 0 -125 68q-25 49 -7 134l60 284h16l-60 -284q-18 -84 11 -132q34 -54 106 -54q88 0 154 74q25 27 38 55t24 77l56 264h16l-100 -473h-16z" />
<glyph unicode="&#xfc;" horiz-adv-x="491" d="M455 549l21 99h16l-21 -99h-16zM265 549l21 99h16l-21 -99h-16zM405 0l24 116q-30 -59 -83 -94t-114 -35q-89 0 -125 68q-25 49 -7 134l60 284h16l-60 -284q-18 -84 11 -132q34 -54 106 -54q88 0 154 74q25 27 38 55t24 77l56 264h16l-100 -473h-16z" />
<glyph unicode="&#xfd;" horiz-adv-x="418" d="M314 550l181 98h30l-180 -98h-31zM32 -144q14 -1 27 -1q39 0 58.5 14t47.5 59l45 73l-103 472h19l97 -453l271 453h18l-326 -543q-34 -56 -58.5 -73.5t-71.5 -17.5q-14 0 -28 1z" />
<glyph unicode="&#xfe;" horiz-adv-x="516" d="M227 667l-70 -331q32 58 65 89q66 61 162 61t136.5 -65t16.5 -179q-26 -119 -96 -187t-167 -68q-86 0 -130 56q-23 30 -31 86l-62 -289h-16l176 827h16zM135 232q-22 -103 17.5 -166t124.5 -63q88 0 154.5 64.5t88.5 171.5q23 107 -14.5 169t-126.5 62t-155 -64t-89 -174 z" />
<glyph unicode="&#xff;" horiz-adv-x="418" d="M426 549l21 99h16l-21 -99h-16zM236 549l21 99h16l-21 -99h-16zM32 -144q14 -1 27 -1q39 0 58.5 14t47.5 59l45 73l-103 472h19l97 -453l271 453h18l-326 -543q-34 -56 -58.5 -73.5t-71.5 -17.5q-14 0 -28 1z" />
<glyph unicode="&#x152;" horiz-adv-x="1037" d="M554 0l14 69q-104 -82 -223 -82q-136 0 -206 99q-68 95 -37 240q33 155 143.5 254.5t250.5 99.5q114 0 186 -76l13 63h430l-3 -16h-414l-64 -299h369l-3 -16h-369l-68 -320h414l-3 -16h-430zM572 89l106 497q-42 42 -85 60t-101 18q-133 0 -237 -92.5t-136 -238.5 q-31 -146 33 -238t197 -92q122 0 223 86z" />
<glyph unicode="&#x153;" horiz-adv-x="840" d="M822 156h19q-29 -69 -77 -110q-70 -59 -160 -59q-78 0 -118 44t-35 125q-68 -169 -219 -169q-95 0 -136 65.5t-17 179.5q25 118 93.5 186t161.5 68q103 0 138 -76q15 -33 14 -86q32 76 92.5 119t133.5 43q69 0 112.5 -40t45.5 -106q0 -45 -14 -113h-380q-20 -93 -2 -141 q28 -83 133 -83q145 0 215 153zM479 243h364l1 6q18 83 1 132q-13 41 -49 65t-86 24q-51 0 -98 -25t-79 -69q-37 -53 -54 -133zM234 3q84 0 143.5 60t82.5 168q25 117 -8.5 178t-122.5 61q-86 0 -148.5 -63.5t-85.5 -174.5q-23 -106 14.5 -167.5t124.5 -61.5z" />
<glyph unicode="&#x178;" horiz-adv-x="576" d="M541 736l21 98h16l-21 -98h-16zM351 736l21 98h16l-21 -98h-16zM284 0l59 282l-195 385h20l186 -371l337 371h20l-352 -385l-59 -282h-16z" />
<glyph unicode="&#x2c6;" horiz-adv-x="500" d="M221 550l155 100h22l113 -100h-28l-100 87l-134 -87h-28z" />
<glyph unicode="&#x2dc;" horiz-adv-x="500" d="M245 567q13 33 35.5 53t46.5 20q25 0 56 -31q30 -30 52 -30q30 0 58 57h17q-28 -71 -78 -71q-27 0 -54 28q-35 32 -55 32q-37 0 -61 -58h-17z" />
<glyph unicode="&#x2000;" horiz-adv-x="430" />
<glyph unicode="&#x2001;" horiz-adv-x="861" />
<glyph unicode="&#x2002;" horiz-adv-x="430" />
<glyph unicode="&#x2003;" horiz-adv-x="861" />
<glyph unicode="&#x2004;" horiz-adv-x="287" />
<glyph unicode="&#x2005;" horiz-adv-x="215" />
<glyph unicode="&#x2006;" horiz-adv-x="143" />
<glyph unicode="&#x2007;" horiz-adv-x="143" />
<glyph unicode="&#x2008;" horiz-adv-x="107" />
<glyph unicode="&#x2009;" horiz-adv-x="172" />
<glyph unicode="&#x200a;" horiz-adv-x="47" />
<glyph unicode="&#x2010;" horiz-adv-x="208" d="M48 229l4 16h208l-4 -16h-208z" />
<glyph unicode="&#x2011;" horiz-adv-x="208" d="M48 229l4 16h208l-4 -16h-208z" />
<glyph unicode="&#x2012;" horiz-adv-x="208" d="M48 229l4 16h208l-4 -16h-208z" />
<glyph unicode="&#x2013;" horiz-adv-x="499" d="M118 229l4 16h369l-4 -16h-369z" />
<glyph unicode="&#x2014;" horiz-adv-x="623" d="M48 229l4 16h623l-4 -16h-623z" />
<glyph unicode="&#x2018;" horiz-adv-x="145" d="M169 484l18 83q10 50 22 71.5t43 48.5l-6 -27q-19 -19 -27 -36.5t-16 -56.5l-18 -83h-16z" />
<glyph unicode="&#x2019;" horiz-adv-x="119" d="M138 465l6 27q30 32 42 87l18 88h16l-17 -83q-9 -40 -22 -64t-43 -55z" />
<glyph unicode="&#x201a;" horiz-adv-x="119" d="M63 3l19 88h16l-18 -83q-8 -39 -21 -63.5t-43 -54.5l6 27q30 31 41 86z" />
<glyph unicode="&#x201c;" horiz-adv-x="238" d="M262 484l18 83q10 50 22 71.5t43 48.5l-6 -27q-19 -19 -27 -36.5t-16 -56.5l-18 -83h-16zM169 484l18 83q10 50 22 71.5t43 48.5l-6 -27q-19 -19 -27 -36.5t-16 -56.5l-18 -83h-16z" />
<glyph unicode="&#x201d;" horiz-adv-x="238" d="M231 464l6 27q18 20 26.5 37.5t16.5 55.5l17 83h16l-17 -83q-11 -50 -22.5 -71.5t-42.5 -48.5zM138 464l6 27q18 20 26.5 37.5t16.5 55.5l17 83h16l-17 -83q-11 -50 -22.5 -71.5t-42.5 -48.5z" />
<glyph unicode="&#x201e;" horiz-adv-x="242" d="M115 -88q33 36 43 86l20 92h16l-19 -89q-17 -79 -66 -118zM64 -4l20 94h16l-20 -93q-15 -68 -65 -112l6 26q32 36 43 85z" />
<glyph unicode="&#x2022;" horiz-adv-x="667" d="M377 200q-58 0 -90 40.5t-20 97.5q13 58 62 98.5t108 40.5q56 0 87.5 -41t19.5 -98t-61 -97.5t-106 -40.5z" />
<glyph unicode="&#x2026;" horiz-adv-x="447" d="M365 0l19 91h16l-19 -91h-16zM216 0l19 91h16l-19 -91h-16zM67 0l19 91h16l-19 -91h-16z" />
<glyph unicode="&#x202f;" horiz-adv-x="172" />
<glyph unicode="&#x2039;" horiz-adv-x="197" d="M180 108l-64 123l3 17l118 126l-7 -31l-97 -103l54 -102z" />
<glyph unicode="&#x203a;" horiz-adv-x="197" d="M62 108l7 30l98 102l-55 103l7 31l64 -126l-3 -17z" />
<glyph unicode="&#x205f;" horiz-adv-x="215" />
<glyph unicode="&#x20ac;" horiz-adv-x="695" d="M607 308h-414q-18 -106 15 -180q28 -61 81 -93t125 -32q148 0 257 125l-6 -28q-113 -113 -253 -113q-128 0 -193.5 89.5t-41.5 231.5h-67l11 17h59q1 10 4 17h-67l11 17h60q40 145 142.5 233t233.5 88q147 0 207 -112l-12 -18q-23 55 -74 84.5t-123 29.5 q-85 0 -160 -40.5t-129 -114.5q-42 -56 -69 -150h435l-11 -17h-429l-3 -17h422z" />
<glyph unicode="&#x2122;" horiz-adv-x="763" d="M419 287l80 380h21l83 -359l236 359h19l-80 -380h-16l73 348l-228 -348h-17l-82 348l-73 -348h-16zM208 287l77 364h-135l3 16h287l-3 -16h-136l-77 -364h-16z" />
<glyph unicode="&#x25fc;" horiz-adv-x="475" d="M0 475h475v-475h-475v475z" />
</font>
</defs>
</svg>
