<?xml version="1.0" encoding="UTF-8"?>
<svg xmlns="http://www.w3.org/2000/svg" xmlns:xlink="http://www.w3.org/1999/xlink" version="1.2" >
<font id="Chronicle Text G2 Italic">
<font-face  font-family="Chronicle Text G2" units-per-em="1000" ascent="800" descent="-200" font-style="italic" font-weight="325" font-stretch="normal" slope="-12" cap-height="658" x-height="459" underline-position="-75" underline-thickness="50" />
<missing-glyph  horiz-adv-x="500" d="M0 -200 L500 -200 L500 800 L0 800 L0 -200 Z M71 750 L429 750 L250 360 L71 750 Z M50 -76 L50 676 L222 300 L50 -76 Z M450 676 L450 -76 L278 300 L450 676 Z M250 240 L429 -150 L71 -150 L250 240 Z " />
<glyph glyph-name="NULL" d="" />
<glyph glyph-name="CR" unicode="&#xd;" horiz-adv-x="250" d="" />
<glyph glyph-name="space" unicode="&#x20;" horiz-adv-x="184" d="" />
<glyph glyph-name="exclam" unicode="&#x21;" horiz-adv-x="246" d="M129 181 C200 400 286 568 286 627 C286 660 271 684 240 684 C207 684 185 662 171 614 C149 532 137 397 93 187 L129 181 Z M76 -16 C110 -16 138 12 138 45 C138 79 110 107 76 107 C41 107 14 79 14 45 C14 12 41 -16 76 -16 L76 -16 Z " />
<glyph glyph-name="quotedbl" unicode="&#x22;" horiz-adv-x="403" d="M113 411 L180 484 C260 571 280 602 280 626 C280 643 268 662 243 662 C210 662 192 640 131 511 L89 424 L113 411 Z M288 411 L355 484 C435 570 455 602 455 626 C455 643 443 662 418 662 C385 662 367 640 306 511 L264 424 L288 411 Z " />
<glyph glyph-name="numbersign" unicode="&#x23;" horiz-adv-x="663" d="M377 663 L320 663 L261 465 L115 465 L110 417 L246 417 L183 206 L46 206 L41 158 L168 158 L109 -40 L166 -40 L225 158 L394 158 L335 -40 L392 -40 L451 158 L597 158 L602 206 L466 206 L529 417 L666 417 L671 465 L543 465 L603 663 L546 663 L487 465 L317 465 L377 663 Z M303 417 L472 417 L409 206 L240 206 L303 417 Z " />
<glyph glyph-name="dollar" unicode="&#x24;" horiz-adv-x="533" d="M220 -64 L243 18 L263 18 C411 18 478 120 478 199 C478 278 419 316 334 354 L390 562 C428 553 457 535 470 516 C446 510 427 485 427 462 C427 434 447 411 481 411 C515 411 542 442 542 485 C542 537 482 584 401 600 L419 671 L377 677 L357 605 L346 605 C200 605 126 515 126 432 C126 360 172 326 266 286 L270 284 L209 60 C165 70 125 90 114 111 C142 123 159 144 159 172 C159 196 141 222 109 222 C66 222 37 187 37 146 C37 85 105 38 198 23 L178 -57 L220 -64 Z M396 160 C396 108 355 54 263 54 L252 54 L308 267 C367 237 396 208 396 160 L396 160 Z M209 469 C209 525 265 568 343 568 L348 568 L296 371 C239 398 209 423 209 469 L209 469 Z " />
<glyph glyph-name="percent" unicode="&#x25;" horiz-adv-x="808" d="M391 579 C375 611 345 628 303 628 C182 628 75 490 75 380 C75 315 112 264 193 264 C321 264 403 441 403 521 L403 528 C427 523 447 522 464 522 C517 522 565 539 598 563 L602 558 L136 -26 L200 -26 L708 642 L658 642 C603 583 541 560 484 560 C443 560 414 568 391 579 L391 579 Z M574 -15 C702 -15 784 162 784 242 C784 311 747 349 684 349 C563 349 456 211 456 101 C456 36 493 -15 574 -15 L574 -15 Z M584 24 C551 24 532 44 532 85 C532 171 613 306 692 306 C726 306 740 283 740 248 C740 169 670 24 584 24 L584 24 Z M358 541 C359 536 359 531 359 527 C359 448 289 303 203 303 C170 303 151 323 151 364 C151 442 218 560 289 582 C309 564 333 550 358 541 L358 541 Z " />
<glyph glyph-name="ampersand" unicode="&#x26;" horiz-adv-x="676" d="M320 367 C292 415 283 450 283 480 C283 549 331 589 376 589 C416 589 435 562 435 524 C435 471 418 423 320 367 L320 367 Z M256 310 C301 253 340 176 360 112 C314 66 280 42 231 42 C162 42 131 93 131 149 C131 219 164 265 256 310 L256 310 Z M422 187 C406 240 374 297 338 342 C453 397 513 444 513 520 C513 579 470 627 390 627 C298 627 203 552 203 442 C203 404 215 377 238 335 C100 288 31 214 31 117 C31 78 57 -16 191 -16 C260 -16 316 19 371 77 C393 16 432 -16 492 -16 C529 -16 567 4 613 51 L596 77 C567 53 554 47 527 47 C494 47 462 68 437 150 C480 212 526 266 565 289 L568 284 C565 278 564 273 564 264 C564 239 586 220 616 220 C648 220 673 249 673 281 C673 320 650 346 606 346 C548 346 487 281 422 187 L422 187 Z " />
<glyph glyph-name="quotesingle" unicode="&#x27;" horiz-adv-x="228" d="M113 411 L180 484 C260 571 280 602 280 626 C280 643 268 662 243 662 C210 662 192 640 131 511 L89 424 L113 411 Z " />
<glyph glyph-name="parenleft" unicode="&#x28;" horiz-adv-x="361" d="M268 -157 L298 -127 C218 -65 165 35 165 160 C165 407 322 620 516 688 L504 722 C299 667 76 458 76 183 C76 25 163 -90 268 -157 L268 -157 Z " />
<glyph glyph-name="parenright" unicode="&#x29;" horiz-adv-x="361" d="M-116 -157 C89 -102 312 107 312 382 C312 540 225 655 120 722 L90 692 C170 630 223 530 223 405 C223 158 66 -55 -128 -123 L-116 -157 Z " />
<glyph glyph-name="asterisk" unicode="&#x2a;" horiz-adv-x="437" d="M371 334 C394 343 398 362 387 391 C379 411 331 471 314 494 L321 506 C349 500 424 483 446 484 C476 487 492 499 490 523 C488 547 471 558 441 555 C419 554 348 528 319 518 L311 527 C325 553 364 619 370 640 C377 670 369 688 346 694 C323 700 308 687 301 657 C295 636 298 559 298 531 L288 525 C267 547 216 605 198 616 C172 633 152 631 140 611 C127 590 134 572 160 556 C179 544 253 523 281 515 L282 502 C255 490 184 460 168 445 C145 426 139 407 155 388 C170 371 190 371 214 391 C230 405 273 469 290 493 L302 490 C305 461 312 384 321 364 C332 336 351 325 371 334 L371 334 Z " />
<glyph glyph-name="plus" unicode="&#x2b;" horiz-adv-x="525" d="M370 516 L309 516 L260 334 L78 334 L64 279 L245 279 L196 94 L257 94 L306 279 L487 279 L501 334 L321 334 L370 516 Z " />
<glyph glyph-name="comma" unicode="&#x2c;" horiz-adv-x="239" d="M-65 -150 C61 -106 136 -42 136 33 C136 78 111 106 76 106 C41 106 14 79 14 45 C14 10 40 -9 69 -8 L75 -12 C58 -55 9 -89 -74 -122 L-65 -150 Z " />
<glyph glyph-name="hyphen" unicode="&#x2d;" horiz-adv-x="328" d="M30 214 L286 214 L305 285 L49 285 L30 214 Z " />
<glyph glyph-name="period" unicode="&#x2e;" horiz-adv-x="239" d="M76 -16 C110 -16 138 12 138 45 C138 79 110 107 76 107 C41 107 13 79 13 45 C13 12 41 -16 76 -16 L76 -16 Z " />
<glyph glyph-name="slash" unicode="&#x2f;" horiz-adv-x="431" d="M-120 -203 L-64 -203 L252 250 L572 704 L516 704 L200 250 L-120 -203 Z " />
<glyph glyph-name="zero" unicode="0" horiz-adv-x="577" d="M148 173 C150 336 234 584 376 584 C443 584 477 530 476 440 C474 277 390 29 248 29 C181 29 147 83 148 173 L148 173 Z M571 395 C573 545 498 628 384 628 C168 628 55 377 53 218 C51 68 126 -15 240 -15 C456 -15 569 236 571 395 L571 395 Z " />
<glyph glyph-name="one" unicode="1" horiz-adv-x="408" d="M-6 0 L323 0 L333 37 C243 39 214 47 220 70 L366 622 L145 606 L136 570 C243 570 255 550 244 510 L126 70 C120 47 91 39 2 37 L-6 0 Z " />
<glyph glyph-name="two" unicode="2" horiz-adv-x="533" d="M3 0 L420 0 L471 175 L438 177 C389 96 366 73 294 73 L110 73 L113 86 L287 211 C434 317 532 392 532 488 C532 564 470 628 344 628 C228 628 132 555 132 473 C132 435 158 404 197 404 C240 404 261 438 261 470 C261 503 241 522 224 532 C242 565 284 586 331 586 C399 586 429 544 429 487 C429 399 378 333 223 220 L22 72 L3 0 Z " />
<glyph glyph-name="three" unicode="3" horiz-adv-x="531" d="M209 293 C337 283 375 238 374 164 C374 126 360 87 334 62 C311 40 279 27 236 27 C190 27 143 46 124 70 C140 80 156 99 156 129 C156 159 136 190 98 190 C58 190 32 158 32 119 C32 42 127 -15 237 -15 C371 -15 471 60 471 166 C471 232 424 292 305 306 L306 313 C467 338 538 415 538 491 C538 567 471 628 351 628 C234 628 142 571 142 493 C142 459 168 430 204 430 C243 430 265 461 265 493 C265 524 244 541 229 548 C253 570 287 586 330 586 C404 586 440 543 440 491 C440 454 427 414 396 385 C363 354 307 337 220 334 L209 293 Z " />
<glyph glyph-name="four" unicode="4" horiz-adv-x="548" d="M522 193 L538 252 L400 252 L498 620 L423 624 L36 249 L21 193 L296 193 L263 70 C257 47 229 39 160 37 L151 0 L428 0 L437 37 C373 39 346 47 352 70 L384 193 L522 193 Z M377 528 L385 526 L312 252 L96 252 L377 528 Z " />
<glyph glyph-name="five" unicode="5" horiz-adv-x="521" d="M217 -15 C377 -15 471 108 471 221 C471 324 400 381 293 381 C246 381 209 370 173 354 L230 532 L517 532 L559 613 L202 613 L108 312 L126 295 C166 317 206 333 255 333 C325 333 374 295 374 212 C374 105 318 27 221 27 C171 27 136 46 119 68 C134 78 153 100 153 131 C153 161 135 190 96 190 C56 190 29 153 29 112 C29 37 108 -15 217 -15 L217 -15 Z " />
<glyph glyph-name="six" unicode="6" horiz-adv-x="542" d="M248 -15 C388 -15 501 111 501 249 C501 347 442 411 344 411 C274 411 223 376 184 332 L176 337 C226 467 345 565 549 596 L547 637 C244 605 58 423 58 189 C58 67 126 -15 248 -15 L248 -15 Z M248 28 C180 28 153 79 153 147 C153 257 226 367 321 367 C377 367 406 325 406 259 C406 150 338 28 248 28 L248 28 Z " />
<glyph glyph-name="seven" unicode="7" horiz-adv-x="506" d="M47 -10 L151 -10 L324 247 L569 580 L562 613 L161 613 L105 427 L142 425 C186 514 199 535 260 535 L487 535 L48 14 L47 -10 Z " />
<glyph glyph-name="eight" unicode="8" horiz-adv-x="529" d="M237 -15 C354 -15 471 56 471 171 C471 237 434 276 369 316 C474 351 534 401 534 481 C534 557 471 628 348 628 C221 628 129 539 129 442 C129 391 154 350 215 309 C98 277 31 216 31 134 C31 46 100 -15 237 -15 L237 -15 Z M371 147 C371 78 320 28 245 28 C167 28 120 76 120 140 C120 207 168 261 250 288 C334 240 371 211 371 147 L371 147 Z M228 469 C228 539 279 585 344 585 C415 585 447 544 447 488 C447 425 404 365 332 338 C259 382 228 414 228 469 L228 469 Z " />
<glyph glyph-name="nine" unicode="9" horiz-adv-x="542" d="M341 628 C201 628 88 502 88 364 C88 266 147 202 245 202 C315 202 368 235 407 279 L415 274 C365 144 244 48 40 17 L42 -24 C345 8 531 190 531 424 C531 546 463 628 341 628 L341 628 Z M341 585 C409 585 436 534 436 466 C436 356 363 246 268 246 C212 246 183 288 183 354 C183 463 251 585 341 585 L341 585 Z " />
<glyph glyph-name="colon" unicode="&#x3a;" horiz-adv-x="239" d="M76 -16 C110 -16 138 12 138 45 C138 79 110 107 76 107 C41 107 13 79 13 45 C13 12 41 -16 76 -16 L76 -16 Z M155 280 C189 280 217 307 217 341 C217 375 189 402 155 402 C120 402 92 375 92 341 C92 307 120 280 155 280 L155 280 Z " />
<glyph glyph-name="semicolon" unicode="&#x3b;" horiz-adv-x="239" d="M155 280 C189 280 217 307 217 341 C217 375 189 402 155 402 C120 402 92 375 92 341 C92 307 120 280 155 280 L155 280 Z M-65 -150 C61 -106 136 -42 136 33 C136 78 111 106 76 106 C41 106 14 79 14 45 C14 10 40 -9 69 -8 L75 -12 C58 -55 9 -89 -74 -122 L-65 -150 Z " />
<glyph glyph-name="less" unicode="&#x3c;" horiz-adv-x="524" d="M409 94 L425 147 L152 303 L507 457 L523 518 L106 331 L94 282 L409 94 Z " />
<glyph glyph-name="equal" unicode="&#x3d;" horiz-adv-x="525" d="M458 185 L473 240 L58 240 L44 185 L458 185 Z M508 372 L523 427 L108 427 L94 372 L508 372 Z " />
<glyph glyph-name="greater" unicode="&#x3e;" horiz-adv-x="524" d="M155 518 L139 465 L412 309 L57 155 L41 94 L458 281 L470 330 L155 518 Z " />
<glyph glyph-name="question" unicode="&#x3f;" horiz-adv-x="428" d="M194 180 L226 307 C385 338 497 416 497 526 C497 614 424 684 299 684 C194 684 116 620 116 543 C116 509 141 481 178 481 C215 481 237 509 237 539 C237 564 219 589 198 601 C221 626 250 644 295 644 C364 644 402 598 402 534 C402 433 326 373 186 335 L151 188 L194 180 Z M146 -16 C180 -16 208 12 208 45 C208 79 180 107 146 107 C111 107 83 79 83 45 C83 12 111 -16 146 -16 L146 -16 Z " />
<glyph glyph-name="at" unicode="&#x40;" horiz-adv-x="876" d="M439 -146 C552 -146 641 -111 720 -54 L701 -23 C627 -74 552 -109 447 -109 C231 -109 105 33 105 235 C105 468 274 647 509 647 C690 647 808 525 808 360 C808 203 712 101 623 101 C588 101 566 119 566 154 C566 166 569 182 576 199 L625 339 L685 479 L604 469 L585 414 L577 414 C565 454 534 477 493 477 C360 477 250 319 250 188 C250 111 294 69 359 69 C403 69 449 98 490 146 L496 145 C497 96 537 61 608 61 C722 61 854 169 854 366 C854 555 707 684 516 684 C256 684 59 494 59 231 C59 -3 217 -146 439 -146 L439 -146 Z M393 123 C355 123 333 144 333 194 C333 274 389 440 495 440 C529 440 554 403 553 337 L506 213 C474 161 433 123 393 123 L393 123 Z " />
<glyph glyph-name="A" unicode="A" horiz-adv-x="664" d="M-47 0 L182 0 L191 35 C110 51 106 65 160 155 L211 240 L442 240 L459 113 C467 56 456 39 366 35 L356 0 L632 0 L642 35 C573 43 564 61 556 117 L476 668 L421 668 L116 174 C57 78 37 51 -37 35 L-47 0 Z M436 280 L235 280 L395 550 L401 550 L436 280 Z " />
<glyph glyph-name="B" unicode="B" horiz-adv-x="636" d="M277 367 L344 615 L394 615 C500 615 536 582 536 516 C536 428 455 367 336 367 L277 367 Z M191 43 L266 325 L314 325 C437 325 483 278 483 207 C483 111 424 43 281 43 L191 43 Z M144 620 C227 617 245 608 237 577 L104 81 C96 50 74 41 -11 38 L-22 0 L272 0 C482 0 591 102 591 198 C591 267 549 320 429 342 L430 348 C567 372 639 431 639 518 C639 596 574 658 397 658 L154 658 L144 620 Z " />
<glyph glyph-name="C" unicode="C" horiz-adv-x="659" d="M320 -16 C469 -16 557 83 620 173 L586 194 C519 104 460 43 356 43 C235 43 169 120 169 250 C169 415 278 632 447 632 C526 632 570 576 597 444 L630 444 L692 671 L658 671 L608 622 C576 647 530 674 460 674 C228 674 63 463 63 255 C63 95 171 -16 320 -16 L320 -16 Z " />
<glyph glyph-name="D" unicode="D" horiz-adv-x="724" d="M104 81 C96 50 74 41 -11 38 L-22 0 L293 0 C430 0 531 48 598 115 C680 197 713 307 713 390 C713 522 634 658 390 658 L154 658 L144 620 C227 617 245 608 237 577 L104 81 Z M192 43 L344 615 L403 615 C554 615 613 529 613 424 C613 338 585 203 502 120 C456 74 394 43 311 43 L192 43 Z " />
<glyph glyph-name="E" unicode="E" horiz-adv-x="648" d="M154 658 L144 620 C227 617 245 608 237 577 L104 81 C96 50 74 41 -11 38 L-22 0 L536 0 L598 207 L561 207 C505 96 465 44 333 44 L192 44 L267 326 L323 326 C397 326 407 308 407 208 L438 208 L505 469 L474 469 C421 365 399 368 325 368 L278 368 L344 615 L474 615 C586 615 592 578 597 466 L631 466 L678 658 L154 658 Z " />
<glyph glyph-name="F" unicode="F" horiz-adv-x="619" d="M291 0 L302 38 C210 40 192 48 201 81 L263 317 L321 317 C394 317 407 303 407 204 L438 204 L505 456 L473 456 C424 362 409 361 333 361 L275 361 L344 615 L466 615 C575 615 595 574 599 461 L631 461 L676 658 L154 658 L144 620 C227 617 245 608 237 577 L104 81 C96 50 74 41 -11 38 L-22 0 L291 0 Z " />
<glyph glyph-name="G" unicode="G" horiz-adv-x="692" d="M692 671 L658 671 L612 627 C580 649 530 674 460 674 C228 674 63 463 63 255 C63 95 173 -16 325 -16 C434 -16 495 13 566 56 L613 234 C622 267 631 274 692 277 L702 315 L433 315 L423 277 C507 274 523 264 516 234 L474 67 C441 42 405 26 349 26 C240 26 169 108 169 248 C169 416 278 632 447 632 C526 632 567 583 600 457 L633 457 L692 671 Z " />
<glyph glyph-name="H" unicode="H" horiz-adv-x="789" d="M390 0 L689 0 L700 38 C617 41 597 50 605 81 L738 577 C746 608 770 617 855 620 L865 658 L566 658 L556 620 C644 617 650 610 641 577 L583 363 L276 363 L334 577 C343 610 353 617 443 620 L453 658 L154 658 L144 620 C227 617 245 608 237 577 L104 81 C96 50 74 41 -11 38 L-22 0 L277 0 L288 38 C200 41 192 48 201 81 L266 319 L573 319 L508 81 C499 48 491 41 401 38 L390 0 Z " />
<glyph glyph-name="I" unicode="I" horiz-adv-x="405" d="M461 620 L471 658 L164 658 L154 620 C237 617 255 608 247 577 L114 81 C106 50 84 41 -1 38 L-12 0 L295 0 L306 38 C223 41 203 50 211 81 L344 577 C352 608 376 617 461 620 L461 620 Z " />
<glyph glyph-name="J" unicode="J" horiz-adv-x="529" d="M147 -16 C286 -16 358 63 393 194 L495 577 C503 608 527 617 612 620 L623 658 L315 658 L304 620 C390 617 407 610 398 577 L293 182 C265 76 227 27 143 27 C116 27 93 37 80 54 C112 63 128 90 128 119 C128 153 104 181 66 181 C23 181 -13 139 -14 97 C-14 22 51 -16 147 -16 L147 -16 Z " />
<glyph glyph-name="K" unicode="K" horiz-adv-x="724" d="M796 658 L547 658 L537 623 C611 615 609 591 544 539 L262 309 L334 577 C343 610 353 617 443 620 L453 658 L154 658 L144 620 C227 617 245 608 237 577 L104 81 C96 50 74 41 -11 38 L-22 0 L264 0 L274 38 C198 41 192 48 201 81 L246 249 L342 325 L441 98 C459 58 452 43 371 35 L361 0 L655 0 L665 35 C581 49 568 60 545 110 L419 387 L580 515 C664 582 711 608 786 623 L796 658 Z " />
<glyph glyph-name="L" unicode="L" horiz-adv-x="600" d="M334 577 C342 608 366 617 451 620 L461 658 L154 658 L144 620 C227 617 245 608 237 577 L104 81 C96 50 75 41 -10 38 L-20 0 L503 0 L568 217 L530 217 C453 78 419 45 287 45 L193 45 L334 577 Z " />
<glyph glyph-name="M" unicode="M" horiz-adv-x="926" d="M143 620 C226 617 241 599 231 562 L125 164 C100 71 82 50 -12 35 L-22 0 L235 0 L245 35 C160 52 151 70 176 164 L288 589 L299 589 L357 0 L402 0 L768 589 L781 589 L646 81 C637 48 624 41 552 38 L542 0 L826 0 L837 38 C754 41 734 50 742 81 L874 577 C882 608 906 617 991 620 L1002 658 L757 658 L441 143 L434 143 L387 658 L154 658 L143 620 Z " />
<glyph glyph-name="N" unicode="N" horiz-adv-x="769" d="M338 658 L154 658 L143 620 C223 618 239 589 229 552 L125 164 C101 73 81 50 -13 35 L-22 0 L246 0 L255 35 C162 49 152 74 176 164 L279 548 L282 548 L536 -16 L579 -16 L716 495 C740 586 752 607 845 623 L854 658 L592 658 L583 623 C675 609 689 586 665 495 L573 147 L569 147 L338 658 Z " />
<glyph glyph-name="O" unicode="O" horiz-adv-x="724" d="M318 -16 C547 -16 713 195 713 403 C713 561 605 674 458 674 C229 674 63 463 63 255 C63 97 171 -16 318 -16 L318 -16 Z M325 26 C218 26 163 107 163 222 C163 408 282 632 451 632 C558 632 613 551 613 436 C613 250 494 26 325 26 L325 26 Z " />
<glyph glyph-name="P" unicode="P" horiz-adv-x="599" d="M266 323 L344 615 L393 615 C492 615 526 567 526 500 C526 403 468 323 331 323 L266 323 Z M143 620 C226 617 244 608 236 577 L104 81 C96 50 74 41 -11 38 L-22 0 L291 0 L302 38 C214 41 192 48 201 81 L255 281 L336 281 C534 281 632 390 632 492 C632 577 581 658 393 658 L154 658 L143 620 Z " />
<glyph glyph-name="Q" unicode="Q" horiz-adv-x="724" d="M63 255 C63 125 136 26 243 -6 C192 -15 138 -48 92 -108 L117 -133 C163 -82 195 -53 241 -53 C316 -53 333 -199 467 -199 C552 -199 617 -156 617 -86 C617 -51 595 -26 563 -26 C533 -26 508 -50 508 -81 C508 -114 532 -117 532 -140 C532 -154 522 -167 502 -167 C440 -167 415 -55 331 -15 C551 -7 713 199 713 403 C713 561 605 674 458 674 C226 674 63 463 63 255 L63 255 Z M613 436 C613 250 494 26 325 26 C218 26 163 107 163 222 C163 408 282 632 451 632 C558 632 613 551 613 436 L613 436 Z " />
<glyph glyph-name="R" unicode="R" horiz-adv-x="665" d="M274 352 L344 615 L398 615 C506 615 539 577 539 510 C539 418 466 352 340 352 L274 352 Z M144 620 C227 617 245 608 237 577 L104 81 C96 50 74 41 -11 38 L-22 0 L284 0 L295 38 C205 41 192 48 201 81 L262 310 L333 310 C445 310 464 273 456 188 L449 113 C441 25 448 -7 589 -7 C596 -7 616 -6 623 -6 L633 32 C565 37 549 47 551 103 L554 178 C558 273 535 309 437 328 L439 333 C563 349 644 419 644 507 C644 592 588 658 400 658 L154 658 L144 620 Z " />
<glyph glyph-name="S" unicode="S" horiz-adv-x="533" d="M-7 -20 L22 -20 L75 28 C114 5 186 -16 240 -16 C413 -16 484 95 484 207 C484 299 433 339 356 377 C289 411 227 436 227 507 C227 577 280 632 352 632 C427 632 459 595 497 471 L530 471 L583 679 L549 679 L512 638 C481 655 435 674 378 674 C230 674 135 578 135 466 C135 384 174 344 267 302 C364 257 396 215 396 157 C396 86 351 26 260 26 C187 26 135 52 82 196 L47 196 L-7 -20 Z " />
<glyph glyph-name="T" unicode="T" horiz-adv-x="648" d="M235 81 C227 50 203 41 113 38 L103 0 L424 0 L434 38 C346 41 324 50 332 81 L476 615 L527 615 C626 615 628 559 631 447 L667 447 L717 658 L161 658 L96 447 L134 447 C206 566 227 615 323 615 L379 615 L235 81 Z " />
<glyph glyph-name="U" unicode="U" horiz-adv-x="744" d="M313 577 C322 610 332 617 422 620 L433 658 L134 658 L123 620 C206 617 224 608 216 577 L125 236 C119 213 116 191 116 168 C116 67 184 -16 328 -16 C517 -16 586 75 616 189 L701 503 C725 594 735 607 828 623 L837 658 L579 658 L570 623 C662 609 674 594 650 503 L574 215 C540 84 477 33 359 33 C263 33 214 88 214 170 C214 193 218 218 224 244 L313 577 Z " />
<glyph glyph-name="V" unicode="V" horiz-adv-x="665" d="M781 623 L791 658 L550 658 L540 623 C631 609 636 589 576 495 L328 105 L322 105 L279 559 C274 602 291 616 380 623 L389 658 L103 658 L94 623 C165 610 179 594 184 552 L241 -16 L295 -16 L629 496 C686 583 710 609 781 623 L781 623 Z " />
<glyph glyph-name="W" unicode="W" horiz-adv-x="975" d="M277 559 C273 601 278 616 368 623 L377 658 L103 658 L94 623 C165 610 181 594 185 552 L239 -16 L289 -16 L549 410 L583 -16 L636 -16 L926 490 C977 578 1001 609 1072 623 L1081 658 L846 658 L837 623 C928 609 928 580 874 485 L667 122 L661 122 L631 559 C628 601 638 616 728 623 L738 658 L457 658 L447 623 C520 614 535 594 538 552 L544 476 L324 117 L319 117 L277 559 Z " />
<glyph glyph-name="X" unicode="X" horiz-adv-x="668" d="M317 0 L606 0 L615 35 C539 48 530 52 512 96 L409 343 L577 505 C672 596 697 613 763 623 L772 658 L529 658 L519 623 C598 617 600 591 540 529 L394 381 L320 560 C306 595 325 617 407 623 L417 658 L128 658 L118 623 C189 613 202 598 220 557 L319 328 L144 154 C42 53 22 45 -43 35 L-53 0 L190 0 L200 35 C122 41 119 64 185 132 L335 291 L410 99 C424 64 412 42 326 35 L317 0 Z " />
<glyph glyph-name="Y" unicode="Y" horiz-adv-x="642" d="M600 517 C671 595 697 612 759 623 L769 658 L532 658 L522 623 C603 612 603 591 534 511 L375 324 L297 559 C284 597 299 617 390 623 L400 658 L113 658 L104 623 C167 611 187 600 201 560 L292 292 L236 81 C228 50 206 41 121 38 L111 0 L418 0 L428 38 C345 41 325 50 333 81 L387 279 L600 517 Z " />
<glyph glyph-name="Z" unicode="Z" horiz-adv-x="620" d="M553 615 L-10 31 L-10 0 L496 0 L575 221 L539 223 C441 78 408 43 309 43 L119 43 L681 627 L681 658 L198 658 L123 448 L159 446 C255 583 292 615 383 615 L553 615 Z " />
<glyph glyph-name="bracketleft" unicode="&#x5b;" horiz-adv-x="343" d="M-13 -156 L263 -156 L274 -114 L84 -114 L297 679 L487 679 L497 721 L222 721 L-13 -156 Z " />
<glyph glyph-name="backslash" unicode="&#x5c;" horiz-adv-x="431" d="M292 -203 L345 -203 L268 250 L193 704 L140 704 L218 250 L292 -203 Z " />
<glyph glyph-name="bracketright" unicode="&#x5d;" horiz-adv-x="343" d="M-127 -156 L148 -156 L383 721 L107 721 L97 679 L286 679 L74 -114 L-116 -114 L-127 -156 Z " />
<glyph glyph-name="asciicircum" unicode="&#x5e;" horiz-adv-x="333" d="M101 517 L144 517 L279 632 L356 517 L394 517 L318 717 L283 717 L101 517 Z " />
<glyph glyph-name="underscore" unicode="&#x5f;" horiz-adv-x="440" d="M-61 0 L383 0 L395 47 L-49 47 L-61 0 Z " />
<glyph glyph-name="grave" unicode="&#x60;" horiz-adv-x="238" d="M268 534 L304 534 L238 666 C214 715 202 731 179 731 C156 731 137 714 137 689 C137 673 152 653 175 630 L268 534 Z " />
<glyph glyph-name="a" unicode="a" horiz-adv-x="529" d="M455 304 L513 466 L423 455 L407 405 C388 444 360 467 306 467 C165 467 36 290 36 147 C36 48 87 -8 169 -8 C228 -8 273 18 323 90 L327 89 C325 76 323 62 323 50 C323 5 351 -7 405 -7 C437 -7 470 -1 480 3 L480 35 C417 35 395 43 395 74 C395 85 398 99 403 117 L455 304 Z M307 431 C347 431 379 401 385 342 L328 153 C294 85 250 46 207 46 C154 46 129 82 129 156 C129 246 201 431 307 431 L307 431 Z " />
<glyph glyph-name="b" unicode="b" horiz-adv-x="513" d="M206 30 C170 30 143 44 129 72 L198 351 C239 391 280 411 311 411 C367 411 386 370 386 308 C386 177 315 30 206 30 L206 30 Z M479 322 C479 418 428 467 361 467 C306 467 266 440 215 398 L211 402 L297 697 L97 690 L97 655 C162 651 187 638 179 607 L90 255 L28 52 C75 8 127 -8 193 -8 C352 -8 479 182 479 322 L479 322 Z " />
<glyph glyph-name="c" unicode="c" horiz-adv-x="432" d="M289 467 C153 467 36 321 36 176 C36 60 112 -8 209 -8 C279 -8 337 23 389 95 L361 120 C320 65 276 40 227 40 C163 40 127 94 127 170 C127 285 193 432 294 432 C317 432 336 422 346 407 C323 395 312 370 312 353 C312 320 333 302 363 302 C398 302 421 328 421 370 C421 427 363 467 289 467 L289 467 Z " />
<glyph glyph-name="d" unicode="d" horiz-adv-x="523" d="M562 697 L367 693 L367 658 C432 654 456 638 449 607 L403 413 C379 442 351 467 296 467 C155 467 36 286 36 158 C36 59 84 -8 172 -8 C231 -8 275 27 317 85 L322 84 C321 74 321 70 321 66 C321 14 345 -7 405 -7 C444 -7 473 -1 483 3 L483 35 C418 35 396 47 396 78 C396 87 398 101 405 126 L562 697 Z M301 431 C346 431 373 400 388 352 L324 144 C291 82 250 46 207 46 C154 46 129 88 129 156 C129 246 191 431 301 431 L301 431 Z " />
<glyph glyph-name="e" unicode="e" horiz-adv-x="440" d="M431 366 C431 425 384 467 300 467 C149 467 34 308 34 160 C34 36 122 -8 200 -8 C270 -8 332 24 384 93 L356 119 C316 66 267 40 220 40 C153 40 125 88 125 166 C125 179 126 193 127 206 C339 209 431 289 431 366 L431 366 Z M292 430 C331 430 347 410 347 376 C347 310 311 249 132 239 C154 344 221 430 292 430 L292 430 Z " />
<glyph glyph-name="f" unicode="f" horiz-adv-x="318" d="M354 417 L365 458 L247 458 L264 533 C285 629 325 668 370 668 C384 668 398 663 406 654 C396 643 388 623 388 606 C388 576 407 556 443 556 C473 556 495 583 495 619 C495 664 454 703 382 703 C294 703 208 656 169 475 L165 458 L62 458 L51 417 L159 417 L73 22 C38 -137 12 -165 -28 -165 C-37 -165 -47 -162 -53 -158 C-43 -147 -33 -128 -33 -111 C-33 -83 -51 -62 -82 -62 C-114 -62 -139 -89 -139 -123 C-139 -166 -102 -200 -34 -200 C67 -200 123 -134 170 86 L241 417 L354 417 Z " />
<glyph glyph-name="g" unicode="g" horiz-adv-x="513" d="M183 8 C236 8 267 26 303 66 L308 64 L298 29 C260 -115 219 -165 141 -165 C96 -165 68 -146 61 -130 C80 -118 89 -102 89 -82 C89 -50 71 -30 40 -30 C6 -30 -21 -60 -21 -102 C-21 -150 36 -200 135 -200 C272 -200 330 -139 367 -8 L453 304 L511 466 L421 455 L399 391 C382 434 350 467 295 467 C153 467 38 301 38 169 C38 70 90 8 183 8 L183 8 Z M301 431 C345 431 371 389 381 328 L322 129 C288 78 254 55 209 55 C154 55 131 95 131 164 C131 258 188 431 301 431 L301 431 Z " />
<glyph glyph-name="h" unicode="h" horiz-adv-x="533" d="M473 309 C481 334 484 355 484 374 C484 431 452 464 392 464 C337 464 274 434 214 384 L210 388 L301 697 L101 690 L101 655 C166 651 190 638 183 607 L70 162 L15 0 L115 0 L197 337 C249 379 290 402 332 402 C377 402 396 381 396 347 C396 332 393 316 386 296 L323 102 C315 80 313 63 313 52 C313 10 342 -7 394 -7 C433 -7 474 -1 484 3 L484 35 C422 35 400 43 400 71 C400 83 404 100 411 122 L473 309 Z " />
<glyph glyph-name="i" unicode="i" horiz-adv-x="300" d="M202 629 C202 596 222 580 248 580 C287 580 317 625 317 666 C317 699 298 714 272 714 C233 714 202 670 202 629 L202 629 Z M238 37 C169 34 145 43 145 72 C145 85 150 101 156 122 L262 461 L74 454 L74 419 C144 415 157 406 147 371 L63 105 C58 89 56 74 56 62 C56 17 87 -7 139 -7 C178 -7 219 -1 238 5 L238 37 Z " />
<glyph glyph-name="j" unicode="j" horiz-adv-x="292" d="M202 629 C202 596 222 580 248 580 C287 580 317 625 317 666 C317 699 298 714 272 714 C233 714 202 670 202 629 L202 629 Z M-36 -200 C63 -200 113 -126 166 82 L262 461 L74 454 L74 419 C144 415 159 403 152 373 L70 41 C22 -153 -6 -164 -41 -164 C-46 -164 -56 -161 -60 -157 C-52 -147 -41 -129 -41 -112 C-41 -84 -60 -63 -92 -63 C-122 -63 -148 -90 -148 -123 C-148 -167 -104 -200 -36 -200 L-36 -200 Z " />
<glyph glyph-name="k" unicode="k" horiz-adv-x="509" d="M301 697 L101 690 L101 655 C166 651 191 638 183 607 L70 162 L15 0 L115 0 L174 240 L207 240 C265 240 297 214 297 160 C297 133 291 92 291 51 C291 10 305 -7 372 -7 C411 -7 452 -1 462 3 L462 35 C390 35 379 43 379 67 C379 100 386 133 386 160 C386 220 361 251 288 263 L288 267 C342 323 360 402 398 411 C394 404 391 393 391 385 C391 353 408 338 436 338 C471 338 495 365 495 405 C495 437 473 467 433 467 C326 467 298 271 227 271 L180 271 L301 697 Z " />
<glyph glyph-name="l" unicode="l" horiz-adv-x="290" d="M310 697 L118 690 L118 655 C183 651 207 638 199 607 L160 458 L54 105 C50 89 47 74 47 62 C47 16 79 -7 131 -7 C170 -7 214 5 233 11 L233 43 C159 39 135 44 135 72 C135 82 138 96 143 114 L310 697 Z " />
<glyph glyph-name="m" unicode="m" horiz-adv-x="794" d="M237 461 L68 455 L68 420 C133 416 140 406 131 371 L73 162 L18 0 L118 0 L200 337 C252 379 291 402 331 402 C374 402 392 383 392 350 C392 335 388 317 381 296 L288 0 L381 0 L467 309 C470 321 473 333 474 344 C523 382 563 402 603 402 C642 402 659 383 659 352 C659 340 654 317 647 296 L584 101 C576 80 574 62 574 51 C574 9 603 -8 655 -8 C694 -8 735 -2 745 2 L745 34 C683 34 661 43 661 70 C661 83 665 99 672 121 L734 309 C741 333 745 355 745 374 C745 431 713 464 653 464 C603 464 542 437 476 381 C474 436 440 464 386 464 C331 464 277 434 217 384 L213 388 L237 461 Z " />
<glyph glyph-name="n" unicode="n" horiz-adv-x="536" d="M73 162 L18 0 L118 0 L200 337 C252 379 293 402 335 402 C380 402 399 381 399 347 C399 332 396 316 389 296 L326 102 C318 80 316 63 316 52 C316 10 345 -7 397 -7 C436 -7 477 -1 487 3 L487 35 C425 35 403 43 403 71 C403 83 407 100 414 122 L476 309 C484 334 487 355 487 374 C487 431 455 464 395 464 C340 464 277 434 217 384 L213 388 L237 461 L68 455 L68 420 C133 416 140 406 131 371 L73 162 Z " />
<glyph glyph-name="o" unicode="o" horiz-adv-x="491" d="M292 467 C133 467 35 319 35 178 C35 65 102 -8 199 -8 C358 -8 456 141 456 281 C456 394 389 467 292 467 L292 467 Z M208 28 C149 28 122 69 122 146 C122 241 170 431 283 431 C342 431 369 393 369 313 C369 218 321 28 208 28 L208 28 Z " />
<glyph glyph-name="p" unicode="p" horiz-adv-x="525" d="M224 33 C188 33 156 50 144 88 L210 351 C251 391 292 411 323 411 C379 411 397 367 397 305 C397 170 326 33 224 33 L224 33 Z M124 18 C148 4 180 -5 212 -5 C365 -5 491 176 491 319 C491 416 440 467 373 467 C318 467 278 440 227 398 L223 402 L240 461 L68 455 L68 420 C133 416 140 406 131 371 L28 -17 L-6 -126 C-11 -145 -33 -154 -93 -157 L-93 -192 L175 -192 L175 -157 C102 -155 82 -149 87 -128 L124 18 Z " />
<glyph glyph-name="q" unicode="q" horiz-adv-x="518" d="M300 431 C345 431 378 400 384 342 L324 142 C292 83 251 45 207 45 C154 45 129 88 129 156 C129 248 188 431 300 431 L300 431 Z M250 -129 C244 -146 214 -155 159 -157 L159 -192 L417 -192 L417 -157 C358 -155 338 -151 343 -131 L442 259 L512 466 L423 455 L407 405 C388 444 350 467 295 467 C153 467 36 287 36 158 C36 59 82 -8 170 -8 C227 -8 275 25 315 82 L320 81 L250 -129 Z " />
<glyph glyph-name="r" unicode="r" horiz-adv-x="410" d="M363 464 C311 464 264 427 218 374 L214 378 L237 461 L68 455 L68 420 C133 416 140 406 131 371 L73 162 L18 0 L118 0 L194 309 C245 378 282 398 324 409 C319 400 316 387 316 379 C316 347 336 331 367 331 C402 331 426 358 426 402 C426 435 403 464 363 464 L363 464 Z " />
<glyph glyph-name="s" unicode="s" horiz-adv-x="404" d="M171 -8 C289 -8 341 69 341 141 C341 194 314 226 244 266 C177 304 163 322 163 359 C163 402 193 432 244 432 C272 432 299 421 308 407 C287 391 283 371 283 358 C283 331 306 313 333 313 C366 313 384 339 384 371 C384 421 328 467 249 467 C144 467 86 400 86 323 C86 274 116 239 179 204 C249 165 267 144 267 104 C267 57 233 27 175 27 C144 27 102 40 95 56 C113 70 121 85 121 104 C121 134 100 153 71 153 C39 153 17 126 17 92 C17 34 87 -8 171 -8 L171 -8 Z " />
<glyph glyph-name="t" unicode="t" horiz-adv-x="339" d="M355 419 L367 460 L251 460 L299 611 L206 598 L167 460 L79 460 L66 419 L154 419 L66 121 C60 103 57 82 57 70 C57 21 87 -8 152 -8 C201 -8 260 15 286 28 L289 60 C251 49 222 43 198 43 C162 43 146 54 146 82 C146 94 150 113 155 132 L239 419 L355 419 Z " />
<glyph glyph-name="u" unicode="u" horiz-adv-x="554" d="M65 147 C58 126 54 104 54 86 C54 33 84 -8 156 -8 C211 -8 274 21 332 84 L336 80 C335 73 334 65 334 58 C334 16 359 -7 414 -7 C453 -7 484 -1 494 3 L494 35 C433 35 411 43 411 71 C411 86 415 100 421 122 L524 459 L427 459 L393 301 L344 128 C300 86 256 54 210 54 C163 54 141 74 141 109 C141 123 145 140 152 160 L247 461 L75 455 L75 420 C140 416 148 406 138 371 L65 147 Z " />
<glyph glyph-name="v" unicode="v" horiz-adv-x="461" d="M210 -11 L367 223 C428 314 455 358 455 400 C455 438 436 467 398 467 C366 467 341 441 341 407 C341 377 350 359 377 342 C366 302 338 249 282 164 L231 89 L215 89 L213 177 L186 462 L29 448 L29 413 C96 411 103 404 107 371 L132 177 L135 -6 L210 -11 Z " />
<glyph glyph-name="w" unicode="w" horiz-adv-x="713" d="M461 -11 L619 223 C680 312 707 358 707 400 C707 438 688 467 650 467 C618 467 593 441 593 407 C593 377 603 359 629 342 C618 302 591 249 534 164 L484 89 L468 89 L464 176 L443 462 L354 455 L365 353 C350 311 325 257 282 182 L228 89 L212 89 L210 176 L187 462 L29 448 L29 413 C96 411 103 404 107 371 L129 177 L135 -6 L209 -11 L372 277 L383 177 L388 -6 L461 -11 Z " />
<glyph glyph-name="x" unicode="x" horiz-adv-x="496" d="M216 462 L65 448 L65 413 C134 412 144 404 160 362 L207 218 L168 147 C150 115 124 78 94 54 C90 81 71 100 45 100 C12 100 -11 74 -11 43 C-11 7 15 -17 55 -17 C93 -17 140 20 184 103 L230 188 L240 187 L295 -2 L445 2 L445 37 C377 37 369 50 352 91 L299 232 L327 292 C355 351 383 384 404 397 C407 362 427 343 454 343 C488 343 510 371 510 403 C510 438 486 468 443 468 C402 468 357 429 320 356 L276 266 L265 267 L216 462 Z " />
<glyph glyph-name="y" unicode="y" horiz-adv-x="462" d="M188 462 L30 448 L30 413 C98 411 107 400 114 367 L147 177 L182 -22 C144 -79 109 -120 55 -149 C56 -143 57 -136 57 -130 C57 -98 37 -72 1 -72 C-29 -72 -54 -98 -54 -132 C-54 -171 -25 -200 20 -200 C103 -200 176 -112 320 112 C420 267 456 353 456 395 C456 437 436 467 398 467 C366 467 343 441 343 407 C343 377 355 358 382 341 C375 300 359 258 310 170 L257 76 L241 76 L212 277 L188 462 Z " />
<glyph glyph-name="z" unicode="z" horiz-adv-x="460" d="M7 -15 C34 -4 61 9 100 9 C152 9 209 -11 268 -11 C356 -11 387 28 403 154 L368 159 C350 89 327 65 273 65 C246 65 200 72 166 72 C142 72 122 68 104 64 L99 74 L469 429 L454 459 L112 459 L71 303 L106 300 C141 375 164 396 242 397 L367 399 L371 394 L-21 19 L7 -15 Z " />
<glyph glyph-name="braceleft" unicode="&#x7b;" horiz-adv-x="388" d="M268 -159 L278 -121 C198 -111 167 -73 167 -28 C167 39 215 126 215 191 C215 253 180 290 93 308 L96 319 C169 326 210 341 247 379 C319 451 291 577 361 647 C386 672 414 680 477 682 L487 721 C392 721 328 705 279 657 C180 557 230 439 171 380 C144 354 111 344 26 343 L14 295 C119 282 142 258 142 211 C142 168 80 68 80 -10 C80 -91 145 -150 268 -159 L268 -159 Z " />
<glyph glyph-name="bar" unicode="&#x7c;" horiz-adv-x="289" d="M119 704 L119 -203 L170 -203 L170 704 L119 704 Z " />
<glyph glyph-name="braceright" unicode="&#x7d;" horiz-adv-x="388" d="M-73 -159 C22 -160 86 -144 135 -95 C234 4 184 122 243 181 C270 208 303 217 388 219 L400 267 C295 280 272 304 272 350 C272 393 334 493 334 572 C334 653 269 712 146 721 L136 683 C216 672 247 635 247 590 C247 523 199 436 199 371 C199 309 234 272 321 254 L318 242 C245 236 204 220 167 183 C95 111 123 -15 53 -85 C28 -111 0 -118 -63 -121 L-73 -159 Z " />
<glyph glyph-name="asciitilde" unicode="&#x7e;" horiz-adv-x="371" d="M63 254 L99 254 C117 300 131 309 148 309 C179 309 220 259 262 259 C307 259 344 293 364 377 L328 377 C310 331 296 322 279 322 C248 322 207 372 165 372 C120 372 83 338 63 254 L63 254 Z " />
<glyph glyph-name="uni00A0" unicode="&#xa0;" horiz-adv-x="184" d="" />
<glyph glyph-name="exclamdown" unicode="&#xa1;" horiz-adv-x="246" d="M229 562 C264 562 291 589 291 623 C291 657 263 684 229 684 C195 684 167 657 167 623 C167 589 195 562 229 562 L229 562 Z M176 487 C105 268 19 100 19 41 C19 8 34 -16 65 -16 C98 -16 120 6 134 54 C156 136 168 271 212 481 L176 487 Z " />
<glyph glyph-name="cent" unicode="&#xa2;" horiz-adv-x="477" d="M198 -99 L221 -11 L224 -11 C293 -11 361 21 412 92 L385 117 C344 62 290 37 241 37 L233 37 L338 427 C363 423 389 408 401 382 C378 371 362 347 362 324 C362 295 380 277 410 277 C443 277 468 307 468 346 C468 401 418 450 348 461 L370 541 L324 547 L301 463 C164 453 50 322 50 173 C50 77 102 14 176 -5 L152 -93 L198 -99 Z M140 167 C140 280 199 402 292 424 L191 50 C158 70 140 113 140 167 L140 167 Z " />
<glyph glyph-name="sterling" unicode="&#xa3;" horiz-adv-x="568" d="M453 293 L464 336 L286 336 C284 367 281 399 281 424 C281 530 331 586 405 586 C445 586 470 570 480 550 C458 540 440 519 440 488 C440 455 467 434 501 434 C539 434 569 468 569 511 C569 570 513 628 411 628 C292 628 182 541 182 411 C182 388 185 362 188 336 L96 336 L85 293 L194 293 C196 276 197 260 197 246 C197 205 188 154 152 103 C139 104 125 105 111 105 C46 105 7 70 7 31 C7 6 27 -15 63 -15 C100 -15 131 15 152 58 C206 50 245 -15 350 -15 C436 -15 492 34 523 159 L483 165 C456 86 435 67 385 67 C321 67 256 87 190 98 C258 152 288 214 288 285 L288 293 L453 293 Z " />
<glyph glyph-name="yen" unicode="&#xa5;" horiz-adv-x="648" d="M542 152 L551 191 L364 191 L382 257 L397 275 L574 275 L585 314 L431 314 L566 472 C631 549 665 569 720 580 L728 613 L506 613 L497 580 C575 564 565 540 504 466 L373 305 L305 514 C293 552 302 572 389 576 L398 613 L131 613 L122 577 C180 565 195 554 208 515 L273 314 L117 314 L106 275 L286 275 L291 260 L272 191 L83 191 L73 152 L262 152 L243 80 C235 50 210 40 126 37 L116 0 L419 0 L429 37 C346 40 327 49 335 80 L354 152 L542 152 Z " />
<glyph glyph-name="brokenbar" unicode="&#xa6;" horiz-adv-x="289" d="M170 316 L170 704 L119 704 L119 316 L170 316 Z M119 184 L119 -203 L170 -203 L170 184 L119 184 Z " />
<glyph glyph-name="section" unicode="&#xa7;" horiz-adv-x="525" d="M190 -141 C324 -141 385 -55 385 22 C385 62 366 92 332 118 C428 138 467 207 467 266 C467 333 419 369 346 407 C286 437 245 461 245 506 C245 557 290 591 353 591 C394 591 433 572 446 555 C424 544 413 520 413 503 C413 476 434 454 465 454 C500 454 523 481 523 520 C523 575 450 628 360 628 C232 628 168 552 168 474 C168 431 189 402 230 374 C126 356 86 292 86 229 C86 161 140 125 204 94 C267 63 310 37 310 -14 C310 -62 269 -105 196 -105 C148 -105 95 -85 83 -64 C104 -52 120 -32 120 -8 C120 20 100 42 69 42 C30 42 4 12 4 -28 C4 -93 91 -141 190 -141 L190 -141 Z M391 231 C391 188 359 150 296 140 C288 145 273 152 264 157 C203 187 164 215 164 263 C164 310 205 345 273 350 L282 346 C350 314 391 284 391 231 L391 231 Z " />
<glyph glyph-name="dieresis" unicode="&#xa8;" horiz-adv-x="322" d="M341 542 C380 542 410 580 410 622 C410 649 391 670 365 670 C325 670 295 633 295 591 C295 564 315 542 341 542 L341 542 Z M156 542 C195 542 225 580 225 622 C225 649 206 670 180 670 C140 670 110 633 110 591 C110 564 130 542 156 542 L156 542 Z " />
<glyph glyph-name="copyright" unicode="&#xa9;" horiz-adv-x="791" d="M392 143 C477 143 525 192 562 247 L538 262 C499 211 462 182 411 182 C348 182 313 236 313 299 C313 397 370 494 452 494 C501 494 523 464 539 394 L565 394 L600 524 L568 524 L545 491 C527 510 496 526 450 526 C332 526 242 417 242 296 C242 207 303 143 392 143 L392 143 Z M380 -32 C614 -32 773 160 773 382 C773 563 648 690 458 690 C224 690 65 498 65 276 C65 95 190 -32 380 -32 L380 -32 Z M387 0 C221 0 104 111 104 274 C104 473 243 658 451 658 C617 658 734 547 734 384 C734 185 595 0 387 0 L387 0 Z " />
<glyph glyph-name="ordfeminine" unicode="&#xaa;" horiz-adv-x="434" d="M202 312 C244 312 277 331 312 382 L320 379 C308 325 323 312 371 312 C394 312 429 317 436 320 L436 348 C374 348 367 354 380 402 L418 537 L458 653 L384 645 L371 601 C357 631 337 652 299 652 C198 652 103 530 103 427 C103 353 143 312 202 312 L202 312 Z M230 357 C193 357 178 380 178 430 C178 498 228 620 300 620 C331 620 348 596 355 556 L315 425 C290 378 258 357 230 357 L230 357 Z " />
<glyph glyph-name="guillemotleft" unicode="&#xab;" horiz-adv-x="505" d="M372 29 L404 47 L340 224 L498 393 L478 418 L279 266 C256 249 247 237 247 226 C247 217 250 209 260 194 L372 29 Z M169 30 L201 48 L136 227 L293 393 L273 418 L74 270 C51 253 42 241 42 230 C42 221 45 213 55 198 L169 30 Z " />
<glyph glyph-name="registered" unicode="&#xae;" horiz-adv-x="511" d="M288 252 C422 252 532 362 532 497 C532 609 451 690 334 690 C199 690 91 583 91 448 C91 334 172 252 288 252 L288 252 Z M291 277 C188 277 121 346 121 446 C121 562 201 665 331 665 C436 665 502 598 502 499 C502 381 422 277 291 277 L291 277 Z M293 486 L314 570 L333 570 C364 570 376 560 376 540 C376 509 351 486 312 486 L293 486 Z M287 465 L302 465 C343 465 350 452 346 426 L343 404 C339 372 343 360 386 360 L413 360 L418 380 C393 381 386 387 387 401 L389 433 C391 456 385 468 346 473 L347 479 C396 485 420 509 420 540 C420 565 405 591 337 591 L241 591 L237 572 C265 570 271 565 269 555 L230 400 C227 388 219 383 189 382 L184 363 L296 363 L300 382 C272 384 268 387 271 400 L287 465 Z " />
<glyph glyph-name="macron" unicode="&#xaf;" horiz-adv-x="321" d="M127 556 L378 556 L395 619 L144 619 L127 556 Z " />
<glyph glyph-name="degree" unicode="&#xb0;" horiz-adv-x="402" d="M410 540 C410 620 355 674 278 674 C168 674 90 580 90 478 C90 397 147 343 223 343 C334 343 410 437 410 540 L410 540 Z M162 461 C162 533 193 636 270 636 C311 636 339 611 339 556 C339 484 308 381 231 381 C189 381 162 411 162 461 L162 461 Z " />
<glyph glyph-name="plusminus" unicode="&#xb1;" horiz-adv-x="485" d="M366 591 L311 591 L267 430 L107 430 L93 379 L254 379 L210 215 L265 215 L309 379 L469 379 L483 430 L322 430 L366 591 Z M394 96 L407 145 L31 145 L19 96 L394 96 Z " />
<glyph glyph-name="two.sup" unicode="&#xb2;" horiz-adv-x="405" d="M51 248 L363 248 L404 385 L380 388 C343 328 326 310 272 310 L150 310 L150 317 L259 395 C369 474 451 531 451 609 C451 667 408 715 311 715 C221 715 145 660 145 598 C145 570 165 548 193 548 C222 548 241 571 241 596 C241 621 225 636 214 643 C230 660 257 676 293 676 C342 676 364 645 364 603 C363 542 328 490 172 376 L65 299 L51 248 Z " />
<glyph glyph-name="three.sup" unicode="&#xb3;" horiz-adv-x="405" d="M218 233 C318 233 400 289 400 369 C400 417 368 465 272 475 L273 479 C401 500 448 557 448 613 C448 670 398 715 309 715 C225 715 152 673 152 614 C152 588 170 568 196 568 C226 568 241 591 241 614 C241 636 227 650 217 656 C234 670 265 676 287 676 C345 676 367 644 367 605 C367 579 358 555 337 536 C313 515 278 501 216 499 L206 461 C294 450 318 420 318 372 C318 342 307 316 286 297 C269 282 246 272 210 272 C184 272 153 279 135 295 C145 301 161 315 161 338 C161 362 146 384 118 384 C88 384 68 360 68 330 C68 273 139 233 218 233 L218 233 Z " />
<glyph glyph-name="acute" unicode="&#xb4;" horiz-adv-x="238" d="M115 534 L156 534 L251 610 C304 652 323 671 323 695 C323 716 309 731 287 731 C262 731 244 714 204 658 L115 534 Z " />
<glyph glyph-name="paragraph" unicode="&#xb6;" horiz-adv-x="667" d="M265 -104 L315 -104 L496 571 L583 571 L401 -104 L451 -104 L615 508 C628 558 641 574 731 581 L739 613 L451 613 C235 613 116 484 116 350 C116 245 198 176 337 165 L265 -104 Z " />
<glyph glyph-name="periodcentered" unicode="&#xb7;" horiz-adv-x="239" d="M148 257 C182 257 210 284 210 318 C210 352 182 379 148 379 C113 379 85 352 85 318 C85 284 113 257 148 257 L148 257 Z " />
<glyph glyph-name="cedilla" unicode="&#xb8;" horiz-adv-x="282" d="M17 -243 C83 -243 147 -199 146 -142 C146 -103 113 -78 51 -72 L50 -69 L139 5 L94 5 L-25 -96 L-21 -116 C-12 -115 0 -113 8 -113 C49 -113 82 -126 82 -155 C82 -185 55 -205 12 -205 C-9 -205 -33 -201 -58 -193 L-74 -224 C-42 -237 -12 -243 17 -243 L17 -243 Z " />
<glyph glyph-name="one.sup" unicode="&#xb9;" horiz-adv-x="405" d="M184 663 C290 662 290 649 283 620 L197 307 C193 289 167 284 89 284 L79 248 L375 248 L385 284 C298 284 273 289 278 307 L387 710 L193 698 L184 663 Z " />
<glyph glyph-name="ordmasculine" unicode="&#xba;" horiz-adv-x="420" d="M238 311 C355 311 432 419 432 520 C432 600 375 652 306 652 C189 652 112 546 112 445 C112 364 169 311 238 311 L238 311 Z M246 343 C205 343 187 375 187 423 C187 491 217 620 298 620 C339 620 357 594 357 540 C357 473 327 343 246 343 L246 343 Z " />
<glyph glyph-name="guillemotright" unicode="&#xbb;" horiz-adv-x="505" d="M231 30 L430 178 C453 195 462 207 462 218 C462 227 459 235 449 250 L335 418 L303 400 L368 221 L211 55 L231 30 Z M26 30 L225 182 C247 199 257 211 257 222 C257 231 254 239 244 254 L132 419 L100 401 L164 224 L6 55 L26 30 Z " />
<glyph glyph-name="onequarter" unicode="&#xbc;" horiz-adv-x="1080" d="M957 66 L971 115 L897 115 L974 401 L896 405 L617 124 L601 66 L812 66 L792 -8 C788 -25 763 -31 718 -31 L708 -67 L908 -67 L918 -31 C870 -31 859 -25 864 -8 L884 66 L957 66 Z M122 587 C228 586 228 573 221 544 L135 231 C131 213 105 208 27 208 L17 172 L313 172 L323 208 C236 208 211 213 216 231 L325 634 L131 622 L122 587 Z M179 -82 L237 -82 L590 305 L900 639 L842 639 L535 305 L179 -82 Z M874 334 L884 331 L825 115 L657 115 L874 334 Z " />
<glyph glyph-name="onehalf" unicode="&#xbd;" horiz-adv-x="1080" d="M122 587 C228 586 228 573 221 544 L135 231 C131 213 105 208 27 208 L17 172 L313 172 L323 208 C236 208 211 213 216 231 L325 634 L131 622 L122 587 Z M635 -67 L947 -67 L988 70 L964 73 C927 13 910 -5 856 -5 L734 -5 L734 2 L843 80 C953 159 1035 216 1035 294 C1035 352 992 400 895 400 C805 400 729 345 729 283 C729 255 749 233 777 233 C806 233 825 256 825 281 C825 306 809 321 798 328 C814 345 841 361 877 361 C926 361 948 330 948 288 C947 227 912 175 756 61 L649 -16 L635 -67 Z M179 -82 L237 -82 L590 305 L900 639 L842 639 L535 305 L179 -82 Z " />
<glyph glyph-name="threequarters" unicode="&#xbe;" horiz-adv-x="1080" d="M959 66 L973 115 L899 115 L976 401 L898 405 L619 124 L603 66 L814 66 L794 -8 C790 -25 765 -31 720 -31 L710 -67 L910 -67 L920 -31 C872 -31 861 -25 866 -8 L886 66 L959 66 Z M197 157 C297 157 379 213 379 293 C379 341 347 389 251 399 L252 403 C380 424 427 481 427 537 C427 594 377 639 288 639 C204 639 131 597 131 538 C131 512 149 492 175 492 C205 492 220 515 220 538 C220 560 206 574 196 580 C213 594 244 600 266 600 C324 600 346 568 346 529 C346 503 337 479 316 460 C292 439 257 425 195 423 L185 385 C273 374 297 344 297 296 C297 266 286 240 265 221 C248 206 225 196 189 196 C163 196 132 203 114 219 C124 225 140 239 140 262 C140 286 125 308 97 308 C67 308 47 284 47 254 C47 197 118 157 197 157 L197 157 Z M181 -82 L239 -82 L592 305 L902 639 L844 639 L537 305 L181 -82 Z M876 334 L886 331 L827 115 L659 115 L876 334 Z " />
<glyph glyph-name="questiondown" unicode="&#xbf;" horiz-adv-x="428" d="M288 488 L256 362 C97 330 -15 252 -15 142 C-15 54 58 -16 183 -16 C288 -16 366 48 366 125 C366 159 341 187 304 187 C267 187 245 159 245 129 C245 104 263 80 284 68 C261 42 232 25 187 25 C118 25 80 70 80 134 C80 235 156 295 296 334 L331 480 L288 488 Z M336 684 C302 684 274 657 274 623 C274 589 302 562 336 562 C371 562 399 589 399 623 C399 657 371 684 336 684 L336 684 Z " />
<glyph glyph-name="Agrave" unicode="&#xc0;" horiz-adv-x="664" d="M-47 0 L182 0 L191 35 C110 51 106 65 160 155 L211 240 L442 240 L459 113 C467 56 456 39 366 35 L356 0 L632 0 L642 35 C573 43 564 61 556 117 L476 668 L421 668 L116 174 C57 78 37 51 -37 35 L-47 0 Z M436 280 L235 280 L395 550 L401 550 L436 280 Z M444 742 L480 742 L414 874 C390 923 378 939 355 939 C332 939 313 922 313 897 C313 881 328 861 351 838 L444 742 Z " />
<glyph glyph-name="Aacute" unicode="&#xc1;" horiz-adv-x="664" d="M-47 0 L182 0 L191 35 C110 51 106 65 160 155 L211 240 L442 240 L459 113 C467 56 456 39 366 35 L356 0 L632 0 L642 35 C573 43 564 61 556 117 L476 668 L421 668 L116 174 C57 78 37 51 -37 35 L-47 0 Z M436 280 L235 280 L395 550 L401 550 L436 280 Z M401 742 L442 742 L537 818 C590 860 609 879 609 903 C609 924 595 939 573 939 C548 939 530 922 490 866 L401 742 Z " />
<glyph glyph-name="Acircumflex" unicode="&#xc2;" horiz-adv-x="664" d="M-47 0 L182 0 L191 35 C110 51 106 65 160 155 L211 240 L442 240 L459 113 C467 56 456 39 366 35 L356 0 L632 0 L642 35 C573 43 564 61 556 117 L476 668 L421 668 L116 174 C57 78 37 51 -37 35 L-47 0 Z M436 280 L235 280 L395 550 L401 550 L436 280 Z M323 742 L365 742 L484 840 L549 742 L586 742 L524 925 L491 925 L323 742 Z " />
<glyph glyph-name="Atilde" unicode="&#xc3;" horiz-adv-x="664" d="M-47 0 L182 0 L191 35 C110 51 106 65 160 155 L211 240 L442 240 L459 113 C467 56 456 39 366 35 L356 0 L632 0 L642 35 C573 43 564 61 556 117 L476 668 L421 668 L116 174 C57 78 37 51 -37 35 L-47 0 Z M436 280 L235 280 L395 550 L401 550 L436 280 Z M326 743 L362 743 C380 789 394 799 412 799 C443 799 483 749 526 749 C570 749 607 783 628 867 L592 867 C574 821 560 811 542 811 C512 811 471 861 428 861 C384 861 347 827 326 743 L326 743 Z " />
<glyph glyph-name="Adieresis" unicode="&#xc4;" horiz-adv-x="664" d="M-47 0 L182 0 L191 35 C110 51 106 65 160 155 L211 240 L442 240 L459 113 C467 56 456 39 366 35 L356 0 L632 0 L642 35 C573 43 564 61 556 117 L476 668 L421 668 L116 174 C57 78 37 51 -37 35 L-47 0 Z M436 280 L235 280 L395 550 L401 550 L436 280 Z M559 750 C598 750 628 788 628 830 C628 857 609 878 583 878 C543 878 513 841 513 799 C513 772 533 750 559 750 L559 750 Z M374 750 C413 750 443 788 443 830 C443 857 424 878 398 878 C358 878 328 841 328 799 C328 772 348 750 374 750 L374 750 Z " />
<glyph glyph-name="Aring" unicode="&#xc5;" horiz-adv-x="664" d="M211 240 L442 240 L459 113 C467 57 456 42 367 38 L356 0 L636 0 L647 35 C575 43 564 61 556 117 L478 652 C537 667 577 719 577 780 C577 832 543 871 489 871 C413 871 354 812 354 738 C354 697 376 664 411 652 L116 174 C57 78 34 48 -39 32 L-47 0 L182 0 L189 32 C108 48 106 65 160 155 L211 240 Z M436 280 L235 280 L395 550 L401 550 L436 280 Z M448 676 C422 676 405 699 405 727 C405 778 435 842 484 842 C509 842 527 823 527 791 C527 740 496 676 448 676 L448 676 Z " />
<glyph glyph-name="AE" unicode="&#xc6;" horiz-adv-x="994" d="M784 208 L851 469 L820 469 C767 365 752 368 678 368 L624 368 L690 615 L820 615 C932 615 938 578 943 466 L977 466 L1024 658 L419 658 L410 623 C466 618 487 609 487 593 C487 583 479 571 466 556 L141 171 C65 82 26 51 -47 35 L-57 0 L170 0 L180 35 C144 42 128 51 128 67 C128 85 151 112 185 152 L272 256 L497 256 L450 81 C441 50 420 41 335 38 L324 0 L882 0 L944 207 L907 207 C851 96 811 44 679 44 L538 44 L613 326 L669 326 C743 326 753 308 753 208 L784 208 Z M508 296 L305 296 L569 612 L593 612 L508 296 Z " />
<glyph glyph-name="Ccedilla" unicode="&#xc7;" horiz-adv-x="659" d="M257 -243 C323 -243 387 -199 386 -142 C386 -103 353 -78 291 -72 L290 -69 L356 -14 C483 0 562 90 620 173 L586 194 C519 104 460 43 356 43 C235 43 169 120 169 250 C169 415 278 632 447 632 C526 632 570 576 597 444 L630 444 L692 671 L658 671 L608 622 C576 647 530 674 460 674 C228 674 63 463 63 255 C63 99 166 -10 309 -16 L215 -96 L219 -116 C228 -115 240 -113 248 -113 C289 -113 322 -126 322 -155 C322 -185 295 -205 252 -205 C231 -205 207 -201 182 -193 L166 -224 C198 -237 228 -243 257 -243 L257 -243 Z " />
<glyph glyph-name="Egrave" unicode="&#xc8;" horiz-adv-x="648" d="M154 658 L144 620 C227 617 245 608 237 577 L104 81 C96 50 74 41 -11 38 L-22 0 L536 0 L598 207 L561 207 C505 96 465 44 333 44 L192 44 L267 326 L323 326 C397 326 407 308 407 208 L438 208 L505 469 L474 469 C421 365 399 368 325 368 L278 368 L344 615 L474 615 C586 615 592 578 597 466 L631 466 L678 658 L154 658 Z M445 742 L481 742 L415 874 C391 923 379 939 356 939 C333 939 314 922 314 897 C314 881 329 861 352 838 L445 742 Z " />
<glyph glyph-name="Eacute" unicode="&#xc9;" horiz-adv-x="648" d="M402 742 L443 742 L538 818 C591 860 610 879 610 903 C610 924 596 939 574 939 C549 939 531 922 491 866 L402 742 Z M154 658 L144 620 C227 617 245 608 237 577 L104 81 C96 50 74 41 -11 38 L-22 0 L536 0 L598 207 L561 207 C505 96 465 44 333 44 L192 44 L267 326 L323 326 C397 326 407 308 407 208 L438 208 L505 469 L474 469 C421 365 399 368 325 368 L278 368 L344 615 L474 615 C586 615 592 578 597 466 L631 466 L678 658 L154 658 Z " />
<glyph glyph-name="Ecircumflex" unicode="&#xca;" horiz-adv-x="648" d="M324 742 L366 742 L485 840 L550 742 L587 742 L525 925 L492 925 L324 742 Z M154 658 L144 620 C227 617 245 608 237 577 L104 81 C96 50 74 41 -11 38 L-22 0 L536 0 L598 207 L561 207 C505 96 465 44 333 44 L192 44 L267 326 L323 326 C397 326 407 308 407 208 L438 208 L505 469 L474 469 C421 365 399 368 325 368 L278 368 L344 615 L474 615 C586 615 592 578 597 466 L631 466 L678 658 L154 658 Z " />
<glyph glyph-name="Edieresis" unicode="&#xcb;" horiz-adv-x="648" d="M560 750 C599 750 629 788 629 830 C629 857 610 878 584 878 C544 878 514 841 514 799 C514 772 534 750 560 750 L560 750 Z M375 750 C414 750 444 788 444 830 C444 857 425 878 399 878 C359 878 329 841 329 799 C329 772 349 750 375 750 L375 750 Z M154 658 L144 620 C227 617 245 608 237 577 L104 81 C96 50 74 41 -11 38 L-22 0 L536 0 L598 207 L561 207 C505 96 465 44 333 44 L192 44 L267 326 L323 326 C397 326 407 308 407 208 L438 208 L505 469 L474 469 C421 365 399 368 325 368 L278 368 L344 615 L474 615 C586 615 592 578 597 466 L631 466 L678 658 L154 658 Z " />
<glyph glyph-name="Igrave" unicode="&#xcc;" horiz-adv-x="405" d="M461 620 L471 658 L164 658 L154 620 C237 617 255 608 247 577 L114 81 C106 50 84 41 -1 38 L-12 0 L295 0 L306 38 C223 41 203 50 211 81 L344 577 C352 608 376 617 461 620 L461 620 Z M323 742 L359 742 L293 874 C269 923 257 939 234 939 C211 939 192 922 192 897 C192 881 207 861 230 838 L323 742 Z " />
<glyph glyph-name="Iacute" unicode="&#xcd;" horiz-adv-x="405" d="M461 620 L471 658 L164 658 L154 620 C237 617 255 608 247 577 L114 81 C106 50 84 41 -1 38 L-12 0 L295 0 L306 38 C223 41 203 50 211 81 L344 577 C352 608 376 617 461 620 L461 620 Z M280 742 L321 742 L416 818 C469 860 488 879 488 903 C488 924 474 939 452 939 C427 939 409 922 369 866 L280 742 Z " />
<glyph glyph-name="Icircumflex" unicode="&#xce;" horiz-adv-x="405" d="M461 620 L471 658 L164 658 L154 620 C237 617 255 608 247 577 L114 81 C106 50 84 41 -1 38 L-12 0 L295 0 L306 38 C223 41 203 50 211 81 L344 577 C352 608 376 617 461 620 L461 620 Z M202 742 L244 742 L363 840 L428 742 L465 742 L403 925 L370 925 L202 742 Z " />
<glyph glyph-name="Idieresis" unicode="&#xcf;" horiz-adv-x="405" d="M461 620 L471 658 L164 658 L154 620 C237 617 255 608 247 577 L114 81 C106 50 84 41 -1 38 L-12 0 L295 0 L306 38 C223 41 203 50 211 81 L344 577 C352 608 376 617 461 620 L461 620 Z M438 750 C477 750 507 788 507 830 C507 857 488 878 462 878 C422 878 392 841 392 799 C392 772 412 750 438 750 L438 750 Z M253 750 C292 750 322 788 322 830 C322 857 303 878 277 878 C237 878 207 841 207 799 C207 772 227 750 253 750 L253 750 Z " />
<glyph glyph-name="Eth" unicode="&#xd0;" horiz-adv-x="724" d="M104 81 C96 50 74 41 -11 38 L-22 0 L293 0 C430 0 531 48 598 115 C680 197 713 307 713 390 C713 522 634 658 390 658 L154 658 L144 620 C227 617 245 608 237 577 L180 367 L86 367 L73 318 L167 318 L104 81 Z M192 43 L265 318 L391 318 L404 367 L278 367 L344 615 L403 615 C554 615 613 529 613 424 C613 338 585 203 502 120 C456 74 394 43 311 43 L192 43 Z " />
<glyph glyph-name="Ntilde" unicode="&#xd1;" horiz-adv-x="769" d="M338 658 L154 658 L143 620 C223 618 239 589 229 552 L125 164 C101 73 81 50 -13 35 L-22 0 L246 0 L255 35 C162 49 152 74 176 164 L279 548 L282 548 L536 -16 L579 -16 L716 495 C740 586 752 607 845 623 L854 658 L592 658 L583 623 C675 609 689 586 665 495 L573 147 L569 147 L338 658 Z M369 743 L405 743 C423 789 437 799 455 799 C486 799 526 749 569 749 C613 749 650 783 671 867 L635 867 C617 821 603 811 585 811 C555 811 514 861 471 861 C427 861 390 827 369 743 L369 743 Z " />
<glyph glyph-name="Ograve" unicode="&#xd2;" horiz-adv-x="724" d="M318 -16 C547 -16 713 195 713 403 C713 561 605 674 458 674 C229 674 63 463 63 255 C63 97 171 -16 318 -16 L318 -16 Z M325 26 C218 26 163 107 163 222 C163 408 282 632 451 632 C558 632 613 551 613 436 C613 250 494 26 325 26 L325 26 Z M483 742 L519 742 L453 874 C429 923 417 939 394 939 C371 939 352 922 352 897 C352 881 367 861 390 838 L483 742 Z " />
<glyph glyph-name="Oacute" unicode="&#xd3;" horiz-adv-x="724" d="M440 742 L481 742 L576 818 C629 860 648 879 648 903 C648 924 634 939 612 939 C587 939 569 922 529 866 L440 742 Z M318 -16 C547 -16 713 195 713 403 C713 561 605 674 458 674 C229 674 63 463 63 255 C63 97 171 -16 318 -16 L318 -16 Z M325 26 C218 26 163 107 163 222 C163 408 282 632 451 632 C558 632 613 551 613 436 C613 250 494 26 325 26 L325 26 Z " />
<glyph glyph-name="Ocircumflex" unicode="&#xd4;" horiz-adv-x="724" d="M362 742 L404 742 L523 840 L588 742 L625 742 L563 925 L530 925 L362 742 Z M318 -16 C547 -16 713 195 713 403 C713 561 605 674 458 674 C229 674 63 463 63 255 C63 97 171 -16 318 -16 L318 -16 Z M325 26 C218 26 163 107 163 222 C163 408 282 632 451 632 C558 632 613 551 613 436 C613 250 494 26 325 26 L325 26 Z " />
<glyph glyph-name="Otilde" unicode="&#xd5;" horiz-adv-x="724" d="M318 -16 C547 -16 713 195 713 403 C713 561 605 674 458 674 C229 674 63 463 63 255 C63 97 171 -16 318 -16 L318 -16 Z M325 26 C218 26 163 107 163 222 C163 408 282 632 451 632 C558 632 613 551 613 436 C613 250 494 26 325 26 L325 26 Z M365 743 L401 743 C419 789 433 799 451 799 C482 799 522 749 565 749 C609 749 646 783 667 867 L631 867 C613 821 599 811 581 811 C551 811 510 861 467 861 C423 861 386 827 365 743 L365 743 Z " />
<glyph glyph-name="Odieresis" unicode="&#xd6;" horiz-adv-x="724" d="M598 750 C637 750 667 788 667 830 C667 857 648 878 622 878 C582 878 552 841 552 799 C552 772 572 750 598 750 L598 750 Z M413 750 C452 750 482 788 482 830 C482 857 463 878 437 878 C397 878 367 841 367 799 C367 772 387 750 413 750 L413 750 Z M318 -16 C547 -16 713 195 713 403 C713 561 605 674 458 674 C229 674 63 463 63 255 C63 97 171 -16 318 -16 L318 -16 Z M325 26 C218 26 163 107 163 222 C163 408 282 632 451 632 C558 632 613 551 613 436 C613 250 494 26 325 26 L325 26 Z " />
<glyph glyph-name="multiply" unicode="&#xd7;" horiz-adv-x="525" d="M50 156 L81 114 L276 268 L388 115 L432 149 L320 302 L516 457 L484 499 L289 345 L177 498 L132 464 L245 310 L50 156 Z " />
<glyph glyph-name="Oslash" unicode="&#xd8;" horiz-adv-x="724" d="M80 -34 L151 44 C195 6 253 -16 318 -16 C547 -16 713 195 713 403 C713 475 690 538 651 585 L750 692 L696 692 L624 613 C580 652 523 674 458 674 C229 674 63 463 63 255 C63 182 85 119 124 72 L26 -34 L80 -34 Z M163 222 C163 408 282 632 451 632 C510 632 553 607 580 566 L178 128 C168 155 163 187 163 222 L163 222 Z M325 26 C266 26 222 50 195 92 L597 530 C607 502 613 471 613 436 C613 250 494 26 325 26 L325 26 Z " />
<glyph glyph-name="Ugrave" unicode="&#xd9;" horiz-adv-x="744" d="M313 577 C322 610 332 617 422 620 L433 658 L134 658 L123 620 C206 617 224 608 216 577 L125 236 C119 213 116 191 116 168 C116 67 184 -16 328 -16 C517 -16 586 75 616 189 L701 503 C725 594 735 607 828 623 L837 658 L579 658 L570 623 C662 609 674 594 650 503 L574 215 C540 84 477 33 359 33 C263 33 214 88 214 170 C214 193 218 218 224 244 L313 577 Z M507 742 L543 742 L477 874 C453 923 441 939 418 939 C395 939 376 922 376 897 C376 881 391 861 414 838 L507 742 Z " />
<glyph glyph-name="Uacute" unicode="&#xda;" horiz-adv-x="744" d="M464 742 L505 742 L600 818 C653 860 672 879 672 903 C672 924 658 939 636 939 C611 939 593 922 553 866 L464 742 Z M313 577 C322 610 332 617 422 620 L433 658 L134 658 L123 620 C206 617 224 608 216 577 L125 236 C119 213 116 191 116 168 C116 67 184 -16 328 -16 C517 -16 586 75 616 189 L701 503 C725 594 735 607 828 623 L837 658 L579 658 L570 623 C662 609 674 594 650 503 L574 215 C540 84 477 33 359 33 C263 33 214 88 214 170 C214 193 218 218 224 244 L313 577 Z " />
<glyph glyph-name="Ucircumflex" unicode="&#xdb;" horiz-adv-x="744" d="M386 742 L428 742 L547 840 L612 742 L649 742 L587 925 L554 925 L386 742 Z M313 577 C322 610 332 617 422 620 L433 658 L134 658 L123 620 C206 617 224 608 216 577 L125 236 C119 213 116 191 116 168 C116 67 184 -16 328 -16 C517 -16 586 75 616 189 L701 503 C725 594 735 607 828 623 L837 658 L579 658 L570 623 C662 609 674 594 650 503 L574 215 C540 84 477 33 359 33 C263 33 214 88 214 170 C214 193 218 218 224 244 L313 577 Z " />
<glyph glyph-name="Udieresis" unicode="&#xdc;" horiz-adv-x="744" d="M622 750 C661 750 691 788 691 830 C691 857 672 878 646 878 C606 878 576 841 576 799 C576 772 596 750 622 750 L622 750 Z M437 750 C476 750 506 788 506 830 C506 857 487 878 461 878 C421 878 391 841 391 799 C391 772 411 750 437 750 L437 750 Z M313 577 C322 610 332 617 422 620 L433 658 L134 658 L123 620 C206 617 224 608 216 577 L125 236 C119 213 116 191 116 168 C116 67 184 -16 328 -16 C517 -16 586 75 616 189 L701 503 C725 594 735 607 828 623 L837 658 L579 658 L570 623 C662 609 674 594 650 503 L574 215 C540 84 477 33 359 33 C263 33 214 88 214 170 C214 193 218 218 224 244 L313 577 Z " />
<glyph glyph-name="Yacute" unicode="&#xdd;" horiz-adv-x="642" d="M600 517 C671 595 697 612 759 623 L769 658 L532 658 L522 623 C603 612 603 591 534 511 L375 324 L297 559 C284 597 299 617 390 623 L400 658 L113 658 L104 623 C167 611 187 600 201 560 L292 292 L236 81 C228 50 206 41 121 38 L111 0 L418 0 L428 38 C345 41 325 50 333 81 L387 279 L600 517 Z M407 742 L448 742 L543 818 C596 860 615 879 615 903 C615 924 601 939 579 939 C554 939 536 922 496 866 L407 742 Z " />
<glyph glyph-name="Thorn" unicode="&#xde;" horiz-adv-x="599" d="M-22 0 L291 0 L302 38 C214 41 192 48 201 81 L221 153 L302 153 C500 153 596 258 596 361 C596 446 546 523 358 523 L319 523 L334 577 C342 609 369 617 456 620 L465 658 L153 658 L144 620 C227 617 245 608 237 577 L104 81 C96 50 74 41 -11 38 L-22 0 Z M232 195 L308 481 L358 481 C457 481 491 434 491 369 C491 273 435 195 298 195 L232 195 Z " />
<glyph glyph-name="germandbls" unicode="&#xdf;" horiz-adv-x="519" d="M-68 -200 C34 -200 90 -136 137 84 L232 526 C254 634 289 667 340 667 C392 667 416 630 416 585 C416 458 274 454 274 328 C274 217 414 205 414 108 C414 54 383 27 337 27 C306 27 286 37 276 48 C294 62 302 77 302 95 C302 126 282 144 252 144 C218 144 198 115 198 82 C198 29 256 -8 318 -8 C427 -8 483 59 483 140 C483 256 334 288 334 368 C334 450 499 457 499 580 C499 648 449 703 358 703 C251 703 179 661 139 475 L40 21 C6 -139 -21 -165 -61 -165 C-71 -165 -80 -162 -86 -158 C-76 -147 -67 -128 -67 -111 C-67 -83 -85 -62 -116 -62 C-148 -62 -172 -89 -172 -123 C-172 -166 -136 -200 -68 -200 L-68 -200 Z " />
<glyph glyph-name="agrave" unicode="&#xe0;" horiz-adv-x="529" d="M455 304 L513 466 L423 455 L407 405 C388 444 360 467 306 467 C165 467 36 290 36 147 C36 48 87 -8 169 -8 C228 -8 273 18 323 90 L327 89 C325 76 323 62 323 50 C323 5 351 -7 405 -7 C437 -7 470 -1 480 3 L480 35 C417 35 395 43 395 74 C395 85 398 99 403 117 L455 304 Z M307 431 C347 431 379 401 385 342 L328 153 C294 85 250 46 207 46 C154 46 129 82 129 156 C129 246 201 431 307 431 L307 431 Z M337 534 L373 534 L307 666 C283 715 271 731 248 731 C225 731 206 714 206 689 C206 673 221 653 244 630 L337 534 Z " />
<glyph glyph-name="aacute" unicode="&#xe1;" horiz-adv-x="529" d="M455 304 L513 466 L423 455 L407 405 C388 444 360 467 306 467 C165 467 36 290 36 147 C36 48 87 -8 169 -8 C228 -8 273 18 323 90 L327 89 C325 76 323 62 323 50 C323 5 351 -7 405 -7 C437 -7 470 -1 480 3 L480 35 C417 35 395 43 395 74 C395 85 398 99 403 117 L455 304 Z M307 431 C347 431 379 401 385 342 L328 153 C294 85 250 46 207 46 C154 46 129 82 129 156 C129 246 201 431 307 431 L307 431 Z M294 534 L335 534 L430 610 C483 652 502 671 502 695 C502 716 488 731 466 731 C441 731 423 714 383 658 L294 534 Z " />
<glyph glyph-name="acircumflex" unicode="&#xe2;" horiz-adv-x="529" d="M455 304 L513 466 L423 455 L407 405 C388 444 360 467 306 467 C165 467 36 290 36 147 C36 48 87 -8 169 -8 C228 -8 273 18 323 90 L327 89 C325 76 323 62 323 50 C323 5 351 -7 405 -7 C437 -7 470 -1 480 3 L480 35 C417 35 395 43 395 74 C395 85 398 99 403 117 L455 304 Z M307 431 C347 431 379 401 385 342 L328 153 C294 85 250 46 207 46 C154 46 129 82 129 156 C129 246 201 431 307 431 L307 431 Z M216 534 L258 534 L377 632 L442 534 L479 534 L417 717 L384 717 L216 534 Z " />
<glyph glyph-name="atilde" unicode="&#xe3;" horiz-adv-x="529" d="M455 304 L513 466 L423 455 L407 405 C388 444 360 467 306 467 C165 467 36 290 36 147 C36 48 87 -8 169 -8 C228 -8 273 18 323 90 L327 89 C325 76 323 62 323 50 C323 5 351 -7 405 -7 C437 -7 470 -1 480 3 L480 35 C417 35 395 43 395 74 C395 85 398 99 403 117 L455 304 Z M307 431 C347 431 379 401 385 342 L328 153 C294 85 250 46 207 46 C154 46 129 82 129 156 C129 246 201 431 307 431 L307 431 Z M219 535 L255 535 C273 581 287 591 305 591 C336 591 376 541 419 541 C463 541 500 575 521 659 L485 659 C467 613 453 603 435 603 C405 603 364 653 321 653 C277 653 240 619 219 535 L219 535 Z " />
<glyph glyph-name="adieresis" unicode="&#xe4;" horiz-adv-x="529" d="M455 304 L513 466 L423 455 L407 405 C388 444 360 467 306 467 C165 467 36 290 36 147 C36 48 87 -8 169 -8 C228 -8 273 18 323 90 L327 89 C325 76 323 62 323 50 C323 5 351 -7 405 -7 C437 -7 470 -1 480 3 L480 35 C417 35 395 43 395 74 C395 85 398 99 403 117 L455 304 Z M307 431 C347 431 379 401 385 342 L328 153 C294 85 250 46 207 46 C154 46 129 82 129 156 C129 246 201 431 307 431 L307 431 Z M452 542 C491 542 521 580 521 622 C521 649 502 670 476 670 C436 670 406 633 406 591 C406 564 426 542 452 542 L452 542 Z M267 542 C306 542 336 580 336 622 C336 649 317 670 291 670 C251 670 221 633 221 591 C221 564 241 542 267 542 L267 542 Z " />
<glyph glyph-name="aring" unicode="&#xe5;" horiz-adv-x="529" d="M455 304 L513 466 L423 455 L407 405 C388 444 360 467 306 467 C165 467 36 290 36 147 C36 48 87 -8 169 -8 C228 -8 273 18 323 90 L327 89 C325 76 323 62 323 50 C323 5 351 -7 405 -7 C437 -7 470 -1 480 3 L480 35 C417 35 395 43 395 74 C395 85 398 99 403 117 L455 304 Z M307 431 C347 431 379 401 385 342 L328 153 C294 85 250 46 207 46 C154 46 129 82 129 156 C129 246 201 431 307 431 L307 431 Z M369 542 C437 542 489 596 489 661 C489 709 454 746 394 746 C326 746 274 693 274 628 C274 579 309 542 369 542 L369 542 Z M370 573 C343 573 322 590 322 625 C322 666 346 716 393 716 C420 716 441 699 441 664 C441 623 417 573 370 573 L370 573 Z " />
<glyph glyph-name="ae" unicode="&#xe6;" horiz-adv-x="722" d="M582 467 C510 467 442 424 404 376 L399 376 C386 440 335 467 264 467 C172 467 89 422 89 360 C89 329 109 305 144 305 C174 305 195 324 195 358 C195 374 189 392 170 404 C194 420 215 430 252 430 C308 430 337 388 337 322 C337 305 332 269 328 250 C117 262 19 200 19 97 C19 37 60 -8 137 -8 C214 -8 276 36 320 114 L327 114 C347 27 415 -8 482 -8 C552 -8 614 24 666 93 L638 119 C598 66 549 40 502 40 C435 40 407 88 407 166 C407 179 408 193 409 206 C621 209 713 289 713 366 C713 425 666 467 582 467 L582 467 Z M574 430 C613 430 629 410 629 376 C629 310 593 249 414 239 C436 344 503 430 574 430 L574 430 Z M173 45 C133 45 109 72 109 108 C109 172 143 225 322 217 C298 111 237 45 173 45 L173 45 Z " />
<glyph glyph-name="ccedilla" unicode="&#xe7;" horiz-adv-x="432" d="M154 -243 C220 -243 284 -199 283 -142 C283 -103 250 -78 188 -72 L187 -69 L271 1 C314 15 353 45 389 95 L361 120 C320 65 276 40 227 40 C163 40 127 94 127 170 C127 285 193 432 294 432 C317 432 336 422 346 407 C323 395 312 370 312 353 C312 320 333 302 363 302 C398 302 421 328 421 370 C421 427 363 467 289 467 C153 467 36 321 36 176 C36 60 112 -8 209 -8 L215 -8 L112 -96 L116 -116 C125 -115 137 -113 145 -113 C186 -113 219 -126 219 -155 C219 -185 192 -205 149 -205 C128 -205 104 -201 79 -193 L63 -224 C95 -237 125 -243 154 -243 L154 -243 Z " />
<glyph glyph-name="egrave" unicode="&#xe8;" horiz-adv-x="440" d="M431 366 C431 425 384 467 300 467 C149 467 34 308 34 160 C34 36 122 -8 200 -8 C270 -8 332 24 384 93 L356 119 C316 66 267 40 220 40 C153 40 125 88 125 166 C125 179 126 193 127 206 C339 209 431 289 431 366 L431 366 Z M292 430 C331 430 347 410 347 376 C347 310 311 249 132 239 C154 344 221 430 292 430 L292 430 Z M292 534 L328 534 L262 666 C238 715 226 731 203 731 C180 731 161 714 161 689 C161 673 176 653 199 630 L292 534 Z " />
<glyph glyph-name="eacute" unicode="&#xe9;" horiz-adv-x="440" d="M431 366 C431 425 384 467 300 467 C149 467 34 308 34 160 C34 36 122 -8 200 -8 C270 -8 332 24 384 93 L356 119 C316 66 267 40 220 40 C153 40 125 88 125 166 C125 179 126 193 127 206 C339 209 431 289 431 366 L431 366 Z M292 430 C331 430 347 410 347 376 C347 310 311 249 132 239 C154 344 221 430 292 430 L292 430 Z M249 534 L290 534 L385 610 C438 652 457 671 457 695 C457 716 443 731 421 731 C396 731 378 714 338 658 L249 534 Z " />
<glyph glyph-name="ecircumflex" unicode="&#xea;" horiz-adv-x="440" d="M431 366 C431 425 384 467 300 467 C149 467 34 308 34 160 C34 36 122 -8 200 -8 C270 -8 332 24 384 93 L356 119 C316 66 267 40 220 40 C153 40 125 88 125 166 C125 179 126 193 127 206 C339 209 431 289 431 366 L431 366 Z M292 430 C331 430 347 410 347 376 C347 310 311 249 132 239 C154 344 221 430 292 430 L292 430 Z M171 534 L213 534 L332 632 L397 534 L434 534 L372 717 L339 717 L171 534 Z " />
<glyph glyph-name="edieresis" unicode="&#xeb;" horiz-adv-x="440" d="M431 366 C431 425 384 467 300 467 C149 467 34 308 34 160 C34 36 122 -8 200 -8 C270 -8 332 24 384 93 L356 119 C316 66 267 40 220 40 C153 40 125 88 125 166 C125 179 126 193 127 206 C339 209 431 289 431 366 L431 366 Z M292 430 C331 430 347 410 347 376 C347 310 311 249 132 239 C154 344 221 430 292 430 L292 430 Z M222 542 C261 542 291 580 291 622 C291 649 272 670 246 670 C206 670 176 633 176 591 C176 564 196 542 222 542 L222 542 Z M407 542 C446 542 476 580 476 622 C476 649 457 670 431 670 C391 670 361 633 361 591 C361 564 381 542 407 542 L407 542 Z " />
<glyph glyph-name="igrave" unicode="&#xec;" horiz-adv-x="300" d="M238 37 C169 34 145 43 145 72 C145 85 150 101 156 122 L262 461 L74 454 L74 419 C144 415 157 406 147 371 L63 105 C58 89 56 74 56 62 C56 17 87 -7 139 -7 C178 -7 219 -1 238 5 L238 37 Z M197 534 L233 534 L167 666 C143 715 131 731 108 731 C85 731 66 714 66 689 C66 673 81 653 104 630 L197 534 Z " />
<glyph glyph-name="iacute" unicode="&#xed;" horiz-adv-x="300" d="M154 534 L195 534 L290 610 C343 652 362 671 362 695 C362 716 348 731 326 731 C301 731 283 714 243 658 L154 534 Z M238 37 C169 34 145 43 145 72 C145 85 150 101 156 122 L262 461 L74 454 L74 419 C144 415 157 406 147 371 L63 105 C58 89 56 74 56 62 C56 17 87 -7 139 -7 C178 -7 219 -1 238 5 L238 37 Z " />
<glyph glyph-name="icircumflex" unicode="&#xee;" horiz-adv-x="300" d="M76 534 L118 534 L237 632 L302 534 L339 534 L277 717 L244 717 L76 534 Z M238 37 C169 34 145 43 145 72 C145 85 150 101 156 122 L262 461 L74 454 L74 419 C144 415 157 406 147 371 L63 105 C58 89 56 74 56 62 C56 17 87 -7 139 -7 C178 -7 219 -1 238 5 L238 37 Z " />
<glyph glyph-name="idieresis" unicode="&#xef;" horiz-adv-x="300" d="M312 542 C351 542 381 580 381 622 C381 649 362 670 336 670 C296 670 266 633 266 591 C266 564 286 542 312 542 L312 542 Z M127 542 C166 542 196 580 196 622 C196 649 177 670 151 670 C111 670 81 633 81 591 C81 564 101 542 127 542 L127 542 Z M238 37 C169 34 145 43 145 72 C145 85 150 101 156 122 L262 461 L74 454 L74 419 C144 415 157 406 147 371 L63 105 C58 89 56 74 56 62 C56 17 87 -7 139 -7 C178 -7 219 -1 238 5 L238 37 Z " />
<glyph glyph-name="eth" unicode="&#xf0;" horiz-adv-x="491" d="M281 579 C321 544 344 503 352 456 C335 463 309 467 283 467 C133 467 34 319 34 178 C34 66 97 -8 203 -8 C367 -8 459 151 459 337 C459 456 421 549 343 613 L426 659 L404 702 L303 642 C263 667 216 686 160 699 L135 655 C177 642 213 626 242 608 L141 553 L161 510 L281 579 Z M211 41 C153 41 130 81 130 143 C130 229 164 418 279 418 C338 418 364 389 364 317 C364 231 323 41 211 41 L211 41 Z " />
<glyph glyph-name="ntilde" unicode="&#xf1;" horiz-adv-x="536" d="M73 162 L18 0 L118 0 L200 337 C252 379 293 402 335 402 C380 402 399 381 399 347 C399 332 396 316 389 296 L326 102 C318 80 316 63 316 52 C316 10 345 -7 397 -7 C436 -7 477 -1 487 3 L487 35 C425 35 403 43 403 71 C403 83 407 100 414 122 L476 309 C484 334 487 355 487 374 C487 431 455 464 395 464 C340 464 277 434 217 384 L213 388 L237 461 L68 455 L68 420 C133 416 140 406 131 371 L73 162 Z M204 535 L240 535 C258 581 272 591 290 591 C321 591 361 541 404 541 C448 541 485 575 506 659 L470 659 C452 613 438 603 420 603 C390 603 349 653 306 653 C262 653 225 619 204 535 L204 535 Z " />
<glyph glyph-name="ograve" unicode="&#xf2;" horiz-adv-x="491" d="M292 467 C133 467 35 319 35 178 C35 65 102 -8 199 -8 C358 -8 456 141 456 281 C456 394 389 467 292 467 L292 467 Z M208 28 C149 28 122 69 122 146 C122 241 170 431 283 431 C342 431 369 393 369 313 C369 218 321 28 208 28 L208 28 Z M302 534 L338 534 L272 666 C248 715 236 731 213 731 C190 731 171 714 171 689 C171 673 186 653 209 630 L302 534 Z " />
<glyph glyph-name="oacute" unicode="&#xf3;" horiz-adv-x="491" d="M259 534 L300 534 L395 610 C448 652 467 671 467 695 C467 716 453 731 431 731 C406 731 388 714 348 658 L259 534 Z M292 467 C133 467 35 319 35 178 C35 65 102 -8 199 -8 C358 -8 456 141 456 281 C456 394 389 467 292 467 L292 467 Z M208 28 C149 28 122 69 122 146 C122 241 170 431 283 431 C342 431 369 393 369 313 C369 218 321 28 208 28 L208 28 Z " />
<glyph glyph-name="ocircumflex" unicode="&#xf4;" horiz-adv-x="491" d="M181 534 L223 534 L342 632 L407 534 L444 534 L382 717 L349 717 L181 534 Z M292 467 C133 467 35 319 35 178 C35 65 102 -8 199 -8 C358 -8 456 141 456 281 C456 394 389 467 292 467 L292 467 Z M208 28 C149 28 122 69 122 146 C122 241 170 431 283 431 C342 431 369 393 369 313 C369 218 321 28 208 28 L208 28 Z " />
<glyph glyph-name="otilde" unicode="&#xf5;" horiz-adv-x="491" d="M292 467 C133 467 35 319 35 178 C35 65 102 -8 199 -8 C358 -8 456 141 456 281 C456 394 389 467 292 467 L292 467 Z M208 28 C149 28 122 69 122 146 C122 241 170 431 283 431 C342 431 369 393 369 313 C369 218 321 28 208 28 L208 28 Z M184 535 L220 535 C238 581 252 591 270 591 C301 591 341 541 384 541 C428 541 465 575 486 659 L450 659 C432 613 418 603 400 603 C370 603 329 653 286 653 C242 653 205 619 184 535 L184 535 Z " />
<glyph glyph-name="odieresis" unicode="&#xf6;" horiz-adv-x="491" d="M417 542 C456 542 486 580 486 622 C486 649 467 670 441 670 C401 670 371 633 371 591 C371 564 391 542 417 542 L417 542 Z M232 542 C271 542 301 580 301 622 C301 649 282 670 256 670 C216 670 186 633 186 591 C186 564 206 542 232 542 L232 542 Z M292 467 C133 467 35 319 35 178 C35 65 102 -8 199 -8 C358 -8 456 141 456 281 C456 394 389 467 292 467 L292 467 Z M208 28 C149 28 122 69 122 146 C122 241 170 431 283 431 C342 431 369 393 369 313 C369 218 321 28 208 28 L208 28 Z " />
<glyph glyph-name="divide" unicode="&#xf7;" horiz-adv-x="541" d="M503 280 L518 335 L77 335 L63 280 L503 280 Z M333 403 C367 403 395 430 395 464 C395 498 367 525 333 525 C298 525 270 498 270 464 C270 430 298 403 333 403 L333 403 Z M248 90 C282 90 310 117 310 151 C310 185 282 212 248 212 C213 212 186 185 186 151 C186 117 213 90 248 90 L248 90 Z " />
<glyph glyph-name="oslash" unicode="&#xf8;" horiz-adv-x="491" d="M9 -24 L57 -24 L98 25 C125 4 160 -8 199 -8 C358 -8 456 141 456 281 C456 333 442 376 417 408 L482 483 L434 483 L392 433 C365 455 331 467 292 467 C133 467 35 319 35 178 C35 126 49 83 74 51 L9 -24 Z M122 146 C122 241 170 431 283 431 C318 431 342 417 356 388 L124 108 C123 120 122 132 122 146 L122 146 Z M208 28 C173 28 149 42 136 70 L366 350 C368 339 369 326 369 313 C369 218 321 28 208 28 L208 28 Z " />
<glyph glyph-name="ugrave" unicode="&#xf9;" horiz-adv-x="554" d="M65 147 C58 126 54 104 54 86 C54 33 84 -8 156 -8 C211 -8 274 21 332 84 L336 80 C335 73 334 65 334 58 C334 16 359 -7 414 -7 C453 -7 484 -1 494 3 L494 35 C433 35 411 43 411 71 C411 86 415 100 421 122 L524 459 L427 459 L393 301 L344 128 C300 86 256 54 210 54 C163 54 141 74 141 109 C141 123 145 140 152 160 L247 461 L75 455 L75 420 C140 416 148 406 138 371 L65 147 Z M337 534 L373 534 L307 666 C283 715 271 731 248 731 C225 731 206 714 206 689 C206 673 221 653 244 630 L337 534 Z " />
<glyph glyph-name="uacute" unicode="&#xfa;" horiz-adv-x="554" d="M294 534 L335 534 L430 610 C483 652 502 671 502 695 C502 716 488 731 466 731 C441 731 423 714 383 658 L294 534 Z M65 147 C58 126 54 104 54 86 C54 33 84 -8 156 -8 C211 -8 274 21 332 84 L336 80 C335 73 334 65 334 58 C334 16 359 -7 414 -7 C453 -7 484 -1 494 3 L494 35 C433 35 411 43 411 71 C411 86 415 100 421 122 L524 459 L427 459 L393 301 L344 128 C300 86 256 54 210 54 C163 54 141 74 141 109 C141 123 145 140 152 160 L247 461 L75 455 L75 420 C140 416 148 406 138 371 L65 147 Z " />
<glyph glyph-name="ucircumflex" unicode="&#xfb;" horiz-adv-x="554" d="M216 534 L258 534 L377 632 L442 534 L479 534 L417 717 L384 717 L216 534 Z M65 147 C58 126 54 104 54 86 C54 33 84 -8 156 -8 C211 -8 274 21 332 84 L336 80 C335 73 334 65 334 58 C334 16 359 -7 414 -7 C453 -7 484 -1 494 3 L494 35 C433 35 411 43 411 71 C411 86 415 100 421 122 L524 459 L427 459 L393 301 L344 128 C300 86 256 54 210 54 C163 54 141 74 141 109 C141 123 145 140 152 160 L247 461 L75 455 L75 420 C140 416 148 406 138 371 L65 147 Z " />
<glyph glyph-name="udieresis" unicode="&#xfc;" horiz-adv-x="554" d="M452 542 C491 542 521 580 521 622 C521 649 502 670 476 670 C436 670 406 633 406 591 C406 564 426 542 452 542 L452 542 Z M267 542 C306 542 336 580 336 622 C336 649 317 670 291 670 C251 670 221 633 221 591 C221 564 241 542 267 542 L267 542 Z M65 147 C58 126 54 104 54 86 C54 33 84 -8 156 -8 C211 -8 274 21 332 84 L336 80 C335 73 334 65 334 58 C334 16 359 -7 414 -7 C453 -7 484 -1 494 3 L494 35 C433 35 411 43 411 71 C411 86 415 100 421 122 L524 459 L427 459 L393 301 L344 128 C300 86 256 54 210 54 C163 54 141 74 141 109 C141 123 145 140 152 160 L247 461 L75 455 L75 420 C140 416 148 406 138 371 L65 147 Z " />
<glyph glyph-name="yacute" unicode="&#xfd;" horiz-adv-x="462" d="M188 462 L30 448 L30 413 C98 411 107 400 114 367 L147 177 L182 -22 C144 -79 109 -120 55 -149 C56 -143 57 -136 57 -130 C57 -98 37 -72 1 -72 C-29 -72 -54 -98 -54 -132 C-54 -171 -25 -200 20 -200 C103 -200 176 -112 320 112 C420 267 456 353 456 395 C456 437 436 467 398 467 C366 467 343 441 343 407 C343 377 355 358 382 341 C375 300 359 258 310 170 L257 76 L241 76 L212 277 L188 462 Z M234 534 L275 534 L370 610 C423 652 442 671 442 695 C442 716 428 731 406 731 C381 731 363 714 323 658 L234 534 Z " />
<glyph glyph-name="thorn" unicode="&#xfe;" horiz-adv-x="513" d="M215 398 L211 402 L297 697 L97 690 L97 655 C162 651 187 638 179 607 L111 338 L16 -17 L-18 -126 C-23 -145 -45 -154 -105 -157 L-105 -192 L163 -192 L163 -157 C90 -155 70 -149 75 -128 L112 18 C136 4 168 -5 200 -5 C353 -5 479 176 479 319 C479 416 428 467 361 467 C306 467 266 440 215 398 L215 398 Z M212 33 C176 33 144 50 132 88 L198 351 C239 391 280 411 311 411 C367 411 385 367 385 305 C385 170 314 33 212 33 L212 33 Z " />
<glyph glyph-name="ydieresis" unicode="&#xff;" horiz-adv-x="462" d="M188 462 L30 448 L30 413 C98 411 107 400 114 367 L147 177 L182 -22 C144 -79 109 -120 55 -149 C56 -143 57 -136 57 -130 C57 -98 37 -72 1 -72 C-29 -72 -54 -98 -54 -132 C-54 -171 -25 -200 20 -200 C103 -200 176 -112 320 112 C420 267 456 353 456 395 C456 437 436 467 398 467 C366 467 343 441 343 407 C343 377 355 358 382 341 C375 300 359 258 310 170 L257 76 L241 76 L212 277 L188 462 Z M392 542 C431 542 461 580 461 622 C461 649 442 670 416 670 C376 670 346 633 346 591 C346 564 366 542 392 542 L392 542 Z M207 542 C246 542 276 580 276 622 C276 649 257 670 231 670 C191 670 161 633 161 591 C161 564 181 542 207 542 L207 542 Z " />
<glyph glyph-name="Amacron" unicode="&#x100;" horiz-adv-x="664" d="M-47 0 L182 0 L191 35 C110 51 106 65 160 155 L211 240 L442 240 L459 113 C467 56 456 39 366 35 L356 0 L632 0 L642 35 C573 43 564 61 556 117 L476 668 L421 668 L116 174 C57 78 37 51 -37 35 L-47 0 Z M436 280 L235 280 L395 550 L401 550 L436 280 Z M326 764 L577 764 L594 827 L343 827 L326 764 Z " />
<glyph glyph-name="amacron" unicode="&#x101;" horiz-adv-x="529" d="M455 304 L513 466 L423 455 L407 405 C388 444 360 467 306 467 C165 467 36 290 36 147 C36 48 87 -8 169 -8 C228 -8 273 18 323 90 L327 89 C325 76 323 62 323 50 C323 5 351 -7 405 -7 C437 -7 470 -1 480 3 L480 35 C417 35 395 43 395 74 C395 85 398 99 403 117 L455 304 Z M307 431 C347 431 379 401 385 342 L328 153 C294 85 250 46 207 46 C154 46 129 82 129 156 C129 246 201 431 307 431 L307 431 Z M218 556 L469 556 L486 619 L235 619 L218 556 Z " />
<glyph glyph-name="Abreve" unicode="&#x102;" horiz-adv-x="664" d="M-47 0 L182 0 L191 35 C110 51 106 65 160 155 L211 240 L442 240 L459 113 C467 56 456 39 366 35 L356 0 L632 0 L642 35 C573 43 564 61 556 117 L476 668 L421 668 L116 174 C57 78 37 51 -37 35 L-47 0 Z M436 280 L235 280 L395 550 L401 550 L436 280 Z M469 750 C546 750 605 808 631 905 L595 905 C565 846 532 813 476 813 C421 813 399 847 395 905 L362 905 C343 806 386 750 469 750 L469 750 Z " />
<glyph glyph-name="abreve" unicode="&#x103;" horiz-adv-x="529" d="M455 304 L513 466 L423 455 L407 405 C388 444 360 467 306 467 C165 467 36 290 36 147 C36 48 87 -8 169 -8 C228 -8 273 18 323 90 L327 89 C325 76 323 62 323 50 C323 5 351 -7 405 -7 C437 -7 470 -1 480 3 L480 35 C417 35 395 43 395 74 C395 85 398 99 403 117 L455 304 Z M307 431 C347 431 379 401 385 342 L328 153 C294 85 250 46 207 46 C154 46 129 82 129 156 C129 246 201 431 307 431 L307 431 Z M362 542 C439 542 498 600 524 697 L488 697 C458 638 425 605 369 605 C314 605 292 639 288 697 L255 697 C236 598 279 542 362 542 L362 542 Z " />
<glyph glyph-name="Aogonek" unicode="&#x104;" horiz-adv-x="652" d="M424 -243 C457 -243 484 -232 517 -212 L507 -183 C487 -193 468 -199 453 -199 C426 -199 411 -186 411 -160 C411 -128 426 -94 505 -39 L562 0 L632 0 L642 35 C573 43 564 61 556 117 L476 668 L421 668 L116 174 C57 78 37 51 -37 35 L-47 0 L182 0 L191 35 C110 51 106 65 160 155 L211 240 L442 240 L459 113 C467 56 456 39 366 35 L356 0 L508 0 L467 -24 C368 -81 338 -128 338 -173 C338 -215 371 -243 424 -243 L424 -243 Z M436 280 L235 280 L395 550 L401 550 L436 280 Z " />
<glyph glyph-name="aogonek" unicode="&#x105;" horiz-adv-x="529" d="M479 33 C416 33 394 41 394 72 C394 83 397 97 403 115 L455 304 L513 466 L423 455 L407 405 C388 444 360 467 306 467 C165 467 36 290 36 147 C36 48 87 -8 169 -8 C228 -8 273 18 323 90 L327 89 C324 75 322 60 322 48 C322 3 350 -9 403 -9 L411 -9 L384 -22 C269 -79 240 -128 240 -173 C240 -215 274 -243 326 -243 C359 -243 386 -232 419 -212 L409 -183 C389 -193 371 -199 355 -199 C328 -199 313 -186 313 -160 C313 -128 329 -96 396 -53 L479 1 L479 33 Z M307 431 C347 431 379 401 385 342 L328 153 C294 85 250 46 207 46 C154 46 129 82 129 156 C129 246 201 431 307 431 L307 431 Z " />
<glyph glyph-name="Cacute" unicode="&#x106;" horiz-adv-x="659" d="M422 742 L463 742 L558 818 C611 860 630 879 630 903 C630 924 616 939 594 939 C569 939 551 922 511 866 L422 742 Z M320 -16 C469 -16 557 83 620 173 L586 194 C519 104 460 43 356 43 C235 43 169 120 169 250 C169 415 278 632 447 632 C526 632 570 576 597 444 L630 444 L692 671 L658 671 L608 622 C576 647 530 674 460 674 C228 674 63 463 63 255 C63 95 171 -16 320 -16 L320 -16 Z " />
<glyph glyph-name="cacute" unicode="&#x107;" horiz-adv-x="432" d="M244 534 L285 534 L380 610 C433 652 452 671 452 695 C452 716 438 731 416 731 C391 731 373 714 333 658 L244 534 Z M289 467 C153 467 36 321 36 176 C36 60 112 -8 209 -8 C279 -8 337 23 389 95 L361 120 C320 65 276 40 227 40 C163 40 127 94 127 170 C127 285 193 432 294 432 C317 432 336 422 346 407 C323 395 312 370 312 353 C312 320 333 302 363 302 C398 302 421 328 421 370 C421 427 363 467 289 467 L289 467 Z " />
<glyph glyph-name="Cdotaccent" unicode="&#x10a;" horiz-adv-x="659" d="M320 -16 C469 -16 557 83 620 173 L586 194 C519 104 460 43 356 43 C235 43 169 120 169 250 C169 415 278 632 447 632 C526 632 570 576 597 444 L630 444 L692 671 L658 671 L608 622 C576 647 530 674 460 674 C228 674 63 463 63 255 C63 95 171 -16 320 -16 L320 -16 Z M489 750 C528 750 558 795 558 837 C558 869 539 884 513 884 C474 884 443 841 443 799 C443 766 463 750 489 750 L489 750 Z " />
<glyph glyph-name="cdotaccent" unicode="&#x10b;" horiz-adv-x="432" d="M289 467 C153 467 36 321 36 176 C36 60 112 -8 209 -8 C279 -8 337 23 389 95 L361 120 C320 65 276 40 227 40 C163 40 127 94 127 170 C127 285 193 432 294 432 C317 432 336 422 346 407 C323 395 312 370 312 353 C312 320 333 302 363 302 C398 302 421 328 421 370 C421 427 363 467 289 467 L289 467 Z M311 542 C350 542 380 587 380 629 C380 661 361 676 335 676 C296 676 265 633 265 591 C265 558 285 542 311 542 L311 542 Z " />
<glyph glyph-name="Ccaron" unicode="&#x10c;" horiz-adv-x="659" d="M458 742 L491 742 L659 925 L617 925 L498 827 L433 925 L396 925 L458 742 Z M320 -16 C469 -16 557 83 620 173 L586 194 C519 104 460 43 356 43 C235 43 169 120 169 250 C169 415 278 632 447 632 C526 632 570 576 597 444 L630 444 L692 671 L658 671 L608 622 C576 647 530 674 460 674 C228 674 63 463 63 255 C63 95 171 -16 320 -16 L320 -16 Z " />
<glyph glyph-name="ccaron" unicode="&#x10d;" horiz-adv-x="432" d="M280 534 L313 534 L481 717 L439 717 L320 619 L255 717 L218 717 L280 534 Z M289 467 C153 467 36 321 36 176 C36 60 112 -8 209 -8 C279 -8 337 23 389 95 L361 120 C320 65 276 40 227 40 C163 40 127 94 127 170 C127 285 193 432 294 432 C317 432 336 422 346 407 C323 395 312 370 312 353 C312 320 333 302 363 302 C398 302 421 328 421 370 C421 427 363 467 289 467 L289 467 Z " />
<glyph glyph-name="Dcaron" unicode="&#x10e;" horiz-adv-x="724" d="M458 742 L491 742 L659 925 L617 925 L498 827 L433 925 L396 925 L458 742 Z M104 81 C96 50 74 41 -11 38 L-22 0 L293 0 C430 0 531 48 598 115 C680 197 713 307 713 390 C713 522 634 658 390 658 L154 658 L144 620 C227 617 245 608 237 577 L104 81 Z M192 43 L344 615 L403 615 C554 615 613 529 613 424 C613 338 585 203 502 120 C456 74 394 43 311 43 L192 43 Z " />
<glyph glyph-name="dcaron" unicode="&#x10f;" horiz-adv-x="557" d="M562 697 L367 693 L367 658 C432 654 456 638 449 607 L403 413 C379 442 351 467 296 467 C155 467 36 286 36 158 C36 59 84 -8 172 -8 C231 -8 275 27 317 85 L322 84 C321 74 321 70 321 66 C321 14 345 -7 405 -7 C444 -7 473 -1 483 3 L483 35 C418 35 396 47 396 78 C396 87 398 101 405 126 L562 697 Z M301 431 C346 431 373 400 388 352 L324 144 C291 82 250 46 207 46 C154 46 129 88 129 156 C129 246 191 431 301 431 L301 431 Z M622 545 L651 545 L715 664 C729 689 745 718 745 739 C745 763 729 779 708 779 C673 779 661 748 653 704 L622 545 Z " />
<glyph glyph-name="Dcroat" unicode="&#x110;" horiz-adv-x="724" d="M104 81 C96 50 74 41 -11 38 L-22 0 L293 0 C430 0 531 48 598 115 C680 197 713 307 713 390 C713 522 634 658 390 658 L154 658 L144 620 C227 617 245 608 237 577 L180 367 L86 367 L73 318 L167 318 L104 81 Z M192 43 L265 318 L391 318 L404 367 L278 367 L344 615 L403 615 C554 615 613 529 613 424 C613 338 585 203 502 120 C456 74 394 43 311 43 L192 43 Z " />
<glyph glyph-name="dcroat" unicode="&#x111;" horiz-adv-x="547" d="M562 697 L367 693 L367 658 C432 654 456 638 449 607 L444 585 L269 585 L259 545 L434 545 L403 413 C379 442 351 467 296 467 C155 467 36 286 36 158 C36 59 84 -8 172 -8 C231 -8 275 27 317 85 L322 84 C321 74 321 70 321 66 C321 14 345 -7 405 -7 C444 -7 473 -1 483 3 L483 35 C418 35 396 47 396 78 C396 87 398 101 405 126 L520 545 L591 545 L601 585 L531 585 L562 697 Z M301 431 C346 431 373 400 388 352 L324 144 C291 82 250 46 207 46 C154 46 129 88 129 156 C129 246 191 431 301 431 L301 431 Z " />
<glyph glyph-name="Emacron" unicode="&#x112;" horiz-adv-x="648" d="M154 658 L144 620 C227 617 245 608 237 577 L104 81 C96 50 74 41 -11 38 L-22 0 L536 0 L598 207 L561 207 C505 96 465 44 333 44 L192 44 L267 326 L323 326 C397 326 407 308 407 208 L438 208 L505 469 L474 469 C421 365 399 368 325 368 L278 368 L344 615 L474 615 C586 615 592 578 597 466 L631 466 L678 658 L154 658 Z M327 764 L578 764 L595 827 L344 827 L327 764 Z " />
<glyph glyph-name="emacron" unicode="&#x113;" horiz-adv-x="440" d="M431 366 C431 425 384 467 300 467 C149 467 34 308 34 160 C34 36 122 -8 200 -8 C270 -8 332 24 384 93 L356 119 C316 66 267 40 220 40 C153 40 125 88 125 166 C125 179 126 193 127 206 C339 209 431 289 431 366 L431 366 Z M292 430 C331 430 347 410 347 376 C347 310 311 249 132 239 C154 344 221 430 292 430 L292 430 Z M174 556 L425 556 L442 619 L191 619 L174 556 Z " />
<glyph glyph-name="Ebreve" unicode="&#x114;" horiz-adv-x="648" d="M154 658 L144 620 C227 617 245 608 237 577 L104 81 C96 50 74 41 -11 38 L-22 0 L536 0 L598 207 L561 207 C505 96 465 44 333 44 L192 44 L267 326 L323 326 C397 326 407 308 407 208 L438 208 L505 469 L474 469 C421 365 399 368 325 368 L278 368 L344 615 L474 615 C586 615 592 578 597 466 L631 466 L678 658 L154 658 Z M470 750 C547 750 606 808 632 905 L596 905 C566 846 533 813 477 813 C422 813 400 847 396 905 L363 905 C344 806 387 750 470 750 L470 750 Z " />
<glyph glyph-name="ebreve" unicode="&#x115;" horiz-adv-x="440" d="M431 366 C431 425 384 467 300 467 C149 467 34 308 34 160 C34 36 122 -8 200 -8 C270 -8 332 24 384 93 L356 119 C316 66 267 40 220 40 C153 40 125 88 125 166 C125 179 126 193 127 206 C339 209 431 289 431 366 L431 366 Z M292 430 C331 430 347 410 347 376 C347 310 311 249 132 239 C154 344 221 430 292 430 L292 430 Z M317 542 C394 542 453 600 479 697 L443 697 C413 638 380 605 324 605 C269 605 247 639 243 697 L210 697 C191 598 234 542 317 542 L317 542 Z " />
<glyph glyph-name="Edotaccent" unicode="&#x116;" horiz-adv-x="648" d="M154 658 L144 620 C227 617 245 608 237 577 L104 81 C96 50 74 41 -11 38 L-22 0 L536 0 L598 207 L561 207 C505 96 465 44 333 44 L192 44 L267 326 L323 326 C397 326 407 308 407 208 L438 208 L505 469 L474 469 C421 365 399 368 325 368 L278 368 L344 615 L474 615 C586 615 592 578 597 466 L631 466 L678 658 L154 658 Z M469 750 C508 750 538 795 538 837 C538 869 519 884 493 884 C454 884 423 841 423 799 C423 766 443 750 469 750 L469 750 Z " />
<glyph glyph-name="edotaccent" unicode="&#x117;" horiz-adv-x="440" d="M431 366 C431 425 384 467 300 467 C149 467 34 308 34 160 C34 36 122 -8 200 -8 C270 -8 332 24 384 93 L356 119 C316 66 267 40 220 40 C153 40 125 88 125 166 C125 179 126 193 127 206 C339 209 431 289 431 366 L431 366 Z M292 430 C331 430 347 410 347 376 C347 310 311 249 132 239 C154 344 221 430 292 430 L292 430 Z M316 542 C355 542 385 587 385 629 C385 661 366 676 340 676 C301 676 270 633 270 591 C270 558 290 542 316 542 L316 542 Z " />
<glyph glyph-name="Eogonek" unicode="&#x118;" horiz-adv-x="654" d="M154 658 L144 620 C227 617 245 608 237 577 L104 81 C96 50 74 41 -11 38 L-22 0 L447 0 L406 -24 C307 -81 277 -128 277 -173 C277 -215 310 -243 363 -243 C396 -243 423 -232 456 -212 L446 -183 C426 -193 407 -199 392 -199 C365 -199 350 -186 350 -160 C350 -128 365 -94 444 -39 L501 0 L536 0 L598 207 L561 207 C505 96 465 44 333 44 L192 44 L267 326 L323 326 C397 326 407 308 407 208 L438 208 L505 469 L474 469 C421 365 399 368 325 368 L278 368 L344 615 L474 615 C586 615 592 578 597 466 L631 466 L678 658 L154 658 Z " />
<glyph glyph-name="eogonek" unicode="&#x119;" horiz-adv-x="440" d="M34 160 C34 37 122 -8 199 -8 C203 -8 208 -8 212 -7 L189 -21 C85 -81 55 -128 55 -173 C55 -215 89 -243 141 -243 C174 -243 201 -232 234 -212 L224 -183 C204 -193 186 -199 170 -199 C143 -199 128 -186 128 -160 C128 -128 144 -94 213 -46 L300 15 C330 36 356 57 384 93 L356 119 C316 66 267 40 220 40 C153 40 125 88 125 166 C125 179 126 193 127 206 C339 209 431 289 431 366 C431 425 384 467 300 467 C149 467 34 308 34 160 L34 160 Z M292 430 C331 430 347 410 347 376 C347 310 311 249 132 239 C154 344 221 430 292 430 L292 430 Z " />
<glyph glyph-name="Ecaron" unicode="&#x11a;" horiz-adv-x="648" d="M438 742 L471 742 L639 925 L597 925 L478 827 L413 925 L376 925 L438 742 Z M154 658 L144 620 C227 617 245 608 237 577 L104 81 C96 50 74 41 -11 38 L-22 0 L536 0 L598 207 L561 207 C505 96 465 44 333 44 L192 44 L267 326 L323 326 C397 326 407 308 407 208 L438 208 L505 469 L474 469 C421 365 399 368 325 368 L278 368 L344 615 L474 615 C586 615 592 578 597 466 L631 466 L678 658 L154 658 Z " />
<glyph glyph-name="ecaron" unicode="&#x11b;" horiz-adv-x="440" d="M431 366 C431 425 384 467 300 467 C149 467 34 308 34 160 C34 36 122 -8 200 -8 C270 -8 332 24 384 93 L356 119 C316 66 267 40 220 40 C153 40 125 88 125 166 C125 179 126 193 127 206 C339 209 431 289 431 366 L431 366 Z M292 430 C331 430 347 410 347 376 C347 310 311 249 132 239 C154 344 221 430 292 430 L292 430 Z M285 534 L318 534 L486 717 L444 717 L325 619 L260 717 L223 717 L285 534 Z " />
<glyph glyph-name="Gbreve" unicode="&#x11e;" horiz-adv-x="692" d="M692 671 L658 671 L612 627 C580 649 530 674 460 674 C228 674 63 463 63 255 C63 95 173 -16 325 -16 C434 -16 495 13 566 56 L613 234 C622 267 631 274 692 277 L702 315 L433 315 L423 277 C507 274 523 264 516 234 L474 67 C441 42 405 26 349 26 C240 26 169 108 169 248 C169 416 278 632 447 632 C526 632 567 583 600 457 L633 457 L692 671 Z M490 750 C567 750 626 808 652 905 L616 905 C586 846 553 813 497 813 C442 813 420 847 416 905 L383 905 C364 806 407 750 490 750 L490 750 Z " />
<glyph glyph-name="gbreve" unicode="&#x11f;" horiz-adv-x="513" d="M183 8 C236 8 267 26 303 66 L308 64 L298 29 C260 -115 219 -165 141 -165 C96 -165 68 -146 61 -130 C80 -118 89 -102 89 -82 C89 -50 71 -30 40 -30 C6 -30 -21 -60 -21 -102 C-21 -150 36 -200 135 -200 C272 -200 330 -139 367 -8 L453 304 L511 466 L421 455 L399 391 C382 434 350 467 295 467 C153 467 38 301 38 169 C38 70 90 8 183 8 L183 8 Z M301 431 C345 431 371 389 381 328 L322 129 C288 78 254 55 209 55 C154 55 131 95 131 164 C131 258 188 431 301 431 L301 431 Z M337 542 C414 542 473 600 499 697 L463 697 C433 638 400 605 344 605 C289 605 267 639 263 697 L230 697 C211 598 254 542 337 542 L337 542 Z " />
<glyph glyph-name="Gdotaccent" unicode="&#x120;" horiz-adv-x="692" d="M692 671 L658 671 L612 627 C580 649 530 674 460 674 C228 674 63 463 63 255 C63 95 173 -16 325 -16 C434 -16 495 13 566 56 L613 234 C622 267 631 274 692 277 L702 315 L433 315 L423 277 C507 274 523 264 516 234 L474 67 C441 42 405 26 349 26 C240 26 169 108 169 248 C169 416 278 632 447 632 C526 632 567 583 600 457 L633 457 L692 671 Z M489 750 C528 750 558 795 558 837 C558 869 539 884 513 884 C474 884 443 841 443 799 C443 766 463 750 489 750 L489 750 Z " />
<glyph glyph-name="gdotaccent" unicode="&#x121;" horiz-adv-x="513" d="M183 8 C236 8 267 26 303 66 L308 64 L298 29 C260 -115 219 -165 141 -165 C96 -165 68 -146 61 -130 C80 -118 89 -102 89 -82 C89 -50 71 -30 40 -30 C6 -30 -21 -60 -21 -102 C-21 -150 36 -200 135 -200 C272 -200 330 -139 367 -8 L453 304 L511 466 L421 455 L399 391 C382 434 350 467 295 467 C153 467 38 301 38 169 C38 70 90 8 183 8 L183 8 Z M301 431 C345 431 371 389 381 328 L322 129 C288 78 254 55 209 55 C154 55 131 95 131 164 C131 258 188 431 301 431 L301 431 Z M336 542 C375 542 405 587 405 629 C405 661 386 676 360 676 C321 676 290 633 290 591 C290 558 310 542 336 542 L336 542 Z " />
<glyph glyph-name="Gcommaaccent" unicode="&#x122;" horiz-adv-x="692" d="M152 -316 C250 -279 318 -220 318 -150 C318 -107 294 -81 261 -81 C229 -81 202 -107 202 -140 C202 -172 227 -191 255 -190 L260 -193 C247 -232 207 -261 141 -290 L152 -316 Z M692 671 L658 671 L612 627 C580 649 530 674 460 674 C228 674 63 463 63 255 C63 95 173 -16 325 -16 C434 -16 495 13 566 56 L613 234 C622 267 631 274 692 277 L702 315 L433 315 L423 277 C507 274 523 264 516 234 L474 67 C441 42 405 26 349 26 C240 26 169 108 169 248 C169 416 278 632 447 632 C526 632 567 583 600 457 L633 457 L692 671 Z " />
<glyph glyph-name="gcommaaccent" unicode="&#x123;" horiz-adv-x="513" d="M437 794 C339 757 271 698 271 628 C271 585 295 559 328 559 C360 559 387 585 387 618 C387 650 362 669 334 668 L329 671 C342 710 382 739 448 768 L437 794 Z M183 8 C236 8 267 26 303 66 L308 64 L298 29 C260 -115 219 -165 141 -165 C96 -165 68 -146 61 -130 C80 -118 89 -102 89 -82 C89 -50 71 -30 40 -30 C6 -30 -21 -60 -21 -102 C-21 -150 36 -200 135 -200 C272 -200 330 -139 367 -8 L453 304 L511 466 L421 455 L399 391 C382 434 350 467 295 467 C153 467 38 301 38 169 C38 70 90 8 183 8 L183 8 Z M301 431 C345 431 371 389 381 328 L322 129 C288 78 254 55 209 55 C154 55 131 95 131 164 C131 258 188 431 301 431 L301 431 Z " />
<glyph glyph-name="Hbar" unicode="&#x126;" horiz-adv-x="789" d="M803 469 L815 513 L721 513 L738 577 C746 608 770 617 855 620 L865 658 L566 658 L556 620 C644 617 650 610 641 577 L623 513 L316 513 L334 577 C343 610 353 617 443 620 L453 658 L154 658 L144 620 C227 617 245 608 237 577 L220 513 L124 513 L112 469 L208 469 L104 81 C96 50 74 41 -11 38 L-22 0 L277 0 L288 38 C200 41 192 48 201 81 L264 314 L571 314 L508 81 C499 48 491 41 401 38 L390 0 L689 0 L700 38 C617 41 597 50 605 81 L709 469 L803 469 Z M274 358 L304 469 L611 469 L581 358 L274 358 Z " />
<glyph glyph-name="hbar" unicode="&#x127;" horiz-adv-x="570" d="M473 309 C481 334 484 355 484 374 C484 431 452 464 392 464 C337 464 274 434 214 384 L210 388 L256 545 L427 545 L437 585 L268 585 L301 697 L101 690 L101 655 C166 651 190 638 183 607 L177 585 L105 585 L95 545 L167 545 L70 162 L15 0 L115 0 L197 337 C249 379 290 402 332 402 C377 402 396 381 396 347 C396 332 393 316 386 296 L323 102 C315 80 313 63 313 52 C313 10 342 -7 394 -7 C433 -7 474 -1 484 3 L484 35 C422 35 400 43 400 71 C400 83 404 100 411 122 L473 309 Z " />
<glyph glyph-name="Imacron" unicode="&#x12a;" horiz-adv-x="405" d="M461 620 L471 658 L164 658 L154 620 C237 617 255 608 247 577 L114 81 C106 50 84 41 -1 38 L-12 0 L295 0 L306 38 C223 41 203 50 211 81 L344 577 C352 608 376 617 461 620 L461 620 Z M205 764 L456 764 L473 827 L222 827 L205 764 Z " />
<glyph glyph-name="imacron" unicode="&#x12b;" horiz-adv-x="300" d="M238 37 C169 34 145 43 145 72 C145 85 150 101 156 122 L262 461 L74 454 L74 419 C144 415 157 406 147 371 L63 105 C58 89 56 74 56 62 C56 17 87 -7 139 -7 C178 -7 219 -1 238 5 L238 37 Z M79 556 L330 556 L347 619 L96 619 L79 556 Z " />
<glyph glyph-name="Ibreve" unicode="&#x12c;" horiz-adv-x="405" d="M461 620 L471 658 L164 658 L154 620 C237 617 255 608 247 577 L114 81 C106 50 84 41 -1 38 L-12 0 L295 0 L306 38 C223 41 203 50 211 81 L344 577 C352 608 376 617 461 620 L461 620 Z M348 750 C425 750 484 808 510 905 L474 905 C444 846 411 813 355 813 C300 813 278 847 274 905 L241 905 C222 806 265 750 348 750 L348 750 Z " />
<glyph glyph-name="ibreve" unicode="&#x12d;" horiz-adv-x="300" d="M238 37 C169 34 145 43 145 72 C145 85 150 101 156 122 L262 461 L74 454 L74 419 C144 415 157 406 147 371 L63 105 C58 89 56 74 56 62 C56 17 87 -7 139 -7 C178 -7 219 -1 238 5 L238 37 Z M222 542 C299 542 358 600 384 697 L348 697 C318 638 285 605 229 605 C174 605 152 639 148 697 L115 697 C96 598 139 542 222 542 L222 542 Z " />
<glyph glyph-name="Iogonek" unicode="&#x12e;" horiz-adv-x="405" d="M54 -243 C87 -243 114 -232 147 -212 L137 -183 C117 -193 98 -199 83 -199 C56 -199 41 -186 41 -160 C41 -128 56 -94 135 -39 L192 0 L295 0 L306 38 C223 41 203 50 211 81 L344 577 C352 608 376 617 461 620 L471 658 L164 658 L154 620 C237 617 255 608 247 577 L114 81 C106 50 84 41 -1 38 L-12 0 L138 0 L97 -24 C-2 -81 -32 -128 -32 -173 C-32 -215 1 -243 54 -243 L54 -243 Z " />
<glyph glyph-name="iogonek" unicode="&#x12f;" horiz-adv-x="300" d="M139 -19 C22 -79 -7 -128 -7 -173 C-7 -215 27 -243 79 -243 C112 -243 139 -232 172 -212 L162 -183 C142 -193 124 -199 108 -199 C81 -199 66 -186 66 -160 C66 -127 81 -87 188 -26 L238 5 L238 37 C169 34 145 43 145 72 C145 85 150 101 156 122 L262 461 L74 454 L74 419 C144 415 157 406 147 371 L63 105 C58 89 56 74 56 62 C56 17 87 -7 139 -7 L161 -7 L139 -19 Z M248 580 C287 580 317 625 317 666 C317 699 298 714 272 714 C233 714 202 670 202 629 C202 596 222 580 248 580 L248 580 Z " />
<glyph glyph-name="Idotaccent" unicode="&#x130;" horiz-adv-x="405" d="M461 620 L471 658 L164 658 L154 620 C237 617 255 608 247 577 L114 81 C106 50 84 41 -1 38 L-12 0 L295 0 L306 38 C223 41 203 50 211 81 L344 577 C352 608 376 617 461 620 L461 620 Z M347 750 C386 750 416 795 416 837 C416 869 397 884 371 884 C332 884 301 841 301 799 C301 766 321 750 347 750 L347 750 Z " />
<glyph glyph-name="dotlessi" unicode="&#x131;" horiz-adv-x="300" d="M238 37 C169 34 145 43 145 72 C145 85 150 101 156 122 L262 461 L74 454 L74 419 C144 415 157 406 147 371 L63 105 C58 89 56 74 56 62 C56 17 87 -7 139 -7 C178 -7 219 -1 238 5 L238 37 Z " />
<glyph glyph-name="Kcommaaccent" unicode="&#x136;" horiz-adv-x="724" d="M172 -316 C270 -279 338 -220 338 -150 C338 -107 314 -81 281 -81 C249 -81 222 -107 222 -140 C222 -172 247 -191 275 -190 L280 -193 C267 -232 227 -261 161 -290 L172 -316 Z M796 658 L547 658 L537 623 C611 615 609 591 544 539 L262 309 L334 577 C343 610 353 617 443 620 L453 658 L154 658 L144 620 C227 617 245 608 237 577 L104 81 C96 50 74 41 -11 38 L-22 0 L264 0 L274 38 C198 41 192 48 201 81 L246 249 L342 325 L441 98 C459 58 452 43 371 35 L361 0 L655 0 L665 35 C581 49 568 60 545 110 L419 387 L580 515 C664 582 711 608 786 623 L796 658 Z " />
<glyph glyph-name="kcommaaccent" unicode="&#x137;" horiz-adv-x="509" d="M48 -316 C146 -279 214 -220 214 -150 C214 -107 190 -81 157 -81 C125 -81 98 -107 98 -140 C98 -172 123 -191 151 -190 L156 -193 C143 -232 103 -261 37 -290 L48 -316 Z M301 697 L101 690 L101 655 C166 651 191 638 183 607 L70 162 L15 0 L115 0 L174 240 L207 240 C265 240 297 214 297 160 C297 133 291 92 291 51 C291 10 305 -7 372 -7 C411 -7 452 -1 462 3 L462 35 C390 35 379 43 379 67 C379 100 386 133 386 160 C386 220 361 251 288 263 L288 267 C342 323 360 402 398 411 C394 404 391 393 391 385 C391 353 408 338 436 338 C471 338 495 365 495 405 C495 437 473 467 433 467 C326 467 298 271 227 271 L180 271 L301 697 Z " />
<glyph glyph-name="Lacute" unicode="&#x139;" horiz-adv-x="600" d="M300 741 L341 741 L436 817 C489 859 508 878 508 902 C508 923 494 938 472 938 C447 938 429 921 389 865 L300 741 Z M334 577 C342 608 366 617 451 620 L461 658 L154 658 L144 620 C227 617 245 608 237 577 L104 81 C96 50 75 41 -10 38 L-20 0 L503 0 L568 217 L530 217 C453 78 419 45 287 45 L193 45 L334 577 Z " />
<glyph glyph-name="lacute" unicode="&#x13a;" horiz-adv-x="290" d="M215 773 L256 773 L351 849 C404 891 423 910 423 934 C423 955 409 970 387 970 C362 970 344 953 304 897 L215 773 Z M310 697 L118 690 L118 655 C183 651 207 638 199 607 L160 458 L54 105 C50 89 47 74 47 62 C47 16 79 -7 131 -7 C170 -7 214 5 233 11 L233 43 C159 39 135 44 135 72 C135 82 138 96 143 114 L310 697 Z " />
<glyph glyph-name="Lcommaaccent" unicode="&#x13b;" horiz-adv-x="600" d="M142 -316 C240 -279 308 -220 308 -150 C308 -107 284 -81 251 -81 C219 -81 192 -107 192 -140 C192 -172 217 -191 245 -190 L250 -193 C237 -232 197 -261 131 -290 L142 -316 Z M334 577 C342 608 366 617 451 620 L461 658 L154 658 L144 620 C227 617 245 608 237 577 L104 81 C96 50 75 41 -10 38 L-20 0 L503 0 L568 217 L530 217 C453 78 419 45 287 45 L193 45 L334 577 Z " />
<glyph glyph-name="lcommaaccent" unicode="&#x13c;" horiz-adv-x="290" d="M-32 -316 C66 -279 134 -220 134 -150 C134 -107 110 -81 77 -81 C45 -81 18 -107 18 -140 C18 -172 43 -191 71 -190 L76 -193 C63 -232 23 -261 -43 -290 L-32 -316 Z M310 697 L118 690 L118 655 C183 651 207 638 199 607 L160 458 L54 105 C50 89 47 74 47 62 C47 16 79 -7 131 -7 C170 -7 214 5 233 11 L233 43 C159 39 135 44 135 72 C135 82 138 96 143 114 L310 697 Z " />
<glyph glyph-name="Lcaron" unicode="&#x13d;" horiz-adv-x="600" d="M510 545 L539 545 L603 664 C617 689 633 718 633 739 C633 763 617 779 596 779 C561 779 549 748 541 704 L510 545 Z M334 577 C342 608 366 617 451 620 L461 658 L154 658 L144 620 C227 617 245 608 237 577 L104 81 C96 50 75 41 -10 38 L-20 0 L503 0 L568 217 L530 217 C453 78 419 45 287 45 L193 45 L334 577 Z " />
<glyph glyph-name="lcaron" unicode="&#x13e;" horiz-adv-x="290" d="M368 545 L397 545 L461 664 C475 689 491 718 491 739 C491 763 475 779 454 779 C419 779 407 748 399 704 L368 545 Z M310 697 L118 690 L118 655 C183 651 207 638 199 607 L160 458 L54 105 C50 89 47 74 47 62 C47 16 79 -7 131 -7 C170 -7 214 5 233 11 L233 43 C159 39 135 44 135 72 C135 82 138 96 143 114 L310 697 Z " />
<glyph glyph-name="Ldot" unicode="&#x13f;" horiz-adv-x="600" d="M-22 0 L503 0 L563 204 L525 204 C450 76 419 45 287 45 L193 45 L334 577 C342 608 366 617 451 620 L459 658 L152 658 L144 620 C227 617 245 608 237 577 L104 81 C96 50 74 41 -11 38 L-22 0 Z M511 276 C550 276 580 321 580 363 C580 395 561 410 535 410 C496 410 465 367 465 325 C465 292 485 276 511 276 L511 276 Z " />
<glyph glyph-name="ldot" unicode="&#x140;" horiz-adv-x="339" d="M323 273 C361 273 390 316 390 357 C390 388 372 403 346 403 C309 403 279 361 279 320 C279 288 298 273 323 273 L323 273 Z M310 697 L118 690 L118 655 C183 651 207 638 199 607 L160 458 L54 105 C50 89 47 74 47 62 C47 16 79 -7 131 -7 C170 -7 214 5 233 11 L233 43 C159 39 135 44 135 72 C135 82 138 96 143 114 L310 697 Z " />
<glyph glyph-name="Lslash" unicode="&#x141;" horiz-adv-x="600" d="M334 577 C342 608 366 617 451 620 L461 658 L154 658 L144 620 C227 617 245 608 237 577 L173 340 L64 312 L64 265 L160 289 L104 81 C96 50 75 41 -10 38 L-20 0 L503 0 L568 217 L530 217 C453 78 419 45 287 45 L193 45 L265 316 L415 355 L415 401 L278 366 L334 577 Z " />
<glyph glyph-name="lslash" unicode="&#x142;" horiz-adv-x="330" d="M330 697 L138 690 L138 655 C203 651 227 638 219 607 L180 458 L151 363 L45 337 L45 291 L136 313 L74 105 C70 89 67 74 67 62 C67 16 99 -7 151 -7 C190 -7 234 5 253 11 L253 43 C179 39 155 44 155 72 C155 82 158 96 163 114 L226 335 L342 364 L342 411 L241 386 L330 697 Z " />
<glyph glyph-name="Nacute" unicode="&#x143;" horiz-adv-x="769" d="M444 742 L485 742 L580 818 C633 860 652 879 652 903 C652 924 638 939 616 939 C591 939 573 922 533 866 L444 742 Z M338 658 L154 658 L143 620 C223 618 239 589 229 552 L125 164 C101 73 81 50 -13 35 L-22 0 L246 0 L255 35 C162 49 152 74 176 164 L279 548 L282 548 L536 -16 L579 -16 L716 495 C740 586 752 607 845 623 L854 658 L592 658 L583 623 C675 609 689 586 665 495 L573 147 L569 147 L338 658 Z " />
<glyph glyph-name="nacute" unicode="&#x144;" horiz-adv-x="536" d="M279 534 L320 534 L415 610 C468 652 487 671 487 695 C487 716 473 731 451 731 C426 731 408 714 368 658 L279 534 Z M73 162 L18 0 L118 0 L200 337 C252 379 293 402 335 402 C380 402 399 381 399 347 C399 332 396 316 389 296 L326 102 C318 80 316 63 316 52 C316 10 345 -7 397 -7 C436 -7 477 -1 487 3 L487 35 C425 35 403 43 403 71 C403 83 407 100 414 122 L476 309 C484 334 487 355 487 374 C487 431 455 464 395 464 C340 464 277 434 217 384 L213 388 L237 461 L68 455 L68 420 C133 416 140 406 131 371 L73 162 Z " />
<glyph glyph-name="Ncommaaccent" unicode="&#x145;" horiz-adv-x="769" d="M198 -316 C296 -279 364 -220 364 -150 C364 -107 340 -81 307 -81 C275 -81 248 -107 248 -140 C248 -172 273 -191 301 -190 L306 -193 C293 -232 253 -261 187 -290 L198 -316 Z M338 658 L154 658 L143 620 C223 618 239 589 229 552 L125 164 C101 73 81 50 -13 35 L-22 0 L246 0 L255 35 C162 49 152 74 176 164 L279 548 L282 548 L536 -16 L579 -16 L716 495 C740 586 752 607 845 623 L854 658 L592 658 L583 623 C675 609 689 586 665 495 L573 147 L569 147 L338 658 Z " />
<glyph glyph-name="ncommaaccent" unicode="&#x146;" horiz-adv-x="536" d="M64 -316 C162 -279 230 -220 230 -150 C230 -107 206 -81 173 -81 C141 -81 114 -107 114 -140 C114 -172 139 -191 167 -190 L172 -193 C159 -232 119 -261 53 -290 L64 -316 Z M73 162 L18 0 L118 0 L200 337 C252 379 293 402 335 402 C380 402 399 381 399 347 C399 332 396 316 389 296 L326 102 C318 80 316 63 316 52 C316 10 345 -7 397 -7 C436 -7 477 -1 487 3 L487 35 C425 35 403 43 403 71 C403 83 407 100 414 122 L476 309 C484 334 487 355 487 374 C487 431 455 464 395 464 C340 464 277 434 217 384 L213 388 L237 461 L68 455 L68 420 C133 416 140 406 131 371 L73 162 Z " />
<glyph glyph-name="Ncaron" unicode="&#x147;" horiz-adv-x="769" d="M481 742 L514 742 L682 925 L640 925 L521 827 L456 925 L419 925 L481 742 Z M338 658 L154 658 L143 620 C223 618 239 589 229 552 L125 164 C101 73 81 50 -13 35 L-22 0 L246 0 L255 35 C162 49 152 74 176 164 L279 548 L282 548 L536 -16 L579 -16 L716 495 C740 586 752 607 845 623 L854 658 L592 658 L583 623 C675 609 689 586 665 495 L573 147 L569 147 L338 658 Z " />
<glyph glyph-name="ncaron" unicode="&#x148;" horiz-adv-x="536" d="M315 534 L348 534 L516 717 L474 717 L355 619 L290 717 L253 717 L315 534 Z M73 162 L18 0 L118 0 L200 337 C252 379 293 402 335 402 C380 402 399 381 399 347 C399 332 396 316 389 296 L326 102 C318 80 316 63 316 52 C316 10 345 -7 397 -7 C436 -7 477 -1 487 3 L487 35 C425 35 403 43 403 71 C403 83 407 100 414 122 L476 309 C484 334 487 355 487 374 C487 431 455 464 395 464 C340 464 277 434 217 384 L213 388 L237 461 L68 455 L68 420 C133 416 140 406 131 371 L73 162 Z " />
<glyph glyph-name="Omacron" unicode="&#x14c;" horiz-adv-x="724" d="M365 764 L616 764 L633 827 L382 827 L365 764 Z M318 -16 C547 -16 713 195 713 403 C713 561 605 674 458 674 C229 674 63 463 63 255 C63 97 171 -16 318 -16 L318 -16 Z M325 26 C218 26 163 107 163 222 C163 408 282 632 451 632 C558 632 613 551 613 436 C613 250 494 26 325 26 L325 26 Z " />
<glyph glyph-name="omacron" unicode="&#x14d;" horiz-adv-x="491" d="M184 556 L435 556 L452 619 L201 619 L184 556 Z M292 467 C133 467 35 319 35 178 C35 65 102 -8 199 -8 C358 -8 456 141 456 281 C456 394 389 467 292 467 L292 467 Z M208 28 C149 28 122 69 122 146 C122 241 170 431 283 431 C342 431 369 393 369 313 C369 218 321 28 208 28 L208 28 Z " />
<glyph glyph-name="Obreve" unicode="&#x14e;" horiz-adv-x="724" d="M318 -16 C547 -16 713 195 713 403 C713 561 605 674 458 674 C229 674 63 463 63 255 C63 97 171 -16 318 -16 L318 -16 Z M325 26 C218 26 163 107 163 222 C163 408 282 632 451 632 C558 632 613 551 613 436 C613 250 494 26 325 26 L325 26 Z M508 750 C585 750 644 808 670 905 L634 905 C604 846 571 813 515 813 C460 813 438 847 434 905 L401 905 C382 806 425 750 508 750 L508 750 Z " />
<glyph glyph-name="obreve" unicode="&#x14f;" horiz-adv-x="491" d="M292 467 C133 467 35 319 35 178 C35 65 102 -8 199 -8 C358 -8 456 141 456 281 C456 394 389 467 292 467 L292 467 Z M208 28 C149 28 122 69 122 146 C122 241 170 431 283 431 C342 431 369 393 369 313 C369 218 321 28 208 28 L208 28 Z M327 542 C404 542 463 600 489 697 L453 697 C423 638 390 605 334 605 C279 605 257 639 253 697 L220 697 C201 598 244 542 327 542 L327 542 Z " />
<glyph glyph-name="Ohungarumlaut" unicode="&#x150;" horiz-adv-x="724" d="M378 742 L418 742 L510 818 C562 861 585 880 585 904 C585 922 570 939 548 939 C524 939 507 922 467 866 L378 742 Z M543 742 L583 742 L675 818 C727 861 750 880 750 904 C750 922 735 939 713 939 C689 939 672 922 632 866 L543 742 Z M318 -16 C547 -16 713 195 713 403 C713 561 605 674 458 674 C229 674 63 463 63 255 C63 97 171 -16 318 -16 L318 -16 Z M325 26 C218 26 163 107 163 222 C163 408 282 632 451 632 C558 632 613 551 613 436 C613 250 494 26 325 26 L325 26 Z " />
<glyph glyph-name="ohungarumlaut" unicode="&#x151;" horiz-adv-x="491" d="M197 534 L237 534 L329 610 C381 653 404 672 404 696 C404 714 389 731 367 731 C343 731 326 714 286 658 L197 534 Z M362 534 L402 534 L494 610 C546 653 569 672 569 696 C569 714 554 731 532 731 C508 731 491 714 451 658 L362 534 Z M292 467 C133 467 35 319 35 178 C35 65 102 -8 199 -8 C358 -8 456 141 456 281 C456 394 389 467 292 467 L292 467 Z M208 28 C149 28 122 69 122 146 C122 241 170 431 283 431 C342 431 369 393 369 313 C369 218 321 28 208 28 L208 28 Z " />
<glyph glyph-name="OE" unicode="&#x152;" horiz-adv-x="985" d="M873 0 L935 207 L898 207 C842 96 802 44 670 44 L529 44 L604 326 L660 326 C734 326 744 308 744 208 L775 208 L842 469 L811 469 C758 365 736 368 662 368 L615 368 L681 615 L811 615 C923 615 929 578 934 466 L968 466 L1015 658 L483 658 C346 658 245 610 178 543 C96 461 63 351 63 268 C63 136 142 0 386 0 L873 0 Z M584 615 L432 43 L373 43 C222 43 163 129 163 234 C163 320 191 455 274 538 C320 584 382 615 465 615 L584 615 Z " />
<glyph glyph-name="oe" unicode="&#x153;" horiz-adv-x="765" d="M624 467 C549 467 484 427 439 369 C414 429 360 467 292 467 C133 467 35 319 35 178 C35 65 102 -8 199 -8 C276 -8 338 27 382 80 C408 16 466 -8 524 -8 C594 -8 656 24 708 93 L680 119 C640 66 591 40 544 40 C477 40 449 88 449 166 C449 179 450 193 451 206 C663 209 755 289 755 366 C755 425 708 467 624 467 L624 467 Z M208 28 C149 28 122 75 122 146 C122 241 170 431 283 431 C342 431 369 393 369 313 C369 218 321 28 208 28 L208 28 Z M616 430 C655 430 671 410 671 376 C671 310 635 249 456 239 C478 344 545 430 616 430 L616 430 Z " />
<glyph glyph-name="Racute" unicode="&#x154;" horiz-adv-x="665" d="M393 742 L434 742 L529 818 C582 860 601 879 601 903 C601 924 587 939 565 939 C540 939 522 922 482 866 L393 742 Z M274 352 L344 615 L398 615 C506 615 539 577 539 510 C539 418 466 352 340 352 L274 352 Z M144 620 C227 617 245 608 237 577 L104 81 C96 50 74 41 -11 38 L-22 0 L284 0 L295 38 C205 41 192 48 201 81 L262 310 L333 310 C445 310 464 273 456 188 L449 113 C441 25 448 -7 589 -7 C596 -7 616 -6 623 -6 L633 32 C565 37 549 47 551 103 L554 178 C558 273 535 309 437 328 L439 333 C563 349 644 419 644 507 C644 592 588 658 400 658 L154 658 L144 620 Z " />
<glyph glyph-name="racute" unicode="&#x155;" horiz-adv-x="410" d="M232 534 L273 534 L368 610 C421 652 440 671 440 695 C440 716 426 731 404 731 C379 731 361 714 321 658 L232 534 Z M363 464 C311 464 264 427 218 374 L214 378 L237 461 L68 455 L68 420 C133 416 140 406 131 371 L73 162 L18 0 L118 0 L194 309 C245 378 282 398 324 409 C319 400 316 387 316 379 C316 347 336 331 367 331 C402 331 426 358 426 402 C426 435 403 464 363 464 L363 464 Z " />
<glyph glyph-name="Rcommaaccent" unicode="&#x156;" horiz-adv-x="665" d="M168 -316 C266 -279 334 -220 334 -150 C334 -107 310 -81 277 -81 C245 -81 218 -107 218 -140 C218 -172 243 -191 271 -190 L276 -193 C263 -232 223 -261 157 -290 L168 -316 Z M274 352 L344 615 L398 615 C506 615 539 577 539 510 C539 418 466 352 340 352 L274 352 Z M144 620 C227 617 245 608 237 577 L104 81 C96 50 74 41 -11 38 L-22 0 L284 0 L295 38 C205 41 192 48 201 81 L262 310 L333 310 C445 310 464 273 456 188 L449 113 C441 25 448 -7 589 -7 C596 -7 616 -6 623 -6 L633 32 C565 37 549 47 551 103 L554 178 C558 273 535 309 437 328 L439 333 C563 349 644 419 644 507 C644 592 588 658 400 658 L154 658 L144 620 Z " />
<glyph glyph-name="rcommaaccent" unicode="&#x157;" horiz-adv-x="410" d="M-67 -316 C31 -279 99 -220 99 -150 C99 -107 75 -81 42 -81 C10 -81 -17 -107 -17 -140 C-17 -172 8 -191 36 -190 L41 -193 C28 -232 -12 -261 -78 -290 L-67 -316 Z M363 464 C311 464 264 427 218 374 L214 378 L237 461 L68 455 L68 420 C133 416 140 406 131 371 L73 162 L18 0 L118 0 L194 309 C245 378 282 398 324 409 C319 400 316 387 316 379 C316 347 336 331 367 331 C402 331 426 358 426 402 C426 435 403 464 363 464 L363 464 Z " />
<glyph glyph-name="Rcaron" unicode="&#x158;" horiz-adv-x="665" d="M430 742 L463 742 L631 925 L589 925 L470 827 L405 925 L368 925 L430 742 Z M274 352 L344 615 L398 615 C506 615 539 577 539 510 C539 418 466 352 340 352 L274 352 Z M144 620 C227 617 245 608 237 577 L104 81 C96 50 74 41 -11 38 L-22 0 L284 0 L295 38 C205 41 192 48 201 81 L262 310 L333 310 C445 310 464 273 456 188 L449 113 C441 25 448 -7 589 -7 C596 -7 616 -6 623 -6 L633 32 C565 37 549 47 551 103 L554 178 C558 273 535 309 437 328 L439 333 C563 349 644 419 644 507 C644 592 588 658 400 658 L154 658 L144 620 Z " />
<glyph glyph-name="rcaron" unicode="&#x159;" horiz-adv-x="410" d="M269 534 L302 534 L470 717 L428 717 L309 619 L244 717 L207 717 L269 534 Z M363 464 C311 464 264 427 218 374 L214 378 L237 461 L68 455 L68 420 C133 416 140 406 131 371 L73 162 L18 0 L118 0 L194 309 C245 378 282 398 324 409 C319 400 316 387 316 379 C316 347 336 331 367 331 C402 331 426 358 426 402 C426 435 403 464 363 464 L363 464 Z " />
<glyph glyph-name="Sacute" unicode="&#x15a;" horiz-adv-x="533" d="M347 742 L388 742 L483 818 C536 860 555 879 555 903 C555 924 541 939 519 939 C494 939 476 922 436 866 L347 742 Z M-7 -20 L22 -20 L75 28 C114 5 186 -16 240 -16 C413 -16 484 95 484 207 C484 299 433 339 356 377 C289 411 227 436 227 507 C227 577 280 632 352 632 C427 632 459 595 497 471 L530 471 L583 679 L549 679 L512 638 C481 655 435 674 378 674 C230 674 135 578 135 466 C135 384 174 344 267 302 C364 257 396 215 396 157 C396 86 351 26 260 26 C187 26 135 52 82 196 L47 196 L-7 -20 Z " />
<glyph glyph-name="sacute" unicode="&#x15b;" horiz-adv-x="404" d="M219 534 L260 534 L355 610 C408 652 427 671 427 695 C427 716 413 731 391 731 C366 731 348 714 308 658 L219 534 Z M171 -8 C289 -8 341 69 341 141 C341 194 314 226 244 266 C177 304 163 322 163 359 C163 402 193 432 244 432 C272 432 299 421 308 407 C287 391 283 371 283 358 C283 331 306 313 333 313 C366 313 384 339 384 371 C384 421 328 467 249 467 C144 467 86 400 86 323 C86 274 116 239 179 204 C249 165 267 144 267 104 C267 57 233 27 175 27 C144 27 102 40 95 56 C113 70 121 85 121 104 C121 134 100 153 71 153 C39 153 17 126 17 92 C17 34 87 -8 171 -8 L171 -8 Z " />
<glyph glyph-name="Scedilla" unicode="&#x15e;" horiz-adv-x="533" d="M167 -243 C233 -243 297 -199 296 -142 C296 -103 263 -78 201 -72 L200 -69 L265 -15 C419 -4 484 100 484 207 C484 299 433 339 356 377 C289 411 227 436 227 507 C227 577 280 632 352 632 C427 632 459 595 497 471 L530 471 L583 679 L549 679 L512 638 C481 655 435 674 378 674 C230 674 135 578 135 466 C135 384 174 344 267 302 C364 257 396 215 396 157 C396 86 351 26 260 26 C187 26 135 52 82 196 L47 196 L-7 -20 L22 -20 L75 28 C109 7 169 -11 220 -15 L125 -96 L129 -116 C138 -115 150 -113 158 -113 C199 -113 232 -126 232 -155 C232 -185 205 -205 162 -205 C141 -205 117 -201 92 -193 L76 -224 C108 -237 138 -243 167 -243 L167 -243 Z " />
<glyph glyph-name="scedilla" unicode="&#x15f;" horiz-adv-x="404" d="M102 -243 C168 -243 232 -199 231 -142 C231 -103 198 -78 136 -72 L135 -69 L213 -4 C301 11 341 78 341 141 C341 194 314 226 244 266 C177 304 163 322 163 359 C163 402 193 432 244 432 C272 432 299 421 308 407 C287 391 283 371 283 358 C283 331 306 313 333 313 C366 313 384 339 384 371 C384 421 328 467 249 467 C144 467 86 400 86 323 C86 274 116 239 179 204 C249 165 267 144 267 104 C267 57 233 27 175 27 C144 27 102 40 95 56 C113 70 121 85 121 104 C121 134 100 153 71 153 C39 153 17 126 17 92 C17 35 83 -5 163 -8 L60 -96 L64 -116 C73 -115 85 -113 93 -113 C134 -113 167 -126 167 -155 C167 -185 140 -205 97 -205 C76 -205 52 -201 27 -193 L11 -224 C43 -237 73 -243 102 -243 L102 -243 Z " />
<glyph glyph-name="Scaron" unicode="&#x160;" horiz-adv-x="533" d="M383 742 L416 742 L584 925 L542 925 L423 827 L358 925 L321 925 L383 742 Z M-7 -20 L22 -20 L75 28 C114 5 186 -16 240 -16 C413 -16 484 95 484 207 C484 299 433 339 356 377 C289 411 227 436 227 507 C227 577 280 632 352 632 C427 632 459 595 497 471 L530 471 L583 679 L549 679 L512 638 C481 655 435 674 378 674 C230 674 135 578 135 466 C135 384 174 344 267 302 C364 257 396 215 396 157 C396 86 351 26 260 26 C187 26 135 52 82 196 L47 196 L-7 -20 Z " />
<glyph glyph-name="scaron" unicode="&#x161;" horiz-adv-x="404" d="M255 534 L288 534 L456 717 L414 717 L295 619 L230 717 L193 717 L255 534 Z M171 -8 C289 -8 341 69 341 141 C341 194 314 226 244 266 C177 304 163 322 163 359 C163 402 193 432 244 432 C272 432 299 421 308 407 C287 391 283 371 283 358 C283 331 306 313 333 313 C366 313 384 339 384 371 C384 421 328 467 249 467 C144 467 86 400 86 323 C86 274 116 239 179 204 C249 165 267 144 267 104 C267 57 233 27 175 27 C144 27 102 40 95 56 C113 70 121 85 121 104 C121 134 100 153 71 153 C39 153 17 126 17 92 C17 34 87 -8 171 -8 L171 -8 Z " />
<glyph glyph-name="Tcommaaccent" unicode="&#x162;" horiz-adv-x="648" d="M132 -316 C230 -279 298 -220 298 -150 C298 -107 274 -81 241 -81 C209 -81 182 -107 182 -140 C182 -172 207 -191 235 -190 L240 -193 C227 -232 187 -261 121 -290 L132 -316 Z M235 81 C227 50 203 41 113 38 L103 0 L424 0 L434 38 C346 41 324 50 332 81 L476 615 L527 615 C626 615 628 559 631 447 L667 447 L717 658 L161 658 L96 447 L134 447 C206 566 227 615 323 615 L379 615 L235 81 Z " />
<glyph glyph-name="tcommaaccent" unicode="&#x163;" horiz-adv-x="339" d="M-1 -316 C97 -279 165 -220 165 -150 C165 -107 141 -81 108 -81 C76 -81 49 -107 49 -140 C49 -172 74 -191 102 -190 L107 -193 C94 -232 54 -261 -12 -290 L-1 -316 Z M355 419 L367 460 L251 460 L299 611 L206 598 L167 460 L79 460 L66 419 L154 419 L66 121 C60 103 57 82 57 70 C57 21 87 -8 152 -8 C201 -8 260 15 286 28 L289 60 C251 49 222 43 198 43 C162 43 146 54 146 82 C146 94 150 113 155 132 L239 419 L355 419 Z " />
<glyph glyph-name="Tcaron" unicode="&#x164;" horiz-adv-x="648" d="M438 742 L471 742 L639 925 L597 925 L478 827 L413 925 L376 925 L438 742 Z M235 81 C227 50 203 41 113 38 L103 0 L424 0 L434 38 C346 41 324 50 332 81 L476 615 L527 615 C626 615 628 559 631 447 L667 447 L717 658 L161 658 L96 447 L134 447 C206 566 227 615 323 615 L379 615 L235 81 Z " />
<glyph glyph-name="tcaron" unicode="&#x165;" horiz-adv-x="339" d="M365 545 L394 545 L458 664 C472 689 488 718 488 739 C488 763 472 779 451 779 C416 779 404 748 396 704 L365 545 Z M355 419 L367 460 L251 460 L299 611 L206 598 L167 460 L79 460 L66 419 L154 419 L66 121 C60 103 57 82 57 70 C57 21 87 -8 152 -8 C201 -8 260 15 286 28 L289 60 C251 49 222 43 198 43 C162 43 146 54 146 82 C146 94 150 113 155 132 L239 419 L355 419 Z " />
<glyph glyph-name="Umacron" unicode="&#x16a;" horiz-adv-x="744" d="M313 577 C322 610 332 617 422 620 L433 658 L134 658 L123 620 C206 617 224 608 216 577 L125 236 C119 213 116 191 116 168 C116 67 184 -16 328 -16 C517 -16 586 75 616 189 L701 503 C725 594 735 607 828 623 L837 658 L579 658 L570 623 C662 609 674 594 650 503 L574 215 C540 84 477 33 359 33 C263 33 214 88 214 170 C214 193 218 218 224 244 L313 577 Z M389 764 L640 764 L657 827 L406 827 L389 764 Z " />
<glyph glyph-name="umacron" unicode="&#x16b;" horiz-adv-x="554" d="M65 147 C58 126 54 104 54 86 C54 33 84 -8 156 -8 C211 -8 274 21 332 84 L336 80 C335 73 334 65 334 58 C334 16 359 -7 414 -7 C453 -7 484 -1 494 3 L494 35 C433 35 411 43 411 71 C411 86 415 100 421 122 L524 459 L427 459 L393 301 L344 128 C300 86 256 54 210 54 C163 54 141 74 141 109 C141 123 145 140 152 160 L247 461 L75 455 L75 420 C140 416 148 406 138 371 L65 147 Z M219 556 L470 556 L487 619 L236 619 L219 556 Z " />
<glyph glyph-name="Ubreve" unicode="&#x16c;" horiz-adv-x="744" d="M313 577 C322 610 332 617 422 620 L433 658 L134 658 L123 620 C206 617 224 608 216 577 L125 236 C119 213 116 191 116 168 C116 67 184 -16 328 -16 C517 -16 586 75 616 189 L701 503 C725 594 735 607 828 623 L837 658 L579 658 L570 623 C662 609 674 594 650 503 L574 215 C540 84 477 33 359 33 C263 33 214 88 214 170 C214 193 218 218 224 244 L313 577 Z M532 750 C609 750 668 808 694 905 L658 905 C628 846 595 813 539 813 C484 813 462 847 458 905 L425 905 C406 806 449 750 532 750 L532 750 Z " />
<glyph glyph-name="ubreve" unicode="&#x16d;" horiz-adv-x="554" d="M65 147 C58 126 54 104 54 86 C54 33 84 -8 156 -8 C211 -8 274 21 332 84 L336 80 C335 73 334 65 334 58 C334 16 359 -7 414 -7 C453 -7 484 -1 494 3 L494 35 C433 35 411 43 411 71 C411 86 415 100 421 122 L524 459 L427 459 L393 301 L344 128 C300 86 256 54 210 54 C163 54 141 74 141 109 C141 123 145 140 152 160 L247 461 L75 455 L75 420 C140 416 148 406 138 371 L65 147 Z M362 542 C439 542 498 600 524 697 L488 697 C458 638 425 605 369 605 C314 605 292 639 288 697 L255 697 C236 598 279 542 362 542 L362 542 Z " />
<glyph glyph-name="Uring" unicode="&#x16e;" horiz-adv-x="744" d="M539 750 C607 750 659 804 659 869 C659 917 624 954 564 954 C496 954 444 901 444 836 C444 787 479 750 539 750 L539 750 Z M540 781 C513 781 492 798 492 833 C492 874 516 924 563 924 C590 924 611 907 611 872 C611 831 587 781 540 781 L540 781 Z M313 577 C322 610 332 617 422 620 L433 658 L134 658 L123 620 C206 617 224 608 216 577 L125 236 C119 213 116 191 116 168 C116 67 184 -16 328 -16 C517 -16 586 75 616 189 L701 503 C725 594 735 607 828 623 L837 658 L579 658 L570 623 C662 609 674 594 650 503 L574 215 C540 84 477 33 359 33 C263 33 214 88 214 170 C214 193 218 218 224 244 L313 577 Z " />
<glyph glyph-name="uring" unicode="&#x16f;" horiz-adv-x="554" d="M369 542 C437 542 489 596 489 661 C489 709 454 746 394 746 C326 746 274 693 274 628 C274 579 309 542 369 542 L369 542 Z M370 573 C343 573 322 590 322 625 C322 666 346 716 393 716 C420 716 441 699 441 664 C441 623 417 573 370 573 L370 573 Z M65 147 C58 126 54 104 54 86 C54 33 84 -8 156 -8 C211 -8 274 21 332 84 L336 80 C335 73 334 65 334 58 C334 16 359 -7 414 -7 C453 -7 484 -1 494 3 L494 35 C433 35 411 43 411 71 C411 86 415 100 421 122 L524 459 L427 459 L393 301 L344 128 C300 86 256 54 210 54 C163 54 141 74 141 109 C141 123 145 140 152 160 L247 461 L75 455 L75 420 C140 416 148 406 138 371 L65 147 Z " />
<glyph glyph-name="Uhungarumlaut" unicode="&#x170;" horiz-adv-x="744" d="M313 577 C322 610 332 617 422 620 L433 658 L134 658 L123 620 C206 617 224 608 216 577 L125 236 C119 213 116 191 116 168 C116 67 184 -16 328 -16 C517 -16 586 75 616 189 L701 503 C725 594 735 607 828 623 L837 658 L579 658 L570 623 C662 609 674 594 650 503 L574 215 C540 84 477 33 359 33 C263 33 214 88 214 170 C214 193 218 218 224 244 L313 577 Z M402 742 L442 742 L534 818 C586 861 609 880 609 904 C609 922 594 939 572 939 C548 939 531 922 491 866 L402 742 Z M567 742 L607 742 L699 818 C751 861 774 880 774 904 C774 922 759 939 737 939 C713 939 696 922 656 866 L567 742 Z " />
<glyph glyph-name="uhungarumlaut" unicode="&#x171;" horiz-adv-x="554" d="M65 147 C58 126 54 104 54 86 C54 33 84 -8 156 -8 C211 -8 274 21 332 84 L336 80 C335 73 334 65 334 58 C334 16 359 -7 414 -7 C453 -7 484 -1 494 3 L494 35 C433 35 411 43 411 71 C411 86 415 100 421 122 L524 459 L427 459 L393 301 L344 128 C300 86 256 54 210 54 C163 54 141 74 141 109 C141 123 145 140 152 160 L247 461 L75 455 L75 420 C140 416 148 406 138 371 L65 147 Z M232 534 L272 534 L364 610 C416 653 439 672 439 696 C439 714 424 731 402 731 C378 731 361 714 321 658 L232 534 Z M397 534 L437 534 L529 610 C581 653 604 672 604 696 C604 714 589 731 567 731 C543 731 526 714 486 658 L397 534 Z " />
<glyph glyph-name="Uogonek" unicode="&#x172;" horiz-adv-x="733" d="M313 577 C322 610 332 617 422 620 L433 658 L134 658 L123 620 C206 617 224 608 216 577 L125 236 C119 213 116 191 116 168 C116 68 183 -14 324 -16 L310 -24 C211 -81 181 -128 181 -173 C181 -215 214 -243 267 -243 C300 -243 327 -232 360 -212 L350 -183 C330 -193 311 -199 296 -199 C269 -199 254 -186 254 -160 C254 -128 269 -94 348 -39 L386 -13 C531 4 589 87 616 189 L701 503 C725 594 735 607 828 623 L837 658 L579 658 L570 623 C662 609 674 594 650 503 L574 215 C540 84 477 33 359 33 C263 33 214 88 214 170 C214 193 218 218 224 244 L313 577 Z " />
<glyph glyph-name="uogonek" unicode="&#x173;" horiz-adv-x="554" d="M411 71 C411 86 415 100 421 122 L524 459 L427 459 L393 301 L344 128 C300 86 256 54 210 54 C163 54 141 74 141 109 C141 123 145 140 152 160 L247 461 L75 455 L75 420 C140 416 149 406 138 371 L65 147 C58 126 54 104 54 86 C54 33 84 -8 156 -8 C211 -8 274 21 332 84 L336 80 C335 73 334 65 334 58 C334 16 359 -7 413 -7 L427 -7 L384 -28 C280 -79 252 -128 252 -173 C252 -215 285 -243 337 -243 C371 -243 397 -232 430 -212 L421 -183 C401 -193 382 -199 366 -199 C340 -199 324 -186 324 -160 C324 -128 340 -91 423 -42 L494 3 L494 35 C433 35 411 43 411 71 L411 71 Z " />
<glyph glyph-name="Wcircumflex" unicode="&#x174;" horiz-adv-x="975" d="M476 742 L518 742 L637 840 L702 742 L739 742 L677 925 L644 925 L476 742 Z M277 559 C273 601 278 616 368 623 L377 658 L103 658 L94 623 C165 610 181 594 185 552 L239 -16 L289 -16 L549 410 L583 -16 L636 -16 L926 490 C977 578 1001 609 1072 623 L1081 658 L846 658 L837 623 C928 609 928 580 874 485 L667 122 L661 122 L631 559 C628 601 638 616 728 623 L738 658 L457 658 L447 623 C520 614 535 594 538 552 L544 476 L324 117 L319 117 L277 559 Z " />
<glyph glyph-name="wcircumflex" unicode="&#x175;" horiz-adv-x="713" d="M285 534 L327 534 L446 632 L511 534 L548 534 L486 717 L453 717 L285 534 Z M461 -11 L619 223 C680 312 707 358 707 400 C707 438 688 467 650 467 C618 467 593 441 593 407 C593 377 603 359 629 342 C618 302 591 249 534 164 L484 89 L468 89 L464 176 L443 462 L354 455 L365 353 C350 311 325 257 282 182 L228 89 L212 89 L210 176 L187 462 L29 448 L29 413 C96 411 103 404 107 371 L129 177 L135 -6 L209 -11 L372 277 L383 177 L388 -6 L461 -11 Z " />
<glyph glyph-name="Ycircumflex" unicode="&#x176;" horiz-adv-x="642" d="M600 517 C671 595 697 612 759 623 L769 658 L532 658 L522 623 C603 612 603 591 534 511 L375 324 L297 559 C284 597 299 617 390 623 L400 658 L113 658 L104 623 C167 611 187 600 201 560 L292 292 L236 81 C228 50 206 41 121 38 L111 0 L418 0 L428 38 C345 41 325 50 333 81 L387 279 L600 517 Z M329 742 L371 742 L490 840 L555 742 L592 742 L530 925 L497 925 L329 742 Z " />
<glyph glyph-name="ycircumflex" unicode="&#x177;" horiz-adv-x="462" d="M188 462 L30 448 L30 413 C98 411 107 400 114 367 L147 177 L182 -22 C144 -79 109 -120 55 -149 C56 -143 57 -136 57 -130 C57 -98 37 -72 1 -72 C-29 -72 -54 -98 -54 -132 C-54 -171 -25 -200 20 -200 C103 -200 176 -112 320 112 C420 267 456 353 456 395 C456 437 436 467 398 467 C366 467 343 441 343 407 C343 377 355 358 382 341 C375 300 359 258 310 170 L257 76 L241 76 L212 277 L188 462 Z M156 534 L198 534 L317 632 L382 534 L419 534 L357 717 L324 717 L156 534 Z " />
<glyph glyph-name="Ydieresis" unicode="&#x178;" horiz-adv-x="642" d="M600 517 C671 595 697 612 759 623 L769 658 L532 658 L522 623 C603 612 603 591 534 511 L375 324 L297 559 C284 597 299 617 390 623 L400 658 L113 658 L104 623 C167 611 187 600 201 560 L292 292 L236 81 C228 50 206 41 121 38 L111 0 L418 0 L428 38 C345 41 325 50 333 81 L387 279 L600 517 Z M565 750 C604 750 634 788 634 830 C634 857 615 878 589 878 C549 878 519 841 519 799 C519 772 539 750 565 750 L565 750 Z M380 750 C419 750 449 788 449 830 C449 857 430 878 404 878 C364 878 334 841 334 799 C334 772 354 750 380 750 L380 750 Z " />
<glyph glyph-name="Zacute" unicode="&#x179;" horiz-adv-x="620" d="M387 742 L428 742 L523 818 C576 860 595 879 595 903 C595 924 581 939 559 939 C534 939 516 922 476 866 L387 742 Z M553 615 L-10 31 L-10 0 L496 0 L575 221 L539 223 C441 78 408 43 309 43 L119 43 L681 627 L681 658 L198 658 L123 448 L159 446 C255 583 292 615 383 615 L553 615 Z " />
<glyph glyph-name="zacute" unicode="&#x17a;" horiz-adv-x="460" d="M240 534 L281 534 L376 610 C429 652 448 671 448 695 C448 716 434 731 412 731 C387 731 369 714 329 658 L240 534 Z M7 -15 C34 -4 61 9 100 9 C152 9 209 -11 268 -11 C356 -11 387 28 403 154 L368 159 C350 89 327 65 273 65 C246 65 200 72 166 72 C142 72 122 68 104 64 L99 74 L469 429 L454 459 L112 459 L71 303 L106 300 C141 375 164 396 242 397 L367 399 L371 394 L-21 19 L7 -15 Z " />
<glyph glyph-name="Zdotaccent" unicode="&#x17b;" horiz-adv-x="620" d="M553 615 L-10 31 L-10 0 L496 0 L575 221 L539 223 C441 78 408 43 309 43 L119 43 L681 627 L681 658 L198 658 L123 448 L159 446 C255 583 292 615 383 615 L553 615 Z M454 750 C493 750 523 795 523 837 C523 869 504 884 478 884 C439 884 408 841 408 799 C408 766 428 750 454 750 L454 750 Z " />
<glyph glyph-name="zdotaccent" unicode="&#x17c;" horiz-adv-x="460" d="M7 -15 C34 -4 61 9 100 9 C152 9 209 -11 268 -11 C356 -11 387 28 403 154 L368 159 C350 89 327 65 273 65 C246 65 200 72 166 72 C142 72 122 68 104 64 L99 74 L469 429 L454 459 L112 459 L71 303 L106 300 C141 375 164 396 242 397 L367 399 L371 394 L-21 19 L7 -15 Z M307 542 C346 542 376 587 376 629 C376 661 357 676 331 676 C292 676 261 633 261 591 C261 558 281 542 307 542 L307 542 Z " />
<glyph glyph-name="Zcaron" unicode="&#x17d;" horiz-adv-x="620" d="M423 742 L456 742 L624 925 L582 925 L463 827 L398 925 L361 925 L423 742 Z M553 615 L-10 31 L-10 0 L496 0 L575 221 L539 223 C441 78 408 43 309 43 L119 43 L681 627 L681 658 L198 658 L123 448 L159 446 C255 583 292 615 383 615 L553 615 Z " />
<glyph glyph-name="zcaron" unicode="&#x17e;" horiz-adv-x="460" d="M276 534 L309 534 L477 717 L435 717 L316 619 L251 717 L214 717 L276 534 Z M7 -15 C34 -4 61 9 100 9 C152 9 209 -11 268 -11 C356 -11 387 28 403 154 L368 159 C350 89 327 65 273 65 C246 65 200 72 166 72 C142 72 122 68 104 64 L99 74 L469 429 L454 459 L112 459 L71 303 L106 300 C141 375 164 396 242 397 L367 399 L371 394 L-21 19 L7 -15 Z " />
<glyph glyph-name="Aringacute" unicode="&#x1fa;" horiz-adv-x="664" d="M211 240 L442 240 L459 113 C467 57 456 42 367 38 L356 0 L636 0 L647 35 C575 43 564 61 556 117 L478 652 C537 667 577 719 577 780 C577 832 543 871 489 871 C413 871 354 812 354 738 C354 697 376 664 411 652 L116 174 C57 78 34 48 -39 32 L-47 0 L182 0 L189 32 C108 48 106 65 160 155 L211 240 Z M436 280 L235 280 L395 550 L401 550 L436 280 Z M448 676 C422 676 405 699 405 727 C405 778 435 842 484 842 C509 842 527 823 527 791 C527 740 496 676 448 676 L448 676 Z M470 906 L511 906 L606 982 C659 1024 678 1043 678 1067 C678 1088 664 1103 642 1103 C617 1103 599 1086 559 1030 L470 906 Z " />
<glyph glyph-name="aringacute" unicode="&#x1fb;" horiz-adv-x="529" d="M455 304 L513 466 L423 455 L407 405 C388 444 360 467 306 467 C165 467 36 290 36 147 C36 48 87 -8 169 -8 C228 -8 273 18 323 90 L327 89 C325 76 323 62 323 50 C323 5 351 -7 405 -7 C437 -7 470 -1 480 3 L480 35 C417 35 395 43 395 74 C395 85 398 99 403 117 L455 304 Z M307 431 C347 431 379 401 385 342 L328 153 C294 85 250 46 207 46 C154 46 129 82 129 156 C129 246 201 431 307 431 L307 431 Z M369 542 C437 542 489 596 489 661 C489 709 454 746 394 746 C326 746 274 693 274 628 C274 579 309 542 369 542 L369 542 Z M387 798 L428 798 L523 874 C576 916 595 935 595 959 C595 980 581 995 559 995 C534 995 516 978 476 922 L387 798 Z M370 573 C343 573 322 590 322 625 C322 666 346 716 393 716 C420 716 441 699 441 664 C441 623 417 573 370 573 L370 573 Z " />
<glyph glyph-name="AEacute" unicode="&#x1fc;" horiz-adv-x="994" d="M697 742 L738 742 L833 818 C886 860 905 879 905 903 C905 924 891 939 869 939 C844 939 826 922 786 866 L697 742 Z M784 208 L851 469 L820 469 C767 365 752 368 678 368 L624 368 L690 615 L820 615 C932 615 938 578 943 466 L977 466 L1024 658 L419 658 L410 623 C466 618 487 609 487 593 C487 583 479 571 466 556 L141 171 C65 82 26 51 -47 35 L-57 0 L170 0 L180 35 C144 42 128 51 128 67 C128 85 151 112 185 152 L272 256 L497 256 L450 81 C441 50 420 41 335 38 L324 0 L882 0 L944 207 L907 207 C851 96 811 44 679 44 L538 44 L613 326 L669 326 C743 326 753 308 753 208 L784 208 Z M508 296 L305 296 L569 612 L593 612 L508 296 Z " />
<glyph glyph-name="aeacute" unicode="&#x1fd;" horiz-adv-x="722" d="M582 467 C510 467 442 424 404 376 L399 376 C386 440 335 467 264 467 C172 467 89 422 89 360 C89 329 109 305 144 305 C174 305 195 324 195 358 C195 374 189 392 170 404 C194 420 215 430 252 430 C308 430 337 388 337 322 C337 305 332 269 328 250 C117 262 19 200 19 97 C19 37 60 -8 137 -8 C214 -8 276 36 320 114 L327 114 C347 27 415 -8 482 -8 C552 -8 614 24 666 93 L638 119 C598 66 549 40 502 40 C435 40 407 88 407 166 C407 179 408 193 409 206 C621 209 713 289 713 366 C713 425 666 467 582 467 L582 467 Z M574 430 C613 430 629 410 629 376 C629 310 593 249 414 239 C436 344 503 430 574 430 L574 430 Z M173 45 C133 45 109 72 109 108 C109 172 143 225 322 217 C298 111 237 45 173 45 L173 45 Z M429 534 L470 534 L565 610 C618 652 637 671 637 695 C637 716 623 731 601 731 C576 731 558 714 518 658 L429 534 Z " />
<glyph glyph-name="Oslashacute" unicode="&#x1fe;" horiz-adv-x="724" d="M80 -34 L151 44 C195 6 253 -16 318 -16 C547 -16 713 195 713 403 C713 475 690 538 651 585 L750 692 L696 692 L624 613 C580 652 523 674 458 674 C229 674 63 463 63 255 C63 182 85 119 124 72 L26 -34 L80 -34 Z M163 222 C163 408 282 632 451 632 C510 632 553 607 580 566 L178 128 C168 155 163 187 163 222 L163 222 Z M325 26 C266 26 222 50 195 92 L597 530 C607 502 613 471 613 436 C613 250 494 26 325 26 L325 26 Z M440 742 L481 742 L576 818 C629 860 648 879 648 903 C648 924 634 939 612 939 C587 939 569 922 529 866 L440 742 Z " />
<glyph glyph-name="oslashacute" unicode="&#x1ff;" horiz-adv-x="491" d="M9 -24 L57 -24 L98 25 C125 4 160 -8 199 -8 C358 -8 456 141 456 281 C456 333 442 376 417 408 L482 483 L434 483 L392 433 C365 455 331 467 292 467 C133 467 35 319 35 178 C35 126 49 83 74 51 L9 -24 Z M122 146 C122 241 170 431 283 431 C318 431 342 417 356 388 L124 108 C123 120 122 132 122 146 L122 146 Z M208 28 C173 28 149 42 136 70 L366 350 C368 339 369 326 369 313 C369 218 321 28 208 28 L208 28 Z M259 534 L300 534 L395 610 C448 652 467 671 467 695 C467 716 453 731 431 731 C406 731 388 714 348 658 L259 534 Z " />
<glyph glyph-name="Scommaaccent" unicode="&#x218;" horiz-adv-x="533" d="M77 -316 C175 -279 243 -220 243 -150 C243 -107 219 -81 186 -81 C154 -81 127 -107 127 -140 C127 -172 152 -191 180 -190 L185 -193 C172 -232 132 -261 66 -290 L77 -316 Z M-7 -20 L22 -20 L75 28 C114 5 186 -16 240 -16 C413 -16 484 95 484 207 C484 299 433 339 356 377 C289 411 227 436 227 507 C227 577 280 632 352 632 C427 632 459 595 497 471 L530 471 L583 679 L549 679 L512 638 C481 655 435 674 378 674 C230 674 135 578 135 466 C135 384 174 344 267 302 C364 257 396 215 396 157 C396 86 351 26 260 26 C187 26 135 52 82 196 L47 196 L-7 -20 Z " />
<glyph glyph-name="scommaaccent" unicode="&#x219;" horiz-adv-x="404" d="M4 -316 C102 -279 170 -220 170 -150 C170 -107 146 -81 113 -81 C81 -81 54 -107 54 -140 C54 -172 79 -191 107 -190 L112 -193 C99 -232 59 -261 -7 -290 L4 -316 Z M171 -8 C289 -8 341 69 341 141 C341 194 314 226 244 266 C177 304 163 322 163 359 C163 402 193 432 244 432 C272 432 299 421 308 407 C287 391 283 371 283 358 C283 331 306 313 333 313 C366 313 384 339 384 371 C384 421 328 467 249 467 C144 467 86 400 86 323 C86 274 116 239 179 204 C249 165 267 144 267 104 C267 57 233 27 175 27 C144 27 102 40 95 56 C113 70 121 85 121 104 C121 134 100 153 71 153 C39 153 17 126 17 92 C17 34 87 -8 171 -8 L171 -8 Z " />
<glyph glyph-name="schwa" unicode="&#x259;" horiz-adv-x="440" d="M9 87 C9 28 56 -14 140 -14 C291 -14 406 145 406 293 C406 417 318 461 240 461 C170 461 108 429 56 360 L84 334 C124 387 173 413 220 413 C287 413 315 365 315 287 C315 273 314 260 312 247 C101 244 9 164 9 87 L9 87 Z M148 23 C109 23 93 43 93 77 C93 142 129 204 307 213 C285 108 219 23 148 23 L148 23 Z " />
<glyph glyph-name="circumflex" unicode="&#x2c6;" horiz-adv-x="299" d="M114 534 L156 534 L275 632 L340 534 L377 534 L315 717 L282 717 L114 534 Z " />
<glyph glyph-name="caron" unicode="&#x2c7;" horiz-adv-x="299" d="M211 534 L244 534 L412 717 L370 717 L251 619 L186 717 L149 717 L211 534 Z " />
<glyph glyph-name="breve" unicode="&#x2d8;" horiz-adv-x="336" d="M257 542 C334 542 393 600 419 697 L383 697 C353 638 320 605 264 605 C209 605 187 639 183 697 L150 697 C131 598 174 542 257 542 L257 542 Z " />
<glyph glyph-name="dotaccent" unicode="&#x2d9;" horiz-adv-x="192" d="M193 542 C232 542 262 587 262 629 C262 661 243 676 217 676 C178 676 147 633 147 591 C147 558 167 542 193 542 L193 542 Z " />
<glyph glyph-name="ring" unicode="&#x2da;" horiz-adv-x="258" d="M233 542 C301 542 353 596 353 661 C353 709 318 746 258 746 C190 746 138 693 138 628 C138 579 173 542 233 542 L233 542 Z M234 573 C207 573 186 590 186 625 C186 666 210 716 257 716 C284 716 305 699 305 664 C305 623 281 573 234 573 L234 573 Z " />
<glyph glyph-name="ogonek" unicode="&#x2db;" horiz-adv-x="269" d="M-1 -243 C32 -243 59 -232 92 -212 L82 -183 C62 -193 43 -199 28 -199 C1 -199 -14 -186 -14 -160 C-14 -128 1 -94 80 -39 L158 14 L108 14 L42 -24 C-57 -81 -87 -128 -87 -173 C-87 -215 -54 -243 -1 -243 L-1 -243 Z " />
<glyph glyph-name="tilde" unicode="&#x2dc;" horiz-adv-x="331" d="M113 535 L149 535 C167 581 181 591 199 591 C230 591 270 541 313 541 C357 541 394 575 415 659 L379 659 C361 613 347 603 329 603 C299 603 258 653 215 653 C171 653 134 619 113 535 L113 535 Z " />
<glyph glyph-name="hungarumlaut" unicode="&#x2dd;" horiz-adv-x="415" d="M128 534 L168 534 L260 610 C312 653 335 672 335 696 C335 714 320 731 298 731 C274 731 257 714 217 658 L128 534 Z M293 534 L333 534 L425 610 C477 653 500 672 500 696 C500 714 485 731 463 731 C439 731 422 714 382 658 L293 534 Z " />
<glyph glyph-name="commaaccent" unicode="&#x326;" horiz-adv-x="235" d="M-87 -316 C11 -279 79 -220 79 -150 C79 -107 55 -81 22 -81 C-10 -81 -37 -107 -37 -140 C-37 -172 -12 -191 16 -190 L21 -193 C8 -232 -32 -261 -98 -290 L-87 -316 Z " />
<glyph glyph-name="Wgrave" unicode="&#x1e80;" horiz-adv-x="975" d="M277 559 C273 601 278 616 368 623 L377 658 L103 658 L94 623 C165 610 181 594 185 552 L239 -16 L289 -16 L549 410 L583 -16 L636 -16 L926 490 C977 578 1001 609 1072 623 L1081 658 L846 658 L837 623 C928 609 928 580 874 485 L667 122 L661 122 L631 559 C628 601 638 616 728 623 L738 658 L457 658 L447 623 C520 614 535 594 538 552 L544 476 L324 117 L319 117 L277 559 Z M597 742 L633 742 L567 874 C543 923 531 939 508 939 C485 939 466 922 466 897 C466 881 481 861 504 838 L597 742 Z " />
<glyph glyph-name="wgrave" unicode="&#x1e81;" horiz-adv-x="713" d="M461 -11 L619 223 C680 312 707 358 707 400 C707 438 688 467 650 467 C618 467 593 441 593 407 C593 377 603 359 629 342 C618 302 591 249 534 164 L484 89 L468 89 L464 176 L443 462 L354 455 L365 353 C350 311 325 257 282 182 L228 89 L212 89 L210 176 L187 462 L29 448 L29 413 C96 411 103 404 107 371 L129 177 L135 -6 L209 -11 L372 277 L383 177 L388 -6 L461 -11 Z M407 534 L443 534 L377 666 C353 715 341 731 318 731 C295 731 276 714 276 689 C276 673 291 653 314 630 L407 534 Z " />
<glyph glyph-name="Wacute" unicode="&#x1e82;" horiz-adv-x="975" d="M554 742 L595 742 L690 818 C743 860 762 879 762 903 C762 924 748 939 726 939 C701 939 683 922 643 866 L554 742 Z M277 559 C273 601 278 616 368 623 L377 658 L103 658 L94 623 C165 610 181 594 185 552 L239 -16 L289 -16 L549 410 L583 -16 L636 -16 L926 490 C977 578 1001 609 1072 623 L1081 658 L846 658 L837 623 C928 609 928 580 874 485 L667 122 L661 122 L631 559 C628 601 638 616 728 623 L738 658 L457 658 L447 623 C520 614 535 594 538 552 L544 476 L324 117 L319 117 L277 559 Z " />
<glyph glyph-name="wacute" unicode="&#x1e83;" horiz-adv-x="713" d="M364 534 L405 534 L500 610 C553 652 572 671 572 695 C572 716 558 731 536 731 C511 731 493 714 453 658 L364 534 Z M461 -11 L619 223 C680 312 707 358 707 400 C707 438 688 467 650 467 C618 467 593 441 593 407 C593 377 603 359 629 342 C618 302 591 249 534 164 L484 89 L468 89 L464 176 L443 462 L354 455 L365 353 C350 311 325 257 282 182 L228 89 L212 89 L210 176 L187 462 L29 448 L29 413 C96 411 103 404 107 371 L129 177 L135 -6 L209 -11 L372 277 L383 177 L388 -6 L461 -11 Z " />
<glyph glyph-name="Wdieresis" unicode="&#x1e84;" horiz-adv-x="975" d="M712 750 C751 750 781 788 781 830 C781 857 762 878 736 878 C696 878 666 841 666 799 C666 772 686 750 712 750 L712 750 Z M527 750 C566 750 596 788 596 830 C596 857 577 878 551 878 C511 878 481 841 481 799 C481 772 501 750 527 750 L527 750 Z M277 559 C273 601 278 616 368 623 L377 658 L103 658 L94 623 C165 610 181 594 185 552 L239 -16 L289 -16 L549 410 L583 -16 L636 -16 L926 490 C977 578 1001 609 1072 623 L1081 658 L846 658 L837 623 C928 609 928 580 874 485 L667 122 L661 122 L631 559 C628 601 638 616 728 623 L738 658 L457 658 L447 623 C520 614 535 594 538 552 L544 476 L324 117 L319 117 L277 559 Z " />
<glyph glyph-name="wdieresis" unicode="&#x1e85;" horiz-adv-x="713" d="M522 542 C561 542 591 580 591 622 C591 649 572 670 546 670 C506 670 476 633 476 591 C476 564 496 542 522 542 L522 542 Z M337 542 C376 542 406 580 406 622 C406 649 387 670 361 670 C321 670 291 633 291 591 C291 564 311 542 337 542 L337 542 Z M461 -11 L619 223 C680 312 707 358 707 400 C707 438 688 467 650 467 C618 467 593 441 593 407 C593 377 603 359 629 342 C618 302 591 249 534 164 L484 89 L468 89 L464 176 L443 462 L354 455 L365 353 C350 311 325 257 282 182 L228 89 L212 89 L210 176 L187 462 L29 448 L29 413 C96 411 103 404 107 371 L129 177 L135 -6 L209 -11 L372 277 L383 177 L388 -6 L461 -11 Z " />
<glyph glyph-name="Ygrave" unicode="&#x1ef2;" horiz-adv-x="642" d="M600 517 C671 595 697 612 759 623 L769 658 L532 658 L522 623 C603 612 603 591 534 511 L375 324 L297 559 C284 597 299 617 390 623 L400 658 L113 658 L104 623 C167 611 187 600 201 560 L292 292 L236 81 C228 50 206 41 121 38 L111 0 L418 0 L428 38 C345 41 325 50 333 81 L387 279 L600 517 Z M450 742 L486 742 L420 874 C396 923 384 939 361 939 C338 939 319 922 319 897 C319 881 334 861 357 838 L450 742 Z " />
<glyph glyph-name="ygrave" unicode="&#x1ef3;" horiz-adv-x="462" d="M188 462 L30 448 L30 413 C98 411 107 400 114 367 L147 177 L182 -22 C144 -79 109 -120 55 -149 C56 -143 57 -136 57 -130 C57 -98 37 -72 1 -72 C-29 -72 -54 -98 -54 -132 C-54 -171 -25 -200 20 -200 C103 -200 176 -112 320 112 C420 267 456 353 456 395 C456 437 436 467 398 467 C366 467 343 441 343 407 C343 377 355 358 382 341 C375 300 359 258 310 170 L257 76 L241 76 L212 277 L188 462 Z M277 534 L313 534 L247 666 C223 715 211 731 188 731 C165 731 146 714 146 689 C146 673 161 653 184 630 L277 534 Z " />
<glyph glyph-name="enspace" unicode="&#x2002;" horiz-adv-x="500" d="" />
<glyph glyph-name="emspace" unicode="&#x2003;" horiz-adv-x="1000" d="" />
<glyph glyph-name="threeperemspace" unicode="&#x2004;" horiz-adv-x="333" d="" />
<glyph glyph-name="fourperemspace" unicode="&#x2005;" horiz-adv-x="250" d="" />
<glyph glyph-name="thinspace" unicode="&#x2009;" horiz-adv-x="133" d="" />
<glyph glyph-name="hairspace" unicode="&#x200a;" horiz-adv-x="75" d="" />
<glyph glyph-name="endash" unicode="&#x2013;" horiz-adv-x="540" d="M53 218 L483 218 L499 275 L69 275 L53 218 Z " />
<glyph glyph-name="emdash" unicode="&#x2014;" horiz-adv-x="790" d="M53 218 L733 218 L749 275 L69 275 L53 218 Z " />
<glyph glyph-name="quoteleft" unicode="&#x2018;" horiz-adv-x="231" d="M318 681 C192 637 118 573 118 498 C118 454 143 425 177 425 C212 425 239 453 239 486 C239 521 214 541 184 539 L178 544 C195 586 243 620 327 654 L318 681 Z " />
<glyph glyph-name="quoteright" unicode="&#x2019;" horiz-adv-x="231" d="M76 418 C201 462 275 526 275 601 C275 645 250 674 216 674 C181 674 154 647 154 613 C154 579 180 559 209 560 L215 556 C198 513 150 479 66 446 L76 418 Z " />
<glyph glyph-name="quotesinglbase" unicode="&#x201a;" horiz-adv-x="239" d="M-64 -150 C61 -106 135 -42 135 33 C135 77 110 106 76 106 C41 106 14 79 14 45 C14 11 40 -9 69 -8 L75 -12 C58 -55 10 -89 -74 -122 L-64 -150 Z " />
<glyph glyph-name="quotedblleft" unicode="&#x201c;" horiz-adv-x="420" d="M507 681 C381 637 307 573 307 498 C307 454 332 425 366 425 C401 425 428 453 428 486 C428 521 403 541 373 539 L367 544 C384 586 432 620 516 654 L507 681 Z M304 681 C179 635 118 571 118 498 C118 454 144 425 178 425 C213 425 239 453 239 486 C239 521 214 541 184 539 L178 544 C193 588 232 619 314 654 L304 681 Z " />
<glyph glyph-name="quotedblright" unicode="&#x201d;" horiz-adv-x="420" d="M76 418 C201 462 275 526 275 601 C275 645 250 674 216 674 C181 674 154 647 154 613 C154 579 180 559 209 560 L215 556 C198 513 150 479 66 446 L76 418 Z M278 418 C404 464 464 528 464 601 C464 645 438 674 404 674 C369 674 343 647 343 613 C343 579 369 559 398 560 L404 556 C389 511 350 480 269 446 L278 418 Z " />
<glyph glyph-name="quotedblbase" unicode="&#x201e;" horiz-adv-x="428" d="M138 -150 C264 -104 324 -40 324 33 C324 77 298 106 264 106 C229 106 203 79 203 45 C203 11 229 -9 258 -8 L264 -12 C249 -57 210 -88 129 -122 L138 -150 Z M-64 -150 C61 -106 135 -42 135 33 C135 77 110 106 76 106 C41 106 14 79 14 45 C14 11 40 -9 69 -8 L75 -12 C58 -55 10 -89 -74 -122 L-64 -150 Z " />
<glyph glyph-name="dagger" unicode="&#x2020;" horiz-adv-x="518" d="M135 -103 L157 -107 L314 303 L302 367 C301 373 300 380 300 383 C300 410 322 435 361 435 C410 435 428 401 481 401 C507 401 537 415 537 445 C537 469 512 487 472 487 C429 487 367 467 316 447 L312 452 L356 529 C386 583 406 629 406 655 C406 680 394 703 365 703 C338 703 318 682 310 653 C303 629 299 596 296 541 L290 454 L285 449 C235 482 184 503 143 503 C94 503 68 476 68 453 C68 430 87 417 117 417 C158 417 197 443 235 443 C258 443 271 429 271 411 C271 403 268 387 257 374 L209 318 L135 -103 Z " />
<glyph glyph-name="daggerdbl" unicode="&#x2021;" horiz-adv-x="554" d="M346 292 L334 364 C333 371 332 377 332 382 C332 413 356 435 393 435 C442 435 460 401 513 401 C539 401 569 415 569 445 C569 469 544 487 504 487 C461 487 399 467 348 447 L344 452 L388 529 C418 583 438 629 438 655 C438 680 426 703 397 703 C370 703 350 682 342 653 C335 629 331 597 328 541 L322 454 L317 449 C267 482 216 503 175 503 C126 503 100 476 100 453 C100 430 119 417 149 417 C190 417 229 443 267 443 C290 443 303 429 303 411 C303 398 299 387 289 374 L238 306 L250 236 C251 229 252 223 252 218 C252 187 228 165 191 165 C142 165 124 199 71 199 C45 199 15 185 15 155 C15 131 40 113 80 113 C123 113 185 133 236 153 L240 148 L196 71 C166 17 146 -29 146 -55 C146 -80 158 -103 187 -103 C214 -103 234 -82 242 -53 C249 -29 253 3 256 59 L262 146 L267 151 C317 118 368 97 409 97 C458 97 484 124 484 147 C484 170 465 183 435 183 C394 183 355 157 317 157 C294 157 281 171 281 189 C281 202 285 213 295 226 L346 292 Z " />
<glyph glyph-name="bullet" unicode="&#x2022;" horiz-adv-x="490" d="M276 182 C352 182 413 243 413 319 C413 394 352 455 276 455 C201 455 140 394 140 319 C140 243 201 182 276 182 L276 182 Z " />
<glyph glyph-name="ellipsis" unicode="&#x2026;" horiz-adv-x="717" d="M76 -16 C110 -16 138 11 138 45 C138 79 110 106 76 106 C41 106 14 79 14 45 C14 11 42 -16 76 -16 L76 -16 Z M297 -16 C331 -16 359 11 359 45 C359 79 331 106 297 106 C262 106 235 79 235 45 C235 11 263 -16 297 -16 L297 -16 Z M518 -16 C552 -16 580 11 580 45 C580 79 552 106 518 106 C483 106 456 79 456 45 C456 11 484 -16 518 -16 L518 -16 Z " />
<glyph glyph-name="guilsinglleft" unicode="&#x2039;" horiz-adv-x="300" d="M169 30 L201 48 L136 227 L293 393 L273 418 L74 270 C51 253 42 241 42 230 C42 221 45 213 55 198 L169 30 Z " />
<glyph glyph-name="guilsinglright" unicode="&#x203a;" horiz-adv-x="300" d="M26 30 L225 178 C248 195 257 207 257 218 C257 227 254 235 244 250 L130 418 L98 400 L163 221 L6 55 L26 30 Z " />
<glyph glyph-name="fraction" unicode="&#x2044;" horiz-adv-x="540" d="M-90 -82 L-32 -82 L321 305 L631 639 L573 639 L266 305 L-90 -82 Z " />
<glyph glyph-name="Euro" unicode="&#x20ac;" horiz-adv-x="624" d="M404 227 L414 268 L221 268 C224 295 229 323 237 351 L435 351 L446 392 L251 392 C291 497 366 588 468 588 C515 587 540 571 552 550 C525 538 505 516 505 484 C505 454 528 429 563 429 C604 429 632 465 632 507 C632 575 572 628 478 628 C328 628 212 522 156 392 L62 392 L51 351 L140 351 C131 323 126 296 122 268 L30 268 L19 227 L119 227 L119 218 C119 79 201 -15 332 -15 C440 -15 508 35 570 112 L540 135 C495 77 428 40 372 40 C269 40 218 109 218 220 L218 227 L404 227 Z " />
<glyph glyph-name="published" unicode="&#x2117;" horiz-adv-x="791" d="M222 153 L408 153 L416 182 C362 184 354 188 360 208 L386 306 L431 306 C542 306 607 369 607 427 C607 484 562 522 461 522 L320 522 L312 493 C360 490 367 484 363 466 L294 208 C288 189 279 184 230 182 L222 153 Z M395 339 L435 492 L459 492 C513 492 535 469 535 434 C535 382 507 339 431 339 L395 339 Z M380 -32 C614 -32 773 160 773 382 C773 563 648 690 458 690 C224 690 65 498 65 276 C65 95 190 -32 380 -32 L380 -32 Z M387 0 C221 0 104 111 104 274 C104 473 243 658 451 658 C617 658 734 547 734 384 C734 185 595 0 387 0 L387 0 Z " />
<glyph glyph-name="servicemark" unicode="&#x2120;" horiz-adv-x="776" d="M78 352 L97 352 L122 373 C155 358 182 354 209 354 C288 354 331 403 331 455 C331 496 303 518 263 537 C232 552 202 565 202 592 C202 617 226 636 259 636 C293 636 318 619 324 560 L348 560 L377 666 L358 666 L337 647 C325 654 300 664 268 664 C196 664 146 619 146 569 C146 531 169 510 216 489 C267 466 279 453 279 431 C279 409 260 382 216 382 C181 382 147 399 133 466 L109 466 L78 352 Z M357 385 L351 361 L464 361 L470 385 C443 394 439 402 448 441 L494 610 L510 610 L526 361 L568 361 L709 610 L730 610 L677 411 C673 397 667 390 638 387 L631 361 L768 361 L775 387 C739 389 731 397 736 411 L788 609 C791 622 803 631 839 632 L846 658 L703 658 L582 442 L574 442 L563 658 L429 658 L422 632 C458 631 462 617 458 602 L415 441 C404 401 391 391 357 385 L357 385 Z " />
<glyph glyph-name="trademark" unicode="&#x2122;" horiz-adv-x="836" d="M407 361 L520 361 L527 385 C499 394 495 402 505 441 L550 610 L567 610 L583 361 L624 361 L766 610 L787 610 L734 411 C730 397 724 390 694 387 L688 361 L825 361 L831 387 C796 389 788 397 792 411 L845 609 C848 622 860 631 896 632 L903 658 L760 658 L639 442 L631 442 L619 658 L485 658 L479 632 C515 631 519 617 515 602 L472 441 C461 401 447 391 414 385 L407 361 Z M144 361 L311 361 L317 387 C280 389 264 397 268 411 L327 632 L337 632 C385 632 391 597 391 548 L421 549 L443 658 L162 658 L128 549 L158 548 C188 603 209 632 255 632 L269 632 L210 411 C206 397 191 389 150 387 L144 361 Z " />
<glyph glyph-name="minus" unicode="&#x2212;" horiz-adv-x="509" d="M471 279 L486 334 L77 334 L63 279 L471 279 Z " />
<glyph glyph-name="f_f" unicode="&#xfb00;" horiz-adv-x="606" d="M391 695 C298 695 210 650 169 473 L165 458 L62 458 L51 417 L159 417 L73 43 C37 -119 6 -165 -32 -165 C-42 -165 -51 -162 -57 -158 C-47 -147 -37 -129 -37 -112 C-37 -84 -55 -62 -86 -62 C-118 -62 -143 -89 -143 -123 C-143 -166 -107 -200 -39 -200 C63 -200 119 -119 170 108 L241 417 L447 417 L345 -33 C320 -145 295 -166 271 -166 C264 -166 257 -165 252 -163 C261 -156 271 -140 271 -123 C271 -97 255 -76 225 -76 C195 -76 171 -105 171 -135 C171 -172 200 -200 265 -200 C351 -200 404 -141 450 66 L529 417 L642 417 L653 458 L535 458 L552 533 C573 629 613 668 658 668 C672 668 686 663 694 654 C684 643 676 623 676 606 C676 576 695 556 731 556 C761 556 783 583 783 619 C783 664 742 703 670 703 C613 703 558 683 515 621 C505 661 459 695 391 695 L391 695 Z M453 458 L247 458 L261 515 C285 621 328 660 380 660 C401 660 421 652 429 644 C419 632 411 612 411 596 C411 566 430 545 466 545 C469 545 473 545 477 546 C469 525 462 501 457 475 L453 458 Z " />
<glyph glyph-name="fi" unicode="&#xfb01;" horiz-adv-x="583" d="M241 417 L444 417 L346 105 C341 89 339 74 339 62 C339 17 370 -7 422 -7 C461 -7 502 -1 521 5 L521 37 C452 34 428 43 428 72 C428 85 433 101 439 122 L545 461 L436 458 L247 458 L260 510 C288 629 334 667 395 667 C426 667 449 658 457 649 C447 637 438 618 438 601 C438 571 458 551 493 551 C523 551 545 576 545 610 C545 658 487 703 406 703 C307 703 209 660 169 475 L165 458 L62 458 L51 417 L159 417 L73 22 C40 -137 12 -165 -28 -165 C-37 -165 -47 -162 -53 -158 C-43 -147 -33 -128 -33 -111 C-33 -83 -51 -62 -82 -62 C-114 -62 -139 -89 -139 -123 C-139 -166 -102 -200 -34 -200 C67 -200 124 -134 170 86 L241 417 Z " />
<glyph glyph-name="fl" unicode="&#xfb02;" horiz-adv-x="583" d="M241 417 L441 417 L347 106 C343 90 340 74 340 63 C340 17 372 -6 424 -6 C463 -6 507 5 526 11 L526 43 C452 39 428 45 428 72 C428 82 431 97 436 114 L603 697 L584 702 L506 672 C481 690 444 703 405 703 C306 703 209 660 169 475 L165 458 L62 458 L51 417 L159 417 L73 22 C40 -137 12 -165 -28 -165 C-37 -165 -47 -162 -53 -158 C-43 -147 -33 -128 -33 -111 C-33 -83 -51 -62 -82 -62 C-114 -62 -139 -89 -139 -123 C-139 -166 -102 -200 -34 -200 C67 -200 124 -134 170 86 L241 417 Z M453 458 L247 458 L260 510 C288 629 333 667 394 667 C425 667 448 658 455 649 C445 637 436 618 436 601 C436 576 451 557 478 552 L453 458 Z " />
<glyph glyph-name="f_f_i" unicode="&#xfb03;" horiz-adv-x="871" d="M694 703 C626 703 562 683 515 618 C507 659 461 695 391 695 C298 695 210 650 169 473 L165 458 L62 458 L51 417 L159 417 L73 43 C37 -119 6 -165 -32 -165 C-42 -165 -51 -162 -57 -158 C-47 -147 -37 -129 -37 -112 C-37 -84 -55 -62 -86 -62 C-118 -62 -143 -89 -143 -123 C-143 -166 -107 -200 -39 -200 C63 -200 119 -119 170 108 L241 417 L447 417 L345 -33 C320 -145 295 -166 271 -166 C264 -166 257 -165 252 -163 C261 -156 271 -140 271 -123 C271 -97 255 -76 225 -76 C195 -76 171 -105 171 -135 C171 -172 200 -200 265 -200 C351 -200 404 -141 450 66 L529 417 L732 417 L634 105 C629 89 627 74 627 62 C627 17 658 -7 710 -7 C749 -7 790 -1 809 5 L809 37 C740 34 716 43 716 72 C716 85 721 101 727 122 L833 461 L724 458 L535 458 L548 510 C576 629 622 667 683 667 C714 667 737 658 745 649 C735 637 726 618 726 601 C726 571 746 551 781 551 C811 551 833 576 833 610 C833 658 775 703 694 703 L694 703 Z M457 475 L453 458 L247 458 L261 515 C285 621 328 660 380 660 C401 660 421 652 429 644 C419 632 411 612 411 596 C411 566 430 545 466 545 C470 545 474 545 477 546 C469 525 462 501 457 475 L457 475 Z " />
<glyph glyph-name="f_f_l" unicode="&#xfb04;" horiz-adv-x="871" d="M165 458 L62 458 L51 417 L159 417 L73 43 C37 -119 6 -165 -32 -165 C-42 -165 -51 -162 -57 -158 C-47 -147 -37 -129 -37 -112 C-37 -84 -55 -62 -86 -62 C-118 -62 -143 -89 -143 -123 C-143 -166 -107 -200 -39 -200 C63 -200 119 -119 170 108 L241 417 L447 417 L345 -33 C320 -145 295 -166 271 -166 C264 -166 257 -165 252 -163 C261 -156 271 -140 271 -123 C271 -97 255 -76 225 -76 C195 -76 171 -105 171 -135 C171 -172 200 -200 265 -200 C351 -200 404 -141 450 66 L529 417 L729 417 L635 105 C631 89 628 74 628 62 C628 16 660 -7 712 -7 C751 -7 795 5 814 11 L814 43 C740 39 716 44 716 72 C716 82 719 96 724 114 L891 697 L872 702 L794 672 C769 690 732 703 693 703 C626 703 562 683 515 618 C507 659 461 695 391 695 C298 695 210 650 169 473 L165 458 Z M741 458 L535 458 L548 510 C576 629 621 667 682 667 C713 667 736 658 743 649 C733 637 724 618 724 601 C724 576 739 557 766 552 L741 458 Z M457 475 L453 458 L247 458 L261 515 C285 621 328 660 380 660 C401 660 421 652 429 644 C419 632 411 612 411 596 C411 566 430 545 466 545 C470 545 474 545 477 546 C469 525 462 501 457 475 L457 475 Z " />
</font>
</svg>
