<?xml version="1.0" encoding="UTF-8"?>
<svg xmlns="http://www.w3.org/2000/svg" xmlns:xlink="http://www.w3.org/1999/xlink" version="1.2" >
<font id="Chronicle Display Bold Italic">
<font-face  font-family="Chronicle Display" units-per-em="1000" ascent="800" descent="-200" font-style="italic" font-weight="400" font-stretch="normal" slope="-12" cap-height="697" x-height="463" underline-position="-75" underline-thickness="50" />
<missing-glyph  horiz-adv-x="500" d="M0 -200 L500 -200 L500 800 L0 800 L0 -200 Z M71 750 L429 750 L250 360 L71 750 Z M50 -76 L50 676 L222 300 L50 -76 Z M450 676 L450 -76 L278 300 L450 676 Z M250 240 L429 -150 L71 -150 L250 240 Z " />
<glyph glyph-name="NULL" d="" />
<glyph glyph-name="CR" unicode="&#xd;" horiz-adv-x="250" d="" />
<glyph glyph-name="space" unicode="&#x20;" horiz-adv-x="184" d="" />
<glyph glyph-name="exclam" unicode="&#x21;" horiz-adv-x="284" d="M145 197 C220 391 329 573 329 650 C329 697 302 725 260 725 C223 725 193 699 181 650 C161 575 156 366 129 200 L145 197 Z M98 -17 C144 -17 179 20 179 62 C179 105 146 140 100 140 C53 140 18 103 18 61 C18 18 52 -17 98 -17 L98 -17 Z " />
<glyph glyph-name="quotedbl" unicode="&#x22;" horiz-adv-x="467" d="M103 409 L212 509 C304 593 319 622 319 655 C319 677 299 707 266 707 C222 707 198 675 143 538 L93 415 L103 409 Z M304 409 L413 509 C505 593 520 622 520 655 C520 677 500 707 467 707 C423 707 399 675 344 538 L294 415 L304 409 Z " />
<glyph glyph-name="numbersign" unicode="&#x23;" horiz-adv-x="703" d="M391 703 L366 703 L296 477 L124 477 L123 456 L290 456 L212 204 L52 204 L51 183 L205 183 L136 -43 L161 -43 L230 183 L440 183 L371 -43 L396 -43 L465 183 L639 183 L640 204 L472 204 L550 456 L710 456 L711 477 L556 477 L626 703 L601 703 L531 477 L321 477 L391 703 Z M315 456 L525 456 L447 204 L237 204 L315 456 Z " />
<glyph glyph-name="dollar" unicode="&#x24;" horiz-adv-x="577" d="M224 -68 L248 19 L276 19 C438 19 536 120 536 221 C536 322 449 364 370 402 L363 405 L422 619 C467 608 497 582 508 561 C475 548 455 519 455 487 C455 449 485 423 527 423 C572 423 602 462 602 506 C602 574 530 629 430 642 L450 715 L424 720 L403 644 C398 645 392 645 387 645 C220 645 117 562 117 452 C117 361 198 320 282 282 L294 277 L229 44 C176 55 128 83 113 110 C154 117 183 146 183 184 C183 222 157 256 113 256 C53 256 27 207 27 166 C27 91 100 35 221 22 L198 -62 L224 -68 Z M413 154 C413 86 365 39 276 39 C268 39 261 39 253 40 L316 266 C371 238 413 207 413 154 L413 154 Z M238 524 C239 584 291 625 376 625 C384 625 391 625 398 624 L340 416 C279 446 238 474 238 524 L238 524 Z " />
<glyph glyph-name="percent" unicode="&#x25;" horiz-adv-x="814" d="M415 623 C401 659 371 679 325 679 C194 679 80 539 80 419 C80 338 126 288 203 288 C341 288 426 454 426 565 L426 572 C442 569 462 568 476 568 C547 568 604 589 658 630 L661 627 L119 -26 L167 -26 L737 693 L707 693 C633 626 575 599 516 599 C475 599 444 607 415 623 L415 623 Z M561 -14 C700 -14 785 152 785 263 C785 335 750 377 684 377 C553 377 439 237 439 116 C439 36 485 -14 561 -14 L561 -14 Z M582 12 C548 12 527 37 527 82 C527 183 621 340 704 340 C742 340 760 315 760 262 C760 163 681 12 582 12 L582 12 Z M400 578 C401 574 401 569 401 564 C401 466 322 315 223 315 C189 315 168 339 168 385 C168 469 235 595 306 631 C334 606 367 588 400 578 L400 578 Z " />
<glyph glyph-name="ampersand" unicode="&#x26;" horiz-adv-x="716" d="M360 384 C318 439 305 470 305 526 C305 608 351 656 401 656 C439 656 468 631 468 578 C468 507 438 430 360 384 L360 384 Z M247 332 C295 270 353 177 373 107 C330 67 288 50 251 50 C185 50 142 92 142 164 C142 231 175 287 247 332 L247 332 Z M470 208 C453 262 412 321 372 368 C493 405 569 471 569 539 C569 610 511 671 399 671 C292 671 191 583 191 476 C191 427 199 393 235 346 C89 312 5 231 5 127 C5 43 71 -17 170 -17 C256 -17 321 20 379 91 C404 7 468 -17 527 -17 C581 -17 635 16 682 78 L674 85 C644 64 627 57 606 57 C558 57 521 70 479 192 C531 270 558 288 585 297 L588 295 C586 289 585 283 585 277 C585 241 615 214 653 214 C696 214 726 251 726 290 C726 337 694 368 645 368 C590 368 533 323 470 208 L470 208 Z " />
<glyph glyph-name="quotesingle" unicode="&#x27;" horiz-adv-x="266" d="M103 409 L212 509 C304 593 319 622 319 655 C319 677 299 707 266 707 C222 707 198 675 143 538 L93 415 L103 409 Z " />
<glyph glyph-name="parenleft" unicode="&#x28;" horiz-adv-x="383" d="M316 -166 L321 -158 C232 -73 197 12 197 155 C197 379 317 670 559 752 L557 764 C345 721 73 515 73 223 C73 35 173 -93 316 -166 L316 -166 Z " />
<glyph glyph-name="parenright" unicode="&#x29;" horiz-adv-x="383" d="M-136 -164 C75 -121 348 85 348 377 C348 565 248 693 105 766 L100 758 C188 673 223 589 223 445 C223 221 103 -70 -139 -152 L-136 -164 Z " />
<glyph glyph-name="asterisk" unicode="&#x2a;" horiz-adv-x="423" d="M365 384 C388 394 397 416 387 443 C379 464 319 522 302 540 L307 548 C330 542 409 518 431 520 C460 523 474 541 472 566 C470 591 453 607 423 605 C401 603 328 565 306 554 L299 560 C314 582 363 650 367 671 C373 700 358 720 335 725 C311 730 291 719 283 690 C278 669 292 588 295 563 L285 559 C270 579 221 642 202 655 C177 671 154 664 142 643 C129 622 133 598 159 582 C177 571 258 559 283 554 L283 545 C260 536 183 510 166 496 C144 476 144 452 160 434 C176 415 199 412 221 432 C238 448 275 518 287 540 L297 538 C298 513 299 430 308 410 C320 382 343 375 365 384 L365 384 Z " />
<glyph glyph-name="plus" unicode="&#x2b;" horiz-adv-x="546" d="M377 547 L351 547 L295 336 L83 336 L77 314 L289 314 L232 100 L258 100 L315 314 L525 314 L531 336 L321 336 L377 547 Z " />
<glyph glyph-name="comma" unicode="&#x2c;" horiz-adv-x="257" d="M-65 -150 C96 -106 169 -32 169 52 C169 100 137 140 88 140 C45 140 10 106 10 61 C10 17 40 -14 82 -11 L85 -15 C71 -53 31 -93 -69 -138 L-65 -150 Z " />
<glyph glyph-name="hyphen" unicode="&#x2d;" horiz-adv-x="366" d="M57 239 L313 239 L324 280 L68 280 L57 239 Z " />
<glyph glyph-name="period" unicode="&#x2e;" horiz-adv-x="257" d="M90 -17 C136 -17 171 20 171 62 C171 105 137 140 91 140 C45 140 10 103 10 61 C10 18 44 -17 90 -17 L90 -17 Z " />
<glyph glyph-name="slash" unicode="&#x2f;" horiz-adv-x="457" d="M-119 -215 L-88 -215 L251 265 L591 746 L560 746 L221 265 L-119 -215 Z " />
<glyph glyph-name="zero" unicode="0" horiz-adv-x="637" d="M185 156 C185 319 269 658 422 658 C486 658 513 602 513 509 C513 346 428 7 275 7 C211 7 185 63 185 156 L185 156 Z M646 420 C646 582 557 679 417 679 C187 679 52 434 52 245 C52 83 140 -14 280 -14 C511 -14 646 231 646 420 L646 420 Z " />
<glyph glyph-name="one" unicode="1" horiz-adv-x="428" d="M-25 0 L360 0 L363 13 C256 18 238 28 248 66 L410 674 L143 654 L140 641 C256 638 255 609 238 543 L113 66 C103 29 81 18 -22 13 L-25 0 Z " />
<glyph glyph-name="two" unicode="2" horiz-adv-x="564" d="M-12 0 L466 0 L525 211 L512 212 C457 129 433 111 369 111 L90 111 L90 115 L207 182 C494 336 588 407 588 512 C588 600 521 679 367 679 C229 679 127 605 127 510 C127 455 159 421 209 421 C261 421 293 463 293 507 C293 550 265 581 219 593 C246 635 297 660 345 660 C415 660 451 618 451 532 C451 405 381 327 230 231 L5 86 L-12 0 Z " />
<glyph glyph-name="three" unicode="3" horiz-adv-x="567" d="M218 332 C331 329 385 286 385 200 C385 138 366 80 330 44 C304 18 271 4 229 4 C175 4 130 32 114 61 C159 74 187 107 187 148 C187 190 156 229 108 229 C58 229 20 189 20 131 C20 56 86 -14 235 -14 C405 -14 526 58 526 175 C526 264 454 328 299 338 L300 342 C514 356 597 436 597 524 C597 616 517 679 372 679 C236 679 139 620 139 528 C139 483 174 448 220 448 C270 448 300 488 300 529 C300 569 273 597 238 606 C255 631 298 660 350 660 C433 660 460 611 460 543 C460 496 446 442 409 408 C374 374 318 354 224 354 L218 332 Z " />
<glyph glyph-name="four" unicode="4" horiz-adv-x="601" d="M577 194 L594 279 L469 279 L570 666 L475 666 L26 240 L12 194 L307 194 L271 58 C263 31 241 14 168 13 L165 0 L492 0 L495 13 C416 14 403 25 412 58 L447 194 L577 194 Z M402 566 L406 566 L329 279 L101 279 L402 566 Z " />
<glyph glyph-name="five" unicode="5" horiz-adv-x="566" d="M228 -14 C406 -14 533 95 533 237 C533 350 447 411 315 411 C246 411 191 384 141 348 L199 544 L573 544 L617 665 L209 665 L116 332 L137 325 C181 362 235 386 287 386 C354 386 394 347 394 262 C394 180 367 4 238 4 C180 4 140 23 124 61 C167 76 189 105 189 150 C189 189 163 227 112 227 C59 227 23 182 23 133 C23 48 117 -14 228 -14 L228 -14 Z " />
<glyph glyph-name="six" unicode="6" horiz-adv-x="580" d="M262 -14 C444 -14 559 135 559 273 C559 367 503 451 394 451 C314 451 263 417 212 353 L208 356 C260 501 372 625 631 669 L632 683 C258 673 51 468 51 217 C51 82 126 -14 262 -14 L262 -14 Z M261 5 C205 5 174 42 174 135 C174 272 258 426 361 426 C400 426 428 397 428 327 C428 200 359 5 261 5 L261 5 Z " />
<glyph glyph-name="seven" unicode="7" horiz-adv-x="529" d="M30 -10 L173 -10 L367 289 L630 653 L627 665 L161 665 L102 426 L114 425 C173 528 195 545 258 545 L528 545 L30 -1 L30 -10 Z " />
<glyph glyph-name="eight" unicode="8" horiz-adv-x="566" d="M264 -14 C403 -14 528 61 528 187 C528 273 471 322 408 363 C529 397 590 460 590 529 C590 612 514 679 376 679 C239 679 130 586 130 476 C130 405 172 362 227 325 C105 290 36 227 36 140 C36 60 109 -14 264 -14 L264 -14 Z M266 301 C340 256 400 217 400 142 C400 51 342 7 271 7 C195 7 152 71 152 149 C152 214 185 276 245 313 L266 301 Z M255 531 C255 610 305 659 372 659 C437 659 474 615 474 547 C474 485 448 423 387 377 C315 422 255 464 255 531 L255 531 Z " />
<glyph glyph-name="nine" unicode="9" horiz-adv-x="574" d="M386 679 C204 679 88 530 88 393 C88 297 145 215 263 215 C339 215 381 243 429 302 L433 298 C388 156 262 41 16 -3 L15 -17 C396 -7 596 197 596 447 C596 583 521 679 386 679 L386 679 Z M385 660 C446 660 469 606 469 525 C469 390 396 239 298 239 C249 239 219 273 219 349 C219 466 289 660 385 660 L385 660 Z " />
<glyph glyph-name="colon" unicode="&#x3a;" horiz-adv-x="271" d="M97 -17 C143 -17 178 20 178 62 C178 105 144 140 98 140 C52 140 17 103 17 61 C17 18 51 -17 97 -17 L97 -17 Z M164 258 C210 258 245 295 245 337 C245 380 212 415 166 415 C119 415 84 379 84 336 C84 294 118 258 164 258 L164 258 Z " />
<glyph glyph-name="semicolon" unicode="&#x3b;" horiz-adv-x="271" d="M164 258 C210 258 245 295 245 337 C245 380 212 415 166 415 C119 415 84 379 84 336 C84 294 118 258 164 258 L164 258 Z M-58 -150 C103 -106 176 -32 176 52 C176 100 144 140 95 140 C52 140 17 106 17 61 C17 17 47 -14 89 -11 L92 -15 C78 -53 38 -93 -62 -138 L-58 -150 Z " />
<glyph glyph-name="less" unicode="&#x3c;" horiz-adv-x="550" d="M445 102 L453 128 L138 324 L549 520 L558 552 L113 338 L107 315 L445 102 Z " />
<glyph glyph-name="equal" unicode="&#x3d;" horiz-adv-x="543" d="M488 216 L493 238 L55 238 L50 216 L488 216 Z M538 414 L543 436 L105 436 L100 414 L538 414 Z " />
<glyph glyph-name="greater" unicode="&#x3e;" horiz-adv-x="550" d="M155 552 L147 526 L462 330 L51 134 L42 102 L487 316 L493 339 L155 552 Z " />
<glyph glyph-name="question" unicode="&#x3f;" horiz-adv-x="503" d="M203 197 L242 325 C430 351 551 422 551 541 C551 646 461 724 314 724 C193 724 100 653 101 569 C101 523 135 489 181 489 C227 489 256 525 255 564 C255 598 236 630 189 641 C205 670 252 704 309 704 C380 704 417 670 417 599 C417 496 365 383 219 339 L177 203 L203 197 Z M158 -17 C204 -17 239 20 239 62 C239 105 205 140 159 140 C113 140 78 103 78 61 C78 18 112 -17 158 -17 L158 -17 Z " />
<glyph glyph-name="at" unicode="&#x40;" horiz-adv-x="909" d="M452 -146 C565 -146 646 -112 723 -58 L713 -44 C640 -94 565 -127 454 -127 C233 -127 98 19 98 217 C98 461 280 665 537 665 C721 665 851 540 851 375 C851 202 736 83 638 83 C609 83 595 98 595 125 C595 142 601 165 612 194 L664 337 L726 479 L614 471 L596 424 L592 424 C579 455 554 480 493 480 C378 480 248 341 248 194 C248 117 290 66 361 66 C409 66 447 91 490 137 L493 135 C499 87 528 58 613 58 C743 58 873 176 873 376 C873 556 730 684 539 684 C277 684 76 484 76 217 C76 -4 228 -146 452 -146 L452 -146 Z M419 115 C383 115 361 128 361 180 C361 298 444 452 519 452 C553 452 573 432 581 396 L490 162 C463 130 444 115 419 115 L419 115 Z " />
<glyph glyph-name="A" unicode="A" horiz-adv-x="708" d="M-70 0 L179 0 L182 14 C99 24 84 62 137 150 L208 267 L439 267 L460 87 C466 36 449 18 352 14 L349 0 L698 0 L701 14 C625 24 614 35 607 96 L530 710 L458 710 L115 162 C57 69 8 25 -67 14 L-70 0 Z M437 287 L221 287 L398 579 L404 579 L437 287 Z " />
<glyph glyph-name="B" unicode="B" horiz-adv-x="711" d="M317 372 L399 677 L449 677 C531 677 572 647 572 574 C572 500 541 372 398 372 L317 372 Z M223 20 L312 353 L373 353 C470 353 509 317 509 242 C509 144 472 20 327 20 L223 20 Z M152 684 C242 680 250 665 243 638 L88 60 C78 24 59 17 -28 14 L-31 0 L320 0 C564 0 660 102 660 204 C660 292 599 347 454 359 L455 364 C635 380 715 464 715 551 C715 627 649 697 454 697 L155 697 L152 684 Z " />
<glyph glyph-name="C" unicode="C" horiz-adv-x="714" d="M348 -17 C489 -17 606 70 680 176 L663 187 C584 80 490 23 402 23 C277 23 214 104 214 250 C214 445 349 694 495 694 C583 694 620 645 671 458 L687 458 L752 711 L736 711 L679 665 C635 691 585 714 501 714 C229 714 61 488 61 282 C61 97 182 -17 348 -17 L348 -17 Z " />
<glyph glyph-name="D" unicode="D" horiz-adv-x="777" d="M88 60 C78 24 59 17 -28 14 L-31 0 L349 0 C479 0 583 49 656 123 C736 203 779 312 779 414 C779 589 651 697 455 697 L155 697 L152 684 C242 680 250 665 243 638 L88 60 Z M223 20 L399 677 L458 677 C591 677 630 600 630 490 C630 382 591 189 491 88 C449 46 397 20 333 20 L223 20 Z " />
<glyph glyph-name="E" unicode="E" horiz-adv-x="709" d="M155 697 L152 684 C242 680 250 665 243 638 L88 60 C78 24 59 17 -28 14 L-31 0 L602 0 L671 248 L654 248 C562 104 493 21 353 21 L223 21 L313 358 L367 358 C445 358 448 334 470 222 L485 222 L558 502 L543 502 C471 402 450 378 372 378 L319 378 L398 676 L508 676 C627 676 649 604 676 464 L692 464 L750 697 L155 697 Z " />
<glyph glyph-name="F" unicode="F" horiz-adv-x="663" d="M330 0 L333 14 C241 18 224 24 234 60 L309 342 L365 342 C443 342 445 316 467 204 L482 204 L555 484 L540 484 C468 384 447 362 369 362 L314 362 L398 676 L507 676 C623 676 644 606 672 455 L688 455 L749 697 L155 697 L152 684 C242 680 250 665 243 638 L88 60 C78 24 59 17 -28 14 L-31 0 L330 0 Z " />
<glyph glyph-name="G" unicode="G" horiz-adv-x="757" d="M760 711 L744 711 L691 668 C648 692 585 714 501 714 C229 714 61 482 61 282 C61 97 197 -17 365 -17 C454 -17 541 5 619 40 L682 265 C689 293 699 307 769 311 L772 324 L450 324 L447 311 C540 307 548 293 541 265 L479 31 C445 11 415 3 376 3 C273 3 214 96 214 215 C214 426 334 694 505 694 C592 694 621 644 680 467 L696 467 L760 711 Z " />
<glyph glyph-name="H" unicode="H" horiz-adv-x="843" d="M405 0 L751 0 L754 14 C669 17 653 24 663 60 L817 638 C824 666 846 680 934 684 L937 697 L588 697 L585 684 C670 679 678 664 671 638 L600 372 L317 372 L389 637 C396 665 414 679 497 684 L500 697 L155 697 L152 684 C242 680 250 665 243 638 L88 60 C78 24 59 17 -28 14 L-31 0 L317 0 L320 14 C249 18 224 24 234 60 L312 352 L595 352 L517 61 C507 23 481 18 408 14 L405 0 Z " />
<glyph glyph-name="I" unicode="I" horiz-adv-x="437" d="M520 684 L523 697 L161 697 L158 684 C250 680 262 666 254 638 L99 60 C89 24 68 17 -21 14 L-24 0 L339 0 L342 14 C254 17 235 23 245 60 L400 639 C407 666 431 680 520 684 L520 684 Z " />
<glyph glyph-name="J" unicode="J" horiz-adv-x="597" d="M194 -17 C356 -17 435 66 479 226 L590 639 C597 666 620 680 709 684 L712 697 L346 697 L343 684 C437 680 451 666 444 638 L326 201 C286 55 246 4 179 4 C136 4 96 27 84 60 C141 68 175 108 175 156 C175 198 148 229 102 229 C42 229 4 172 4 121 C4 46 72 -17 194 -17 L194 -17 Z " />
<glyph glyph-name="K" unicode="K" horiz-adv-x="780" d="M866 697 L581 697 L578 684 C660 676 674 624 596 557 L299 303 L389 637 C396 665 414 679 497 684 L500 697 L155 697 L152 684 C242 680 250 665 243 638 L88 60 C78 24 59 17 -28 14 L-31 0 L310 0 L313 14 C249 18 224 24 234 60 L290 271 L376 343 L479 91 C502 34 493 21 406 14 L403 0 L740 0 L743 14 C678 22 668 30 638 98 L490 440 L623 552 C722 635 774 668 863 684 L866 697 Z " />
<glyph glyph-name="L" unicode="L" horiz-adv-x="666" d="M389 637 C396 665 415 680 501 684 L504 697 L155 697 L152 684 C242 680 250 665 243 638 L88 60 C78 24 59 17 -28 14 L-31 0 L565 0 L640 258 L623 258 C497 85 444 21 324 21 L223 21 L389 637 Z " />
<glyph glyph-name="M" unicode="M" horiz-adv-x="986" d="M146 684 C233 679 252 647 241 604 L119 145 C95 53 56 21 -35 14 L-38 0 L239 0 L242 14 C145 22 125 61 147 146 L276 633 L285 633 L374 -2 L408 -2 L810 633 L815 633 L662 61 C652 23 626 18 553 14 L550 0 L895 0 L898 14 C812 17 796 24 806 60 L961 638 C968 666 990 680 1077 684 L1080 697 L820 697 L496 185 L492 185 L424 697 L149 697 L146 684 Z " />
<glyph glyph-name="N" unicode="N" horiz-adv-x="809" d="M367 697 L149 697 L146 684 C226 680 248 630 236 587 L121 153 C97 64 59 25 -34 14 L-37 0 L239 0 L242 14 C145 21 122 54 148 154 L263 583 L264 583 L566 -11 L618 -11 L767 544 C791 634 826 673 919 684 L922 697 L647 697 L644 684 C741 676 766 644 739 544 L639 164 L638 164 L367 697 Z " />
<glyph glyph-name="O" unicode="O" horiz-adv-x="773" d="M354 -17 C614 -17 776 224 776 424 C776 608 647 714 483 714 C223 714 61 473 61 274 C61 89 189 -17 354 -17 L354 -17 Z M335 3 C248 3 206 72 206 188 C206 398 327 694 502 694 C589 694 630 625 630 509 C630 299 510 3 335 3 L335 3 Z " />
<glyph glyph-name="P" unicode="P" horiz-adv-x="674" d="M304 320 L399 677 L451 677 C528 677 567 648 567 566 C567 470 526 320 362 320 L304 320 Z M152 684 C242 680 250 665 243 638 L88 60 C78 24 59 17 -28 14 L-31 0 L317 0 L320 14 C249 18 224 24 234 60 L298 300 L375 300 C629 300 716 427 716 530 C716 613 656 697 453 697 L155 697 L152 684 Z " />
<glyph glyph-name="Q" unicode="Q" horiz-adv-x="773" d="M61 276 C61 127 144 31 263 -1 C193 -10 126 -56 74 -127 L86 -139 C137 -82 169 -60 215 -60 C304 -60 318 -226 491 -226 C597 -226 687 -170 687 -88 C687 -50 656 -16 619 -16 C582 -16 551 -47 551 -84 C551 -124 589 -131 589 -163 C589 -182 572 -194 550 -194 C481 -194 445 -59 347 -13 L354 -13 C614 -13 776 227 776 425 C776 610 647 714 483 714 C223 714 61 474 61 276 L61 276 Z M630 511 C630 303 510 7 335 7 C248 7 206 75 206 190 C206 399 327 694 502 694 C589 694 630 626 630 511 L630 511 Z " />
<glyph glyph-name="R" unicode="R" horiz-adv-x="732" d="M314 358 L399 677 L460 677 C544 677 575 639 575 567 C575 494 540 358 366 358 L314 358 Z M152 684 C242 680 250 665 243 638 L88 60 C78 24 59 17 -28 14 L-31 0 L317 0 L320 14 C249 18 224 24 234 60 L308 339 L380 339 C474 339 495 307 481 216 L466 128 C451 35 468 -7 617 -7 C647 -7 673 -6 699 -4 L702 10 C620 14 609 28 618 117 L624 182 C636 290 596 338 449 347 L450 352 C655 377 720 458 720 550 C720 644 637 697 466 697 L155 697 L152 684 Z " />
<glyph glyph-name="S" unicode="S" horiz-adv-x="581" d="M-13 -17 L3 -17 L58 38 C108 11 186 -13 273 -13 C447 -13 538 104 538 231 C538 329 464 378 380 424 C304 465 238 500 238 570 C238 646 294 692 365 692 C442 692 499 650 555 477 L572 477 L631 716 L615 716 L558 669 C509 693 455 710 385 710 C229 710 126 597 126 481 C126 384 199 341 284 297 C373 252 433 209 433 132 C433 54 367 5 283 5 C179 5 124 72 76 245 L60 245 L-13 -17 Z " />
<glyph glyph-name="T" unicode="T" horiz-adv-x="723" d="M242 60 C232 24 211 17 110 14 L107 0 L493 0 L496 14 C396 17 377 23 388 60 L553 678 L576 678 C654 678 674 640 721 452 L737 452 L800 697 L169 697 L99 452 L118 452 C248 625 304 678 381 678 L407 678 L242 60 Z " />
<glyph glyph-name="U" unicode="U" horiz-adv-x="807" d="M368 637 C375 665 393 679 476 684 L479 697 L134 697 L131 684 C221 680 229 665 222 638 L126 279 C117 245 112 212 112 183 C111 53 200 -17 357 -17 C539 -17 623 64 663 215 L753 552 C778 643 810 673 902 684 L905 697 L631 697 L628 684 C725 676 748 636 725 551 L641 236 C598 75 517 17 406 17 C304 17 252 67 252 162 C252 191 257 224 267 263 L368 637 Z " />
<glyph glyph-name="V" unicode="V" horiz-adv-x="714" d="M848 684 L851 697 L585 697 L582 684 C668 674 692 622 630 526 L382 141 L377 141 L320 617 C315 661 334 680 430 684 L433 697 L83 697 L80 684 C156 673 168 659 176 604 L256 -12 L309 -12 L667 537 C730 635 775 674 848 684 L848 684 Z " />
<glyph glyph-name="W" unicode="W" horiz-adv-x="1044" d="M323 616 C320 659 332 680 413 684 L416 697 L92 697 L89 684 C164 673 174 659 180 603 L235 -12 L288 -12 L580 464 L624 -12 L676 -12 L994 535 C1050 631 1093 674 1169 684 L1172 697 L915 697 L912 684 C996 672 1019 630 958 524 L751 167 L746 167 L712 616 C709 659 724 680 809 684 L812 697 L487 697 L484 684 C552 678 563 659 568 603 L577 502 L366 164 L361 164 L323 616 Z " />
<glyph glyph-name="X" unicode="X" horiz-adv-x="723" d="M321 0 L673 0 L676 14 C599 22 582 39 564 90 L457 387 L625 556 C710 642 758 674 839 684 L842 697 L575 697 L572 684 C646 677 671 639 603 570 L448 411 L377 610 C360 656 371 679 473 684 L476 697 L124 697 L121 684 C196 675 213 658 232 607 L337 328 L155 141 C74 59 19 23 -63 14 L-66 0 L201 0 L204 14 C130 21 118 67 177 128 L345 305 L419 87 C434 42 425 19 324 14 L321 0 Z " />
<glyph glyph-name="Y" unicode="Y" horiz-adv-x="692" d="M636 545 C713 640 758 672 830 684 L833 697 L582 697 L579 684 C666 667 670 629 609 550 L431 327 L338 620 C327 654 334 680 444 684 L447 697 L100 697 L97 684 C173 672 184 664 200 611 L295 305 L229 60 C219 24 198 17 109 14 L106 0 L468 0 L471 14 C384 17 365 23 375 60 L440 305 L636 545 Z " />
<glyph glyph-name="Z" unicode="Z" horiz-adv-x="672" d="M584 677 L-32 17 L-30 0 L562 0 L634 246 L617 248 C490 81 412 20 320 20 L144 20 L757 680 L755 697 L194 697 L121 463 L141 461 C270 628 349 677 439 677 L584 677 Z " />
<glyph glyph-name="bracketleft" unicode="&#x5b;" horiz-adv-x="371" d="M-14 -165 L286 -165 L291 -145 L111 -145 L349 744 L529 744 L535 764 L235 764 L-14 -165 Z " />
<glyph glyph-name="backslash" unicode="&#x5c;" horiz-adv-x="457" d="M307 -215 L334 -215 L251 265 L171 746 L144 746 L226 265 L307 -215 Z " />
<glyph glyph-name="bracketright" unicode="&#x5d;" horiz-adv-x="371" d="M-127 -166 L173 -166 L422 763 L122 763 L117 743 L297 743 L59 -146 L-121 -146 L-127 -166 Z " />
<glyph glyph-name="asciicircum" unicode="&#x5e;" horiz-adv-x="359" d="M84 517 L114 517 L281 632 L390 517 L414 517 L318 766 L303 766 L84 517 Z " />
<glyph glyph-name="underscore" unicode="&#x5f;" horiz-adv-x="440" d="M-61 0 L383 0 L391 31 L-53 31 L-61 0 Z " />
<glyph glyph-name="grave" unicode="&#x60;" horiz-adv-x="238" d="M299 526 L311 526 L260 671 C241 726 228 754 196 754 C166 754 143 730 143 705 C143 681 161 659 199 622 L299 526 Z " />
<glyph glyph-name="a" unicode="a" horiz-adv-x="555" d="M495 309 L549 470 L415 457 L396 406 C379 442 357 470 297 470 C174 470 26 333 26 155 C26 52 85 -8 162 -8 C218 -8 261 17 307 77 L309 76 C308 70 308 65 308 61 C307 8 339 -8 394 -8 C432 -8 484 4 514 15 L514 26 C448 22 424 27 424 56 C424 68 428 84 434 104 L495 309 Z M324 440 C356 440 379 403 382 364 L305 103 C284 70 257 47 229 47 C185 47 161 83 161 147 C161 260 237 440 324 440 L324 440 Z " />
<glyph glyph-name="b" unicode="b" horiz-adv-x="536" d="M212 11 C183 11 154 26 146 56 L232 382 C256 403 281 417 307 417 C354 417 376 382 376 323 C376 201 302 11 212 11 L212 11 Z M510 310 C510 413 454 470 381 470 C326 470 283 445 239 403 L237 405 L322 717 L85 702 L85 690 C159 686 176 673 168 642 L70 255 L12 51 C71 7 126 -8 198 -8 C387 -8 510 144 510 310 L510 310 Z " />
<glyph glyph-name="c" unicode="c" horiz-adv-x="467" d="M304 470 C144 470 26 336 26 181 C26 69 103 -8 218 -8 C312 -8 384 40 431 124 L417 133 C379 74 328 40 276 40 C195 40 159 87 159 179 C159 300 232 451 316 451 C342 451 359 442 372 427 C340 413 322 380 322 355 C322 315 349 291 391 291 C433 291 460 327 460 363 C460 427 402 470 304 470 L304 470 Z " />
<glyph glyph-name="d" unicode="d" horiz-adv-x="552" d="M611 717 L374 702 L374 690 C448 686 465 672 457 641 L398 414 C381 447 358 470 298 470 C175 470 26 332 26 159 C26 55 92 -8 166 -8 C222 -8 265 19 309 75 L312 74 L312 63 C312 9 343 -8 398 -8 C440 -8 493 6 519 15 L519 26 C450 21 428 30 428 59 C428 70 432 87 438 106 L611 717 Z M325 440 C359 440 380 405 385 370 L308 100 C287 67 262 50 234 50 C190 50 161 83 161 147 C161 260 236 440 325 440 L325 440 Z " />
<glyph glyph-name="e" unicode="e" horiz-adv-x="475" d="M475 365 C475 424 428 470 328 470 C152 470 25 333 25 176 C25 61 104 -8 213 -8 C307 -8 384 38 435 117 L423 128 C383 72 323 40 270 40 C189 40 158 86 158 178 C158 195 159 212 162 229 C379 219 475 285 475 365 L475 365 Z M320 451 C350 451 366 433 366 395 C366 331 336 244 165 246 C188 352 258 451 320 451 L320 451 Z " />
<glyph glyph-name="f" unicode="f" horiz-adv-x="339" d="M402 433 L410 458 L286 458 L309 562 C333 662 360 704 402 704 C417 704 434 695 440 686 C423 671 408 644 408 620 C408 581 436 553 476 553 C521 553 545 584 545 626 C545 687 489 723 403 723 C289 723 207 649 171 500 L160 458 L48 458 L40 433 L155 433 L48 -51 C25 -157 -7 -180 -42 -180 C-60 -180 -69 -177 -78 -172 C-58 -163 -42 -139 -42 -115 C-42 -83 -65 -51 -104 -51 C-144 -51 -172 -80 -172 -116 C-172 -169 -127 -200 -45 -200 C94 -200 162 -118 210 109 L279 433 L402 433 Z " />
<glyph glyph-name="g" unicode="g" horiz-adv-x="539" d="M165 0 C221 0 262 23 300 70 L303 68 L273 -32 C244 -133 205 -181 136 -181 C112 -181 74 -173 61 -149 C84 -138 101 -111 101 -86 C101 -50 79 -20 37 -20 C-6 -20 -37 -55 -37 -97 C-37 -145 14 -200 137 -200 C301 -200 367 -145 405 -7 L495 308 L549 470 L413 457 L396 409 C377 444 354 470 293 470 C171 470 27 334 27 162 C27 58 90 0 165 0 L165 0 Z M321 440 C355 440 378 401 383 366 L304 99 C283 70 259 56 232 56 C187 56 161 86 161 151 C161 262 232 440 321 440 L321 440 Z " />
<glyph glyph-name="h" unicode="h" horiz-adv-x="565" d="M512 303 C520 329 524 353 524 372 C524 433 488 468 424 468 C366 468 299 431 240 368 L237 370 L333 717 L97 702 L97 690 C171 686 187 673 180 642 L59 162 L11 0 L145 0 L233 348 C275 386 317 409 352 409 C382 409 394 394 394 365 C394 348 391 332 384 309 L321 108 C315 90 312 72 312 59 C312 13 346 -8 410 -8 C452 -8 503 6 529 15 L529 26 C462 22 439 26 439 54 C439 65 442 80 448 100 L512 303 Z " />
<glyph glyph-name="i" unicode="i" horiz-adv-x="318" d="M190 609 C190 567 219 545 250 545 C299 545 340 588 340 642 C340 683 311 706 279 706 C230 706 190 663 190 609 L190 609 Z M276 32 C202 27 174 35 174 67 C174 78 178 91 183 109 L291 465 L59 452 L59 440 C120 436 149 421 138 388 L54 110 C49 93 46 77 46 64 C46 16 78 -8 143 -8 C192 -8 245 8 276 21 L276 32 Z " />
<glyph glyph-name="j" unicode="j" horiz-adv-x="298" d="M178 609 C178 567 208 545 239 545 C288 545 329 588 329 642 C329 683 299 706 268 706 C219 706 178 663 178 609 L178 609 Z M-65 -200 C73 -200 133 -128 167 8 L284 465 L54 452 L54 440 C117 436 141 421 134 389 L28 -42 C1 -153 -26 -180 -61 -180 C-78 -180 -87 -177 -96 -172 C-77 -162 -63 -139 -63 -115 C-63 -83 -86 -51 -125 -51 C-165 -51 -192 -80 -192 -116 C-192 -170 -146 -200 -65 -200 L-65 -200 Z " />
<glyph glyph-name="k" unicode="k" horiz-adv-x="533" d="M333 717 L97 702 L97 690 C171 686 187 673 180 642 L59 162 L12 0 L145 0 L210 257 L236 257 C286 257 306 241 306 181 C306 159 296 110 296 75 C296 27 310 -8 393 -8 C435 -8 480 3 506 12 L506 23 C438 21 426 32 426 62 C426 95 433 140 433 167 C433 227 402 270 280 267 L280 271 C342 290 363 412 425 424 C417 413 411 395 411 382 C411 346 439 327 476 327 C514 327 540 355 540 401 C540 437 515 470 464 470 C345 470 332 272 237 272 L214 272 L333 717 Z " />
<glyph glyph-name="l" unicode="l" horiz-adv-x="303" d="M345 717 L110 702 L110 690 C184 686 201 673 193 642 L145 458 L42 111 C37 93 34 77 34 63 C34 16 65 -8 130 -8 C179 -8 234 8 265 21 L265 32 C189 28 162 35 162 69 C162 80 165 93 169 109 L345 717 Z " />
<glyph glyph-name="m" unicode="m" horiz-adv-x="843" d="M271 465 L63 452 L63 440 C125 436 133 423 125 391 L64 162 L16 0 L150 0 L238 348 C280 386 321 409 355 409 C386 409 397 393 397 368 C397 353 393 330 387 309 L297 0 L427 0 L519 323 C522 336 525 348 526 358 C566 392 602 409 632 409 C662 409 674 393 674 367 C674 351 669 331 662 309 L599 108 C593 90 590 70 590 59 C590 14 623 -8 688 -8 C729 -8 781 6 807 15 L807 26 C740 22 716 26 716 54 C716 65 720 80 726 100 L790 303 C798 328 802 354 802 371 C802 432 766 468 701 468 C650 468 590 438 526 374 L526 376 C525 432 493 468 426 468 C368 468 304 431 246 367 L242 370 L271 465 Z " />
<glyph glyph-name="n" unicode="n" horiz-adv-x="570" d="M64 162 L16 0 L150 0 L238 348 C280 386 322 409 357 409 C387 409 400 394 400 365 C400 348 396 332 389 309 L326 108 C320 90 317 72 317 59 C317 13 351 -8 415 -8 C457 -8 508 6 535 15 L535 26 C467 22 444 26 444 54 C444 65 447 80 453 100 L517 303 C525 329 529 353 529 372 C529 433 493 468 429 468 C371 468 304 431 245 368 L242 370 L271 465 L63 452 L63 440 C125 436 133 423 125 391 L64 162 Z " />
<glyph glyph-name="o" unicode="o" horiz-adv-x="525" d="M304 470 C124 470 25 317 25 189 C25 70 100 -8 221 -8 C401 -8 500 145 500 273 C500 392 425 470 304 470 L304 470 Z M214 11 C166 11 147 47 147 107 C147 221 208 451 311 451 C359 451 378 415 378 355 C378 241 317 11 214 11 L214 11 Z " />
<glyph glyph-name="p" unicode="p" horiz-adv-x="554" d="M236 20 C207 20 178 37 169 71 L248 373 C268 396 305 417 330 417 C375 417 396 388 396 324 C396 199 323 20 236 20 L236 20 Z M160 33 C176 10 210 -7 259 -7 C385 -7 530 133 530 310 C530 413 471 470 399 470 C344 470 297 443 254 398 L252 400 L271 465 L63 452 L63 440 C125 436 134 423 125 392 L17 -17 L-25 -149 C-30 -166 -43 -176 -102 -178 L-102 -190 L205 -190 L205 -178 C120 -175 107 -165 112 -144 L160 33 Z " />
<glyph glyph-name="q" unicode="q" horiz-adv-x="542" d="M323 440 C357 440 380 402 385 367 L306 100 C285 67 260 50 232 50 C188 50 161 83 161 147 C161 260 234 440 323 440 L323 440 Z M240 -149 C235 -166 213 -176 148 -178 L148 -190 L454 -190 L454 -178 C372 -175 373 -167 377 -146 L497 308 L551 470 L416 457 L399 409 C380 444 356 470 296 470 C173 470 26 332 26 159 C26 55 87 -8 164 -8 C220 -8 254 13 300 67 L307 66 L240 -149 Z " />
<glyph glyph-name="r" unicode="r" horiz-adv-x="460" d="M397 470 C339 470 282 420 241 357 L239 359 L271 465 L63 452 L63 440 C125 436 133 423 125 391 L64 162 L16 0 L150 0 L233 330 C267 368 314 414 354 415 C339 401 336 378 336 368 C336 326 366 304 407 304 C452 304 484 339 484 391 C484 436 454 470 397 470 L397 470 Z " />
<glyph glyph-name="s" unicode="s" horiz-adv-x="433" d="M172 -8 C328 -8 385 68 385 153 C385 217 339 250 262 283 C209 306 161 326 161 369 C161 414 194 451 258 451 C291 451 320 439 332 421 C310 406 301 383 301 365 C301 339 327 312 361 312 C406 312 426 344 426 379 C426 429 369 470 270 470 C144 470 70 400 70 311 C70 240 119 208 192 180 C243 159 291 141 291 94 C291 44 251 11 189 11 C156 11 121 24 103 42 C122 55 131 74 131 95 C131 127 106 151 71 151 C31 151 4 120 4 83 C4 23 82 -8 172 -8 L172 -8 Z " />
<glyph glyph-name="t" unicode="t" horiz-adv-x="362" d="M403 433 L411 458 L284 458 L337 628 L199 610 L156 458 L64 458 L55 433 L148 433 L64 145 C57 121 53 99 53 81 C53 23 88 -8 162 -8 C235 -8 296 25 335 49 L335 60 C306 51 270 45 245 45 C207 45 188 59 188 93 C188 107 191 126 197 148 L277 433 L403 433 Z " />
<glyph glyph-name="u" unicode="u" horiz-adv-x="576" d="M52 156 C44 130 40 107 40 88 C40 28 76 -8 144 -8 C202 -8 266 26 324 92 L327 89 C322 76 320 64 320 53 C320 11 357 -8 413 -8 C455 -8 508 6 534 15 L534 26 C466 22 444 28 444 56 C444 68 447 82 453 101 L563 463 L428 463 L387 305 L331 112 C289 74 254 56 220 56 C187 56 171 71 171 101 C171 111 174 131 180 150 L279 465 L63 452 L63 440 C125 436 138 421 127 388 L52 156 Z " />
<glyph glyph-name="v" unicode="v" horiz-adv-x="496" d="M223 -15 L390 204 C482 323 495 352 495 398 C495 437 466 471 424 471 C377 471 350 440 350 396 C350 359 370 334 406 319 C394 278 358 206 302 128 L252 59 L247 59 L242 172 L210 468 L13 447 L13 435 C72 434 85 423 92 381 L119 150 L129 -5 L223 -15 Z " />
<glyph glyph-name="w" unicode="w" horiz-adv-x="752" d="M498 -16 L663 204 C753 324 765 352 765 398 C765 437 736 471 694 471 C647 471 620 440 620 396 C620 359 640 334 676 319 C664 278 632 207 575 128 L526 58 L521 58 L516 172 L486 468 L357 454 L377 283 C364 249 344 207 314 160 L251 59 L246 59 L242 172 L210 468 L13 447 L13 435 C72 434 85 423 92 381 L119 150 L128 -5 L225 -15 L385 218 L393 150 L402 -5 L498 -16 Z " />
<glyph glyph-name="x" unicode="x" horiz-adv-x="523" d="M243 466 L51 448 L51 436 C114 434 126 418 143 378 L213 207 L180 145 C153 95 118 54 104 46 C110 89 83 127 42 127 C-3 127 -28 95 -28 55 C-28 16 2 -17 52 -17 C100 -17 141 12 186 106 L225 185 L228 185 L289 -7 L483 5 L483 16 C417 20 407 30 378 100 L317 248 L344 303 C367 353 394 389 416 400 C414 347 446 326 480 326 C517 326 547 356 547 398 C547 437 519 472 471 472 C415 472 377 433 342 352 L308 276 L305 276 L243 466 Z " />
<glyph glyph-name="y" unicode="y" horiz-adv-x="488" d="M203 468 L6 447 L6 435 C65 434 79 423 87 381 L126 180 L172 -79 C120 -151 65 -169 24 -171 C39 -160 51 -138 51 -113 C51 -70 21 -41 -18 -41 C-60 -41 -91 -75 -91 -117 C-91 -167 -56 -200 6 -200 C101 -200 180 -151 347 112 C458 287 485 340 485 396 C485 437 457 471 414 471 C368 471 341 440 341 396 C341 359 367 329 408 317 C401 269 373 198 318 114 L275 45 L271 45 L243 245 L203 468 Z " />
<glyph glyph-name="z" unicode="z" horiz-adv-x="456" d="M1 -15 C31 -1 72 2 111 2 C163 2 216 -8 295 -8 C362 -8 400 12 417 171 L405 173 C384 107 361 93 311 93 C281 93 228 100 186 100 C154 100 129 96 102 83 L100 86 L468 428 L461 463 L104 463 L54 284 L68 282 C112 353 130 365 202 367 L363 370 L365 365 L-14 13 L1 -15 Z " />
<glyph glyph-name="braceleft" unicode="&#x7b;" horiz-adv-x="404" d="M325 -169 L329 -154 C250 -147 228 -105 228 -44 C228 31 278 123 278 197 C278 261 243 310 103 322 L106 327 C217 332 269 348 308 387 C394 472 349 625 434 709 C461 736 492 747 554 749 L558 764 C409 764 355 745 312 702 C207 597 262 444 197 379 C168 350 130 342 46 335 L42 319 C139 310 165 292 165 240 C165 168 99 65 99 -19 C99 -105 178 -168 325 -169 L325 -169 Z " />
<glyph glyph-name="bar" unicode="&#x7c;" horiz-adv-x="306" d="M140 746 L140 -215 L166 -215 L166 746 L140 746 Z " />
<glyph glyph-name="braceright" unicode="&#x7d;" horiz-adv-x="404" d="M-119 -169 C30 -169 84 -149 127 -106 C231 -2 180 173 246 239 C275 267 314 277 398 283 L401 299 C305 309 279 327 279 378 C279 449 341 530 341 614 C341 700 261 763 114 764 L110 750 C189 743 211 700 211 639 C211 564 166 494 166 421 C166 357 200 308 341 296 L337 291 C227 287 174 270 135 232 C49 145 89 -28 5 -112 C-22 -139 -53 -152 -115 -154 L-119 -169 Z " />
<glyph glyph-name="asciitilde" unicode="&#x7e;" horiz-adv-x="381" d="M50 243 L63 243 C82 293 93 302 124 302 C163 302 233 250 279 250 C334 250 366 288 386 389 L372 389 C353 338 342 329 311 329 C273 329 203 382 157 382 C104 382 69 344 50 243 L50 243 Z " />
<glyph glyph-name="uni00A0" unicode="&#xa0;" horiz-adv-x="184" d="" />
<glyph glyph-name="exclamdown" unicode="&#xa1;" horiz-adv-x="284" d="M256 568 C302 568 337 605 337 647 C337 690 303 725 257 725 C211 725 176 689 176 646 C176 604 210 568 256 568 L256 568 Z M211 512 C135 317 26 135 26 58 C26 12 54 -17 95 -17 C132 -17 161 9 175 58 C195 133 200 343 226 508 L211 512 Z " />
<glyph glyph-name="cent" unicode="&#xa2;" horiz-adv-x="541" d="M235 -88 L256 -8 L257 -8 C352 -8 436 40 482 123 L468 132 C431 74 369 40 316 40 C299 40 284 42 270 46 L375 449 C409 444 432 426 447 401 C413 387 394 357 394 326 C394 291 421 265 462 265 C504 265 531 303 531 339 C531 405 474 458 379 468 L396 532 L371 537 L354 470 L346 470 C185 470 54 346 54 186 C54 77 124 4 229 -6 L209 -83 L235 -88 Z M186 182 C186 307 259 441 348 450 L246 57 C208 80 186 122 186 182 L186 182 Z " />
<glyph glyph-name="sterling" unicode="&#xa3;" horiz-adv-x="615" d="M495 333 L501 354 L340 354 C336 404 325 449 325 493 C325 603 377 660 456 660 C508 660 546 628 553 598 C504 595 468 560 468 513 C468 467 501 440 547 440 C595 440 634 478 634 537 C634 613 571 679 455 679 C297 679 180 580 180 444 C180 409 184 380 189 354 L85 354 L79 333 L193 333 C199 305 204 279 204 248 C204 208 196 166 175 129 C158 130 140 131 120 131 C36 131 -17 90 -17 42 C-17 13 4 -14 41 -14 C95 -14 137 23 175 96 C239 37 289 -14 391 -14 C496 -14 550 56 587 203 L570 206 C539 132 512 105 435 105 C333 105 286 121 198 128 C299 169 342 238 342 321 L342 333 L495 333 Z " />
<glyph glyph-name="yen" unicode="&#xa5;" horiz-adv-x="691" d="M606 214 L611 235 L407 235 L422 292 L438 311 L631 311 L637 332 L455 332 L615 524 C686 610 726 639 793 653 L796 666 L562 666 L559 652 C641 638 647 600 596 538 L421 326 L356 593 C349 626 359 648 461 653 L465 666 L127 666 L123 653 C182 640 199 628 210 583 L277 332 L95 332 L89 311 L283 311 L287 296 L271 235 L69 235 L63 214 L265 214 L227 66 C217 31 195 17 105 13 L103 0 L452 0 L456 13 C367 17 353 29 363 66 L401 214 L606 214 Z " />
<glyph glyph-name="brokenbar" unicode="&#xa6;" horiz-adv-x="306" d="M166 337 L166 746 L140 746 L140 337 L166 337 Z M140 194 L140 -215 L166 -215 L166 194 L140 194 Z " />
<glyph glyph-name="section" unicode="&#xa7;" horiz-adv-x="601" d="M234 -138 C384 -138 471 -47 471 46 C471 89 452 121 416 148 C512 178 552 238 552 297 C552 382 493 416 395 455 C330 483 272 507 272 556 C272 613 323 658 405 658 C463 658 502 632 514 606 C493 597 477 574 477 544 C477 515 498 488 538 488 C584 488 606 525 606 560 C606 619 544 679 410 679 C273 679 179 595 179 506 C179 458 201 424 243 397 C142 376 94 316 94 249 C94 163 173 128 248 100 C317 75 382 49 382 -9 C382 -62 333 -116 237 -116 C176 -116 123 -88 112 -61 C133 -50 152 -31 152 6 C152 35 132 62 93 62 C44 62 20 19 20 -15 C20 -71 79 -138 234 -138 L234 -138 Z M455 243 C455 210 438 178 400 159 C374 174 344 186 315 197 C250 222 193 252 193 304 C193 342 216 373 258 389 C281 377 306 368 330 358 C403 328 455 303 455 243 L455 243 Z " />
<glyph glyph-name="dieresis" unicode="&#xa8;" horiz-adv-x="389" d="M383 531 C430 531 469 572 469 624 C469 664 441 685 411 685 C364 685 325 645 325 592 C325 552 354 531 383 531 L383 531 Z M179 531 C225 531 264 572 264 624 C264 664 236 685 206 685 C159 685 120 645 120 592 C120 552 149 531 179 531 L179 531 Z " />
<glyph glyph-name="copyright" unicode="&#xa9;" horiz-adv-x="838" d="M426 150 C502 150 566 195 606 257 L595 266 C550 203 503 179 456 179 C384 179 353 227 353 300 C353 416 424 541 499 541 C547 541 567 514 596 408 L611 408 L645 553 L630 553 L604 525 C580 538 550 555 503 555 C352 555 262 434 262 316 C262 211 331 150 426 150 L426 150 Z M409 -34 C657 -34 825 171 825 406 C825 595 690 731 491 731 C243 731 75 526 75 291 C75 103 211 -34 409 -34 L409 -34 Z M410 -17 C222 -17 95 113 95 292 C95 517 252 714 490 714 C679 714 805 585 805 405 C805 180 648 -17 410 -17 L410 -17 Z " />
<glyph glyph-name="ordfeminine" unicode="&#xaa;" horiz-adv-x="469" d="M196 331 C238 331 270 350 304 395 L308 393 C303 349 326 332 374 332 C402 332 443 340 466 348 L466 358 C396 353 391 364 406 415 L453 571 L493 692 L388 683 L373 641 C360 669 342 691 297 691 C200 691 89 589 89 455 C89 376 134 331 196 331 L196 331 Z M247 376 C214 376 198 402 198 448 C198 533 250 665 318 665 C344 665 358 640 360 609 L303 417 C287 392 268 376 247 376 L247 376 Z " />
<glyph glyph-name="guillemotleft" unicode="&#xab;" horiz-adv-x="508" d="M397 22 L412 31 L349 227 L512 415 L501 427 L268 265 C243 248 234 240 234 234 C234 227 240 218 254 200 L397 22 Z M195 28 L210 37 L147 229 L311 414 L300 426 L67 267 C39 249 35 242 35 237 C35 231 39 223 54 204 L195 28 Z " />
<glyph glyph-name="registered" unicode="&#xae;" horiz-adv-x="377" d="M247 423 C341 423 417 499 417 593 C417 672 360 731 279 731 C185 731 109 655 109 561 C109 482 166 423 247 423 L247 423 Z M248 435 C174 435 123 489 123 562 C123 648 192 719 278 719 C352 719 403 665 403 592 C403 506 334 435 248 435 L248 435 Z M251 586 L268 656 L277 656 C292 656 309 653 309 632 C309 603 291 586 264 586 L251 586 Z M249 578 L262 578 C285 578 289 568 288 546 L286 530 C285 508 293 498 319 498 C323 498 338 498 340 499 L342 506 C326 506 323 511 324 527 L324 551 C325 568 313 577 288 580 L289 583 C328 588 345 603 345 626 C345 649 326 665 284 665 L210 665 L208 658 C227 656 233 653 232 647 L199 518 C198 513 192 509 172 508 L170 501 L249 501 L251 508 C235 509 234 512 235 518 L249 578 Z " />
<glyph glyph-name="macron" unicode="&#xaf;" horiz-adv-x="321" d="M108 556 L399 556 L411 603 L120 603 L108 556 Z " />
<glyph glyph-name="degree" unicode="&#xb0;" horiz-adv-x="390" d="M417 598 C417 684 353 720 286 720 C186 720 98 637 98 538 C98 451 163 416 230 416 C329 416 417 499 417 598 L417 598 Z M180 512 C180 573 218 699 285 699 C313 699 335 679 335 623 C335 563 297 437 231 437 C202 437 180 456 180 512 L180 512 Z " />
<glyph glyph-name="plusminus" unicode="&#xb1;" horiz-adv-x="530" d="M357 529 L331 529 L279 336 L86 336 L80 314 L273 314 L221 118 L247 118 L299 314 L492 314 L498 336 L305 336 L357 529 Z M408 0 L414 22 L3 22 L-3 0 L408 0 Z " />
<glyph glyph-name="acute" unicode="&#xb4;" horiz-adv-x="238" d="M115 526 L130 526 L209 585 C315 664 332 682 332 708 C332 733 310 756 282 756 C250 756 237 738 203 679 L115 526 Z " />
<glyph glyph-name="paragraph" unicode="&#xb6;" horiz-adv-x="702" d="M302 -99 L329 -99 L529 646 L621 646 L422 -99 L448 -99 L633 593 C645 637 671 648 771 654 L774 666 L500 666 C256 666 129 527 129 385 C129 274 217 199 379 186 L302 -99 Z " />
<glyph glyph-name="periodcentered" unicode="&#xb7;" horiz-adv-x="257" d="M153 244 C199 244 234 280 234 323 C234 365 201 400 155 400 C108 400 73 364 73 321 C73 279 107 244 153 244 L153 244 Z " />
<glyph glyph-name="cedilla" unicode="&#xb8;" horiz-adv-x="282" d="M27 -245 C96 -245 163 -209 163 -149 C163 -100 125 -75 53 -67 L52 -63 L138 4 L112 4 L-37 -115 L-35 -125 C-25 -124 -13 -123 -4 -123 C45 -123 77 -142 77 -173 C77 -203 53 -227 12 -227 C-17 -227 -39 -219 -65 -204 L-74 -219 C-46 -236 -21 -245 27 -245 L27 -245 Z " />
<glyph glyph-name="ordmasculine" unicode="&#xba;" horiz-adv-x="455" d="M249 330 C385 330 464 445 464 539 C464 635 403 691 310 691 C175 691 94 576 94 476 C94 386 156 330 249 330 L249 330 Z M244 347 C207 347 195 373 195 419 C195 505 238 674 314 674 C351 674 363 648 363 602 C363 517 321 347 244 347 L244 347 Z " />
<glyph glyph-name="guillemotright" unicode="&#xbb;" horiz-adv-x="507" d="M215 28 L448 187 C476 205 480 212 480 216 C480 223 476 231 461 250 L320 426 L305 417 L368 224 L204 40 L215 28 Z M14 27 L247 189 C272 206 281 214 281 220 C281 227 275 235 261 254 L118 432 L103 423 L166 227 L3 39 L14 27 Z " />
<glyph glyph-name="questiondown" unicode="&#xbf;" horiz-adv-x="503" d="M366 515 L327 386 C140 360 19 289 19 170 C19 66 109 -13 256 -13 C376 -13 470 59 469 142 C469 188 435 222 389 222 C343 222 314 186 315 148 C315 113 334 81 381 70 C365 41 318 7 261 7 C190 7 153 41 153 113 C153 216 205 328 351 373 L393 509 L366 515 Z M412 728 C366 728 331 691 331 649 C331 606 365 571 411 571 C457 571 492 608 492 650 C492 693 458 728 412 728 L412 728 Z " />
<glyph glyph-name="Agrave" unicode="&#xc0;" horiz-adv-x="708" d="M-70 0 L179 0 L182 14 C99 24 84 62 137 150 L208 267 L439 267 L460 87 C466 36 449 18 352 14 L349 0 L698 0 L701 14 C625 24 614 35 607 96 L530 710 L458 710 L115 162 C57 69 8 25 -67 14 L-70 0 Z M437 287 L221 287 L398 579 L404 579 L437 287 Z M518 766 L530 766 L479 911 C460 966 447 994 415 994 C385 994 362 970 362 945 C362 921 380 899 418 862 L518 766 Z " />
<glyph glyph-name="Aacute" unicode="&#xc1;" horiz-adv-x="708" d="M-70 0 L179 0 L182 14 C99 24 84 62 137 150 L208 267 L439 267 L460 87 C466 36 449 18 352 14 L349 0 L698 0 L701 14 C625 24 614 35 607 96 L530 710 L458 710 L115 162 C57 69 8 25 -67 14 L-70 0 Z M437 287 L221 287 L398 579 L404 579 L437 287 Z M457 766 L472 766 L551 825 C657 904 674 922 674 948 C674 973 652 996 624 996 C592 996 579 978 545 919 L457 766 Z " />
<glyph glyph-name="Acircumflex" unicode="&#xc2;" horiz-adv-x="708" d="M-70 0 L179 0 L182 14 C99 24 84 62 137 150 L208 267 L439 267 L460 87 C466 36 449 18 352 14 L349 0 L698 0 L701 14 C625 24 614 35 607 96 L530 710 L458 710 L115 162 C57 69 8 25 -67 14 L-70 0 Z M437 287 L221 287 L398 579 L404 579 L437 287 Z M351 763 L373 763 L523 852 L626 763 L642 763 L561 971 L548 971 L351 763 Z " />
<glyph glyph-name="Atilde" unicode="&#xc3;" horiz-adv-x="708" d="M-70 0 L179 0 L182 14 C99 24 84 62 137 150 L208 267 L439 267 L460 87 C466 36 449 18 352 14 L349 0 L698 0 L701 14 C625 24 614 35 607 96 L530 710 L458 710 L115 162 C57 69 8 25 -67 14 L-70 0 Z M437 287 L221 287 L398 579 L404 579 L437 287 Z M359 767 L375 767 C396 816 404 825 434 825 C472 825 536 771 580 771 C635 771 668 808 688 910 L672 910 C651 859 644 851 613 851 C576 851 512 906 467 906 C414 906 380 868 359 767 L359 767 Z " />
<glyph glyph-name="Adieresis" unicode="&#xc4;" horiz-adv-x="708" d="M-70 0 L179 0 L182 14 C99 24 84 62 137 150 L208 267 L439 267 L460 87 C466 36 449 18 352 14 L349 0 L698 0 L701 14 C625 24 614 35 607 96 L530 710 L458 710 L115 162 C57 69 8 25 -67 14 L-70 0 Z M437 287 L221 287 L398 579 L404 579 L437 287 Z M611 771 C658 771 697 812 697 864 C697 904 669 925 639 925 C592 925 553 885 553 832 C553 792 582 771 611 771 L611 771 Z M407 771 C453 771 492 812 492 864 C492 904 464 925 434 925 C387 925 348 885 348 832 C348 792 377 771 407 771 L407 771 Z " />
<glyph glyph-name="Aring" unicode="&#xc5;" horiz-adv-x="708" d="M208 267 L439 267 L460 87 C466 36 449 17 352 13 L349 0 L698 0 L701 13 C625 23 615 35 607 96 L531 703 C592 719 638 772 638 836 C638 903 592 932 536 932 C457 932 389 870 389 792 C389 742 415 713 453 702 L115 162 C57 69 8 24 -67 13 L-70 0 L179 0 L182 14 C99 24 84 62 137 150 L208 267 Z M437 287 L221 287 L398 579 L404 579 L437 287 Z M492 712 C471 712 456 728 456 770 C456 824 483 916 535 916 C556 916 571 900 571 858 C571 804 544 712 492 712 L492 712 Z " />
<glyph glyph-name="AE" unicode="&#xc6;" horiz-adv-x="1098" d="M875 222 L947 502 L932 502 C860 402 839 378 761 378 L708 378 L788 676 L897 676 C1016 676 1038 604 1065 464 L1081 464 L1139 697 L460 697 L457 684 C525 678 557 664 557 640 C557 627 548 611 531 592 L144 155 C61 62 21 32 -65 14 L-69 0 L190 0 L194 14 C145 18 122 33 122 59 C122 81 138 109 169 145 L291 284 L537 284 L478 60 C468 24 448 17 362 14 L359 0 L991 0 L1060 248 L1043 248 C951 104 882 21 742 21 L613 21 L703 358 L756 358 C834 358 838 334 860 222 L875 222 Z M542 304 L309 304 L629 668 L640 668 L542 304 Z " />
<glyph glyph-name="Ccedilla" unicode="&#xc7;" horiz-adv-x="714" d="M285 -245 C354 -245 421 -209 421 -149 C421 -100 383 -75 311 -67 L310 -63 L370 -16 C501 -8 610 75 680 176 L663 187 C584 80 490 23 402 23 C277 23 214 104 214 250 C214 445 349 694 495 694 C583 694 620 645 671 458 L687 458 L752 711 L736 711 L679 665 C635 691 585 714 501 714 C229 714 61 488 61 282 C61 98 180 -15 343 -17 L221 -115 L223 -125 C233 -124 245 -123 254 -123 C303 -123 335 -142 335 -173 C335 -203 311 -227 270 -227 C241 -227 219 -219 193 -204 L184 -219 C212 -236 237 -245 285 -245 L285 -245 Z " />
<glyph glyph-name="Egrave" unicode="&#xc8;" horiz-adv-x="709" d="M155 697 L152 684 C242 680 250 665 243 638 L88 60 C78 24 59 17 -28 14 L-31 0 L602 0 L671 248 L654 248 C562 104 493 21 353 21 L223 21 L313 358 L367 358 C445 358 448 334 470 222 L485 222 L558 502 L543 502 C471 402 450 378 372 378 L319 378 L398 676 L508 676 C627 676 649 604 676 464 L692 464 L750 697 L155 697 Z M521 766 L533 766 L482 911 C463 966 450 994 418 994 C388 994 365 970 365 945 C365 921 383 899 421 862 L521 766 Z " />
<glyph glyph-name="Eacute" unicode="&#xc9;" horiz-adv-x="709" d="M453 766 L468 766 L547 825 C653 904 670 922 670 948 C670 973 648 996 620 996 C588 996 575 978 541 919 L453 766 Z M155 697 L152 684 C242 680 250 665 243 638 L88 60 C78 24 59 17 -28 14 L-31 0 L602 0 L671 248 L654 248 C562 104 493 21 353 21 L223 21 L313 358 L367 358 C445 358 448 334 470 222 L485 222 L558 502 L543 502 C471 402 450 378 372 378 L319 378 L398 676 L508 676 C627 676 649 604 676 464 L692 464 L750 697 L155 697 Z " />
<glyph glyph-name="Ecircumflex" unicode="&#xca;" horiz-adv-x="709" d="M349 766 L371 766 L521 855 L624 766 L640 766 L559 974 L546 974 L349 766 Z M155 697 L152 684 C242 680 250 665 243 638 L88 60 C78 24 59 17 -28 14 L-31 0 L602 0 L671 248 L654 248 C562 104 493 21 353 21 L223 21 L313 358 L367 358 C445 358 448 334 470 222 L485 222 L558 502 L543 502 C471 402 450 378 372 378 L319 378 L398 676 L508 676 C627 676 649 604 676 464 L692 464 L750 697 L155 697 Z " />
<glyph glyph-name="Edieresis" unicode="&#xcb;" horiz-adv-x="709" d="M609 771 C656 771 695 812 695 864 C695 904 667 925 637 925 C590 925 551 885 551 832 C551 792 580 771 609 771 L609 771 Z M405 771 C451 771 490 812 490 864 C490 904 462 925 432 925 C385 925 346 885 346 832 C346 792 375 771 405 771 L405 771 Z M155 697 L152 684 C242 680 250 665 243 638 L88 60 C78 24 59 17 -28 14 L-31 0 L602 0 L671 248 L654 248 C562 104 493 21 353 21 L223 21 L313 358 L367 358 C445 358 448 334 470 222 L485 222 L558 502 L543 502 C471 402 450 378 372 378 L319 378 L398 676 L508 676 C627 676 649 604 676 464 L692 464 L750 697 L155 697 Z " />
<glyph glyph-name="Igrave" unicode="&#xcc;" horiz-adv-x="437" d="M520 684 L523 697 L161 697 L158 684 C250 680 262 666 254 638 L99 60 C89 24 68 17 -21 14 L-24 0 L339 0 L342 14 C254 17 235 23 245 60 L400 639 C407 666 431 680 520 684 L520 684 Z M382 766 L394 766 L343 911 C324 966 311 994 279 994 C249 994 226 970 226 945 C226 921 244 899 282 862 L382 766 Z " />
<glyph glyph-name="Iacute" unicode="&#xcd;" horiz-adv-x="437" d="M520 684 L523 697 L161 697 L158 684 C250 680 262 666 254 638 L99 60 C89 24 68 17 -21 14 L-24 0 L339 0 L342 14 C254 17 235 23 245 60 L400 639 C407 666 431 680 520 684 L520 684 Z M303 766 L318 766 L397 825 C503 904 520 922 520 948 C520 973 498 996 470 996 C438 996 425 978 391 919 L303 766 Z " />
<glyph glyph-name="Icircumflex" unicode="&#xce;" horiz-adv-x="437" d="M520 684 L523 697 L161 697 L158 684 C250 680 262 666 254 638 L99 60 C89 24 68 17 -21 14 L-24 0 L339 0 L342 14 C254 17 235 23 245 60 L400 639 C407 666 431 680 520 684 L520 684 Z M208 766 L230 766 L380 855 L483 766 L499 766 L418 974 L405 974 L208 766 Z " />
<glyph glyph-name="Idieresis" unicode="&#xcf;" horiz-adv-x="437" d="M520 684 L523 697 L161 697 L158 684 C250 680 262 666 254 638 L99 60 C89 24 68 17 -21 14 L-24 0 L339 0 L342 14 C254 17 235 23 245 60 L400 639 C407 666 431 680 520 684 L520 684 Z M471 771 C518 771 557 812 557 864 C557 904 529 925 499 925 C452 925 413 885 413 832 C413 792 442 771 471 771 L471 771 Z M267 771 C313 771 352 812 352 864 C352 904 324 925 294 925 C247 925 208 885 208 832 C208 792 237 771 267 771 L267 771 Z " />
<glyph glyph-name="Eth" unicode="&#xd0;" horiz-adv-x="777" d="M88 60 C78 24 59 17 -28 14 L-31 0 L349 0 C479 0 583 49 656 123 C736 203 779 312 779 414 C779 589 651 697 455 697 L155 697 L152 684 C242 680 250 665 243 638 L173 376 L74 376 L68 350 L166 350 L88 60 Z M223 20 L311 350 L449 350 L455 376 L318 376 L399 677 L458 677 C591 677 630 600 630 490 C630 382 591 189 491 88 C449 46 397 20 333 20 L223 20 Z " />
<glyph glyph-name="Ntilde" unicode="&#xd1;" horiz-adv-x="809" d="M367 697 L149 697 L146 684 C226 680 248 630 236 587 L121 153 C97 64 59 25 -34 14 L-37 0 L239 0 L242 14 C145 21 122 54 148 154 L263 583 L264 583 L566 -11 L618 -11 L767 544 C791 634 826 673 919 684 L922 697 L647 697 L644 684 C741 676 766 644 739 544 L639 164 L638 164 L367 697 Z M408 767 L424 767 C445 816 453 825 483 825 C521 825 585 771 629 771 C684 771 717 808 737 910 L721 910 C700 859 693 851 662 851 C625 851 561 906 516 906 C463 906 429 868 408 767 L408 767 Z " />
<glyph glyph-name="Ograve" unicode="&#xd2;" horiz-adv-x="773" d="M354 -17 C614 -17 776 224 776 424 C776 608 647 714 483 714 C223 714 61 473 61 274 C61 89 189 -17 354 -17 L354 -17 Z M335 3 C248 3 206 72 206 188 C206 398 327 694 502 694 C589 694 630 625 630 509 C630 299 510 3 335 3 L335 3 Z M548 766 L560 766 L509 911 C490 966 477 994 445 994 C415 994 392 970 392 945 C392 921 410 899 448 862 L548 766 Z " />
<glyph glyph-name="Oacute" unicode="&#xd3;" horiz-adv-x="773" d="M469 766 L484 766 L563 825 C669 904 686 922 686 948 C686 973 664 996 636 996 C604 996 591 978 557 919 L469 766 Z M354 -17 C614 -17 776 224 776 424 C776 608 647 714 483 714 C223 714 61 473 61 274 C61 89 189 -17 354 -17 L354 -17 Z M335 3 C248 3 206 72 206 188 C206 398 327 694 502 694 C589 694 630 625 630 509 C630 299 510 3 335 3 L335 3 Z " />
<glyph glyph-name="Ocircumflex" unicode="&#xd4;" horiz-adv-x="773" d="M376 766 L398 766 L548 855 L651 766 L667 766 L586 974 L573 974 L376 766 Z M354 -17 C614 -17 776 224 776 424 C776 608 647 714 483 714 C223 714 61 473 61 274 C61 89 189 -17 354 -17 L354 -17 Z M335 3 C248 3 206 72 206 188 C206 398 327 694 502 694 C589 694 630 625 630 509 C630 299 510 3 335 3 L335 3 Z " />
<glyph glyph-name="Otilde" unicode="&#xd5;" horiz-adv-x="773" d="M354 -17 C614 -17 776 224 776 424 C776 608 647 714 483 714 C223 714 61 473 61 274 C61 89 189 -17 354 -17 L354 -17 Z M335 3 C248 3 206 72 206 188 C206 398 327 694 502 694 C589 694 630 625 630 509 C630 299 510 3 335 3 L335 3 Z M380 767 L396 767 C417 816 425 825 455 825 C493 825 557 771 601 771 C656 771 689 808 709 910 L693 910 C672 859 665 851 634 851 C597 851 533 906 488 906 C435 906 401 868 380 767 L380 767 Z " />
<glyph glyph-name="Odieresis" unicode="&#xd6;" horiz-adv-x="773" d="M636 771 C683 771 722 812 722 864 C722 904 694 925 664 925 C617 925 578 885 578 832 C578 792 607 771 636 771 L636 771 Z M432 771 C478 771 517 812 517 864 C517 904 489 925 459 925 C412 925 373 885 373 832 C373 792 402 771 432 771 L432 771 Z M354 -17 C614 -17 776 224 776 424 C776 608 647 714 483 714 C223 714 61 473 61 274 C61 89 189 -17 354 -17 L354 -17 Z M335 3 C248 3 206 72 206 188 C206 398 327 694 502 694 C589 694 630 625 630 509 C630 299 510 3 335 3 L335 3 Z " />
<glyph glyph-name="multiply" unicode="&#xd7;" horiz-adv-x="556" d="M59 147 L72 128 L299 307 L429 130 L448 145 L318 322 L545 501 L532 520 L304 340 L174 518 L155 503 L285 325 L59 147 Z " />
<glyph glyph-name="Oslash" unicode="&#xd8;" horiz-adv-x="773" d="M67 -36 L152 53 C204 7 275 -17 354 -17 C614 -17 776 224 776 424 C776 510 748 579 701 628 L800 733 L770 733 L685 644 C633 690 562 714 483 714 C223 714 61 473 61 274 C61 187 89 117 136 68 L37 -36 L67 -36 Z M335 3 C267 3 227 44 212 117 L627 555 C629 541 630 525 630 509 C630 299 510 3 335 3 L335 3 Z M206 188 C206 398 327 694 502 694 C569 694 609 652 623 579 L208 142 C207 156 206 172 206 188 L206 188 Z " />
<glyph glyph-name="Ugrave" unicode="&#xd9;" horiz-adv-x="807" d="M368 637 C375 665 393 679 476 684 L479 697 L134 697 L131 684 C221 680 229 665 222 638 L126 279 C117 245 112 212 112 183 C111 53 200 -17 357 -17 C539 -17 623 64 663 215 L753 552 C778 643 810 673 902 684 L905 697 L631 697 L628 684 C725 676 748 636 725 551 L641 236 C598 75 517 17 406 17 C304 17 252 67 252 162 C252 191 257 224 267 263 L368 637 Z M571 766 L583 766 L532 911 C513 966 500 994 468 994 C438 994 415 970 415 945 C415 921 433 899 471 862 L571 766 Z " />
<glyph glyph-name="Uacute" unicode="&#xda;" horiz-adv-x="807" d="M496 766 L511 766 L590 825 C696 904 713 922 713 948 C713 973 691 996 663 996 C631 996 618 978 584 919 L496 766 Z M368 637 C375 665 393 679 476 684 L479 697 L134 697 L131 684 C221 680 229 665 222 638 L126 279 C117 245 112 212 112 183 C111 53 200 -17 357 -17 C539 -17 623 64 663 215 L753 552 C778 643 810 673 902 684 L905 697 L631 697 L628 684 C725 676 748 636 725 551 L641 236 C598 75 517 17 406 17 C304 17 252 67 252 162 C252 191 257 224 267 263 L368 637 Z " />
<glyph glyph-name="Ucircumflex" unicode="&#xdb;" horiz-adv-x="807" d="M404 766 L426 766 L576 855 L679 766 L695 766 L614 974 L601 974 L404 766 Z M368 637 C375 665 393 679 476 684 L479 697 L134 697 L131 684 C221 680 229 665 222 638 L126 279 C117 245 112 212 112 183 C111 53 200 -17 357 -17 C539 -17 623 64 663 215 L753 552 C778 643 810 673 902 684 L905 697 L631 697 L628 684 C725 676 748 636 725 551 L641 236 C598 75 517 17 406 17 C304 17 252 67 252 162 C252 191 257 224 267 263 L368 637 Z " />
<glyph glyph-name="Udieresis" unicode="&#xdc;" horiz-adv-x="807" d="M663 771 C710 771 749 812 749 864 C749 904 721 925 691 925 C644 925 605 885 605 832 C605 792 634 771 663 771 L663 771 Z M459 771 C505 771 544 812 544 864 C544 904 516 925 486 925 C439 925 400 885 400 832 C400 792 429 771 459 771 L459 771 Z M368 637 C375 665 393 679 476 684 L479 697 L134 697 L131 684 C221 680 229 665 222 638 L126 279 C117 245 112 212 112 183 C111 53 200 -17 357 -17 C539 -17 623 64 663 215 L753 552 C778 643 810 673 902 684 L905 697 L631 697 L628 684 C725 676 748 636 725 551 L641 236 C598 75 517 17 406 17 C304 17 252 67 252 162 C252 191 257 224 267 263 L368 637 Z " />
<glyph glyph-name="Yacute" unicode="&#xdd;" horiz-adv-x="692" d="M636 545 C713 640 758 672 830 684 L833 697 L582 697 L579 684 C666 667 670 629 609 550 L431 327 L338 620 C327 654 334 680 444 684 L447 697 L100 697 L97 684 C173 672 184 664 200 611 L295 305 L229 60 C219 24 198 17 109 14 L106 0 L468 0 L471 14 C384 17 365 23 375 60 L440 305 L636 545 Z M469 766 L484 766 L563 825 C669 904 686 922 686 948 C686 973 664 996 636 996 C604 996 591 978 557 919 L469 766 Z " />
<glyph glyph-name="Thorn" unicode="&#xde;" horiz-adv-x="683" d="M-31 0 L317 0 L320 14 C249 18 224 24 234 60 L260 159 L336 159 C590 159 678 285 678 389 C678 471 617 556 415 556 L367 556 L389 637 C395 665 411 679 494 684 L497 697 L155 697 L152 684 C242 680 250 665 243 638 L88 60 C78 24 59 17 -28 14 L-31 0 Z M265 178 L361 536 L413 536 C490 536 529 506 529 425 C529 329 488 178 324 178 L265 178 Z " />
<glyph glyph-name="germandbls" unicode="&#xdf;" horiz-adv-x="568" d="M-82 -200 C56 -200 123 -118 172 109 L269 550 C294 664 323 704 372 704 C418 704 437 666 437 607 C437 444 291 462 291 332 C291 216 451 200 451 92 C451 49 425 11 374 11 C345 11 321 23 311 40 C331 51 343 74 343 95 C343 127 320 151 285 151 C245 151 221 120 221 83 C221 23 286 -8 357 -8 C490 -8 542 65 542 143 C542 269 367 314 367 392 C367 499 551 480 551 609 C551 680 484 723 376 723 C252 723 170 660 132 491 L10 -51 C-13 -157 -45 -180 -80 -180 C-97 -180 -106 -177 -115 -172 C-96 -163 -80 -139 -80 -115 C-80 -83 -103 -51 -142 -51 C-182 -51 -209 -80 -209 -116 C-209 -169 -164 -200 -82 -200 L-82 -200 Z " />
<glyph glyph-name="agrave" unicode="&#xe0;" horiz-adv-x="555" d="M495 309 L549 470 L415 457 L396 406 C379 442 357 470 297 470 C174 470 26 333 26 155 C26 52 85 -8 162 -8 C218 -8 261 17 307 77 L309 76 C308 70 308 65 308 61 C307 8 339 -8 394 -8 C432 -8 484 4 514 15 L514 26 C448 22 424 27 424 56 C424 68 428 84 434 104 L495 309 Z M324 440 C356 440 379 403 382 364 L305 103 C284 70 257 47 229 47 C185 47 161 83 161 147 C161 260 237 440 324 440 L324 440 Z M386 526 L398 526 L347 671 C328 726 315 754 283 754 C253 754 230 730 230 705 C230 681 248 659 286 622 L386 526 Z " />
<glyph glyph-name="aacute" unicode="&#xe1;" horiz-adv-x="555" d="M495 309 L549 470 L415 457 L396 406 C379 442 357 470 297 470 C174 470 26 333 26 155 C26 52 85 -8 162 -8 C218 -8 261 17 307 77 L309 76 C308 70 308 65 308 61 C307 8 339 -8 394 -8 C432 -8 484 4 514 15 L514 26 C448 22 424 27 424 56 C424 68 428 84 434 104 L495 309 Z M324 440 C356 440 379 403 382 364 L305 103 C284 70 257 47 229 47 C185 47 161 83 161 147 C161 260 237 440 324 440 L324 440 Z M309 526 L324 526 L403 585 C509 664 526 682 526 708 C526 733 504 756 476 756 C444 756 431 738 397 679 L309 526 Z " />
<glyph glyph-name="acircumflex" unicode="&#xe2;" horiz-adv-x="555" d="M495 309 L549 470 L415 457 L396 406 C379 442 357 470 297 470 C174 470 26 333 26 155 C26 52 85 -8 162 -8 C218 -8 261 17 307 77 L309 76 C308 70 308 65 308 61 C307 8 339 -8 394 -8 C432 -8 484 4 514 15 L514 26 C448 22 424 27 424 56 C424 68 428 84 434 104 L495 309 Z M324 440 C356 440 379 403 382 364 L305 103 C284 70 257 47 229 47 C185 47 161 83 161 147 C161 260 237 440 324 440 L324 440 Z M209 526 L231 526 L381 615 L484 526 L500 526 L419 734 L406 734 L209 526 Z " />
<glyph glyph-name="atilde" unicode="&#xe3;" horiz-adv-x="555" d="M495 309 L549 470 L415 457 L396 406 C379 442 357 470 297 470 C174 470 26 333 26 155 C26 52 85 -8 162 -8 C218 -8 261 17 307 77 L309 76 C308 70 308 65 308 61 C307 8 339 -8 394 -8 C432 -8 484 4 514 15 L514 26 C448 22 424 27 424 56 C424 68 428 84 434 104 L495 309 Z M324 440 C356 440 379 403 382 364 L305 103 C284 70 257 47 229 47 C185 47 161 83 161 147 C161 260 237 440 324 440 L324 440 Z M216 527 L232 527 C253 576 261 585 291 585 C329 585 393 531 437 531 C492 531 525 568 545 670 L529 670 C508 619 501 611 470 611 C433 611 369 666 324 666 C271 666 237 628 216 527 L216 527 Z " />
<glyph glyph-name="adieresis" unicode="&#xe4;" horiz-adv-x="555" d="M495 309 L549 470 L415 457 L396 406 C379 442 357 470 297 470 C174 470 26 333 26 155 C26 52 85 -8 162 -8 C218 -8 261 17 307 77 L309 76 C308 70 308 65 308 61 C307 8 339 -8 394 -8 C432 -8 484 4 514 15 L514 26 C448 22 424 27 424 56 C424 68 428 84 434 104 L495 309 Z M324 440 C356 440 379 403 382 364 L305 103 C284 70 257 47 229 47 C185 47 161 83 161 147 C161 260 237 440 324 440 L324 440 Z M271 531 C317 531 356 572 356 624 C356 664 328 685 298 685 C251 685 212 645 212 592 C212 552 241 531 271 531 L271 531 Z M475 531 C522 531 561 572 561 624 C561 664 533 685 503 685 C456 685 417 645 417 592 C417 552 446 531 475 531 L475 531 Z " />
<glyph glyph-name="aring" unicode="&#xe5;" horiz-adv-x="555" d="M495 309 L549 470 L415 457 L396 406 C379 442 357 470 297 470 C174 470 26 333 26 155 C26 52 85 -8 162 -8 C218 -8 261 17 307 77 L309 76 C308 70 308 65 308 61 C307 8 339 -8 394 -8 C432 -8 484 4 514 15 L514 26 C448 22 424 27 424 56 C424 68 428 84 434 104 L495 309 Z M324 440 C356 440 379 403 382 364 L305 103 C284 70 257 47 229 47 C185 47 161 83 161 147 C161 260 237 440 324 440 L324 440 Z M376 531 C454 531 522 583 522 657 C522 715 473 746 417 746 C339 746 271 693 271 620 C271 562 320 531 376 531 L376 531 Z M378 548 C354 548 340 564 340 600 C340 649 367 729 415 729 C439 729 453 713 453 677 C453 628 426 548 378 548 L378 548 Z " />
<glyph glyph-name="ae" unicode="&#xe6;" horiz-adv-x="750" d="M603 470 C529 470 466 444 417 401 L414 401 C390 451 331 470 262 470 C148 470 81 418 81 359 C81 323 106 297 145 297 C185 297 213 321 213 366 C213 385 206 408 181 418 C195 437 221 451 254 451 C300 451 342 414 342 327 C342 301 341 278 336 251 C110 250 18 184 18 96 C18 33 66 -8 143 -8 C220 -8 288 47 325 132 L328 132 C339 41 404 -8 491 -8 C582 -8 659 38 710 117 L698 128 C658 72 598 40 545 40 C464 40 433 86 433 178 C433 195 434 212 437 229 C654 219 750 285 750 365 C750 424 703 470 603 470 L603 470 Z M595 451 C625 451 641 433 641 395 C641 331 611 244 440 246 C463 352 533 451 595 451 L595 451 Z M204 51 C165 51 138 77 138 121 C138 177 180 232 334 234 C319 118 268 51 204 51 L204 51 Z " />
<glyph glyph-name="ccedilla" unicode="&#xe7;" horiz-adv-x="467" d="M145 -245 C214 -245 281 -209 281 -149 C281 -100 243 -75 171 -67 L170 -63 L242 -7 C324 0 388 47 431 124 L417 133 C379 74 328 40 276 40 C195 40 159 87 159 179 C159 300 232 451 316 451 C342 451 359 442 372 427 C340 413 322 380 322 355 C322 315 349 291 391 291 C433 291 460 327 460 363 C460 427 402 470 304 470 C144 470 26 336 26 181 C26 70 101 -6 215 -8 L81 -115 L83 -125 C93 -124 105 -123 114 -123 C163 -123 195 -142 195 -173 C195 -203 171 -227 130 -227 C101 -227 79 -219 53 -204 L44 -219 C72 -236 97 -245 145 -245 L145 -245 Z " />
<glyph glyph-name="egrave" unicode="&#xe8;" horiz-adv-x="475" d="M475 365 C475 424 428 470 328 470 C152 470 25 333 25 176 C25 61 104 -8 213 -8 C307 -8 384 38 435 117 L423 128 C383 72 323 40 270 40 C189 40 158 86 158 178 C158 195 159 212 162 229 C379 219 475 285 475 365 L475 365 Z M320 451 C350 451 366 433 366 395 C366 331 336 244 165 246 C188 352 258 451 320 451 L320 451 Z M349 526 L361 526 L310 671 C291 726 278 754 246 754 C216 754 193 730 193 705 C193 681 211 659 249 622 L349 526 Z " />
<glyph glyph-name="eacute" unicode="&#xe9;" horiz-adv-x="475" d="M475 365 C475 424 428 470 328 470 C152 470 25 333 25 176 C25 61 104 -8 213 -8 C307 -8 384 38 435 117 L423 128 C383 72 323 40 270 40 C189 40 158 86 158 178 C158 195 159 212 162 229 C379 219 475 285 475 365 L475 365 Z M320 451 C350 451 366 433 366 395 C366 331 336 244 165 246 C188 352 258 451 320 451 L320 451 Z M275 526 L290 526 L369 585 C475 664 492 682 492 708 C492 733 470 756 442 756 C410 756 397 738 363 679 L275 526 Z " />
<glyph glyph-name="ecircumflex" unicode="&#xea;" horiz-adv-x="475" d="M475 365 C475 424 428 470 328 470 C152 470 25 333 25 176 C25 61 104 -8 213 -8 C307 -8 384 38 435 117 L423 128 C383 72 323 40 270 40 C189 40 158 86 158 178 C158 195 159 212 162 229 C379 219 475 285 475 365 L475 365 Z M320 451 C350 451 366 433 366 395 C366 331 336 244 165 246 C188 352 258 451 320 451 L320 451 Z M178 526 L200 526 L350 615 L453 526 L469 526 L388 734 L375 734 L178 526 Z " />
<glyph glyph-name="edieresis" unicode="&#xeb;" horiz-adv-x="475" d="M475 365 C475 424 428 470 328 470 C152 470 25 333 25 176 C25 61 104 -8 213 -8 C307 -8 384 38 435 117 L423 128 C383 72 323 40 270 40 C189 40 158 86 158 178 C158 195 159 212 162 229 C379 219 475 285 475 365 L475 365 Z M320 451 C350 451 366 433 366 395 C366 331 336 244 165 246 C188 352 258 451 320 451 L320 451 Z M235 531 C281 531 320 572 320 624 C320 664 292 685 262 685 C215 685 176 645 176 592 C176 552 205 531 235 531 L235 531 Z M439 531 C486 531 525 572 525 624 C525 664 497 685 467 685 C420 685 381 645 381 592 C381 552 410 531 439 531 L439 531 Z " />
<glyph glyph-name="igrave" unicode="&#xec;" horiz-adv-x="318" d="M276 32 C202 27 174 35 174 67 C174 78 178 91 183 109 L291 465 L59 452 L59 440 C120 436 149 421 138 388 L54 110 C49 93 46 77 46 64 C46 16 78 -8 143 -8 C192 -8 245 8 276 21 L276 32 Z M255 526 L267 526 L216 671 C197 726 184 754 152 754 C122 754 99 730 99 705 C99 681 117 659 155 622 L255 526 Z " />
<glyph glyph-name="iacute" unicode="&#xed;" horiz-adv-x="318" d="M177 526 L192 526 L271 585 C377 664 394 682 394 708 C394 733 372 756 344 756 C312 756 299 738 265 679 L177 526 Z M276 32 C202 27 174 35 174 67 C174 78 178 91 183 109 L291 465 L59 452 L59 440 C120 436 149 421 138 388 L54 110 C49 93 46 77 46 64 C46 16 78 -8 143 -8 C192 -8 245 8 276 21 L276 32 Z " />
<glyph glyph-name="icircumflex" unicode="&#xee;" horiz-adv-x="318" d="M78 526 L100 526 L250 615 L353 526 L369 526 L288 734 L275 734 L78 526 Z M276 32 C202 27 174 35 174 67 C174 78 178 91 183 109 L291 465 L59 452 L59 440 C120 436 149 421 138 388 L54 110 C49 93 46 77 46 64 C46 16 78 -8 143 -8 C192 -8 245 8 276 21 L276 32 Z " />
<glyph glyph-name="idieresis" unicode="&#xef;" horiz-adv-x="318" d="M342 531 C389 531 428 572 428 624 C428 664 400 685 370 685 C323 685 284 645 284 592 C284 552 313 531 342 531 L342 531 Z M138 531 C184 531 223 572 223 624 C223 664 195 685 165 685 C118 685 79 645 79 592 C79 552 108 531 138 531 L138 531 Z M276 32 C202 27 174 35 174 67 C174 78 178 91 183 109 L291 465 L59 452 L59 440 C120 436 149 421 138 388 L54 110 C49 93 46 77 46 64 C46 16 78 -8 143 -8 C192 -8 245 8 276 21 L276 32 Z " />
<glyph glyph-name="eth" unicode="&#xf0;" horiz-adv-x="527" d="M308 603 C341 562 361 511 368 452 C353 464 330 470 305 470 C124 470 25 317 25 189 C25 70 101 -8 221 -8 C402 -8 503 156 504 349 C505 474 461 571 373 639 L468 690 L458 708 L357 652 C304 688 238 716 156 733 L148 719 C211 692 261 659 296 618 L156 542 L166 524 L308 603 Z M215 11 C166 11 148 47 148 107 C148 221 209 451 312 451 C360 451 379 415 379 355 C379 241 317 11 215 11 L215 11 Z " />
<glyph glyph-name="ntilde" unicode="&#xf1;" horiz-adv-x="570" d="M64 162 L16 0 L150 0 L238 348 C280 386 322 409 357 409 C387 409 400 394 400 365 C400 348 396 332 389 309 L326 108 C320 90 317 72 317 59 C317 13 351 -8 415 -8 C457 -8 508 6 535 15 L535 26 C467 22 444 26 444 54 C444 65 447 80 453 100 L517 303 C525 329 529 353 529 372 C529 433 493 468 429 468 C371 468 304 431 245 368 L242 370 L271 465 L63 452 L63 440 C125 436 133 423 125 391 L64 162 Z M213 527 L229 527 C250 576 258 585 288 585 C326 585 390 531 434 531 C489 531 522 568 542 670 L526 670 C505 619 498 611 467 611 C430 611 366 666 321 666 C268 666 234 628 213 527 L213 527 Z " />
<glyph glyph-name="ograve" unicode="&#xf2;" horiz-adv-x="525" d="M304 470 C124 470 25 317 25 189 C25 70 100 -8 221 -8 C401 -8 500 145 500 273 C500 392 425 470 304 470 L304 470 Z M214 11 C166 11 147 47 147 107 C147 221 208 451 311 451 C359 451 378 415 378 355 C378 241 317 11 214 11 L214 11 Z M361 526 L373 526 L322 671 C303 726 290 754 258 754 C228 754 205 730 205 705 C205 681 223 659 261 622 L361 526 Z " />
<glyph glyph-name="oacute" unicode="&#xf3;" horiz-adv-x="525" d="M285 526 L300 526 L379 585 C485 664 502 682 502 708 C502 733 480 756 452 756 C420 756 407 738 373 679 L285 526 Z M304 470 C124 470 25 317 25 189 C25 70 100 -8 221 -8 C401 -8 500 145 500 273 C500 392 425 470 304 470 L304 470 Z M214 11 C166 11 147 47 147 107 C147 221 208 451 311 451 C359 451 378 415 378 355 C378 241 317 11 214 11 L214 11 Z " />
<glyph glyph-name="ocircumflex" unicode="&#xf4;" horiz-adv-x="525" d="M184 526 L206 526 L356 615 L459 526 L475 526 L394 734 L381 734 L184 526 Z M304 470 C124 470 25 317 25 189 C25 70 100 -8 221 -8 C401 -8 500 145 500 273 C500 392 425 470 304 470 L304 470 Z M214 11 C166 11 147 47 147 107 C147 221 208 451 311 451 C359 451 378 415 378 355 C378 241 317 11 214 11 L214 11 Z " />
<glyph glyph-name="otilde" unicode="&#xf5;" horiz-adv-x="525" d="M304 470 C124 470 25 317 25 189 C25 70 100 -8 221 -8 C401 -8 500 145 500 273 C500 392 425 470 304 470 L304 470 Z M214 11 C166 11 147 47 147 107 C147 221 208 451 311 451 C359 451 378 415 378 355 C378 241 317 11 214 11 L214 11 Z M192 527 L208 527 C229 576 237 585 267 585 C305 585 369 531 413 531 C468 531 501 568 521 670 L505 670 C484 619 477 611 446 611 C409 611 345 666 300 666 C247 666 213 628 192 527 L192 527 Z " />
<glyph glyph-name="odieresis" unicode="&#xf6;" horiz-adv-x="525" d="M449 531 C496 531 535 572 535 624 C535 664 507 685 477 685 C430 685 391 645 391 592 C391 552 420 531 449 531 L449 531 Z M245 531 C291 531 330 572 330 624 C330 664 302 685 272 685 C225 685 186 645 186 592 C186 552 215 531 245 531 L245 531 Z M304 470 C124 470 25 317 25 189 C25 70 100 -8 221 -8 C401 -8 500 145 500 273 C500 392 425 470 304 470 L304 470 Z M214 11 C166 11 147 47 147 107 C147 221 208 451 311 451 C359 451 378 415 378 355 C378 241 317 11 214 11 L214 11 Z " />
<glyph glyph-name="divide" unicode="&#xf7;" horiz-adv-x="576" d="M545 316 L550 338 L82 338 L77 316 L545 316 Z M353 414 C385 414 411 440 411 472 C411 504 385 530 353 530 C320 530 294 504 294 472 C294 440 320 414 353 414 L353 414 Z M275 124 C307 124 333 150 333 182 C333 214 307 240 275 240 C242 240 216 214 216 182 C216 150 242 124 275 124 L275 124 Z " />
<glyph glyph-name="oslash" unicode="&#xf8;" horiz-adv-x="525" d="M25 -27 L45 -27 L95 30 C128 5 170 -8 221 -8 C401 -8 500 145 500 273 C500 336 479 388 441 422 L500 489 L480 489 L429 432 C396 456 354 470 304 470 C124 470 25 317 25 189 C25 125 46 74 84 39 L25 -27 Z M311 451 C354 451 374 422 377 372 L147 111 C148 227 209 451 311 451 L311 451 Z M214 11 C171 11 151 39 147 88 L378 350 C376 235 315 11 214 11 L214 11 Z " />
<glyph glyph-name="ugrave" unicode="&#xf9;" horiz-adv-x="576" d="M52 156 C44 130 40 107 40 88 C40 28 76 -8 144 -8 C202 -8 266 26 324 92 L327 89 C322 76 320 64 320 53 C320 11 357 -8 413 -8 C455 -8 508 6 534 15 L534 26 C466 22 444 28 444 56 C444 68 447 82 453 101 L563 463 L428 463 L387 305 L331 112 C289 74 254 56 220 56 C187 56 171 71 171 101 C171 111 174 131 180 150 L279 465 L63 452 L63 440 C125 436 138 421 127 388 L52 156 Z M383 526 L395 526 L344 671 C325 726 312 754 280 754 C250 754 227 730 227 705 C227 681 245 659 283 622 L383 526 Z " />
<glyph glyph-name="uacute" unicode="&#xfa;" horiz-adv-x="576" d="M307 526 L322 526 L401 585 C507 664 524 682 524 708 C524 733 502 756 474 756 C442 756 429 738 395 679 L307 526 Z M52 156 C44 130 40 107 40 88 C40 28 76 -8 144 -8 C202 -8 266 26 324 92 L327 89 C322 76 320 64 320 53 C320 11 357 -8 413 -8 C455 -8 508 6 534 15 L534 26 C466 22 444 28 444 56 C444 68 447 82 453 101 L563 463 L428 463 L387 305 L331 112 C289 74 254 56 220 56 C187 56 171 71 171 101 C171 111 174 131 180 150 L279 465 L63 452 L63 440 C125 436 138 421 127 388 L52 156 Z " />
<glyph glyph-name="ucircumflex" unicode="&#xfb;" horiz-adv-x="576" d="M210 526 L232 526 L382 615 L485 526 L501 526 L420 734 L407 734 L210 526 Z M52 156 C44 130 40 107 40 88 C40 28 76 -8 144 -8 C202 -8 266 26 324 92 L327 89 C322 76 320 64 320 53 C320 11 357 -8 413 -8 C455 -8 508 6 534 15 L534 26 C466 22 444 28 444 56 C444 68 447 82 453 101 L563 463 L428 463 L387 305 L331 112 C289 74 254 56 220 56 C187 56 171 71 171 101 C171 111 174 131 180 150 L279 465 L63 452 L63 440 C125 436 138 421 127 388 L52 156 Z " />
<glyph glyph-name="udieresis" unicode="&#xfc;" horiz-adv-x="576" d="M473 531 C520 531 559 572 559 624 C559 664 531 685 501 685 C454 685 415 645 415 592 C415 552 444 531 473 531 L473 531 Z M269 531 C315 531 354 572 354 624 C354 664 326 685 296 685 C249 685 210 645 210 592 C210 552 239 531 269 531 L269 531 Z M52 156 C44 130 40 107 40 88 C40 28 76 -8 144 -8 C202 -8 266 26 324 92 L327 89 C322 76 320 64 320 53 C320 11 357 -8 413 -8 C455 -8 508 6 534 15 L534 26 C466 22 444 28 444 56 C444 68 447 82 453 101 L563 463 L428 463 L387 305 L331 112 C289 74 254 56 220 56 C187 56 171 71 171 101 C171 111 174 131 180 150 L279 465 L63 452 L63 440 C125 436 138 421 127 388 L52 156 Z " />
<glyph glyph-name="yacute" unicode="&#xfd;" horiz-adv-x="488" d="M203 468 L6 447 L6 435 C65 434 79 423 87 381 L126 180 L172 -79 C120 -151 65 -169 24 -171 C39 -160 51 -138 51 -113 C51 -70 21 -41 -18 -41 C-60 -41 -91 -75 -91 -117 C-91 -167 -56 -200 6 -200 C101 -200 180 -151 347 112 C458 287 485 340 485 396 C485 437 457 471 414 471 C368 471 341 440 341 396 C341 359 367 329 408 317 C401 269 373 198 318 114 L275 45 L271 45 L243 245 L203 468 Z M235 526 L250 526 L329 585 C435 664 452 682 452 708 C452 733 430 756 402 756 C370 756 357 738 323 679 L235 526 Z " />
<glyph glyph-name="thorn" unicode="&#xfe;" horiz-adv-x="537" d="M237 399 L234 401 L322 717 L85 702 L85 690 C159 686 176 673 168 642 L70 255 L-1 -17 L-43 -149 C-48 -166 -61 -176 -120 -178 L-120 -190 L187 -190 L187 -178 C101 -175 89 -166 93 -144 L141 33 C158 10 192 -7 240 -7 C367 -7 511 133 511 310 C511 413 453 470 380 470 C325 470 279 444 237 399 L237 399 Z M218 20 C189 20 159 37 150 71 L229 373 C249 396 287 417 312 417 C357 417 377 388 377 324 C377 199 304 20 218 20 L218 20 Z " />
<glyph glyph-name="ydieresis" unicode="&#xff;" horiz-adv-x="488" d="M203 468 L6 447 L6 435 C65 434 79 423 87 381 L126 180 L172 -79 C120 -151 65 -169 24 -171 C39 -160 51 -138 51 -113 C51 -70 21 -41 -18 -41 C-60 -41 -91 -75 -91 -117 C-91 -167 -56 -200 6 -200 C101 -200 180 -151 347 112 C458 287 485 340 485 396 C485 437 457 471 414 471 C368 471 341 440 341 396 C341 359 367 329 408 317 C401 269 373 198 318 114 L275 45 L271 45 L243 245 L203 468 Z M407 531 C454 531 493 572 493 624 C493 664 465 685 435 685 C388 685 349 645 349 592 C349 552 378 531 407 531 L407 531 Z M203 531 C249 531 288 572 288 624 C288 664 260 685 230 685 C183 685 144 645 144 592 C144 552 173 531 203 531 L203 531 Z " />
<glyph glyph-name="Amacron" unicode="&#x100;" horiz-adv-x="708" d="M-70 0 L179 0 L182 14 C99 24 84 62 137 150 L208 267 L439 267 L460 87 C466 36 449 18 352 14 L349 0 L698 0 L701 14 C625 24 614 35 607 96 L530 710 L458 710 L115 162 C57 69 8 25 -67 14 L-70 0 Z M437 287 L221 287 L398 579 L404 579 L437 287 Z M361 796 L652 796 L664 843 L373 843 L361 796 Z " />
<glyph glyph-name="amacron" unicode="&#x101;" horiz-adv-x="555" d="M495 309 L549 470 L415 457 L396 406 C379 442 357 470 297 470 C174 470 26 333 26 155 C26 52 85 -8 162 -8 C218 -8 261 17 307 77 L309 76 C308 70 308 65 308 61 C307 8 339 -8 394 -8 C432 -8 484 4 514 15 L514 26 C448 22 424 27 424 56 C424 68 428 84 434 104 L495 309 Z M324 440 C356 440 379 403 382 364 L305 103 C284 70 257 47 229 47 C185 47 161 83 161 147 C161 260 237 440 324 440 L324 440 Z M218 556 L509 556 L521 603 L230 603 L218 556 Z " />
<glyph glyph-name="Abreve" unicode="&#x102;" horiz-adv-x="708" d="M-70 0 L179 0 L182 14 C99 24 84 62 137 150 L208 267 L439 267 L460 87 C466 36 449 18 352 14 L349 0 L698 0 L701 14 C625 24 614 35 607 96 L530 710 L458 710 L115 162 C57 69 8 25 -67 14 L-70 0 Z M437 287 L221 287 L398 579 L404 579 L437 287 Z M502 771 C585 771 644 824 681 938 L661 938 C627 882 581 849 516 849 C455 849 423 881 417 938 L401 938 C376 822 422 771 502 771 L502 771 Z " />
<glyph glyph-name="abreve" unicode="&#x103;" horiz-adv-x="555" d="M495 309 L549 470 L415 457 L396 406 C379 442 357 470 297 470 C174 470 26 333 26 155 C26 52 85 -8 162 -8 C218 -8 261 17 307 77 L309 76 C308 70 308 65 308 61 C307 8 339 -8 394 -8 C432 -8 484 4 514 15 L514 26 C448 22 424 27 424 56 C424 68 428 84 434 104 L495 309 Z M324 440 C356 440 379 403 382 364 L305 103 C284 70 257 47 229 47 C185 47 161 83 161 147 C161 260 237 440 324 440 L324 440 Z M359 531 C442 531 501 584 538 698 L518 698 C484 642 438 609 373 609 C312 609 280 641 274 698 L258 698 C233 582 279 531 359 531 L359 531 Z " />
<glyph glyph-name="Aogonek" unicode="&#x104;" horiz-adv-x="708" d="M456 -246 C498 -246 541 -231 578 -209 L573 -197 C551 -206 532 -211 511 -211 C482 -211 458 -194 458 -157 C458 -114 491 -72 546 -31 L588 0 L698 0 L701 14 C625 24 614 35 607 96 L530 710 L458 710 L115 162 C57 69 8 25 -67 14 L-70 0 L179 0 L182 14 C99 24 84 62 137 150 L208 267 L439 267 L460 87 C466 36 449 18 352 14 L349 0 L564 0 L507 -27 C431 -63 363 -101 363 -168 C363 -215 398 -246 456 -246 L456 -246 Z M437 287 L221 287 L398 579 L404 579 L437 287 Z " />
<glyph glyph-name="aogonek" unicode="&#x105;" horiz-adv-x="555" d="M317 -246 C360 -246 402 -231 439 -209 L435 -197 C412 -206 394 -211 373 -211 C343 -211 320 -194 320 -157 C320 -114 350 -56 465 -6 L514 15 L514 26 C448 22 424 27 424 56 C424 68 428 84 434 104 L495 309 L549 470 L415 457 L396 406 C379 442 357 470 297 470 C174 470 26 333 26 155 C26 52 85 -8 162 -8 C218 -8 261 17 307 77 L309 76 C308 70 308 65 308 61 C307 8 339 -8 394 -8 C401 -8 414 -7 426 -6 L380 -25 C292 -61 225 -101 225 -168 C225 -215 260 -246 317 -246 L317 -246 Z M229 47 C185 47 161 83 161 147 C161 260 237 440 324 440 C356 440 379 403 382 364 L305 103 C284 70 257 47 229 47 L229 47 Z " />
<glyph glyph-name="Cacute" unicode="&#x106;" horiz-adv-x="714" d="M452 766 L467 766 L546 825 C652 904 669 922 669 948 C669 973 647 996 619 996 C587 996 574 978 540 919 L452 766 Z M348 -17 C489 -17 606 70 680 176 L663 187 C584 80 490 23 402 23 C277 23 214 104 214 250 C214 445 349 694 495 694 C583 694 620 645 671 458 L687 458 L752 711 L736 711 L679 665 C635 691 585 714 501 714 C229 714 61 488 61 282 C61 97 182 -17 348 -17 L348 -17 Z " />
<glyph glyph-name="cacute" unicode="&#x107;" horiz-adv-x="467" d="M257 526 L272 526 L351 585 C457 664 474 682 474 708 C474 733 452 756 424 756 C392 756 379 738 345 679 L257 526 Z M304 470 C144 470 26 336 26 181 C26 69 103 -8 218 -8 C312 -8 384 40 431 124 L417 133 C379 74 328 40 276 40 C195 40 159 87 159 179 C159 300 232 451 316 451 C342 451 359 442 372 427 C340 413 322 380 322 355 C322 315 349 291 391 291 C433 291 460 327 460 363 C460 427 402 470 304 470 L304 470 Z " />
<glyph glyph-name="Cdotaccent" unicode="&#x10a;" horiz-adv-x="714" d="M348 -17 C489 -17 606 70 680 176 L663 187 C584 80 490 23 402 23 C277 23 214 104 214 250 C214 445 349 694 495 694 C583 694 620 645 671 458 L687 458 L752 711 L736 711 L679 665 C635 691 585 714 501 714 C229 714 61 488 61 282 C61 97 182 -17 348 -17 L348 -17 Z M525 771 C574 771 615 814 615 868 C615 910 585 932 554 932 C505 932 464 889 464 835 C464 794 494 771 525 771 L525 771 Z " />
<glyph glyph-name="cdotaccent" unicode="&#x10b;" horiz-adv-x="467" d="M304 470 C144 470 26 336 26 181 C26 69 103 -8 218 -8 C312 -8 384 40 431 124 L417 133 C379 74 328 40 276 40 C195 40 159 87 159 179 C159 300 232 451 316 451 C342 451 359 442 372 427 C340 413 322 380 322 355 C322 315 349 291 391 291 C433 291 460 327 460 363 C460 427 402 470 304 470 L304 470 Z M322 531 C371 531 412 574 412 628 C412 670 382 692 351 692 C302 692 261 649 261 595 C261 554 291 531 322 531 L322 531 Z " />
<glyph glyph-name="Ccaron" unicode="&#x10c;" horiz-adv-x="714" d="M507 766 L520 766 L717 974 L695 974 L545 885 L442 974 L426 974 L507 766 Z M348 -17 C489 -17 606 70 680 176 L663 187 C584 80 490 23 402 23 C277 23 214 104 214 250 C214 445 349 694 495 694 C583 694 620 645 671 458 L687 458 L752 711 L736 711 L679 665 C635 691 585 714 501 714 C229 714 61 488 61 282 C61 97 182 -17 348 -17 L348 -17 Z " />
<glyph glyph-name="ccaron" unicode="&#x10d;" horiz-adv-x="467" d="M305 526 L318 526 L515 734 L493 734 L343 645 L240 734 L224 734 L305 526 Z M304 470 C144 470 26 336 26 181 C26 69 103 -8 218 -8 C312 -8 384 40 431 124 L417 133 C379 74 328 40 276 40 C195 40 159 87 159 179 C159 300 232 451 316 451 C342 451 359 442 372 427 C340 413 322 380 322 355 C322 315 349 291 391 291 C433 291 460 327 460 363 C460 427 402 470 304 470 L304 470 Z " />
<glyph glyph-name="Dcaron" unicode="&#x10e;" horiz-adv-x="777" d="M88 60 C78 24 59 17 -28 14 L-31 0 L349 0 C479 0 583 49 656 123 C736 203 779 312 779 414 C779 589 651 697 455 697 L155 697 L152 684 C242 680 250 665 243 638 L88 60 Z M223 20 L399 677 L458 677 C591 677 630 600 630 490 C630 382 591 189 491 88 C449 46 397 20 333 20 L223 20 Z M510 766 L523 766 L720 974 L698 974 L548 885 L445 974 L429 974 L510 766 Z " />
<glyph glyph-name="dcaron" unicode="&#x10f;" horiz-adv-x="552" d="M611 717 L374 702 L374 690 C448 686 465 672 457 641 L398 414 C381 447 358 470 298 470 C175 470 26 332 26 159 C26 55 92 -8 166 -8 C222 -8 265 19 309 75 L312 74 L312 63 C312 9 343 -8 398 -8 C440 -8 493 6 519 15 L519 26 C450 21 428 30 428 59 C428 70 432 87 438 106 L611 717 Z M325 440 C359 440 380 405 385 370 L308 100 C287 67 262 50 234 50 C190 50 161 83 161 147 C161 260 236 440 325 440 L325 440 Z M646 529 L661 529 L741 644 C762 675 781 703 781 726 C781 750 759 767 735 767 C705 767 689 749 679 698 L646 529 Z " />
<glyph glyph-name="Dcroat" unicode="&#x110;" horiz-adv-x="777" d="M88 60 C78 24 59 17 -28 14 L-31 0 L349 0 C479 0 583 49 656 123 C736 203 779 312 779 414 C779 589 651 697 455 697 L155 697 L152 684 C242 680 250 665 243 638 L173 376 L74 376 L68 350 L166 350 L88 60 Z M223 20 L311 350 L449 350 L455 376 L318 376 L399 677 L458 677 C591 677 630 600 630 490 C630 382 591 189 491 88 C449 46 397 20 333 20 L223 20 Z " />
<glyph glyph-name="dcroat" unicode="&#x111;" horiz-adv-x="552" d="M611 717 L374 702 L374 690 C448 686 465 672 457 641 L444 594 L316 594 L310 572 L439 572 L398 414 C381 447 358 470 298 470 C175 470 26 332 26 159 C26 55 92 -8 166 -8 C222 -8 265 19 309 75 L312 74 L312 63 C312 9 343 -8 398 -8 C440 -8 493 6 519 15 L519 26 C450 21 428 30 428 59 C428 70 432 87 438 106 L570 572 L637 572 L643 594 L576 594 L611 717 Z M325 440 C359 440 380 405 385 370 L308 100 C287 67 262 50 234 50 C190 50 161 83 161 147 C161 260 236 440 325 440 L325 440 Z " />
<glyph glyph-name="Emacron" unicode="&#x112;" horiz-adv-x="709" d="M155 697 L152 684 C242 680 250 665 243 638 L88 60 C78 24 59 17 -28 14 L-31 0 L602 0 L671 248 L654 248 C562 104 493 21 353 21 L223 21 L313 358 L367 358 C445 358 448 334 470 222 L485 222 L558 502 L543 502 C471 402 450 378 372 378 L319 378 L398 676 L508 676 C627 676 649 604 676 464 L692 464 L750 697 L155 697 Z M359 796 L650 796 L662 843 L371 843 L359 796 Z " />
<glyph glyph-name="emacron" unicode="&#x113;" horiz-adv-x="475" d="M475 365 C475 424 428 470 328 470 C152 470 25 333 25 176 C25 61 104 -8 213 -8 C307 -8 384 38 435 117 L423 128 C383 72 323 40 270 40 C189 40 158 86 158 178 C158 195 159 212 162 229 C379 219 475 285 475 365 L475 365 Z M320 451 C350 451 366 433 366 395 C366 331 336 244 165 246 C188 352 258 451 320 451 L320 451 Z M184 556 L475 556 L487 603 L196 603 L184 556 Z " />
<glyph glyph-name="Ebreve" unicode="&#x114;" horiz-adv-x="709" d="M155 697 L152 684 C242 680 250 665 243 638 L88 60 C78 24 59 17 -28 14 L-31 0 L602 0 L671 248 L654 248 C562 104 493 21 353 21 L223 21 L313 358 L367 358 C445 358 448 334 470 222 L485 222 L558 502 L543 502 C471 402 450 378 372 378 L319 378 L398 676 L508 676 C627 676 649 604 676 464 L692 464 L750 697 L155 697 Z M500 771 C583 771 642 824 679 938 L659 938 C625 882 579 849 514 849 C453 849 421 881 415 938 L399 938 C374 822 420 771 500 771 L500 771 Z " />
<glyph glyph-name="ebreve" unicode="&#x115;" horiz-adv-x="475" d="M475 365 C475 424 428 470 328 470 C152 470 25 333 25 176 C25 61 104 -8 213 -8 C307 -8 384 38 435 117 L423 128 C383 72 323 40 270 40 C189 40 158 86 158 178 C158 195 159 212 162 229 C379 219 475 285 475 365 L475 365 Z M320 451 C350 451 366 433 366 395 C366 331 336 244 165 246 C188 352 258 451 320 451 L320 451 Z M326 531 C409 531 468 584 505 698 L485 698 C451 642 405 609 340 609 C279 609 247 641 241 698 L225 698 C200 582 246 531 326 531 L326 531 Z " />
<glyph glyph-name="Edotaccent" unicode="&#x116;" horiz-adv-x="709" d="M155 697 L152 684 C242 680 250 665 243 638 L88 60 C78 24 59 17 -28 14 L-31 0 L602 0 L671 248 L654 248 C562 104 493 21 353 21 L223 21 L313 358 L367 358 C445 358 448 334 470 222 L485 222 L558 502 L543 502 C471 402 450 378 372 378 L319 378 L398 676 L508 676 C627 676 649 604 676 464 L692 464 L750 697 L155 697 Z M507 771 C556 771 597 814 597 868 C597 910 567 932 536 932 C487 932 446 889 446 835 C446 794 476 771 507 771 L507 771 Z " />
<glyph glyph-name="edotaccent" unicode="&#x117;" horiz-adv-x="475" d="M475 365 C475 424 428 470 328 470 C152 470 25 333 25 176 C25 61 104 -8 213 -8 C307 -8 384 38 435 117 L423 128 C383 72 323 40 270 40 C189 40 158 86 158 178 C158 195 159 212 162 229 C379 219 475 285 475 365 L475 365 Z M320 451 C350 451 366 433 366 395 C366 331 336 244 165 246 C188 352 258 451 320 451 L320 451 Z M336 531 C385 531 426 574 426 628 C426 670 396 692 365 692 C316 692 275 649 275 595 C275 554 305 531 336 531 L336 531 Z " />
<glyph glyph-name="Eogonek" unicode="&#x118;" horiz-adv-x="712" d="M155 697 L152 684 C242 680 250 665 243 638 L88 60 C78 24 59 17 -28 14 L-31 0 L494 0 L437 -27 C361 -63 293 -101 293 -168 C293 -215 328 -246 386 -246 C428 -246 471 -231 508 -209 L503 -197 C481 -206 462 -211 441 -211 C412 -211 388 -194 388 -157 C388 -114 421 -72 476 -31 L518 0 L602 0 L671 248 L654 248 C562 104 493 21 353 21 L223 21 L313 358 L367 358 C445 358 448 334 470 222 L485 222 L558 502 L543 502 C471 402 450 378 372 378 L319 378 L398 676 L508 676 C627 676 649 604 676 464 L692 464 L750 697 L155 697 Z " />
<glyph glyph-name="eogonek" unicode="&#x119;" horiz-adv-x="475" d="M181 -246 C224 -246 266 -231 304 -209 L299 -197 C276 -206 258 -211 237 -211 C207 -211 184 -194 184 -157 C184 -111 220 -68 283 -21 L355 34 C385 56 412 82 435 117 L423 128 C383 72 323 40 270 40 C189 40 158 86 158 178 C158 195 159 212 162 229 C379 219 475 285 475 365 C475 424 428 470 328 470 C152 470 25 333 25 176 C25 61 104 -8 213 -8 C234 -8 261 -6 288 2 L211 -38 C161 -64 89 -100 89 -168 C89 -215 124 -246 181 -246 L181 -246 Z M320 451 C350 451 366 433 366 395 C366 331 336 244 165 246 C188 352 258 451 320 451 L320 451 Z " />
<glyph glyph-name="Ecaron" unicode="&#x11a;" horiz-adv-x="709" d="M494 766 L507 766 L704 974 L682 974 L532 885 L429 974 L413 974 L494 766 Z M155 697 L152 684 C242 680 250 665 243 638 L88 60 C78 24 59 17 -28 14 L-31 0 L602 0 L671 248 L654 248 C562 104 493 21 353 21 L223 21 L313 358 L367 358 C445 358 448 334 470 222 L485 222 L558 502 L543 502 C471 402 450 378 372 378 L319 378 L398 676 L508 676 C627 676 649 604 676 464 L692 464 L750 697 L155 697 Z " />
<glyph glyph-name="ecaron" unicode="&#x11b;" horiz-adv-x="475" d="M475 365 C475 424 428 470 328 470 C152 470 25 333 25 176 C25 61 104 -8 213 -8 C307 -8 384 38 435 117 L423 128 C383 72 323 40 270 40 C189 40 158 86 158 178 C158 195 159 212 162 229 C379 219 475 285 475 365 L475 365 Z M320 451 C350 451 366 433 366 395 C366 331 336 244 165 246 C188 352 258 451 320 451 L320 451 Z M318 526 L331 526 L528 734 L506 734 L356 645 L253 734 L237 734 L318 526 Z " />
<glyph glyph-name="Gbreve" unicode="&#x11e;" horiz-adv-x="757" d="M760 711 L744 711 L691 668 C648 692 585 714 501 714 C229 714 61 482 61 282 C61 97 197 -17 365 -17 C454 -17 541 5 619 40 L682 265 C689 293 699 307 769 311 L772 324 L450 324 L447 311 C540 307 548 293 541 265 L479 31 C445 11 415 3 376 3 C273 3 214 96 214 215 C214 426 334 694 505 694 C592 694 621 644 680 467 L696 467 L760 711 Z M511 771 C594 771 653 824 690 938 L670 938 C636 882 590 849 525 849 C464 849 432 881 426 938 L410 938 C385 822 431 771 511 771 L511 771 Z " />
<glyph glyph-name="gbreve" unicode="&#x11f;" horiz-adv-x="539" d="M165 0 C221 0 262 23 300 70 L303 68 L273 -32 C244 -133 205 -181 136 -181 C112 -181 74 -173 61 -149 C84 -138 101 -111 101 -86 C101 -50 79 -20 37 -20 C-6 -20 -37 -55 -37 -97 C-37 -145 14 -200 137 -200 C301 -200 367 -145 405 -7 L495 308 L549 470 L413 457 L396 409 C377 444 354 470 293 470 C171 470 27 334 27 162 C27 58 90 0 165 0 L165 0 Z M321 440 C355 440 378 401 383 366 L304 99 C283 70 259 56 232 56 C187 56 161 86 161 151 C161 262 232 440 321 440 L321 440 Z M339 531 C422 531 481 584 518 698 L498 698 C464 642 418 609 353 609 C292 609 260 641 254 698 L238 698 C213 582 259 531 339 531 L339 531 Z " />
<glyph glyph-name="Gdotaccent" unicode="&#x120;" horiz-adv-x="757" d="M760 711 L744 711 L691 668 C648 692 585 714 501 714 C229 714 61 482 61 282 C61 97 197 -17 365 -17 C454 -17 541 5 619 40 L682 265 C689 293 699 307 769 311 L772 324 L450 324 L447 311 C540 307 548 293 541 265 L479 31 C445 11 415 3 376 3 C273 3 214 96 214 215 C214 426 334 694 505 694 C592 694 621 644 680 467 L696 467 L760 711 Z M522 771 C571 771 612 814 612 868 C612 910 582 932 551 932 C502 932 461 889 461 835 C461 794 491 771 522 771 L522 771 Z " />
<glyph glyph-name="gdotaccent" unicode="&#x121;" horiz-adv-x="539" d="M165 0 C221 0 262 23 300 70 L303 68 L273 -32 C244 -133 205 -181 136 -181 C112 -181 74 -173 61 -149 C84 -138 101 -111 101 -86 C101 -50 79 -20 37 -20 C-6 -20 -37 -55 -37 -97 C-37 -145 14 -200 137 -200 C301 -200 367 -145 405 -7 L495 308 L549 470 L413 457 L396 409 C377 444 354 470 293 470 C171 470 27 334 27 162 C27 58 90 0 165 0 L165 0 Z M321 440 C355 440 378 401 383 366 L304 99 C283 70 259 56 232 56 C187 56 161 86 161 151 C161 262 232 440 321 440 L321 440 Z M348 531 C397 531 438 574 438 628 C438 670 408 692 377 692 C328 692 287 649 287 595 C287 554 317 531 348 531 L348 531 Z " />
<glyph glyph-name="Gcommaaccent" unicode="&#x122;" horiz-adv-x="757" d="M183 -309 C300 -271 369 -211 369 -137 C369 -95 341 -60 297 -60 C259 -60 228 -91 228 -130 C228 -168 256 -196 292 -193 L295 -197 C288 -218 260 -260 178 -298 L183 -309 Z M760 711 L744 711 L691 668 C648 692 585 714 501 714 C229 714 61 482 61 282 C61 97 197 -17 365 -17 C454 -17 541 5 619 40 L682 265 C689 293 699 307 769 311 L772 324 L450 324 L447 311 C540 307 548 293 541 265 L479 31 C445 11 415 3 376 3 C273 3 214 96 214 215 C214 426 334 694 505 694 C592 694 621 644 680 467 L696 467 L760 711 Z " />
<glyph glyph-name="gcommaaccent" unicode="&#x123;" horiz-adv-x="539" d="M479 804 C362 766 293 706 293 632 C293 590 321 555 365 555 C403 555 434 586 434 625 C434 663 406 691 370 688 L367 692 C374 713 402 755 484 793 L479 804 Z M165 0 C221 0 262 23 300 70 L303 68 L273 -32 C244 -133 205 -181 136 -181 C112 -181 74 -173 61 -149 C84 -138 101 -111 101 -86 C101 -50 79 -20 37 -20 C-6 -20 -37 -55 -37 -97 C-37 -145 14 -200 137 -200 C301 -200 367 -145 405 -7 L495 308 L549 470 L413 457 L396 409 C377 444 354 470 293 470 C171 470 27 334 27 162 C27 58 90 0 165 0 L165 0 Z M321 440 C355 440 378 401 383 366 L304 99 C283 70 259 56 232 56 C187 56 161 86 161 151 C161 262 232 440 321 440 L321 440 Z " />
<glyph glyph-name="Hbar" unicode="&#x126;" horiz-adv-x="843" d="M880 511 L886 535 L789 535 L817 638 C824 666 846 680 934 684 L937 697 L588 697 L585 684 C670 679 678 664 671 638 L643 535 L361 535 L389 637 C396 665 414 679 497 684 L500 697 L155 697 L152 684 C242 680 250 665 243 638 L215 535 L118 535 L112 511 L209 511 L88 60 C78 24 59 17 -28 14 L-31 0 L317 0 L320 14 C249 18 224 24 234 60 L312 352 L595 352 L517 61 C507 23 481 18 408 14 L405 0 L751 0 L754 14 C669 17 653 24 663 60 L783 511 L880 511 Z M317 372 L355 511 L637 511 L600 372 L317 372 Z " />
<glyph glyph-name="hbar" unicode="&#x127;" horiz-adv-x="565" d="M512 303 C520 329 524 353 524 372 C524 433 488 468 424 468 C366 468 299 431 240 368 L237 370 L293 572 L422 572 L428 594 L299 594 L333 717 L97 702 L97 690 C171 686 187 673 180 642 L168 594 L101 594 L95 572 L162 572 L59 162 L11 0 L145 0 L233 348 C275 386 317 409 352 409 C382 409 394 394 394 365 C394 348 391 332 384 309 L321 108 C315 90 312 72 312 59 C312 13 346 -8 410 -8 C452 -8 503 6 529 15 L529 26 C462 22 439 26 439 54 C439 65 442 80 448 100 L512 303 Z " />
<glyph glyph-name="Imacron" unicode="&#x12a;" horiz-adv-x="437" d="M520 684 L523 697 L161 697 L158 684 C250 680 262 666 254 638 L99 60 C89 24 68 17 -21 14 L-24 0 L339 0 L342 14 C254 17 235 23 245 60 L400 639 C407 666 431 680 520 684 L520 684 Z M218 796 L509 796 L521 843 L230 843 L218 796 Z " />
<glyph glyph-name="imacron" unicode="&#x12b;" horiz-adv-x="318" d="M276 32 C202 27 174 35 174 67 C174 78 178 91 183 109 L291 465 L59 452 L59 440 C120 436 149 421 138 388 L54 110 C49 93 46 77 46 64 C46 16 78 -8 143 -8 C192 -8 245 8 276 21 L276 32 Z M86 556 L377 556 L389 603 L98 603 L86 556 Z " />
<glyph glyph-name="Ibreve" unicode="&#x12c;" horiz-adv-x="437" d="M520 684 L523 697 L161 697 L158 684 C250 680 262 666 254 638 L99 60 C89 24 68 17 -21 14 L-24 0 L339 0 L342 14 C254 17 235 23 245 60 L400 639 C407 666 431 680 520 684 L520 684 Z M358 771 C441 771 500 824 537 938 L517 938 C483 882 437 849 372 849 C311 849 279 881 273 938 L257 938 C232 822 278 771 358 771 L358 771 Z " />
<glyph glyph-name="ibreve" unicode="&#x12d;" horiz-adv-x="318" d="M276 32 C202 27 174 35 174 67 C174 78 178 91 183 109 L291 465 L59 452 L59 440 C120 436 149 421 138 388 L54 110 C49 93 46 77 46 64 C46 16 78 -8 143 -8 C192 -8 245 8 276 21 L276 32 Z M230 531 C313 531 372 584 409 698 L389 698 C355 642 309 609 244 609 C183 609 151 641 145 698 L129 698 C104 582 150 531 230 531 L230 531 Z " />
<glyph glyph-name="Iogonek" unicode="&#x12e;" horiz-adv-x="437" d="M72 -246 C114 -246 157 -231 194 -209 L189 -197 C167 -206 148 -211 127 -211 C98 -211 74 -194 74 -157 C74 -114 107 -72 162 -31 L204 0 L339 0 L342 14 C254 17 235 23 245 60 L400 639 C407 666 431 680 520 684 L523 697 L161 697 L158 684 C250 680 262 666 254 638 L99 60 C89 24 68 17 -21 14 L-24 0 L180 0 L123 -27 C47 -63 -21 -101 -21 -168 C-21 -215 14 -246 72 -246 L72 -246 Z " />
<glyph glyph-name="iogonek" unicode="&#x12f;" horiz-adv-x="313" d="M76 -246 C118 -246 161 -231 198 -209 L193 -197 C171 -206 152 -211 131 -211 C102 -211 78 -194 78 -157 C78 -92 148 -43 196 -17 C214 -7 259 14 276 21 L276 32 C202 27 174 35 174 67 C174 78 178 91 183 109 L291 465 L59 452 L59 440 C120 436 148 421 138 388 L54 110 C49 93 46 77 46 64 C46 16 78 -8 143 -8 C158 -8 172 -6 184 -5 L131 -27 C50 -62 -17 -101 -17 -168 C-17 -215 18 -246 76 -246 L76 -246 Z M250 545 C299 545 340 588 340 642 C340 683 311 706 279 706 C230 706 190 663 190 609 C190 567 219 545 250 545 L250 545 Z " />
<glyph glyph-name="Idotaccent" unicode="&#x130;" horiz-adv-x="437" d="M520 684 L523 697 L161 697 L158 684 C250 680 262 666 254 638 L99 60 C89 24 68 17 -21 14 L-24 0 L339 0 L342 14 C254 17 235 23 245 60 L400 639 C407 666 431 680 520 684 L520 684 Z M369 771 C418 771 459 814 459 868 C459 910 429 932 398 932 C349 932 308 889 308 835 C308 794 338 771 369 771 L369 771 Z " />
<glyph glyph-name="dotlessi" unicode="&#x131;" horiz-adv-x="318" d="M276 32 C202 27 174 35 174 67 C174 78 178 91 183 109 L291 465 L59 452 L59 440 C120 436 149 421 138 388 L54 110 C49 93 46 77 46 64 C46 16 78 -8 143 -8 C192 -8 245 8 276 21 L276 32 Z " />
<glyph glyph-name="Kcommaaccent" unicode="&#x136;" horiz-adv-x="780" d="M194 -309 C311 -271 380 -211 380 -137 C380 -95 352 -60 308 -60 C270 -60 239 -91 239 -130 C239 -168 267 -196 303 -193 L306 -197 C299 -218 271 -260 189 -298 L194 -309 Z M866 697 L581 697 L578 684 C660 676 674 624 596 557 L299 303 L389 637 C396 665 414 679 497 684 L500 697 L155 697 L152 684 C242 680 250 665 243 638 L88 60 C78 24 59 17 -28 14 L-31 0 L310 0 L313 14 C249 18 224 24 234 60 L290 271 L376 343 L479 91 C502 34 493 21 406 14 L403 0 L740 0 L743 14 C678 22 668 30 638 98 L490 440 L623 552 C722 635 774 668 863 684 L866 697 Z " />
<glyph glyph-name="kcommaaccent" unicode="&#x137;" horiz-adv-x="533" d="M66 -309 C183 -271 252 -211 252 -137 C252 -95 224 -60 180 -60 C142 -60 111 -91 111 -130 C111 -168 139 -196 175 -193 L178 -197 C171 -218 143 -260 61 -298 L66 -309 Z M333 717 L97 702 L97 690 C171 686 187 673 180 642 L59 162 L12 0 L145 0 L210 257 L236 257 C286 257 306 241 306 181 C306 159 296 110 296 75 C296 27 310 -8 393 -8 C435 -8 480 3 506 12 L506 23 C438 21 426 32 426 62 C426 95 433 140 433 167 C433 227 402 270 280 267 L280 271 C342 290 363 412 425 424 C417 413 411 395 411 382 C411 346 439 327 476 327 C514 327 540 355 540 401 C540 437 515 470 464 470 C345 470 332 272 237 272 L214 272 L333 717 Z " />
<glyph glyph-name="Lacute" unicode="&#x139;" horiz-adv-x="666" d="M326 766 L341 766 L420 825 C526 904 543 922 543 948 C543 973 521 996 493 996 C461 996 448 978 414 919 L326 766 Z M389 637 C396 665 415 680 501 684 L504 697 L155 697 L152 684 C242 680 250 665 243 638 L88 60 C78 24 59 17 -28 14 L-31 0 L565 0 L640 258 L623 258 C497 85 444 21 324 21 L223 21 L389 637 Z " />
<glyph glyph-name="lacute" unicode="&#x13a;" horiz-adv-x="303" d="M248 773 L263 773 L342 832 C448 911 465 929 465 955 C465 980 443 1003 415 1003 C383 1003 370 985 336 926 L248 773 Z M345 717 L110 702 L110 690 C184 686 201 673 193 642 L145 458 L42 111 C37 93 34 77 34 63 C34 16 65 -8 130 -8 C179 -8 234 8 265 21 L265 32 C189 28 162 35 162 69 C162 80 165 93 169 109 L345 717 Z " />
<glyph glyph-name="Lcommaaccent" unicode="&#x13b;" horiz-adv-x="666" d="M169 -309 C286 -271 355 -211 355 -137 C355 -95 327 -60 283 -60 C245 -60 214 -91 214 -130 C214 -168 242 -196 278 -193 L281 -197 C274 -218 246 -260 164 -298 L169 -309 Z M389 637 C396 665 415 680 501 684 L504 697 L155 697 L152 684 C242 680 250 665 243 638 L88 60 C78 24 59 17 -28 14 L-31 0 L565 0 L640 258 L623 258 C497 85 444 21 324 21 L223 21 L389 637 Z " />
<glyph glyph-name="lcommaaccent" unicode="&#x13c;" horiz-adv-x="303" d="M-46 -309 C71 -271 140 -211 140 -137 C140 -95 112 -60 68 -60 C30 -60 -1 -91 -1 -130 C-1 -168 27 -196 63 -193 L66 -197 C59 -218 31 -260 -51 -298 L-46 -309 Z M345 717 L110 702 L110 690 C184 686 201 673 193 642 L145 458 L42 111 C37 93 34 77 34 63 C34 16 65 -8 130 -8 C179 -8 234 8 265 21 L265 32 C189 28 162 35 162 69 C162 80 165 93 169 109 L345 717 Z " />
<glyph glyph-name="Lcaron" unicode="&#x13d;" horiz-adv-x="666" d="M516 509 L531 509 L611 624 C632 655 651 683 651 706 C651 730 629 747 605 747 C575 747 559 729 549 678 L516 509 Z M389 637 C396 665 415 680 501 684 L504 697 L155 697 L152 684 C242 680 250 665 243 638 L88 60 C78 24 59 17 -28 14 L-31 0 L565 0 L640 258 L623 258 C497 85 444 21 324 21 L223 21 L389 637 Z " />
<glyph glyph-name="lcaron" unicode="&#x13e;" horiz-adv-x="303" d="M379 529 L394 529 L474 644 C495 675 514 703 514 726 C514 750 492 767 468 767 C438 767 422 749 412 698 L379 529 Z M345 717 L110 702 L110 690 C184 686 201 673 193 642 L145 458 L42 111 C37 93 34 77 34 63 C34 16 65 -8 130 -8 C179 -8 234 8 265 21 L265 32 C189 28 162 35 162 69 C162 80 165 93 169 109 L345 717 Z " />
<glyph glyph-name="Ldot" unicode="&#x13f;" horiz-adv-x="666" d="M-31 0 L565 0 L636 244 L619 244 C499 82 444 21 324 21 L223 21 L389 637 C396 665 415 680 501 684 L504 697 L155 697 L152 684 C242 680 250 665 243 638 L88 60 C78 24 59 17 -28 14 L-31 0 Z M534 306 C583 306 624 349 624 403 C624 445 594 467 563 467 C514 467 473 424 473 370 C473 329 503 306 534 306 L534 306 Z " />
<glyph glyph-name="ldot" unicode="&#x140;" horiz-adv-x="402" d="M356 244 C405 244 446 287 446 342 C446 383 416 405 385 405 C336 405 295 363 295 308 C295 267 325 244 356 244 L356 244 Z M345 717 L110 702 L110 690 C184 686 201 673 193 642 L145 458 L42 111 C37 93 34 77 34 63 C34 16 65 -8 130 -8 C179 -8 234 8 265 21 L265 32 C189 28 162 35 162 69 C162 80 165 93 169 109 L345 717 Z " />
<glyph glyph-name="Lslash" unicode="&#x141;" horiz-adv-x="666" d="M389 637 C396 665 415 680 501 684 L504 697 L155 697 L152 684 C242 680 250 665 243 638 L163 340 L56 314 L56 287 L155 312 L88 60 C78 24 59 17 -28 14 L-31 0 L565 0 L640 258 L623 258 C497 85 444 21 324 21 L223 21 L312 351 L470 391 L470 417 L319 379 L389 637 Z " />
<glyph glyph-name="lslash" unicode="&#x142;" horiz-adv-x="334" d="M360 717 L125 702 L125 690 C199 686 216 673 208 642 L160 458 L127 347 L33 324 L33 300 L119 321 L57 111 C52 93 49 77 49 63 C49 16 80 -8 145 -8 C194 -8 249 8 280 21 L280 32 C204 28 177 35 177 69 C177 80 180 93 184 109 L255 355 L356 380 L356 404 L262 381 L360 717 Z " />
<glyph glyph-name="Nacute" unicode="&#x143;" horiz-adv-x="809" d="M502 763 L517 763 L596 822 C702 901 719 919 719 945 C719 970 697 993 669 993 C637 993 624 975 590 916 L502 763 Z M367 697 L149 697 L146 684 C226 680 248 630 236 587 L121 153 C97 64 59 25 -34 14 L-37 0 L239 0 L242 14 C145 21 122 54 148 154 L263 583 L264 583 L566 -11 L618 -11 L767 544 C791 634 826 673 919 684 L922 697 L647 697 L644 684 C741 676 766 644 739 544 L639 164 L638 164 L367 697 Z " />
<glyph glyph-name="nacute" unicode="&#x144;" horiz-adv-x="570" d="M315 526 L330 526 L409 585 C515 664 532 682 532 708 C532 733 510 756 482 756 C450 756 437 738 403 679 L315 526 Z M64 162 L16 0 L150 0 L238 348 C280 386 322 409 357 409 C387 409 400 394 400 365 C400 348 396 332 389 309 L326 108 C320 90 317 72 317 59 C317 13 351 -8 415 -8 C457 -8 508 6 535 15 L535 26 C467 22 444 26 444 54 C444 65 447 80 453 100 L517 303 C525 329 529 353 529 372 C529 433 493 468 429 468 C371 468 304 431 245 368 L242 370 L271 465 L63 452 L63 440 C125 436 133 423 125 391 L64 162 Z " />
<glyph glyph-name="Ncommaaccent" unicode="&#x145;" horiz-adv-x="809" d="M223 -309 C340 -271 409 -211 409 -137 C409 -95 381 -60 337 -60 C299 -60 268 -91 268 -130 C268 -168 296 -196 332 -193 L335 -197 C328 -218 300 -260 218 -298 L223 -309 Z M367 697 L149 697 L146 684 C226 680 248 630 236 587 L121 153 C97 64 59 25 -34 14 L-37 0 L239 0 L242 14 C145 21 122 54 148 154 L263 583 L264 583 L566 -11 L618 -11 L767 544 C791 634 826 673 919 684 L922 697 L647 697 L644 684 C741 676 766 644 739 544 L639 164 L638 164 L367 697 Z " />
<glyph glyph-name="ncommaaccent" unicode="&#x146;" horiz-adv-x="570" d="M90 -309 C207 -271 276 -211 276 -137 C276 -95 248 -60 204 -60 C166 -60 135 -91 135 -130 C135 -168 163 -196 199 -193 L202 -197 C195 -218 167 -260 85 -298 L90 -309 Z M64 162 L16 0 L150 0 L238 348 C280 386 322 409 357 409 C387 409 400 394 400 365 C400 348 396 332 389 309 L326 108 C320 90 317 72 317 59 C317 13 351 -8 415 -8 C457 -8 508 6 535 15 L535 26 C467 22 444 26 444 54 C444 65 447 80 453 100 L517 303 C525 329 529 353 529 372 C529 433 493 468 429 468 C371 468 304 431 245 368 L242 370 L271 465 L63 452 L63 440 C125 436 133 423 125 391 L64 162 Z " />
<glyph glyph-name="Ncaron" unicode="&#x147;" horiz-adv-x="809" d="M543 763 L556 763 L753 971 L731 971 L581 882 L478 971 L462 971 L543 763 Z M367 697 L149 697 L146 684 C226 680 248 630 236 587 L121 153 C97 64 59 25 -34 14 L-37 0 L239 0 L242 14 C145 21 122 54 148 154 L263 583 L264 583 L566 -11 L618 -11 L767 544 C791 634 826 673 919 684 L922 697 L647 697 L644 684 C741 676 766 644 739 544 L639 164 L638 164 L367 697 Z " />
<glyph glyph-name="ncaron" unicode="&#x148;" horiz-adv-x="570" d="M356 526 L369 526 L566 734 L544 734 L394 645 L291 734 L275 734 L356 526 Z M64 162 L16 0 L150 0 L238 348 C280 386 322 409 357 409 C387 409 400 394 400 365 C400 348 396 332 389 309 L326 108 C320 90 317 72 317 59 C317 13 351 -8 415 -8 C457 -8 508 6 535 15 L535 26 C467 22 444 26 444 54 C444 65 447 80 453 100 L517 303 C525 329 529 353 529 372 C529 433 493 468 429 468 C371 468 304 431 245 368 L242 370 L271 465 L63 452 L63 440 C125 436 133 423 125 391 L64 162 Z " />
<glyph glyph-name="Omacron" unicode="&#x14c;" horiz-adv-x="773" d="M385 796 L676 796 L688 843 L397 843 L385 796 Z M354 -17 C614 -17 776 224 776 424 C776 608 647 714 483 714 C223 714 61 473 61 274 C61 89 189 -17 354 -17 L354 -17 Z M335 3 C248 3 206 72 206 188 C206 398 327 694 502 694 C589 694 630 625 630 509 C630 299 510 3 335 3 L335 3 Z " />
<glyph glyph-name="omacron" unicode="&#x14d;" horiz-adv-x="525" d="M194 556 L485 556 L497 603 L206 603 L194 556 Z M304 470 C124 470 25 317 25 189 C25 70 100 -8 221 -8 C401 -8 500 145 500 273 C500 392 425 470 304 470 L304 470 Z M214 11 C166 11 147 47 147 107 C147 221 208 451 311 451 C359 451 378 415 378 355 C378 241 317 11 214 11 L214 11 Z " />
<glyph glyph-name="Obreve" unicode="&#x14e;" horiz-adv-x="773" d="M354 -17 C614 -17 776 224 776 424 C776 608 647 714 483 714 C223 714 61 473 61 274 C61 89 189 -17 354 -17 L354 -17 Z M335 3 C248 3 206 72 206 188 C206 398 327 694 502 694 C589 694 630 625 630 509 C630 299 510 3 335 3 L335 3 Z M527 771 C610 771 669 824 706 938 L686 938 C652 882 606 849 541 849 C480 849 448 881 442 938 L426 938 C401 822 447 771 527 771 L527 771 Z " />
<glyph glyph-name="obreve" unicode="&#x14f;" horiz-adv-x="525" d="M304 470 C124 470 25 317 25 189 C25 70 100 -8 221 -8 C401 -8 500 145 500 273 C500 392 425 470 304 470 L304 470 Z M214 11 C166 11 147 47 147 107 C147 221 208 451 311 451 C359 451 378 415 378 355 C378 241 317 11 214 11 L214 11 Z M341 531 C424 531 483 584 520 698 L500 698 C466 642 420 609 355 609 C294 609 262 641 256 698 L240 698 C215 582 261 531 341 531 L341 531 Z " />
<glyph glyph-name="Ohungarumlaut" unicode="&#x150;" horiz-adv-x="773" d="M412 766 L427 766 L534 843 C621 906 641 922 641 952 C641 974 623 996 595 996 C558 996 542 972 493 893 L412 766 Z M590 766 L605 766 L712 843 C799 906 819 922 819 952 C819 974 801 996 773 996 C736 996 720 972 671 893 L590 766 Z M354 -17 C614 -17 776 224 776 424 C776 608 647 714 483 714 C223 714 61 473 61 274 C61 89 189 -17 354 -17 L354 -17 Z M335 3 C248 3 206 72 206 188 C206 398 327 694 502 694 C589 694 630 625 630 509 C630 299 510 3 335 3 L335 3 Z " />
<glyph glyph-name="ohungarumlaut" unicode="&#x151;" horiz-adv-x="525" d="M223 526 L238 526 L345 603 C432 666 452 682 452 712 C452 734 434 756 406 756 C369 756 353 732 304 653 L223 526 Z M401 526 L416 526 L523 603 C610 666 630 682 630 712 C630 734 612 756 584 756 C547 756 531 732 482 653 L401 526 Z M304 470 C124 470 25 317 25 189 C25 70 100 -8 221 -8 C401 -8 500 145 500 273 C500 392 425 470 304 470 L304 470 Z M214 11 C166 11 147 47 147 107 C147 221 208 451 311 451 C359 451 378 415 378 355 C378 241 317 11 214 11 L214 11 Z " />
<glyph glyph-name="OE" unicode="&#x152;" horiz-adv-x="1078" d="M971 0 L1040 248 L1023 248 C931 104 862 21 722 21 L592 21 L682 358 L736 358 C814 358 817 334 839 222 L854 222 L927 502 L912 502 C840 402 819 378 741 378 L688 378 L767 676 L877 676 C996 676 1018 604 1045 464 L1061 464 L1119 697 L502 697 C368 697 260 645 184 569 C106 491 63 388 63 289 C63 106 196 0 399 0 L971 0 Z M622 677 L446 20 L393 20 C254 20 211 95 211 213 C211 318 254 507 354 606 C398 650 453 677 519 677 L622 677 Z " />
<glyph glyph-name="oe" unicode="&#x153;" horiz-adv-x="807" d="M660 470 C578 470 509 438 458 386 C429 440 376 470 305 470 C124 470 25 317 25 189 C25 70 101 -8 221 -8 C298 -8 359 21 403 66 C432 18 485 -8 549 -8 C640 -8 716 38 767 117 L755 128 C716 72 655 40 603 40 C521 40 490 86 490 178 C490 195 491 212 494 229 C711 219 808 285 808 365 C808 424 760 470 660 470 L660 470 Z M215 11 C166 11 148 47 148 107 C148 221 209 451 312 451 C360 451 379 415 379 355 C379 241 317 11 215 11 L215 11 Z M653 451 C682 451 698 433 698 395 C698 331 668 244 497 246 C520 352 591 451 653 451 L653 451 Z " />
<glyph glyph-name="Racute" unicode="&#x154;" horiz-adv-x="732" d="M437 766 L452 766 L531 825 C637 904 654 922 654 948 C654 973 632 996 604 996 C572 996 559 978 525 919 L437 766 Z M314 358 L399 677 L460 677 C544 677 575 639 575 567 C575 494 540 358 366 358 L314 358 Z M152 684 C242 680 250 665 243 638 L88 60 C78 24 59 17 -28 14 L-31 0 L317 0 L320 14 C249 18 224 24 234 60 L308 339 L380 339 C474 339 495 307 481 216 L466 128 C451 35 468 -7 617 -7 C647 -7 673 -6 699 -4 L702 10 C620 14 609 28 618 117 L624 182 C636 290 596 338 449 347 L450 352 C655 377 720 458 720 550 C720 644 637 697 466 697 L155 697 L152 684 Z " />
<glyph glyph-name="racute" unicode="&#x155;" horiz-adv-x="460" d="M252 526 L267 526 L346 585 C452 664 469 682 469 708 C469 733 447 756 419 756 C387 756 374 738 340 679 L252 526 Z M397 470 C339 470 282 420 241 357 L239 359 L271 465 L63 452 L63 440 C125 436 133 423 125 391 L64 162 L16 0 L150 0 L233 330 C267 368 314 414 354 415 C339 401 336 378 336 368 C336 326 366 304 407 304 C452 304 484 339 484 391 C484 436 454 470 397 470 L397 470 Z " />
<glyph glyph-name="Rcommaaccent" unicode="&#x156;" horiz-adv-x="732" d="M190 -309 C307 -271 376 -211 376 -137 C376 -95 348 -60 304 -60 C266 -60 235 -91 235 -130 C235 -168 263 -196 299 -193 L302 -197 C295 -218 267 -260 185 -298 L190 -309 Z M314 358 L399 677 L460 677 C544 677 575 639 575 567 C575 494 540 358 366 358 L314 358 Z M152 684 C242 680 250 665 243 638 L88 60 C78 24 59 17 -28 14 L-31 0 L317 0 L320 14 C249 18 224 24 234 60 L308 339 L380 339 C474 339 495 307 481 216 L466 128 C451 35 468 -7 617 -7 C647 -7 673 -6 699 -4 L702 10 C620 14 609 28 618 117 L624 182 C636 290 596 338 449 347 L450 352 C655 377 720 458 720 550 C720 644 637 697 466 697 L155 697 L152 684 Z " />
<glyph glyph-name="rcommaaccent" unicode="&#x157;" horiz-adv-x="460" d="M-58 -309 C59 -271 128 -211 128 -137 C128 -95 100 -60 56 -60 C18 -60 -13 -91 -13 -130 C-13 -168 15 -196 51 -193 L54 -197 C47 -218 19 -260 -63 -298 L-58 -309 Z M397 470 C339 470 282 420 241 357 L239 359 L271 465 L63 452 L63 440 C125 436 133 423 125 391 L64 162 L16 0 L150 0 L233 330 C267 368 314 414 354 415 C339 401 336 378 336 368 C336 326 366 304 407 304 C452 304 484 339 484 391 C484 436 454 470 397 470 L397 470 Z " />
<glyph glyph-name="Rcaron" unicode="&#x158;" horiz-adv-x="732" d="M480 766 L493 766 L690 974 L668 974 L518 885 L415 974 L399 974 L480 766 Z M314 358 L399 677 L460 677 C544 677 575 639 575 567 C575 494 540 358 366 358 L314 358 Z M152 684 C242 680 250 665 243 638 L88 60 C78 24 59 17 -28 14 L-31 0 L317 0 L320 14 C249 18 224 24 234 60 L308 339 L380 339 C474 339 495 307 481 216 L466 128 C451 35 468 -7 617 -7 C647 -7 673 -6 699 -4 L702 10 C620 14 609 28 618 117 L624 182 C636 290 596 338 449 347 L450 352 C655 377 720 458 720 550 C720 644 637 697 466 697 L155 697 L152 684 Z " />
<glyph glyph-name="rcaron" unicode="&#x159;" horiz-adv-x="460" d="M291 526 L304 526 L501 734 L479 734 L329 645 L226 734 L210 734 L291 526 Z M397 470 C339 470 282 420 241 357 L239 359 L271 465 L63 452 L63 440 C125 436 133 423 125 391 L64 162 L16 0 L150 0 L233 330 C267 368 314 414 354 415 C339 401 336 378 336 368 C336 326 366 304 407 304 C452 304 484 339 484 391 C484 436 454 470 397 470 L397 470 Z " />
<glyph glyph-name="Sacute" unicode="&#x15a;" horiz-adv-x="581" d="M377 766 L392 766 L471 825 C577 904 594 922 594 948 C594 973 572 996 544 996 C512 996 499 978 465 919 L377 766 Z M-13 -17 L3 -17 L58 38 C108 11 186 -13 273 -13 C447 -13 538 104 538 231 C538 329 464 378 380 424 C304 465 238 500 238 570 C238 646 294 692 365 692 C442 692 499 650 555 477 L572 477 L631 716 L615 716 L558 669 C509 693 455 710 385 710 C229 710 126 597 126 481 C126 384 199 341 284 297 C373 252 433 209 433 132 C433 54 367 5 283 5 C179 5 124 72 76 245 L60 245 L-13 -17 Z " />
<glyph glyph-name="sacute" unicode="&#x15b;" horiz-adv-x="433" d="M236 526 L251 526 L330 585 C436 664 453 682 453 708 C453 733 431 756 403 756 C371 756 358 738 324 679 L236 526 Z M172 -8 C328 -8 385 68 385 153 C385 217 339 250 262 283 C209 306 161 326 161 369 C161 414 194 451 258 451 C291 451 320 439 332 421 C310 406 301 383 301 365 C301 339 327 312 361 312 C406 312 426 344 426 379 C426 429 369 470 270 470 C144 470 70 400 70 311 C70 240 119 208 192 180 C243 159 291 141 291 94 C291 44 251 11 189 11 C156 11 121 24 103 42 C122 55 131 74 131 95 C131 127 106 151 71 151 C31 151 4 120 4 83 C4 23 82 -8 172 -8 L172 -8 Z " />
<glyph glyph-name="Scedilla" unicode="&#x15e;" horiz-adv-x="581" d="M192 -245 C261 -245 328 -209 328 -149 C328 -100 290 -75 218 -67 L217 -63 L281 -13 C450 -9 538 106 538 231 C538 329 464 378 380 424 C304 465 238 500 238 570 C238 646 294 692 365 692 C442 692 499 650 555 477 L572 477 L631 716 L615 716 L558 669 C509 693 455 710 385 710 C229 710 126 597 126 481 C126 384 199 341 284 297 C373 252 433 209 433 132 C433 54 367 5 283 5 C179 5 124 72 76 245 L60 245 L-13 -17 L3 -17 L58 38 C104 13 176 -10 256 -13 L128 -115 L130 -125 C140 -124 152 -123 161 -123 C210 -123 242 -142 242 -173 C242 -203 218 -227 177 -227 C148 -227 126 -219 100 -204 L91 -219 C119 -236 144 -245 192 -245 L192 -245 Z " />
<glyph glyph-name="scedilla" unicode="&#x15f;" horiz-adv-x="433" d="M118 -245 C187 -245 254 -209 254 -149 C254 -100 216 -75 144 -67 L143 -63 L216 -6 C339 7 385 76 385 153 C385 217 339 250 262 283 C209 306 161 326 161 369 C161 414 194 451 258 451 C291 451 320 439 332 421 C310 406 301 383 301 365 C301 339 327 312 361 312 C406 312 426 344 426 379 C426 429 369 470 270 470 C144 470 70 400 70 311 C70 240 119 208 192 180 C243 159 291 141 291 94 C291 44 251 11 189 11 C156 11 121 24 103 42 C122 55 131 74 131 95 C131 127 106 151 71 151 C31 151 4 120 4 83 C4 23 82 -8 172 -8 L188 -8 L54 -115 L56 -125 C66 -124 78 -123 87 -123 C136 -123 168 -142 168 -173 C168 -203 144 -227 103 -227 C74 -227 52 -219 26 -204 L17 -219 C45 -236 70 -245 118 -245 L118 -245 Z " />
<glyph glyph-name="Scaron" unicode="&#x160;" horiz-adv-x="581" d="M427 766 L440 766 L637 974 L615 974 L465 885 L362 974 L346 974 L427 766 Z M-13 -17 L3 -17 L58 38 C108 11 186 -13 273 -13 C447 -13 538 104 538 231 C538 329 464 378 380 424 C304 465 238 500 238 570 C238 646 294 692 365 692 C442 692 499 650 555 477 L572 477 L631 716 L615 716 L558 669 C509 693 455 710 385 710 C229 710 126 597 126 481 C126 384 199 341 284 297 C373 252 433 209 433 132 C433 54 367 5 283 5 C179 5 124 72 76 245 L60 245 L-13 -17 Z " />
<glyph glyph-name="scaron" unicode="&#x161;" horiz-adv-x="433" d="M284 526 L297 526 L494 734 L472 734 L322 645 L219 734 L203 734 L284 526 Z M172 -8 C328 -8 385 68 385 153 C385 217 339 250 262 283 C209 306 161 326 161 369 C161 414 194 451 258 451 C291 451 320 439 332 421 C310 406 301 383 301 365 C301 339 327 312 361 312 C406 312 426 344 426 379 C426 429 369 470 270 470 C144 470 70 400 70 311 C70 240 119 208 192 180 C243 159 291 141 291 94 C291 44 251 11 189 11 C156 11 121 24 103 42 C122 55 131 74 131 95 C131 127 106 151 71 151 C31 151 4 120 4 83 C4 23 82 -8 172 -8 L172 -8 Z " />
<glyph glyph-name="Tcommaaccent" unicode="&#x162;" horiz-adv-x="723" d="M155 -309 C272 -271 341 -211 341 -137 C341 -95 313 -60 269 -60 C231 -60 200 -91 200 -130 C200 -168 228 -196 264 -193 L267 -197 C260 -218 232 -260 150 -298 L155 -309 Z M242 60 C232 24 211 17 110 14 L107 0 L493 0 L496 14 C396 17 377 23 388 60 L553 678 L576 678 C654 678 674 640 721 452 L737 452 L800 697 L169 697 L99 452 L118 452 C248 625 304 678 381 678 L407 678 L242 60 Z " />
<glyph glyph-name="tcommaaccent" unicode="&#x163;" horiz-adv-x="362" d="M-8 -309 C109 -271 178 -211 178 -137 C178 -95 150 -60 106 -60 C68 -60 37 -91 37 -130 C37 -168 65 -196 101 -193 L104 -197 C97 -218 69 -260 -13 -298 L-8 -309 Z M403 433 L411 458 L284 458 L337 628 L199 610 L156 458 L64 458 L55 433 L148 433 L64 145 C57 121 53 99 53 81 C53 23 88 -8 162 -8 C235 -8 296 25 335 49 L335 60 C306 51 270 45 245 45 C207 45 188 59 188 93 C188 107 191 126 197 148 L277 433 L403 433 Z " />
<glyph glyph-name="Tcaron" unicode="&#x164;" horiz-adv-x="723" d="M492 766 L505 766 L702 974 L680 974 L530 885 L427 974 L411 974 L492 766 Z M242 60 C232 24 211 17 110 14 L107 0 L493 0 L496 14 C396 17 377 23 388 60 L553 678 L576 678 C654 678 674 640 721 452 L737 452 L800 697 L169 697 L99 452 L118 452 C248 625 304 678 381 678 L407 678 L242 60 Z " />
<glyph glyph-name="tcaron" unicode="&#x165;" horiz-adv-x="362" d="M388 529 L403 529 L483 644 C504 675 523 703 523 726 C523 750 501 767 477 767 C447 767 431 749 421 698 L388 529 Z M403 433 L411 458 L284 458 L337 628 L199 610 L156 458 L64 458 L55 433 L148 433 L64 145 C57 121 53 99 53 81 C53 23 88 -8 162 -8 C235 -8 296 25 335 49 L335 60 C306 51 270 45 245 45 C207 45 188 59 188 93 C188 107 191 126 197 148 L277 433 L403 433 Z " />
<glyph glyph-name="Umacron" unicode="&#x16a;" horiz-adv-x="807" d="M368 637 C375 665 393 679 476 684 L479 697 L134 697 L131 684 C221 680 229 665 222 638 L126 279 C117 245 112 212 112 183 C111 53 200 -17 357 -17 C539 -17 623 64 663 215 L753 552 C778 643 810 673 902 684 L905 697 L631 697 L628 684 C725 676 748 636 725 551 L641 236 C598 75 517 17 406 17 C304 17 252 67 252 162 C252 191 257 224 267 263 L368 637 Z M413 796 L704 796 L716 843 L425 843 L413 796 Z " />
<glyph glyph-name="umacron" unicode="&#x16b;" horiz-adv-x="576" d="M52 156 C44 130 40 107 40 88 C40 28 76 -8 144 -8 C202 -8 266 26 324 92 L327 89 C322 76 320 64 320 53 C320 11 357 -8 413 -8 C455 -8 508 6 534 15 L534 26 C466 22 444 28 444 56 C444 68 447 82 453 101 L563 463 L428 463 L387 305 L331 112 C289 74 254 56 220 56 C187 56 171 71 171 101 C171 111 174 131 180 150 L279 465 L63 452 L63 440 C125 436 138 421 127 388 L52 156 Z M222 556 L513 556 L525 603 L234 603 L222 556 Z " />
<glyph glyph-name="Ubreve" unicode="&#x16c;" horiz-adv-x="807" d="M368 637 C375 665 393 679 476 684 L479 697 L134 697 L131 684 C221 680 229 665 222 638 L126 279 C117 245 112 212 112 183 C111 53 200 -17 357 -17 C539 -17 623 64 663 215 L753 552 C778 643 810 673 902 684 L905 697 L631 697 L628 684 C725 676 748 636 725 551 L641 236 C598 75 517 17 406 17 C304 17 252 67 252 162 C252 191 257 224 267 263 L368 637 Z M554 771 C637 771 696 824 733 938 L713 938 C679 882 633 849 568 849 C507 849 475 881 469 938 L453 938 C428 822 474 771 554 771 L554 771 Z " />
<glyph glyph-name="ubreve" unicode="&#x16d;" horiz-adv-x="576" d="M52 156 C44 130 40 107 40 88 C40 28 76 -8 144 -8 C202 -8 266 26 324 92 L327 89 C322 76 320 64 320 53 C320 11 357 -8 413 -8 C455 -8 508 6 534 15 L534 26 C466 22 444 28 444 56 C444 68 447 82 453 101 L563 463 L428 463 L387 305 L331 112 C289 74 254 56 220 56 C187 56 171 71 171 101 C171 111 174 131 180 150 L279 465 L63 452 L63 440 C125 436 138 421 127 388 L52 156 Z M365 531 C448 531 507 584 544 698 L524 698 C490 642 444 609 379 609 C318 609 286 641 280 698 L264 698 C239 582 285 531 365 531 L365 531 Z " />
<glyph glyph-name="Uring" unicode="&#x16e;" horiz-adv-x="807" d="M570 771 C648 771 716 823 716 897 C716 955 667 986 611 986 C533 986 465 933 465 860 C465 802 514 771 570 771 L570 771 Z M572 788 C548 788 534 804 534 840 C534 889 561 969 609 969 C633 969 647 953 647 917 C647 868 620 788 572 788 L572 788 Z M368 637 C375 665 393 679 476 684 L479 697 L134 697 L131 684 C221 680 229 665 222 638 L126 279 C117 245 112 212 112 183 C111 53 200 -17 357 -17 C539 -17 623 64 663 215 L753 552 C778 643 810 673 902 684 L905 697 L631 697 L628 684 C725 676 748 636 725 551 L641 236 C598 75 517 17 406 17 C304 17 252 67 252 162 C252 191 257 224 267 263 L368 637 Z " />
<glyph glyph-name="uring" unicode="&#x16f;" horiz-adv-x="576" d="M377 531 C455 531 523 583 523 657 C523 715 474 746 418 746 C340 746 272 693 272 620 C272 562 321 531 377 531 L377 531 Z M379 548 C355 548 341 564 341 600 C341 649 368 729 416 729 C440 729 454 713 454 677 C454 628 427 548 379 548 L379 548 Z M52 156 C44 130 40 107 40 88 C40 28 76 -8 144 -8 C202 -8 266 26 324 92 L327 89 C322 76 320 64 320 53 C320 11 357 -8 413 -8 C455 -8 508 6 534 15 L534 26 C466 22 444 28 444 56 C444 68 447 82 453 101 L563 463 L428 463 L387 305 L331 112 C289 74 254 56 220 56 C187 56 171 71 171 101 C171 111 174 131 180 150 L279 465 L63 452 L63 440 C125 436 138 421 127 388 L52 156 Z " />
<glyph glyph-name="Uhungarumlaut" unicode="&#x170;" horiz-adv-x="807" d="M368 637 C375 665 393 679 476 684 L479 697 L134 697 L131 684 C221 680 229 665 222 638 L126 279 C117 245 112 212 112 183 C111 53 200 -17 357 -17 C539 -17 623 64 663 215 L753 552 C778 643 810 673 902 684 L905 697 L631 697 L628 684 C725 676 748 636 725 551 L641 236 C598 75 517 17 406 17 C304 17 252 67 252 162 C252 191 257 224 267 263 L368 637 Z M444 766 L459 766 L566 843 C653 906 673 922 673 952 C673 974 655 996 627 996 C590 996 574 972 525 893 L444 766 Z M622 766 L637 766 L744 843 C831 906 851 922 851 952 C851 974 833 996 805 996 C768 996 752 972 703 893 L622 766 Z " />
<glyph glyph-name="uhungarumlaut" unicode="&#x171;" horiz-adv-x="576" d="M52 156 C44 130 40 107 40 88 C40 28 76 -8 144 -8 C202 -8 266 26 324 92 L327 89 C322 76 320 64 320 53 C320 11 357 -8 413 -8 C455 -8 508 6 534 15 L534 26 C466 22 444 28 444 56 C444 68 447 82 453 101 L563 463 L428 463 L387 305 L331 112 C289 74 254 56 220 56 C187 56 171 71 171 101 C171 111 174 131 180 150 L279 465 L63 452 L63 440 C125 436 138 421 127 388 L52 156 Z M247 526 L262 526 L369 603 C456 666 476 682 476 712 C476 734 458 756 430 756 C393 756 377 732 328 653 L247 526 Z M425 526 L440 526 L547 603 C634 666 654 682 654 712 C654 734 636 756 608 756 C571 756 555 732 506 653 L425 526 Z " />
<glyph glyph-name="Uogonek" unicode="&#x172;" horiz-adv-x="807" d="M368 637 C375 665 393 679 476 684 L479 697 L134 697 L131 684 C221 680 229 665 222 638 L126 279 C117 245 112 212 112 183 C111 53 200 -17 357 -17 L359 -17 L338 -27 C262 -63 194 -101 194 -168 C194 -215 229 -246 287 -246 C329 -246 372 -231 409 -209 L404 -197 C382 -206 363 -211 342 -211 C313 -211 289 -194 289 -157 C289 -114 322 -72 377 -31 L398 -15 C552 -4 626 76 663 215 L753 552 C778 643 810 673 902 684 L905 697 L631 697 L628 684 C725 676 748 636 725 551 L641 236 C598 75 517 17 406 17 C304 17 252 67 252 162 C252 191 257 224 267 263 L368 637 Z " />
<glyph glyph-name="uogonek" unicode="&#x173;" horiz-adv-x="583" d="M336 -246 C379 -246 421 -231 459 -209 L454 -197 C431 -206 413 -211 392 -211 C362 -211 339 -194 339 -157 C339 -114 370 -55 485 -6 L534 15 L534 26 C466 22 444 28 444 56 C444 68 447 82 453 101 L563 463 L428 463 L387 305 L331 112 C289 74 254 56 220 56 C187 56 171 71 171 101 C171 111 174 131 180 150 L279 465 L63 452 L63 440 C125 436 138 421 127 388 L52 156 C44 130 40 107 40 88 C40 28 76 -8 144 -8 C202 -8 266 26 324 92 L327 89 C322 76 320 64 320 53 C320 11 357 -8 413 -8 C421 -8 436 -7 446 -6 L400 -25 C312 -61 244 -101 244 -168 C244 -215 279 -246 336 -246 L336 -246 Z " />
<glyph glyph-name="Wcircumflex" unicode="&#x174;" horiz-adv-x="1044" d="M510 766 L532 766 L682 855 L785 766 L801 766 L720 974 L707 974 L510 766 Z M323 616 C320 659 332 680 413 684 L416 697 L92 697 L89 684 C164 673 174 659 180 603 L235 -12 L288 -12 L580 464 L624 -12 L676 -12 L994 535 C1050 631 1093 674 1169 684 L1172 697 L915 697 L912 684 C996 672 1019 630 958 524 L751 167 L746 167 L712 616 C709 659 724 680 809 684 L812 697 L487 697 L484 684 C552 678 563 659 568 603 L577 502 L366 164 L361 164 L323 616 Z " />
<glyph glyph-name="wcircumflex" unicode="&#x175;" horiz-adv-x="752" d="M296 526 L318 526 L468 615 L571 526 L587 526 L506 734 L493 734 L296 526 Z M498 -16 L663 204 C753 324 765 352 765 398 C765 437 736 471 694 471 C647 471 620 440 620 396 C620 359 640 334 676 319 C664 278 632 207 575 128 L526 58 L521 58 L516 172 L486 468 L357 454 L377 283 C364 249 344 207 314 160 L251 59 L246 59 L242 172 L210 468 L13 447 L13 435 C72 434 85 423 92 381 L119 150 L128 -5 L225 -15 L385 218 L393 150 L402 -5 L498 -16 Z " />
<glyph glyph-name="Ycircumflex" unicode="&#x176;" horiz-adv-x="692" d="M636 545 C713 640 758 672 830 684 L833 697 L582 697 L579 684 C666 667 670 629 609 550 L431 327 L338 620 C327 654 334 680 444 684 L447 697 L100 697 L97 684 C173 672 184 664 200 611 L295 305 L229 60 C219 24 198 17 109 14 L106 0 L468 0 L471 14 C384 17 365 23 375 60 L440 305 L636 545 Z M367 766 L389 766 L539 855 L642 766 L658 766 L577 974 L564 974 L367 766 Z " />
<glyph glyph-name="ycircumflex" unicode="&#x177;" horiz-adv-x="488" d="M203 468 L6 447 L6 435 C65 434 79 423 87 381 L126 180 L172 -79 C120 -151 65 -169 24 -171 C39 -160 51 -138 51 -113 C51 -70 21 -41 -18 -41 C-60 -41 -91 -75 -91 -117 C-91 -167 -56 -200 6 -200 C101 -200 180 -151 347 112 C458 287 485 340 485 396 C485 437 457 471 414 471 C368 471 341 440 341 396 C341 359 367 329 408 317 C401 269 373 198 318 114 L275 45 L271 45 L243 245 L203 468 Z M142 526 L164 526 L314 615 L417 526 L433 526 L352 734 L339 734 L142 526 Z " />
<glyph glyph-name="Ydieresis" unicode="&#x178;" horiz-adv-x="692" d="M636 545 C713 640 758 672 830 684 L833 697 L582 697 L579 684 C666 667 670 629 609 550 L431 327 L338 620 C327 654 334 680 444 684 L447 697 L100 697 L97 684 C173 672 184 664 200 611 L295 305 L229 60 C219 24 198 17 109 14 L106 0 L468 0 L471 14 C384 17 365 23 375 60 L440 305 L636 545 Z M621 771 C668 771 707 812 707 864 C707 904 679 925 649 925 C602 925 563 885 563 832 C563 792 592 771 621 771 L621 771 Z M417 771 C463 771 502 812 502 864 C502 904 474 925 444 925 C397 925 358 885 358 832 C358 792 387 771 417 771 L417 771 Z " />
<glyph glyph-name="Zacute" unicode="&#x179;" horiz-adv-x="672" d="M428 766 L443 766 L522 825 C628 904 645 922 645 948 C645 973 623 996 595 996 C563 996 550 978 516 919 L428 766 Z M584 677 L-32 17 L-30 0 L562 0 L634 246 L617 248 C490 81 412 20 320 20 L144 20 L757 680 L755 697 L194 697 L121 463 L141 461 C270 628 349 677 439 677 L584 677 Z " />
<glyph glyph-name="zacute" unicode="&#x17a;" horiz-adv-x="456" d="M238 526 L253 526 L332 585 C438 664 455 682 455 708 C455 733 433 756 405 756 C373 756 360 738 326 679 L238 526 Z M1 -15 C31 -1 72 2 111 2 C163 2 216 -8 295 -8 C362 -8 400 12 417 171 L405 173 C384 107 361 93 311 93 C281 93 228 100 186 100 C154 100 129 96 102 83 L100 86 L468 428 L461 463 L104 463 L54 284 L68 282 C112 353 130 365 202 367 L363 370 L365 365 L-14 13 L1 -15 Z " />
<glyph glyph-name="Zdotaccent" unicode="&#x17b;" horiz-adv-x="672" d="M584 677 L-32 17 L-30 0 L562 0 L634 246 L617 248 C490 81 412 20 320 20 L144 20 L757 680 L755 697 L194 697 L121 463 L141 461 C270 628 349 677 439 677 L584 677 Z M482 771 C531 771 572 814 572 868 C572 910 542 932 511 932 C462 932 421 889 421 835 C421 794 451 771 482 771 L482 771 Z " />
<glyph glyph-name="zdotaccent" unicode="&#x17c;" horiz-adv-x="456" d="M1 -15 C31 -1 72 2 111 2 C163 2 216 -8 295 -8 C362 -8 400 12 417 171 L405 173 C384 107 361 93 311 93 C281 93 228 100 186 100 C154 100 129 96 102 83 L100 86 L468 428 L461 463 L104 463 L54 284 L68 282 C112 353 130 365 202 367 L363 370 L365 365 L-14 13 L1 -15 Z M294 531 C343 531 384 574 384 628 C384 670 354 692 323 692 C274 692 233 649 233 595 C233 554 263 531 294 531 L294 531 Z " />
<glyph glyph-name="Zcaron" unicode="&#x17d;" horiz-adv-x="672" d="M464 766 L477 766 L674 974 L652 974 L502 885 L399 974 L383 974 L464 766 Z M584 677 L-32 17 L-30 0 L562 0 L634 246 L617 248 C490 81 412 20 320 20 L144 20 L757 680 L755 697 L194 697 L121 463 L141 461 C270 628 349 677 439 677 L584 677 Z " />
<glyph glyph-name="zcaron" unicode="&#x17e;" horiz-adv-x="456" d="M280 526 L293 526 L490 734 L468 734 L318 645 L215 734 L199 734 L280 526 Z M1 -15 C31 -1 72 2 111 2 C163 2 216 -8 295 -8 C362 -8 400 12 417 171 L405 173 C384 107 361 93 311 93 C281 93 228 100 186 100 C154 100 129 96 102 83 L100 86 L468 428 L461 463 L104 463 L54 284 L68 282 C112 353 130 365 202 367 L363 370 L365 365 L-14 13 L1 -15 Z " />
<glyph glyph-name="Aringacute" unicode="&#x1fa;" horiz-adv-x="708" d="M208 267 L439 267 L460 87 C466 36 449 17 352 13 L349 0 L698 0 L701 13 C625 23 615 35 607 96 L531 703 C592 719 638 772 638 836 C638 903 592 932 536 932 C457 932 389 870 389 792 C389 742 415 713 453 702 L115 162 C57 69 8 24 -67 13 L-70 0 L179 0 L182 14 C99 24 84 62 137 150 L208 267 Z M437 287 L221 287 L398 579 L404 579 L437 287 Z M516 953 L531 953 L610 1012 C716 1091 733 1109 733 1135 C733 1160 711 1183 683 1183 C651 1183 638 1165 604 1106 L516 953 Z M492 712 C471 712 456 728 456 770 C456 824 483 916 535 916 C556 916 571 900 571 858 C571 804 544 712 492 712 L492 712 Z " />
<glyph glyph-name="aringacute" unicode="&#x1fb;" horiz-adv-x="555" d="M495 309 L549 470 L415 457 L396 406 C379 442 357 470 297 470 C174 470 26 333 26 155 C26 52 85 -8 162 -8 C218 -8 261 17 307 77 L309 76 C308 70 308 65 308 61 C307 8 339 -8 394 -8 C432 -8 484 4 514 15 L514 26 C448 22 424 27 424 56 C424 68 428 84 434 104 L495 309 Z M324 440 C356 440 379 403 382 364 L305 103 C284 70 257 47 229 47 C185 47 161 83 161 147 C161 260 237 440 324 440 L324 440 Z M376 531 C454 531 522 583 522 657 C522 715 473 746 417 746 C339 746 271 693 271 620 C271 562 320 531 376 531 L376 531 Z M399 799 L414 799 L493 858 C599 937 616 955 616 981 C616 1006 594 1029 566 1029 C534 1029 521 1011 487 952 L399 799 Z M378 548 C354 548 340 564 340 600 C340 649 367 729 415 729 C439 729 453 713 453 677 C453 628 426 548 378 548 L378 548 Z " />
<glyph glyph-name="AEacute" unicode="&#x1fc;" horiz-adv-x="1098" d="M744 766 L759 766 L838 825 C944 904 961 922 961 948 C961 973 939 996 911 996 C879 996 866 978 832 919 L744 766 Z M875 222 L947 502 L932 502 C860 402 839 378 761 378 L708 378 L788 676 L897 676 C1016 676 1038 604 1065 464 L1081 464 L1139 697 L460 697 L457 684 C525 678 557 664 557 640 C557 627 548 611 531 592 L144 155 C61 62 21 32 -65 14 L-69 0 L190 0 L194 14 C145 18 122 33 122 59 C122 81 138 109 169 145 L291 284 L537 284 L478 60 C468 24 448 17 362 14 L359 0 L991 0 L1060 248 L1043 248 C951 104 882 21 742 21 L613 21 L703 358 L756 358 C834 358 838 334 860 222 L875 222 Z M542 304 L309 304 L629 668 L640 668 L542 304 Z " />
<glyph glyph-name="aeacute" unicode="&#x1fd;" horiz-adv-x="750" d="M603 470 C529 470 466 444 417 401 L414 401 C390 451 331 470 262 470 C148 470 81 418 81 359 C81 323 106 297 145 297 C185 297 213 321 213 366 C213 385 206 408 181 418 C195 437 221 451 254 451 C300 451 342 414 342 327 C342 301 341 278 336 251 C110 250 18 184 18 96 C18 33 66 -8 143 -8 C220 -8 288 47 325 132 L328 132 C339 41 404 -8 491 -8 C582 -8 659 38 710 117 L698 128 C658 72 598 40 545 40 C464 40 433 86 433 178 C433 195 434 212 437 229 C654 219 750 285 750 365 C750 424 703 470 603 470 L603 470 Z M595 451 C625 451 641 433 641 395 C641 331 611 244 440 246 C463 352 533 451 595 451 L595 451 Z M204 51 C165 51 138 77 138 121 C138 177 180 232 334 234 C319 118 268 51 204 51 L204 51 Z M455 526 L470 526 L549 585 C655 664 672 682 672 708 C672 733 650 756 622 756 C590 756 577 738 543 679 L455 526 Z " />
<glyph glyph-name="Oslashacute" unicode="&#x1fe;" horiz-adv-x="773" d="M67 -36 L152 53 C204 7 275 -17 354 -17 C614 -17 776 224 776 424 C776 510 748 579 701 628 L800 733 L770 733 L685 644 C633 690 562 714 483 714 C223 714 61 473 61 274 C61 187 89 117 136 68 L37 -36 L67 -36 Z M335 3 C267 3 227 44 212 117 L627 555 C629 541 630 525 630 509 C630 299 510 3 335 3 L335 3 Z M206 188 C206 398 327 694 502 694 C569 694 609 652 623 579 L208 142 C207 156 206 172 206 188 L206 188 Z M468 766 L483 766 L562 825 C668 904 685 922 685 948 C685 973 663 996 635 996 C603 996 590 978 556 919 L468 766 Z " />
<glyph glyph-name="oslashacute" unicode="&#x1ff;" horiz-adv-x="525" d="M25 -27 L45 -27 L95 30 C128 5 170 -8 221 -8 C401 -8 500 145 500 273 C500 336 479 388 441 422 L500 489 L480 489 L429 432 C396 456 354 470 304 470 C124 470 25 317 25 189 C25 125 46 74 84 39 L25 -27 Z M311 451 C354 451 374 422 377 372 L147 111 C148 227 209 451 311 451 L311 451 Z M214 11 C171 11 151 39 147 88 L378 350 C376 235 315 11 214 11 L214 11 Z M285 526 L300 526 L379 585 C485 664 502 682 502 708 C502 733 480 756 452 756 C420 756 407 738 373 679 L285 526 Z " />
<glyph glyph-name="Scommaaccent" unicode="&#x218;" horiz-adv-x="581" d="M110 -309 C227 -271 296 -211 296 -137 C296 -95 268 -60 224 -60 C186 -60 155 -91 155 -130 C155 -168 183 -196 219 -193 L222 -197 C215 -218 187 -260 105 -298 L110 -309 Z M-13 -17 L3 -17 L58 38 C108 11 186 -13 273 -13 C447 -13 538 104 538 231 C538 329 464 378 380 424 C304 465 238 500 238 570 C238 646 294 692 365 692 C442 692 499 650 555 477 L572 477 L631 716 L615 716 L558 669 C509 693 455 710 385 710 C229 710 126 597 126 481 C126 384 199 341 284 297 C373 252 433 209 433 132 C433 54 367 5 283 5 C179 5 124 72 76 245 L60 245 L-13 -17 Z " />
<glyph glyph-name="scommaaccent" unicode="&#x219;" horiz-adv-x="433" d="M22 -309 C139 -271 208 -211 208 -137 C208 -95 180 -60 136 -60 C98 -60 67 -91 67 -130 C67 -168 95 -196 131 -193 L134 -197 C127 -218 99 -260 17 -298 L22 -309 Z M172 -8 C328 -8 385 68 385 153 C385 217 339 250 262 283 C209 306 161 326 161 369 C161 414 194 451 258 451 C291 451 320 439 332 421 C310 406 301 383 301 365 C301 339 327 312 361 312 C406 312 426 344 426 379 C426 429 369 470 270 470 C144 470 70 400 70 311 C70 240 119 208 192 180 C243 159 291 141 291 94 C291 44 251 11 189 11 C156 11 121 24 103 42 C122 55 131 74 131 95 C131 127 106 151 71 151 C31 151 4 120 4 83 C4 23 82 -8 172 -8 L172 -8 Z " />
<glyph glyph-name="schwa" unicode="&#x259;" horiz-adv-x="475" d="M-1 96 C-1 37 46 -9 146 -9 C322 -9 449 128 449 285 C449 400 370 469 261 469 C167 469 90 423 39 344 L51 333 C91 389 151 421 204 421 C285 421 316 375 316 283 C316 266 314 249 311 232 C94 242 -1 175 -1 96 L-1 96 Z M154 10 C124 10 108 28 108 66 C108 130 138 216 308 215 C286 108 216 10 154 10 L154 10 Z " />
<glyph glyph-name="circumflex" unicode="&#x2c6;" horiz-adv-x="320" d="M108 526 L130 526 L280 615 L383 526 L399 526 L318 734 L305 734 L108 526 Z " />
<glyph glyph-name="caron" unicode="&#x2c7;" horiz-adv-x="320" d="M230 526 L243 526 L440 734 L418 734 L268 645 L165 734 L149 734 L230 526 Z " />
<glyph glyph-name="breve" unicode="&#x2d8;" horiz-adv-x="336" d="M247 531 C330 531 389 584 426 698 L406 698 C372 642 326 609 261 609 C200 609 168 641 162 698 L146 698 C121 582 167 531 247 531 L247 531 Z " />
<glyph glyph-name="dotaccent" unicode="&#x2d9;" horiz-adv-x="233" d="M212 531 C261 531 302 574 302 628 C302 670 272 692 241 692 C192 692 151 649 151 595 C151 554 181 531 212 531 L212 531 Z " />
<glyph glyph-name="ring" unicode="&#x2da;" horiz-adv-x="275" d="M235 531 C313 531 381 583 381 657 C381 715 332 746 276 746 C198 746 130 693 130 620 C130 562 179 531 235 531 L235 531 Z M237 548 C213 548 199 564 199 600 C199 649 226 729 274 729 C298 729 312 713 312 677 C312 628 285 548 237 548 L237 548 Z " />
<glyph glyph-name="ogonek" unicode="&#x2db;" horiz-adv-x="269" d="M1 -246 C43 -246 86 -231 123 -209 L118 -197 C96 -206 77 -211 56 -211 C27 -211 3 -194 3 -157 C3 -114 36 -72 91 -31 L153 15 L141 15 L52 -27 C-24 -63 -92 -101 -92 -168 C-92 -215 -57 -246 1 -246 L1 -246 Z " />
<glyph glyph-name="tilde" unicode="&#x2dc;" horiz-adv-x="356" d="M113 527 L129 527 C150 576 158 585 188 585 C226 585 290 531 334 531 C389 531 422 568 442 670 L426 670 C405 619 398 611 367 611 C330 611 266 666 221 666 C168 666 134 628 113 527 L113 527 Z " />
<glyph glyph-name="hungarumlaut" unicode="&#x2dd;" horiz-adv-x="444" d="M126 526 L141 526 L248 603 C335 666 355 682 355 712 C355 734 337 756 309 756 C272 756 256 732 207 653 L126 526 Z M304 526 L319 526 L426 603 C513 666 533 682 533 712 C533 734 515 756 487 756 C450 756 434 732 385 653 L304 526 Z " />
<glyph glyph-name="commaaccent" unicode="&#x326;" horiz-adv-x="255" d="M-85 -309 C32 -271 101 -211 101 -137 C101 -95 73 -60 29 -60 C-9 -60 -40 -91 -40 -130 C-40 -168 -12 -196 24 -193 L27 -197 C20 -218 -8 -260 -90 -298 L-85 -309 Z " />
<glyph glyph-name="Wgrave" unicode="&#x1e80;" horiz-adv-x="1044" d="M323 616 C320 659 332 680 413 684 L416 697 L92 697 L89 684 C164 673 174 659 180 603 L235 -12 L288 -12 L580 464 L624 -12 L676 -12 L994 535 C1050 631 1093 674 1169 684 L1172 697 L915 697 L912 684 C996 672 1019 630 958 524 L751 167 L746 167 L712 616 C709 659 724 680 809 684 L812 697 L487 697 L484 684 C552 678 563 659 568 603 L577 502 L366 164 L361 164 L323 616 Z M671 766 L683 766 L632 911 C613 966 600 994 568 994 C538 994 515 970 515 945 C515 921 533 899 571 862 L671 766 Z " />
<glyph glyph-name="wgrave" unicode="&#x1e81;" horiz-adv-x="752" d="M498 -16 L663 204 C753 324 765 352 765 398 C765 437 736 471 694 471 C647 471 620 440 620 396 C620 359 640 334 676 319 C664 278 632 207 575 128 L526 58 L521 58 L516 172 L486 468 L357 454 L377 283 C364 249 344 207 314 160 L251 59 L246 59 L242 172 L210 468 L13 447 L13 435 C72 434 85 423 92 381 L119 150 L128 -5 L225 -15 L385 218 L393 150 L402 -5 L498 -16 Z M466 526 L478 526 L427 671 C408 726 395 754 363 754 C333 754 310 730 310 705 C310 681 328 659 366 622 L466 526 Z " />
<glyph glyph-name="Wacute" unicode="&#x1e82;" horiz-adv-x="1044" d="M615 766 L630 766 L709 825 C815 904 832 922 832 948 C832 973 810 996 782 996 C750 996 737 978 703 919 L615 766 Z M323 616 C320 659 332 680 413 684 L416 697 L92 697 L89 684 C164 673 174 659 180 603 L235 -12 L288 -12 L580 464 L624 -12 L676 -12 L994 535 C1050 631 1093 674 1169 684 L1172 697 L915 697 L912 684 C996 672 1019 630 958 524 L751 167 L746 167 L712 616 C709 659 724 680 809 684 L812 697 L487 697 L484 684 C552 678 563 659 568 603 L577 502 L366 164 L361 164 L323 616 Z " />
<glyph glyph-name="wacute" unicode="&#x1e83;" horiz-adv-x="752" d="M393 526 L408 526 L487 585 C593 664 610 682 610 708 C610 733 588 756 560 756 C528 756 515 738 481 679 L393 526 Z M498 -16 L663 204 C753 324 765 352 765 398 C765 437 736 471 694 471 C647 471 620 440 620 396 C620 359 640 334 676 319 C664 278 632 207 575 128 L526 58 L521 58 L516 172 L486 468 L357 454 L377 283 C364 249 344 207 314 160 L251 59 L246 59 L242 172 L210 468 L13 447 L13 435 C72 434 85 423 92 381 L119 150 L128 -5 L225 -15 L385 218 L393 150 L402 -5 L498 -16 Z " />
<glyph glyph-name="Wdieresis" unicode="&#x1e84;" horiz-adv-x="1044" d="M769 771 C816 771 855 812 855 864 C855 904 827 925 797 925 C750 925 711 885 711 832 C711 792 740 771 769 771 L769 771 Z M565 771 C611 771 650 812 650 864 C650 904 622 925 592 925 C545 925 506 885 506 832 C506 792 535 771 565 771 L565 771 Z M323 616 C320 659 332 680 413 684 L416 697 L92 697 L89 684 C164 673 174 659 180 603 L235 -12 L288 -12 L580 464 L624 -12 L676 -12 L994 535 C1050 631 1093 674 1169 684 L1172 697 L915 697 L912 684 C996 672 1019 630 958 524 L751 167 L746 167 L712 616 C709 659 724 680 809 684 L812 697 L487 697 L484 684 C552 678 563 659 568 603 L577 502 L366 164 L361 164 L323 616 Z " />
<glyph glyph-name="wdieresis" unicode="&#x1e85;" horiz-adv-x="752" d="M557 531 C604 531 643 572 643 624 C643 664 615 685 585 685 C538 685 499 645 499 592 C499 552 528 531 557 531 L557 531 Z M353 531 C399 531 438 572 438 624 C438 664 410 685 380 685 C333 685 294 645 294 592 C294 552 323 531 353 531 L353 531 Z M498 -16 L663 204 C753 324 765 352 765 398 C765 437 736 471 694 471 C647 471 620 440 620 396 C620 359 640 334 676 319 C664 278 632 207 575 128 L526 58 L521 58 L516 172 L486 468 L357 454 L377 283 C364 249 344 207 314 160 L251 59 L246 59 L242 172 L210 468 L13 447 L13 435 C72 434 85 423 92 381 L119 150 L128 -5 L225 -15 L385 218 L393 150 L402 -5 L498 -16 Z " />
<glyph glyph-name="Ygrave" unicode="&#x1ef2;" horiz-adv-x="692" d="M636 545 C713 640 758 672 830 684 L833 697 L582 697 L579 684 C666 667 670 629 609 550 L431 327 L338 620 C327 654 334 680 444 684 L447 697 L100 697 L97 684 C173 672 184 664 200 611 L295 305 L229 60 C219 24 198 17 109 14 L106 0 L468 0 L471 14 C384 17 365 23 375 60 L440 305 L636 545 Z M524 766 L536 766 L485 911 C466 966 453 994 421 994 C391 994 368 970 368 945 C368 921 386 899 424 862 L524 766 Z " />
<glyph glyph-name="ygrave" unicode="&#x1ef3;" horiz-adv-x="488" d="M203 468 L6 447 L6 435 C65 434 79 423 87 381 L126 180 L172 -79 C120 -151 65 -169 24 -171 C39 -160 51 -138 51 -113 C51 -70 21 -41 -18 -41 C-60 -41 -91 -75 -91 -117 C-91 -167 -56 -200 6 -200 C101 -200 180 -151 347 112 C458 287 485 340 485 396 C485 437 457 471 414 471 C368 471 341 440 341 396 C341 359 367 329 408 317 C401 269 373 198 318 114 L275 45 L271 45 L243 245 L203 468 Z M299 526 L311 526 L260 671 C241 726 228 754 196 754 C166 754 143 730 143 705 C143 681 161 659 199 622 L299 526 Z " />
<glyph glyph-name="enspace" unicode="&#x2002;" horiz-adv-x="500" d="" />
<glyph glyph-name="emspace" unicode="&#x2003;" horiz-adv-x="1000" d="" />
<glyph glyph-name="threeperemspace" unicode="&#x2004;" horiz-adv-x="333" d="" />
<glyph glyph-name="fourperemspace" unicode="&#x2005;" horiz-adv-x="250" d="" />
<glyph glyph-name="thinspace" unicode="&#x2009;" horiz-adv-x="133" d="" />
<glyph glyph-name="hairspace" unicode="&#x200a;" horiz-adv-x="75" d="" />
<glyph glyph-name="endash" unicode="&#x2013;" horiz-adv-x="540" d="M60 252 L490 252 L496 274 L66 274 L60 252 Z " />
<glyph glyph-name="emdash" unicode="&#x2014;" horiz-adv-x="790" d="M60 252 L740 252 L746 274 L66 274 L60 252 Z " />
<glyph glyph-name="quoteleft" unicode="&#x2018;" horiz-adv-x="257" d="M352 709 C191 665 118 591 118 507 C118 460 150 419 199 419 C242 419 277 454 277 498 C277 542 247 574 205 570 L202 574 C216 612 256 653 356 697 L352 709 Z " />
<glyph glyph-name="quoteright" unicode="&#x2019;" horiz-adv-x="257" d="M76 423 C237 467 310 541 310 625 C310 672 278 713 229 713 C186 713 151 678 151 634 C151 590 181 558 223 562 L226 558 C212 520 171 479 72 435 L76 423 Z " />
<glyph glyph-name="quotesinglbase" unicode="&#x201a;" horiz-adv-x="257" d="M-65 -150 C96 -106 169 -32 169 52 C169 100 137 140 88 140 C45 140 10 106 10 61 C10 17 40 -14 82 -11 L85 -15 C71 -53 31 -93 -69 -138 L-65 -150 Z " />
<glyph glyph-name="quotedblleft" unicode="&#x201c;" horiz-adv-x="465" d="M560 709 C399 665 326 591 326 507 C326 460 358 419 408 419 C450 419 485 454 485 498 C485 542 455 574 414 570 L410 574 C424 612 465 653 564 697 L560 709 Z M352 709 C191 665 118 591 118 507 C118 460 150 419 199 419 C242 419 277 454 277 498 C277 542 247 574 205 570 L202 574 C216 612 256 653 356 697 L352 709 Z " />
<glyph glyph-name="quotedblright" unicode="&#x201d;" horiz-adv-x="465" d="M76 423 C237 467 310 541 310 625 C310 672 278 713 229 713 C186 713 151 678 151 634 C151 590 181 558 223 562 L226 558 C212 520 171 479 72 435 L76 423 Z M285 423 C445 467 518 541 518 625 C518 672 486 713 437 713 C394 713 359 678 359 634 C359 590 389 558 431 562 L434 558 C420 520 380 479 281 435 L285 423 Z " />
<glyph glyph-name="quotedblbase" unicode="&#x201e;" horiz-adv-x="465" d="M144 -150 C304 -106 377 -32 377 52 C377 100 346 140 296 140 C253 140 218 106 218 61 C218 17 248 -14 290 -11 L293 -15 C279 -53 239 -93 140 -138 L144 -150 Z M-65 -150 C96 -106 169 -32 169 52 C169 100 137 140 88 140 C45 140 10 106 10 61 C10 17 40 -14 82 -11 L85 -15 C71 -53 31 -93 -69 -138 L-65 -150 Z " />
<glyph glyph-name="dagger" unicode="&#x2020;" horiz-adv-x="582" d="M173 -108 L186 -111 C242 62 336 248 372 310 L342 380 C338 389 336 399 336 407 C336 437 357 460 393 460 C451 460 484 410 533 410 C569 410 599 429 599 462 C599 494 567 516 519 516 C467 516 406 495 348 464 L345 467 L402 564 C438 626 457 664 457 697 C457 731 437 753 404 753 C377 753 353 733 344 700 C337 671 334 632 333 580 L332 468 L328 465 C277 506 226 539 167 539 C121 539 85 512 85 478 C85 451 109 433 140 433 C177 433 227 469 278 469 C304 469 318 453 318 433 C318 418 311 403 291 385 L229 328 C230 267 212 65 173 -108 L173 -108 Z " />
<glyph glyph-name="daggerdbl" unicode="&#x2021;" horiz-adv-x="607" d="M391 309 L364 381 C360 391 358 404 358 412 C358 442 380 464 415 464 C473 464 506 414 556 414 C591 414 621 433 621 465 C621 498 590 519 541 519 C490 519 429 498 370 468 L368 471 L425 567 C460 629 479 664 479 697 C479 731 459 753 426 753 C399 753 374 733 366 700 C358 671 357 635 356 584 L354 472 L350 469 C299 510 249 542 190 542 C143 542 107 516 107 482 C107 455 131 437 162 437 C199 437 249 473 300 473 C326 473 341 457 341 436 C341 421 334 406 314 389 L255 337 L282 263 C286 253 288 240 288 232 C288 202 267 180 231 180 C173 180 140 230 91 230 C55 230 25 211 25 178 C25 146 57 125 105 125 C157 125 218 146 276 176 L278 173 L222 77 C186 15 167 -20 167 -53 C167 -87 187 -110 221 -110 C248 -110 272 -89 281 -57 C288 -28 290 9 291 60 L292 172 L296 175 C347 134 398 102 456 102 C503 102 539 128 539 162 C539 189 515 207 484 207 C447 207 397 171 346 171 C320 171 306 187 306 207 C306 223 313 238 333 255 L391 309 Z " />
<glyph glyph-name="bullet" unicode="&#x2022;" horiz-adv-x="477" d="M263 194 C341 194 400 255 400 330 C400 405 341 467 263 467 C184 467 125 405 125 330 C125 255 184 194 263 194 L263 194 Z " />
<glyph glyph-name="ellipsis" unicode="&#x2026;" horiz-adv-x="759" d="M90 -17 C136 -17 171 20 171 62 C171 105 137 140 91 140 C45 140 10 103 10 61 C10 18 44 -17 90 -17 L90 -17 Z M341 -17 C387 -17 422 20 422 62 C422 105 388 140 342 140 C296 140 261 103 261 61 C261 18 295 -17 341 -17 L341 -17 Z M592 -17 C638 -17 673 20 673 62 C673 105 640 140 594 140 C547 140 512 103 512 61 C512 18 546 -17 592 -17 L592 -17 Z " />
<glyph glyph-name="guilsinglleft" unicode="&#x2039;" horiz-adv-x="307" d="M195 27 L210 36 L147 229 L311 413 L300 425 L67 266 C39 248 35 242 35 237 C35 230 39 222 54 203 L195 27 Z " />
<glyph glyph-name="guilsinglright" unicode="&#x203a;" horiz-adv-x="307" d="M14 27 L247 188 C272 205 281 213 281 219 C281 226 275 235 261 253 L118 430 L103 421 L166 226 L3 39 L14 27 Z " />
<glyph glyph-name="fraction" unicode="&#x2044;" horiz-adv-x="606" d="M-29 -32 L3 -32 L344 326 L680 682 L648 682 L312 326 L-29 -32 Z " />
<glyph glyph-name="Euro" unicode="&#x20ac;" horiz-adv-x="687" d="M462 271 L468 292 L268 292 C269 322 273 353 280 385 L490 385 L497 406 L284 406 C316 539 395 663 518 663 C571 663 598 640 614 616 C575 605 545 572 545 530 C545 486 578 455 621 455 C669 455 707 493 707 546 C707 623 635 680 524 680 C345 680 202 563 145 406 L58 406 L51 385 L138 385 C129 355 123 324 121 292 L30 292 L23 271 L119 271 L119 255 C119 89 218 -17 370 -17 C484 -17 574 44 646 152 L632 162 C565 79 499 53 441 53 C326 53 268 142 268 271 L462 271 Z " />
<glyph glyph-name="published" unicode="&#x2117;" horiz-adv-x="838" d="M223 158 L427 158 L430 170 C390 172 369 174 375 193 L410 325 L454 325 C595 325 647 395 647 455 C647 503 610 550 497 550 L326 550 L324 539 C373 537 378 530 374 516 L288 192 C284 173 273 172 226 170 L223 158 Z M414 340 L466 535 L493 535 C532 535 561 523 561 474 C561 418 534 340 447 340 L414 340 Z M409 -34 C657 -34 825 171 825 406 C825 595 690 731 491 731 C243 731 75 526 75 291 C75 103 211 -34 409 -34 L409 -34 Z M410 -17 C222 -17 95 113 95 292 C95 517 252 714 490 714 C679 714 805 585 805 405 C805 180 648 -17 410 -17 L410 -17 Z " />
<glyph glyph-name="servicemark" unicode="&#x2120;" horiz-adv-x="603" d="M116 468 L125 468 L146 486 C171 473 196 469 217 469 C284 469 313 511 313 549 C313 582 291 598 258 613 C224 628 207 639 207 659 C207 682 228 694 250 694 C278 694 298 676 312 634 L323 634 L343 708 L335 708 L316 692 C298 701 275 706 253 706 C200 706 161 675 161 630 C161 594 189 580 215 568 C256 550 268 538 268 520 C268 498 251 482 222 482 C188 482 164 506 149 551 L139 551 L116 468 Z M317 483 L314 474 L402 474 L405 483 C377 487 373 498 382 531 L417 664 L424 664 L444 474 L471 474 L584 663 L592 663 L548 500 C545 489 539 486 514 485 L511 474 L637 474 L640 485 C613 486 605 489 608 500 L656 676 C659 687 667 690 695 692 L698 702 L591 702 L496 544 L492 544 L477 702 L377 702 L374 692 C402 691 405 677 401 662 L366 531 C357 499 348 487 317 483 L317 483 Z " />
<glyph glyph-name="trademark" unicode="&#x2122;" horiz-adv-x="647" d="M352 474 L440 474 L442 483 C415 487 411 498 419 531 L455 664 L461 664 L482 474 L509 474 L622 663 L629 663 L585 500 C582 489 576 486 551 485 L548 474 L674 474 L677 485 C650 486 642 489 645 500 L693 676 C696 687 704 690 733 692 L736 702 L628 702 L534 544 L530 544 L515 702 L415 702 L412 692 C440 691 443 677 439 662 L403 531 C395 499 385 487 354 483 L352 474 Z M147 474 L284 474 L287 485 C257 485 250 489 253 500 L304 690 L309 690 C336 690 349 659 355 616 L366 616 L386 702 L168 702 L141 616 L153 616 C182 657 213 690 237 690 L243 690 L192 500 C189 489 180 485 150 485 L147 474 Z " />
<glyph glyph-name="minus" unicode="&#x2212;" horiz-adv-x="536" d="M505 316 L510 338 L82 338 L77 316 L505 316 Z " />
<glyph glyph-name="f_f" unicode="&#xfb00;" horiz-adv-x="646" d="M415 712 C293 712 210 641 171 499 L160 458 L48 458 L40 433 L155 433 L48 -51 C24 -157 -7 -180 -42 -180 C-60 -180 -69 -177 -78 -172 C-58 -163 -42 -139 -42 -115 C-42 -83 -65 -51 -104 -51 C-144 -51 -172 -80 -172 -116 C-172 -169 -127 -200 -45 -200 C94 -200 162 -118 210 109 L279 433 L463 433 L352 -68 C331 -159 299 -180 267 -180 C253 -180 246 -177 238 -173 C257 -165 272 -142 272 -117 C272 -86 250 -54 210 -54 C171 -54 144 -83 144 -119 C144 -169 187 -200 267 -200 C400 -200 469 -119 517 108 L587 433 L709 433 L717 458 L593 458 L616 562 C640 662 668 704 709 704 C725 704 741 695 748 686 C730 671 716 644 716 620 C716 581 743 553 784 553 C828 553 852 584 852 626 C852 687 796 723 710 723 C648 723 595 700 554 656 C532 692 480 712 415 712 L415 712 Z M467 458 L286 458 L307 548 C331 654 363 692 416 692 C434 692 455 684 462 674 C444 660 430 633 430 609 C430 571 454 545 490 542 C485 528 481 514 478 500 L467 458 Z " />
<glyph glyph-name="fi" unicode="&#xfb01;" horiz-adv-x="619" d="M279 433 L453 433 L355 110 C350 93 347 77 347 64 C347 16 378 -8 443 -8 C493 -8 545 8 576 21 L576 32 C502 27 475 35 475 67 C475 78 478 91 484 109 L591 465 L449 458 L286 458 L308 558 C333 669 369 704 429 704 C451 704 481 692 488 681 C469 666 455 639 455 616 C455 576 482 548 524 548 C566 548 592 580 592 621 C592 683 519 723 425 723 C302 723 209 657 170 499 L160 458 L48 458 L40 433 L155 433 L48 -51 C24 -157 -7 -180 -42 -180 C-60 -180 -69 -177 -78 -172 C-58 -163 -42 -139 -42 -115 C-42 -83 -65 -51 -104 -51 C-144 -51 -172 -80 -172 -116 C-172 -169 -127 -200 -45 -200 C94 -200 162 -118 210 109 L279 433 Z " />
<glyph glyph-name="fl" unicode="&#xfb02;" horiz-adv-x="617" d="M279 433 L451 433 L356 111 C351 93 348 77 348 63 C348 16 379 -8 444 -8 C493 -8 548 8 579 21 L579 32 C503 28 476 35 476 69 C476 80 479 93 483 109 L659 717 L650 720 L529 695 C501 713 461 723 415 723 C296 723 208 653 170 499 L160 458 L48 458 L40 433 L155 433 L48 -51 C24 -157 -7 -180 -42 -180 C-60 -180 -69 -177 -78 -172 C-58 -163 -42 -139 -42 -115 C-42 -83 -65 -51 -104 -51 C-144 -51 -172 -80 -172 -116 C-172 -169 -127 -200 -45 -200 C94 -200 162 -118 210 109 L279 433 Z M458 458 L286 458 L309 559 C333 664 365 704 417 704 C437 704 461 693 468 683 C449 667 435 641 435 617 C435 585 453 560 483 551 L458 458 Z " />
<glyph glyph-name="f_f_i" unicode="&#xfb03;" horiz-adv-x="916" d="M732 723 C659 723 600 700 555 654 C534 691 482 712 415 712 C293 712 210 641 171 499 L160 458 L48 458 L40 433 L155 433 L48 -51 C24 -157 -7 -180 -42 -180 C-60 -180 -69 -177 -78 -172 C-58 -163 -42 -139 -42 -115 C-42 -83 -65 -51 -104 -51 C-144 -51 -172 -80 -172 -116 C-172 -169 -127 -200 -45 -200 C94 -200 162 -118 210 109 L279 433 L463 433 L352 -68 C331 -159 299 -180 267 -180 C253 -180 246 -177 238 -173 C257 -165 272 -142 272 -117 C272 -86 250 -54 210 -54 C171 -54 144 -83 144 -119 C144 -169 187 -200 267 -200 C400 -200 469 -119 517 108 L587 433 L760 433 L662 110 C657 93 654 77 654 64 C654 16 685 -8 750 -8 C800 -8 852 8 883 21 L883 32 C810 27 782 35 782 67 C782 78 785 91 791 109 L899 465 L756 458 L593 458 L616 558 C640 668 676 704 737 704 C758 704 788 692 795 681 C776 666 762 639 762 616 C762 576 789 548 831 548 C873 548 900 580 900 621 C900 683 826 723 732 723 L732 723 Z M477 499 L467 458 L286 458 L307 548 C331 654 363 692 416 692 C434 692 455 684 462 674 C444 660 430 633 430 609 C430 571 454 545 490 542 C485 528 481 514 477 499 L477 499 Z " />
<glyph glyph-name="f_f_l" unicode="&#xfb04;" horiz-adv-x="924" d="M160 458 L48 458 L40 433 L155 433 L48 -51 C24 -157 -7 -180 -42 -180 C-60 -180 -69 -177 -78 -172 C-58 -163 -42 -139 -42 -115 C-42 -83 -65 -51 -104 -51 C-144 -51 -172 -80 -172 -116 C-172 -169 -127 -200 -45 -200 C94 -200 162 -118 210 109 L279 433 L463 433 L352 -68 C331 -159 299 -180 267 -180 C253 -180 246 -177 238 -173 C257 -165 272 -142 272 -117 C272 -86 250 -54 210 -54 C171 -54 144 -83 144 -119 C144 -169 187 -200 267 -200 C400 -200 469 -119 517 108 L587 433 L758 433 L663 111 C658 93 655 77 655 63 C655 16 686 -8 751 -8 C801 -8 855 8 886 21 L886 32 C811 28 783 35 783 69 C783 80 786 93 790 109 L966 717 L957 720 L836 695 C808 713 769 723 722 723 C655 723 598 701 555 655 C533 691 481 712 415 712 C293 712 210 641 171 499 L160 458 Z M765 458 L593 458 L616 559 C640 664 672 704 724 704 C745 704 769 693 775 683 C757 667 743 641 743 617 C743 585 761 560 790 551 L765 458 Z M477 499 L467 458 L286 458 L307 548 C331 654 363 692 416 692 C434 692 455 684 462 674 C444 660 430 633 430 609 C430 571 454 545 490 542 C485 528 481 514 477 499 L477 499 Z " />
</font>
</svg>
