<?xml version="1.0" standalone="no"?>
<!DOCTYPE svg PUBLIC "-//W3C//DTD SVG 1.1//EN" "http://www.w3.org/Graphics/SVG/1.1/DTD/svg11.dtd" >
<svg xmlns="http://www.w3.org/2000/svg">
<metadata></metadata>
<defs>
<font id="foundation_sansLtCn" horiz-adv-x="477" >
<font-face units-per-em="1000" ascent="825" descent="-175" />
<missing-glyph horiz-adv-x="187" />
<glyph unicode="&#xfb01;" horiz-adv-x="398" d="M82 0v453h-71v40h71q0 79 3 101.5t14 39.5q25 35 103 35q9 0 15 -2v-38q-10 1 -26 1q-45 0 -54 -32q-6 -20 -6 -105h86v-40h-86v-453h-49zM287 582v85h51v-85h-51zM287 0v493h51v-493h-51z" />
<glyph unicode="&#xfb02;" horiz-adv-x="408" d="M82 0v453h-71v40h71q0 77 2.5 100t14.5 41q19 22 39 28t74 6l5 1v-40q-10 1 -26 1q-45 0 -54 -32q-6 -20 -6 -105h86v-40h-86v-453h-49zM292 0v668h49v-668h-49z" />
<glyph unicode="&#xfb03;" horiz-adv-x="625" d="M309 0v453h-71v40h71q0 79 3 101.5t14 39.5q25 35 103 35q9 0 15 -2v-38q-10 1 -26 1q-45 0 -54 -32q-6 -20 -6 -105h86v-40h-86v-453h-49zM82 0v453h-71v40h71q0 79 3 101.5t14 39.5q25 35 103 35q9 0 15 -2v-38q-10 1 -26 1q-45 0 -54 -32q-6 -20 -6 -105h86v-40h-86 v-453h-49zM513 582v85h51v-85h-51zM513 0v493h51v-493h-51z" />
<glyph unicode="&#xfb04;" horiz-adv-x="634" d="M309 0v453h-71v40h71q0 77 2.5 100t14.5 41q19 22 39 28t74 6l5 1v-40q-10 1 -26 1q-45 0 -54 -32q-6 -20 -6 -105h86v-40h-86v-453h-49zM82 0v453h-71v40h71q0 77 2.5 100t14.5 41q19 22 39 28t74 6l5 1v-40q-10 1 -26 1q-45 0 -54 -32q-6 -20 -6 -105h86v-40h-86v-453 h-49zM519 0v668h49v-668h-49z" />
<glyph horiz-adv-x="0" />
<glyph horiz-adv-x="333" />
<glyph unicode=" "  horiz-adv-x="187" />
<glyph unicode="&#x09;" horiz-adv-x="187" />
<glyph unicode="&#xa0;" horiz-adv-x="187" />
<glyph unicode="!" horiz-adv-x="205" d="M99 175l-11 284v208h54v-208l-10 -284h-33zM88 0v83h54l2 -83h-56z" />
<glyph unicode="&#x22;" horiz-adv-x="260" d="M166 440l-9 227h53l-10 -227h-34zM59 440l-9 227h53l-9 -227h-35z" />
<glyph unicode="#" d="M94 23l29 189h-70l7 43h70l23 155h-70l7 43h70l29 189h44l-29 -189h106l29 189h44l-29 -189h70l-7 -43h-70l-23 -155h70l-7 -43h-70l-29 -189h-44l29 189h-106l-29 -189h-44zM174 255h106l23 155h-106z" />
<glyph unicode="$" d="M36 202h51q-4 -153 123 -166v293q-77 30 -98 45q-62 45 -62 131q0 72 42 116.5t118 51.5v71h37v-71q79 -5 122 -48t44 -118h-50q-5 60 -32.5 90t-83.5 35v-263q85 -29 111 -47q68 -47 68 -142q0 -169 -179 -186v-85h-37v85q-177 9 -174 208zM210 382v249 q-52 -7 -81 -38.5t-29 -81.5q0 -49 25.5 -78.5t84.5 -50.5zM247 35q62 9 95 45t33 95q0 76 -49 107q-19 12 -79 35v-282z" />
<glyph unicode="%" horiz-adv-x="670" d="M155 279q-60 0 -86 45.5t-26 151.5q0 105 27.5 152t88.5 47q60 0 87 -45t27 -145q0 -110 -27.5 -158t-90.5 -48zM194 0l247 667h35l-248 -667h-34zM156 309q43 0 60 38t17 134q0 90 -16.5 126.5t-57.5 36.5q-51 0 -68 -63q-8 -35 -8 -113q0 -87 16.5 -123t56.5 -36z M410 63q-14 42 -14 126q0 105 27.5 152t89.5 47q60 0 87 -45t27 -145q0 -110 -27.5 -158t-90.5 -48q-74 0 -99 71zM436 181q0 -87 17 -123t57 -36q43 0 60 38t17 134q0 90 -16.5 126.5t-57.5 36.5q-53 0 -69 -63q-8 -35 -8 -113z" />
<glyph unicode="&#x26;" horiz-adv-x="563" d="M480 0l-60 86q-68 -100 -184 -100q-83 0 -136 51t-53 131q0 73 49 130q24 27 56 51q15 12 44 34l8 6q-54 79 -67.5 107t-13.5 61q0 54 38 89t96 35q59 0 95 -33.5t36 -89.5q0 -64 -55 -119q-22 -21 -69 -55l157 -220q27 51 29 135h47q0 -40 -13.5 -90.5t-33.5 -85.5 l87 -123h-57zM241 416q55 42 77.5 74t22.5 69t-23.5 60t-61.5 23t-62 -23t-24 -59q0 -52 71 -144zM395 123l-166 234q-69 -47 -99 -90t-30 -93q0 -63 41.5 -104t105.5 -41q93 0 148 94z" />
<glyph unicode="'" horiz-adv-x="153" d="M59 440l-9 227h53l-9 -227h-35z" />
<glyph unicode="(" horiz-adv-x="239" d="M176 -120q-123 191 -123 398q0 101 33 207.5t90 187.5h27q-49 -75 -77.5 -182t-28.5 -214q0 -109 25 -202t81 -195h-27z" />
<glyph unicode=")" horiz-adv-x="239" d="M35 -120q107 183 107 397q0 220 -107 396h27q25 -35 51 -92q73 -160 73 -305q0 -206 -124 -396h-27z" />
<glyph unicode="*" horiz-adv-x="348" d="M109 425l-27 20l74 87l-106 34l12 32l100 -44l-3 113h33l-4 -113l99 44l11 -30l-100 -36l72 -87l-27 -20l-67 95z" />
<glyph unicode="+" d="M218 155v160h-157v37h157v160h39v-160h159v-37h-159v-160h-39z" />
<glyph unicode="," horiz-adv-x="178" d="M61 2v87h56v-71q0 -68 -13 -97t-51 -49v30q21 14 28.5 34.5t6.5 65.5h-27z" />
<glyph unicode="-" horiz-adv-x="174" d="M0 228v45h174v-45h-174z" />
<glyph unicode="." horiz-adv-x="178" d="M61 0v89h55v-89h-55z" />
<glyph unicode="/" horiz-adv-x="324" d="M-12 -120l261 793h46l-263 -793h-44z" />
<glyph unicode="0" d="M74 110q-24 75 -24 221q0 168 33 245q46 105 158 105q103 0 149 -93q36 -75 36 -239q0 -196 -44.5 -279t-148.5 -83q-59 0 -99.5 31.5t-59.5 91.5zM234 27q78 0 108 69t30 248q0 163 -30 229.5t-103 66.5q-92 0 -122 -118q-14 -57 -14 -208q0 -156 30 -221.5t101 -65.5z " />
<glyph unicode="1" d="M248 0v518h-152v33q80 3 117 29.5t46 86.5h40v-667h-51z" />
<glyph unicode="2" d="M51 0q5 97 45 156.5t164 159.5q58 47 80 86.5t22 93.5q0 67 -33.5 105t-91.5 38q-125 0 -131 -165h-52q2 100 49.5 153t135.5 53q83 0 130 -49t47 -136t-55 -148q-21 -23 -37.5 -37.5t-93.5 -76.5q-61 -49 -87.5 -88.5t-39.5 -100.5h319v-44h-371z" />
<glyph unicode="3" d="M54 175h52q3 -71 37.5 -109.5t94.5 -38.5q64 0 101 42.5t37 115.5q0 90 -59 129q-30 21 -101 21h-21v38h16q73 0 108.5 33.5t35.5 103.5q0 61 -31.5 95.5t-86.5 34.5q-56 0 -88.5 -37.5t-33.5 -104.5h-51q3 88 48 135t126 47q80 0 125 -44.5t45 -123.5q0 -85 -49 -126 q-28 -23 -78 -30q64 -7 97 -34q52 -44 52 -132q0 -94 -52 -148.5t-142 -54.5q-83 0 -131.5 50.5t-50.5 137.5z" />
<glyph unicode="4" d="M40 173v53l254 441h53v-451h79v-43h-79v-173h-49v173h-258zM81 216h217v379z" />
<glyph unicode="5" d="M146 621l-31 -251q53 70 136 70t130.5 -58.5t47.5 -160.5q0 -109 -52 -171.5t-144 -62.5q-79 0 -126 45q-24 23 -35 52t-16 82h52q7 -69 35 -100q35 -38 92 -38q65 0 102.5 51t37.5 140q0 85 -36.5 132t-102.5 47q-41 0 -67.5 -17.5t-50.5 -60.5l-48 1l37 346h291v-44z " />
<glyph unicode="6" d="M409 529h-52q-5 53 -34 82.5t-78 29.5q-95 0 -126 -114q-13 -49 -23 -216q23 64 59.5 92t96.5 28q83 0 129.5 -56.5t46.5 -157.5q0 -107 -50.5 -168.5t-139.5 -61.5q-108 0 -155 96q-35 71 -35 234q0 182 40 262q51 102 160 102q71 0 114.5 -41t46.5 -111zM241 28 q61 0 96.5 49t35.5 134t-35 131.5t-98 46.5q-60 0 -95.5 -46t-35.5 -125q0 -89 35 -139.5t97 -50.5z" />
<glyph unicode="7" d="M126 1q17 170 87 337.5t171 281.5h-333v47h377v-48q-99 -123 -164 -288t-80 -331z" />
<glyph unicode="8" d="M49 185q0 104 65 154q20 15 63 26q-107 22 -107 147q0 77 45.5 122.5t123.5 45.5q77 0 122.5 -45t45.5 -121q0 -82 -53 -126q-23 -17 -58 -23q48 -11 75 -33q56 -47 56 -145q0 -93 -50.5 -146.5t-138.5 -53.5t-138.5 53t-50.5 145zM239 384q53 0 84 34t31 92 q0 61 -30.5 95.5t-84.5 34.5q-53 0 -84.5 -34.5t-31.5 -92.5q0 -60 31 -94.5t85 -34.5zM103 189q0 -77 35.5 -120t99.5 -43t100 43t36 119q0 73 -36 114t-100 41q-61 0 -98 -42t-37 -112z" />
<glyph unicode="9" d="M67 138l52 -1q8 -52 31 -78q30 -32 80 -32q97 0 128 116q14 55 22 211q-24 -55 -42 -75q-40 -43 -114 -43q-83 0 -129.5 57t-46.5 158q0 106 51.5 167.5t139.5 61.5q105 0 154 -96q35 -69 35 -235q0 -177 -39 -258q-51 -104 -162 -104q-70 0 -113 40q-37 35 -47 111z M236 278q61 0 96 45.5t35 124.5q0 90 -34.5 140.5t-96.5 50.5q-61 0 -97 -49.5t-36 -134.5q0 -83 35.5 -130t97.5 -47z" />
<glyph unicode=":" horiz-adv-x="198" d="M81 404v89h55v-89h-55zM81 4v89h55v-89h-55z" />
<glyph unicode=";" horiz-adv-x="198" d="M81 404v89h56v-89h-56zM81 2v87h56v-70q0 -70 -12.5 -99t-51.5 -48v30q21 14 28 34t7 66h-27z" />
<glyph unicode="&#x3c;" horiz-adv-x="500" d="M33 313v45l433 195v-50l-379 -168l379 -168v-50z" />
<glyph unicode="=" d="M60 382v37h356v-37h-356zM60 248v37h356v-37h-356z" />
<glyph unicode="&#x3e;" horiz-adv-x="500" d="M34 117v50l379 168l-379 168v50l433 -195v-45z" />
<glyph unicode="?" horiz-adv-x="425" d="M188 175q0 78 15.5 112t82.5 103q54 57 54 127q0 55 -31 88t-84 33q-58 0 -89 -41t-32 -117h-49q0 94 44.5 146t125.5 52q76 0 120.5 -44t44.5 -120q0 -63 -30 -107q-3 -5 -6 -9t-5.5 -7t-8 -9t-10.5 -11.5t-17 -18t-24 -25.5q-36 -39 -45 -65.5t-8 -86.5h-48zM186 0v83 h55v-83h-55z" />
<glyph unicode="@" horiz-adv-x="645" d="M508 63l13 -37q-85 -46 -183 -46q-135 0 -213 98q-83 103 -83 248q0 147 84 247.5t206 100.5q115 0 193 -85t78 -211q0 -93 -46 -164t-106 -71q-32 0 -48 27q-7 12 -13 39q-41 -70 -97 -70q-46 0 -76 44.5t-30 112.5q0 82 41 140.5t99 58.5q31 0 49.5 -17t35.5 -59l13 64 h44l-37 -206q-6 -32 -6 -47q0 -47 28 -47q41 0 73.5 59t32.5 135q0 112 -64 185.5t-162 73.5q-104 0 -174.5 -89.5t-70.5 -221.5q0 -126 66 -217q66 -90 183 -90q90 0 170 45zM303 180q39 0 65.5 49.5t26.5 121.5q0 48 -15.5 75t-44.5 29q-39 2 -70 -47.5t-31 -113.5 q0 -51 19 -82.5t50 -31.5z" />
<glyph unicode="A" horiz-adv-x="496" d="M15 0l199 667h73l193 -667h-56l-56 197h-242l-57 -197h-54zM137 239h221l-109 397z" />
<glyph unicode="B" horiz-adv-x="495" d="M70 0v667h135q99 0 131 -12q43 -16 68 -56.5t25 -95.5q0 -78 -47 -119q-24 -21 -76 -33q58 -6 91 -31q55 -43 55 -133q0 -118 -89 -166q-42 -21 -126 -21h-167zM122 368h78q86 0 117 16q60 31 60 115q0 96 -77 120q-23 7 -107 7h-71v-258zM122 40h92q84 0 118 17 q67 36 67 129q0 103 -85 134q-28 10 -115 10h-77v-290z" />
<glyph unicode="C" horiz-adv-x="490" d="M406 221h52q-7 -68 -19 -104.5t-38 -68.5q-49 -60 -141 -60q-109 0 -159.5 82.5t-50.5 258.5q0 164 43 249q52 100 171 100q86 0 135 -52q25 -25 36 -56.5t16 -89.5l-51 -1q-9 80 -38 115q-36 42 -99 42q-83 0 -121 -74t-38 -235q0 -154 38 -226t120 -72q64 0 102 50.5 t42 141.5z" />
<glyph unicode="D" horiz-adv-x="518" d="M70 0v667h127q72 0 113 -9.5t71 -34.5q87 -72 87 -271q0 -205 -73 -290q-29 -34 -68.5 -48t-104.5 -14h-152zM122 42h89q102 0 142 48q61 71 61 257q0 177 -67 240q-43 39 -147 39h-78v-584z" />
<glyph unicode="E" horiz-adv-x="450" d="M70 0v667h325v-45h-273v-252h256v-44h-256v-281h283v-45h-335z" />
<glyph unicode="F" horiz-adv-x="413" d="M60 0v667h324v-45h-272v-252h256v-44h-256v-326h-52z" />
<glyph unicode="G" horiz-adv-x="517" d="M418 45v32q0 7 1 24t1 30q-12 -43 -23.5 -64.5t-30.5 -38.5q-43 -40 -113 -40q-204 0 -204 339q0 169 44 251q54 100 170 100q83 0 133.5 -51.5t53.5 -140.5l-52 1q-9 74 -38 108q-35 41 -98 41q-92 0 -129 -88q-31 -72 -31 -225q0 -150 39 -222t119 -72q46 0 80 27 t50 75q19 54 19 163h-160v41h209v-335h-40v45z" />
<glyph unicode="H" horiz-adv-x="517" d="M70 0v667h52v-288h273v288h52v-667h-52v335h-273v-335h-52z" />
<glyph unicode="I" horiz-adv-x="206" d="M77 0v667h52v-667h-52z" />
<glyph unicode="J" horiz-adv-x="389" d="M329 667v-466q0 -96 -17 -134q-36 -79 -142 -79q-101 0 -133 82q-15 37 -15 120h51q0 -76 12 -105q24 -56 88 -56q80 0 98 76q6 28 6 96v466h52z" />
<glyph unicode="K" horiz-adv-x="479" d="M70 0v667h51v-369l265 369h57l-205 -279l225 -388h-58l-200 346l-84 -112v-234h-51z" />
<glyph unicode="L" horiz-adv-x="421" d="M70 0v667h52v-622h280v-45h-332z" />
<glyph unicode="M" horiz-adv-x="643" d="M70 0v667h82l171 -594l165 594h85v-667h-49v614l-178 -614h-51l-176 614v-614h-49z" />
<glyph unicode="N" horiz-adv-x="519" d="M70 0v667h66l264 -585v585h49v-667h-67l-262 593v-593h-50z" />
<glyph unicode="O" horiz-adv-x="526" d="M259 -12q-107 0 -158 85.5t-51 264.5q0 341 215 341q108 0 159.5 -82.5t51.5 -254.5q0 -183 -52.5 -268.5t-164.5 -85.5zM259 29q85 0 124 73t39 231q0 159 -38 231.5t-121 72.5t-121.5 -72t-38.5 -227q0 -161 37 -235t119 -74z" />
<glyph unicode="P" horiz-adv-x="460" d="M70 0v667h162q82 0 122 -26q75 -48 75 -160q0 -59 -23.5 -103t-66.5 -65q-41 -20 -129 -20h-89v-293h-51zM121 334h93q74 0 106 22q56 38 56 124q0 91 -61 128q-30 18 -99 18h-95v-292z" />
<glyph unicode="Q" horiz-adv-x="507" d="M457 -37l-71 70q-53 -45 -128 -45q-131 0 -176 124q-32 87 -32 219q0 176 53 261.5t162 85.5q107 0 158.5 -82.5t51.5 -254.5q0 -201 -62 -279l72 -70zM309 163l68 -69q25 40 35 94.5t10 148.5q0 156 -38 227.5t-121 71.5q-88 0 -125 -78q-35 -73 -35 -228 q0 -156 37.5 -229t118.5 -73q54 0 93 35l-71 70z" />
<glyph unicode="R" horiz-adv-x="497" d="M70 0v667h176q84 0 121 -25q71 -45 71 -147q0 -90 -51 -135q-24 -22 -82 -33q44 -4 67 -13.5t38 -36.5t20 -67t7 -115q1 -43 5 -59.5t15 -35.5l-60 1q-8 20 -11 43.5t-6 102.5q-3 65 -12.5 93.5t-33.5 45.5q-30 22 -109 22h-104v-308h-51zM121 347h109q72 0 105 26 q50 39 50 116q0 88 -61 121q-29 16 -89 16h-114v-279z" />
<glyph unicode="S" horiz-adv-x="470" d="M40 201h53q1 -75 18 -106q37 -66 122 -66q67 0 106.5 38.5t39.5 103.5t-44 100q-17 14 -36.5 22.5t-105.5 37.5q-74 26 -107.5 66t-33.5 104q0 83 49 129.5t135 46.5q176 0 179 -176h-52q-1 135 -127 135q-62 0 -97 -34t-35 -93q0 -71 56 -108q16 -11 31.5 -17t101.5 -35 q75 -25 107.5 -65.5t32.5 -107.5q0 -87 -53.5 -137.5t-146.5 -50.5q-193 0 -193 202v11z" />
<glyph unicode="T" horiz-adv-x="439" d="M195 0v622h-176v45h402v-45h-174v-622h-52z" />
<glyph unicode="U" horiz-adv-x="505" d="M441 667v-456q0 -88 -22 -131q-46 -92 -172 -92q-121 0 -165 95q-17 38 -17 122v462h52v-464q0 -75 16 -107q33 -67 118 -67q98 0 127 82q11 30 11 99v457h52z" />
<glyph unicode="V" horiz-adv-x="457" d="M193 0l-174 667h55l156 -620l156 620h53l-175 -667h-71z" />
<glyph unicode="W" horiz-adv-x="692" d="M162 0l-140 667h53l122 -616l117 616h65l117 -616l122 616h52l-141 -667h-68l-115 611l-117 -611h-67z" />
<glyph unicode="X" horiz-adv-x="448" d="M12 0l184 340l-171 327h58l143 -285l144 285h54l-170 -327l182 -340h-58l-154 298l-156 -298h-56z" />
<glyph unicode="Y" horiz-adv-x="423" d="M185 0v269l-180 398h59l148 -349l151 349h55l-181 -398v-269h-52z" />
<glyph unicode="Z" horiz-adv-x="444" d="M28 0v48l332 575h-313v44h362v-49l-330 -573h334v-45h-385z" />
<glyph unicode="[" horiz-adv-x="239" d="M69 -113v780h139v-36h-93v-707h93v-37h-139z" />
<glyph unicode="\" horiz-adv-x="324" d="M288 -120l-263 793h46l261 -793h-44z" />
<glyph unicode="]" horiz-adv-x="239" d="M31 -77h93v707h-93v37h139v-780h-139v36z" />
<glyph unicode="^" horiz-adv-x="500" d="M33 377l184 291h66l183 -291h-57l-160 252l-160 -252h-56z" />
<glyph unicode="_" horiz-adv-x="500" d="M0 -73h500v-47h-500v47z" />
<glyph unicode="`" horiz-adv-x="500" d="M253 560l-89 126h58l67 -126h-36z" />
<glyph unicode="a" horiz-adv-x="404" d="M293 53v19q-15 -31 -31 -46q-35 -35 -101 -35q-61 0 -93.5 35.5t-32.5 101.5q0 69 39 105q23 21 108 44q79 21 94 35t15 64q0 94 -94 94q-51 0 -77 -31q-20 -24 -23 -83h-46q0 150 147 150q100 0 129 -62q12 -25 12 -99v-245q0 -39 6.5 -52.5t23.5 -13.5q5 0 15 2v-34 q-22 -5 -36 -5q-25 0 -40 15.5t-15 40.5zM291 181v113q-12 -18 -26 -26t-51 -18q-52 -15 -70 -22.5t-30 -18.5q-28 -25 -28 -78q0 -49 23 -75.5t65 -26.5q57 0 92 49q25 38 25 103z" />
<glyph unicode="b" horiz-adv-x="429" d="M61 0v667h49v-243q39 80 121 80q80 0 118 -62t38 -192q0 -261 -155 -261q-48 0 -76 21t-46 70v-80h-49zM132 89q32 -60 89 -60q65 0 95 70q20 48 20 147q0 111 -25 158q-30 60 -89 60q-65 0 -95 -70q-20 -46 -20 -145q0 -111 25 -160z" />
<glyph unicode="c" horiz-adv-x="391" d="M312 162h47q-4 -84 -44.5 -129t-111.5 -45q-82 0 -121.5 63.5t-39.5 195.5q0 259 169 259q65 0 104 -41t44 -114h-50q-7 60 -31 88t-70 28q-59 0 -87.5 -53.5t-28.5 -165.5q0 -116 27.5 -169t87.5 -53q46 0 74 36t31 100z" />
<glyph unicode="d" horiz-adv-x="429" d="M321 0v80q-17 -46 -38 -63q-33 -28 -85 -28q-156 0 -156 262q0 129 38.5 191t118.5 62q83 0 122 -80v243h47v-667h-47zM118 89q32 -60 90 -60q64 0 94 70q20 46 20 145q0 113 -25 160q-30 60 -89 60q-65 0 -95 -70q-20 -48 -20 -147q0 -111 25 -158z" />
<glyph unicode="e" horiz-adv-x="410" d="M315 156h48q-19 -168 -158 -168q-83 0 -123 63t-40 194q0 259 169 259q80 0 118.5 -58.5t38.5 -180.5v-16h-274q-1 -6 -1 -15q0 -107 27.5 -158t86.5 -51q47 0 73 31.5t35 99.5zM95 285h221q-1 95 -26 138.5t-80 43.5q-112 0 -115 -182z" />
<glyph unicode="f" horiz-adv-x="227" d="M82 0v453h-71v40h71q0 77 2.5 100t14.5 41q18 21 38 27.5t69 6.5q5 0 11 1v-40q-22 1 -26 1q-45 0 -54 -32q-6 -20 -6 -105h86v-40h-86v-453h-49z" />
<glyph unicode="g" horiz-adv-x="429" d="M64 -59h48q9 -79 96 -79q38 0 65.5 18.5t36.5 50.5q6 21 9 92l2 59q-39 -80 -122 -80q-80 0 -118.5 60.5t-38.5 186.5q0 255 156 255q49 0 77 -20t46 -68v77h47v-415q0 -112 -13 -153q-30 -100 -150 -100q-129 0 -141 116zM118 100q31 -59 90 -59q64 0 94 68 q20 45 20 142q0 108 -25 155q-30 58 -89 58q-65 0 -95 -68q-20 -46 -20 -143q0 -107 25 -153z" />
<glyph unicode="h" horiz-adv-x="425" d="M61 0v667h49v-238q42 77 130 77q86 0 113 -72q11 -28 11 -98v-336h-50v321q0 71 -9 93q-21 51 -82 51q-32 0 -59.5 -18.5t-41.5 -49.5q-12 -27 -12 -83v-314h-49z" />
<glyph unicode="i" horiz-adv-x="172" d="M60 582v85h51v-85h-51zM60 0v493h51v-493h-51z" />
<glyph unicode="j" horiz-adv-x="179" d="M67 581v86h52v-86h-52zM67 22v471h52v-471q0 -108 -8 -135q-14 -41 -59 -53q-15 -4 -65 -4h-3v40q9 -1 20 -1q51 0 60 44q3 13 3 109z" />
<glyph unicode="k" horiz-adv-x="408" d="M61 0v667h48v-434l203 260h58l-149 -183l177 -310h-58l-153 269l-78 -95v-174h-48z" />
<glyph unicode="l" horiz-adv-x="181" d="M66 0v667h49v-667h-49z" />
<glyph unicode="m" horiz-adv-x="644" d="M61 0v493h48v-65q23 43 51.5 60t75.5 17q45 0 70 -18t36 -59q23 42 51.5 59.5t73.5 17.5q79 0 104 -56q13 -31 13 -111v-338h-50v338q0 68 -12 89q-22 37 -67 37q-31 0 -57.5 -18.5t-40.5 -49.5q-10 -23 -10 -81v-315h-49v315q0 70 -3 85q-4 30 -25.5 47t-52.5 17 q-66 0 -95 -61q-13 -26 -13 -80v-323h-48z" />
<glyph unicode="n" horiz-adv-x="424" d="M61 0v493h46v-64q24 42 54 59.5t77 17.5q87 0 115 -71q11 -29 11 -105v-330h-50v319q0 72 -11 98q-19 48 -81 48q-65 0 -98 -59q-17 -33 -17 -87v-319h-46z" />
<glyph unicode="o" horiz-adv-x="419" d="M206 -12q-85 0 -124.5 62.5t-39.5 198.5q0 256 171 256q85 0 124.5 -62.5t39.5 -196.5t-41.5 -196t-129.5 -62zM209 25q61 0 89.5 53t28.5 165q0 118 -27 171t-88 53q-62 0 -91 -53.5t-29 -168.5q0 -114 28 -167t89 -53z" />
<glyph unicode="p" horiz-adv-x="429" d="M108 69v-239h-47v663h47v-80q18 47 38 63q33 28 85 28q156 0 156 -262q0 -129 -38.5 -191t-118.5 -62q-83 0 -122 80zM132 89q32 -60 89 -60q65 0 95 70q20 48 20 147q0 111 -25 158q-30 60 -90 60q-64 0 -94 -70q-20 -46 -20 -145q0 -111 25 -160z" />
<glyph unicode="q" horiz-adv-x="429" d="M322 -170v239q-39 -80 -122 -80q-80 0 -118.5 62t-38.5 191q0 262 156 262q49 0 77 -21t46 -70v80h46v-663h-46zM119 89q30 -60 89 -60q64 0 94 70q20 46 20 145q0 112 -24 160q-32 60 -90 60q-64 0 -94 -70q-20 -48 -20 -147q0 -111 25 -158z" />
<glyph unicode="r" horiz-adv-x="274" d="M57 0v493h48v-93q21 57 54 79q32 22 76 22q10 0 17 -1v-49q-8 1 -19 1q-69 0 -105 -55q-23 -34 -23 -98v-299h-48z" />
<glyph unicode="s" horiz-adv-x="367" d="M324 356h-48q0 48 -10 68q-21 42 -80 42q-44 0 -69 -23.5t-25 -63.5q0 -38 19.5 -59t71.5 -39q80 -28 110 -50q44 -33 44 -100q0 -68 -40.5 -105.5t-113.5 -37.5q-104 0 -133 68q-14 31 -14 97h47q0 -59 15 -85q25 -43 87 -43q48 0 75.5 26.5t27.5 71.5q0 48 -29 72 q-18 15 -99 45q-64 23 -89.5 52.5t-25.5 81.5q0 61 38 95t105 34q136 0 136 -136v-11z" />
<glyph unicode="t" horiz-adv-x="232" d="M212 40v-39q-21 -4 -45 -4q-65 0 -83 35q-10 19 -10 79v342h-71v40h71v144h49v-144h89v-40h-89v-336q0 -45 7 -57q13 -22 52 -22q8 0 30 2z" />
<glyph unicode="u" horiz-adv-x="415" d="M313 0v70q-26 -44 -56.5 -63t-76.5 -19q-101 0 -120 97q-5 26 -5 79v329h50v-329q0 -54 9 -79q18 -56 80 -56q34 0 62 19t41 51q12 28 12 87v307h49v-493h-45z" />
<glyph unicode="v" horiz-adv-x="355" d="M151 0l-137 493h53l116 -451l106 451h52l-130 -493h-60z" />
<glyph unicode="w" horiz-adv-x="558" d="M125 0l-111 493h52l90 -458l93 458h63l92 -458l89 458h51l-111 -493h-60l-93 457l-94 -457h-61z" />
<glyph unicode="x" horiz-adv-x="343" d="M10 0l132 255l-127 238h57l100 -206l101 206h54l-126 -238l132 -255h-55l-106 221l-109 -221h-53z" />
<glyph unicode="y" horiz-adv-x="356" d="M33 -128q15 -1 32 -1q50 0 71 45q18 44 20 58l2 15l-144 504h53l117 -450l105 450h52l-122 -463q-20 -76 -37 -122q-27 -78 -112 -78q-5 0 -37 2v40z" />
<glyph unicode="z" horiz-adv-x="349" d="M29 0v41l239 410h-227v42h279v-42l-237 -410h237v-41h-291z" />
<glyph unicode="{" horiz-adv-x="239" d="M68 24v142q0 77 -37 93v36q37 16 37 93v142q0 74 22.5 105.5t74.5 31.5h44v-37h-40q-30 0 -42 -21.5t-12 -74.5v-142q0 -47 -8 -72t-29 -43q21 -18 29 -43t8 -72v-142q0 -53 12 -74.5t42 -21.5h40v-37h-44q-52 0 -74.5 31.5t-22.5 105.5z" />
<glyph unicode="|" horiz-adv-x="500" d="M225 -167v834h50v-834h-50z" />
<glyph unicode="}" horiz-adv-x="239" d="M31 -76h40q30 0 42 21.5t12 74.5v142q0 47 8 72t29 43q-21 18 -29 43t-8 72v142q0 53 -12 74.5t-42 21.5h-40v37h44q52 0 74.5 -31.5t22.5 -105.5v-142q0 -77 37 -93v-36q-37 -16 -37 -93v-142q0 -74 -22.5 -105.5t-74.5 -31.5h-44v37z" />
<glyph unicode="~" horiz-adv-x="667" d="M126 592l-32 20q31 58 60.5 82t70.5 24q40 0 116 -38q73 -36 101 -36q29 0 51 16.5t47 58.5l32 -19q-53 -104 -135 -104q-23 0 -46.5 8.5t-92.5 42.5q-48 24 -76 24q-52 0 -96 -79z" />
<glyph unicode="&#xa1;" horiz-adv-x="205" d="M61 468v82h56v-82h-56zM63 91l10 284h33l11 -284v-207h-54v207z" />
<glyph unicode="&#xa2;" d="M221 -5v85q-77 3 -113.5 66t-36.5 194q0 254 150 260v71h35v-71q126 -4 139 -155h-49q-10 111 -90 117v-444q40 2 64.5 38t28.5 98h48q-3 -80 -41 -126.5t-100 -47.5v-85h-35zM221 118v444q-100 -10 -100 -221q0 -112 24 -165.5t76 -57.5z" />
<glyph unicode="&#xa3;" d="M48 36q56 40 88 92.5t32 105.5q0 40 -22 84h-93v33h78q-5 13 -5 12l-16 28q-38 68 -38 125q0 73 52.5 118.5t135.5 45.5q87 0 134 -49q25 -26 36.5 -56t15.5 -84h-50q-6 69 -33 103q-36 46 -103 46q-60 0 -97.5 -33.5t-37.5 -87.5q0 -49 40 -121q19 -35 24 -47h144v-33 h-130q17 -42 17 -80q0 -64 -50 -127q-23 -29 -89 -86q71 39 109 39q24 0 66 -15q44 -16 70 -16q48 0 112 47l23 -41q-69 -52 -137 -52q-26 0 -83 20q-48 18 -79 18q-35 0 -88 -32z" />
<glyph unicode="&#xa4;" d="M42 118l-32 33l76 77q-41 56 -41 119q0 62 41 118l-78 77l33 33l77 -77q58 41 121 41t119 -40l78 76l32 -33l-77 -76q41 -58 41 -120q0 -61 -40 -118l77 -77l-32 -33l-77 77q-55 -40 -120 -40q-61 0 -121 40zM238 201q61 0 103.5 42.5t42.5 103.5q0 59 -42.5 102.5 t-101.5 43.5q-62 0 -104.5 -42.5t-42.5 -104.5q0 -59 43 -102t102 -43z" />
<glyph unicode="&#xa5;" d="M213 0v251h-128v33h121l-38 87h-96v33h82l-115 263h56l144 -346l146 346h54l-116 -263h83v-33h-98l-38 -87h122v-33h-129v-251h-50z" />
<glyph unicode="&#xa6;" horiz-adv-x="500" d="M225 339v328h50v-328h-50zM225 153h50v-320h-50v320z" />
<glyph unicode="&#xa7;" d="M85 26h50q1 -55 28 -83q30 -30 77 -30q46 0 75 25t29 66q0 32 -20.5 58.5t-72.5 59.5q-122 77 -154 104q-46 40 -46 96q0 43 23 74t75 58q-60 42 -60 105q0 58 42 93t111 35q68 0 108 -37q18 -17 26 -37t13 -56h-50q-5 45 -26 64q-25 28 -74 28q-44 0 -71 -24t-27 -62 q0 -29 16.5 -50t63.5 -50q127 -79 159 -107q46 -41 46 -103q0 -81 -91 -131q61 -53 61 -115q0 -60 -42.5 -97t-110.5 -37q-69 0 -112 37q-23 19 -33 44.5t-13 71.5zM138 257q27 -22 103 -71q44 -28 63 -44q75 38 75 103q0 46 -35 76q-26 23 -108 76q-13 9 -24 16t-15.5 9.5 t-9 6t-9.5 6.5q-80 -44 -80 -104q0 -42 40 -74z" />
<glyph unicode="&#xa8;" horiz-adv-x="500" d="M296 582v87h48v-87h-48zM155 582v87h47v-87h-47z" />
<glyph unicode="&#xa9;" horiz-adv-x="709" d="M43 333q0 145 91.5 245.5t224.5 100.5q125 0 215.5 -102t90.5 -244q0 -143 -91 -244t-219 -101q-129 0 -220.5 101t-91.5 244zM80 333q0 -129 81 -221t194 -92t193.5 92t80.5 222q0 128 -80 220.5t-190 92.5q-117 0 -198 -91t-81 -223zM440 271h40q-8 -74 -37 -108 q-32 -36 -92 -36q-70 0 -102.5 49.5t-32.5 155.5q0 107 34 158t104 51q56 0 88 -32q27 -27 34 -92l-39 -1q-6 50 -25.5 72t-58.5 22q-50 0 -73 -42.5t-23 -136.5q0 -89 23 -131t72 -42q83 0 88 113z" />
<glyph unicode="&#xaa;" horiz-adv-x="272" d="M254 296v-27q-15 -3 -26 -3q-32 0 -38 35q-28 -39 -81 -39q-39 0 -60.5 22t-21.5 62q0 50 34 70q11 7 94 29q21 5 27 14t6 32q0 53 -56 53q-31 0 -44.5 -15.5t-14.5 -51.5h-36q-1 3 -1 7q-2 40 24 64t72 24q66 0 85 -38q8 -16 8 -60v-145q0 -21 3 -28t13 -7q3 0 13 2z M188 377v30q0 20 1 26q-18 -12 -44 -18q-49 -12 -64 -25t-15 -43q0 -56 52 -56q33 0 51.5 22.5t18.5 63.5z" />
<glyph unicode="&#xab;" horiz-adv-x="337" d="M170 223v53l110 123v-53l-87 -96l87 -98v-51zM154 101l-109 122v52l109 123v-52l-86 -97l86 -96v-52z" />
<glyph unicode="&#xac;" horiz-adv-x="500" d="M33 220v47h433v-267h-50v220h-383z" />
<glyph unicode="&#xad;" horiz-adv-x="174" d="M0 228v45h174v-45h-174z" />
<glyph unicode="&#xae;" horiz-adv-x="709" d="M43 333q0 145 91.5 245.5t224.5 100.5q125 0 215.5 -102t90.5 -244q0 -143 -91 -244t-219 -101q-129 0 -220.5 101t-91.5 244zM80 333q0 -129 81 -221t194 -92t193.5 92t80.5 222q0 128 -80 220.5t-190 92.5q-117 0 -198 -91t-81 -223zM242 133v400h114q53 0 79 -15 q46 -28 46 -89q0 -40 -15.5 -62.5t-51.5 -36.5q40 -9 52 -33.5t14 -103.5q1 -27 3.5 -36.5t12.5 -23.5l-47 1q-9 20 -12 89q-2 58 -19.5 75t-74.5 17h-62v-182h-39zM281 345h65q95 0 95 80q0 77 -92 77h-68v-157z" />
<glyph unicode="&#xaf;" horiz-adv-x="500" d="M143 605v35h214v-35h-214z" />
<glyph unicode="&#xb0;" horiz-adv-x="341" d="M171 437q-51 0 -86 36t-35 87q0 49 35.5 84.5t85.5 35.5t85 -35.5t35 -85.5t-35.5 -86t-84.5 -36zM171 474q33 0 56.5 25t23.5 60t-23.5 59.5t-56.5 24.5t-57 -24.5t-24 -58.5q0 -36 23.5 -61t57.5 -25z" />
<glyph unicode="&#xb1;" d="M218 155v160h-158v37h158v160h39v-160h159v-37h-159v-160h-39zM60 48v37h356v-37h-356z" />
<glyph unicode="&#xb2;" horiz-adv-x="317" d="M37 266q1 59 27 96.5t106 97.5q36 27 49.5 49.5t13.5 53.5q0 38 -20.5 59.5t-55.5 21.5q-76 0 -79 -97h-39q2 128 119 128q54 0 84.5 -29.5t30.5 -82.5q0 -52 -35 -90q-18 -18 -83 -68q-39 -29 -54 -49.5t-24 -56.5h200v-33h-240z" />
<glyph unicode="&#xb3;" horiz-adv-x="317" d="M84 560h-38q3 115 113 115q51 0 80.5 -27.5t29.5 -75.5q0 -69 -62 -91q76 -19 76 -99q0 -57 -34 -90t-92 -33q-55 0 -86 31t-32 87h39q5 -88 80 -88q39 0 61.5 24t22.5 66q0 76 -70 84l-44 1v30q9 -1 14 -1q87 0 87 77q0 35 -18.5 55t-52.5 20q-35 0 -54 -22.5t-20 -62.5 z" />
<glyph unicode="&#xb4;" horiz-adv-x="500" d="M211 560l66 126h59l-90 -126h-35z" />
<glyph unicode="&#xb5;" d="M136 15v-191h-49v669h50v-329q0 -53 9 -80q18 -55 80 -55q34 0 62 19t41 51q12 28 12 87v307h49v-493h-45v77q-45 -89 -131 -89q-43 0 -78 27z" />
<glyph unicode="&#xb6;" d="M219 -113v426h-30q-74 0 -106 23q-56 42 -56 154q0 121 66 160q30 17 96 17h221v-780h-47v741h-97v-741h-47z" />
<glyph unicode="&#xb7;" horiz-adv-x="178" d="M61 206v89h55v-89h-55z" />
<glyph unicode="&#xb8;" horiz-adv-x="500" d="M221 -70l32 70h27l-27 -55q17 3 23 3q26 0 42 -15.5t16 -41.5q0 -29 -21 -48.5t-53 -19.5q-34 0 -66 18l7 25q28 -15 52 -15q17 0 29 10.5t12 26.5t-11 26.5t-27 10.5q-11 0 -26 -6z" />
<glyph unicode="&#xb9;" horiz-adv-x="317" d="M162 267v305h-96v26q52 2 75.5 17t28.5 52h31v-400h-39z" />
<glyph unicode="&#xba;" horiz-adv-x="281" d="M138 260q-56 0 -81.5 37.5t-25.5 119.5q0 154 111 154q55 0 81 -38t26 -118t-27 -117.5t-84 -37.5zM139 289q72 0 72 124q0 68 -16.5 98.5t-53.5 30.5q-72 0 -72 -127q0 -126 70 -126z" />
<glyph unicode="&#xbb;" horiz-adv-x="337" d="M183 102v53l86 95l-86 97v52l109 -122v-52zM57 101v53l86 96l-86 97v52l109 -122v-52z" />
<glyph unicode="&#xbc;" horiz-adv-x="721" d="M203 0l280 667h36l-281 -667h-35zM162 267v305h-96v26q52 2 75.5 17t28.5 52h31v-400h-39zM435 102v36l162 262h38v-266h50v-32h-50v-102h-37v102h-163zM470 134h128v205z" />
<glyph unicode="&#xbd;" horiz-adv-x="721" d="M203 0l280 667h36l-281 -667h-35zM162 267v305h-96v26q52 2 75.5 17t28.5 52h31v-400h-39zM442 0q2 59 28 96t105 97q36 27 49.5 49.5t13.5 53.5q0 38 -20.5 59.5t-55.5 21.5q-76 0 -79 -97h-39q2 128 119 128q54 0 84.5 -29.5t30.5 -82.5q0 -52 -35 -90q-14 -14 -83 -67 q-38 -29 -53.5 -50t-24.5 -56h200v-33h-240z" />
<glyph unicode="&#xbe;" horiz-adv-x="721" d="M84 560h-38q3 115 113 115q51 0 80.5 -27.5t29.5 -75.5q0 -69 -62 -91q76 -19 76 -99q0 -57 -34 -90t-92 -33q-55 0 -86 31t-32 87h39q5 -88 80 -88q39 0 61.5 24t22.5 66q0 76 -70 84l-44 1v30q9 -1 14 -1q87 0 87 77q0 35 -18.5 55t-52.5 20q-35 0 -54 -22.5t-20 -62.5 zM203 0l280 667h36l-281 -667h-35zM434 102v36l162 262h38v-266h50v-32h-50v-102h-37v102h-163zM469 134h128v205z" />
<glyph unicode="&#xbf;" horiz-adv-x="425" d="M184 468v82h55v-82h-55zM320 70h49q1 -94 -44 -146t-127 -52q-74 0 -118.5 44.5t-44.5 119.5q0 45 14.5 79t50.5 71q63 65 76.5 94t12.5 95h47q1 -79 -14 -112t-83 -103q-54 -57 -54 -127q0 -55 31 -88t84 -33q57 0 88 41t32 117z" />
<glyph unicode="&#xc0;" horiz-adv-x="496" d="M231 730l-92 105h64l67 -105h-39zM15 0l199 667h73l193 -667h-56l-56 197h-242l-57 -197h-54zM137 239h221l-109 397z" />
<glyph unicode="&#xc1;" horiz-adv-x="496" d="M235 730l66 105h65l-93 -105h-38zM15 0l199 667h73l193 -667h-56l-56 197h-242l-57 -197h-54zM137 239h221l-109 397z" />
<glyph unicode="&#xc2;" horiz-adv-x="496" d="M129 730l98 112h55l97 -112h-48l-78 85l-79 -85h-45zM15 0l199 667h73l193 -667h-56l-56 197h-242l-57 -197h-54zM137 239h221l-109 397z" />
<glyph unicode="&#xc3;" horiz-adv-x="496" d="M134 741q19 86 74 86q16 0 27 -4.5t48 -26.5q19 -11 34 -11q31 0 40 46h31q-18 -85 -72 -85q-15 0 -25 4t-47 25q-24 13 -37 13q-30 0 -43 -47h-30zM15 0l199 667h73l193 -667h-56l-56 197h-242l-57 -197h-54zM137 239h221l-109 397z" />
<glyph unicode="&#xc4;" horiz-adv-x="496" d="M305 741v89h51v-89h-51zM146 741v89h50v-89h-50zM15 0l199 667h73l193 -667h-56l-56 197h-242l-57 -197h-54zM137 239h221l-109 397z" />
<glyph unicode="&#xc5;" horiz-adv-x="496" d="M250 708q-36 0 -61.5 25.5t-25.5 62.5q0 35 26 61t61 26q37 0 62.5 -26t25.5 -63q0 -35 -26 -60.5t-62 -25.5zM250 741q22 0 38 16t16 38q0 23 -16 39t-38 16t-38 -16t-16 -38q0 -23 16 -39t38 -16zM15 0l199 667h73l193 -667h-56l-56 197h-242l-57 -197h-54zM137 239 h221l-109 397z" />
<glyph unicode="&#xc6;" horiz-adv-x="701" d="M9 0l272 667h366v-44h-268v-252h251v-44h-251v-282h277v-45h-327v198h-186l-80 -198h-54zM157 239h172v387h-17z" />
<glyph unicode="&#xc7;" horiz-adv-x="490" d="M219 -74l29 62q-104 7 -151 87.5t-47 253.5q0 164 43 249q52 100 171 100q86 0 135 -52q25 -25 36 -56.5t16 -89.5l-51 -1q-9 80 -38 115q-36 42 -99 42q-83 0 -121 -74t-38 -235q0 -154 38 -226t120 -72q64 0 102 50.5t42 141.5h52q-17 -227 -183 -233l-22 -46 q15 4 24 4q28 0 44.5 -16.5t16.5 -43.5q0 -32 -22 -52.5t-56 -20.5t-69 19l8 27q28 -17 54 -17q19 0 31 11.5t12 28.5t-11.5 28t-29.5 11q-11 0 -26 -6z" />
<glyph unicode="&#xc8;" horiz-adv-x="450" d="M232 730l-92 105h64l67 -105h-39zM70 0v667h325v-45h-273v-252h256v-44h-256v-281h283v-45h-335z" />
<glyph unicode="&#xc9;" horiz-adv-x="450" d="M223 730l66 105h65l-93 -105h-38zM70 0v667h325v-45h-273v-252h256v-44h-256v-281h283v-45h-335z" />
<glyph unicode="&#xca;" horiz-adv-x="450" d="M120 730l98 112h55l97 -112h-48l-78 85l-79 -85h-45zM70 0v667h325v-45h-273v-252h256v-44h-256v-281h283v-45h-335z" />
<glyph unicode="&#xcb;" horiz-adv-x="450" d="M299 741v89h51v-89h-51zM140 741v89h50v-89h-50zM70 0v667h325v-45h-273v-252h256v-44h-256v-281h283v-45h-335z" />
<glyph unicode="&#xcc;" horiz-adv-x="206" d="M87 730l-92 105h64l67 -105h-39zM78 0v667h52v-667h-52z" />
<glyph unicode="&#xcd;" horiz-adv-x="206" d="M88 730l66 105h65l-93 -105h-38zM77 0v667h52v-667h-52z" />
<glyph unicode="&#xce;" horiz-adv-x="206" d="M-19 730l98 112h55l97 -112h-48l-78 85l-79 -85h-45zM76 0v667h52v-667h-52z" />
<glyph unicode="&#xcf;" horiz-adv-x="206" d="M132 741v89h51v-89h-51zM29 741v89h50v-89h-50zM77 0v667h52v-667h-52z" />
<glyph unicode="&#xd0;" horiz-adv-x="518" d="M70 0v327h-53v40h53v300h128q72 0 112.5 -9.5t70.5 -34.5q88 -72 88 -271q0 -205 -73 -290q-30 -34 -69.5 -48t-103.5 -14h-153zM122 42h89q103 0 143 48q61 71 61 257q0 177 -67 240q-42 39 -147 39h-79v-259h114v-40h-114v-285z" />
<glyph unicode="&#xd1;" horiz-adv-x="519" d="M150 741q19 86 74 86q16 0 27 -4.5t48 -26.5q19 -11 34 -11q31 0 40 46h31q-18 -85 -72 -85q-15 0 -25 4t-47 25q-24 13 -37 13q-30 0 -43 -47h-30zM70 0v667h66l264 -585v585h49v-667h-67l-262 593v-593h-50z" />
<glyph unicode="&#xd2;" horiz-adv-x="526" d="M247 730l-92 105h64l67 -105h-39zM259 -12q-107 0 -158 85.5t-51 264.5q0 341 215 341q108 0 159.5 -82.5t51.5 -254.5q0 -183 -52.5 -268.5t-164.5 -85.5zM259 29q85 0 124 73t39 231q0 159 -38 231.5t-121 72.5t-121.5 -72t-38.5 -227q0 -161 37 -235t119 -74z" />
<glyph unicode="&#xd3;" horiz-adv-x="526" d="M248 730l66 105h65l-93 -105h-38zM259 -12q-107 0 -158 85.5t-51 264.5q0 341 215 341q108 0 159.5 -82.5t51.5 -254.5q0 -183 -52.5 -268.5t-164.5 -85.5zM259 29q85 0 124 73t39 231q0 159 -38 231.5t-121 72.5t-121.5 -72t-38.5 -227q0 -161 37 -235t119 -74z" />
<glyph unicode="&#xd4;" horiz-adv-x="526" d="M142 730l98 112h55l97 -112h-48l-78 85l-79 -85h-45zM259 -12q-107 0 -158 85.5t-51 264.5q0 341 215 341q108 0 159.5 -82.5t51.5 -254.5q0 -183 -52.5 -268.5t-164.5 -85.5zM259 29q85 0 124 73t39 231q0 159 -38 231.5t-121 72.5t-121.5 -72t-38.5 -227 q0 -161 37 -235t119 -74z" />
<glyph unicode="&#xd5;" horiz-adv-x="526" d="M150 741q19 86 74 86q16 0 27 -4.5t48 -26.5q19 -11 34 -11q31 0 40 46h31q-18 -85 -72 -85q-15 0 -25 4t-47 25q-24 13 -37 13q-30 0 -43 -47h-30zM259 -12q-107 0 -158 85.5t-51 264.5q0 341 215 341q108 0 159.5 -82.5t51.5 -254.5q0 -183 -52.5 -268.5t-164.5 -85.5z M259 29q85 0 124 73t39 231q0 159 -38 231.5t-121 72.5t-121.5 -72t-38.5 -227q0 -161 37 -235t119 -74z" />
<glyph unicode="&#xd6;" horiz-adv-x="532" d="M323 741v89h51v-89h-51zM164 741v89h50v-89h-50zM262 -12q-107 0 -158 85.5t-51 264.5q0 341 215 341q108 0 159.5 -82.5t51.5 -254.5q0 -183 -52.5 -268.5t-164.5 -85.5zM262 29q85 0 124 73t39 231q0 159 -38 231.5t-121 72.5t-121.5 -72t-38.5 -227q0 -161 37 -235 t119 -74z" />
<glyph unicode="&#xd7;" d="M112 180l-26 27l126 125l-128 128l28 27l127 -127l127 126l26 -26l-126 -126l127 -128l-28 -28l-127 128z" />
<glyph unicode="&#xd8;" horiz-adv-x="531" d="M39 14l56 89q-37 87 -37 239q0 172 53 254.5t163 82.5q86 0 141 -59l46 72l33 -20l-54 -87q44 -91 44 -242q0 -187 -51.5 -271t-166.5 -84q-52 0 -85.5 17t-64.5 58l-43 -71zM129 158l258 417q-23 34 -48.5 48t-63.5 14q-86 0 -125.5 -70t-39.5 -223q0 -107 19 -186z M145 109q43 -80 120 -80q87 0 126.5 72.5t39.5 231.5q0 123 -25 197z" />
<glyph unicode="&#xd9;" horiz-adv-x="505" d="M243 730l-92 105h64l67 -105h-39zM441 667v-456q0 -88 -22 -131q-46 -92 -172 -92q-121 0 -165 95q-17 38 -17 122v462h52v-464q0 -75 16 -107q33 -67 118 -67q98 0 127 82q11 30 11 99v457h52z" />
<glyph unicode="&#xda;" horiz-adv-x="505" d="M237 730l66 105h65l-93 -105h-38zM441 667v-456q0 -88 -22 -131q-46 -92 -172 -92q-121 0 -165 95q-17 38 -17 122v462h52v-464q0 -75 16 -107q33 -67 118 -67q98 0 127 82q11 30 11 99v457h52z" />
<glyph unicode="&#xdb;" horiz-adv-x="505" d="M135 730l98 112h55l97 -112h-48l-78 85l-79 -85h-45zM441 667v-456q0 -88 -22 -131q-46 -92 -172 -92q-121 0 -165 95q-17 38 -17 122v462h52v-464q0 -75 16 -107q33 -67 118 -67q98 0 127 82q11 30 11 99v457h52z" />
<glyph unicode="&#xdc;" horiz-adv-x="505" d="M317 741v89h51v-89h-51zM158 741v89h50v-89h-50zM441 667v-456q0 -88 -22 -131q-46 -92 -172 -92q-121 0 -165 95q-17 38 -17 122v462h52v-464q0 -75 16 -107q33 -67 118 -67q98 0 127 82q11 30 11 99v457h52z" />
<glyph unicode="&#xdd;" horiz-adv-x="423" d="M199 730l66 105h65l-93 -105h-38zM185 0v269l-180 398h59l148 -349l151 349h55l-181 -398v-269h-52z" />
<glyph unicode="&#xde;" horiz-adv-x="460" d="M70 0v667h51v-94h111q82 0 122 -26q75 -48 75 -160q0 -58 -23.5 -102t-66.5 -65q-41 -20 -129 -20h-89v-200h-51zM121 241h93q74 0 106 22q56 38 56 124q0 90 -61 127q-30 18 -99 18h-95v-291z" />
<glyph unicode="&#xdf;" horiz-adv-x="438" d="M61 0v485q0 88 28 126q42 56 125 56q70 0 109 -39t39 -109q0 -58 -26 -91t-81 -46q40 -6 62 -15.5t39 -28.5q40 -45 40 -133q0 -120 -70 -179q-40 -32 -110 -32q-5 0 -31 2v40q26 -2 36 -2q56 0 90 47t34 124q0 157 -139 157q-9 0 -17 -1v39q54 0 80 18q44 30 44 99 q0 53 -27 84t-73 31q-67 0 -92 -57q-11 -27 -11 -84v-491h-49z" />
<glyph unicode="&#xe0;" horiz-adv-x="404" d="M195 560l-89 126h59l66 -126h-36zM293 53v19q-15 -31 -31 -46q-35 -35 -101 -35q-61 0 -93.5 35.5t-32.5 101.5q0 69 39 105q23 21 108 44q79 21 94 35t15 64q0 94 -94 94q-51 0 -77 -31q-20 -24 -23 -83h-46q-1 150 147 150q100 0 129 -62q12 -25 12 -99v-245 q0 -39 6.5 -52.5t23.5 -13.5q5 0 15 2v-34q-22 -5 -36 -5q-25 0 -40 15.5t-15 40.5zM291 181v113q-12 -18 -26 -26t-51 -18q-52 -15 -70 -22.5t-30 -18.5q-28 -25 -28 -78q0 -49 23 -75.5t65 -26.5q57 0 92 49q25 38 25 103z" />
<glyph unicode="&#xe1;" horiz-adv-x="404" d="M186 560l66 126h59l-89 -126h-36zM293 53v19q-15 -31 -31 -46q-35 -35 -101 -35q-61 0 -93.5 35.5t-32.5 101.5q0 69 39 105q23 21 108 44q79 21 94 35t15 64q0 94 -94 94q-51 0 -77 -31q-20 -24 -23 -83h-46q-1 150 147 150q100 0 129 -62q12 -25 12 -99v-245 q0 -39 6.5 -52.5t23.5 -13.5q5 0 15 2v-34q-22 -5 -36 -5q-25 0 -40 15.5t-15 40.5zM291 181v113q-12 -18 -26 -26t-51 -18q-52 -15 -70 -22.5t-30 -18.5q-28 -25 -28 -78q0 -49 23 -75.5t65 -26.5q57 0 92 49q25 38 25 103z" />
<glyph unicode="&#xe2;" horiz-adv-x="404" d="M96 560l88 125h52l85 -125h-45l-68 98l-69 -98h-43zM293 53v19q-15 -31 -31 -46q-35 -35 -101 -35q-61 0 -93.5 35.5t-32.5 101.5q0 69 39 105q23 21 108 44q79 21 94 35t15 64q0 94 -94 94q-51 0 -77 -31q-20 -24 -23 -83h-46q-1 150 147 150q100 0 129 -62 q12 -25 12 -99v-245q0 -39 6.5 -52.5t23.5 -13.5q5 0 15 2v-34q-22 -5 -36 -5q-25 0 -40 15.5t-15 40.5zM291 181v113q-12 -18 -26 -26t-51 -18q-52 -15 -70 -22.5t-30 -18.5q-28 -25 -28 -78q0 -49 23 -75.5t65 -26.5q57 0 92 49q25 38 25 103z" />
<glyph unicode="&#xe3;" horiz-adv-x="404" d="M97 580q18 87 71 87q16 0 26.5 -5t45.5 -29q19 -12 32 -12q29 0 38 48h30q-16 -84 -68 -84q-14 0 -24 4.5t-45 26.5q-22 14 -36 14q-28 0 -40 -50h-30zM293 53v19q-15 -31 -31 -46q-35 -35 -101 -35q-61 0 -93.5 35.5t-32.5 101.5q0 69 39 105q23 21 108 44q79 21 94 35 t15 64q0 94 -94 94q-51 0 -77 -31q-20 -24 -23 -83h-46q-1 150 147 150q100 0 129 -62q12 -25 12 -99v-245q0 -39 6.5 -52.5t23.5 -13.5q5 0 15 2v-34q-22 -5 -36 -5q-25 0 -40 15.5t-15 40.5zM291 181v113q-12 -18 -26 -26t-51 -18q-52 -15 -70 -22.5t-30 -18.5 q-28 -25 -28 -78q0 -49 23 -75.5t65 -26.5q57 0 92 49q25 38 25 103z" />
<glyph unicode="&#xe4;" horiz-adv-x="404" d="M254 582v87h48v-87h-48zM113 582v87h47v-87h-47zM293 53l-2 19q-18 -34 -31 -46q-35 -35 -101 -35q-61 0 -93 35t-32 101q0 70 39 106q23 21 108 44q79 21 94 35t15 64q0 94 -94 94q-51 0 -77 -31q-19 -23 -22 -83h-47q0 150 147 150q101 0 129 -62q12 -25 12 -99v-245 q0 -39 6.5 -52.5t24.5 -13.5q3 0 15 2v-34q-23 -5 -37 -5q-48 0 -54 56zM290 181l1 113q-12 -18 -26 -26t-51 -18q-79 -23 -100 -41q-29 -27 -29 -78q0 -49 23 -75.5t65 -26.5q59 0 92 49q25 36 25 103z" />
<glyph unicode="&#xe5;" horiz-adv-x="404" d="M205 551q-35 0 -60 25t-25 60q0 34 25 59.5t60 25.5t60 -25t25 -61q0 -34 -25 -59t-60 -25zM205 582q22 0 38 15.5t16 37.5q0 23 -15.5 39t-38.5 16q-22 0 -38 -16t-16 -38t16 -38t38 -16zM293 53v19q-15 -31 -31 -46q-35 -35 -101 -35q-61 0 -93.5 35.5t-32.5 101.5 q0 69 39 105q23 21 108 44q79 21 94 35t15 64q0 94 -94 94q-51 0 -77 -31q-20 -24 -23 -83h-46q-1 150 147 150q100 0 129 -62q12 -25 12 -99v-245q0 -39 6.5 -52.5t23.5 -13.5q5 0 15 2v-34q-22 -5 -36 -5q-25 0 -40 15.5t-15 40.5zM291 181v113q-12 -18 -26 -26t-51 -18 q-52 -15 -70 -22.5t-30 -18.5q-28 -25 -28 -78q0 -49 23 -75.5t65 -26.5q57 0 92 49q25 38 25 103z" />
<glyph unicode="&#xe6;" horiz-adv-x="623" d="M529 161h48q-8 -74 -34 -113q-41 -59 -116 -59q-48 0 -81 27t-44 76q-21 -55 -53 -78.5t-85 -23.5q-62 0 -95.5 35t-33.5 100q0 79 48 112q19 13 37.5 19.5t103.5 27.5q35 9 45 24t10 61q0 99 -88 99q-55 0 -80 -42q-13 -20 -14 -71h-47q1 62 20 94q35 56 121 56 q54 0 83.5 -21.5t39.5 -68.5q31 89 120 89q105 0 134 -117q13 -48 13 -137h-255v-13v-13q0 -199 103 -199q53 0 81 55q14 28 19 81zM327 285h204l-1 12q-7 85 -17 109q-24 61 -84 61q-34 0 -58.5 -24t-35.5 -67q-8 -37 -8 -91zM279 171v114q-11 -15 -23.5 -21.5t-46.5 -15.5 q-76 -20 -97 -39q-27 -25 -27 -80q0 -49 22 -75.5t63 -26.5q60 0 91 55q18 33 18 89z" />
<glyph unicode="&#xe7;" horiz-adv-x="391" d="M166 -70l27 59q-79 7 -115 68t-36 190q0 259 169 259q66 0 104.5 -40.5t43.5 -114.5h-50q-7 60 -31 88t-70 28q-59 0 -87.5 -53.5t-28.5 -165.5q0 -116 27.5 -169t87.5 -53q46 0 74.5 36.5t30.5 99.5h47q-3 -78 -40 -124t-99 -49l-22 -44q15 4 23 4q26 0 42 -15.5 t16 -41.5q0 -30 -21 -49.5t-53 -19.5q-33 0 -66 18l8 25q27 -15 51 -15q17 0 29 11t12 27t-11 26.5t-27 10.5q-12 0 -26 -7z" />
<glyph unicode="&#xe8;" horiz-adv-x="410" d="M198 560l-89 126h58l67 -126h-36zM315 156h48q-19 -168 -158 -168q-83 0 -123 63t-40 194q0 259 169 259q80 0 118.5 -58.5t38.5 -180.5v-16h-274q-1 -6 -1 -15q0 -107 27.5 -158t86.5 -51q47 0 73 31.5t35 99.5zM95 285h221q-1 95 -26 138.5t-80 43.5q-112 0 -115 -182z " />
<glyph unicode="&#xe9;" horiz-adv-x="410" d="M196 560l66 126h59l-90 -126h-35zM315 156h48q-19 -168 -158 -168q-83 0 -123 63t-40 194q0 259 169 259q80 0 118.5 -58.5t38.5 -180.5v-16h-274q-1 -6 -1 -15q0 -107 27.5 -158t86.5 -51q47 0 73 31.5t35 99.5zM95 285h221q-1 95 -26 138.5t-80 43.5q-112 0 -115 -182z " />
<glyph unicode="&#xea;" horiz-adv-x="410" d="M106 560l87 125h52l85 -125h-44l-68 98l-70 -98h-42zM315 156h48q-19 -168 -158 -168q-83 0 -123 63t-40 194q0 259 169 259q80 0 118.5 -58.5t38.5 -180.5v-16h-274q-1 -6 -1 -15q0 -107 27.5 -158t86.5 -51q47 0 73 31.5t35 99.5zM95 285h221q-1 95 -26 138.5t-80 43.5 q-112 0 -115 -182z" />
<glyph unicode="&#xeb;" horiz-adv-x="410" d="M260 582v87h48v-87h-48zM119 582v87h47v-87h-47zM315 156h48q-19 -168 -158 -168q-83 0 -123 63t-40 194q0 259 169 259q80 0 118.5 -58.5t38.5 -180.5v-16h-274q-1 -6 -1 -15q0 -107 27.5 -158t86.5 -51q47 0 73 31.5t35 99.5zM95 285h221q-1 95 -26 138.5t-80 43.5 q-112 0 -115 -182z" />
<glyph unicode="&#xec;" horiz-adv-x="172" d="M73 560l-89 126h61l64 -126h-36zM61 0v493h50v-493h-50z" />
<glyph unicode="&#xed;" horiz-adv-x="172" d="M70 560l66 126h59l-90 -126h-35zM61 0v493h50v-493h-50z" />
<glyph unicode="&#xee;" horiz-adv-x="172" d="M19 560h-42l87 125h50l87 -125h-44l-68 98zM61 0v493h50v-493h-50z" />
<glyph unicode="&#xef;" horiz-adv-x="172" d="M116 582v87h48v-87h-48zM15 582v87h47v-87h-47zM59 0v493h53v-493h-53z" />
<glyph unicode="&#xf0;" horiz-adv-x="419" d="M318 668l-65 -43q66 -104 95 -192.5t29 -184.5q0 -135 -41 -197.5t-130 -62.5q-85 0 -124.5 62.5t-39.5 195.5q0 131 42 195t129 64q27 0 57 -9l-32 64q-5 8 -11.5 21.5t-9.5 18.5l-62 -42l-21 31l65 43l-32 51l33 21l17 -24l16 -24l64 43zM209 25q61 0 89.5 53t28.5 165 q0 118 -27 171t-88 53q-62 0 -91 -53.5t-29 -168.5q0 -114 28 -167t89 -53z" />
<glyph unicode="&#xf1;" horiz-adv-x="424" d="M106 580q18 85 71 85q16 0 27 -4.5t46 -27.5q19 -12 32 -12q28 0 37 48h31q-16 -84 -68 -84q-15 0 -25 4.5t-45 25.5q-22 14 -36 14q-27 0 -40 -49h-30zM61 0v493h46v-64q24 42 54 59.5t77 17.5q87 0 115 -71q11 -29 11 -105v-330h-50v319q0 72 -11 98q-19 48 -81 48 q-65 0 -98 -59q-17 -33 -17 -87v-319h-46z" />
<glyph unicode="&#xf2;" horiz-adv-x="419" d="M200 560l-89 126h58l67 -126h-36zM206 -12q-85 0 -124.5 62.5t-39.5 198.5q0 256 171 256q85 0 124.5 -62.5t39.5 -196.5t-41.5 -196t-129.5 -62zM209 25q61 0 89.5 53t28.5 165q0 118 -27 171t-88 53q-62 0 -91 -53.5t-29 -168.5q0 -114 28 -167t89 -53z" />
<glyph unicode="&#xf3;" horiz-adv-x="419" d="M194 560l66 126h59l-90 -126h-35zM206 -12q-85 0 -124.5 62.5t-39.5 198.5q0 256 171 256q85 0 124.5 -62.5t39.5 -196.5t-41.5 -196t-129.5 -62zM209 25q61 0 89.5 53t28.5 165q0 118 -27 171t-88 53q-62 0 -91 -53.5t-29 -168.5q0 -114 28 -167t89 -53z" />
<glyph unicode="&#xf4;" horiz-adv-x="419" d="M104 560l87 125h52l85 -125h-44l-68 98l-70 -98h-42zM206 -12q-85 0 -124.5 62.5t-39.5 198.5q0 256 171 256q85 0 124.5 -62.5t39.5 -196.5t-41.5 -196t-129.5 -62zM209 25q61 0 89.5 53t28.5 165q0 118 -27 171t-88 53q-62 0 -91 -53.5t-29 -168.5q0 -114 28 -167 t89 -53z" />
<glyph unicode="&#xf5;" horiz-adv-x="419" d="M108 580q18 85 71 85q16 0 27 -4.5t46 -27.5q19 -12 32 -12q28 0 37 48h31q-16 -84 -68 -84q-15 0 -25 4.5t-45 25.5q-22 14 -36 14q-27 0 -40 -49h-30zM206 -12q-85 0 -124.5 62.5t-39.5 198.5q0 256 171 256q85 0 124.5 -62.5t39.5 -196.5t-41.5 -196t-129.5 -62z M209 25q61 0 89.5 53t28.5 165q0 118 -27 171t-88 53q-62 0 -91 -53.5t-29 -168.5q0 -114 28 -167t89 -53z" />
<glyph unicode="&#xf6;" horiz-adv-x="419" d="M263 582v87h48v-87h-48zM122 582v87h47v-87h-47zM206 -12q-85 0 -124.5 62.5t-39.5 198.5q0 256 171 256q85 0 124.5 -62.5t39.5 -196.5t-41.5 -196t-129.5 -62zM209 25q61 0 89.5 53t28.5 165q0 118 -27 171t-88 53q-62 0 -91 -53.5t-29 -168.5q0 -114 28 -167t89 -53z " />
<glyph unicode="&#xf7;" d="M238 434q-16 0 -28.5 12t-12.5 29t12.5 29t29.5 12q16 0 28 -12.5t12 -28.5q0 -17 -12.5 -29t-28.5 -12zM60 315v37h356v-37h-356zM197 191q0 17 12.5 29t29.5 12q16 0 28 -12t12 -29t-12.5 -29t-28.5 -12q-17 0 -29 12t-12 29z" />
<glyph unicode="&#xf8;" horiz-adv-x="432" d="M31 12l44 66q-25 63 -25 177q0 250 170 250q37 0 60 -9.5t50 -34.5l37 56l31 -19l-45 -68q32 -68 32 -182q0 -134 -41 -196.5t-130 -62.5q-75 0 -119 54l-33 -51zM109 130l194 291q-18 25 -36.5 35t-47.5 10q-62 0 -90.5 -53t-28.5 -170q0 -64 9 -113zM123 86 q34 -59 92 -59q62 0 91 53.5t29 168.5q0 73 -15 132z" />
<glyph unicode="&#xf9;" horiz-adv-x="415" d="M201 560l-89 126h58l67 -126h-36zM313 0v70q-26 -44 -56.5 -63t-76.5 -19q-101 0 -120 97q-5 26 -5 79v329h50v-329q0 -54 9 -79q18 -56 80 -56q34 0 62 19t41 51q12 28 12 87v307h49v-493h-45z" />
<glyph unicode="&#xfa;" horiz-adv-x="415" d="M195 560l66 126h59l-90 -126h-35zM313 0v70q-26 -44 -56.5 -63t-76.5 -19q-101 0 -120 97q-5 26 -5 79v329h50v-329q0 -54 9 -79q18 -56 80 -56q34 0 62 19t41 51q12 28 12 87v307h49v-493h-45z" />
<glyph unicode="&#xfb;" horiz-adv-x="415" d="M102 560l87 125h52l85 -125h-44l-68 98l-70 -98h-42zM313 0v70q-26 -44 -56.5 -63t-76.5 -19q-101 0 -120 97q-5 26 -5 79v329h50v-329q0 -54 9 -79q18 -56 80 -56q34 0 62 19t41 51q12 28 12 87v307h49v-493h-45z" />
<glyph unicode="&#xfc;" horiz-adv-x="424" d="M271 582v87h48v-87h-48zM130 582v87h47v-87h-47zM322 0v70q-26 -44 -56.5 -63t-76.5 -19q-101 0 -120 97q-5 26 -5 79v329h50v-329q0 -54 9 -79q18 -56 80 -56q34 0 62 19t41 51q12 28 12 87v307h49v-493h-45z" />
<glyph unicode="&#xfd;" horiz-adv-x="356" d="M169 560l66 126h59l-90 -126h-35zM33 -128q15 -1 32 -1q50 0 71 45q18 44 20 58l2 15l-144 504h53l117 -450l105 450h52l-122 -463q-20 -76 -37 -122q-27 -78 -112 -78q-5 0 -37 2v40z" />
<glyph unicode="&#xfe;" horiz-adv-x="429" d="M110 69v-239h-49v837h49v-243q39 80 121 80q87 0 127 -78q29 -55 29 -180q0 -133 -36 -191q-41 -66 -120 -66q-82 0 -121 80zM132 89q32 -60 89 -60q65 0 95 70q20 48 20 147q0 111 -25 158q-30 60 -89 60q-65 0 -95 -70q-20 -46 -20 -145q0 -111 25 -160z" />
<glyph unicode="&#xff;" horiz-adv-x="356" d="M240 582v87h48v-87h-48zM99 582v87h47v-87h-47zM33 -128q15 -1 32 -1q50 0 71 45q18 44 20 58l2 15l-144 504h53l117 -450l105 450h52l-122 -463q-20 -76 -37 -122q-27 -78 -112 -78q-5 0 -37 2v40z" />
<glyph unicode="&#x152;" horiz-adv-x="764" d="M398 0v55q-40 -68 -133 -68q-112 0 -163.5 84t-51.5 266q0 343 214 343q96 0 134 -64v51h310v-45h-261v-252h243v-44h-243v-281h271v-45h-320zM397 271v149q0 101 -10 137q-24 82 -119 82q-85 0 -125 -73t-40 -228q0 -163 38.5 -236.5t124.5 -73.5q106 0 124 104 q7 38 7 139z" />
<glyph unicode="&#x153;" horiz-adv-x="667" d="M573 161h47q-17 -173 -149 -173q-101 0 -127 119q-17 -63 -50 -91t-90 -28q-162 0 -162 257q0 260 168 260q109 0 134 -118q28 118 132 118q52 0 88 -31.5t49 -87.5q12 -49 12 -137h-258v-14q0 -210 104 -210q56 0 84 57q13 27 18 79zM368 284h206v10q0 175 -100 175 q-104 0 -106 -185zM118 84q31 -58 90 -58q58 0 85 54t27 171q0 114 -22 158q-29 58 -88 58q-118 0 -118 -220q0 -115 26 -163z" />
<glyph unicode="&#x178;" horiz-adv-x="423" d="M272 741v89h51v-89h-51zM113 741v89h50v-89h-50zM185 0v269l-180 398h59l148 -349l151 349h55l-181 -398v-269h-52z" />
<glyph unicode="&#x2c6;" horiz-adv-x="500" d="M138 560l87 125h52l85 -125h-44l-68 98l-70 -98h-42z" />
<glyph unicode="&#x2dc;" horiz-adv-x="500" d="M128 580q18 85 71 85q16 0 27 -4.5t46 -27.5q19 -12 32 -12q28 0 37 48h31q-16 -84 -68 -84q-15 0 -25 4.5t-45 25.5q-22 14 -36 14q-27 0 -40 -49h-30z" />
<glyph unicode="&#x2000;" horiz-adv-x="441" />
<glyph unicode="&#x2001;" horiz-adv-x="883" />
<glyph unicode="&#x2002;" horiz-adv-x="441" />
<glyph unicode="&#x2003;" horiz-adv-x="883" />
<glyph unicode="&#x2004;" horiz-adv-x="294" />
<glyph unicode="&#x2005;" horiz-adv-x="220" />
<glyph unicode="&#x2006;" horiz-adv-x="147" />
<glyph unicode="&#x2007;" horiz-adv-x="147" />
<glyph unicode="&#x2008;" horiz-adv-x="110" />
<glyph unicode="&#x2009;" horiz-adv-x="176" />
<glyph unicode="&#x200a;" horiz-adv-x="49" />
<glyph unicode="&#x2010;" horiz-adv-x="174" d="M0 228v45h174v-45h-174z" />
<glyph unicode="&#x2011;" horiz-adv-x="174" d="M0 228v45h174v-45h-174z" />
<glyph unicode="&#x2012;" horiz-adv-x="174" d="M0 228v45h174v-45h-174z" />
<glyph unicode="&#x2013;" d="M75 228v45h327v-45h-327z" />
<glyph unicode="&#x2014;" horiz-adv-x="523" d="M0 228v45h523v-45h-523z" />
<glyph unicode="&#x2018;" horiz-adv-x="177" d="M60 462v71q0 67 13 96.5t51 49.5v-29q-21 -16 -28 -36t-6 -66h27v-86h-57z" />
<glyph unicode="&#x2019;" horiz-adv-x="176" d="M53 449l1 32q20 15 26.5 34t7.5 66h-28v86h56v-70q0 -67 -13 -97t-50 -51z" />
<glyph unicode="&#x201a;" horiz-adv-x="176" d="M61 0v84h56v-79q0 -44 -7 -70q-7 -25 -18.5 -39t-38.5 -29l1 32q21 16 28 35.5t7 65.5h-28z" />
<glyph unicode="&#x201c;" horiz-adv-x="302" d="M186 462v80q0 59 13.5 89t50.5 49v-31q-22 -14 -28.5 -34t-7.5 -69h28v-84h-56zM60 462v80q0 47 7 71q7 25 18.5 39t38.5 28v-32q-22 -15 -28.5 -34.5t-6.5 -66.5h27v-85h-56z" />
<glyph unicode="&#x201d;" horiz-adv-x="304" d="M179 449v32q21 15 28.5 35.5t6.5 65.5h-27v85h56v-80q0 -42 -8 -72q-7 -24 -18.5 -37.5t-37.5 -28.5zM53 450v31q20 12 28 34t7 67h-27v85h56v-80q0 -58 -14 -87.5t-50 -49.5z" />
<glyph unicode="&#x201e;" horiz-adv-x="302" d="M186 0v84h56v-79q0 -44 -7 -70q-7 -25 -18.5 -39t-38.5 -29l1 32q21 16 28 35.5t7 65.5h-28zM61 0v84h56v-79q0 -59 -13.5 -88.5t-50.5 -49.5l1 31q20 14 27.5 35.5t6.5 66.5h-27z" />
<glyph unicode="&#x2022;" horiz-adv-x="667" d="M335 200q-57 0 -98 40.5t-41 97.5q0 58 41 98.5t100 40.5q55 0 95.5 -41t40.5 -97q0 -58 -40.5 -98.5t-97.5 -40.5z" />
<glyph unicode="&#x2026;" horiz-adv-x="534" d="M417 0v89h55v-89h-55zM239 0v89h55v-89h-55zM61 0v89h55v-89h-55z" />
<glyph unicode="&#x202f;" horiz-adv-x="176" />
<glyph unicode="&#x2039;" horiz-adv-x="211" d="M154 101l-109 122v52l109 124v-53l-86 -97l86 -96v-52z" />
<glyph unicode="&#x203a;" horiz-adv-x="211" d="M57 101v53l85 96l-85 96v53l109 -122v-52z" />
<glyph unicode="&#x205f;" horiz-adv-x="220" />
<glyph unicode="&#x20ac;" horiz-adv-x="579" d="M50 282l11 32h59v3v12v17h-70l11 32h60q5 108 28 169q49 131 185 131q86 0 135 -52q24 -26 35.5 -57t17.5 -89l-52 -1q-9 80 -38 115q-34 42 -99 42q-109 0 -143 -133q-9 -35 -14 -125h261l-11 -32h-251v-3l-1 -13l1 -13v-3h241l-11 -32h-230l1 -3v-9q0 -240 156 -240 q65 0 102.5 50t41.5 141h52q-7 -68 -19 -105t-38 -68q-49 -60 -140 -60q-102 0 -153 71.5t-57 222.5h-71z" />
<glyph unicode="&#x2122;" horiz-adv-x="656" d="M297 287v380h53l97 -326l94 326h55v-380h-35v333l-98 -333h-34l-97 333v-333h-35zM115 287v348h-102v32h240v-32h-101v-348h-37z" />
<glyph unicode="&#x25fc;" horiz-adv-x="495" d="M0 495h495v-495h-495v495z" />
</font>
</defs>
</svg>
