<?xml version="1.0" standalone="no"?>
<!DOCTYPE svg PUBLIC "-//W3C//DTD SVG 1.1//EN" "http://www.w3.org/Graphics/SVG/1.1/DTD/svg11.dtd" >
<svg xmlns="http://www.w3.org/2000/svg">
<metadata></metadata>
<defs>
<font id="foundation_sansblack_extended" horiz-adv-x="500" >
<font-face units-per-em="1000" ascent="825" descent="-175" />
<missing-glyph horiz-adv-x="300" />
<glyph unicode="&#xfb01;" horiz-adv-x="751" d="M82 0v366h-75v135h75v47q0 79 38.5 109.5t138.5 30.5q39 0 142 -6v-134q-61 0 -74.5 -7.5t-15.5 -39.5h90v-135h-90v-366h-229zM468 548v119h229v-119h-229zM468 0v501h229v-501h-229z" />
<glyph unicode="&#xfb02;" horiz-adv-x="751" d="M82 0v366h-75v135h75v47q0 79 38.5 109.5t138.5 30.5q39 0 142 -6v-134q-61 0 -74.5 -7.5t-15.5 -39.5h90v-135h-90v-366h-229zM468 0v667h229v-667h-229z" />
<glyph unicode="&#xfb03;" horiz-adv-x="1164" d="M495 0v366h-75v135h75v47q0 79 38.5 109.5t138.5 30.5q38 0 142 -6v-134q-61 0 -74.5 -7.5t-15.5 -39.5h90v-135h-90v-366h-229zM82 0v366h-75v135h75v47q0 79 38.5 109.5t138.5 30.5q39 0 142 -6v-134q-61 0 -74.5 -7.5t-15.5 -39.5h90v-135h-90v-366h-229zM881 548v119 h229v-119h-229zM881 0v501h229v-501h-229z" />
<glyph unicode="&#xfb04;" horiz-adv-x="1164" d="M495 0v366h-75v135h75v47q0 79 38.5 109.5t138.5 30.5q38 0 142 -6v-134q-61 0 -74.5 -7.5t-15.5 -39.5h90v-135h-90v-366h-229zM82 0v366h-75v135h75v47q0 79 38.5 109.5t138.5 30.5q39 0 142 -6v-134q-61 0 -74.5 -7.5t-15.5 -39.5h90v-135h-90v-366h-229zM881 0v667 h229v-667h-229z" />
<glyph horiz-adv-x="1000" />
<glyph horiz-adv-x="1000" />
<glyph unicode="&#xd;" horiz-adv-x="1000" />
<glyph unicode=" "  horiz-adv-x="300" />
<glyph unicode="&#x09;" horiz-adv-x="300" />
<glyph unicode="&#xa0;" horiz-adv-x="300" />
<glyph unicode="!" horiz-adv-x="368" d="M98 251l-37 416h246l-36 -416h-173zM72 0v201h224v-201h-224z" />
<glyph unicode="&#x22;" horiz-adv-x="523" d="M317 399l-42 268h239l-43 -268h-154zM51 399l-42 268h238l-42 -268h-154z" />
<glyph unicode="#" horiz-adv-x="675" d="M153 46l21 152h-92l13 94h92l12 79h-93l14 94h92l19 139h97l-20 -139h86l19 139h97l-20 -139h103l-13 -94h-103l-11 -79h103l-13 -94h-103l-22 -152h-96l21 152h-85l-22 -152h-96zM284 292h85l12 79h-86z" />
<glyph unicode="$" horiz-adv-x="943" d="M63 210h312q8 -30 28.5 -42t66.5 -12q108 0 108 44q0 22 -25 29q-14 4 -135 19q-150 18 -235 47q-116 39 -116 164q0 136 169 195q66 23 182 30v102h105v-102q136 -7 200 -31q123 -48 134 -184h-298q-7 33 -26 44.5t-68 11.5q-95 0 -95 -42q0 -19 22 -28q19 -6 132 -17 q154 -15 234 -44q58 -20 90.5 -65t32.5 -106q0 -75 -46.5 -130t-135.5 -84q-69 -22 -176 -26v-106h-105v106q-177 8 -260 61t-95 166z" />
<glyph unicode="%" horiz-adv-x="1139" d="M258 325q-105 0 -163 46.5t-58 131.5q0 80 59 126.5t161 46.5q104 0 162 -46.5t58 -128.5q0 -83 -58 -129.5t-161 -46.5zM415 0l233 667h76l-228 -667h-81zM257 409q38 0 59.5 24.5t21.5 67.5t-21.5 67t-59.5 24t-59.5 -24t-21.5 -66q0 -44 21.5 -68.5t59.5 -24.5z M662 169q0 80 59 126.5t161 46.5q104 0 162 -46.5t58 -128.5q0 -83 -58 -129.5t-161 -46.5q-105 0 -163 46.5t-58 131.5zM801 168q0 -44 21.5 -68.5t59.5 -24.5t59.5 24.5t21.5 67.5t-21.5 67t-59.5 24t-59.5 -24t-21.5 -66z" />
<glyph unicode="&#x26;" horiz-adv-x="919" d="M637 0l-40 46q-133 -59 -257 -59q-138 0 -232 65q-36 25 -57 68.5t-21 92.5q0 86 57.5 137.5t177.5 74.5q-39 51 -39 104q0 159 272 159q140 0 215.5 -43.5t75.5 -123.5q0 -61 -43.5 -99.5t-145.5 -69.5l83 -91q43 29 77 54l71 58l90 -112q-57 -48 -142 -105l142 -156 h-284zM508 453q43 9 60.5 22.5t17.5 36.5q0 20 -15 32.5t-40 12.5q-24 0 -39.5 -12t-15.5 -30q0 -24 32 -62zM491 158l-134 151q-44 -10 -63 -29t-19 -52q0 -40 34 -68t84 -28q40 0 98 26z" />
<glyph unicode="'" horiz-adv-x="264" d="M51 399l-42 268h245l-42 -268h-161z" />
<glyph unicode="(" horiz-adv-x="488" d="M436 -96h-22q-140 0 -231 60q-144 95 -144 321q0 193 102 289q53 50 121.5 71.5t173.5 21.5v-153q-53 -5 -80 -15t-48 -32q-53 -54 -53 -181q0 -138 62 -191q35 -30 119 -38v-153z" />
<glyph unicode=")" horiz-adv-x="488" d="M52 57q53 5 80.5 15t47.5 32q53 54 53 182q0 137 -62 190q-21 17 -46 25.5t-73 12.5v153q108 0 182 -25q110 -37 168 -139q47 -84 47 -217q0 -245 -167 -336q-84 -46 -209 -46h-21v153z" />
<glyph unicode="*" horiz-adv-x="478" d="M177 274l-101 73l80 97l-123 26l39 118l116 -46l-14 125h125l-8 -125l115 52l39 -119l-122 -31l85 -93l-102 -74l-66 106z" />
<glyph unicode="+" d="M198 119v206h-200v98h200v206h102v-206h201v-98h-201v-206h-102z" />
<glyph unicode="," horiz-adv-x="325" d="M54 0v193h217v-166q0 -50 -17.5 -79t-61.5 -53q-46 -26 -119 -38l-19 72q42 7 61.5 23.5t21.5 47.5h-83z" />
<glyph unicode="-" horiz-adv-x="386" d="M0 156v203h386v-203h-386z" />
<glyph unicode="." horiz-adv-x="325" d="M54 0v209h217v-209h-217z" />
<glyph unicode="/" horiz-adv-x="439" d="M-1 -96l246 763h179l-247 -763h-178z" />
<glyph unicode="0" horiz-adv-x="943" d="M130 89q-99 85 -99 249q0 72 26 135.5t73 104.5q124 107 341 107q216 0 341 -107q99 -85 99 -245q0 -159 -99 -244q-126 -107 -339 -107q-219 0 -343 107zM308 336q0 -88 43 -136.5t120 -48.5t120 48.5t43 133.5q0 86 -43 134.5t-120 48.5q-76 0 -119.5 -48t-43.5 -132z " />
<glyph unicode="1" horiz-adv-x="943" d="M378 0v440q-62 -26 -113 -34v157q125 50 179 104h193v-667h-259z" />
<glyph unicode="2" horiz-adv-x="943" d="M32 0q5 99 27.5 162t78.5 111t142.5 78t228.5 58q55 11 77 23.5t22 32.5q0 50 -110 50q-72 0 -109 -22q-31 -18 -40 -66h-310q5 64 27.5 105.5t68.5 75.5q104 77 347 77q211 0 320 -60t109 -177q0 -126 -134 -175q-66 -24 -240 -48q-97 -13 -131 -22.5t-75 -33.5h565 v-169h-864z" />
<glyph unicode="3" horiz-adv-x="943" d="M352 473h-304q9 62 34 98t78 63q104 51 334 51q399 0 399 -199q0 -46 -23 -72t-81 -46q60 -21 86 -47q43 -43 43 -108q0 -112 -113.5 -171.5t-328.5 -59.5q-267 0 -362 75q-37 30 -55 67.5t-26 101.5h303q9 -38 32 -54q32 -21 105 -21q74 0 107.5 17t33.5 54q0 33 -27 44 q-15 8 -81 8h-84v162h58q63 0 83 4q27 8 27 33q0 52 -108 52q-40 0 -74 -8q-23 -5 -34.5 -14t-21.5 -30z" />
<glyph unicode="4" horiz-adv-x="943" d="M37 106v181l389 380h356v-372h118v-189h-118v-106h-259v106h-486zM320 295h203v198z" />
<glyph unicode="5" horiz-adv-x="943" d="M300 501l-9 -74q99 34 244 34q179 0 276.5 -59t97.5 -167q0 -128 -111.5 -190.5t-340.5 -62.5q-245 0 -348 72q-44 30 -62 66.5t-20 100.5h279q16 -38 52 -54.5t103 -16.5q68 0 106.5 20.5t38.5 57.5q0 78 -154 78q-78 0 -139 -27h-246l45 388h744v-166h-556z" />
<glyph unicode="6" horiz-adv-x="943" d="M882 472h-294q-11 25 -30 33.5t-61 8.5q-89 0 -134 -39q-26 -23 -35 -76q102 32 224 32q171 0 265 -56t94 -157q0 -114 -112 -175t-321 -61q-222 0 -335 88q-112 89 -112 263q0 175 118 263.5t351 88.5q210 0 315 -81q31 -24 46.5 -54t20.5 -78zM342 216q0 -31 36 -48.5 t98 -17.5q60 0 96 18t36 47q0 30 -36 47.5t-97 17.5q-60 0 -96.5 -17.5t-36.5 -46.5z" />
<glyph unicode="7" horiz-adv-x="943" d="M130 0q21 145 108 233q31 32 80 66.5t169 111.5q65 42 105 87h-553v169h865q0 -120 -41 -191.5t-174 -183.5q-107 -89 -150.5 -150t-59.5 -142h-349z" />
<glyph unicode="8" horiz-adv-x="943" d="M121 53q-85 57 -85 161q0 53 21 86.5t71 59.5q-44 23 -62.5 51.5t-18.5 72.5q0 97 89 139q132 62 335 62q202 0 336 -62q88 -42 88 -140q0 -44 -18.5 -72t-61.5 -51q49 -25 70 -59t21 -87q0 -104 -85 -161q-58 -40 -135.5 -55.5t-214.5 -15.5t-214.5 15.5t-135.5 55.5z M345 479q0 -26 28.5 -37t96.5 -11t97.5 11t29.5 36t-29 35.5t-97 10.5q-67 0 -96.5 -10.5t-29.5 -34.5zM331 214q0 -34 32.5 -48.5t108.5 -14.5q73 0 106 14.5t33 46.5q0 33 -32.5 47.5t-107.5 14.5q-73 0 -106.5 -14.5t-33.5 -45.5z" />
<glyph unicode="9" horiz-adv-x="943" d="M53 203h285q30 -59 129 -59q75 0 116 38q27 25 39 82q-73 -31 -181 -31q-172 0 -250 28q-156 54 -156 189q0 55 27.5 101t76.5 71q118 63 311 63q202 0 325 -77q133 -83 133 -273q0 -353 -437 -353q-224 0 -336 79q-34 24 -52.5 56.5t-29.5 85.5zM338 449q0 -70 135 -70 q132 0 132 69q0 68 -133 68q-134 0 -134 -67z" />
<glyph unicode=":" horiz-adv-x="325" d="M54 292v209h217v-209h-217zM54 0v209h217v-209h-217z" />
<glyph unicode=";" horiz-adv-x="325" d="M54 292v209h217v-209h-217zM54 0v193h217v-166q0 -50 -17.5 -79t-61.5 -53q-46 -26 -119 -38l-19 72q42 7 61.5 23.5t21.5 47.5h-83z" />
<glyph unicode="&#x3c;" d="M33 249v181l433 250v-218l-202 -123l201 -124l1 -216z" />
<glyph unicode="=" d="M-2 406v95h504v-95h-504zM-2 248v95h504v-95h-504z" />
<glyph unicode="&#x3e;" d="M33 -1v217l203 124l-202 124l-1 216l433 -250v-182z" />
<glyph unicode="?" horiz-adv-x="809" d="M285 254q6 68 33.5 100t104.5 63q48 19 66 35.5t18 39.5q0 27 -26 42.5t-72 15.5q-61 0 -90 -23t-34 -76h-265q3 57 20.5 94t55.5 67q96 76 306 76q180 0 280 -56t100 -156q0 -42 -20 -76.5t-55 -53.5q-37 -19 -136 -47q-27 -7 -37.5 -15.5t-20.5 -29.5h-228zM285 0v211 h228v-211h-228z" />
<glyph unicode="@" horiz-adv-x="664" d="M573 172h74q-43 -82 -124.5 -131.5t-173.5 -49.5q-140 0 -239 98.5t-99 238.5q0 139 98 236t239 97q125 0 215 -82t90 -196q0 -55 -24.5 -103.5t-67.5 -80.5q-61 -46 -124 -46q-47 0 -72 34q-39 -23 -58.5 -30.5t-43.5 -7.5q-56 0 -93 39.5t-37 99.5q0 80 60 145.5 t134 65.5q59 0 97 -40l9 24l105 -1l-76 -236l-4 -14q-4 -8 -4 -15q0 -6 5.5 -11t12.5 -5q13 0 35.5 15.5t39.5 35.5q43 56 43 125q0 91 -72 158t-170 67q-113 0 -191 -79t-78 -194q0 -116 79.5 -196.5t194.5 -80.5q65 0 123.5 32t96.5 88zM364 292l22 63q10 27 10 48 q0 17 -10 29t-24 12q-46 0 -80 -72q-34 -75 -34 -123q0 -23 10 -37t26 -14q47 0 80 94z" />
<glyph unicode="A" horiz-adv-x="857" d="M-7 0l267 667h337l267 -667h-279l-28 61h-272l-25 -61h-267zM331 231h176l-86 245z" />
<glyph unicode="B" horiz-adv-x="968" d="M65 0v667h527q145 0 205 -24q43 -17 68 -57.5t25 -91.5q0 -43 -16 -71t-55 -54q35 -16 51 -27.5t30 -31.5q31 -48 31 -109q0 -53 -21 -97t-57 -67q-34 -21 -81.5 -29t-135.5 -8h-571zM320 419h185q60 0 81 4q32 6 32 40q0 26 -22 34.5t-90 8.5h-186v-87zM320 162h214 q64 0 78 1.5t25 7.5q21 11 21 39q0 30 -27 40q-16 6 -97 6h-214v-94z" />
<glyph unicode="C" horiz-adv-x="980" d="M661 249h293q-8 -73 -34 -117.5t-82 -79.5q-63 -40 -141.5 -56.5t-202.5 -16.5q-122 0 -200.5 20.5t-137.5 67.5q-119 93 -119 270t116 262q121 89 347 89q268 0 382 -110q58 -54 72 -166h-293q-16 58 -52.5 82t-107.5 24q-90 0 -136.5 -45t-46.5 -132q0 -91 48 -141.5 t135 -50.5q79 0 117 33q20 18 43 67z" />
<glyph unicode="D" horiz-adv-x="955" d="M65 0v667h442q129 0 196.5 -17.5t117.5 -63.5q96 -87 96 -261q0 -165 -83 -246q-50 -47 -114 -63t-209 -16h-446zM320 170h123q109 0 145 23q56 36 56 139q0 101 -55 140q-22 16 -49 20.5t-100 4.5h-120v-327z" />
<glyph unicode="E" horiz-adv-x="888" d="M65 0v667h755v-170h-500v-74h414v-170h-414v-83h531v-170h-786z" />
<glyph unicode="F" horiz-adv-x="852" d="M65 0v667h763v-170h-508v-78h420v-170h-420v-249h-255z" />
<glyph unicode="G" horiz-adv-x="995" d="M833 2l-34 72q-45 -44 -101 -63q-94 -32 -220 -32q-211 0 -326 91.5t-115 260.5q0 86 33 157.5t93 114.5q118 85 328 85q224 0 343 -86q50 -36 75 -75t34 -96h-303q-32 87 -146 87q-83 0 -129.5 -47.5t-46.5 -131.5q0 -92 52.5 -141t150.5 -49q125 0 153 77h-113v145h382 v-369h-110z" />
<glyph unicode="H" horiz-adv-x="939" d="M65 0v667h255v-235h298v235h255v-667h-255v262h-298v-262h-255z" />
<glyph unicode="I" horiz-adv-x="390" d="M67 0v667h255v-667h-255z" />
<glyph unicode="J" horiz-adv-x="799" d="M740 667v-404q0 -84 -15.5 -130.5t-53.5 -79.5q-89 -74 -277 -74q-133 0 -223.5 32.5t-125.5 92.5q-29 50 -29 176h254q3 -74 26.5 -102.5t82.5 -28.5q64 0 85 36t21 148v334h255z" />
<glyph unicode="K" horiz-adv-x="933" d="M65 0v667h255v-251l260 251h346l-277 -238l295 -429h-323l-184 280l-117 -111v-169h-255z" />
<glyph unicode="L" horiz-adv-x="814" d="M65 0v667h255v-497h477v-170h-732z" />
<glyph unicode="M" horiz-adv-x="1176" d="M65 0v667h419l69 -189q30 -80 33 -164h9q8 91 33 164l66 189h416v-667h-255v490h-4q-8 -77 -29 -136l-128 -354h-210l-130 354q-20 55 -30 136h-4v-490h-255z" />
<glyph unicode="N" horiz-adv-x="957" d="M65 0v667h288l209 -253q37 -45 50.5 -67.5t49.5 -97.5h8q-34 96 -34 205v213h255v-667h-280l-220 261q-50 60 -93 162h-8q30 -89 30 -184v-239h-255z" />
<glyph unicode="O" horiz-adv-x="983" d="M140 72q-103 84 -103 267q0 172 103 255q117 94 351 94q124 0 206.5 -22t144.5 -72q103 -82 103 -261q0 -181 -110.5 -268t-340.5 -87q-125 0 -208.5 22t-145.5 72zM318 336q0 -188 174 -188q84 0 128 47t44 138t-44 138t-129 47q-84 0 -128.5 -47t-44.5 -135z" />
<glyph unicode="P" horiz-adv-x="889" d="M65 0v667h498q96 0 144.5 -10t84.5 -36q74 -55 74 -176q0 -135 -89 -187q-35 -20 -77 -27t-135 -7h-245v-224h-255zM320 385h160q68 0 84 10q29 18 29 59q0 37 -24 50.5t-88 13.5h-161v-133z" />
<glyph unicode="Q" horiz-adv-x="981" d="M801 -141l-131 135q-89 -16 -181 -16q-233 0 -342.5 87t-109.5 271q0 176 102 257q118 95 354 95q231 0 347 -93q104 -85 104 -263q0 -126 -49 -202q-19 -30 -60 -63l89 -89zM593 314l59 -60q11 37 11 75q0 189 -172 189q-173 0 -173 -186q0 -184 173 -184q15 0 26 2 l-45 45z" />
<glyph unicode="R" horiz-adv-x="893" d="M65 0v667h494q114 0 160 -8t77 -33q63 -49 63 -151q0 -84 -38 -127q-27 -29 -93 -44q53 -15 74.5 -34t30.5 -57t12 -129q2 -39 4.5 -52.5t13.5 -31.5h-267q-6 42 -8 88q-2 39 -4 60.5t-7.5 41t-12 27.5t-21.5 14t-31.5 7t-46.5 1h-145v-239h-255zM320 380h169q55 0 71 11 q26 18 26 56q0 36 -20.5 50t-74.5 14h-171v-131z" />
<glyph unicode="S" horiz-adv-x="929" d="M878 471h-333q-23 61 -120 61q-40 0 -63 -12t-23 -32q0 -13 6 -20t32.5 -14t66.5 -12.5t123 -13.5q139 -14 209 -40q123 -47 123 -174q0 -119 -109 -177t-333 -58q-217 0 -318 56q-54 29 -78.5 66t-31.5 99h354q17 -28 44.5 -39.5t74.5 -11.5q91 0 91 43q0 26 -31 35 q-25 7 -189 23q-129 14 -210 41q-128 42 -128 167q0 113 109 171.5t318 58.5q213 0 315 -66q41 -26 63 -59t38 -92z" />
<glyph unicode="T" horiz-adv-x="786" d="M264 0v497h-254v170h766v-170h-257v-497h-255z" />
<glyph unicode="U" horiz-adv-x="918" d="M860 667v-386q0 -82 -18 -133.5t-59 -87.5q-93 -81 -323 -81q-244 0 -335 91q-35 35 -50.5 84.5t-15.5 126.5v386h255v-342q0 -94 34 -135t112 -41t111.5 40.5t33.5 135.5v342h255z" />
<glyph unicode="V" horiz-adv-x="866" d="M290 0l-297 667h279l126 -280q30 -66 39 -149h8q11 83 40 149l120 280h268l-284 -667h-299z" />
<glyph unicode="W" horiz-adv-x="1239" d="M226 0l-233 667h270l85 -236q25 -70 30 -180h8q0 94 29 180l81 236h248l82 -236q28 -82 34 -180h8q0 91 29 180l78 236h270l-224 -667h-292l-71 211q-29 83 -35 176h-9q-5 -85 -35 -176l-68 -211h-285z" />
<glyph unicode="X" horiz-adv-x="874" d="M-14 0l285 356l-256 311h330l101 -128l97 128h319l-259 -318l285 -349h-333l-124 161l-129 -161h-316z" />
<glyph unicode="Y" horiz-adv-x="852" d="M295 0v168l-308 499h300l141 -247l143 247h295l-315 -499v-168h-256z" />
<glyph unicode="Z" horiz-adv-x="861" d="M27 0v148l409 349h-389v170h788v-153l-401 -344h393v-170h-800z" />
<glyph unicode="[" horiz-adv-x="488" d="M59 -96v763h382v-153h-170v-457h170v-153h-382z" />
<glyph unicode="\" horiz-adv-x="439" d="M262 -96l-247 763h178l247 -763h-178z" />
<glyph unicode="]" horiz-adv-x="488" d="M47 57h171v457h-171v153h383v-763h-383v153z" />
<glyph unicode="^" d="M0 327l130 345h241l130 -345h-189l-61 199l-62 -199h-189z" />
<glyph unicode="_" d="M0 -42h500v-126h-500v126z" />
<glyph unicode="`" d="M206 544l-139 126h304l63 -126h-228z" />
<glyph unicode="a" horiz-adv-x="836" d="M563 0l-5 45q-57 -32 -112 -45t-131 -13q-134 0 -209 45.5t-75 127.5q0 86 89 120q113 41 324 46q68 1 87 5.5t19 18.5q0 20 -33.5 32.5t-85.5 12.5q-85 0 -108 -33l-251 -10q13 54 36.5 84t71.5 51q80 36 237 36q244 0 318 -66q26 -24 36.5 -57t10.5 -94v-195 q0 -46 4 -68t17 -43h-240zM552 214v13q-39 -6 -92 -7q-95 -3 -109 -5q-22 -3 -34.5 -14t-12.5 -27q0 -42 92 -42q88 0 122 17.5t34 64.5z" />
<glyph unicode="b" horiz-adv-x="834" d="M54 0v667h229v-201q102 48 205 48q144 0 229 -70t85 -189q0 -124 -83.5 -196t-227.5 -72q-64 0 -110.5 15t-103.5 53l6 -55h-229zM282 250q0 -50 34.5 -77t97.5 -27q64 0 98.5 26.5t34.5 75.5t-34.5 76t-97.5 27q-62 0 -97.5 -27t-35.5 -74z" />
<glyph unicode="c" horiz-adv-x="839" d="M554 218h256q-8 -59 -24 -95t-48 -65q-87 -79 -297 -79q-182 0 -285 49q-58 28 -91 86.5t-33 134.5q0 86 37.5 146.5t107.5 87.5q104 40 247 40q103 0 193 -23q127 -34 172 -127q13 -26 21 -70h-263q-30 73 -123 73q-64 0 -100.5 -33.5t-36.5 -92.5q0 -60 36.5 -94 t101.5 -34q56 0 86.5 23t42.5 73z" />
<glyph unicode="d" horiz-adv-x="834" d="M551 0l6 55q-57 -38 -103.5 -53t-110.5 -15q-144 0 -227.5 72t-83.5 196q0 119 85 189t229 70q103 0 205 -48v201h229v-667h-229zM287 249q0 -49 35 -76t97 -27t97.5 27t35.5 74q0 50 -34.5 77t-97.5 27q-64 0 -98.5 -26.5t-34.5 -75.5z" />
<glyph unicode="e" horiz-adv-x="818" d="M525 146h261q-13 -46 -33 -72.5t-58 -46.5q-92 -48 -256 -48q-201 0 -301 59q-49 30 -77.5 88t-28.5 129q0 62 22.5 113t62.5 79q105 75 295 75q123 0 211 -35t125 -98q20 -34 28.5 -77.5t9.5 -122.5h-501q13 -42 41 -58q38 -20 102 -20q38 0 58.5 7.5t38.5 27.5z M287 316h252q-22 70 -125 70q-102 0 -127 -70z" />
<glyph unicode="f" horiz-adv-x="413" d="M82 0v366h-75v135h75v47q0 79 38.5 109.5t138.5 30.5q39 0 142 -6v-134q-61 0 -74.5 -7.5t-15.5 -39.5h90v-135h-90v-366h-229z" />
<glyph unicode="g" horiz-adv-x="843" d="M53 7h272q15 -19 33.5 -26t54.5 -7q87 0 120 36q22 23 27 82q-72 -48 -194 -48q-175 0 -265 66q-32 24 -50 67t-18 93q0 114 83 179t228 65q143 0 216 -67v54h229v-399q0 -74 -13.5 -116t-45.5 -70q-82 -71 -335 -71q-166 0 -245.5 38t-96.5 124zM288 264q0 -42 36.5 -66 t100.5 -24q61 0 98 25t37 65t-36.5 64t-97.5 24q-64 0 -101 -23.5t-37 -64.5z" />
<glyph unicode="h" horiz-adv-x="807" d="M54 0v667h229v-214q59 34 110.5 47.5t120.5 13.5q127 0 184 -53q37 -33 49 -88q6 -26 6 -124v-249h-229v207q0 78 -17 109q-22 38 -92 38q-83 0 -115 -57q-17 -31 -17 -90v-207h-229z" />
<glyph unicode="i" horiz-adv-x="337" d="M54 548v119h229v-119h-229zM54 0v501h229v-501h-229z" />
<glyph unicode="j" horiz-adv-x="344" d="M61 548v119h229v-119h-229zM11 -5q29 -1 39.5 13t10.5 52v441h229v-481q0 -62 -6 -92.5t-23 -48.5q-33 -37 -131 -37q-70 0 -161 22v133l15 -1z" />
<glyph unicode="k" horiz-adv-x="765" d="M54 0v667h229v-321l165 155h312l-206 -176l224 -325h-287l-121 193l-87 -77v-116h-229z" />
<glyph unicode="l" horiz-adv-x="337" d="M54 0v667h229v-667h-229z" />
<glyph unicode="m" horiz-adv-x="1269" d="M54 0v501h220v-63q96 76 238 76q76 0 124 -17.5t84 -58.5q55 41 113.5 58.5t139.5 17.5q137 0 194 -66q48 -55 48 -180v-268h-229v192q0 99 -25 130q-27 32 -86 32q-74 0 -105 -44q-22 -31 -22 -100v-210h-229v193q0 58 -3.5 82t-14.5 42q-23 37 -91 37q-77 0 -107 -49 q-20 -30 -20 -94v-211h-229z" />
<glyph unicode="n" horiz-adv-x="807" d="M54 0v501h229v-48q59 34 110 47.5t121 13.5q125 0 184 -53q37 -33 49 -88q6 -26 6 -124v-249h-229v207q0 78 -17 109q-22 38 -92 38q-83 0 -115 -57q-17 -31 -17 -90v-207h-229z" />
<glyph unicode="o" horiz-adv-x="845" d="M177 19q-145 56 -145 237q0 81 38.5 141.5t106.5 86.5q99 39 246 39q146 0 245 -39q70 -27 107.5 -87.5t37.5 -145.5t-37.5 -145t-107.5 -87q-100 -40 -244 -40q-145 0 -247 40zM287 253q0 -58 37 -93.5t99 -35.5q60 0 97.5 35.5t37.5 91.5t-37.5 91.5t-97.5 35.5 t-98 -35t-38 -90z" />
<glyph unicode="p" horiz-adv-x="843" d="M54 -145v646h229v-47q47 34 92.5 47t117.5 13q132 0 214 -57q103 -74 103 -206q0 -60 -23.5 -113t-65.5 -87q-80 -64 -232 -64q-127 0 -206 52v-184h-229zM283 253q0 -105 136 -105t136 103t-136 103t-136 -101z" />
<glyph unicode="q" horiz-adv-x="843" d="M560 -145v184q-81 -52 -206 -52q-152 0 -232 64q-41 34 -65 87t-24 113q0 132 103 206q80 57 215 57q72 0 117.5 -13t91.5 -47v47h229v-646h-229zM288 251q0 -103 136 -103q137 0 137 101q0 105 -137 105q-136 0 -136 -103z" />
<glyph unicode="r" horiz-adv-x="682" d="M54 0v501h229v-48q85 61 187 61q146 0 179 -104q13 -39 14 -142h-230q-2 44 -18 63t-52 19q-42 0 -61 -27.5t-19 -88.5v-234h-229z" />
<glyph unicode="s" horiz-adv-x="765" d="M727 352l-294 10q-19 23 -78 23q-64 0 -64 -26q0 -13 15.5 -18.5t61.5 -8.5q210 -12 293 -51.5t83 -126.5q0 -175 -345 -175q-218 0 -303 56q-37 25 -53 52.5t-22 76.5l277 -14q13 -20 34 -28t60 -8q68 0 68 31q0 17 -24 21q-8 2 -199 28q-114 16 -162.5 52t-48.5 104 q0 91 82 132t244 41q214 0 298 -55q34 -22 50.5 -46.5t26.5 -69.5z" />
<glyph unicode="t" horiz-adv-x="417" d="M390 0h-137q-65 0 -100 10t-52 33q-12 16 -16 37t-4 67v219h-81v135h81v166h229v-166h80v-135h-80v-184q0 -34 11.5 -43.5t52.5 -9.5h16v-129z" />
<glyph unicode="u" horiz-adv-x="807" d="M524 0v48q-59 -34 -110.5 -47.5t-120.5 -13.5q-127 0 -184 53q-37 33 -49 88q-6 33 -6 123v250h229v-207q0 -78 17 -109q22 -38 92 -38q84 0 115 56q17 30 17 91v207h229v-501h-229z" />
<glyph unicode="v" horiz-adv-x="708" d="M228 0l-235 501h254l114 -273l113 273h240l-231 -501h-255z" />
<glyph unicode="w" horiz-adv-x="1178" d="M237 0l-244 501h254l117 -244l110 244h254l110 -244l112 244h234l-231 -501h-238l-119 257l-129 -257h-230z" />
<glyph unicode="x" horiz-adv-x="782" d="M-16 0l259 269l-221 232h292l87 -98l88 98h285l-222 -234l238 -267h-290l-103 115l-115 -115h-298z" />
<glyph unicode="y" horiz-adv-x="721" d="M55 30q60 -29 111 -29q28 0 61 9l-234 491h257l126 -286l114 286h237l-144 -357q-78 -193 -131 -244q-60 -58 -212 -58q-89 0 -185 19v169z" />
<glyph unicode="z" horiz-adv-x="718" d="M20 0v127l296 221h-267v153h638v-125l-323 -223h316v-153h-660z" />
<glyph unicode="{" d="M112 -53v124q0 40 -12.5 59.5t-42.5 25.5v177q31 7 43 22t12 52v122q0 88 45 120q23 16 50.5 21t96.5 5q10 0 33 -1.5t55 -1.5h36v-204q-12 1 -26 1q-52 0 -63 -10t-11 -56v-36q0 -65 -21 -93q-11 -15 -39 -35q35 -23 47.5 -50t12.5 -78v-48q0 -46 11.5 -55.5t65.5 -9.5 h23v-192l-36 -1l-33 -2q-18 -1 -56 -1q-70 0 -100 6t-53 25q-38 32 -38 114z" />
<glyph unicode="|" d="M140 -167v834h220v-834h-220z" />
<glyph unicode="}" d="M72 9h26q52 0 63 10t11 56v35q0 64 21 94q11 15 39 35q-35 23 -47.5 50t-12.5 78v48q0 46 -11.5 55.5t-65.5 9.5h-23v191q18 1 36 1l33 2q19 1 57 1q69 0 99.5 -6t52.5 -25q38 -33 38 -114v-123q0 -41 12.5 -60.5t42.5 -24.5v-177q-31 -7 -42 -24q-13 -17 -13 -50v-122 q0 -88 -45 -120q-23 -16 -50.5 -21t-96.5 -5q-32 0 -88 2q-6 1 -36 1v203z" />
<glyph unicode="~" horiz-adv-x="667" d="M194 525l-103 88q32 85 70 122t92 37q18 0 36.5 -5.5t105.5 -34.5q18 -7 29 -7q18 0 32 17q6 6 20 33l103 -87q-33 -84 -69 -121q-39 -41 -92 -41q-25 0 -147 43q-15 5 -27 5q-25 0 -50 -49z" />
<glyph unicode="&#xa1;" horiz-adv-x="368" d="M72 300v201h224v-201h-224zM61 -165l37 416h173l36 -416h-246z" />
<glyph unicode="&#xa2;" horiz-adv-x="943" d="M428 -47v106q-135 5 -224 46q-67 31 -103 93t-36 146q0 183 169 246q69 27 194 35v102h107v-102q165 -14 242.5 -66t100.5 -162h-275q-33 76 -127 76q-68 0 -105.5 -34.5t-37.5 -97.5q0 -65 38.5 -99.5t109.5 -34.5q57 0 87 23.5t44 78.5h266q-13 -238 -345 -250v-106 h-105z" />
<glyph unicode="&#xa3;" horiz-adv-x="943" d="M118 151q33 27 48 61t19 91h-56v115h45q-15 49 -15 85q0 81 55 124q75 58 274 58q223 0 300 -83q45 -51 49 -153h-265q-2 52 -18.5 72.5t-56.5 20.5q-71 0 -71 -65q0 -21 11 -59h104v-115h-104q-14 -63 -73 -129q64 33 90.5 42.5t55.5 9.5q35 0 76 -17q55 -22 83 -22 q25 0 45 9t66 41l57 -186q-49 -38 -86 -53.5t-78 -15.5q-31 0 -49 3.5t-96 25.5q-79 21 -147 21q-97 0 -172 -43z" />
<glyph unicode="&#xa4;" horiz-adv-x="740" d="M22 107l108 108q-28 59 -28 121q0 67 32 129l-110 110l111 112l113 -113q60 28 122 28q63 0 121 -27l112 110l110 -110l-107 -108q34 -62 34 -130q0 -63 -28 -122l107 -107l-110 -111l-106 106q-65 -34 -141 -34q-57 0 -123 33l-107 -105zM292 339q0 -34 23.5 -57.5 t55.5 -23.5q33 0 56.5 23.5t23.5 57.5q0 33 -23.5 56.5t-55.5 23.5q-34 0 -57 -23t-23 -57z" />
<glyph unicode="&#xa5;" horiz-adv-x="852" d="M96 159v99h152l-51 83h-114v98h55l-138 228h286l141 -247l143 247h282l-142 -228h57v-98h-117l-52 -83h154v-99h-202v-159h-256v159h-198z" />
<glyph unicode="&#xa6;" d="M140 299v368h220v-368h-220zM140 153h220v-320h-220v320z" />
<glyph unicode="&#xa7;" horiz-adv-x="740" d="M451 500v4q0 40 -66 40q-56 0 -56 -23q0 -7 6.5 -11t36.5 -15q8 -3 68.5 -23t118.5 -40q64 -22 93.5 -55.5t29.5 -84.5q0 -46 -21 -76t-68 -53q35 -35 35 -88q0 -82 -69 -129.5t-188 -47.5t-187.5 48t-68.5 131q0 11 1 20h173q1 -3 1.5 -7t1.5 -6.5t1 -3.5q2 -11 6.5 -16 t17.5 -9q26 -8 50 -8q65 0 65 28q0 14 -13 19q-17 8 -41 15q-170 50 -232 80q-87 41 -87 130t100 130q-26 33 -26 77q0 72 69 117t181 45q113 0 178.5 -50t66.5 -138h-177zM407 312l-33 12q-76 28 -100 30q-23 -1 -31 -5t-8 -13q0 -10 18 -16q4 0 27 -10q2 0 7 -2t14 -5 t17 -5l38 -13q90 -31 115 -36q38 4 38 18q0 11 -19 17l-18 6q-2 1 -15 5.5t-23 7.5z" />
<glyph unicode="&#xa8;" d="M296 565v119h230v-119h-230zM-27 565v119h230v-119h-230z" />
<glyph unicode="&#xa9;" horiz-adv-x="757" d="M31 333q0 147 102.5 248.5t250.5 101.5q140 0 240.5 -103.5t100.5 -246.5q0 -144 -101.5 -246.5t-244.5 -102.5t-245.5 102.5t-102.5 246.5zM127 333q0 -107 74 -183.5t178 -76.5q103 0 176.5 76.5t73.5 183.5t-73 184t-174 77q-107 0 -181 -75.5t-74 -185.5zM458 296h96 q-6 -74 -52.5 -116t-123.5 -42q-85 0 -136.5 55t-51.5 145q0 87 53.5 142.5t137.5 55.5q70 0 118.5 -42t51.5 -106h-94q-11 40 -74 40q-32 0 -49.5 -23.5t-17.5 -67.5t17.5 -67.5t49.5 -23.5q64 0 75 50z" />
<glyph unicode="&#xaa;" horiz-adv-x="536" d="M354 267l-3 24q-61 -32 -147 -32q-84 0 -132 28t-48 77q0 51 59.5 74t200.5 28q42 2 52 3.5t10 7.5q0 10 -20 16.5t-50 6.5q-51 0 -65 -20l-163 -6q8 35 23.5 54t47.5 33q50 21 149 21q152 0 198 -40q18 -15 24.5 -34.5t6.5 -57.5v-115q0 -44 15 -68h-158zM343 399h-2 q-5 -1 -47 -2q-60 -1 -76.5 -5.5t-16.5 -18.5q0 -22 53 -22q52 0 72.5 9.5t20.5 33.5v6l-3 -1h-1z" />
<glyph unicode="&#xab;" horiz-adv-x="570" d="M276 256l100 196h152l-98 -196l98 -195h-152zM136 61l-100 195l100 196h152l-98 -196l98 -195h-152z" />
<glyph unicode="&#xac;" d="M33 112v191h433v-303h-213v112h-220z" />
<glyph unicode="&#xad;" horiz-adv-x="386" d="M0 156v203h386v-203h-386z" />
<glyph unicode="&#xae;" horiz-adv-x="757" d="M31 333q0 147 102.5 248.5t250.5 101.5q140 0 240.5 -103.5t100.5 -246.5q0 -144 -101.5 -246.5t-244.5 -102.5t-245.5 102.5t-102.5 246.5zM127 333q0 -107 74 -183.5t178 -76.5q103 0 176.5 76.5t73.5 183.5t-73 184t-174 77q-107 0 -181 -75.5t-74 -185.5zM233 152 v378h161q59 0 88 -17q54 -29 54 -91q0 -65 -58 -92q28 -12 39 -38t13 -86q1 -17 9 -54h-118q-6 15 -9 54q-3 53 -17 72q-14 18 -36 18h-1v-144h-125zM358 365h13q22 0 31.5 10.5t9.5 35.5q0 45 -38 45h-16v-91z" />
<glyph unicode="&#xaf;" d="M86 586v86h327v-86h-327z" />
<glyph unicode="&#xb0;" d="M251 336q-71 0 -121.5 50t-50.5 121q0 72 50.5 122.5t121.5 50.5q72 0 121.5 -50.5t49.5 -123.5q0 -70 -50.5 -120t-120.5 -50zM250 414q36 0 63.5 27.5t27.5 63.5q0 40 -27 68.5t-65 28.5q-35 0 -62 -28.5t-27 -65.5q0 -38 26.5 -66t63.5 -28z" />
<glyph unicode="&#xb1;" d="M198 128v196h-200v98h200v205h102v-205h202v-98h-202v-196h-102zM-2 -8v98h504v-98h-504z" />
<glyph unicode="&#xb2;" horiz-adv-x="575" d="M24 266q4 115 62.5 164.5t223.5 81.5q59 12 59 34q0 30 -66 30q-43 0 -63.5 -12t-25.5 -41h-186q7 80 71 117.5t195 37.5q257 0 257 -142q0 -76 -80 -105q-44 -16 -144 -29q-58 -8 -78.5 -13.5t-45.5 -20.5h339v-102h-518z" />
<glyph unicode="&#xb3;" horiz-adv-x="575" d="M215 550h-182q5 37 20 59t47 38q60 31 200 31q239 0 239 -120q0 -27 -13.5 -42.5t-48.5 -28.5q41 -14 59.5 -36t18.5 -57q0 -67 -68 -102.5t-197 -35.5q-139 0 -198.5 32.5t-67.5 113.5h182q6 -26 24 -35.5t58 -9.5q85 0 85 42q0 19 -13 25.5t-52 6.5h-51v97h35 q13 0 24.5 0.5t17.5 1t7 0.5q16 6 16 20q0 31 -65 31q-35 0 -52 -7t-25 -24z" />
<glyph unicode="&#xb4;" d="M67 544l63 126h304l-139 -126h-228z" />
<glyph unicode="&#xb5;" d="M12 -174v654h184v-232q0 -44 3 -59q4 -19 20 -31t36 -12q28 0 40 21q13 18 11 34q-2 30 -2 46v233h184v-480h-184v44q-18 -51 -53 -51q-34 0 -55 47v-214h-184z" />
<glyph unicode="&#xb6;" horiz-adv-x="682" d="M264 -113v438q-5 -1 -13 -1q-67 0 -119 39q-57 43 -57 130q0 105 82 148q30 16 60 21t91 5h274v-77h-46v-703h-100v703h-72v-703h-100z" />
<glyph unicode="&#xb7;" horiz-adv-x="325" d="M54 156v209h217v-209h-217z" />
<glyph unicode="&#xb8;" d="M163 -90l46 68h62l-28 -44q24 6 53 6q45 0 72.5 -21t27.5 -55q0 -41 -39.5 -68.5t-100.5 -27.5q-79 0 -152 28l24 48q66 -22 108 -22q48 0 48 37q0 36 -47 36q-16 0 -45 -8z" />
<glyph unicode="&#xb9;" horiz-adv-x="575" d="M231 267v264q-33 -15 -68 -21v94q74 31 108 63h115v-400h-155z" />
<glyph unicode="&#xba;" horiz-adv-x="541" d="M272 254q-126 0 -186.5 41t-60.5 126q0 48 24.5 84t68.5 53q63 23 153 23q246 0 246 -164q0 -106 -93 -140q-63 -23 -152 -23zM271 346q36 0 58 20t22 52t-22 51.5t-58 19.5q-35 0 -57.5 -19.5t-22.5 -50.5q0 -33 22 -53t58 -20z" />
<glyph unicode="&#xbb;" horiz-adv-x="570" d="M283 61l98 196l-98 195h152l100 -195l-100 -196h-152zM43 61l98 196l-98 195h151l101 -195l-101 -196h-151z" />
<glyph unicode="&#xbc;" horiz-adv-x="1258" d="M477 0l233 667h76l-228 -667h-81zM231 267v264q-33 -15 -68 -21v94q74 31 108 63h115v-400h-155zM710 64v109l234 227h213v-222h71v-114h-71v-64h-155v64h-292zM880 178h122v118z" />
<glyph unicode="&#xbd;" horiz-adv-x="1258" d="M477 0l233 667h76l-228 -667h-81zM231 267v264q-33 -15 -68 -21v94q74 31 108 63h115v-400h-155zM707 0q5 115 63 164t223 81q59 12 59 34q0 30 -66 30q-43 0 -63.5 -12t-25.5 -41h-186q7 80 71 117.5t195 37.5q257 0 257 -142q0 -75 -81 -105q-37 -14 -143 -28 q-58 -8 -78.5 -14t-45.5 -20h339v-102h-518z" />
<glyph unicode="&#xbe;" horiz-adv-x="1258" d="M215 550h-182q5 37 20 59t47 38q60 31 200 31q239 0 239 -120q0 -27 -13.5 -42.5t-48.5 -28.5q41 -14 59.5 -36t18.5 -57q0 -67 -68 -102.5t-197 -35.5q-139 0 -198.5 32.5t-67.5 113.5h182q6 -26 24 -35.5t58 -9.5q85 0 85 42q0 19 -13 25.5t-52 6.5h-51v97h35 q13 0 24.5 0.5t17.5 1t7 0.5q16 6 16 20q0 31 -65 31q-35 0 -52 -7t-25 -24zM478 0l232 667h76l-228 -667h-80zM710 64v109l234 227h213v-222h71v-114h-71v-64h-155v64h-292zM880 178h122v118z" />
<glyph unicode="&#xbf;" horiz-adv-x="809" d="M296 290v211h228v-211h-228zM524 50h265q-3 -57 -20.5 -94t-55.5 -67q-95 -76 -306 -76q-180 0 -280 56t-100 156q0 42 20 77t55 53q35 19 136 48q27 7 37.5 15.5t20.5 29.5h228q-6 -68 -33.5 -100.5t-103.5 -62.5q-49 -20 -67 -36t-18 -40q0 -27 26 -42.5t72 -15.5 q61 0 90 23t34 76z" />
<glyph unicode="&#xc0;" horiz-adv-x="857" d="M323 741l-166 128h306l77 -128h-217zM-7 0l267 667h337l267 -667h-279l-28 61h-272l-25 -61h-267zM331 231h176l-86 245z" />
<glyph unicode="&#xc1;" horiz-adv-x="857" d="M327 741l78 128h305l-165 -128h-218zM-7 0l267 667h337l267 -667h-279l-28 61h-272l-25 -61h-267zM331 231h176l-86 245z" />
<glyph unicode="&#xc2;" horiz-adv-x="857" d="M145 742l172 125h266l155 -125h-264l-44 42l-46 -42h-239zM-7 0l267 667h337l267 -667h-279l-28 61h-272l-25 -61h-267zM331 231h176l-86 245z" />
<glyph unicode="&#xc3;" horiz-adv-x="857" d="M115 736q26 71 80.5 105t145.5 34q37 0 146 -15q63 -9 105 -9q39 0 64 21h118q-18 -63 -67 -101q-48 -37 -149 -37q-56 0 -224 17q-26 3 -45 3q-30 0 -47 -18h-127zM-7 0l267 667h337l267 -667h-279l-28 61h-272l-25 -61h-267zM331 231h176l-86 245z" />
<glyph unicode="&#xc4;" horiz-adv-x="857" d="M478 742v126h232v-126h-232zM154 742v126h232v-126h-232zM-7 0l267 667h337l267 -667h-279l-28 61h-272l-25 -61h-267zM331 231h176l-86 245z" />
<glyph unicode="&#xc5;" horiz-adv-x="857" d="M435 707q-56 0 -89 25.5t-33 68.5q0 39 34 63.5t88 24.5q55 0 88.5 -25t33.5 -65q0 -42 -33 -67t-89 -25zM435 764q14 0 24.5 10.5t10.5 25.5q0 14 -10 24.5t-24 10.5q-15 0 -25.5 -10.5t-10.5 -24.5q0 -15 10.5 -25.5t24.5 -10.5zM-7 0l267 667h337l267 -667h-279 l-28 61h-272l-25 -61h-267zM331 231h176l-86 245z" />
<glyph unicode="&#xc6;" horiz-adv-x="1492" d="M-20 0l568 667h889v-170h-495v-74h418v-170h-418v-83h514v-170h-769v107h-315l-89 -107h-303zM509 277h178v212z" />
<glyph unicode="&#xc7;" horiz-adv-x="980" d="M380 -97l56 78q-96 5 -154.5 21t-106.5 50q-138 98 -138 285q0 351 464 351q260 0 370 -100q66 -59 82 -174h-292q-17 57 -53 80.5t-107 23.5q-183 0 -183 -175q0 -88 45 -139q44 -53 140 -53q64 0 100 22.5t58 76.5h292q-7 -131 -122.5 -201t-319.5 -68l-36 -51 q37 7 63 7q53 0 86 -23t33 -60q0 -47 -48 -76t-126 -29q-81 0 -172 31l28 52q78 -24 125 -24q26 0 42 11t16 30q0 38 -60 38q-19 0 -48 -9z" />
<glyph unicode="&#xc8;" horiz-adv-x="888" d="M378 741l-166 128h306l77 -128h-217zM65 0v667h755v-170h-500v-74h414v-170h-414v-83h531v-170h-786z" />
<glyph unicode="&#xc9;" horiz-adv-x="888" d="M325 741l78 128h305l-165 -128h-218zM65 0v667h755v-170h-500v-74h414v-170h-414v-83h531v-170h-786z" />
<glyph unicode="&#xca;" horiz-adv-x="888" d="M160 742l172 125h266l155 -125h-264l-44 42l-46 -42h-239zM65 0v667h755v-170h-500v-74h414v-170h-414v-83h531v-170h-786z" />
<glyph unicode="&#xcb;" horiz-adv-x="888" d="M497 742v126h232v-126h-232zM173 742v126h232v-126h-232zM65 0v667h755v-170h-500v-74h414v-170h-414v-83h531v-170h-786z" />
<glyph unicode="&#xcc;" horiz-adv-x="390" d="M89 741l-166 128h306l77 -128h-217zM67 0v667h255v-667h-255z" />
<glyph unicode="&#xcd;" horiz-adv-x="390" d="M96 741l78 128h305l-165 -128h-218zM67 0v667h255v-667h-255z" />
<glyph unicode="&#xce;" horiz-adv-x="390" d="M-82 742l172 125h266l155 -125h-264l-44 42l-46 -42h-239zM67 0v667h255v-667h-255z" />
<glyph unicode="&#xcf;" horiz-adv-x="390" d="M223 742v126h190v-126h-190zM-9 742v126h190v-126h-190zM68 0v667h255v-667h-255z" />
<glyph unicode="&#xd0;" horiz-adv-x="954" d="M65 0v300h-60v90h60v277h441q129 0 196.5 -17.5t117.5 -63.5q96 -87 96 -262q0 -164 -83 -245q-50 -47 -114 -63t-209 -16h-445zM320 170h123q108 0 144 23q56 36 56 138t-55 141q-22 16 -49 20.5t-99 4.5h-120v-107h126v-90h-126v-130z" />
<glyph unicode="&#xd1;" horiz-adv-x="957" d="M182 736q26 71 80.5 105t145.5 34q37 0 146 -15q63 -9 105 -9q39 0 64 21h118q-18 -63 -67 -101q-48 -37 -149 -37q-56 0 -224 17q-26 3 -45 3q-30 0 -47 -18h-127zM65 0v667h288l209 -253q37 -45 50.5 -67.5t49.5 -97.5h8q-34 96 -34 205v213h255v-667h-280l-220 261 q-50 60 -93 162h-8q30 -89 30 -184v-239h-255z" />
<glyph unicode="&#xd2;" horiz-adv-x="983" d="M395 741l-166 128h306l77 -128h-217zM140 72q-103 84 -103 267q0 172 103 255q117 94 351 94q124 0 206.5 -22t144.5 -72q103 -82 103 -261q0 -181 -110.5 -268t-340.5 -87q-125 0 -208.5 22t-145.5 72zM318 336q0 -188 174 -188q84 0 128 47t44 138t-44 138t-129 47 q-84 0 -128.5 -47t-44.5 -135z" />
<glyph unicode="&#xd3;" horiz-adv-x="983" d="M386 741l78 128h305l-165 -128h-218zM140 72q-103 84 -103 267q0 172 103 255q117 94 351 94q124 0 206.5 -22t144.5 -72q103 -82 103 -261q0 -181 -110.5 -268t-340.5 -87q-125 0 -208.5 22t-145.5 72zM318 336q0 -188 174 -188q84 0 128 47t44 138t-44 138t-129 47 q-84 0 -128.5 -47t-44.5 -135z" />
<glyph unicode="&#xd4;" horiz-adv-x="983" d="M208 742l172 125h266l155 -125h-264l-44 42l-46 -42h-239zM140 72q-103 84 -103 267q0 172 103 255q117 94 351 94q124 0 206.5 -22t144.5 -72q103 -82 103 -261q0 -181 -110.5 -268t-340.5 -87q-125 0 -208.5 22t-145.5 72zM318 336q0 -188 174 -188q84 0 128 47t44 138 t-44 138t-129 47q-84 0 -128.5 -47t-44.5 -135z" />
<glyph unicode="&#xd5;" horiz-adv-x="983" d="M188 736q26 71 80.5 105t145.5 34q37 0 146 -15q63 -9 105 -9q39 0 64 21h118q-18 -63 -67 -101q-48 -37 -149 -37q-56 0 -224 17q-26 3 -45 3q-30 0 -47 -18h-127zM140 72q-103 84 -103 267q0 172 103 255q117 94 351 94q124 0 206.5 -22t144.5 -72q103 -82 103 -261 q0 -181 -110.5 -268t-340.5 -87q-125 0 -208.5 22t-145.5 72zM318 336q0 -188 174 -188q84 0 128 47t44 138t-44 138t-129 47q-84 0 -128.5 -47t-44.5 -135z" />
<glyph unicode="&#xd6;" horiz-adv-x="983" d="M541 742v126h232v-126h-232zM217 742v126h232v-126h-232zM140 72q-103 84 -103 267q0 172 103 255q117 94 351 94q124 0 206.5 -22t144.5 -72q103 -82 103 -261q0 -181 -110.5 -268t-340.5 -87q-125 0 -208.5 22t-145.5 72zM318 336q0 -188 174 -188q84 0 128 47t44 138 t-44 138t-129 47q-84 0 -128.5 -47t-44.5 -135z" />
<glyph unicode="&#xd7;" d="M109 161l-72 73l144 142l-141 140l70 69l139 -141l142 144l73 -72l-144 -142l142 -141l-69 -70l-141 143z" />
<glyph unicode="&#xd8;" horiz-adv-x="976" d="M43 35l75 58q-44 49 -62.5 102.5t-18.5 134.5q0 100 26.5 164.5t85.5 107.5q61 46 139.5 66t194.5 20q207 0 314 -66l77 61l59 -69l-65 -51q38 -43 54 -93.5t16 -130.5q0 -182 -98 -263q-117 -98 -347 -98q-199 0 -302 58l-93 -74zM324 258l285 214q-42 45 -123 45 t-125 -46t-44 -131q0 -46 7 -82zM375 183q40 -34 117 -34q79 0 123 46t44 129q0 23 -6 68z" />
<glyph unicode="&#xd9;" horiz-adv-x="918" d="M357 741l-166 128h306l77 -128h-217zM860 667v-386q0 -82 -18 -133.5t-59 -87.5q-93 -81 -323 -81q-244 0 -335 91q-35 35 -50.5 84.5t-15.5 126.5v386h255v-342q0 -94 34 -135t112 -41t111.5 40.5t33.5 135.5v342h255z" />
<glyph unicode="&#xda;" horiz-adv-x="918" d="M361 741l78 128h305l-165 -128h-218zM860 667v-386q0 -82 -18 -133.5t-59 -87.5q-93 -81 -323 -81q-244 0 -335 91q-35 35 -50.5 84.5t-15.5 126.5v386h255v-342q0 -94 34 -135t112 -41t111.5 40.5t33.5 135.5v342h255z" />
<glyph unicode="&#xdb;" horiz-adv-x="918" d="M176 742l172 125h266l155 -125h-264l-44 42l-46 -42h-239zM860 667v-386q0 -82 -18 -133.5t-59 -87.5q-93 -81 -323 -81q-244 0 -335 91q-35 35 -50.5 84.5t-15.5 126.5v386h255v-342q0 -94 34 -135t112 -41t111.5 40.5t33.5 135.5v342h255z" />
<glyph unicode="&#xdc;" horiz-adv-x="918" d="M516 742v126h232v-126h-232zM192 742v126h232v-126h-232zM860 667v-386q0 -82 -18 -133.5t-59 -87.5q-93 -81 -323 -81q-244 0 -335 91q-35 35 -50.5 84.5t-15.5 126.5v386h255v-342q0 -94 34 -135t112 -41t111.5 40.5t33.5 135.5v342h255z" />
<glyph unicode="&#xdd;" horiz-adv-x="852" d="M331 741l78 128h305l-165 -128h-218zM295 0v168l-308 499h300l141 -247l143 247h295l-315 -499v-168h-256z" />
<glyph unicode="&#xde;" horiz-adv-x="889" d="M65 0v667h255v-80h243q95 0 144 -10t85 -36q74 -56 74 -177q0 -135 -89 -187q-35 -20 -77 -27t-135 -7h-245v-143h-255zM320 304h160q68 0 84 10q29 18 29 60q0 37 -24 50.5t-88 13.5h-161v-134z" />
<glyph unicode="&#xdf;" horiz-adv-x="850" d="M54 0v433q0 75 12 112.5t46 65.5q90 77 311 77q167 0 256 -50t89 -144q0 -49 -22 -75t-73 -39q68 -30 91 -50q54 -49 54 -141q0 -210 -302 -210q-94 0 -178 14v160q63 -15 110 -15q115 0 115 80q0 43 -32 60t-113 17h-53v123h52q100 0 100 57q0 28 -27 43.5t-74 15.5 q-73 0 -107 -38q-26 -30 -26 -104v-392h-229z" />
<glyph unicode="&#xe0;" horiz-adv-x="836" d="M331 544l-139 126h304l63 -126h-228zM563 0l-5 45q-57 -32 -112 -45t-131 -13q-134 0 -209 45.5t-75 127.5q0 86 89 120q113 41 324 46q68 1 87 5.5t19 18.5q0 20 -33.5 32.5t-85.5 12.5q-85 0 -108 -33l-251 -10q13 54 36.5 84t71.5 51q80 36 237 36q244 0 318 -66 q26 -24 36.5 -57t10.5 -94v-195q0 -46 4 -68t17 -43h-240zM552 214v13q-39 -6 -92 -7q-95 -3 -109 -5q-22 -3 -34.5 -14t-12.5 -27q0 -42 92 -42q88 0 122 17.5t34 64.5z" />
<glyph unicode="&#xe1;" horiz-adv-x="836" d="M322 544l63 126h304l-139 -126h-228zM563 0l-5 45q-57 -32 -112 -45t-131 -13q-134 0 -209 45.5t-75 127.5q0 86 89 120q113 41 324 46q68 1 87 5.5t19 18.5q0 20 -33.5 32.5t-85.5 12.5q-85 0 -108 -33l-251 -10q13 54 36.5 84t71.5 51q80 36 237 36q244 0 318 -66 q26 -24 36.5 -57t10.5 -94v-195q0 -46 4 -68t17 -43h-240zM552 214v13q-39 -6 -92 -7q-95 -3 -109 -5q-22 -3 -34.5 -14t-12.5 -27q0 -42 92 -42q88 0 122 17.5t34 64.5z" />
<glyph unicode="&#xe2;" horiz-adv-x="836" d="M148 545l172 125h266l155 -125h-264l-44 43l-46 -43h-239zM563 0l-5 45q-57 -32 -112 -45t-131 -13q-134 0 -209 45.5t-75 127.5q0 86 89 120q113 41 324 46q68 1 87 5.5t19 18.5q0 20 -33.5 32.5t-85.5 12.5q-85 0 -108 -33l-251 -10q13 54 36.5 84t71.5 51 q80 36 237 36q244 0 318 -66q26 -24 36.5 -57t10.5 -94v-195q0 -46 4 -68t17 -43h-240zM552 214v13q-39 -6 -92 -7q-95 -3 -109 -5q-22 -3 -34.5 -14t-12.5 -27q0 -42 92 -42q88 0 122 17.5t34 64.5z" />
<glyph unicode="&#xe3;" horiz-adv-x="836" d="M122 539q26 71 80.5 105t145.5 34q37 0 146 -15q70 -9 105 -9q39 0 64 21h118q-18 -63 -67 -101q-50 -37 -149 -37q-56 0 -224 17q-25 3 -45 3q-29 0 -47 -18h-127zM563 0l-5 45q-57 -32 -112 -45t-131 -13q-134 0 -209 45.5t-75 127.5q0 86 89 120q113 41 324 46 q68 1 87 5.5t19 18.5q0 20 -33.5 32.5t-85.5 12.5q-85 0 -108 -33l-251 -10q13 54 36.5 84t71.5 51q80 36 237 36q244 0 318 -66q26 -24 36.5 -57t10.5 -94v-195q0 -46 4 -68t17 -43h-240zM552 214v13q-39 -6 -92 -7q-95 -3 -109 -5q-22 -3 -34.5 -14t-12.5 -27 q0 -42 92 -42q88 0 122 17.5t34 64.5z" />
<glyph unicode="&#xe4;" horiz-adv-x="836" d="M479 565v119h230v-119h-230zM156 565v119h230v-119h-230zM563 0l-5 45q-57 -32 -112 -45t-131 -13q-134 0 -209 45.5t-75 127.5q0 86 89 120q113 41 324 46q68 1 87 5.5t19 18.5q0 20 -33.5 32.5t-85.5 12.5q-85 0 -108 -33l-251 -10q13 54 36.5 84t71.5 51q80 36 237 36 q244 0 318 -66q26 -24 36.5 -57t10.5 -94v-195q0 -46 4 -68t17 -43h-240zM552 214v13q-39 -6 -92 -7q-95 -3 -109 -5q-22 -3 -34.5 -14t-12.5 -27q0 -42 92 -42q88 0 122 17.5t34 64.5z" />
<glyph unicode="&#xe5;" horiz-adv-x="836" d="M432 566q-56 0 -89 25.5t-33 68.5q0 39 34 63.5t88 24.5q55 0 88.5 -25t33.5 -65q0 -42 -33 -67t-89 -25zM432 623q14 0 24.5 10.5t10.5 24.5q0 15 -10 25.5t-24 10.5q-15 0 -25.5 -10.5t-10.5 -24.5q0 -15 10.5 -25.5t24.5 -10.5zM563 0l-5 45q-57 -32 -112 -45 t-131 -13q-134 0 -209 45.5t-75 127.5q0 86 89 120q113 41 324 46q68 1 87 5.5t19 18.5q0 20 -33.5 32.5t-85.5 12.5q-85 0 -108 -33l-251 -10q13 54 36.5 84t71.5 51q80 36 237 36q244 0 318 -66q26 -24 36.5 -57t10.5 -94v-195q0 -46 4 -68t17 -43h-240zM552 214v13 q-39 -6 -92 -7q-95 -3 -109 -5q-22 -3 -34.5 -14t-12.5 -27q0 -42 92 -42q88 0 122 17.5t34 64.5z" />
<glyph unicode="&#xe6;" horiz-adv-x="1302" d="M1004 146h264q-22 -72 -92 -113q-94 -54 -254 -54q-194 0 -293 50q-89 -50 -251 -50q-164 0 -261 49q-83 42 -83 135q0 86 89 122q93 37 231 37h185q-1 32 -10 43q-23 30 -96 30q-84 0 -107 -33l-251 -10q13 54 37 84t71 51q80 36 225 36q160 0 252 -50q101 50 247 50 q111 0 194 -31.5t121 -89.5q43 -65 48 -207h-488q11 -43 36 -59q35 -22 87 -22q66 0 99 32zM781 322h231q-14 34 -39.5 49t-69.5 15q-49 0 -77.5 -15t-44.5 -49zM539 211h-142q-108 0 -108 -46q0 -41 101 -41q88 0 122 24q26 19 27 63z" />
<glyph unicode="&#xe7;" horiz-adv-x="838" d="M331 -90l47 70q-142 11 -215 44q-67 31 -98 90q-33 62 -33 140q0 72 30 128.5t82 84.5q101 55 287 55q213 0 312 -87q53 -44 67 -134h-264q-30 74 -123 74q-64 0 -100 -33t-36 -92t37 -93.5t101 -34.5q55 0 85 23t43 74h257q-10 -124 -99 -181.5t-271 -59.5l-28 -43 q27 5 52 5q45 0 72.5 -21t27.5 -55q0 -41 -39.5 -68.5t-99.5 -27.5q-79 0 -152 28l23 48q66 -22 108 -22q48 0 48 37t-47 37q-15 0 -45 -9z" />
<glyph unicode="&#xe8;" horiz-adv-x="818" d="M321 544l-139 126h304l63 -126h-228zM525 146h261q-13 -46 -33 -72.5t-58 -46.5q-92 -48 -256 -48q-201 0 -301 59q-49 30 -77.5 88t-28.5 129q0 62 22.5 113t62.5 79q105 75 295 75q123 0 211 -35t125 -98q20 -34 28.5 -77.5t9.5 -122.5h-501q13 -42 41 -58 q38 -20 102 -20q38 0 58.5 7.5t38.5 27.5zM287 316h252q-22 70 -125 70q-102 0 -127 -70z" />
<glyph unicode="&#xe9;" horiz-adv-x="818" d="M309 544l63 126h304l-139 -126h-228zM525 146h261q-13 -46 -33 -72.5t-58 -46.5q-92 -48 -256 -48q-201 0 -301 59q-49 30 -77.5 88t-28.5 129q0 62 22.5 113t62.5 79q105 75 295 75q123 0 211 -35t125 -98q20 -34 28.5 -77.5t9.5 -122.5h-501q13 -42 41 -58 q38 -20 102 -20q38 0 58.5 7.5t38.5 27.5zM287 316h252q-22 70 -125 70q-102 0 -127 -70z" />
<glyph unicode="&#xea;" horiz-adv-x="818" d="M136 545l172 125h266l155 -125h-264l-44 43l-46 -43h-239zM525 146h261q-13 -46 -33 -72.5t-58 -46.5q-92 -48 -256 -48q-201 0 -301 59q-49 30 -77.5 88t-28.5 129q0 62 22.5 113t62.5 79q105 75 295 75q123 0 211 -35t125 -98q20 -34 28.5 -77.5t9.5 -122.5h-501 q13 -42 41 -58q38 -20 102 -20q38 0 58.5 7.5t38.5 27.5zM287 316h252q-22 70 -125 70q-102 0 -127 -70z" />
<glyph unicode="&#xeb;" horiz-adv-x="818" d="M466 565v119h230v-119h-230zM143 565v119h230v-119h-230zM525 146h261q-13 -46 -33 -72.5t-58 -46.5q-92 -48 -256 -48q-201 0 -301 59q-49 30 -77.5 88t-28.5 129q0 62 22.5 113t62.5 79q105 75 295 75q123 0 211 -35t125 -98q20 -34 28.5 -77.5t9.5 -122.5h-501 q13 -42 41 -58q38 -20 102 -20q38 0 58.5 7.5t38.5 27.5zM287 316h252q-22 70 -125 70q-102 0 -127 -70z" />
<glyph unicode="&#xec;" horiz-adv-x="337" d="M54 544l-139 126h304l63 -126h-228zM54 0v501h229v-501h-229z" />
<glyph unicode="&#xed;" horiz-adv-x="337" d="M62 544l63 126h304l-139 -126h-228zM54 0v501h229v-501h-229z" />
<glyph unicode="&#xee;" horiz-adv-x="337" d="M-108 545l172 125h266l155 -125h-264l-44 43l-46 -43h-239zM54 0v501h229v-501h-229z" />
<glyph unicode="&#xef;" horiz-adv-x="337" d="M196 548v119h188v-119h-188zM-34 548v119h188v-119h-188zM54 0v501h229v-501h-229z" />
<glyph unicode="&#xf0;" horiz-adv-x="847" d="M382 713l-64 -42q186 -27 296 -93q201 -121 201 -324q0 -180 -145 -236q-102 -40 -245 -40q-146 0 -246 40q-70 27 -107.5 87.5t-37.5 145.5q0 208 222 255q62 14 126 14q20 0 34 -2q-80 55 -192 75l-130 -86l-36 56l68 45q-30 3 -94 6l41 68q22 2 51 2q13 0 88 -3 l134 88zM289 253q0 -59 37 -94.5t99 -35.5q60 0 97.5 35.5t37.5 92.5q0 56 -37.5 91.5t-97.5 35.5t-98 -35t-38 -90z" />
<glyph unicode="&#xf1;" horiz-adv-x="807" d="M107 539q26 71 80.5 105t145.5 34q37 0 146 -15q70 -9 105 -9q39 0 64 21h118q-18 -63 -67 -101q-50 -37 -149 -37q-56 0 -224 17q-25 3 -45 3q-29 0 -47 -18h-127zM54 0v501h229v-48q59 34 110 47.5t121 13.5q125 0 184 -53q37 -33 49 -88q6 -26 6 -124v-249h-229v207 q0 78 -17 109q-22 38 -92 38q-83 0 -115 -57q-17 -31 -17 -90v-207h-229z" />
<glyph unicode="&#xf2;" horiz-adv-x="845" d="M328 544l-139 126h304l63 -126h-228zM177 19q-145 56 -145 237q0 81 38.5 141.5t106.5 86.5q99 39 246 39q146 0 245 -39q70 -27 107.5 -87.5t37.5 -145.5t-37.5 -145t-107.5 -87q-100 -40 -244 -40q-145 0 -247 40zM287 253q0 -58 37 -93.5t99 -35.5q60 0 97.5 35.5 t37.5 91.5t-37.5 91.5t-97.5 35.5t-98 -35t-38 -90z" />
<glyph unicode="&#xf3;" horiz-adv-x="845" d="M316 544l63 126h304l-139 -126h-228zM177 19q-145 56 -145 237q0 81 38.5 141.5t106.5 86.5q99 39 246 39q146 0 245 -39q70 -27 107.5 -87.5t37.5 -145.5t-37.5 -145t-107.5 -87q-100 -40 -244 -40q-145 0 -247 40zM287 253q0 -58 37 -93.5t99 -35.5q60 0 97.5 35.5 t37.5 91.5t-37.5 91.5t-97.5 35.5t-98 -35t-38 -90z" />
<glyph unicode="&#xf4;" horiz-adv-x="845" d="M149 545l172 125h266l155 -125h-264l-44 43l-46 -43h-239zM177 19q-145 56 -145 237q0 81 38.5 141.5t106.5 86.5q99 39 246 39q146 0 245 -39q70 -27 107.5 -87.5t37.5 -145.5t-37.5 -145t-107.5 -87q-100 -40 -244 -40q-145 0 -247 40zM287 253q0 -58 37 -93.5 t99 -35.5q60 0 97.5 35.5t37.5 91.5t-37.5 91.5t-97.5 35.5t-98 -35t-38 -90z" />
<glyph unicode="&#xf5;" horiz-adv-x="845" d="M116 539q26 71 80.5 105t145.5 34q37 0 146 -15q70 -9 105 -9q39 0 64 21h118q-18 -63 -67 -101q-50 -37 -149 -37q-56 0 -224 17q-26 3 -45 3q-29 0 -47 -18h-127zM177 19q-145 56 -145 237q0 81 38.5 141.5t106.5 86.5q99 39 246 39q146 0 245 -39q70 -27 107.5 -87.5 t37.5 -145.5t-37.5 -145t-107.5 -87q-100 -40 -244 -40q-145 0 -247 40zM287 253q0 -58 37 -93.5t99 -35.5q60 0 97.5 35.5t37.5 91.5t-37.5 91.5t-97.5 35.5t-98 -35t-38 -90z" />
<glyph unicode="&#xf6;" horiz-adv-x="845" d="M482 565v119h230v-119h-230zM159 565v119h230v-119h-230zM177 19q-145 56 -145 237q0 81 38.5 141.5t106.5 86.5q99 39 246 39q146 0 245 -39q70 -27 107.5 -87.5t37.5 -145.5t-37.5 -145t-107.5 -87q-100 -40 -244 -40q-145 0 -247 40zM287 253q0 -58 37 -93.5t99 -35.5 q60 0 97.5 35.5t37.5 91.5t-37.5 91.5t-97.5 35.5t-98 -35t-38 -90z" />
<glyph unicode="&#xf7;" d="M250 466q-29 0 -50 21t-21 50t21 50t51 21q29 0 49.5 -21t20.5 -50t-21 -50t-50 -21zM-2 325v98h504v-98h-504zM179 211q0 29 21 50t51 21q29 0 49.5 -21t20.5 -50t-21 -50t-50 -21t-50 21t-21 50z" />
<glyph unicode="&#xf8;" horiz-adv-x="843" d="M30 14l71 51q-69 66 -69 190q0 135 87 196q104 72 303 72q158 0 251 -42l89 63l40 -56l-65 -47q75 -68 75 -190q0 -131 -75 -190q-103 -82 -318 -82q-159 0 -258 44l-90 -66zM293 209l209 143q-37 26 -81 26q-59 0 -97 -35t-38 -90q0 -20 7 -44zM333 153q42 -29 90 -29 q58 0 96.5 35t38.5 88q0 23 -11 53z" />
<glyph unicode="&#xf9;" horiz-adv-x="807" d="M296 544l-139 126h304l63 -126h-228zM524 0v48q-59 -34 -110.5 -47.5t-120.5 -13.5q-127 0 -184 53q-37 33 -49 88q-6 33 -6 123v250h229v-207q0 -78 17 -109q22 -38 92 -38q84 0 115 56q17 30 17 91v207h229v-501h-229z" />
<glyph unicode="&#xfa;" horiz-adv-x="807" d="M297 544l63 126h304l-139 -126h-228zM524 0v48q-59 -34 -110.5 -47.5t-120.5 -13.5q-127 0 -184 53q-37 33 -49 88q-6 33 -6 123v250h229v-207q0 -78 17 -109q22 -38 92 -38q84 0 115 56q17 30 17 91v207h229v-501h-229z" />
<glyph unicode="&#xfb;" horiz-adv-x="807" d="M120 545l172 125h266l155 -125h-264l-44 43l-46 -43h-239zM524 0v48q-59 -34 -110.5 -47.5t-120.5 -13.5q-127 0 -184 53q-37 33 -49 88q-6 33 -6 123v250h229v-207q0 -78 17 -109q22 -38 92 -38q84 0 115 56q17 30 17 91v207h229v-501h-229z" />
<glyph unicode="&#xfc;" horiz-adv-x="807" d="M460 565v119h230v-119h-230zM137 565v119h230v-119h-230zM524 0v48q-59 -34 -110.5 -47.5t-120.5 -13.5q-127 0 -184 53q-37 33 -49 88q-6 33 -6 123v250h229v-207q0 -78 17 -109q22 -38 92 -38q84 0 115 56q17 30 17 91v207h229v-501h-229z" />
<glyph unicode="&#xfd;" horiz-adv-x="721" d="M263 544l63 126h304l-139 -126h-228zM55 30q60 -29 111 -29q28 0 61 9l-234 491h257l126 -286l114 286h237l-144 -357q-78 -193 -131 -244q-60 -58 -212 -58q-89 0 -185 19v169z" />
<glyph unicode="&#xfe;" horiz-adv-x="843" d="M54 -145v812h229v-213q47 34 92.5 47t117.5 13q132 0 214 -57q103 -73 103 -206q0 -60 -23.5 -113t-65.5 -87q-80 -64 -232 -64q-127 0 -206 52v-184h-229zM282 253q0 -105 137 -105q136 0 136 103t-136 103q-137 0 -137 -101z" />
<glyph unicode="&#xff;" horiz-adv-x="721" d="M417 565v119h230v-119h-230zM94 565v119h230v-119h-230zM55 30q60 -29 111 -29q28 0 61 9l-234 491h257l126 -286l114 286h237l-144 -357q-78 -193 -131 -244q-60 -58 -212 -58q-89 0 -185 19v169z" />
<glyph unicode="&#x152;" horiz-adv-x="1485" d="M1448 0h-547q-78 0 -195 -11q-120 -10 -210 -10q-212 0 -320 66q-67 40 -103 116.5t-36 177.5q0 193 132 276q63 40 138.5 57t187.5 17q104 0 251 -15q69 -7 155 -7h514v-170h-492v-74h413v-170h-413v-83h525v-170zM318 335q0 -186 176 -186q174 0 174 183 q0 186 -175 186t-175 -183z" />
<glyph unicode="&#x153;" horiz-adv-x="1319" d="M1014 141h271q-25 -72 -86 -106q-101 -57 -272 -57q-162 0 -252 54q-51 -28 -88 -36q-80 -18 -171 -18q-177 0 -281 60q-48 29 -75.5 85.5t-27.5 126.5q0 77 31 135t88 87q100 51 275 51q152 0 249 -46q107 46 249 46q223 0 310 -115q26 -36 37.5 -81.5t15.5 -133.5h-501 q15 -42 48 -61t91 -19q60 0 89 28zM790 320h236q-17 37 -43 52t-75 15q-88 0 -118 -67zM288 251q0 -62 34.5 -95.5t98.5 -33.5q62 0 96.5 33.5t34.5 94.5q0 62 -34.5 95.5t-98.5 33.5q-61 0 -96 -34t-35 -94z" />
<glyph unicode="&#x178;" horiz-adv-x="852" d="M476 742v126h232v-126h-232zM152 742v126h232v-126h-232zM295 0v168l-308 499h300l141 -247l143 247h295l-315 -499v-168h-256z" />
<glyph unicode="&#x2c6;" d="M-47 545l172 125h266l155 -125h-264l-44 43l-46 -43h-239z" />
<glyph unicode="&#x2dc;" d="M47 539h-127q26 71 80.5 105t145.5 34q37 0 146 -15q70 -9 105 -9q39 0 64 21h118q-18 -63 -67 -101q-50 -37 -149 -37q-56 0 -224 17q-25 3 -45 3q-29 0 -47 -18z" />
<glyph unicode="&#x2000;" horiz-adv-x="444" />
<glyph unicode="&#x2001;" horiz-adv-x="889" />
<glyph unicode="&#x2002;" horiz-adv-x="444" />
<glyph unicode="&#x2003;" horiz-adv-x="889" />
<glyph unicode="&#x2004;" horiz-adv-x="296" />
<glyph unicode="&#x2005;" horiz-adv-x="222" />
<glyph unicode="&#x2006;" horiz-adv-x="148" />
<glyph unicode="&#x2007;" horiz-adv-x="148" />
<glyph unicode="&#x2008;" horiz-adv-x="111" />
<glyph unicode="&#x2009;" horiz-adv-x="177" />
<glyph unicode="&#x200a;" horiz-adv-x="49" />
<glyph unicode="&#x2010;" horiz-adv-x="386" d="M0 156v203h386v-203h-386z" />
<glyph unicode="&#x2011;" horiz-adv-x="386" d="M0 156v203h386v-203h-386z" />
<glyph unicode="&#x2012;" horiz-adv-x="386" d="M0 156v203h386v-203h-386z" />
<glyph unicode="&#x2013;" horiz-adv-x="804" d="M54 156v203h696v-203h-696z" />
<glyph unicode="&#x2014;" horiz-adv-x="1159" d="M0 156v203h1159v-203h-1159z" />
<glyph unicode="&#x2018;" horiz-adv-x="295" d="M54 407v115q0 69 35 101t136 57l16 -59q-27 -7 -39 -17t-16 -30h55v-167h-187z" />
<glyph unicode="&#x2019;" horiz-adv-x="295" d="M70 394l-16 59q27 7 39 17t16 30h-55v167h187v-115q0 -69 -34.5 -101t-136.5 -57z" />
<glyph unicode="&#x201a;" horiz-adv-x="325" d="M54 0v193h217v-166q0 -50 -17.5 -79t-61.5 -53q-46 -26 -119 -38l-19 72q42 7 61.5 23.5t21.5 47.5h-83z" />
<glyph unicode="&#x201c;" horiz-adv-x="537" d="M296 407v115q0 69 35 101t136 57l16 -59q-27 -7 -39 -17t-16 -30h55v-167h-187zM54 407v115q0 69 35 101t136 57l16 -59q-27 -7 -39 -17t-16 -30h55v-167h-187z" />
<glyph unicode="&#x201d;" horiz-adv-x="537" d="M312 394l-16 59q27 7 39 17.5t16 29.5h-55v167h187v-115q0 -69 -35 -101t-136 -57zM70 394l-16 59q27 7 39 17.5t16 29.5h-55v167h187v-115q0 -69 -35 -101t-136 -57z" />
<glyph unicode="&#x201e;" horiz-adv-x="537" d="M296 0v167h187v-115q0 -69 -35 -101t-136 -57l-16 59q27 7 39 17.5t16 29.5h-55zM54 0v167h187v-115q0 -69 -35 -101t-136 -57l-16 59q27 7 39 17.5t16 29.5h-55z" />
<glyph unicode="&#x2022;" horiz-adv-x="667" d="M335 200q-57 0 -98 40.5t-41 97.5q0 58 41 98.5t100 40.5q55 0 95.5 -41t40.5 -97q0 -58 -40.5 -98.5t-97.5 -40.5z" />
<glyph unicode="&#x2026;" horiz-adv-x="976" d="M705 0v209h217v-209h-217zM379 0v209h217v-209h-217zM54 0v209h217v-209h-217z" />
<glyph unicode="&#x202f;" horiz-adv-x="177" />
<glyph unicode="&#x2039;" horiz-adv-x="330" d="M136 61l-100 195l100 196h152l-98 -196l98 -195h-152z" />
<glyph unicode="&#x203a;" horiz-adv-x="330" d="M43 61l98 196l-98 195h152l100 -195l-100 -196h-152z" />
<glyph unicode="&#x205f;" horiz-adv-x="222" />
<glyph unicode="&#x20ac;" horiz-adv-x="1066" d="M31 242l27 69h60q-1 12 -1 25v19h-86l27 69h68q17 79 64 134q109 130 390 130q268 0 382 -110q58 -54 72 -166h-293q-16 57 -53 81.5t-107 24.5q-129 0 -169 -94h199l-26 -69h-187v-3v-9q0 -19 1 -32h167l-27 -69h-121q40 -93 163 -93q79 0 117 33q23 20 43 67h293 q-8 -73 -34 -117.5t-82 -79.5q-62 -39 -140.5 -56t-197.5 -17q-174 0 -272 44q-147 66 -181 219h-96z" />
<glyph unicode="&#x2122;" horiz-adv-x="1251" d="M550 267v400h267l43 -113q20 -53 20 -86v-11q-2 42 19 97l42 113h265v-400h-166v257q-7 -30 -13 -46l-80 -211h-136l-82 211q-11 38 -13 48v-259h-166zM168 267v293h-157v107h483v-107h-160v-293h-166z" />
</font>
</defs>
</svg>
