<?xml version="1.0" standalone="no"?>
<!DOCTYPE svg PUBLIC "-//W3C//DTD SVG 1.1//EN" "http://www.w3.org/Graphics/SVG/1.1/DTD/svg11.dtd" >
<svg xmlns="http://www.w3.org/2000/svg">
<metadata></metadata>
<defs>
<font id="foundation_sansextended" horiz-adv-x="500" >
<font-face units-per-em="1000" ascent="825" descent="-175" />
<missing-glyph horiz-adv-x="300" />
<glyph unicode="&#xfb01;" horiz-adv-x="563" d="M96 0v413h-76v80h76v59q0 71 31 98t113 27q32 0 68 -5v-84q-24 2 -55 2q-37 0 -48.5 -8.5t-11.5 -36.5v-52h115v-80h-115v-413h-97zM391 564v103h97v-103h-97zM391 0v493h97v-493h-97z" />
<glyph unicode="&#xfb02;" horiz-adv-x="563" d="M96 0v413h-76v80h76v59q0 71 31 98t113 27q32 0 68 -5v-84q-24 2 -55 2q-37 0 -48.5 -8.5t-11.5 -36.5v-52h115v-80h-115v-413h-97zM391 0v667h97v-667h-97z" />
<glyph unicode="&#xfb03;" horiz-adv-x="881" d="M414 0v413h-76v80h76v59q0 71 31 98t113 27q32 0 68 -5v-84q-24 2 -55 2q-37 0 -48.5 -8.5t-11.5 -36.5v-52h115v-80h-115v-413h-97zM96 0v413h-76v80h76v59q0 71 31 98t113 27q32 0 68 -5v-84q-24 2 -55 2q-37 0 -48.5 -8.5t-11.5 -36.5v-52h115v-80h-115v-413h-97z M709 564v103h97v-103h-97zM709 0v493h97v-493h-97z" />
<glyph unicode="&#xfb04;" horiz-adv-x="881" d="M414 0v413h-76v80h76v59q0 71 31 98t113 27q32 0 68 -5v-84q-24 2 -55 2q-37 0 -48.5 -8.5t-11.5 -36.5v-52h115v-80h-115v-413h-97zM96 0v413h-76v80h76v59q0 71 31 98t113 27q32 0 68 -5v-84q-24 2 -55 2q-37 0 -48.5 -8.5t-11.5 -36.5v-52h115v-80h-115v-413h-97z M709 0v667h97v-667h-97z" />
<glyph horiz-adv-x="0" />
<glyph horiz-adv-x="333" />
<glyph unicode=" "  horiz-adv-x="300" />
<glyph unicode="&#x09;" horiz-adv-x="300" />
<glyph unicode="&#xa0;" horiz-adv-x="300" />
<glyph unicode="!" horiz-adv-x="261" d="M99 169l-21 295v203h106v-203l-21 -295h-64zM74 0v110h113v-110h-113z" />
<glyph unicode="&#x22;" horiz-adv-x="367" d="M230 400l-18 267h113l-18 -267h-77zM59 400l-18 267h113l-18 -267h-77z" />
<glyph unicode="#" horiz-adv-x="619" d="M157 35l27 190h-118l7 50h118l15 106h-118l7 51h118l25 175h52l-24 -175h111l24 175h53l-25 -175h123l-7 -51h-123l-15 -106h123l-7 -50h-123l-27 -190h-52l27 190h-112l-26 -190h-53zM243 275h112l15 106h-112z" />
<glyph unicode="$" horiz-adv-x="633" d="M40 229h97q-3 -124 138 -145v214l-4 2q-1 0 -7.5 1.5t-23 4.5t-29.5 6q-154 33 -154 166q0 82 57.5 132.5t160.5 58.5v121h72v-121q110 -7 165.5 -56.5t60.5 -144.5h-93q-1 49 -36 79.5t-97 37.5v-202l61 -12q92 -19 130 -48q56 -43 56 -122q0 -65 -38.5 -115t-106.5 -73 q-39 -12 -102 -16v-120h-72v122q-234 18 -235 230zM275 397v187q-60 -8 -92 -33.5t-32 -64.5q0 -51 61 -74q18 -7 63 -15zM347 81q71 4 110.5 33t39.5 77q0 68 -110 87l-40 7v-204z" />
<glyph unicode="%" horiz-adv-x="922" d="M205 221q-81 0 -126.5 57t-45.5 160q0 101 45.5 158.5t126.5 57.5q82 0 127 -57.5t45 -161.5q0 -100 -46 -157t-126 -57zM281 0l278 647h78l-278 -647h-78zM205 289q95 0 95 146q0 151 -95 151t-95 -148q0 -149 95 -149zM544 210q0 101 45.5 158.5t126.5 57.5 q82 0 127 -57.5t45 -161.5q0 -100 -46 -157t-126 -57q-81 0 -126.5 57t-45.5 160zM621 210q0 -149 95 -149t95 146q0 151 -95 151t-95 -148z" />
<glyph unicode="&#x26;" horiz-adv-x="786" d="M654 0l-88 81q-61 -51 -117.5 -72.5t-127.5 -21.5q-126 0 -203 66q-61 52 -61 136q0 66 40 113.5t130 87.5q-46 50 -59 75t-13 61q0 66 51.5 107t133.5 41q77 0 122.5 -37.5t45.5 -100.5q0 -71 -56 -116q-23 -19 -72 -44l178 -161q23 41 24 105h99q-6 -80 -55 -165 l172 -155h-144zM321 431q94 31 94 95q0 31 -22 49.5t-59 18.5t-59.5 -17.5t-22.5 -45.5q0 -26 12.5 -44.5t56.5 -55.5zM503 138l-214 192q-63 -21 -97.5 -56t-34.5 -76q0 -55 50 -91.5t127 -36.5q107 0 169 68z" />
<glyph unicode="'" horiz-adv-x="199" d="M59 400l-18 267h116l-18 -267h-80z" />
<glyph unicode="(" horiz-adv-x="357" d="M300 -167h-71q-180 198 -180 417q0 221 180 417h71q-81 -101 -116 -197t-35 -220t35 -220t116 -197z" />
<glyph unicode=")" horiz-adv-x="357" d="M57 -167q82 101 116.5 197t34.5 220t-34.5 220t-116.5 197h71q180 -199 180 -417q0 -221 -180 -417h-71z" />
<glyph unicode="*" horiz-adv-x="442" d="M142 323l-54 39l85 110l-133 39l20 64l131 -47l-3 139h66l-4 -139l131 47l21 -64l-133 -39l84 -110l-54 -39l-78 114z" />
<glyph unicode="+" d="M222 125v195h-204v53h204v196h55v-196h204v-53h-204v-195h-55z" />
<glyph unicode="," horiz-adv-x="253" d="M67 0v110h118v-88q0 -135 -113 -166v56q54 19 55 88h-60z" />
<glyph unicode="-" horiz-adv-x="342" d="M0 210v87h342v-87h-342z" />
<glyph unicode="." horiz-adv-x="253" d="M67 0v110h118v-110h-118z" />
<glyph unicode="/" horiz-adv-x="420" d="M13 0l290 667h92l-289 -667h-93z" />
<glyph unicode="0" horiz-adv-x="633" d="M122 68q-75 85 -75 255t75 257q71 80 194 80q124 0 195 -80q75 -87 75 -262q0 -166 -75 -250q-70 -81 -194 -81q-125 0 -195 81zM184 139q19 -31 55 -50t77 -19q42 0 78 18.5t55 50.5q37 62 37 181q0 126 -37 188q-20 32 -55.5 50.5t-77.5 18.5q-41 0 -76.5 -18.5 t-55.5 -50.5q-37 -62 -37 -184q0 -124 37 -185z" />
<glyph unicode="1" horiz-adv-x="633" d="M308 0v468h-180v75q103 1 151 29t50 88h81v-660h-102z" />
<glyph unicode="2" horiz-adv-x="633" d="M55 0q4 88 52.5 147t161.5 117l85 43q62 32 88 56q34 32 34 86q0 59 -40.5 93.5t-109.5 34.5q-84 0 -126 -48q-27 -33 -35 -103h-102q7 95 49 147q70 87 216 87q115 0 183 -56t68 -151q0 -72 -40 -121t-141 -100l-79 -40q-120 -61 -140 -105h396v-87h-520z" />
<glyph unicode="3" horiz-adv-x="633" d="M50 214h99q3 -65 35 -99q43 -46 134 -46q77 0 121.5 33t44.5 91q0 57 -44 84t-136 27h-45v80h46q66 0 98 12q25 9 40 31t15 49q0 47 -38 73.5t-105 26.5q-87 0 -124 -45q-22 -26 -29 -88h-96q7 95 57 148q65 69 197 69q107 0 172.5 -48t65.5 -126q0 -80 -84 -134 q110 -49 110 -156q0 -95 -74.5 -152.5t-197.5 -57.5q-125 0 -192 58t-70 170z" />
<glyph unicode="4" horiz-adv-x="633" d="M44 159v86l354 415h85v-418h107v-83h-107v-159h-97v159h-342zM146 242h240v282z" />
<glyph unicode="5" horiz-adv-x="633" d="M49 176h98q11 -43 32 -63q45 -43 132 -43q80 0 125.5 38t45.5 105q0 65 -45.5 103t-124.5 38q-105 0 -149 -65h-95l61 358h409v-87h-334l-30 -170q75 44 160 44q112 0 181.5 -59.5t69.5 -155.5q0 -106 -75 -169t-200 -63q-115 0 -184.5 50.5t-76.5 138.5z" />
<glyph unicode="6" horiz-adv-x="633" d="M149 350v-4q45 46 93 66.5t112 20.5q108 0 174 -58.5t66 -154.5q0 -103 -73.5 -168t-189.5 -65q-134 0 -206.5 85t-72.5 243q0 166 76 255.5t216 89.5q101 0 162 -46q50 -38 69 -117h-101q-15 43 -45.5 61t-88.5 18q-79 0 -122 -38q-30 -26 -48.5 -69.5t-19.5 -88.5v-14 v-12zM164 210q0 -64 45 -102t120 -38q74 0 119.5 38t45.5 100q0 65 -45 103.5t-121 38.5q-74 0 -119 -38t-45 -102z" />
<glyph unicode="7" horiz-adv-x="633" d="M186 0q38 156 118.5 307.5t178.5 252.5h-416v87h506v-87q-227 -278 -275 -560h-112z" />
<glyph unicode="8" horiz-adv-x="633" d="M43 188q0 71 44 118q23 24 77 50q-95 39 -95 134q0 80 65.5 125t182.5 45t182.5 -45t65.5 -125q0 -95 -95 -134q53 -24 77 -50q44 -47 44 -118q0 -95 -72 -148t-202 -53t-202 53t-72 148zM317 391q148 0 148 91q0 95 -149 95q-147 0 -147 -93t148 -93zM143 191 q0 -59 44.5 -90t129.5 -31q83 0 128.5 31t45.5 88q0 122 -175 122q-84 0 -128.5 -31t-44.5 -89z" />
<glyph unicode="9" horiz-adv-x="633" d="M58 149h101q15 -43 46 -61t88 -18q79 0 122 38q31 27 50 71t18 87q0 24 2 34q-46 -46 -94 -66.5t-111 -20.5q-108 0 -174.5 59t-66.5 154q0 103 73.5 168.5t189.5 65.5q134 0 206.5 -85t72.5 -243q0 -167 -75.5 -256t-216.5 -89q-101 0 -162 46q-27 21 -43 47t-26 69z M305 296q74 0 119 38t45 102t-45 102t-120 38q-74 0 -119.5 -38t-45.5 -100q0 -65 45 -103.5t121 -38.5z" />
<glyph unicode=":" horiz-adv-x="253" d="M67 383v110h118v-110h-118zM67 0v110h118v-110h-118z" />
<glyph unicode=";" horiz-adv-x="253" d="M67 383v110h118v-110h-118zM67 0v110h118v-88q0 -135 -113 -166v56q54 19 55 88h-60z" />
<glyph unicode="&#x3c;" d="M33 291v90l433 213v-105l-321 -153l321 -154v-104z" />
<glyph unicode="=" d="M18 394v51h464v-51h-464zM18 249v52h464v-52h-464z" />
<glyph unicode="&#x3e;" d="M34 78v105l321 153l-320 154l-1 104l433 -214v-89z" />
<glyph unicode="?" horiz-adv-x="558" d="M219 161q-1 67 17 98t89 82q60 42 81.5 71.5t21.5 68.5q0 53 -38 85t-101 32q-74 0 -114 -37t-42 -107h-103q0 62 21 104q28 56 93 89t147 33q107 0 172 -53.5t65 -141.5q0 -58 -27.5 -100.5t-94.5 -87.5q-55 -37 -72 -58t-17 -52q0 -16 1 -26h-99zM213 0v110h113v-110 h-113z" />
<glyph unicode="@" horiz-adv-x="684" d="M605 168h42q-37 -79 -117 -127.5t-174 -48.5q-138 0 -234 96.5t-96 234.5q0 140 97 237.5t237 97.5q125 0 212 -80t87 -195t-87 -185q-61 -50 -122 -50q-56 0 -69 51q-54 -51 -106 -51q-48 0 -78.5 34t-30.5 89q0 86 59 158t130 72q64 0 93 -59l16 44h55l-80 -236 q-9 -26 -9 -40q0 -30 35 -30q47 0 95 50q61 63 61 151q0 101 -75.5 171t-184.5 70q-124 0 -209 -86.5t-85 -212.5q0 -123 84.5 -208.5t206.5 -85.5q76 0 143.5 38t103.5 101zM392 287l23 63q12 35 12 53q0 27 -16.5 46t-40.5 19q-52 0 -98 -68.5t-46 -145.5q0 -34 16 -54.5 t42 -20.5q38 0 67 32q21 23 41 76z" />
<glyph unicode="A" horiz-adv-x="751" d="M7 0l310 667h116l312 -667h-124l-87 192h-323l-87 -192h-117zM249 279h246l-124 273z" />
<glyph unicode="B" horiz-adv-x="750" d="M82 0v667h332q117 0 171 -25q38 -18 60 -58t22 -91q0 -91 -83 -137q111 -46 111 -160q0 -58 -27.5 -104t-74.5 -67q-57 -25 -174 -25h-337zM185 390h254q67 0 98.5 23t31.5 72t-31.5 72t-98.5 23h-254v-190zM185 87h269q69 0 100 23q38 29 38 85q0 57 -38 85 q-31 23 -100 23h-269v-216z" />
<glyph unicode="C" horiz-adv-x="791" d="M650 263h104q-19 -110 -81 -179q-92 -101 -261 -101q-164 0 -260.5 94.5t-96.5 255.5t97.5 256t261.5 95t255 -93q59 -61 79 -163h-104q-12 58 -45 95q-66 74 -186 74q-115 0 -185 -72.5t-70 -191.5q0 -117 71.5 -190t184.5 -73q125 0 192 84q31 40 44 109z" />
<glyph unicode="D" horiz-adv-x="779" d="M82 0v667h298q147 0 223 -49q121 -80 121 -286q0 -184 -101 -270q-42 -35 -94.5 -48.5t-149.5 -13.5h-297zM185 93h203q64 0 101 9.5t64 33.5q68 60 68 197q0 138 -68 198q-27 24 -64 33.5t-101 9.5h-203v-481z" />
<glyph unicode="E" horiz-adv-x="687" d="M82 0v667h546v-93h-443v-187h417v-93h-417v-201h452v-93h-555z" />
<glyph unicode="F" horiz-adv-x="620" d="M82 0v667h518v-93h-415v-188h364v-93h-364v-293h-103z" />
<glyph unicode="G" horiz-adv-x="829" d="M683 0l-14 91q-57 -58 -117.5 -83t-142.5 -25q-158 0 -256 96.5t-98 251.5q0 158 102 255.5t267 97.5q160 0 254 -91q53 -53 76 -138h-109q-21 59 -63 92q-67 50 -160 50q-119 0 -191.5 -71.5t-72.5 -188.5q0 -121 72.5 -194t192.5 -73q130 0 200 87q34 44 46 114h-219 v93h311v-364h-78z" />
<glyph unicode="H" horiz-adv-x="778" d="M82 0v667h103v-266h408v266h103v-667h-103v314h-408v-314h-103z" />
<glyph unicode="I" horiz-adv-x="267" d="M82 0v667h103v-667h-103z" />
<glyph unicode="J" horiz-adv-x="566" d="M23 227h101q1 -78 24 -112q31 -45 105 -45q75 0 104 45q23 35 23 112v440h103v-437q0 -72 -9 -107.5t-35 -67.5q-58 -72 -186 -72q-110 0 -170 57.5t-60 162.5v24z" />
<glyph unicode="K" horiz-adv-x="722" d="M82 0v667h103v-330l377 330h143l-321 -273l332 -394h-138l-273 327l-120 -101v-226h-103z" />
<glyph unicode="L" horiz-adv-x="626" d="M82 0v667h103v-574h417v-93h-520z" />
<glyph unicode="M" horiz-adv-x="993" d="M82 0v667h148l267 -564l271 564h143v-667h-103v548l-269 -548h-92l-262 548v-548h-103z" />
<glyph unicode="N" horiz-adv-x="835" d="M82 0v667h129l439 -538v538h103v-667h-124l-444 543v-543h-103z" />
<glyph unicode="O" horiz-adv-x="860" d="M55 334q0 157 103 253.5t271 96.5q172 0 274.5 -96.5t102.5 -258.5q0 -71 -26.5 -136t-73.5 -111q-102 -99 -276 -99q-169 0 -272 96.5t-103 254.5zM158 334q0 -119 75 -191.5t197 -72.5t197.5 72t75.5 188q0 122 -74 194.5t-199 72.5q-122 0 -197 -72.5t-75 -190.5z" />
<glyph unicode="P" horiz-adv-x="693" d="M82 0v667h362q102 0 158.5 -52t56.5 -146q0 -91 -57 -144.5t-154 -53.5h-263v-271h-103zM185 358h233q69 0 100 24q38 29 38 87q0 59 -38 87q-31 24 -100 24h-233v-222z" />
<glyph unicode="Q" horiz-adv-x="860" d="M729 -64l-109 87q-86 -40 -190 -40q-169 0 -272 96.5t-103 254.5t103.5 254t272.5 96t272 -96t103 -254q0 -80 -29 -148.5t-83 -114.5l87 -69zM520 210l97 -78q86 75 86 201q0 119 -75 191.5t-197 72.5q-123 0 -198 -72.5t-75 -190.5t74.5 -191t196.5 -73q59 0 110 17 l-72 57z" />
<glyph unicode="R" horiz-adv-x="750" d="M82 0v667h368q223 0 223 -187q0 -54 -21.5 -89.5t-72.5 -66.5q52 -25 67 -62.5t20 -152.5q2 -53 10 -70t29 -17h2v-22h-128q-11 44 -17 133q-5 84 -33.5 116t-96.5 32h-247v-281h-103zM185 368h256q57 0 86 16q43 25 43 90t-43 90q-29 16 -86 16h-256v-212z" />
<glyph unicode="S" horiz-adv-x="712" d="M319 397l137 -24q100 -18 144 -50q62 -45 62 -128q0 -52 -27 -96.5t-74 -71.5q-75 -44 -196 -44q-193 0 -267 89q-25 30 -35.5 63.5t-12.5 89.5h107q1 -69 39 -103q55 -52 173 -52q86 0 136 31t50 84q0 37 -29 59t-92 32l-127 21q-98 17 -151 41q-40 19 -63.5 58.5 t-23.5 87.5q0 93 75.5 146.5t207.5 53.5q138 0 210 -53q37 -28 54 -63t23 -95h-104q-4 55 -41 84q-50 40 -143 40q-80 0 -129.5 -29t-49.5 -76q0 -43 42 -65q30 -17 105 -30z" />
<glyph unicode="T" horiz-adv-x="629" d="M262 0v574h-255v93h615v-93h-257v-574h-103z" />
<glyph unicode="U" horiz-adv-x="786" d="M704 667v-432q0 -126 -91 -192q-83 -60 -220 -60q-149 0 -234 71q-77 67 -77 181v432h103v-428q0 -80 55 -124.5t153 -44.5t153 44.5t55 124.5v428h103z" />
<glyph unicode="V" horiz-adv-x="728" d="M303 0l-296 667h127l230 -548l240 548h118l-306 -667h-113z" />
<glyph unicode="W" horiz-adv-x="1072" d="M231 0l-224 667h116l171 -550l187 550h116l188 -550l176 550h105l-225 -667h-113l-191 554l-187 -554h-119z" />
<glyph unicode="X" horiz-adv-x="708" d="M15 0l273 343l-258 324h136l190 -243l190 243h127l-254 -321l274 -346h-132l-209 265l-206 -265h-131z" />
<glyph unicode="Y" horiz-adv-x="692" d="M294 0v277l-294 390h133l215 -302l217 302h126l-294 -390v-277h-103z" />
<glyph unicode="Z" horiz-adv-x="679" d="M37 0v92l479 482h-448v93h580v-96l-470 -478h470v-93h-611z" />
<glyph unicode="[" horiz-adv-x="351" d="M73 -167v834h218v-80h-125v-674h125v-80h-218z" />
<glyph unicode="\" horiz-adv-x="420" d="M314 0l-289 667h92l290 -667h-93z" />
<glyph unicode="]" horiz-adv-x="351" d="M60 -87h125v674h-125v80h218v-834h-218v80z" />
<glyph unicode="^" d="M25 365l166 304h118l165 -304h-96l-129 233l-128 -233h-96z" />
<glyph unicode="_" d="M0 -65h500v-66h-500v66z" />
<glyph unicode="`" d="M225 548l-120 129h132l64 -129h-76z" />
<glyph unicode="a" horiz-adv-x="621" d="M612 67v-66q-25 -8 -51 -8q-46 0 -70 16.5t-38 57.5q-85 -81 -211 -81q-89 0 -140.5 39t-51.5 107q0 107 121 136q16 4 182 23q55 6 77.5 20t22.5 42q0 76 -133 76q-79 0 -114.5 -22.5t-40.5 -76.5h-97q7 65 34 99q62 77 214 77q121 0 181 -41q48 -32 48 -117v-219 q0 -36 10 -50t35 -13zM453 206v40q-79 -25 -189 -36q-65 -7 -89.5 -22t-24.5 -49q0 -76 119 -76q96 0 149 50q21 20 28 39t7 54z" />
<glyph unicode="b" horiz-adv-x="675" d="M74 0v667h97v-240q49 43 93.5 61.5t101.5 18.5q112 0 186 -73.5t74 -186.5t-73.5 -187t-186.5 -74q-57 0 -101.5 18.5t-93.5 61.5v-66h-97zM162 250q0 -82 49.5 -132t131.5 -50t132.5 49.5t50.5 129.5q0 79 -50.5 128.5t-131.5 49.5q-80 0 -131 -49t-51 -126z" />
<glyph unicode="c" horiz-adv-x="610" d="M476 179h95q-19 -92 -84.5 -142t-166.5 -50q-127 0 -199 68.5t-72 188.5q0 121 73 191.5t198 70.5q98 0 163 -46t84 -129h-94q-34 99 -151 99q-83 0 -129.5 -48.5t-46.5 -133.5q0 -86 47 -135t130 -49q119 0 153 115z" />
<glyph unicode="d" horiz-adv-x="675" d="M503 0v66q-50 -43 -94.5 -61t-100.5 -18q-112 0 -186 73.5t-74 186.5t74 186.5t186 73.5q56 0 101 -18.5t94 -61.5v240h97v-667h-97zM148 247q0 -79 50.5 -128.5t131.5 -49.5q80 0 131 49t51 126q0 82 -50 131.5t-131 49.5q-82 0 -132.5 -49t-50.5 -129z" />
<glyph unicode="e" horiz-adv-x="650" d="M486 154h105q-73 -167 -268 -167q-123 0 -198.5 71t-75.5 186q0 116 77 189t199 73q88 0 155 -39.5t96 -107.5q24 -59 24 -141h-457q8 -71 58.5 -112.5t130.5 -41.5q116 0 154 90zM146 294h355q-16 65 -62.5 100.5t-114.5 35.5t-114.5 -35.5t-63.5 -100.5z" />
<glyph unicode="f" horiz-adv-x="318" d="M96 0v413h-76v80h76v59q0 71 31 98t113 27q32 0 68 -5v-84q-24 2 -55 2q-37 0 -48.5 -8.5t-11.5 -36.5v-52h115v-80h-115v-413h-97z" />
<glyph unicode="g" horiz-adv-x="671" d="M73 -21h108q7 -40 42 -58t104 -18q92 0 135 36.5t43 115.5v27q-50 -44 -95 -62.5t-103 -18.5q-116 0 -187 69.5t-71 181.5q0 113 73.5 183.5t191.5 70.5q109 0 191 -75v62h92v-413q0 -75 -11 -114t-41 -69q-70 -70 -219 -70q-238 0 -253 152zM146 254q0 -77 50 -124 t132 -47q80 0 130.5 46.5t50.5 120.5q0 79 -49 126.5t-131 47.5q-83 0 -133 -46.5t-50 -123.5z" />
<glyph unicode="h" horiz-adv-x="637" d="M74 0v667h97v-244q47 46 89.5 64.5t102.5 18.5q96 0 153 -51q47 -41 47 -141v-314h-97v307q0 37 -7 55.5t-27 34.5q-33 27 -88 27q-71 0 -122 -40.5t-51 -96.5v-287h-97z" />
<glyph unicode="i" horiz-adv-x="245" d="M74 564v103h97v-103h-97zM74 0v493h97v-493h-97z" />
<glyph unicode="j" horiz-adv-x="247" d="M76 564v103h97v-103h-97zM76 31v462h97v-462q0 -74 -3 -92q-18 -106 -157 -106q-12 0 -44 3v80l27 -1q55 -1 72 31q8 16 8 85z" />
<glyph unicode="k" horiz-adv-x="601" d="M74 0v667h97v-380l253 206h142l-235 -187l263 -306h-131l-207 246l-85 -67v-179h-97z" />
<glyph unicode="l" horiz-adv-x="245" d="M74 0v667h97v-667h-97z" />
<glyph unicode="m" horiz-adv-x="992" d="M74 0v493h97v-71q80 84 187 84q120 0 172 -91q46 50 90 70.5t104 20.5q111 0 163 -68q18 -25 24.5 -56t6.5 -95v-287h-97v285q0 46 -5 65.5t-20 36.5q-34 37 -98 37q-70 0 -112.5 -36.5t-42.5 -96.5v-291h-97v288q0 49 -4.5 68t-20.5 35q-35 33 -95 33q-64 0 -110 -35 q-45 -35 -45 -103v-286h-97z" />
<glyph unicode="n" horiz-adv-x="637" d="M74 0v493h97v-70q48 47 90 65t102 18q96 0 153 -51q47 -41 47 -141v-314h-97v307q0 37 -7 55.5t-27 34.5q-33 27 -88 27q-71 0 -122 -40.5t-51 -96.5v-287h-97z" />
<glyph unicode="o" horiz-adv-x="673" d="M49 247q0 115 80.5 187t209.5 72q126 0 205 -73.5t79 -190.5q0 -111 -81 -183t-206 -72q-126 0 -206.5 72.5t-80.5 187.5zM149 247q0 -82 51.5 -132.5t135.5 -50.5q82 0 134.5 50t52.5 129q0 84 -51 135t-134 51q-86 0 -137.5 -50t-51.5 -132z" />
<glyph unicode="p" horiz-adv-x="675" d="M171 66v-239h-97v666h97v-66q50 43 94.5 61t100.5 18q112 0 186 -74t74 -186t-74 -186t-186 -74q-57 0 -101.5 18.5t-93.5 61.5zM162 249q0 -82 49.5 -131.5t131.5 -49.5t132.5 49t50.5 129q0 79 -50.5 128.5t-131.5 49.5q-80 0 -131 -49t-51 -126z" />
<glyph unicode="q" horiz-adv-x="675" d="M503 -173v239q-49 -43 -94 -61t-101 -18q-112 0 -186 73.5t-74 186.5t74 186.5t186 73.5q57 0 101.5 -18.5t93.5 -61.5v66h97v-666h-97zM148 247q0 -79 50.5 -128.5t131.5 -49.5q80 0 131 49t51 126q0 81 -50 131t-131 50q-82 0 -132.5 -49t-50.5 -129z" />
<glyph unicode="r" horiz-adv-x="416" d="M74 0v493h97v-73q44 51 77.5 68.5t85.5 17.5q25 0 60 -5v-97q-36 9 -65 9q-76 0 -123 -49q-20 -21 -27.5 -41t-7.5 -53v-270h-97z" />
<glyph unicode="s" horiz-adv-x="584" d="M41 160h101q11 -96 158 -96q70 0 108 18.5t38 53.5q0 32 -30 45q-19 8 -122 24q-111 18 -153 34q-36 14 -57 45t-21 70q0 71 61.5 111.5t170.5 40.5t166.5 -41t66.5 -126h-98q-6 47 -39.5 68.5t-100.5 21.5q-59 0 -94.5 -18t-35.5 -48q0 -14 10 -26.5t27 -18.5 q21 -8 120 -24q100 -15 129.5 -22.5t51.5 -23.5q48 -34 48 -102q0 -77 -63.5 -118t-183.5 -41t-182 41.5t-76 131.5z" />
<glyph unicode="t" horiz-adv-x="318" d="M302 78v-81q-52 -7 -79 -7q-74 0 -108 32q-15 14 -20 35t-5 69v287h-64v80h64v137h97v-137h115v-80h-115v-284q0 -34 12.5 -45t49.5 -11q24 0 53 5z" />
<glyph unicode="u" horiz-adv-x="637" d="M466 0v70q-48 -47 -90 -65t-102 -18q-96 0 -153 51q-47 41 -47 141v314h97v-307q0 -37 7 -55.5t27 -34.5q33 -27 88 -27q71 0 122 40.5t51 96.5v287h97v-493h-97z" />
<glyph unicode="v" horiz-adv-x="573" d="M235 0l-225 493h115l162 -383l167 383h109l-230 -493h-98z" />
<glyph unicode="w" horiz-adv-x="849" d="M197 0l-187 493h103l134 -382l127 382h110l120 -382l133 382h102l-187 -493h-100l-127 382l-128 -382h-100z" />
<glyph unicode="x" horiz-adv-x="589" d="M7 0l221 254l-214 239h129l148 -167l145 167h123l-208 -235l232 -258h-130l-164 185l-160 -185h-122z" />
<glyph unicode="y" horiz-adv-x="577" d="M78 -78q40 -7 67 -7q38 0 61 18.5t36 59.5l-232 500h114l169 -400l165 400h109l-242 -531q-34 -74 -71.5 -101.5t-106.5 -27.5q-28 0 -69 8v81z" />
<glyph unicode="z" horiz-adv-x="563" d="M43 0v87l352 326h-333v80h467v-80l-353 -326h357v-87h-490z" />
<glyph unicode="{" d="M178 -40v153q0 43 -13 64t-44 29v82q31 8 44 29t13 60v165q0 75 36 107q20 17 50 23.5t93 6.5q11 0 20 -1v-94q-57 -1 -76 -18.5t-19 -69.5v-135q0 -48 -12 -73t-44 -43q31 -18 43.5 -44t12.5 -74v-134q0 -54 19 -72.5t76 -18.5v-89q-9 -1 -20 -1q-67 0 -96 6t-48 25 q-35 35 -35 117z" />
<glyph unicode="|" d="M197 -167v834h105v-834h-105z" />
<glyph unicode="}" d="M122 -93q58 1 77 18.5t19 69.5v135q0 48 12 73t44 43q-31 18 -43.5 44t-12.5 74v134q0 54 -19 72.5t-77 18.5v89q9 1 20 1q68 0 97 -6t48 -25q35 -35 35 -117v-153q0 -43 12.5 -64t43.5 -29v-82q-56 -15 -56 -89v-165q0 -75 -36 -107q-20 -18 -49.5 -24t-93.5 -6 q-12 0 -21 1v94z" />
<glyph unicode="~" horiz-adv-x="667" d="M148 570l-54 43q53 122 141 122q37 0 114 -37q66 -31 87 -31q47 0 85 70l54 -43q-27 -62 -63 -91t-87 -29q-19 0 -39 7t-77 34q-53 25 -79 25q-44 0 -82 -70z" />
<glyph unicode="&#xa1;" horiz-adv-x="261" d="M74 383v110h113v-110h-113zM78 29l21 295h64l21 -295v-202h-106v202z" />
<glyph unicode="&#xa2;" horiz-adv-x="633" d="M288 -35v110q-66 9 -108 30q-58 28 -91 88.5t-33 137.5q0 111 60.5 178.5t171.5 81.5v109h72v-108q86 -8 142.5 -54.5t71.5 -120.5h-94q-25 83 -120 97v-362q98 14 123 113h96q-16 -82 -75 -132.5t-144 -57.5v-110h-72zM288 154v359q-65 -12 -100 -58.5t-35 -121.5 q0 -74 34.5 -120t100.5 -59z" />
<glyph unicode="&#xa3;" horiz-adv-x="633" d="M47 55q55 37 78 71t23 76q0 37 -23 82h-78v61h53q-27 60 -27 101q0 94 74 154t189 60q148 0 211 -88q28 -40 39 -121h-97q-18 125 -156 125q-70 0 -115 -38.5t-45 -98.5q0 -45 21 -94h201v-61h-177q18 -45 18 -71q0 -57 -71 -133q45 14 83 14q45 0 132 -22q23 -5 48 -5 q56 0 130 42l28 -75q-68 -47 -148 -47q-38 0 -124 21q-48 12 -100 12q-70 0 -127 -33z" />
<glyph unicode="&#xa4;" horiz-adv-x="697" d="M59 108l94 96q-44 65 -44 137q0 62 46 137l-98 97l55 55l99 -98q44 27 72.5 36.5t65.5 9.5q36 0 63.5 -9t71.5 -36l98 96l55 -55l-96 -95q47 -70 47 -140q0 -62 -45 -135l96 -96l-54 -55l-96 95q-67 -46 -136 -46q-66 0 -144 46l-96 -95zM202 341q0 -61 43 -104.5 t104 -43.5t104 43.5t43 104.5t-43 104.5t-102 43.5q-62 0 -105.5 -43t-43.5 -105z" />
<glyph unicode="&#xa5;" horiz-adv-x="633" d="M269 0v277h-146v61h102l-91 126h-111v61h67l-102 142h134l94 -142h215l96 142h126l-103 -142h68v-61h-112l-90 -126h102v-61h-146v-277h-103zM323 365l67 99h-133z" />
<glyph unicode="&#xa6;" d="M197 326v341h105v-341h-105zM197 153h105v-320h-105v320z" />
<glyph unicode="&#xa7;" horiz-adv-x="691" d="M102 14h100q3 -38 24 -59q44 -41 125 -41q54 0 86 20t32 53q0 28 -17 45t-66 36l-183 73q-71 29 -102.5 63.5t-31.5 84.5q0 85 101 136q-40 48 -40 96q0 82 77 124q50 29 144 29q210 0 216 -173h-94q0 49 -30.5 71t-99.5 22q-115 0 -115 -68q0 -26 23.5 -44.5t91.5 -45.5 l158 -63q62 -25 91 -59.5t29 -84.5q0 -60 -41 -98q-22 -18 -53 -38q40 -41 40 -96q0 -74 -59.5 -118.5t-159.5 -44.5q-109 0 -172 46t-74 134zM228 230l178 -70q21 -9 67 -29q57 29 57 78q0 28 -19 46.5t-66 37.5l-155 62q-41 16 -67 30q-63 -27 -63 -79q0 -50 68 -76z" />
<glyph unicode="&#xa8;" d="M311 560v107h102v-107h-102zM87 560v107h102v-107h-102z" />
<glyph unicode="&#xa9;" horiz-adv-x="778" d="M44 333q0 145 101.5 245.5t248.5 100.5q139 0 239.5 -102t100.5 -244q0 -143 -101 -244t-244 -101t-244 101t-101 244zM96 333q0 -122 86 -209.5t207 -87.5t206.5 87t85.5 210q0 122 -85 210t-203 88q-125 0 -211 -86.5t-86 -211.5zM520 296h52q-6 -74 -55.5 -119 t-124.5 -45q-85 0 -138 56t-53 147q0 90 53.5 146.5t139.5 56.5q69 0 118 -39.5t54 -99.5h-51q-9 39 -41.5 61t-79.5 22q-58 0 -93 -40.5t-35 -107.5q0 -66 34.5 -106t92.5 -40q52 0 86 29t41 79z" />
<glyph unicode="&#xaa;" horiz-adv-x="403" d="M392 313v-45q-17 -6 -35 -6q-53 0 -70 41q-51 -45 -128 -45q-58 0 -91 24t-33 66q0 53 49 74q27 12 101 19q66 7 83 13t17 23q0 43 -79 43q-48 0 -68.5 -13.5t-23.5 -45.5h-68q6 58 44 84.5t114 26.5q75 0 114 -24q32 -21 32 -73v-129q0 -20 5.5 -28t18.5 -7q4 0 18 2z M285 391v19q-48 -14 -113 -20q-39 -4 -53 -12t-14 -26q0 -42 70 -42q58 0 90 29q20 19 20 52z" />
<glyph unicode="&#xab;" horiz-adv-x="472" d="M247 207v93l174 128v-97l-104 -78l104 -77v-97zM40 207v93l174 128v-97l-104 -78l104 -77v-97z" />
<glyph unicode="&#xac;" d="M33 190v92h433v-282h-102v190h-331z" />
<glyph unicode="&#xad;" horiz-adv-x="342" d="M0 210v87h342v-87h-342z" />
<glyph unicode="&#xae;" horiz-adv-x="778" d="M44 333q0 145 101.5 245.5t248.5 100.5q139 0 239.5 -102t100.5 -244q0 -143 -101 -244t-244 -101t-244 101t-101 244zM96 333q0 -122 86 -209.5t207 -87.5t206.5 87t85.5 210q0 122 -85 210t-203 88q-125 0 -211 -86.5t-86 -211.5zM242 138v390h165q68 0 103.5 -28 t35.5 -80q0 -68 -69 -95q37 -13 49.5 -37.5t14.5 -87.5q1 -44 10 -62h-62q-7 12 -11 74q-4 61 -26 77q-21 15 -67 15h-78v-166h-65zM307 344h81q94 0 94 72q0 70 -86 70h-89v-142z" />
<glyph unicode="&#xaf;" d="M70 582v63h360v-63h-360z" />
<glyph unicode="&#xb0;" d="M251 372q-61 0 -104.5 43t-43.5 105q0 61 43.5 104t104.5 43t103.5 -43.5t42.5 -105.5q0 -60 -43 -103t-103 -43zM250 417q41 0 71.5 30t30.5 70q0 44 -30 74.5t-73 30.5q-41 0 -71 -30.5t-30 -71.5q0 -43 30 -73t72 -30z" />
<glyph unicode="&#xb1;" d="M222 139v191h-204v53h204v195h55v-195h204v-53h-204v-191h-55zM18 43v53h463v-53h-463z" />
<glyph unicode="&#xb2;" horiz-adv-x="420" d="M38 266q1 54 32.5 90t104.5 72l53 26q46 23 60.5 38.5t14.5 42.5q0 33 -24.5 52.5t-66.5 19.5q-48 0 -71 -20.5t-28 -68.5h-70q4 61 31 92q45 53 139 53q75 0 118.5 -34t43.5 -92q0 -44 -26 -73.5t-91 -60.5l-49 -23q-72 -34 -84 -56h247v-58h-334z" />
<glyph unicode="&#xb3;" horiz-adv-x="420" d="M112 528h-67q10 135 164 135q68 0 110.5 -29.5t42.5 -76.5q0 -48 -49 -79q66 -28 66 -92q0 -58 -47.5 -92.5t-127.5 -34.5q-164 0 -169 141h69q3 -85 104 -85q47 0 74 19t27 51q0 61 -111 61h-31v54h32q40 0 61 7q32 10 32 44q0 26 -23 41t-63 15q-47 0 -68.5 -18 t-25.5 -61z" />
<glyph unicode="&#xb4;" d="M199 548l64 129h132l-120 -129h-76z" />
<glyph unicode="&#xb5;" d="M134 57v-225h-90v648h90v-264q0 -45 5.5 -67.5t21.5 -42.5q36 -42 86 -42q54 0 87 44t33 115v257h90v-480h-90v83q-37 -95 -122 -95q-70 0 -111 69z" />
<glyph unicode="&#xb6;" horiz-adv-x="578" d="M235 -113v429h-21q-77 0 -127 49.5t-50 124.5q0 49 22 89t62 62q48 26 136 26h243v-43h-56v-737h-54v737h-101v-737h-54z" />
<glyph unicode="&#xb7;" horiz-adv-x="253" d="M67 198v110h118v-110h-118z" />
<glyph unicode="&#xb8;" d="M248 -72l42 60l37 -1l-28 -40q24 5 40 5q35 0 56.5 -18t21.5 -47q0 -35 -29.5 -57.5t-76.5 -22.5q-49 0 -106 23l14 31q47 -21 84 -21q25 0 41.5 12t16.5 31q0 18 -13 28.5t-35 10.5q-18 0 -45 -10z" />
<glyph unicode="&#xb9;" horiz-adv-x="420" d="M202 267v276h-113v51q67 1 96.5 17t30.5 52h57v-396h-71z" />
<glyph unicode="&#xba;" horiz-adv-x="434" d="M217 259q-80 0 -131 44t-51 113t51 112.5t133 43.5q80 0 130 -44.5t50 -114.5q0 -67 -51.5 -110.5t-130.5 -43.5zM217 311q50 0 81 28.5t31 74.5q0 48 -30.5 77t-80.5 29q-51 0 -82 -28.5t-31 -75.5t31 -76t81 -29z" />
<glyph unicode="&#xbb;" horiz-adv-x="472" d="M258 79v97l104 77l-104 78v97l174 -128v-93zM51 79v97l104 77l-104 78v97l174 -128v-93z" />
<glyph unicode="&#xbc;" horiz-adv-x="957" d="M314 0l284 667h46l-284 -667h-46zM202 267v276h-113v51q67 1 96.5 17t30.5 52h57v-396h-71zM576 94v56l226 246h58v-246h67v-56h-67v-94h-68v94h-216zM651 150h141v154z" />
<glyph unicode="&#xbd;" horiz-adv-x="957" d="M314 0l284 667h46l-284 -667h-46zM202 267v276h-113v51q67 1 96.5 17t30.5 52h57v-396h-71zM576 0q1 55 32 91t105 71l53 25q45 22 60 38t15 43q0 33 -24.5 52.5t-66.5 19.5q-48 0 -71 -20.5t-28 -68.5h-70q4 61 31 92q45 53 139 53q75 0 118.5 -34t43.5 -92 q0 -43 -26 -72.5t-91 -60.5l-49 -23q-72 -34 -84 -56h247v-58h-334z" />
<glyph unicode="&#xbe;" horiz-adv-x="957" d="M313 0l284 667h46l-284 -667h-46zM112 528h-67q10 135 164 135q68 0 110.5 -29.5t42.5 -76.5q0 -48 -49 -79q66 -28 66 -92q0 -58 -47.5 -92.5t-127.5 -34.5q-164 0 -169 141h69q3 -85 104 -85q47 0 74 19t27 51q0 61 -111 61h-31v54h32q40 0 61 7q32 10 32 44 q0 26 -23 41t-63 15q-47 0 -68.5 -18t-25.5 -61zM576 94v56l225 246h58v-246h67v-56h-67v-94h-68v94h-215zM651 150h140v154z" />
<glyph unicode="&#xbf;" horiz-adv-x="558" d="M231 383v110h113v-110h-113zM528 40v-8q0 -84 -49 -138q-35 -37 -92 -58.5t-120 -21.5q-107 0 -172 53.5t-65 141.5q0 58 27.5 100.5t94.5 87.5q57 38 73.5 58.5t15.5 50.5l-1 26h99v-21q0 -52 -20.5 -83t-85.5 -76q-60 -42 -81.5 -71t-21.5 -68q0 -53 38 -85t101 -32 q74 0 114 37t42 107h103z" />
<glyph unicode="&#xc0;" horiz-adv-x="751" d="M335 732l-120 128h132l64 -128h-76zM7 0l310 667h116l312 -667h-124l-87 192h-323l-87 -192h-117zM249 279h246l-124 273z" />
<glyph unicode="&#xc1;" horiz-adv-x="751" d="M345 732l64 128h132l-120 -128h-76zM7 0l310 667h116l312 -667h-124l-87 192h-323l-87 -192h-117zM249 279h246l-124 273z" />
<glyph unicode="&#xc2;" horiz-adv-x="751" d="M202 732l129 128h97l128 -128h-112l-70 67l-71 -67h-101zM7 0l310 667h116l312 -667h-124l-87 192h-323l-87 -192h-117zM249 279h246l-124 273z" />
<glyph unicode="&#xc3;" horiz-adv-x="751" d="M191 743q9 52 35.5 80.5t66.5 28.5q34 0 139 -36q27 -10 47 -10q26 0 35 41h61q-4 -51 -30.5 -81.5t-65.5 -30.5q-42 0 -147 39q-27 10 -43 10q-24 0 -38 -41h-60zM7 0l310 667h116l312 -667h-124l-87 192h-323l-87 -192h-117zM249 279h246l-124 273z" />
<glyph unicode="&#xc4;" horiz-adv-x="751" d="M460 745v102h103v-102h-103zM189 745v102h103v-102h-103zM7 0l310 667h116l312 -667h-124l-87 192h-323l-87 -192h-117zM249 279h246l-124 273z" />
<glyph unicode="&#xc5;" horiz-adv-x="751" d="M376 732q-44 0 -74 25t-30 62q0 38 29.5 63.5t74.5 25.5q44 0 73.5 -25.5t29.5 -64.5q0 -36 -30 -61t-73 -25zM376 769q27 0 44 14t17 36q0 24 -16.5 38t-44.5 14t-45 -14t-17 -37t17 -37t45 -14zM7 0l310 667h116l312 -667h-124l-87 192h-323l-87 -192h-117zM249 279 h246l-124 273z" />
<glyph unicode="&#xc6;" horiz-adv-x="1121" d="M7 0l352 667h703v-93h-443v-187h416v-93h-416v-201h451v-93h-554v193h-297l-101 -193h-111zM264 280h252v294h-99z" />
<glyph unicode="&#xc7;" horiz-adv-x="791" d="M338 -75l41 59q-150 10 -237 103t-87 246q0 161 97.5 256t261.5 95t255 -93q59 -61 79 -163h-104q-12 58 -45 95q-66 74 -186 74q-115 0 -185 -72.5t-70 -191.5q0 -117 71.5 -190t184.5 -73q125 0 192 84q31 40 44 109h104q-19 -110 -81 -179q-89 -98 -254 -101l-27 -38 q28 5 41 5q37 0 60 -19t23 -49q0 -37 -30.5 -60t-79.5 -23q-55 0 -113 24l15 32q46 -21 88 -21q26 0 43 12.5t17 31.5q0 18 -14 28.5t-37 10.5q-17 0 -47 -9z" />
<glyph unicode="&#xc8;" horiz-adv-x="687" d="M309 732l-120 128h132l64 -128h-76zM82 0v667h546v-93h-443v-187h417v-93h-417v-201h452v-93h-555z" />
<glyph unicode="&#xc9;" horiz-adv-x="687" d="M322 732l64 128h132l-120 -128h-76zM82 0v667h546v-93h-443v-187h417v-93h-417v-201h452v-93h-555z" />
<glyph unicode="&#xca;" horiz-adv-x="687" d="M183 732l129 128h97l128 -128h-112l-70 67l-71 -67h-101zM82 0v667h546v-93h-443v-187h417v-93h-417v-201h452v-93h-555z" />
<glyph unicode="&#xcb;" horiz-adv-x="687" d="M441 745v102h103v-102h-103zM170 745v102h103v-102h-103zM82 0v667h546v-93h-443v-187h417v-93h-417v-201h452v-93h-555z" />
<glyph unicode="&#xcc;" horiz-adv-x="267" d="M96 732l-120 128h132l64 -128h-76zM83 0v667h103v-667h-103z" />
<glyph unicode="&#xcd;" horiz-adv-x="267" d="M99 732l64 128h132l-120 -128h-76zM82 0v667h103v-667h-103z" />
<glyph unicode="&#xce;" horiz-adv-x="267" d="M-37 732l129 128h97l128 -128h-112l-70 67l-71 -67h-101zM82 0v667h103v-667h-103z" />
<glyph unicode="&#xcf;" horiz-adv-x="267" d="M213 745v102h93v-102h-93zM-31 745v102h93v-102h-93zM82 0v667h103v-667h-103z" />
<glyph unicode="&#xd0;" horiz-adv-x="779" d="M82 0v300h-47v87h47v280h298q147 0 223 -49q121 -80 121 -287q0 -183 -101 -269q-42 -35 -94.5 -48.5t-149.5 -13.5h-297zM185 93h203q64 0 101 9.5t64 33.5q68 60 68 197q0 138 -68 198q-27 24 -63.5 33.5t-101.5 9.5h-203v-187h213v-87h-213v-207z" />
<glyph unicode="&#xd1;" horiz-adv-x="835" d="M249 743q9 52 35.5 80.5t66.5 28.5q34 0 139 -36q27 -10 47 -10q26 0 35 41h61q-4 -51 -30.5 -81.5t-65.5 -30.5q-42 0 -147 39q-27 10 -43 10q-24 0 -38 -41h-60zM82 0v667h129l439 -538v538h103v-667h-124l-444 543v-543h-103z" />
<glyph unicode="&#xd2;" horiz-adv-x="860" d="M393 732l-120 128h132l64 -128h-76zM55 334q0 157 103 253.5t271 96.5q172 0 274.5 -96.5t102.5 -258.5q0 -71 -26.5 -136t-73.5 -111q-102 -99 -276 -99q-169 0 -272 96.5t-103 254.5zM158 334q0 -119 75 -191.5t197 -72.5t197.5 72t75.5 188q0 122 -74 194.5t-199 72.5 q-122 0 -197 -72.5t-75 -190.5z" />
<glyph unicode="&#xd3;" horiz-adv-x="860" d="M396 732l64 128h132l-120 -128h-76zM55 334q0 157 103 253.5t271 96.5q172 0 274.5 -96.5t102.5 -258.5q0 -71 -26.5 -136t-73.5 -111q-102 -99 -276 -99q-169 0 -272 96.5t-103 254.5zM158 334q0 -119 75 -191.5t197 -72.5t197.5 72t75.5 188q0 122 -74 194.5t-199 72.5 q-122 0 -197 -72.5t-75 -190.5z" />
<glyph unicode="&#xd4;" horiz-adv-x="860" d="M260 732l129 128h97l128 -128h-112l-70 67l-71 -67h-101zM55 334q0 157 103 253.5t271 96.5q172 0 274.5 -96.5t102.5 -258.5q0 -71 -26.5 -136t-73.5 -111q-102 -99 -276 -99q-169 0 -272 96.5t-103 254.5zM158 334q0 -119 75 -191.5t197 -72.5t197.5 72t75.5 188 q0 122 -74 194.5t-199 72.5q-122 0 -197 -72.5t-75 -190.5z" />
<glyph unicode="&#xd5;" horiz-adv-x="860" d="M255 743q9 52 35.5 80.5t66.5 28.5q34 0 139 -36q27 -10 47 -10q26 0 35 41h61q-4 -51 -30.5 -81.5t-65.5 -30.5q-42 0 -147 39q-27 10 -43 10q-24 0 -38 -41h-60zM55 334q0 157 103 253.5t271 96.5q172 0 274.5 -96.5t102.5 -258.5q0 -71 -26.5 -136t-73.5 -111 q-102 -99 -276 -99q-169 0 -272 96.5t-103 254.5zM158 334q0 -119 75 -191.5t197 -72.5t197.5 72t75.5 188q0 122 -74 194.5t-199 72.5q-122 0 -197 -72.5t-75 -190.5z" />
<glyph unicode="&#xd6;" horiz-adv-x="860" d="M518 745v102h103v-102h-103zM247 745v102h103v-102h-103zM55 334q0 157 103 253.5t271 96.5q172 0 274.5 -96.5t102.5 -258.5q0 -71 -26.5 -136t-73.5 -111q-102 -99 -276 -99q-169 0 -272 96.5t-103 254.5zM158 334q0 -119 75 -191.5t197 -72.5t197.5 72t75.5 188 q0 122 -74 194.5t-199 72.5q-122 0 -197 -72.5t-75 -190.5z" />
<glyph unicode="&#xd7;" d="M94 154l-38 38l156 156l-155 154l38 38l154 -156l156 157l38 -39l-156 -155l155 -155l-37 -37l-155 155z" />
<glyph unicode="&#xd8;" horiz-adv-x="860" d="M50 35l79 74q-75 95 -75 225q0 158 103 254t272 96q140 0 238 -68l87 82l55 -60l-81 -77q77 -91 77 -228q0 -157 -103 -253.5t-272 -96.5q-142 0 -242 70l-83 -77zM202 178l395 372q-68 47 -168 47q-122 0 -197 -72.5t-75 -190.5q0 -86 45 -156zM259 120q70 -50 171 -50 q122 0 197 72.5t75 190.5q0 90 -47 160z" />
<glyph unicode="&#xd9;" horiz-adv-x="786" d="M365 732l-120 128h132l64 -128h-76zM704 667v-432q0 -126 -91 -192q-83 -60 -220 -60q-149 0 -234 71q-77 67 -77 181v432h103v-428q0 -80 55 -124.5t153 -44.5t153 44.5t55 124.5v428h103z" />
<glyph unicode="&#xda;" horiz-adv-x="786" d="M365 732l64 128h132l-120 -128h-76zM704 667v-432q0 -126 -91 -192q-83 -60 -220 -60q-149 0 -234 71q-77 67 -77 181v432h103v-428q0 -80 55 -124.5t153 -44.5t153 44.5t55 124.5v428h103z" />
<glyph unicode="&#xdb;" horiz-adv-x="786" d="M226 732l129 128h97l128 -128h-112l-70 67l-71 -67h-101zM704 667v-432q0 -126 -91 -192q-83 -60 -220 -60q-149 0 -234 71q-77 67 -77 181v432h103v-428q0 -80 55 -124.5t153 -44.5t153 44.5t55 124.5v428h103z" />
<glyph unicode="&#xdc;" horiz-adv-x="786" d="M483 745v102h103v-102h-103zM212 745v102h103v-102h-103zM704 667v-432q0 -126 -91 -192q-83 -60 -220 -60q-149 0 -234 71q-77 67 -77 181v432h103v-428q0 -80 55 -124.5t153 -44.5t153 44.5t55 124.5v428h103z" />
<glyph unicode="&#xdd;" horiz-adv-x="692" d="M311 732l64 128h132l-120 -128h-76zM294 0v277l-294 390h133l215 -302l217 302h126l-294 -390v-277h-103z" />
<glyph unicode="&#xde;" horiz-adv-x="693" d="M82 0v667h103v-114h259q102 0 158.5 -52t56.5 -145q0 -91 -57 -144.5t-154 -53.5h-263v-158h-103zM185 245h233q69 0 100 24q38 29 38 87t-38 86q-31 24 -100 24h-233v-221z" />
<glyph unicode="&#xdf;" horiz-adv-x="635" d="M74 0v460q0 67 13 103t47 63q66 54 181 54q109 0 170.5 -47t61.5 -129q0 -41 -18 -69.5t-63 -57.5q65 -26 92.5 -66t27.5 -108q0 -100 -67.5 -156.5t-185.5 -56.5q-21 0 -68 3v86q41 -7 67 -7q73 0 113.5 34.5t40.5 96.5q0 124 -160 124h-58v80h54q128 0 128 91 q0 48 -34 74t-98 26q-74 0 -111 -28q-36 -27 -36 -105v-465h-97z" />
<glyph unicode="&#xe0;" horiz-adv-x="621" d="M283 548l-120 129h132l64 -129h-76zM612 67v-66q-25 -8 -51 -8q-46 0 -70 16.5t-38 57.5q-85 -81 -211 -81q-89 0 -140.5 39t-51.5 107q0 107 121 136q16 4 182 23q55 6 77.5 20t22.5 42q0 76 -133 76q-79 0 -114.5 -22.5t-40.5 -76.5h-97q7 65 34 99q62 77 214 77 q121 0 181 -41q48 -32 48 -117v-219q0 -36 10 -50t35 -13zM453 206v40q-79 -25 -189 -36q-65 -7 -89.5 -22t-24.5 -49q0 -76 119 -76q96 0 149 50q21 20 28 39t7 54z" />
<glyph unicode="&#xe1;" horiz-adv-x="621" d="M281 548l64 129h132l-120 -129h-76zM612 67v-66q-25 -8 -51 -8q-46 0 -70 16.5t-38 57.5q-85 -81 -211 -81q-89 0 -140.5 39t-51.5 107q0 107 121 136q16 4 182 23q55 6 77.5 20t22.5 42q0 76 -133 76q-79 0 -114.5 -22.5t-40.5 -76.5h-97q7 65 34 99q62 77 214 77 q121 0 181 -41q48 -32 48 -117v-219q0 -36 10 -50t35 -13zM453 206v40q-79 -25 -189 -36q-65 -7 -89.5 -22t-24.5 -49q0 -76 119 -76q96 0 149 50q21 20 28 39t7 54z" />
<glyph unicode="&#xe2;" horiz-adv-x="621" d="M143 548l129 129h97l128 -129h-112l-70 68l-71 -68h-101zM612 67v-66q-25 -8 -51 -8q-46 0 -70 16.5t-38 57.5q-85 -81 -211 -81q-89 0 -140.5 39t-51.5 107q0 107 121 136q16 4 182 23q55 6 77.5 20t22.5 42q0 76 -133 76q-79 0 -114.5 -22.5t-40.5 -76.5h-97 q7 65 34 99q62 77 214 77q121 0 181 -41q48 -32 48 -117v-219q0 -36 10 -50t35 -13zM453 206v40q-79 -25 -189 -36q-65 -7 -89.5 -22t-24.5 -49q0 -76 119 -76q96 0 149 50q21 20 28 39t7 54z" />
<glyph unicode="&#xe3;" horiz-adv-x="621" d="M142 563q9 52 35.5 80.5t66.5 28.5q34 0 139 -36q27 -10 47 -10q26 0 35 41h61q-4 -51 -30.5 -81.5t-65.5 -30.5q-42 0 -147 39q-27 10 -43 10q-24 0 -38 -41h-60zM612 67v-66q-25 -8 -51 -8q-46 0 -70 16.5t-38 57.5q-85 -81 -211 -81q-89 0 -140.5 39t-51.5 107 q0 107 121 136q16 4 182 23q55 6 77.5 20t22.5 42q0 76 -133 76q-79 0 -114.5 -22.5t-40.5 -76.5h-97q7 65 34 99q62 77 214 77q121 0 181 -41q48 -32 48 -117v-219q0 -36 10 -50t35 -13zM453 206v40q-79 -25 -189 -36q-65 -7 -89.5 -22t-24.5 -49q0 -76 119 -76 q96 0 149 50q21 20 28 39t7 54z" />
<glyph unicode="&#xe4;" horiz-adv-x="621" d="M378 560v107h102v-107h-102zM154 560v107h102v-107h-102zM612 67v-66q-25 -8 -51 -8q-46 0 -70 16.5t-38 57.5q-85 -81 -211 -81q-89 0 -140.5 39t-51.5 107q0 107 121 136q16 4 182 23q55 6 77.5 20t22.5 42q0 76 -133 76q-79 0 -114.5 -22.5t-40.5 -76.5h-97 q7 65 34 99q62 77 214 77q121 0 181 -41q48 -32 48 -117v-219q0 -36 10 -50t35 -13zM453 206v40q-79 -25 -189 -36q-65 -7 -89.5 -22t-24.5 -49q0 -76 119 -76q96 0 149 50q21 20 28 39t7 54z" />
<glyph unicode="&#xe5;" horiz-adv-x="621" d="M318 566q-44 0 -74 25t-30 62t30 62.5t74 25.5t73.5 -25.5t29.5 -63.5q0 -36 -30 -61t-73 -25zM318 603q27 0 44 14t17 36q0 23 -16.5 37t-44.5 14t-45 -14t-17 -36q0 -23 17 -37t45 -14zM612 67v-66q-25 -8 -51 -8q-46 0 -70 16.5t-38 57.5q-85 -81 -211 -81 q-89 0 -140.5 39t-51.5 107q0 107 121 136q16 4 182 23q55 6 77.5 20t22.5 42q0 76 -133 76q-79 0 -114.5 -22.5t-40.5 -76.5h-97q7 65 34 99q62 77 214 77q121 0 181 -41q48 -32 48 -117v-219q0 -36 10 -50t35 -13zM453 206v40q-79 -25 -189 -36q-65 -7 -89.5 -22 t-24.5 -49q0 -76 119 -76q96 0 149 50q21 20 28 39t7 54z" />
<glyph unicode="&#xe6;" horiz-adv-x="1026" d="M865 147h105q-30 -77 -96 -118.5t-158 -41.5q-178 0 -230 115q-58 -115 -226 -115q-100 0 -155 39t-55 109q0 48 27.5 82.5t74.5 48.5q46 13 157 20q102 7 125 16t23 43q0 84 -147 84q-67 0 -100 -20.5t-44 -67.5h-97q21 165 245 165q82 0 129 -22t69 -71q74 93 203 93 q127 0 195 -73.5t67 -210.5h-440q9 -77 54 -117.5t122 -40.5q105 0 152 83zM536 296h343q-7 63 -52 98t-120 35q-74 0 -119 -35t-52 -98zM457 247l-5 -2q-45 -19 -147 -26q-97 -7 -124 -22q-34 -19 -34 -57q0 -76 121 -76q60 0 108 20t64 52q17 33 17 111z" />
<glyph unicode="&#xe7;" horiz-adv-x="610" d="M248 -72l42 60q-114 8 -177.5 75.5t-63.5 180.5q0 121 73 191.5t198 70.5q98 0 163 -46t84 -129h-94q-34 99 -151 99q-83 0 -129.5 -48.5t-46.5 -133.5q0 -86 47 -135t130 -49q119 0 153 115h95q-19 -90 -82.5 -140t-161.5 -52l-28 -40q24 5 40 5q35 0 56.5 -18t21.5 -47 q0 -35 -29.5 -57.5t-76.5 -22.5q-49 0 -106 23l14 31q47 -21 84 -21q25 0 41.5 12t16.5 31q0 18 -13 28.5t-35 10.5q-18 0 -45 -10z" />
<glyph unicode="&#xe8;" horiz-adv-x="650" d="M293 548l-120 129h132l64 -129h-76zM486 154h105q-73 -167 -268 -167q-123 0 -198.5 71t-75.5 186q0 116 77 189t199 73q88 0 155 -39.5t96 -107.5q24 -59 24 -141h-457q8 -71 58.5 -112.5t130.5 -41.5q116 0 154 90zM146 294h355q-16 65 -62.5 100.5t-114.5 35.5 t-114.5 -35.5t-63.5 -100.5z" />
<glyph unicode="&#xe9;" horiz-adv-x="650" d="M290 548l64 129h132l-120 -129h-76zM486 154h105q-73 -167 -268 -167q-123 0 -198.5 71t-75.5 186q0 116 77 189t199 73q88 0 155 -39.5t96 -107.5q24 -59 24 -141h-457q8 -71 58.5 -112.5t130.5 -41.5q116 0 154 90zM146 294h355q-16 65 -62.5 100.5t-114.5 35.5 t-114.5 -35.5t-63.5 -100.5z" />
<glyph unicode="&#xea;" horiz-adv-x="650" d="M154 548l129 129h97l128 -129h-112l-70 68l-71 -68h-101zM486 154h105q-73 -167 -268 -167q-123 0 -198.5 71t-75.5 186q0 116 77 189t199 73q88 0 155 -39.5t96 -107.5q24 -59 24 -141h-457q8 -71 58.5 -112.5t130.5 -41.5q116 0 154 90zM146 294h355 q-16 65 -62.5 100.5t-114.5 35.5t-114.5 -35.5t-63.5 -100.5z" />
<glyph unicode="&#xeb;" horiz-adv-x="650" d="M389 560v107h102v-107h-102zM165 560v107h102v-107h-102zM486 154h105q-73 -167 -268 -167q-123 0 -198.5 71t-75.5 186q0 116 77 189t199 73q88 0 155 -39.5t96 -107.5q24 -59 24 -141h-457q8 -71 58.5 -112.5t130.5 -41.5q116 0 154 90zM146 294h355 q-16 65 -62.5 100.5t-114.5 35.5t-114.5 -35.5t-63.5 -100.5z" />
<glyph unicode="&#xec;" horiz-adv-x="245" d="M88 548l-120 129h132l64 -129h-76zM74 0v493h97v-493h-97z" />
<glyph unicode="&#xed;" horiz-adv-x="245" d="M88 548l64 129h132l-120 -129h-76zM74 0v493h97v-493h-97z" />
<glyph unicode="&#xee;" horiz-adv-x="245" d="M-48 548l129 129h97l128 -129h-112l-70 68l-71 -68h-101zM74 0v493h97v-493h-97z" />
<glyph unicode="&#xef;" horiz-adv-x="245" d="M182 560v107h91v-107h-91zM-21 560v107h92v-107h-92zM74 0v493h97v-493h-97z" />
<glyph unicode="&#xf0;" horiz-adv-x="673" d="M419 672l-56 -56q91 -83 174 -177q86 -75 86 -193q0 -114 -80.5 -186.5t-206.5 -72.5t-206.5 72.5t-80.5 186.5t80.5 187t205.5 73h25l-55 52l-51 -51l-38 38l50 49q-20 19 -49 42l58 57q10 -8 17 -14.5t11.5 -10.5t11.5 -9l9 -7l57 58zM149 247q0 -82 51.5 -132.5 t135.5 -50.5q82 0 134.5 50t52.5 129q0 84 -51 135t-134 51q-86 0 -137.5 -50t-51.5 -132z" />
<glyph unicode="&#xf1;" horiz-adv-x="637" d="M160 563q9 52 35.5 80.5t66.5 28.5q34 0 139 -36q27 -10 47 -10q26 0 35 41h61q-4 -51 -30.5 -81.5t-65.5 -30.5q-42 0 -147 39q-27 10 -43 10q-24 0 -38 -41h-60zM74 0v493h97v-70q48 47 90 65t102 18q96 0 153 -51q47 -41 47 -141v-314h-97v307q0 37 -7 55.5t-27 34.5 q-33 27 -88 27q-71 0 -122 -40.5t-51 -96.5v-287h-97z" />
<glyph unicode="&#xf2;" horiz-adv-x="673" d="M305 548l-120 129h132l64 -129h-76zM49 247q0 115 80.5 187t209.5 72q126 0 205 -73.5t79 -190.5q0 -111 -81 -183t-206 -72q-126 0 -206.5 72.5t-80.5 187.5zM149 247q0 -82 51.5 -132.5t135.5 -50.5q82 0 134.5 50t52.5 129q0 84 -51 135t-134 51q-86 0 -137.5 -50 t-51.5 -132z" />
<glyph unicode="&#xf3;" horiz-adv-x="673" d="M305 548l64 129h132l-120 -129h-76zM49 247q0 115 80.5 187t209.5 72q126 0 205 -73.5t79 -190.5q0 -111 -81 -183t-206 -72q-126 0 -206.5 72.5t-80.5 187.5zM149 247q0 -82 51.5 -132.5t135.5 -50.5q82 0 134.5 50t52.5 129q0 84 -51 135t-134 51q-86 0 -137.5 -50 t-51.5 -132z" />
<glyph unicode="&#xf4;" horiz-adv-x="673" d="M165 548l129 129h97l128 -129h-112l-70 68l-71 -68h-101zM49 247q0 115 80.5 187t209.5 72q126 0 205 -73.5t79 -190.5q0 -111 -81 -183t-206 -72q-126 0 -206.5 72.5t-80.5 187.5zM149 247q0 -82 51.5 -132.5t135.5 -50.5q82 0 134.5 50t52.5 129q0 84 -51 135t-134 51 q-86 0 -137.5 -50t-51.5 -132z" />
<glyph unicode="&#xf5;" horiz-adv-x="673" d="M167 563q9 52 35.5 80.5t66.5 28.5q34 0 139 -36q27 -10 47 -10q26 0 35 41h61q-4 -51 -30.5 -81.5t-65.5 -30.5q-42 0 -147 39q-27 10 -43 10q-24 0 -38 -41h-60zM49 247q0 115 80.5 187t209.5 72q126 0 205 -73.5t79 -190.5q0 -111 -81 -183t-206 -72 q-126 0 -206.5 72.5t-80.5 187.5zM149 247q0 -82 51.5 -132.5t135.5 -50.5q82 0 134.5 50t52.5 129q0 84 -51 135t-134 51q-86 0 -137.5 -50t-51.5 -132z" />
<glyph unicode="&#xf6;" horiz-adv-x="673" d="M400 560v107h102v-107h-102zM176 560v107h102v-107h-102zM49 247q0 115 80.5 187t209.5 72q126 0 205 -73.5t79 -190.5q0 -111 -81 -183t-206 -72q-126 0 -206.5 72.5t-80.5 187.5zM149 247q0 -82 51.5 -132.5t135.5 -50.5q82 0 134.5 50t52.5 129q0 84 -51 135t-134 51 q-86 0 -137.5 -50t-51.5 -132z" />
<glyph unicode="&#xf7;" d="M250 482q-18 0 -31.5 13.5t-13.5 31.5q0 19 13.5 32t32.5 13q18 0 31 -13.5t13 -31.5q0 -19 -13 -32t-32 -13zM18 320v53h463v-53h-463zM204 166q0 19 13.5 32t32.5 13q18 0 31 -13.5t13 -31.5t-13 -31.5t-32 -13.5q-18 0 -31.5 13.5t-13.5 31.5z" />
<glyph unicode="&#xf8;" horiz-adv-x="673" d="M33 31l67 60q-51 69 -51 156q0 113 80.5 186t205.5 73q102 0 176 -47l75 67l54 -58l-70 -63q53 -69 53 -159q0 -113 -80 -186t-205 -73q-105 0 -179 49l-73 -65zM171 154l274 246q-46 29 -111 29q-82 0 -133.5 -50.5t-51.5 -130.5q0 -51 22 -94zM224 95q50 -31 113 -31 q82 0 134 50.5t52 130.5q0 54 -23 98z" />
<glyph unicode="&#xf9;" horiz-adv-x="637" d="M291 548l-120 129h132l64 -129h-76zM466 0v70q-48 -47 -90 -65t-102 -18q-96 0 -153 51q-47 41 -47 141v314h97v-307q0 -37 7 -55.5t27 -34.5q33 -27 88 -27q71 0 122 40.5t51 96.5v287h97v-493h-97z" />
<glyph unicode="&#xfa;" horiz-adv-x="637" d="M281 548l64 129h132l-120 -129h-76zM466 0v70q-48 -47 -90 -65t-102 -18q-96 0 -153 51q-47 41 -47 141v314h97v-307q0 -37 7 -55.5t27 -34.5q33 -27 88 -27q71 0 122 40.5t51 96.5v287h97v-493h-97z" />
<glyph unicode="&#xfb;" horiz-adv-x="637" d="M151 548l129 129h97l128 -129h-112l-70 68l-71 -68h-101zM466 0v70q-48 -47 -90 -65t-102 -18q-96 0 -153 51q-47 41 -47 141v314h97v-307q0 -37 7 -55.5t27 -34.5q33 -27 88 -27q71 0 122 40.5t51 96.5v287h97v-493h-97z" />
<glyph unicode="&#xfc;" horiz-adv-x="637" d="M389 560v107h102v-107h-102zM165 560v107h102v-107h-102zM466 0v70q-48 -47 -90 -65t-102 -18q-96 0 -153 51q-47 41 -47 141v314h97v-307q0 -37 7 -55.5t27 -34.5q33 -27 88 -27q71 0 122 40.5t51 96.5v287h97v-493h-97z" />
<glyph unicode="&#xfd;" horiz-adv-x="577" d="M260 548l64 129h132l-120 -129h-76zM78 -78q40 -7 67 -7q38 0 61 18.5t36 59.5l-232 500h114l169 -400l165 400h109l-242 -531q-34 -74 -71.5 -101.5t-106.5 -27.5q-28 0 -69 8v81z" />
<glyph unicode="&#xfe;" horiz-adv-x="675" d="M171 66v-239h-97v840h97v-240q49 43 94 61.5t101 18.5q113 0 186.5 -74t73.5 -187q0 -112 -74 -186t-186 -74q-57 0 -101.5 18.5t-93.5 61.5zM162 250q0 -82 49.5 -132t131.5 -50t132.5 49t50.5 129t-50.5 129.5t-131.5 49.5q-80 0 -131 -49t-51 -126z" />
<glyph unicode="&#xff;" horiz-adv-x="577" d="M356 560v107h102v-107h-102zM132 560v107h102v-107h-102zM78 -78q40 -7 67 -7q38 0 61 18.5t36 59.5l-232 500h114l169 -400l165 400h109l-242 -531q-34 -74 -71.5 -101.5t-106.5 -27.5q-28 0 -69 8v81z" />
<glyph unicode="&#x152;" horiz-adv-x="1205" d="M601 0v78q-73 -95 -218 -95q-149 0 -238.5 94t-89.5 251q0 158 91 257t236 99q142 0 219 -98v81h546v-93h-443v-187h416v-93h-416v-201h451v-93h-554zM601 188v293q-67 117 -201 117q-109 0 -175.5 -74.5t-66.5 -196.5q0 -118 65 -188t175 -70q140 0 203 119z" />
<glyph unicode="&#x153;" horiz-adv-x="1090" d="M931 154h101q-70 -167 -258 -167q-148 0 -220 102q-34 -48 -95 -75t-133 -27q-121 0 -199 73t-78 187t77.5 186.5t199.5 72.5q72 0 134 -28t95 -75q75 103 220 103q85 0 149.5 -39.5t92.5 -107.5q24 -61 24 -141h-442q7 -71 56 -112.5t127 -41.5q112 0 149 90zM601 294 h344q-16 65 -61 100.5t-111 35.5t-110.5 -35.5t-61.5 -100.5zM507 246v5q0 81 -49.5 130t-129.5 49t-129.5 -50.5t-49.5 -132.5t49.5 -132.5t129.5 -50.5q79 0 129 48t50 128v6z" />
<glyph unicode="&#x178;" horiz-adv-x="692" d="M436 745v102h103v-102h-103zM165 745v102h103v-102h-103zM294 0v277l-294 390h133l215 -302l217 302h126l-294 -390v-277h-103z" />
<glyph unicode="&#x2c6;" d="M73 548l129 129h97l128 -129h-112l-70 68l-71 -68h-101z" />
<glyph unicode="&#x2dc;" d="M58 563q9 52 35.5 80.5t66.5 28.5q34 0 139 -36q27 -10 47 -10q26 0 35 41h61q-4 -51 -30.5 -81.5t-65.5 -30.5q-42 0 -147 39q-27 10 -43 10q-24 0 -38 -41h-60z" />
<glyph unicode="&#x2000;" horiz-adv-x="454" />
<glyph unicode="&#x2001;" horiz-adv-x="908" />
<glyph unicode="&#x2002;" horiz-adv-x="454" />
<glyph unicode="&#x2003;" horiz-adv-x="908" />
<glyph unicode="&#x2004;" horiz-adv-x="302" />
<glyph unicode="&#x2005;" horiz-adv-x="227" />
<glyph unicode="&#x2006;" horiz-adv-x="151" />
<glyph unicode="&#x2007;" horiz-adv-x="151" />
<glyph unicode="&#x2008;" horiz-adv-x="113" />
<glyph unicode="&#x2009;" horiz-adv-x="181" />
<glyph unicode="&#x200a;" horiz-adv-x="50" />
<glyph unicode="&#x2010;" horiz-adv-x="342" d="M0 210v87h342v-87h-342z" />
<glyph unicode="&#x2011;" horiz-adv-x="342" d="M0 210v87h342v-87h-342z" />
<glyph unicode="&#x2012;" horiz-adv-x="342" d="M0 210v87h342v-87h-342z" />
<glyph unicode="&#x2013;" horiz-adv-x="633" d="M47 210v87h538v-87h-538z" />
<glyph unicode="&#x2014;" horiz-adv-x="844" d="M0 210v87h844v-87h-844z" />
<glyph unicode="&#x2018;" horiz-adv-x="253" d="M67 413v88q0 137 113 166v-56q-54 -19 -55 -88h60v-110h-118z" />
<glyph unicode="&#x2019;" horiz-adv-x="253" d="M72 413v56q54 19 55 88h-60v110h118v-88q0 -135 -113 -166z" />
<glyph unicode="&#x201a;" horiz-adv-x="253" d="M67 0v110h118v-88q0 -135 -113 -166v56q54 19 55 88h-60z" />
<glyph unicode="&#x201c;" horiz-adv-x="432" d="M247 413v88q0 137 112 166v-56q-54 -19 -54 -88h60v-110h-118zM67 413v88q0 137 113 166v-56q-54 -19 -55 -88h60v-110h-118z" />
<glyph unicode="&#x201d;" horiz-adv-x="432" d="M252 413v56q54 19 55 88h-60v110h118v-88q0 -135 -113 -166zM72 413v56q54 19 55 88h-60v110h118v-88q0 -135 -113 -166z" />
<glyph unicode="&#x201e;" horiz-adv-x="432" d="M247 0v110h118v-88q0 -135 -113 -166v56q54 19 55 88h-60zM67 0v110h118v-88q0 -135 -113 -166v56q54 19 55 88h-60z" />
<glyph unicode="&#x2022;" horiz-adv-x="667" d="M335 200q-57 0 -98 40.5t-41 97.5q0 58 41 98.5t100 40.5q55 0 95.5 -41t40.5 -97q0 -58 -40.5 -98.5t-97.5 -40.5z" />
<glyph unicode="&#x2026;" horiz-adv-x="759" d="M573 0v110h118v-110h-118zM320 0v110h118v-110h-118zM67 0v110h118v-110h-118z" />
<glyph unicode="&#x202f;" horiz-adv-x="181" />
<glyph unicode="&#x2039;" horiz-adv-x="265" d="M40 207v93l174 128v-97l-104 -78l104 -77v-97z" />
<glyph unicode="&#x203a;" horiz-adv-x="265" d="M51 79v97l104 77l-104 78v97l174 -128v-93z" />
<glyph unicode="&#x205f;" horiz-adv-x="227" />
<glyph unicode="&#x20ac;" horiz-adv-x="880" d="M47 242l29 68h58q-1 14 -1 23t1 23h-87l29 68h66q26 122 119 191t231 69q164 0 255 -93q59 -59 80 -163h-105q-12 58 -45 95q-66 74 -186 74q-90 0 -152 -44.5t-90 -128.5h355l-29 -68h-338q-1 -12 -1 -24q0 -13 1 -22h318l-29 -68h-276q24 -80 89.5 -126t153.5 -46 q126 0 191 84q31 40 44 109h104q-19 -111 -81 -178q-91 -102 -261 -102q-137 0 -230.5 69.5t-117.5 189.5h-95z" />
<glyph unicode="&#x2122;" horiz-adv-x="1040" d="M463 267v400h98l163 -327l165 327h96v-400h-72v310l-160 -310h-63l-155 310v-310h-72zM167 267v338h-158v62h390v-62h-160v-338h-72z" />
<glyph unicode="&#x25fc;" horiz-adv-x="495" d="M0 495h495v-495h-495v495z" />
</font>
</defs>
</svg>
