<?xml version="1.0" standalone="no"?>
<!DOCTYPE svg PUBLIC "-//W3C//DTD SVG 1.1//EN" "http://www.w3.org/Graphics/SVG/1.1/DTD/svg11.dtd" >
<svg xmlns="http://www.w3.org/2000/svg">
<metadata></metadata>
<defs>
<font id="foundation_sanslight_italic" horiz-adv-x="500" >
<font-face units-per-em="1000" ascent="825" descent="-175" />
<missing-glyph horiz-adv-x="300" />
<glyph unicode="&#xfb01;" horiz-adv-x="453" d="M34 0l91 435h-89l10 48h90l16 71q18 80 46 101q26 20 74 20q17 0 44 -3l-11 -52q-18 2 -23 2q-32 0 -47 -17t-26 -66l-13 -56h94l-10 -48h-95l-91 -435h-60zM389 575l19 92h60l-19 -92h-60zM267 0l103 483h60l-103 -483h-60z" />
<glyph unicode="&#xfb02;" horiz-adv-x="453" d="M34 0l91 435h-89l10 48h90l16 71q18 80 46 101q26 20 74 20q17 0 44 -3l-11 -52q-18 2 -23 2q-32 0 -47 -17t-26 -66l-13 -56h94l-10 -48h-95l-91 -435h-60zM267 0l141 667h60l-141 -667h-60z" />
<glyph horiz-adv-x="0" />
<glyph horiz-adv-x="333" />
<glyph unicode=" "  horiz-adv-x="300" />
<glyph unicode="&#x09;" horiz-adv-x="300" />
<glyph unicode="&#xa0;" horiz-adv-x="300" />
<glyph unicode="!" horiz-adv-x="239" d="M73 161l52 288l46 218h73l-49 -232l-73 -274h-49zM27 0l19 90h79l-19 -90h-79z" />
<glyph unicode="&#x22;" horiz-adv-x="311" d="M231 400l48 267h68l-66 -267h-50zM94 400l47 267h69l-66 -267h-50z" />
<glyph unicode="#" horiz-adv-x="599" d="M113 32l71 203h-127l12 35h128l40 115h-127l13 36h127l66 187h37l-66 -187h120l66 187h37l-66 -187h129l-12 -36h-130l-41 -115h130l-12 -35h-130l-72 -203h-36l71 203h-120l-72 -203h-36zM233 270h121l41 115h-121z" />
<glyph unicode="$" horiz-adv-x="567" d="M26 195v21h68q-1 -73 26 -112t90 -56l58 274l-25 10q-77 31 -109.5 68.5t-32.5 94.5q0 82 64.5 135.5t164.5 53.5h15l21 97h45l-22 -102q85 -13 129 -66t43 -142h-67q1 69 -25.5 103.5t-91.5 48.5l-53 -251l22 -9q96 -39 130 -76q41 -46 41 -109q0 -88 -68 -141.5 t-178 -53.5q-11 0 -29 2l-21 -97h-45l22 103q-83 19 -127.5 72t-44.5 132zM282 389l51 238q-74 -2 -119.5 -36t-45.5 -88q0 -37 26 -62.5t88 -51.5zM254 41q9 -1 22 -1q76 0 125 36.5t49 93.5q0 46 -30 76q-23 22 -98 53l-12 5z" />
<glyph unicode="%" horiz-adv-x="671" d="M155 331q-44 0 -69.5 29.5t-25.5 80.5q0 105 50 179q35 54 96 54q48 0 74 -31t26 -87q0 -40 -15 -89.5t-37 -81.5q-16 -25 -43 -39.5t-56 -14.5zM74 0l502 669h53l-502 -669h-53zM156 374q37 0 61 44q39 73 39 141q0 72 -46 72q-38 0 -60 -38q-40 -65 -40 -153 q0 -66 46 -66zM400 102q0 106 50 180q35 54 95 54q49 0 75 -31t26 -87q0 -40 -15 -89.5t-37 -81.5q-16 -25 -43 -39.5t-56 -14.5q-44 0 -69.5 29.5t-25.5 79.5zM450 102q0 -66 46 -66q37 0 61 44q39 71 39 141q0 72 -46 72q-38 0 -60 -38q-40 -65 -40 -153z" />
<glyph unicode="&#x26;" horiz-adv-x="632" d="M503 0l-38 61q-103 -79 -199 -79q-92 0 -153 56.5t-61 142.5q0 104 88 165q36 25 101 56q-29 41 -40 71t-11 66q0 59 41 97t106 38q61 0 100.5 -37t39.5 -93q0 -69 -62 -123q-23 -19 -81 -46l137 -210q18 24 33 70.5t16 78.5h68q-15 -129 -80 -206l70 -108h-75zM302 425 l14 7q93 47 93 113q0 31 -20.5 51.5t-51.5 20.5q-35 0 -57.5 -22.5t-22.5 -58.5q0 -49 45 -111zM430 114l-156 236q-50 -24 -81 -44q-74 -49 -74 -129q0 -59 41.5 -98.5t103.5 -39.5q85 0 166 75z" />
<glyph unicode="'" horiz-adv-x="176" d="M94 400l47 267h70l-66 -267h-51z" />
<glyph unicode="(" horiz-adv-x="321" d="M288 667h62q-76 -74 -132 -172q-53 -93 -76.5 -185.5t-23.5 -208.5q0 -150 53 -276h-49q-72 173 -72 325q0 101 28 188.5t91 181.5q56 85 119 147z" />
<glyph unicode=")" horiz-adv-x="321" d="M31 -175h-62q121 125 176.5 261t55.5 306q0 158 -53 275h49q72 -157 72 -324q0 -139 -54.5 -257.5t-183.5 -260.5z" />
<glyph unicode="*" horiz-adv-x="374" d="M156 410l-35 39l84 71l-97 53l26 46l94 -58l20 109l52 -11l-25 -107l109 14l5 -53l-109 -9l47 -99l-48 -21l-43 101z" />
<glyph unicode="+" d="M247 128v191h-205v37h205v191h38v-191h206v-37h-206v-191h-38z" />
<glyph unicode="," horiz-adv-x="235" d="M20 0l20 95h89l-19 -88q-15 -71 -41.5 -103.5t-73.5 -36.5l10 45q20 6 29.5 20.5t22.5 57.5l3 10h-40z" />
<glyph unicode="-" horiz-adv-x="217" d="M-6 222l13 62h217l-13 -62h-217z" />
<glyph unicode="." horiz-adv-x="235" d="M20 0l20 95h88l-20 -95h-88z" />
<glyph unicode="/" horiz-adv-x="322" d="M0 0l297 674h62l-296 -674h-63z" />
<glyph unicode="0" horiz-adv-x="567" d="M65 225q0 190 81 325q36 60 89.5 92t116.5 32q85 0 136 -57q51 -59 51 -180q0 -84 -25 -177t-66 -160q-33 -54 -84.5 -83.5t-112.5 -29.5q-90 0 -138 61.5t-48 176.5zM133 214q0 -81 31.5 -125.5t87.5 -44.5q88 0 141 91q35 61 56 142.5t21 159.5q0 180 -114 180 q-46 0 -87.5 -27t-66.5 -73q-31 -58 -50 -140.5t-19 -162.5z" />
<glyph unicode="1" horiz-adv-x="567" d="M246 0l112 529q-94 -52 -184 -59l11 53q69 12 129 50.5t82 86.5h57l-141 -660h-66z" />
<glyph unicode="2" horiz-adv-x="567" d="M45 0q7 100 54 158.5t179 132.5q98 56 130 92q43 46 43 108q0 55 -34.5 88t-91.5 33q-64 0 -108 -43.5t-54 -116.5h-66q13 101 74.5 161.5t152.5 60.5q86 0 140.5 -51.5t54.5 -133.5q0 -81 -59 -145q-26 -27 -56.5 -48.5t-89.5 -54.5q-97 -52 -138 -90.5t-55 -88.5h344 l-13 -62h-407z" />
<glyph unicode="3" horiz-adv-x="567" d="M48 173v14h67v-7v-3q0 -58 40.5 -95.5t101.5 -37.5q69 0 117 46t48 113q0 56 -38 87t-108 31q-21 0 -41 -2l12 58q24 -3 39 -3q79 0 123.5 35.5t44.5 98.5q0 50 -33.5 79.5t-89.5 29.5q-61 0 -101.5 -35.5t-51.5 -98.5h-67q14 80 56 124q62 67 168 67q82 0 134.5 -45.5 t52.5 -116.5q0 -108 -117 -166q46 -25 66.5 -57t20.5 -80q0 -95 -68 -158.5t-171 -63.5q-92 0 -148.5 51.5t-56.5 134.5z" />
<glyph unicode="4" horiz-adv-x="567" d="M39 164l12 57l393 439h58l-93 -439h99l-12 -57h-99l-35 -164h-65l35 164h-293zM127 221h217l68 319z" />
<glyph unicode="5" horiz-adv-x="567" d="M63 173h68q1 -61 37 -95t100 -34q75 0 127.5 54.5t52.5 133.5q0 63 -39 102t-102 39q-96 0 -149 -70h-61l107 357h331l-13 -62h-271l-63 -206q63 38 132 38q86 0 140 -55t54 -142q0 -105 -72 -175.5t-179 -70.5q-94 0 -145.5 48t-54.5 138z" />
<glyph unicode="6" horiz-adv-x="567" d="M538 505h-68q0 44 -18 69q-31 43 -92 43q-77 0 -135 -72t-80 -196q43 44 83 63.5t89 19.5q86 0 139 -53.5t53 -141.5q0 -107 -68 -178.5t-169 -71.5q-96 0 -149 68t-53 190q0 185 83 307t208 122q77 0 127 -45t50 -115v-9zM143 190q0 -66 36 -106t96 -40q70 0 117 53.5 t47 133.5q0 68 -34 106t-95 38q-70 0 -118.5 -53.5t-48.5 -131.5z" />
<glyph unicode="7" horiz-adv-x="567" d="M154 0q102 318 343 598h-377l13 62h446l-13 -62q-99 -111 -200 -288t-140 -310h-72z" />
<glyph unicode="8" horiz-adv-x="567" d="M56 174q0 68 38.5 117t109.5 71q-77 45 -77 130q0 77 60 129.5t149 52.5q83 0 135 -45t52 -116q0 -70 -47 -117q-24 -24 -75 -44q98 -44 98 -149q0 -93 -67 -154.5t-169 -61.5q-92 0 -149.5 52t-57.5 135zM317 381q60 0 99 35.5t39 90.5q0 50 -33 80t-88 30 q-59 0 -98 -36t-39 -91q0 -50 32.5 -79.5t87.5 -29.5zM124 176q0 -58 40.5 -95t102.5 -37q70 0 117 45t47 112q0 60 -38.5 94.5t-105.5 34.5q-72 0 -117.5 -43t-45.5 -111z" />
<glyph unicode="9" horiz-adv-x="567" d="M62 155h66q4 -53 33.5 -82t80.5 -29q49 0 92.5 31.5t74.5 90.5q22 43 46 141q-77 -76 -165 -76t-142 54.5t-54 143.5q0 102 68.5 173.5t166.5 71.5q87 0 140 -55q63 -64 63 -201q0 -195 -96 -325q-78 -106 -200 -106q-102 0 -147 77q-26 43 -27 91zM294 288 q71 0 119 52.5t48 129.5q0 67 -35 107t-94 40q-70 0 -117.5 -54t-47.5 -133q0 -65 34.5 -103.5t92.5 -38.5z" />
<glyph unicode=":" horiz-adv-x="235" d="M101 380l20 95h88l-20 -95h-88zM20 0l20 95h88l-20 -95h-88z" />
<glyph unicode=";" horiz-adv-x="235" d="M102 388l20 95h88l-20 -95h-88zM20 0l20 95h89l-19 -88q-15 -71 -41.5 -103.5t-73.5 -36.5l10 45q20 6 29.5 20.5t22.5 57.5l3 10h-40z" />
<glyph unicode="&#x3c;" d="M50 306v57l433 200v-64l-364 -164l364 -165v-64z" />
<glyph unicode="=" d="M42 389v36h449v-36h-449zM42 250v36h449v-36h-449z" />
<glyph unicode="&#x3e;" d="M50 106v65l364 164l-364 164v64l433 -200v-57z" />
<glyph unicode="?" horiz-adv-x="468" d="M182 164q12 80 38.5 121t94.5 82q64 39 87.5 69t23.5 73q0 52 -34.5 85t-88.5 33q-64 0 -105.5 -42.5t-46.5 -111.5h-68q2 96 61 153.5t156 57.5q86 0 140 -48.5t54 -125.5q0 -54 -30.5 -97t-100.5 -86q-65 -40 -84.5 -68t-28.5 -95h-68zM145 0l20 90h79l-20 -90h-79z " />
<glyph unicode="@" horiz-adv-x="692" d="M632 167l30 -1q-26 -59 -78 -101q-93 -73 -209 -73q-137 0 -232.5 96t-95.5 233q0 140 97.5 238t236.5 98q125 0 210.5 -79t85.5 -194t-85 -186q-61 -52 -121 -52q-29 0 -47 15t-21 43q-50 -56 -109 -56q-44 0 -72 32.5t-28 84.5q0 90 58 163.5t129 73.5q65 0 90 -66 l19 51h38l-81 -235q-10 -29 -10 -43q0 -37 42 -37q50 0 101 49q68 65 68 162q0 105 -76.5 176t-189.5 71q-128 0 -216 -89.5t-88 -219.5q0 -127 86 -214t211 -87q80 0 150.5 40.5t106.5 106.5zM418 286l23 63q13 36 13 54q0 31 -19 52.5t-46 21.5q-57 0 -105.5 -69.5 t-48.5 -150.5q0 -39 17.5 -61.5t47.5 -22.5q41 0 74 33q23 25 44 80z" />
<glyph unicode="A" horiz-adv-x="593" d="M-30 0l386 667h75l112 -667h-73l-33 206h-275l-115 -206h-77zM194 263h234l-49 333z" />
<glyph unicode="B" horiz-adv-x="614" d="M30 0l142 667h173q119 0 170 -32q63 -39 63 -127q0 -117 -126 -161q51 -15 79 -53.5t28 -94.5q0 -94 -75 -150q-40 -29 -88.5 -39t-146.5 -10h-219zM177 377h130q63 0 96 6.5t59 24.5q49 35 49 100q0 54 -37 79q-33 23 -127 23h-121zM109 57h149q74 0 110.5 6.5 t63.5 24.5q28 18 44 49.5t16 67.5q0 63 -43 90q-38 25 -146 25h-138z" />
<glyph unicode="C" horiz-adv-x="671" d="M562 217h72q-23 -104 -108 -169t-200 -65q-124 0 -194.5 76t-70.5 210q0 96 35.5 183t99.5 148q90 84 228 84q107 0 172.5 -54.5t74.5 -150.5h-68q-8 70 -55 109t-123 39q-128 0 -212.5 -101.5t-84.5 -255.5q0 -110 52.5 -170t148.5 -60q83 0 145 47t88 130z" />
<glyph unicode="D" horiz-adv-x="659" d="M30 0l142 667h165q84 0 133 -12.5t83 -43.5q77 -71 77 -209q0 -89 -32 -172t-90 -141q-63 -65 -142 -79q-51 -10 -166 -10h-170zM109 57h105q104 0 155.5 16.5t95.5 64.5q98 106 98 259q0 112 -59 168q-26 25 -65 35t-107 10h-106z" />
<glyph unicode="E" horiz-adv-x="536" d="M30 0l142 667h382l-12 -57h-316l-50 -236h323l-12 -57h-323l-55 -260h362l-12 -57h-429z" />
<glyph unicode="F" horiz-adv-x="477" d="M30 0l142 667h352l-12 -57h-282l-52 -242h293l-12 -57h-293l-66 -311h-70z" />
<glyph unicode="G" horiz-adv-x="709" d="M530 0l17 94q-53 -58 -108 -84.5t-124 -26.5q-114 0 -182 77.5t-68 207.5q0 178 102 297t254 119q130 0 200 -90q34 -45 44 -120h-68q-11 74 -57 113.5t-119 39.5q-121 0 -205 -103.5t-84 -252.5q0 -108 51.5 -170t141.5 -62q66 0 123.5 35t97.5 100q34 54 43 114h-225 l11 53h286l-72 -341h-59z" />
<glyph unicode="H" horiz-adv-x="646" d="M30 0l142 667h66l-61 -288h346l61 288h67l-142 -667h-66l68 322h-346l-68 -322h-67z" />
<glyph unicode="I" horiz-adv-x="233" d="M30 0l142 667h66l-141 -667h-67z" />
<glyph unicode="J" horiz-adv-x="453" d="M458 667l-95 -448q-16 -78 -26 -107.5t-27 -55.5q-23 -34 -62 -53.5t-85 -19.5q-73 0 -118 40.5t-45 106.5q0 28 9 84h65q-10 -54 -10 -79q0 -44 26.5 -69.5t71.5 -25.5q65 0 94 50q21 36 44 146l91 431h67z" />
<glyph unicode="K" horiz-adv-x="609" d="M30 0l142 667h66l-74 -352l381 352h91l-306 -276l235 -391h-80l-204 348l-137 -125l-47 -223h-67z" />
<glyph unicode="L" horiz-adv-x="526" d="M30 0l142 667h66l-129 -610h355l-12 -57h-422z" />
<glyph unicode="M" horiz-adv-x="785" d="M30 0l142 667h92l67 -381l11 -73q3 -25 15 -98l6 -36q64 121 108 198l220 390h99l-142 -667h-66l75 354q17 77 49 220l-326 -574h-63l-103 574l-25 -132q-3 -15 -5.5 -29.5t-4.5 -25.5t-3 -14l-79 -373h-67z" />
<glyph unicode="N" horiz-adv-x="664" d="M30 0l142 667h73l106 -256l60 -151q48 -124 68 -173l14 68l13 64q5 19 16 73l80 375h67l-142 -667h-76l-161 391q0 1 -31 82l-40 103q-7 -34 -14 -66l-22 -104l-86 -406h-67z" />
<glyph unicode="O" horiz-adv-x="725" d="M70 279q0 90 29.5 170.5t83.5 137.5q44 46 105 71.5t128 25.5q127 0 202 -77q73 -76 73 -217q0 -83 -28.5 -164.5t-78.5 -139.5q-43 -49 -104.5 -76t-131.5 -27q-127 0 -202.5 80t-75.5 216zM137 277q0 -108 57 -172.5t153 -64.5q120 0 198.5 97t78.5 244q0 118 -54 182 t-155 64q-117 0 -188 -87q-43 -51 -66.5 -120.5t-23.5 -142.5z" />
<glyph unicode="P" horiz-adv-x="556" d="M30 0l142 667h183q105 0 157 -42q56 -47 56 -136q0 -95 -63 -150q-32 -29 -75 -40.5t-116 -11.5h-156l-61 -287h-67zM170 344h140q59 0 91 8t54 28q47 42 47 109q0 59 -39 90q-21 18 -49.5 24.5t-83.5 6.5h-104z" />
<glyph unicode="Q" horiz-adv-x="725" d="M579 -73l-92 87q-65 -31 -139 -31q-127 0 -202.5 80t-75.5 216q0 176 98.5 290.5t249.5 114.5q126 0 199.5 -77t73.5 -210q0 -112 -41 -205.5t-115 -149.5l81 -76zM409 160l81 -76q62 43 98 123.5t36 178.5q0 114 -55 177.5t-153 63.5q-119 0 -189 -87q-90 -109 -90 -263 q0 -108 57.5 -172.5t153.5 -64.5q50 0 92 17l-68 64z" />
<glyph unicode="R" horiz-adv-x="632" d="M30 0l142 667h208q109 0 160 -37q60 -44 60 -131q0 -141 -143 -173q40 -18 55.5 -43.5t15.5 -71.5q0 -31 -4 -65l-5 -46q-3 -25 -3 -44q0 -33 13 -56h-75q-4 21 -4 61q0 18 5 62l5 50q1 10 1 31q0 54 -24 76q-16 14 -37.5 18.5t-77.5 4.5h-161l-64 -303h-67zM173 360h136 q123 0 168 28q25 16 40.5 46t15.5 65q0 54 -35 83q-35 28 -120 28h-152z" />
<glyph unicode="S" horiz-adv-x="584" d="M36 216h68q0 -73 24 -109q45 -67 157 -67q77 0 126 36t49 94q0 46 -30 76q-23 22 -98 53l-79 33q-77 32 -109.5 69.5t-32.5 93.5q0 83 65 136t167 53q111 0 168.5 -54t59.5 -159h-67q-1 68 -20 96q-41 60 -139 60q-73 0 -120 -34.5t-47 -89.5q0 -38 25.5 -63t91.5 -52 l61 -25q96 -39 130 -76q41 -46 41 -109q0 -87 -68 -141t-178 -54q-112 0 -178.5 57t-66.5 154v22z" />
<glyph unicode="T" horiz-adv-x="496" d="M170 0l130 610h-214l12 57h476l-12 -57h-196l-129 -610h-67z" />
<glyph unicode="U" horiz-adv-x="659" d="M664 667l-88 -416q-17 -82 -36.5 -125.5t-53.5 -75.5q-70 -67 -184 -67q-103 0 -165.5 48.5t-62.5 128.5q0 50 18 133l80 374h67l-87 -409q-9 -41 -9 -81q0 -64 42 -100.5t115 -36.5q92 0 143 56q24 27 39 63.5t30 107.5l86 400h66z" />
<glyph unicode="V" horiz-adv-x="522" d="M191 0l-116 667h70l74 -470q18 -112 18 -113q14 30 21 44l15 32l17 37l223 470h74l-325 -667h-71z" />
<glyph unicode="W" horiz-adv-x="767" d="M138 0l-63 667h69l35 -430l9 -140q24 68 48 128l179 442h75l50 -430l5 -47q1 -24 4 -40l5 -39l1 -14q5 12 5 13q13 40 37 108l166 449h69l-256 -667h-70l-52 449l-14 128q-11 -31 -47 -121l-184 -456h-71z" />
<glyph unicode="X" horiz-adv-x="520" d="M-17 0l258 343l-156 324h78l119 -267l198 267h81l-248 -324l171 -343h-76l-138 285l-206 -285h-81z" />
<glyph unicode="Y" horiz-adv-x="494" d="M160 0l58 271l-133 396h74l66 -220l10 -32l12 -38l11 -38l4 -11q47 70 83 119l159 220h75l-296 -403l-56 -264h-67z" />
<glyph unicode="Z" horiz-adv-x="522" d="M-6 0l15 68l453 542h-369l13 57h454l-12 -57l-463 -553h400l-12 -57h-479z" />
<glyph unicode="[" horiz-adv-x="300" d="M67 -114h95l-12 -57h-160l179 840h144l-12 -57h-79z" />
<glyph unicode="\" horiz-adv-x="322" d="M153 0l-10 674h62l11 -674h-63z" />
<glyph unicode="]" horiz-adv-x="300" d="M-2 -114h79l155 726h-95l12 57h160l-179 -840h-144z" />
<glyph unicode="^" d="M51 379l178 289h75l178 -289h-63l-153 245l-153 -245h-62z" />
<glyph unicode="_" d="M0 -74h500v-44h-500v44z" />
<glyph unicode="`" d="M288 554l-131 129h92l94 -129h-55z" />
<glyph unicode="a" horiz-adv-x="498" d="M456 52l-11 -52q-27 -8 -53 -8q-30 0 -44 15t-18 51q-65 -71 -155 -71q-70 0 -111 36.5t-41 98.5q0 38 16.5 69.5t45.5 48.5q42 23 149 36l76 9q53 6 59 20q12 29 12 65q0 34 -29 53.5t-79 19.5q-58 0 -90 -23t-49 -78h-66q25 77 64 109q53 45 148 45q77 0 120 -32.5 t43 -90.5q0 -19 -11 -70l-39 -185q-5 -22 -5 -36q0 -39 37 -39q13 0 31 9zM287 232l-68 -8q-68 -8 -99 -31q-34 -26 -34 -68q0 -39 25 -62t67 -23q80 0 127 59q28 36 50 125l5 21q-38 -9 -73 -13z" />
<glyph unicode="b" horiz-adv-x="547" d="M20 0l142 667h60l-52 -243q41 40 76.5 56.5t78.5 16.5q82 0 131 -55t49 -147q0 -125 -79 -221q-72 -87 -178 -87q-103 0 -152 89l-16 -76h-60zM123 181q0 -63 33 -102t87 -39q86 0 141 78q57 81 57 179q0 69 -32.5 108t-90.5 39q-74 0 -126 -62q-32 -39 -50.5 -93.5 t-18.5 -107.5z" />
<glyph unicode="c" horiz-adv-x="515" d="M400 161h68q-31 -84 -91 -129t-140 -45q-94 0 -148 56.5t-54 155.5q0 130 73 213.5t187 83.5q86 0 138 -46t56 -126h-66q-7 52 -25 74q-36 45 -103 45q-69 0 -115 -46q-36 -35 -56.5 -88t-20.5 -109q0 -74 38 -117t103 -43q51 0 92 32t64 89z" />
<glyph unicode="d" horiz-adv-x="545" d="M359 0l12 58q-72 -71 -157 -71q-81 0 -129 55t-48 148q0 127 74 216.5t178 89.5q112 0 154 -100l58 271h60l-142 -667h-60zM101 189q0 -67 33.5 -108t87.5 -41q38 0 74.5 20.5t58.5 54.5q24 38 40.5 93t16.5 97q0 65 -32 101.5t-89 36.5q-68 0 -117 -55q-33 -39 -53 -93 t-20 -106z" />
<glyph unicode="e" horiz-adv-x="527" d="M397 158h64q-28 -83 -86 -127t-139 -44q-92 0 -144 55.5t-52 154.5q0 127 74.5 212.5t184.5 85.5q85 0 133.5 -53.5t48.5 -146.5q0 -29 -5 -63h-372q-3 -26 -3 -44q0 -64 38.5 -106t97.5 -42q55 0 97 31t63 87zM114 280h304l1 29q2 61 -32.5 97t-92.5 36q-63 0 -112 -44 t-68 -118z" />
<glyph unicode="f" horiz-adv-x="247" d="M34 0l91 435h-89l10 48h90l16 71q18 80 46 101q26 20 74 20q17 0 44 -3l-11 -52q-18 2 -23 2q-32 0 -47 -17t-26 -66l-13 -56h94l-10 -48h-95l-91 -435h-60z" />
<glyph unicode="g" horiz-adv-x="544" d="M21 -19h67q-1 -6 -1 -16q0 -38 28.5 -58t82.5 -20q73 0 110.5 35.5t56.5 123.5q-69 -59 -142 -59q-83 0 -134 58t-51 153q0 124 73 211t176 87t156 -93l17 80h60l-79 -370q-20 -92 -34.5 -134.5t-38.5 -73.5q-56 -71 -172 -71q-123 0 -162 75q-13 25 -13 72zM103 196 q0 -71 35.5 -113.5t95.5 -42.5q37 0 75 22t58 55q20 34 34 86.5t14 95.5q0 66 -33 105t-88 39q-81 0 -136 -71t-55 -176z" />
<glyph unicode="h" horiz-adv-x="540" d="M20 0l142 667h60l-54 -255q46 46 87 65.5t90 19.5q67 0 104 -32t37 -90q0 -31 -7 -62l-66 -313h-60l68 321q5 27 5 40q0 83 -92 83q-69 0 -123 -45q-31 -26 -48.5 -60t-30.5 -93l-52 -246h-60z" />
<glyph unicode="i" horiz-adv-x="207" d="M142 575l20 92h60l-20 -92h-60zM20 0l103 483h60l-103 -483h-60z" />
<glyph unicode="j" horiz-adv-x="207" d="M143 575l19 92h60l-19 -92h-60zM12 -38l111 521h60l-113 -534q-14 -68 -35 -91.5t-67 -23.5q-19 0 -47 4l12 52q18 -3 26 -3q23 0 33 14t20 61z" />
<glyph unicode="k" horiz-adv-x="490" d="M20 0l142 667h60l-90 -422l287 238h90l-219 -175l147 -308h-71l-122 270l-128 -102l-36 -168h-60z" />
<glyph unicode="l" horiz-adv-x="207" d="M20 0l142 667h60l-142 -667h-60z" />
<glyph unicode="m" horiz-adv-x="795" d="M20 0l103 483h60l-13 -59q44 41 78.5 56.5t80.5 15.5q97 0 116 -83q76 83 175 83q57 0 91 -29t34 -78q0 -29 -11 -84l-65 -305h-60l62 293q12 55 12 80q0 70 -74 70q-72 0 -120 -53q-42 -47 -67 -161l-48 -229h-60l62 293q13 64 13 81q0 33 -18.5 51t-52.5 18 q-37 0 -72 -18.5t-59 -50.5q-38 -50 -60 -153l-47 -221h-60z" />
<glyph unicode="n" horiz-adv-x="517" d="M20 0l103 483h60l-13 -62q78 75 163 75q63 0 97.5 -31.5t34.5 -88.5q0 -29 -11 -81l-63 -295h-60l62 289q12 55 12 82q0 34 -21 53t-58 19q-64 0 -118 -46q-30 -25 -46 -56.5t-29 -91.5l-53 -249h-60z" />
<glyph unicode="o" horiz-adv-x="556" d="M41 203q0 127 74.5 210t187.5 83q98 0 153 -56t55 -157q0 -61 -22 -120.5t-59 -100.5q-67 -75 -179 -75q-96 0 -153 58.5t-57 157.5zM104 203q0 -74 40.5 -118.5t108.5 -44.5q84 0 139.5 66.5t55.5 167.5q0 81 -38.5 125t-108.5 44q-83 0 -134 -60q-63 -76 -63 -180z" />
<glyph unicode="p" horiz-adv-x="547" d="M96 79l-49 -232h-60l135 636h60l-13 -63q71 77 155 77q79 0 130 -57.5t51 -147.5q0 -119 -77 -217q-69 -88 -174 -88t-158 92zM125 174q0 -61 34 -97.5t90 -36.5q83 0 140 81q53 76 53 172q0 72 -32.5 111t-93.5 39q-83 0 -131 -69q-60 -85 -60 -200z" />
<glyph unicode="q" horiz-adv-x="545" d="M326 -153l44 204q-67 -64 -151 -64q-83 0 -131 54.5t-48 149.5q0 130 71 217.5t176 87.5q107 0 157 -93l18 80h59l-135 -636h-60zM103 195q0 -73 33 -114t92 -41q43 0 82.5 24.5t61.5 65.5q21 37 35 88.5t14 88.5q0 64 -34 100t-93 36q-80 0 -135.5 -72t-55.5 -176z" />
<glyph unicode="r" horiz-adv-x="321" d="M20 0l104 491h60l-18 -88q31 50 65.5 72t82.5 22q20 0 38 -6l-12 -54q-20 4 -32 4q-134 0 -194 -282l-34 -159h-60z" />
<glyph unicode="s" horiz-adv-x="467" d="M233 281l55 -22q61 -25 87 -53.5t26 -71.5q0 -65 -51.5 -106t-132.5 -41q-119 0 -171 74q-22 34 -25 102h67v-11v-7q0 -47 36 -76t94 -29q53 0 86.5 25t33.5 64q0 27 -18.5 44t-68.5 37l-60 24q-105 42 -105 125q0 60 49 98.5t126 38.5q82 0 130 -39t50 -108h-61 q0 43 -31.5 68.5t-84.5 25.5q-49 0 -81.5 -23.5t-32.5 -58.5q0 -28 17 -44t66 -36z" />
<glyph unicode="t" horiz-adv-x="273" d="M231 59l-11 -51q-42 -15 -78 -15q-39 0 -61 19.5t-22 53.5q0 28 11 77l61 287h-84l10 53h84l33 150h60l-33 -150h91l-11 -53h-90l-61 -287q-9 -45 -9 -59q0 -38 42 -38q29 0 68 13z" />
<glyph unicode="u" horiz-adv-x="528" d="M341 0l14 63q-86 -76 -173 -76q-61 0 -97.5 31.5t-36.5 83.5q0 34 12 88l62 293h60l-66 -312q-8 -35 -8 -60q0 -34 23.5 -52.5t66.5 -18.5q88 0 144 78q23 31 34 62t28 112l40 191h60l-103 -483h-60z" />
<glyph unicode="v" horiz-adv-x="427" d="M128 0l-85 483h68l48 -283l20 -120l56 110l149 293h76l-258 -483h-74z" />
<glyph unicode="w" horiz-adv-x="659" d="M117 0l-74 483h67l33 -282l10 -80q1 -10 2 -19.5t2 -17t1 -10.5q2 6 18 46l16 39l17 41l121 283h72l33 -282q1 -10 2.5 -19t2 -16t1.5 -18l3 -30l4 -33l1 -11q1 2 20 49l31 78l120 282h72l-216 -483h-68l-37 260q0 2 -10 89l-4 38l-2 20l-21 -59l-37 -88l-113 -260h-67z " />
<glyph unicode="x" horiz-adv-x="436" d="M-27 0l200 241l-134 242h77l100 -189l149 189h83l-202 -242l137 -241h-75l-104 191l-148 -191h-83z" />
<glyph unicode="y" horiz-adv-x="421" d="M-3 -109q19 -3 27 -3q37 0 53 15q9 9 27 36.5t30 52.5l9 19l-113 472h70l56 -257l13 -61l7 -34q6 -30 6 -32l3 -13l65 131l131 266h73l-287 -548q-30 -58 -60 -80t-79 -22q-18 0 -42 4z" />
<glyph unicode="z" horiz-adv-x="430" d="M-19 0l10 49l360 385h-302l11 49h374l-13 -60l-349 -374h306l-11 -49h-386z" />
<glyph unicode="{" d="M141 -36l34 163q5 22 5 40q0 43 -42 57l10 48q34 10 51.5 31.5t26.5 63.5l39 180q14 67 48 99q39 35 126 35h12l-12 -56q-53 -1 -78 -22t-36 -73l-37 -172q-10 -48 -27.5 -72.5t-50.5 -38.5q36 -21 36 -64q0 -18 -6 -50l-35 -165q-6 -28 -6 -48q0 -31 30 -44q17 -7 49 -8 l-11 -53q-5 -1 -11 -1q-67 0 -93 16q-31 21 -31 69q0 21 9 65z" />
<glyph unicode="|" d="M234 -167v834h65v-834h-65z" />
<glyph unicode="}" d="M60 -129q53 1 78 22t36 73l37 171q10 49 27.5 73.5t50.5 38.5q-36 21 -36 64q0 18 6 50l35 164q6 30 6 49q0 31 -30 44q-20 7 -49 7l11 54q68 0 94 -11q41 -19 41 -73q0 -21 -9 -65l-34 -164q-5 -28 -5 -40q0 -43 42 -56l-10 -49q-35 -10 -52 -31t-26 -63l-39 -180 q-15 -71 -48 -100q-38 -35 -126 -35q-6 0 -12 1z" />
<glyph unicode="~" horiz-adv-x="667" d="M147 586l-36 28q52 107 133 107q36 0 116 -40q67 -34 97 -34q52 0 96 76l36 -27q-49 -107 -138 -107q-22 0 -42.5 7.5t-83.5 39.5q-53 27 -84 27q-51 0 -94 -77z" />
<glyph unicode="&#xa1;" horiz-adv-x="239" d="M114 410l19 90h79l-19 -90h-79zM44 66l73 273h49l-51 -288l-47 -218h-73z" />
<glyph unicode="&#xa2;" horiz-adv-x="567" d="M210 -12l22 104q-74 14 -113.5 67.5t-39.5 139.5q0 95 43 170t114 107q43 20 103 21l18 84h45l-19 -88q67 -10 107 -55.5t43 -113.5h-66q-7 96 -95 116l-85 -400q49 -1 93 32.5t64 88.5h68q-31 -84 -91 -129t-138 -45h-4h-3l-21 -99h-45zM243 147l85 396q-48 -3 -85 -29 q-42 -29 -69 -89.5t-27 -124.5q0 -123 96 -153z" />
<glyph unicode="&#xa3;" horiz-adv-x="567" d="M46 34q44 29 65 57q48 63 48 150q0 15 -4 58h-94l13 62h78q-15 68 -15 107q0 94 60 155t152 61q81 0 129 -48.5t48 -130.5q0 -3 -2 -25h-61q2 18 2 19q0 52 -19 81q-28 47 -98 47q-60 0 -100 -43q-42 -43 -42 -127q0 -41 12 -96h184l-13 -62h-168q5 -31 5 -52 q0 -42 -19 -83.5t-67 -107.5q41 24 85 24q27 0 82 -15q55 -16 80 -16q47 0 95 30l-13 -65q-51 -22 -94 -22q-36 0 -99 17q-53 14 -88 14q-27 0 -48 -7t-68 -33z" />
<glyph unicode="&#xa4;" horiz-adv-x="683" d="M90 109l89 92q-50 65 -50 142q0 67 51 140l-93 92l36 36l92 -93q73 52 143 52q39 0 70.5 -11.5t71.5 -40.5l93 92l35 -35l-92 -92q51 -68 51 -142q0 -67 -49 -140l91 -92l-35 -36l-92 92q-66 -51 -140 -51q-70 0 -146 51l-91 -91zM187 342q0 -71 50 -121.5t121 -50.5 t121 50.5t50 121.5t-50 122t-119 51q-73 0 -123 -50t-50 -123z" />
<glyph unicode="&#xa5;" horiz-adv-x="567" d="M194 0l56 264h-170l13 62h140l-40 119h-107l13 62h73l-54 160h75l47 -160h182l115 160h76l-117 -160h70l-14 -62h-102l-88 -119h131l-13 -62h-163l-57 -264h-66zM259 445l21 -68q14 -44 15 -49q59 86 70 100l13 17h-119z" />
<glyph unicode="&#xa6;" d="M234 336v331h65v-331h-65zM234 153h65v-320h-65v320z" />
<glyph unicode="&#xa7;" horiz-adv-x="575" d="M70 15h71v-9q0 -49 15 -75q25 -43 81 -43q43 0 71.5 26t28.5 65q0 29 -15 52.5t-60 64.5l-68 62q-66 61 -84 87q-26 41 -26 86q0 101 118 141q-17 43 -17 67q0 61 46 101t116 40q73 0 113.5 -41.5t40.5 -115.5q0 -11 -1 -18h-62q1 8 1 20q0 98 -89 98q-41 0 -69 -23.5 t-28 -58.5q0 -28 23 -59q15 -19 63 -62l70 -64q54 -49 74 -82.5t20 -76.5q0 -102 -120 -141q23 -42 23 -77q0 -62 -49.5 -105t-119.5 -43q-47 0 -87 21t-59 57q-20 35 -21 106zM232 212l48 -43q39 -35 75 -73q80 35 80 99q0 29 -19.5 57.5t-69.5 74.5l-45 41q-49 44 -66 65 q-83 -34 -83 -102q0 -28 17 -53t63 -66z" />
<glyph unicode="&#xa8;" d="M158 599l18 85h73l-18 -85h-73zM331 598l18 85h73l-18 -85h-73z" />
<glyph unicode="&#xa9;" horiz-adv-x="785" d="M65 333q0 145 101.5 245t247.5 100q139 0 239 -101.5t100 -243.5q0 -143 -100.5 -243.5t-243.5 -100.5q-142 0 -243 101t-101 243zM102 333q0 -128 90 -219t217 -91t217 91t90 220q0 127 -89.5 218.5t-213.5 91.5q-131 0 -221 -90t-90 -221zM559 296h35 q-5 -75 -55.5 -121t-125.5 -46q-86 0 -139 57t-53 148q0 92 54 149t140 57q68 0 117.5 -39t55.5 -98h-36q-10 46 -47 72.5t-90 26.5q-67 0 -108.5 -46.5t-41.5 -121.5t40.5 -121t107.5 -46q60 0 99 34.5t47 94.5z" />
<glyph unicode="&#xaa;" horiz-adv-x="326" d="M333 308l-8 -40q-18 -6 -37 -6q-33 0 -41 34q-46 -37 -94 -37q-44 0 -71 23t-27 60q0 52 41 73q28 15 94 22l46 5q29 3 33 10q6 21 6 36q0 19 -17.5 30t-46.5 11q-35 0 -53.5 -13t-28.5 -47h-49q18 53 49.5 75.5t87.5 22.5q50 0 77.5 -20t27.5 -57q0 -15 -6 -41l-24 -109 q-3 -15 -3 -20q0 -21 20 -21q10 0 24 9zM222 404l-43 -5q-77 -9 -77 -54q0 -22 15 -35t40 -13q41 0 65 25.5t38 80.5l2 8q-8 -2 -40 -7z" />
<glyph unicode="&#xab;" horiz-adv-x="436" d="M219 230l11 54l188 132l-15 -68l-136 -99l94 -98l-13 -61zM172 90l-130 140l11 54l188 132l-15 -68l-135 -99l93 -98z" />
<glyph unicode="&#xac;" d="M50 218v57h433v-275h-63v218h-370z" />
<glyph unicode="&#xad;" horiz-adv-x="217" d="M-6 222l13 62h217l-13 -62h-217z" />
<glyph unicode="&#xae;" horiz-adv-x="785" d="M65 333q0 145 101 245t247 100q140 0 240 -101.5t100 -243.5q0 -143 -100.5 -243.5t-243.5 -100.5q-142 0 -243 101t-101 243zM102 333q0 -128 90 -219t217 -91t217 91t90 219q0 127 -89.5 219t-213.5 92q-131 0 -221 -90t-90 -221zM261 132v395h166q67 0 102.5 -28 t35.5 -80q0 -70 -73 -96q39 -13 52 -37.5t15 -88.5q1 -46 12 -65h-43q-9 13 -11 73q-2 42 -7.5 59t-20.5 27q-25 16 -80 16h-105v-175h-43zM304 337h106q112 0 112 80q0 79 -103 79h-115v-159z" />
<glyph unicode="&#xaf;" d="M155 588l13 62h303l-13 -62h-303z" />
<glyph unicode="&#xb0;" d="M267 385q-58 0 -98.5 40.5t-40.5 98.5t40.5 98t98.5 40t98 -40.5t40 -98.5q0 -56 -41 -97t-97 -41zM267 418q42 0 73.5 31t31.5 73q0 45 -31 76.5t-76 31.5q-42 0 -73 -31.5t-31 -74.5q0 -44 31.5 -75t74.5 -31z" />
<glyph unicode="&#xb1;" d="M247 143v189h-205v37h205v191h38v-191h206v-37h-206v-189h-38zM42 62v37h449v-37h-449z" />
<glyph unicode="&#xb2;" horiz-adv-x="367" d="M67 267q5 62 33.5 97.5t110.5 80.5q62 34 83 57.5t21 57.5q0 31 -20 49.5t-53 18.5q-39 0 -65 -25.5t-31 -69.5h-48q8 64 46.5 101t96.5 37q53 0 87.5 -32t34.5 -81q0 -45 -28.5 -78.5t-98.5 -70.5q-56 -29 -81 -50.5t-34 -48.5h210l-9 -43h-255z" />
<glyph unicode="&#xb3;" horiz-adv-x="367" d="M155 552h-47q10 58 46 88.5t94 30.5q52 0 85 -27.5t33 -71.5q0 -57 -66 -99q27 -19 37 -36t10 -44q0 -58 -42.5 -96.5t-106.5 -38.5q-57 0 -92.5 31.5t-35.5 82.5v11h47v-6q0 -35 23.5 -57t60.5 -22q40 0 68.5 26.5t28.5 64.5q0 32 -22.5 49.5t-63.5 17.5q-15 0 -29 -2 l9 42q12 -2 27 -2q47 0 73 20t26 57q0 27 -19.5 43.5t-52.5 16.5q-75 0 -91 -79z" />
<glyph unicode="&#xb4;" d="M246 554l98 131h97l-138 -131h-57z" />
<glyph unicode="&#xb5;" d="M128 63v-228h-56v645h56v-276q0 -53 7.5 -79.5t28.5 -48.5q39 -42 97 -42q64 0 104.5 50.5t40.5 130.5v265h56v-480h-56v97q-44 -111 -146 -111q-84 0 -132 77z" />
<glyph unicode="&#xb6;" horiz-adv-x="541" d="M148 -113l90 425h-16q-70 0 -111 37t-41 100q0 47 23.5 93t62.5 76q63 49 172 49h232l-7 -31h-59l-160 -749h-37l159 749h-111l-160 -749h-37z" />
<glyph unicode="&#xb7;" horiz-adv-x="235" d="M64 206l20 95h88l-20 -95h-88z" />
<glyph unicode="&#xb8;" d="M160 -72l66 70h30l-50 -54q21 5 40 5q27 0 43.5 -13t16.5 -35q0 -36 -34 -61.5t-81 -25.5q-46 0 -91 21l15 25q40 -20 78 -20q29 0 50 15.5t21 36.5q0 33 -42 33q-22 0 -48 -11z" />
<glyph unicode="&#xb9;" horiz-adv-x="367" d="M179 267l68 309q-53 -27 -112 -32l8 38q43 7 79.5 29.5t50.5 51.5h40l-87 -396h-47z" />
<glyph unicode="&#xba;" horiz-adv-x="362" d="M201 259q-61 0 -98 36t-37 96q0 76 47 125.5t118 49.5q63 0 98.5 -34.5t35.5 -96.5q0 -76 -46.5 -126t-117.5 -50zM203 297q50 0 82.5 37.5t32.5 95.5q0 47 -23 72.5t-66 25.5q-50 0 -83 -38.5t-33 -97.5q0 -44 24.5 -69.5t65.5 -25.5z" />
<glyph unicode="&#xbb;" horiz-adv-x="436" d="M196 90l14 68l136 100l-94 98l13 60l129 -140l-11 -53zM19 90l14 68l136 100l-94 98l13 60l130 -140l-11 -53z" />
<glyph unicode="&#xbc;" horiz-adv-x="879" d="M180 0l502 669h52l-502 -669h-52zM179 267l68 309q-53 -27 -112 -32l8 38q43 7 79.5 29.5t50.5 51.5h40l-87 -396h-47zM518 97l9 38l241 261h41l-57 -259h61l-9 -40h-61l-21 -97h-46l21 97h-179zM584 137h122l38 174z" />
<glyph unicode="&#xbd;" horiz-adv-x="879" d="M180 0l502 669h52l-502 -669h-52zM179 267l68 309q-53 -27 -112 -32l8 38q43 7 79.5 29.5t50.5 51.5h40l-87 -396h-47zM523 0q4 61 33 97t111 81q61 33 82.5 57t21.5 58q0 31 -20 49.5t-53 18.5q-39 0 -65 -25t-32 -69h-47q8 63 46.5 100t96.5 37q53 0 87.5 -31.5 t34.5 -80.5q0 -46 -28.5 -79.5t-98.5 -70.5q-58 -31 -82 -51.5t-33 -47.5h210l-9 -43h-255z" />
<glyph unicode="&#xbe;" horiz-adv-x="879" d="M155 552h-47q10 58 46 88.5t94 30.5q52 0 85 -27.5t33 -71.5q0 -57 -66 -99q27 -19 37 -36t10 -44q0 -58 -42.5 -96.5t-106.5 -38.5q-57 0 -92.5 31.5t-35.5 82.5v11h47v-6q0 -35 23.5 -57t60.5 -22q40 0 68.5 26.5t28.5 64.5q0 32 -22.5 49.5t-63.5 17.5q-15 0 -29 -2 l9 42q12 -2 27 -2q47 0 73 20t26 57q0 27 -19.5 43.5t-52.5 16.5q-75 0 -91 -79zM180 0l502 669h52l-502 -669h-52zM518 97l9 38l241 261h41l-57 -259h61l-9 -40h-61l-21 -97h-46l21 97h-179zM584 137h122l38 174z" />
<glyph unicode="&#xbf;" horiz-adv-x="468" d="M228 427l19 90h79l-19 -90h-79zM320 43h68q-3 -96 -61.5 -152.5t-155.5 -56.5q-86 0 -140 48t-54 124q0 54 30.5 97t100.5 86q64 40 84 68.5t29 94.5h68q-11 -79 -38.5 -120.5t-94.5 -82.5q-64 -39 -87.5 -69t-23.5 -72q0 -52 34.5 -84.5t88.5 -32.5q64 0 105 41t47 111z " />
<glyph unicode="&#xc0;" horiz-adv-x="593" d="M368 722l-131 129h92l94 -129h-55zM-30 0l386 667h75l112 -667h-73l-33 206h-275l-115 -206h-77zM194 263h234l-49 333z" />
<glyph unicode="&#xc1;" horiz-adv-x="593" d="M376 721l98 131h97l-138 -131h-57zM-30 0l386 667h75l112 -667h-73l-33 206h-275l-115 -206h-77zM194 263h234l-49 333z" />
<glyph unicode="&#xc2;" horiz-adv-x="593" d="M264 724l125 126h79l80 -126h-68l-56 88l-89 -88h-71zM-30 0l386 667h75l112 -667h-73l-33 206h-275l-115 -206h-77zM194 263h234l-49 333z" />
<glyph unicode="&#xc3;" horiz-adv-x="593" d="M318 748l-44 21q38 72 86 72q15 0 57 -16l49 -19q35 -14 45 -14q23 0 36 32l46 -18q-20 -40 -40 -57t-47 -17q-18 0 -57 16l-53 22q-26 11 -37 11q-22 0 -41 -33zM-30 0l386 667h75l112 -667h-73l-33 206h-275l-115 -206h-77zM194 263h234l-49 333z" />
<glyph unicode="&#xc4;" horiz-adv-x="593" d="M463 745l18 85h67l-19 -85h-66zM266 745l18 85h67l-18 -85h-67zM-30 0l386 667h75l112 -667h-73l-33 206h-275l-115 -206h-77zM194 263h234l-49 333z" />
<glyph unicode="&#xc5;" horiz-adv-x="593" d="M407 727q-25 0 -42 16.5t-17 41.5q0 34 28 61t63 27q26 0 42.5 -16t16.5 -41q0 -34 -28 -61.5t-63 -27.5zM415 764q18 0 32 13.5t14 30.5q0 12 -8.5 20t-21.5 8q-18 0 -32 -13t-14 -30q0 -13 8.5 -21t21.5 -8zM-30 0l386 667h75l112 -667h-73l-33 206h-275l-115 -206h-77 zM194 263h234l-49 333z" />
<glyph unicode="&#xc6;" horiz-adv-x="857" d="M-30 0l392 667h513l-12 -57h-315l-51 -236h323l-12 -57h-323l-55 -260h362l-12 -57h-424l44 207h-236l-119 -207h-75zM195 264h217l74 347h-88z" />
<glyph unicode="&#xc7;" horiz-adv-x="671" d="M205 -142q40 -20 78 -20q30 0 52 15.5t22 37.5q0 15 -12 24t-32 9q-21 0 -49 -10l-14 14l51 56q-113 8 -176.5 83t-63.5 202q0 96 35.5 183t99.5 148q90 84 228 84q107 0 172.5 -54.5t74.5 -150.5h-68q-8 70 -55 109t-123 39q-128 0 -212.5 -101.5t-84.5 -255.5 q0 -110 52.5 -170t148.5 -60q83 0 145 47t88 130h72q-23 -103 -106 -167.5t-195 -66.5l-35 -37q28 4 39 4q30 0 47 -13.5t17 -36.5q0 -37 -34.5 -63t-83.5 -26q-48 0 -95 22z" />
<glyph unicode="&#xc8;" horiz-adv-x="536" d="M336 722l-131 129h92l94 -129h-55zM30 0l142 667h382l-12 -57h-316l-50 -236h323l-12 -57h-323l-55 -260h362l-12 -57h-429z" />
<glyph unicode="&#xc9;" horiz-adv-x="536" d="M340 721l98 131h97l-138 -131h-57zM30 0l142 667h382l-12 -57h-316l-50 -236h323l-12 -57h-323l-55 -260h362l-12 -57h-429z" />
<glyph unicode="&#xca;" horiz-adv-x="536" d="M229 724l125 126h79l80 -126h-68l-56 88l-89 -88h-71zM30 0l142 667h382l-12 -57h-316l-50 -236h323l-12 -57h-323l-55 -260h362l-12 -57h-429z" />
<glyph unicode="&#xcb;" horiz-adv-x="536" d="M441 745l18 85h67l-19 -85h-66zM244 745l18 85h67l-18 -85h-67zM30 0l142 667h382l-12 -57h-316l-50 -236h323l-12 -57h-323l-55 -260h362l-12 -57h-429z" />
<glyph unicode="&#xcc;" horiz-adv-x="233" d="M188 722l-131 129h92l94 -129h-55zM30 0l142 667h66l-141 -667h-67z" />
<glyph unicode="&#xcd;" horiz-adv-x="233" d="M189 721l98 131h97l-138 -131h-57zM30 0l142 667h66l-141 -667h-67z" />
<glyph unicode="&#xce;" horiz-adv-x="233" d="M75 724l125 126h79l80 -126h-68l-56 88l-89 -88h-71zM30 0l142 667h66l-141 -667h-67z" />
<glyph unicode="&#xcf;" horiz-adv-x="233" d="M278 745l18 85h60l-18 -85h-60zM101 745l18 85h60l-18 -85h-60zM30 0l142 667h66l-141 -667h-67z" />
<glyph unicode="&#xd0;" horiz-adv-x="659" d="M30 0l67 317h-34l12 57h34l63 293h165q84 0 133 -12.5t83 -43.5q77 -71 77 -208q0 -90 -32 -173t-90 -141q-63 -65 -143 -79q-50 -10 -165 -10h-170zM109 57h105q104 0 155.5 16.5t95.5 64.5q98 106 98 260q0 111 -59 167q-26 25 -65 35t-107 10h-106l-50 -236h222 l-13 -57h-221z" />
<glyph unicode="&#xd1;" horiz-adv-x="664" d="M337 748l-44 21q38 72 86 72q15 0 57 -16l49 -19q35 -14 45 -14q23 0 36 32l46 -18q-20 -40 -40 -57t-47 -17q-18 0 -57 16l-53 22q-26 11 -37 11q-22 0 -41 -33zM30 0l142 667h73l106 -256l60 -151q48 -124 68 -173l14 68l13 64q5 19 16 73l80 375h67l-142 -667h-76 l-161 391q0 1 -31 82l-40 103q-7 -34 -14 -66l-22 -104l-86 -406h-67z" />
<glyph unicode="&#xd2;" horiz-adv-x="725" d="M404 722l-131 129h92l94 -129h-55zM70 279q0 90 29.5 170.5t83.5 137.5q44 46 105 71.5t128 25.5q127 0 202 -77q73 -76 73 -217q0 -83 -28.5 -164.5t-78.5 -139.5q-43 -49 -104.5 -76t-131.5 -27q-127 0 -202.5 80t-75.5 216zM137 277q0 -108 57 -172.5t153 -64.5 q120 0 198.5 97t78.5 244q0 118 -54 182t-155 64q-117 0 -188 -87q-43 -51 -66.5 -120.5t-23.5 -142.5z" />
<glyph unicode="&#xd3;" horiz-adv-x="725" d="M399 721l98 131h97l-138 -131h-57zM70 279q0 90 29.5 170.5t83.5 137.5q44 46 105 71.5t128 25.5q127 0 202 -77q73 -76 73 -217q0 -83 -28.5 -164.5t-78.5 -139.5q-43 -49 -104.5 -76t-131.5 -27q-127 0 -202.5 80t-75.5 216zM137 277q0 -108 57 -172.5t153 -64.5 q120 0 198.5 97t78.5 244q0 118 -54 182t-155 64q-117 0 -188 -87q-43 -51 -66.5 -120.5t-23.5 -142.5z" />
<glyph unicode="&#xd4;" horiz-adv-x="725" d="M314 724l125 126h79l80 -126h-68l-56 88l-89 -88h-71zM70 279q0 90 29.5 170.5t83.5 137.5q44 46 105 71.5t128 25.5q127 0 202 -77q73 -76 73 -217q0 -83 -28.5 -164.5t-78.5 -139.5q-43 -49 -104.5 -76t-131.5 -27q-127 0 -202.5 80t-75.5 216zM137 277 q0 -108 57 -172.5t153 -64.5q120 0 198.5 97t78.5 244q0 118 -54 182t-155 64q-117 0 -188 -87q-43 -51 -66.5 -120.5t-23.5 -142.5z" />
<glyph unicode="&#xd5;" horiz-adv-x="725" d="M351 748l-44 21q38 72 86 72q15 0 57 -16l49 -19q35 -14 45 -14q23 0 36 32l46 -18q-20 -40 -40 -57t-47 -17q-18 0 -57 16l-53 22q-26 11 -37 11q-22 0 -41 -33zM70 279q0 90 29.5 170.5t83.5 137.5q44 46 105 71.5t128 25.5q127 0 202 -77q73 -76 73 -217 q0 -83 -28.5 -164.5t-78.5 -139.5q-43 -49 -104.5 -76t-131.5 -27q-127 0 -202.5 80t-75.5 216zM137 277q0 -108 57 -172.5t153 -64.5q120 0 198.5 97t78.5 244q0 118 -54 182t-155 64q-117 0 -188 -87q-43 -51 -66.5 -120.5t-23.5 -142.5z" />
<glyph unicode="&#xd6;" horiz-adv-x="725" d="M526 745l18 85h67l-19 -85h-66zM329 745l18 85h67l-18 -85h-67zM70 279q0 90 29.5 170.5t83.5 137.5q44 46 105 71.5t128 25.5q127 0 202 -77q73 -76 73 -217q0 -83 -28.5 -164.5t-78.5 -139.5q-43 -49 -104.5 -76t-131.5 -27q-127 0 -202.5 80t-75.5 216zM137 277 q0 -108 57 -172.5t153 -64.5q120 0 198.5 97t78.5 244q0 118 -54 182t-155 64q-117 0 -188 -87q-43 -51 -66.5 -120.5t-23.5 -142.5z" />
<glyph unicode="&#xd7;" d="M106 151l-26 26l161 161l-160 159l26 26l159 -160l161 161l26 -26l-161 -161l161 -160l-26 -26l-160 161z" />
<glyph unicode="&#xd8;" horiz-adv-x="725" d="M101 -2l46 64q-77 81 -77 218q0 176 98 290t249 114q90 0 153 -40l38 53l39 -28l-39 -53q83 -77 83 -220q0 -89 -28 -170t-79 -140q-43 -49 -104.5 -76t-130.5 -27q-95 0 -166 48l-44 -61zM185 114l349 481q-50 32 -118 32q-118 0 -189 -87q-90 -109 -90 -263 q0 -98 48 -163zM220 81q53 -41 128 -41q121 0 198.5 97.5t77.5 249.5q0 113 -54 176z" />
<glyph unicode="&#xd9;" horiz-adv-x="659" d="M398 722l-131 129h92l94 -129h-55zM664 667l-88 -416q-17 -82 -36.5 -125.5t-53.5 -75.5q-70 -67 -184 -67q-103 0 -165.5 48.5t-62.5 128.5q0 50 18 133l80 374h67l-87 -409q-9 -41 -9 -81q0 -64 42 -100.5t115 -36.5q92 0 143 56q24 27 39 63.5t30 107.5l86 400h66z " />
<glyph unicode="&#xda;" horiz-adv-x="659" d="M393 721l98 131h97l-138 -131h-57zM664 667l-88 -416q-17 -82 -36.5 -125.5t-53.5 -75.5q-70 -67 -184 -67q-103 0 -165.5 48.5t-62.5 128.5q0 50 18 133l80 374h67l-87 -409q-9 -41 -9 -81q0 -64 42 -100.5t115 -36.5q92 0 143 56q24 27 39 63.5t30 107.5l86 400h66z " />
<glyph unicode="&#xdb;" horiz-adv-x="659" d="M294 724l125 126h79l80 -126h-68l-56 88l-89 -88h-71zM664 667l-88 -416q-17 -82 -36.5 -125.5t-53.5 -75.5q-70 -67 -184 -67q-103 0 -165.5 48.5t-62.5 128.5q0 50 18 133l80 374h67l-87 -409q-9 -41 -9 -81q0 -64 42 -100.5t115 -36.5q92 0 143 56q24 27 39 63.5 t30 107.5l86 400h66z" />
<glyph unicode="&#xdc;" horiz-adv-x="659" d="M499 745l18 85h67l-19 -85h-66zM302 745l18 85h67l-18 -85h-67zM664 667l-88 -416q-17 -82 -36.5 -125.5t-53.5 -75.5q-70 -67 -184 -67q-103 0 -165.5 48.5t-62.5 128.5q0 50 18 133l80 374h67l-87 -409q-9 -41 -9 -81q0 -64 42 -100.5t115 -36.5q92 0 143 56 q24 27 39 63.5t30 107.5l86 400h66z" />
<glyph unicode="&#xdd;" horiz-adv-x="494" d="M313 721l98 131h97l-138 -131h-57zM160 0l58 271l-133 396h74l66 -220l10 -32l12 -38l11 -38l4 -11q47 70 83 119l159 220h75l-296 -403l-56 -264h-67z" />
<glyph unicode="&#xde;" horiz-adv-x="556" d="M30 0l142 667h66l-25 -120h117q105 0 156 -42q57 -46 57 -136q0 -95 -63 -150q-33 -28 -75 -39t-117 -12l-156 -1l-35 -167h-67zM144 224h140q59 0 91 8t55 28q47 42 47 109q0 59 -39 90q-21 18 -49.5 24.5t-83.5 6.5h-104z" />
<glyph unicode="&#xdf;" horiz-adv-x="516" d="M20 0l98 463q14 68 29 103.5t39 62.5q47 52 134 52q77 0 126 -42.5t49 -109.5q0 -108 -123 -157q85 -42 85 -144t-62 -167.5t-157 -65.5q-40 0 -88 8l14 58q40 -13 75 -13q69 0 110 50q46 56 46 128q0 59 -39.5 93t-108.5 34h-19l11 53q35 -4 51 -4q61 0 101.5 35.5 t40.5 88.5q0 44 -30.5 72.5t-79.5 28.5q-58 0 -92 -39q-34 -41 -57 -150l-93 -438h-60z" />
<glyph unicode="&#xe0;" horiz-adv-x="498" d="M277 554l-131 129h92l94 -129h-55zM456 52l-11 -52q-27 -8 -53 -8q-30 0 -44 15t-18 51q-65 -71 -155 -71q-70 0 -111 36.5t-41 98.5q0 38 16.5 69.5t45.5 48.5q42 23 149 36l76 9q53 6 59 20q12 29 12 65q0 34 -29 53.5t-79 19.5q-58 0 -90 -23t-49 -78h-66 q25 77 64 109q53 45 148 45q77 0 120 -32.5t43 -90.5q0 -19 -11 -70l-39 -185q-5 -22 -5 -36q0 -39 37 -39q13 0 31 9zM287 232l-68 -8q-68 -8 -99 -31q-34 -26 -34 -68q0 -39 25 -62t67 -23q80 0 127 59q28 36 50 125l5 21q-38 -9 -73 -13z" />
<glyph unicode="&#xe1;" horiz-adv-x="498" d="M265 554l98 131h97l-138 -131h-57zM456 52l-11 -52q-27 -8 -53 -8q-30 0 -44 15t-18 51q-65 -71 -155 -71q-70 0 -111 36.5t-41 98.5q0 38 16.5 69.5t45.5 48.5q42 23 149 36l76 9q53 6 59 20q12 29 12 65q0 34 -29 53.5t-79 19.5q-58 0 -90 -23t-49 -78h-66 q25 77 64 109q53 45 148 45q77 0 120 -32.5t43 -90.5q0 -19 -11 -70l-39 -185q-5 -22 -5 -36q0 -39 37 -39q13 0 31 9zM287 232l-68 -8q-68 -8 -99 -31q-34 -26 -34 -68q0 -39 25 -62t67 -23q80 0 127 59q28 36 50 125l5 21q-38 -9 -73 -13z" />
<glyph unicode="&#xe2;" horiz-adv-x="498" d="M167 556l125 127h79l80 -127h-68l-56 88l-89 -88h-71zM456 52l-11 -52q-27 -8 -53 -8q-30 0 -44 15t-18 51q-65 -71 -155 -71q-70 0 -111 36.5t-41 98.5q0 38 16.5 69.5t45.5 48.5q42 23 149 36l76 9q53 6 59 20q12 29 12 65q0 34 -29 53.5t-79 19.5q-58 0 -90 -23 t-49 -78h-66q25 77 64 109q53 45 148 45q77 0 120 -32.5t43 -90.5q0 -19 -11 -70l-39 -185q-5 -22 -5 -36q0 -39 37 -39q13 0 31 9zM287 232l-68 -8q-68 -8 -99 -31q-34 -26 -34 -68q0 -39 25 -62t67 -23q80 0 127 59q28 36 50 125l5 21q-38 -9 -73 -13z" />
<glyph unicode="&#xe3;" horiz-adv-x="498" d="M206 578l-44 21q38 72 86 72q17 0 57 -16l49 -20q32 -13 45 -13q23 0 36 32l46 -18q-20 -40 -40 -57t-47 -17q-20 0 -57 16l-53 22q-26 11 -37 11q-21 0 -41 -33zM456 52l-11 -52q-27 -8 -53 -8q-30 0 -44 15t-18 51q-65 -71 -155 -71q-70 0 -111 36.5t-41 98.5 q0 38 16.5 69.5t45.5 48.5q42 23 149 36l76 9q53 6 59 20q12 29 12 65q0 34 -29 53.5t-79 19.5q-58 0 -90 -23t-49 -78h-66q25 77 64 109q53 45 148 45q77 0 120 -32.5t43 -90.5q0 -19 -11 -70l-39 -185q-5 -22 -5 -36q0 -39 37 -39q13 0 31 9zM287 232l-68 -8 q-68 -8 -99 -31q-34 -26 -34 -68q0 -39 25 -62t67 -23q80 0 127 59q28 36 50 125l5 21q-38 -9 -73 -13z" />
<glyph unicode="&#xe4;" horiz-adv-x="498" d="M181 599l18 85h73l-18 -85h-73zM354 598l18 85h73l-18 -85h-73zM456 52l-11 -52q-27 -8 -53 -8q-30 0 -44 15t-18 51q-65 -71 -155 -71q-70 0 -111 36.5t-41 98.5q0 38 16.5 69.5t45.5 48.5q42 23 149 36l76 9q53 6 59 20q12 29 12 65q0 34 -29 53.5t-79 19.5 q-58 0 -90 -23t-49 -78h-66q25 77 64 109q53 45 148 45q77 0 120 -32.5t43 -90.5q0 -19 -11 -70l-39 -185q-5 -22 -5 -36q0 -39 37 -39q13 0 31 9zM287 232l-68 -8q-68 -8 -99 -31q-34 -26 -34 -68q0 -39 25 -62t67 -23q80 0 127 59q28 36 50 125l5 21q-38 -9 -73 -13z" />
<glyph unicode="&#xe5;" horiz-adv-x="498" d="M305 555q-25 0 -42 16.5t-17 42.5q0 34 28 61t63 27q26 0 42.5 -16.5t16.5 -41.5q0 -34 -28 -61.5t-63 -27.5zM313 592q18 0 32 13.5t14 30.5q0 13 -8.5 21t-21.5 8q-18 0 -32 -13.5t-14 -30.5q0 -12 8.5 -20.5t21.5 -8.5zM456 52l-11 -52q-27 -8 -53 -8q-30 0 -44 15 t-18 51q-65 -71 -155 -71q-70 0 -111 36.5t-41 98.5q0 38 16.5 69.5t45.5 48.5q42 23 149 36l76 9q53 6 59 20q12 29 12 65q0 34 -29 53.5t-79 19.5q-58 0 -90 -23t-49 -78h-66q25 77 64 109q53 45 148 45q77 0 120 -32.5t43 -90.5q0 -19 -11 -70l-39 -185q-5 -22 -5 -36 q0 -39 37 -39q13 0 31 9zM287 232l-68 -8q-68 -8 -99 -31q-34 -26 -34 -68q0 -39 25 -62t67 -23q80 0 127 59q28 36 50 125l5 21q-38 -9 -73 -13z" />
<glyph unicode="&#xe6;" horiz-adv-x="812" d="M682 154h63q-26 -77 -84.5 -122t-131.5 -45q-60 0 -104 28.5t-64 79.5q-67 -108 -179 -108q-72 0 -117 38t-45 98q0 38 17.5 71t47.5 52q26 16 55.5 22.5t91.5 8.5q91 3 107 10t26.5 26t10.5 43q0 40 -30.5 63.5t-81.5 23.5q-62 0 -99 -37q-20 -20 -31 -59h-64 q22 64 50 92q57 57 157 57q98 0 147 -79q65 79 168 79q82 0 129.5 -51t47.5 -139q0 -30 -8 -70h-353q-3 -31 -3 -44q0 -72 33 -112.5t92 -40.5q51 0 91.5 31t60.5 84zM418 284h286q4 23 4 38q0 56 -32 88.5t-87 32.5q-67 0 -112 -41.5t-59 -117.5zM83 127q0 -41 28 -66.5 t74 -25.5q38 0 72.5 20.5t55.5 54.5q27 44 42 140q-1 0 -2 -1q-2 0 -2 -1q-34 -11 -120 -16q-77 -5 -109 -27q-39 -26 -39 -78z" />
<glyph unicode="&#xe7;" horiz-adv-x="515" d="M160 -72l56 60q-85 6 -133 61.5t-48 149.5q0 130 73 213.5t187 83.5q86 0 138 -46t56 -126h-66q-7 52 -25 74q-36 45 -103 45q-69 0 -115 -46q-36 -35 -56.5 -88t-20.5 -109q0 -74 38 -117t103 -43q51 0 92 32t64 89h68q-31 -81 -88.5 -126t-133.5 -48l-40 -43q21 5 40 5 q27 0 43.5 -13t16.5 -35q0 -36 -34 -61.5t-81 -25.5q-46 0 -91 21l15 25q40 -20 78 -20q29 0 50 15.5t21 36.5q0 33 -42 33q-22 0 -48 -11z" />
<glyph unicode="&#xe8;" horiz-adv-x="527" d="M292 554l-131 129h92l94 -129h-55zM397 158h64q-28 -83 -86 -127t-139 -44q-92 0 -144 55.5t-52 154.5q0 127 74.5 212.5t184.5 85.5q85 0 133.5 -53.5t48.5 -146.5q0 -29 -5 -63h-372q-3 -26 -3 -44q0 -64 38.5 -106t97.5 -42q55 0 97 31t63 87zM114 280h304l1 29 q2 61 -32.5 97t-92.5 36q-63 0 -112 -44t-68 -118z" />
<glyph unicode="&#xe9;" horiz-adv-x="527" d="M286 554l98 131h97l-138 -131h-57zM397 158h64q-28 -83 -86 -127t-139 -44q-92 0 -144 55.5t-52 154.5q0 127 74.5 212.5t184.5 85.5q85 0 133.5 -53.5t48.5 -146.5q0 -29 -5 -63h-372q-3 -26 -3 -44q0 -64 38.5 -106t97.5 -42q55 0 97 31t63 87zM114 280h304l1 29 q2 61 -32.5 97t-92.5 36q-63 0 -112 -44t-68 -118z" />
<glyph unicode="&#xea;" horiz-adv-x="527" d="M175 556l125 127h79l80 -127h-68l-56 88l-89 -88h-71zM397 158h64q-28 -83 -86 -127t-139 -44q-92 0 -144 55.5t-52 154.5q0 127 74.5 212.5t184.5 85.5q85 0 133.5 -53.5t48.5 -146.5q0 -29 -5 -63h-372q-3 -26 -3 -44q0 -64 38.5 -106t97.5 -42q55 0 97 31t63 87z M114 280h304l1 29q2 61 -32.5 97t-92.5 36q-63 0 -112 -44t-68 -118z" />
<glyph unicode="&#xeb;" horiz-adv-x="527" d="M188 599l18 85h73l-18 -85h-73zM361 598l18 85h73l-18 -85h-73zM397 158h64q-28 -83 -86 -127t-139 -44q-92 0 -144 55.5t-52 154.5q0 127 74.5 212.5t184.5 85.5q85 0 133.5 -53.5t48.5 -146.5q0 -29 -5 -63h-372q-3 -26 -3 -44q0 -64 38.5 -106t97.5 -42q55 0 97 31 t63 87zM114 280h304l1 29q2 61 -32.5 97t-92.5 36q-63 0 -112 -44t-68 -118z" />
<glyph unicode="&#xec;" horiz-adv-x="207" d="M138 554l-131 129h92l94 -129h-55zM20 0l103 483h60l-103 -483h-60z" />
<glyph unicode="&#xed;" horiz-adv-x="207" d="M142 554l98 131h97l-138 -131h-57zM20 0l103 483h60l-103 -483h-60z" />
<glyph unicode="&#xee;" horiz-adv-x="207" d="M28 556l125 127h79l80 -127h-68l-56 88l-89 -88h-71zM20 0l103 483h60l-103 -483h-60z" />
<glyph unicode="&#xef;" horiz-adv-x="207" d="M61 599l18 85h66l-18 -85h-66zM216 598l19 85h66l-19 -85h-66zM20 0l103 483h60l-103 -483h-60z" />
<glyph unicode="&#xf0;" horiz-adv-x="556" d="M395 676l-52 -55q83 -83 121.5 -152t42.5 -141q0 -5 1.5 -21.5t1.5 -25.5q0 -136 -81 -225q-67 -75 -179 -75q-96 0 -153 58.5t-57 157.5q0 127 74.5 210.5t187.5 83.5q38 0 79 -12q-35 43 -84 92l-49 -52l-34 33l50 53l-11 12l-27 25l45 47l38 -35l51 55zM103 197 q0 -74 40.5 -118.5t108.5 -44.5q84 0 139.5 66.5t55.5 168.5q0 81 -38.5 125t-108.5 44q-83 0 -134 -60q-63 -76 -63 -181z" />
<glyph unicode="&#xf1;" horiz-adv-x="517" d="M227 578l-44 21q38 72 86 72q17 0 57 -16l49 -20q33 -13 45 -13q23 0 36 32l46 -18q-20 -40 -40 -57t-47 -17q-20 0 -57 16l-53 22q-26 11 -37 11q-21 0 -41 -33zM20 0l103 483h60l-13 -62q78 75 163 75q63 0 97.5 -31.5t34.5 -88.5q0 -29 -11 -81l-63 -295h-60l62 289 q12 55 12 82q0 34 -21 53t-58 19q-64 0 -118 -46q-30 -25 -46 -56.5t-29 -91.5l-53 -249h-60z" />
<glyph unicode="&#xf2;" horiz-adv-x="556" d="M296 554l-131 129h92l94 -129h-55zM41 203q0 127 74.5 210t187.5 83q98 0 153 -56t55 -157q0 -61 -22 -120.5t-59 -100.5q-67 -75 -179 -75q-96 0 -153 58.5t-57 157.5zM104 203q0 -74 40.5 -118.5t108.5 -44.5q84 0 139.5 66.5t55.5 167.5q0 81 -38.5 125t-108.5 44 q-83 0 -134 -60q-63 -76 -63 -180z" />
<glyph unicode="&#xf3;" horiz-adv-x="556" d="M290 554l98 131h97l-138 -131h-57zM41 203q0 127 74.5 210t187.5 83q98 0 153 -56t55 -157q0 -61 -22 -120.5t-59 -100.5q-67 -75 -179 -75q-96 0 -153 58.5t-57 157.5zM104 203q0 -74 40.5 -118.5t108.5 -44.5q84 0 139.5 66.5t55.5 167.5q0 81 -38.5 125t-108.5 44 q-83 0 -134 -60q-63 -76 -63 -180z" />
<glyph unicode="&#xf4;" horiz-adv-x="556" d="M192 556l125 127h79l80 -127h-68l-56 88l-89 -88h-71zM41 203q0 127 74.5 210t187.5 83q98 0 153 -56t55 -157q0 -61 -22 -120.5t-59 -100.5q-67 -75 -179 -75q-96 0 -153 58.5t-57 157.5zM104 203q0 -74 40.5 -118.5t108.5 -44.5q84 0 139.5 66.5t55.5 167.5 q0 81 -38.5 125t-108.5 44q-83 0 -134 -60q-63 -76 -63 -180z" />
<glyph unicode="&#xf5;" horiz-adv-x="556" d="M239 578l-44 21q38 72 86 72q17 0 57 -16l49 -20q32 -13 45 -13q23 0 36 32l46 -18q-20 -40 -40 -57t-47 -17q-20 0 -57 16l-53 22q-26 11 -37 11q-21 0 -41 -33zM41 203q0 127 74.5 210t187.5 83q98 0 153 -56t55 -157q0 -61 -22 -120.5t-59 -100.5q-67 -75 -179 -75 q-96 0 -153 58.5t-57 157.5zM104 203q0 -74 40.5 -118.5t108.5 -44.5q84 0 139.5 66.5t55.5 167.5q0 81 -38.5 125t-108.5 44q-83 0 -134 -60q-63 -76 -63 -180z" />
<glyph unicode="&#xf6;" horiz-adv-x="556" d="M196 599l18 85h73l-18 -85h-73zM369 598l18 85h73l-18 -85h-73zM41 203q0 127 74.5 210t187.5 83q98 0 153 -56t55 -157q0 -61 -22 -120.5t-59 -100.5q-67 -75 -179 -75q-96 0 -153 58.5t-57 157.5zM104 203q0 -74 40.5 -118.5t108.5 -44.5q84 0 139.5 66.5t55.5 167.5 q0 81 -38.5 125t-108.5 44q-83 0 -134 -60q-63 -76 -63 -180z" />
<glyph unicode="&#xf7;" d="M267 487q-14 0 -25 10.5t-11 25.5t10.5 25.5t25.5 10.5t25.5 -10.5t10.5 -25.5t-10.5 -25.5t-25.5 -10.5zM42 319v37h449v-37h-449zM230 151q0 15 10.5 25.5t25.5 10.5t25.5 -10.5t10.5 -25.5t-10.5 -25.5t-25.5 -10.5t-25.5 11t-10.5 25z" />
<glyph unicode="&#xf8;" horiz-adv-x="556" d="M52 -18l46 63q-57 55 -57 157q0 127 74.5 210.5t187.5 83.5q62 0 106 -23l53 72l38 -28l-51 -70q62 -54 62 -159q0 -131 -73 -216t-186 -85q-69 0 -116 29l-45 -62zM135 96l240 330q-33 17 -75 17q-81 0 -133 -60q-63 -76 -63 -180q0 -65 31 -107zM170 63q37 -23 83 -23 q85 0 140 66.5t55 170.5q0 77 -36 119z" />
<glyph unicode="&#xf9;" horiz-adv-x="528" d="M299 554l-131 129h92l94 -129h-55zM341 0l14 63q-86 -76 -173 -76q-61 0 -97.5 31.5t-36.5 83.5q0 34 12 88l62 293h60l-66 -312q-8 -35 -8 -60q0 -34 23.5 -52.5t66.5 -18.5q88 0 144 78q23 31 34 62t28 112l40 191h60l-103 -483h-60z" />
<glyph unicode="&#xfa;" horiz-adv-x="528" d="M315 554l98 131h97l-138 -131h-57zM341 0l14 63q-86 -76 -173 -76q-61 0 -97.5 31.5t-36.5 83.5q0 34 12 88l62 293h60l-66 -312q-8 -35 -8 -60q0 -34 23.5 -52.5t66.5 -18.5q88 0 144 78q23 31 34 62t28 112l40 191h60l-103 -483h-60z" />
<glyph unicode="&#xfb;" horiz-adv-x="528" d="M185 556l125 127h79l80 -127h-68l-56 88l-89 -88h-71zM341 0l14 63q-86 -76 -173 -76q-61 0 -97.5 31.5t-36.5 83.5q0 34 12 88l62 293h60l-66 -312q-8 -35 -8 -60q0 -34 23.5 -52.5t66.5 -18.5q88 0 144 78q23 31 34 62t28 112l40 191h60l-103 -483h-60z" />
<glyph unicode="&#xfc;" horiz-adv-x="528" d="M222 599l18 85h73l-18 -85h-73zM395 598l18 85h73l-18 -85h-73zM341 0l14 63q-86 -76 -173 -76q-61 0 -97.5 31.5t-36.5 83.5q0 34 12 88l62 293h60l-66 -312q-8 -35 -8 -60q0 -34 23.5 -52.5t66.5 -18.5q88 0 144 78q23 31 34 62t28 112l40 191h60l-103 -483h-60z" />
<glyph unicode="&#xfd;" horiz-adv-x="421" d="M240 554l98 131h97l-138 -131h-57zM-3 -109q19 -3 27 -3q37 0 53 15q9 9 27 36.5t30 52.5l9 19l-113 472h70l56 -257l13 -61l7 -34q6 -30 6 -32l3 -13l65 131l131 266h73l-287 -548q-30 -58 -60 -80t-79 -22q-18 0 -42 4z" />
<glyph unicode="&#xfe;" horiz-adv-x="547" d="M96 79l-49 -232h-60l174 820h60l-52 -247q71 77 155 77q79 0 130 -57.5t51 -147.5q0 -119 -77 -217q-69 -88 -174 -88t-158 92zM125 174q0 -61 34 -97.5t90 -36.5q83 0 140 81q53 76 53 172q0 72 -32.5 111t-93.5 39q-83 0 -131 -69q-60 -85 -60 -200z" />
<glyph unicode="&#xff;" horiz-adv-x="421" d="M142 599l18 85h73l-18 -85h-73zM315 598l18 85h73l-18 -85h-73zM-3 -109q19 -3 27 -3q37 0 53 15q9 9 27 36.5t30 52.5l9 19l-113 472h70l56 -257l13 -61l7 -34q6 -30 6 -32l3 -13l65 131l131 266h73l-287 -548q-30 -58 -60 -80t-79 -22q-18 0 -42 4z" />
<glyph unicode="&#x152;" horiz-adv-x="1017" d="M512 0l9 40q-70 -57 -169 -57q-129 0 -206 80.5t-77 215.5q0 174 101.5 289.5t253.5 115.5q146 0 210 -112l20 95h382l-12 -57h-315l-51 -236h323l-12 -57h-323l-55 -260h362l-12 -57h-429zM539 127l75 351q-16 70 -66 109.5t-122 39.5q-120 0 -196 -87 q-44 -51 -69 -120.5t-25 -142.5q0 -107 59 -172t157 -65q112 0 187 87z" />
<glyph unicode="&#x153;" horiz-adv-x="927" d="M797 158h65q-59 -171 -226 -171q-132 0 -178 109q-73 -109 -207 -109q-96 0 -153 58.5t-57 157.5q0 127 74.5 210t188.5 83q67 0 117.5 -30t73.5 -83q73 112 204 112q85 0 133.5 -53.5t48.5 -147.5q0 -26 -4 -62h-371v-4l-3 -14v-4q-2 -8 -2 -20q0 -66 38 -108t98 -42 q55 0 97.5 31t62.5 87zM448 272v10q0 75 -39 118t-108 43q-83 0 -134 -60q-63 -74 -63 -180q0 -74 40.5 -118.5t108.5 -44.5q70 0 119.5 45t67.5 124q4 48 8 63zM514 280h304q1 12 1 29q0 61 -33.5 97t-91.5 36q-63 0 -112 -44t-68 -118z" />
<glyph unicode="&#x178;" horiz-adv-x="494" d="M420 745l18 85h67l-19 -85h-66zM223 745l18 85h67l-18 -85h-67zM160 0l58 271l-133 396h74l66 -220l10 -32l12 -38l11 -38l4 -11q47 70 83 119l159 220h75l-296 -403l-56 -264h-67z" />
<glyph unicode="&#x2c6;" d="M148 556l125 127h79l80 -127h-68l-56 88l-89 -88h-71z" />
<glyph unicode="&#x2dc;" d="M188 578l-44 21q38 72 86 72q17 0 57 -16l49 -20q33 -13 45 -13q23 0 36 32l46 -18q-20 -40 -40 -57t-47 -17q-20 0 -57 16l-53 22q-26 11 -37 11q-21 0 -41 -33z" />
<glyph unicode="&#x2000;" horiz-adv-x="436" />
<glyph unicode="&#x2001;" horiz-adv-x="873" />
<glyph unicode="&#x2002;" horiz-adv-x="436" />
<glyph unicode="&#x2003;" horiz-adv-x="873" />
<glyph unicode="&#x2004;" horiz-adv-x="291" />
<glyph unicode="&#x2005;" horiz-adv-x="218" />
<glyph unicode="&#x2006;" horiz-adv-x="145" />
<glyph unicode="&#x2007;" horiz-adv-x="145" />
<glyph unicode="&#x2008;" horiz-adv-x="109" />
<glyph unicode="&#x2009;" horiz-adv-x="174" />
<glyph unicode="&#x200a;" horiz-adv-x="48" />
<glyph unicode="&#x2010;" horiz-adv-x="217" d="M-6 222l13 62h217l-13 -62h-217z" />
<glyph unicode="&#x2011;" horiz-adv-x="217" d="M-6 222l13 62h217l-13 -62h-217z" />
<glyph unicode="&#x2012;" horiz-adv-x="217" d="M-6 222l13 62h217l-13 -62h-217z" />
<glyph unicode="&#x2013;" horiz-adv-x="567" d="M44 222l13 62h467l-13 -62h-467z" />
<glyph unicode="&#x2014;" horiz-adv-x="647" d="M-6 222l13 62h647l-13 -62h-647z" />
<glyph unicode="&#x2018;" horiz-adv-x="235" d="M113 438l19 88q15 71 41.5 104t73.5 37l-10 -45q-21 -7 -30.5 -22t-25.5 -67h41l-21 -95h-88z" />
<glyph unicode="&#x2019;" horiz-adv-x="235" d="M117 439l10 45q19 5 29 20t23 58l3 10h-40l20 95h89l-19 -88q-15 -72 -41.5 -104t-73.5 -36z" />
<glyph unicode="&#x201a;" horiz-adv-x="235" d="M20 0l20 95h89l-19 -88q-15 -71 -41.5 -103.5t-73.5 -36.5l10 45q20 6 29.5 20.5t22.5 57.5l3 10h-40z" />
<glyph unicode="&#x201c;" horiz-adv-x="388" d="M266 438l19 88q15 71 41.5 104t73.5 37l-10 -45q-21 -7 -30.5 -22t-25.5 -67h41l-20 -95h-89zM113 438l19 88q15 71 41.5 104t73.5 37l-10 -45q-21 -7 -30.5 -22t-25.5 -67h41l-21 -95h-88z" />
<glyph unicode="&#x201d;" horiz-adv-x="388" d="M270 439l10 45q20 5 30 20.5t23 57.5l3 10h-41l20 95h89l-19 -88q-15 -72 -41.5 -104t-73.5 -36zM117 439l10 45q19 5 29 20t23 58l3 10h-40l20 95h89l-19 -88q-15 -72 -41.5 -104t-73.5 -36z" />
<glyph unicode="&#x201e;" horiz-adv-x="388" d="M173 0l20 95h89l-19 -88q-15 -71 -41.5 -103.5t-73.5 -36.5l10 45q20 6 30 20.5t23 57.5l3 10h-41zM20 0l20 95h89l-19 -88q-15 -71 -41.5 -103.5t-73.5 -36.5l10 45q20 6 29.5 20.5t22.5 57.5l3 10h-40z" />
<glyph unicode="&#x2022;" horiz-adv-x="667" d="M213 338q0 58 41 98.5t100 40.5q55 0 95.5 -41t40.5 -97q0 -58 -40.5 -98.5t-97.5 -40.5t-98 40.5t-41 97.5z" />
<glyph unicode="&#x2026;" horiz-adv-x="704" d="M489 0l21 95h88l-21 -95h-88zM255 0l20 95h88l-20 -95h-88zM20 0l20 95h88l-20 -95h-88z" />
<glyph unicode="&#x202f;" horiz-adv-x="174" />
<glyph unicode="&#x2039;" horiz-adv-x="259" d="M172 90l-130 140l11 54l188 132l-15 -68l-135 -99l93 -98z" />
<glyph unicode="&#x203a;" horiz-adv-x="259" d="M19 90l14 68l136 100l-94 98l13 60l130 -140l-11 -53z" />
<glyph unicode="&#x205f;" horiz-adv-x="218" />
<glyph unicode="&#x20ac;" horiz-adv-x="750" d="M633 133l-14 -95q-83 -55 -182 -55q-80 0 -144 36t-98 100q-32 58 -35 146h-95l24 45h72q0 9 4 45h-87l24 45h72q34 133 122.5 208.5t211.5 75.5q138 0 214 -93l-37 -65q-54 101 -179 101q-94 0 -162.5 -59t-99.5 -168h376l-24 -45h-363q-3 -17 -5 -45h345l-24 -45h-323 q5 -104 61 -164.5t150 -60.5q118 0 196 93z" />
<glyph unicode="&#x2122;" horiz-adv-x="829" d="M385 267l85 400h64l45 -227l1 -6q1 -7 3 -17.5t3 -19.5l11 -69q51 91 61 107l135 232h68l-85 -400h-49l45 212l24 107l-187 -319h-45l-64 321l-11 -57q-1 -9 -2.5 -18t-3 -15.5t-1.5 -7.5l-48 -223h-49zM147 267l77 360h-133l9 40h303l-9 -40h-121l-77 -360h-49z" />
<glyph unicode="&#x25fc;" horiz-adv-x="485" d="M0 485h485v-485h-485v485z" />
</font>
</defs>
</svg>
