<?xml version="1.0" encoding="UTF-8"?>
<svg xmlns="http://www.w3.org/2000/svg" xmlns:xlink="http://www.w3.org/1999/xlink" version="1.2" >
<font id="Chronicle Text G2 Bold Italic">
<font-face  font-family="Chronicle Text G2" units-per-em="1000" ascent="800" descent="-200" font-style="italic" font-weight="400" font-stretch="normal" slope="-12" cap-height="658" x-height="464" underline-position="-75" underline-thickness="50" />
<missing-glyph  horiz-adv-x="500" d="M0 -200 L500 -200 L500 800 L0 800 L0 -200 Z M71 750 L429 750 L250 360 L71 750 Z M50 -76 L50 676 L222 300 L50 -76 Z M450 676 L450 -76 L278 300 L450 676 Z M250 240 L429 -150 L71 -150 L250 240 Z " />
<glyph glyph-name="NULL" d="" />
<glyph glyph-name="CR" unicode="&#xd;" horiz-adv-x="184" d="" />
<glyph glyph-name="space" unicode="&#x20;" horiz-adv-x="184" d="" />
<glyph glyph-name="exclam" unicode="&#x21;" horiz-adv-x="287" d="M159 210 C243 381 331 519 331 595 C331 644 294 683 238 683 C189 683 157 652 143 601 C125 535 128 371 116 222 L159 210 Z M100 -16 C149 -16 194 22 194 73 C194 124 151 162 100 162 C51 162 6 124 6 73 C6 22 49 -16 100 -16 L100 -16 Z " />
<glyph glyph-name="quotedbl" unicode="&#x22;" horiz-adv-x="436" d="M118 389 L189 460 C285 556 294 578 294 606 C294 643 261 668 227 668 C186 668 168 640 113 514 L71 420 L118 389 Z M326 389 L397 460 C493 556 502 578 502 606 C502 643 469 668 435 668 C394 668 376 640 321 514 L279 420 L326 389 Z " />
<glyph glyph-name="numbersign" unicode="&#x23;" horiz-adv-x="676" d="M386 675 L319 675 L259 478 L122 478 L116 415 L240 415 L182 220 L48 220 L42 157 L163 157 L104 -40 L171 -40 L230 157 L393 157 L334 -40 L401 -40 L460 157 L598 157 L604 220 L479 220 L537 415 L672 415 L678 478 L556 478 L616 675 L549 675 L489 478 L326 478 L386 675 Z M307 415 L470 415 L412 220 L249 220 L307 415 Z " />
<glyph glyph-name="dollar" unicode="&#x24;" horiz-adv-x="569" d="M242 -71 L263 8 L284 8 C450 8 529 108 529 206 C529 295 448 343 368 376 L420 573 C457 564 478 549 495 531 C466 521 449 492 449 463 C449 431 472 406 511 406 C555 406 583 443 583 486 C583 545 528 594 435 613 L456 690 L386 690 L367 621 L352 621 C176 621 104 515 104 434 C104 339 184 292 265 259 L210 54 C157 64 121 85 112 102 C143 114 162 137 162 173 C162 201 139 231 102 231 C50 231 20 189 20 144 C20 75 85 29 195 14 L172 -71 L242 -71 Z M407 142 C407 91 370 47 283 47 L270 47 L320 235 C372 210 407 182 407 142 L407 142 Z M228 491 C228 542 277 580 349 580 L360 580 L312 400 C263 423 228 451 228 491 L228 491 Z " />
<glyph glyph-name="percent" unicode="&#x25;" horiz-adv-x="847" d="M415 592 C399 622 367 640 321 640 C196 640 67 512 67 383 C67 324 100 264 191 264 C312 264 419 412 430 518 C447 516 459 516 470 516 C533 516 577 531 630 566 L638 560 L118 -26 L204 -26 L768 654 L690 654 C636 594 565 569 508 569 C466 569 440 576 415 592 L415 592 Z M589 -14 C721 -14 828 160 828 251 C828 317 792 362 719 362 C594 362 465 234 465 105 C465 46 498 -14 589 -14 L589 -14 Z M617 33 C581 33 568 55 568 88 C568 166 649 306 734 306 C763 306 776 286 776 250 C776 168 690 33 617 33 L617 33 Z M378 533 L378 528 C378 446 292 311 219 311 C183 311 170 333 170 366 C170 434 231 548 303 577 C325 558 351 543 378 533 L378 533 Z " />
<glyph glyph-name="ampersand" unicode="&#x26;" horiz-adv-x="736" d="M369 380 C329 434 322 457 322 488 C322 543 361 586 400 585 C426 584 451 564 451 518 C451 469 425 420 369 380 L369 380 Z M232 293 C277 235 312 176 337 112 C300 80 276 67 241 67 C184 67 154 99 154 156 C154 210 184 258 232 293 L232 293 Z M461 228 C442 271 422 312 389 354 C515 382 587 432 587 513 C587 573 537 633 409 633 C311 633 171 567 171 433 C171 400 182 367 211 323 C63 289 -5 217 -5 121 C-5 36 65 -16 151 -16 C240 -16 290 17 350 81 C374 21 424 -16 510 -16 C567 -16 616 2 685 65 L661 99 C626 77 604 69 580 69 C549 69 525 84 479 192 C518 241 549 274 577 294 L582 289 C581 286 581 284 581 281 C581 242 614 214 653 214 C698 214 731 252 731 291 C731 340 696 373 642 373 C586 373 527 321 461 228 L461 228 Z " />
<glyph glyph-name="quotesingle" unicode="&#x27;" horiz-adv-x="228" d="M118 389 L189 460 C285 556 294 578 294 606 C294 643 261 668 227 668 C186 668 168 640 113 514 L71 420 L118 389 Z " />
<glyph glyph-name="parenleft" unicode="&#x28;" horiz-adv-x="381" d="M302 -157 L328 -121 C256 -56 222 31 222 149 C222 371 337 588 514 686 L500 721 C242 643 54 430 54 194 C54 19 158 -107 302 -157 L302 -157 Z " />
<glyph glyph-name="parenright" unicode="&#x29;" horiz-adv-x="381" d="M-92 -157 C166 -79 354 134 354 370 C354 545 250 671 106 721 L80 685 C152 620 186 533 186 415 C186 193 71 -24 -106 -122 L-92 -157 Z " />
<glyph glyph-name="asterisk" unicode="&#x2a;" horiz-adv-x="437" d="M366 334 C388 342 403 370 391 399 C384 416 368 435 316 484 L328 502 C393 479 414 471 436 473 C467 475 485 500 484 523 C483 546 460 569 429 567 C411 566 388 556 326 522 L312 538 C357 595 371 617 375 633 C382 663 364 689 341 695 C319 701 291 686 284 656 C280 641 282 624 295 542 L273 536 C225 601 216 614 203 623 C177 640 146 630 133 611 C121 593 127 559 153 543 C170 532 193 530 263 518 L265 497 C197 477 171 467 159 457 C136 438 136 406 149 388 C163 369 196 365 219 385 C234 398 244 419 277 482 L299 478 C297 407 297 381 304 364 C315 335 344 326 366 334 L366 334 Z " />
<glyph glyph-name="plus" unicode="&#x2b;" horiz-adv-x="547" d="M395 530 L312 530 L263 347 L83 347 L62 269 L242 269 L193 86 L276 86 L325 269 L505 269 L526 347 L346 347 L395 530 Z " />
<glyph glyph-name="comma" unicode="&#x2c;" horiz-adv-x="287" d="M-39 -157 C152 -100 193 -14 193 58 C193 119 147 163 95 163 C48 163 8 124 8 73 C8 31 43 -2 87 -6 L93 -11 C87 -33 56 -72 -55 -119 L-39 -157 Z " />
<glyph glyph-name="hyphen" unicode="&#x2d;" horiz-adv-x="386" d="M51 216 L327 216 L351 303 L75 303 L51 216 Z " />
<glyph glyph-name="period" unicode="&#x2e;" horiz-adv-x="287" d="M100 -16 C149 -16 194 22 194 73 C194 124 151 162 100 162 C51 162 6 124 6 73 C6 22 49 -16 100 -16 L100 -16 Z " />
<glyph glyph-name="slash" unicode="&#x2f;" horiz-adv-x="431" d="M-125 -203 L-45 -203 L264 250 L578 704 L498 704 L188 250 L-125 -203 Z " />
<glyph glyph-name="zero" unicode="0" horiz-adv-x="628" d="M205 140 C205 264 287 591 402 591 C435 591 461 570 461 486 C461 362 379 35 264 35 C231 35 205 56 205 140 L205 140 Z M625 400 C625 521 564 642 397 642 C171 642 41 423 41 226 C41 105 102 -16 269 -16 C495 -16 625 203 625 400 L625 400 Z " />
<glyph glyph-name="one" unicode="1" horiz-adv-x="461" d="M-17 0 L380 0 L392 45 C297 48 284 65 293 99 L433 628 L138 608 L126 564 C225 565 237 539 220 475 L120 99 C111 64 88 48 -5 45 L-17 0 Z " />
<glyph glyph-name="two" unicode="2" horiz-adv-x="575" d="M-22 0 L466 0 L530 219 L489 221 C444 147 420 123 348 123 L137 123 L140 137 L347 233 C515 311 594 383 594 486 C594 576 524 642 372 642 C242 642 111 568 111 458 C111 402 151 363 205 363 C263 363 297 409 297 455 C297 503 266 531 229 543 C248 567 290 587 331 587 C403 587 433 546 433 497 C433 411 374 348 187 227 L4 109 L-22 0 Z " />
<glyph glyph-name="three" unicode="3" horiz-adv-x="562" d="M232 291 C330 276 360 241 360 184 C360 140 345 98 316 69 C295 48 267 35 231 35 C179 35 142 54 132 66 C156 79 184 106 184 153 C184 198 150 233 101 233 C44 233 10 186 10 133 C10 48 106 -16 259 -16 C441 -16 520 71 520 162 C520 231 467 293 331 309 L333 318 C529 334 586 402 586 496 C586 570 527 642 355 642 C220 642 124 582 124 497 C124 447 163 412 215 412 C269 412 294 455 294 495 C294 535 269 558 247 572 C264 583 293 591 321 591 C389 591 425 553 425 491 C425 453 412 422 388 398 C356 366 306 347 247 343 L232 291 Z " />
<glyph glyph-name="four" unicode="4" horiz-adv-x="603" d="M577 180 L599 262 L478 262 L573 620 L428 626 L24 246 L7 180 L296 180 L273 93 C264 59 243 48 168 45 L156 0 L487 0 L499 45 C450 48 424 57 434 93 L457 180 L577 180 Z M366 491 L378 487 L318 262 L126 262 L366 491 Z " />
<glyph glyph-name="five" unicode="5" horiz-adv-x="566" d="M225 -16 C420 -16 528 101 528 231 C528 319 464 382 325 382 C274 382 226 370 177 351 L221 493 L560 493 L611 626 L192 626 L96 311 L122 284 C171 307 211 323 265 323 C333 323 365 289 365 222 C365 120 298 33 209 33 C180 33 151 43 139 54 C168 71 191 100 191 140 C191 184 162 220 110 220 C48 220 14 172 14 119 C14 48 79 -16 225 -16 L225 -16 Z " />
<glyph glyph-name="six" unicode="6" horiz-adv-x="570" d="M250 -16 C437 -16 547 123 547 260 C547 367 470 423 379 423 C325 423 283 405 248 371 L237 378 C295 481 394 562 602 595 L603 642 C317 642 35 492 33 205 C32 77 109 -16 250 -16 L250 -16 Z M238 28 C215 28 176 43 176 116 C176 246 253 370 325 370 C357 370 384 349 384 289 C384 172 319 28 238 28 L238 28 Z " />
<glyph glyph-name="seven" unicode="7" horiz-adv-x="550" d="M56 -9 L188 -9 L369 246 L617 566 L596 626 L153 626 L79 389 L121 389 C161 465 182 485 270 485 L489 485 L58 25 L56 -9 Z " />
<glyph glyph-name="eight" unicode="8" horiz-adv-x="596" d="M258 -16 C413 -16 534 74 534 196 C534 264 493 306 440 339 C547 363 607 413 607 489 C607 573 520 642 386 642 C228 642 124 546 124 438 C124 377 158 337 203 305 C87 276 18 222 18 137 C18 53 95 -16 258 -16 L258 -16 Z M261 268 C324 231 384 194 384 140 C384 78 331 35 265 35 C206 35 157 68 157 130 C157 185 192 237 247 276 C251 273 256 271 261 268 L261 268 Z M274 498 C274 552 318 591 376 591 C438 591 472 550 472 501 C472 449 439 403 391 366 C327 399 274 437 274 498 L274 498 Z " />
<glyph glyph-name="nine" unicode="9" horiz-adv-x="570" d="M363 642 C176 642 66 503 66 366 C66 259 143 203 234 203 C288 203 330 221 365 255 L376 248 C318 145 219 64 11 31 L10 -16 C296 -16 578 134 580 421 C581 549 504 642 363 642 L363 642 Z M375 598 C398 598 437 583 437 510 C437 380 360 256 288 256 C256 256 229 277 229 337 C229 454 294 598 375 598 L375 598 Z " />
<glyph glyph-name="colon" unicode="&#x3a;" horiz-adv-x="297" d="M105 -16 C154 -16 199 22 199 73 C199 124 156 162 105 162 C56 162 11 124 11 73 C11 22 54 -16 105 -16 L105 -16 Z M179 263 C228 263 273 301 273 352 C273 403 230 441 179 441 C130 441 85 403 85 352 C85 301 128 263 179 263 L179 263 Z " />
<glyph glyph-name="semicolon" unicode="&#x3b;" horiz-adv-x="297" d="M179 263 C228 263 273 301 273 352 C273 403 230 441 179 441 C130 441 85 403 85 352 C85 301 128 263 179 263 L179 263 Z M-34 -157 C157 -100 198 -14 198 58 C198 119 152 163 100 163 C53 163 13 124 13 73 C13 31 48 -2 92 -6 L98 -11 C92 -33 61 -72 -50 -119 L-34 -157 Z " />
<glyph glyph-name="less" unicode="&#x3c;" horiz-adv-x="529" d="M417 80 L438 159 L186 305 L517 451 L540 540 L102 342 L85 278 L417 80 Z " />
<glyph glyph-name="equal" unicode="&#x3d;" horiz-adv-x="549" d="M478 171 L498 249 L61 249 L41 171 L478 171 Z M531 369 L551 447 L114 447 L94 369 L531 369 Z " />
<glyph glyph-name="greater" unicode="&#x3e;" horiz-adv-x="529" d="M155 540 L134 461 L386 315 L55 169 L32 80 L470 278 L487 342 L155 540 Z " />
<glyph glyph-name="question" unicode="&#x3f;" horiz-adv-x="529" d="M278 225 L298 290 C500 294 585 392 585 505 C585 602 508 684 330 684 C182 684 91 602 91 520 C91 462 129 422 182 422 C241 422 275 471 275 515 C275 548 258 583 228 595 C240 617 279 635 321 635 C377 635 423 603 423 535 C423 465 385 350 246 343 L217 236 L278 225 Z M202 -16 C251 -16 296 22 296 73 C296 124 253 162 202 162 C153 162 108 124 108 73 C108 22 151 -16 202 -16 L202 -16 Z " />
<glyph glyph-name="at" unicode="&#x40;" horiz-adv-x="916" d="M446 -145 C564 -145 649 -109 737 -49 L711 -5 C632 -59 556 -93 452 -93 C240 -93 112 44 112 229 C112 450 284 632 525 632 C694 632 812 527 812 387 C812 223 706 124 635 124 C614 124 602 132 602 152 C602 165 606 181 613 202 L658 333 L718 472 L586 465 L571 420 L558 420 C545 451 521 477 475 477 C342 477 235 343 235 204 C235 120 274 70 341 70 C388 70 432 90 469 136 L480 133 C482 82 529 59 598 59 C740 59 875 184 875 391 C875 573 723 685 532 685 C256 685 50 479 50 225 C50 2 217 -145 446 -145 L446 -145 Z M416 148 C387 148 368 170 368 215 C368 277 420 417 499 417 C525 417 537 401 549 383 L474 171 C449 152 437 148 416 148 L416 148 Z " />
<glyph glyph-name="A" unicode="A" horiz-adv-x="708" d="M-49 0 L204 0 L217 45 C146 57 136 89 180 167 L216 231 L427 231 L437 123 C441 73 430 50 358 45 L345 0 L684 0 L697 45 C631 54 624 69 619 109 L542 668 L395 668 L109 180 C53 85 32 61 -36 45 L-49 0 Z M422 283 L245 283 L381 525 L401 525 L422 283 Z " />
<glyph glyph-name="B" unicode="B" horiz-adv-x="689" d="M326 368 L391 610 L414 610 C483 610 517 591 517 531 C517 424 444 368 366 368 L326 368 Z M241 48 L313 320 L347 320 C429 320 456 289 456 224 C456 128 404 48 296 48 L241 48 Z M125 613 C203 610 208 602 198 564 L72 94 C64 64 43 48 -23 45 L-36 0 L336 0 C554 0 644 100 644 196 C644 277 588 329 454 343 L455 348 C589 366 697 410 697 519 C697 585 645 658 447 658 L138 658 L125 613 Z " />
<glyph glyph-name="C" unicode="C" horiz-adv-x="691" d="M329 -16 C473 -16 575 67 646 181 L601 207 C527 100 450 58 381 58 C315 58 237 101 237 241 C237 406 342 624 473 624 C543 624 582 564 610 415 L667 415 L732 676 L677 676 L636 625 C602 648 537 674 460 674 C201 674 54 453 54 248 C54 99 145 -16 329 -16 L329 -16 Z " />
<glyph glyph-name="D" unicode="D" horiz-adv-x="745" d="M70 94 C62 64 41 48 -25 45 L-38 0 L306 0 C455 0 560 48 630 118 C707 195 740 299 740 396 C740 550 644 658 432 658 L136 658 L123 613 C201 610 206 602 196 564 L70 94 Z M240 48 L388 610 L435 610 C516 610 558 557 558 458 C558 347 525 196 441 112 C402 73 352 48 290 48 L240 48 Z " />
<glyph glyph-name="E" unicode="E" horiz-adv-x="692" d="M136 658 L123 613 C201 610 206 602 196 564 L70 94 C62 64 41 48 -25 45 L-38 0 L585 0 L651 246 L589 246 C524 118 464 53 332 53 L240 53 L311 320 L354 320 C411 320 429 294 425 213 L476 213 L537 454 L484 454 C457 393 431 372 375 372 L324 372 L388 606 L468 606 C580 606 615 546 620 434 L677 434 L737 658 L136 658 Z " />
<glyph glyph-name="F" unicode="F" horiz-adv-x="650" d="M321 0 L334 45 C249 49 242 61 252 98 L308 306 L348 306 C405 306 422 284 418 203 L469 203 L531 440 L478 440 C451 379 425 358 369 358 L321 358 L388 606 L453 606 C565 606 602 546 607 434 L664 434 L724 658 L136 658 L123 613 C201 610 206 602 196 564 L70 94 C62 64 41 48 -25 45 L-38 0 L321 0 Z " />
<glyph glyph-name="G" unicode="G" horiz-adv-x="727" d="M732 676 L677 676 L636 626 C598 649 543 674 460 674 C201 674 54 453 54 252 C54 110 132 -16 357 -16 C442 -16 534 10 605 46 L651 219 C660 254 682 266 731 269 L744 314 L415 314 L402 269 C480 266 492 244 481 204 L440 54 C419 42 398 34 367 34 C291 34 237 100 237 213 C237 395 345 624 476 624 C546 624 580 572 613 428 L670 428 L732 676 Z " />
<glyph glyph-name="H" unicode="H" horiz-adv-x="799" d="M378 0 L715 0 L728 45 C650 48 645 56 655 94 L781 564 C789 594 810 610 876 613 L889 658 L544 658 L531 613 C598 610 611 604 600 564 L547 368 L324 368 L377 564 C386 599 406 610 460 613 L473 658 L136 658 L123 613 C201 610 206 602 196 564 L70 94 C62 64 41 48 -25 45 L-38 0 L307 0 L320 45 C253 48 240 54 251 94 L312 316 L535 316 L474 94 C464 59 445 48 391 45 L378 0 Z " />
<glyph glyph-name="I" unicode="I" horiz-adv-x="415" d="M482 613 L495 658 L146 658 L133 613 C211 610 216 602 206 564 L80 94 C72 64 51 48 -15 45 L-28 0 L321 0 L334 45 C256 48 251 56 261 94 L387 564 C395 594 416 610 482 613 L482 613 Z " />
<glyph glyph-name="J" unicode="J" horiz-adv-x="612" d="M223 -16 C379 -16 465 48 499 174 L604 564 C612 594 633 610 699 613 L712 658 L353 658 L340 613 C425 609 432 597 422 560 L311 145 C290 68 270 41 216 41 C190 41 165 53 152 71 C190 92 214 125 214 169 C214 221 174 257 117 257 C57 257 5 201 5 136 C5 40 88 -16 223 -16 L223 -16 Z " />
<glyph glyph-name="K" unicode="K" horiz-adv-x="758" d="M841 658 L560 658 L548 615 C605 600 617 572 553 519 L312 321 L377 564 C386 599 406 610 460 613 L473 658 L136 658 L123 613 C201 610 206 602 196 564 L70 94 C62 64 41 48 -25 45 L-38 0 L307 0 L320 45 C253 48 240 54 251 94 L290 240 L364 298 L435 122 C453 77 445 48 388 43 L376 0 L707 0 L720 44 C656 59 637 82 614 137 L500 405 L606 489 C714 574 751 596 828 614 L841 658 Z " />
<glyph glyph-name="L" unicode="L" horiz-adv-x="642" d="M377 564 C385 594 406 610 472 613 L485 658 L136 658 L123 613 C201 610 206 602 196 564 L70 94 C62 64 41 48 -25 45 L-38 0 L554 0 L630 272 L568 272 C484 128 408 50 262 50 L239 50 L377 564 Z " />
<glyph glyph-name="M" unicode="M" horiz-adv-x="966" d="M144 613 C222 610 220 574 206 522 L119 198 C90 92 64 49 -9 45 L-22 0 L227 0 L240 45 C158 51 155 88 180 183 L276 548 L287 548 L345 0 L422 0 L746 548 L769 548 L641 94 C631 59 612 48 558 45 L545 0 L882 0 L895 45 C817 48 812 56 822 94 L948 564 C956 594 977 610 1043 613 L1056 658 L743 658 L499 239 L491 239 L445 658 L157 658 L144 613 Z " />
<glyph glyph-name="N" unicode="N" horiz-adv-x="780" d="M399 658 L157 658 L144 613 C222 610 220 574 206 522 L119 198 C90 92 64 49 -9 45 L-22 0 L230 0 L243 45 C161 51 155 88 180 183 L262 490 L273 490 L476 -6 L607 -6 L733 460 C762 566 788 609 861 613 L874 658 L622 658 L609 613 C691 607 697 570 672 475 L596 194 L585 194 L399 658 Z " />
<glyph glyph-name="O" unicode="O" horiz-adv-x="743" d="M336 -16 C598 -16 740 202 740 410 C740 553 640 674 458 674 C196 674 54 456 54 248 C54 105 154 -16 336 -16 L336 -16 Z M328 34 C270 34 234 80 234 177 C234 338 335 624 466 624 C524 624 560 578 560 481 C560 320 462 34 328 34 L328 34 Z " />
<glyph glyph-name="P" unicode="P" horiz-adv-x="666" d="M310 316 L389 610 L409 610 C478 610 519 588 519 511 C519 408 469 316 352 316 L310 316 Z M123 613 C201 610 206 602 196 564 L70 94 C62 64 41 48 -25 45 L-38 0 L321 0 L334 45 C249 49 242 61 252 98 L298 268 L373 268 C588 268 698 370 698 494 C698 573 659 658 420 658 L136 658 L123 613 Z " />
<glyph glyph-name="Q" unicode="Q" horiz-adv-x="743" d="M54 248 C54 134 117 35 234 -1 C172 -15 114 -57 54 -134 L84 -164 C132 -108 167 -78 204 -78 C283 -78 317 -242 475 -242 C580 -242 689 -185 689 -89 C689 -40 659 -6 613 -6 C569 -6 538 -40 538 -84 C538 -122 570 -137 570 -161 C570 -177 558 -189 537 -189 C479 -189 444 -65 354 -15 C588 -5 740 210 740 410 C740 553 640 674 458 674 C199 674 54 453 54 248 L54 248 Z M559 481 C559 320 462 34 328 34 C270 34 234 80 234 177 C234 338 335 624 466 624 C524 624 559 578 559 481 L559 481 Z " />
<glyph glyph-name="R" unicode="R" horiz-adv-x="705" d="M320 352 L389 610 L434 610 C497 610 530 582 530 523 C530 444 491 352 379 352 L320 352 Z M123 613 C201 610 206 602 196 564 L70 94 C62 64 41 48 -25 45 L-38 0 L307 0 L320 45 C253 48 240 54 251 94 L307 306 L353 306 C438 306 444 275 438 188 L433 118 C427 30 454 -7 595 -7 C630 -7 687 -6 694 -6 L707 39 C637 44 620 58 621 103 L622 171 C623 271 598 314 469 329 L470 334 C636 350 714 428 714 508 C714 593 644 658 482 658 L136 658 L123 613 Z " />
<glyph glyph-name="S" unicode="S" horiz-adv-x="584" d="M2 -18 L61 -18 L99 32 C147 2 214 -16 287 -16 C460 -16 544 97 544 216 C544 295 495 347 406 394 C309 445 269 466 269 526 C269 578 304 624 368 624 C430 624 468 582 524 455 L577 455 L627 676 L572 676 L529 626 C492 653 440 674 378 674 C219 674 125 561 125 451 C125 362 178 312 298 255 C375 219 403 190 403 140 C403 85 365 34 295 34 C226 34 172 78 112 216 L59 216 L2 -18 Z " />
<glyph glyph-name="T" unicode="T" horiz-adv-x="697" d="M219 94 C211 64 184 48 118 45 L105 0 L466 0 L479 45 C401 48 390 56 400 94 L538 606 L561 606 C621 606 642 552 660 422 L717 422 L781 658 L142 658 L76 422 L131 422 C223 566 271 606 333 606 L357 606 L219 94 Z " />
<glyph glyph-name="U" unicode="U" horiz-adv-x="759" d="M367 564 C376 599 396 610 450 613 L463 658 L126 658 L113 613 C191 610 196 602 186 564 L112 289 C103 255 98 224 98 194 C98 69 178 -16 344 -16 C553 -16 620 85 659 231 L720 460 C748 566 775 609 848 613 L861 658 L612 658 L599 613 C681 607 684 570 659 475 L602 260 C575 159 533 63 420 63 C326 63 279 115 279 196 C279 219 283 244 290 271 L367 564 Z " />
<glyph glyph-name="V" unicode="V" horiz-adv-x="714" d="M814 613 L827 658 L574 658 L561 613 C632 601 643 571 595 491 L387 142 L366 142 L343 535 C340 585 351 609 423 613 L436 658 L94 658 L81 613 C140 601 159 590 163 549 L212 -6 L366 -6 L666 478 C723 571 746 597 814 613 L814 613 Z " />
<glyph glyph-name="W" unicode="W" horiz-adv-x="1060" d="M339 552 C336 595 335 608 402 613 L415 658 L94 658 L81 613 C144 605 160 590 163 549 L210 -6 L367 -6 L564 363 L584 -6 L743 -6 L1012 476 C1061 563 1092 597 1160 613 L1173 658 L906 658 L893 613 C971 601 985 565 934 471 L764 161 L743 161 L727 552 C725 594 730 611 800 613 L813 658 L502 658 L489 613 C545 606 551 594 553 554 L558 469 L390 157 L369 157 L339 552 Z " />
<glyph glyph-name="X" unicode="X" horiz-adv-x="716" d="M321 0 L662 0 L674 45 C614 50 590 73 572 113 L463 351 L605 483 C692 564 739 604 808 613 L820 658 L567 658 L555 613 C626 606 616 577 550 511 L443 403 L390 550 C376 589 380 613 452 613 L464 658 L125 658 L113 613 C167 605 192 585 210 545 L316 313 L171 175 C70 78 37 57 -36 45 L-48 0 L211 0 L223 45 C154 54 159 80 226 149 L337 261 L392 108 C406 69 405 46 333 45 L321 0 Z " />
<glyph glyph-name="Y" unicode="Y" horiz-adv-x="691" d="M641 509 C700 580 742 605 805 613 L818 658 L556 658 L543 613 C619 605 615 580 553 499 L435 346 L368 550 C354 593 354 612 433 614 L446 658 L106 658 L93 613 C149 605 172 587 185 552 L280 300 L225 94 C217 64 196 48 130 45 L117 0 L466 0 L479 45 C401 48 396 56 406 94 L459 291 L641 509 Z " />
<glyph glyph-name="Z" unicode="Z" horiz-adv-x="669" d="M530 606 L-4 55 L-13 0 L574 0 L642 253 L580 253 C487 107 428 52 330 52 L198 52 L732 603 L741 658 L177 658 L114 424 L177 423 C272 560 318 606 411 606 L530 606 Z " />
<glyph glyph-name="bracketleft" unicode="&#x5b;" horiz-adv-x="359" d="M-25 -156 L278 -156 L289 -114 L135 -114 L347 679 L501 679 L513 721 L210 721 L-25 -156 Z " />
<glyph glyph-name="backslash" unicode="&#x5c;" horiz-adv-x="431" d="M270 -203 L350 -203 L279 250 L213 704 L133 704 L203 250 L270 -203 Z " />
<glyph glyph-name="bracketright" unicode="&#x5d;" horiz-adv-x="359" d="M-126 -156 L177 -156 L412 721 L109 721 L98 679 L252 679 L40 -114 L-114 -114 L-126 -156 Z " />
<glyph glyph-name="asciicircum" unicode="&#x5e;" horiz-adv-x="414" d="M77 454 L168 454 L297 596 L359 454 L437 454 L366 717 L287 717 L77 454 Z " />
<glyph glyph-name="underscore" unicode="&#x5f;" horiz-adv-x="459" d="M-63 0 L401 0 L417 61 L-47 61 L-63 0 Z " />
<glyph glyph-name="grave" unicode="&#x60;" horiz-adv-x="268" d="M296 524 L367 524 L302 658 C260 744 244 771 204 771 C175 771 142 744 142 710 C142 679 177 642 212 607 L296 524 Z " />
<glyph glyph-name="a" unicode="a" horiz-adv-x="578" d="M516 310 L574 472 L422 463 L402 419 C382 450 357 472 294 472 C182 472 24 351 24 157 C24 45 97 -8 167 -8 C222 -8 248 12 302 63 L311 60 C313 11 341 -8 400 -8 C449 -8 504 6 528 14 L528 56 C471 55 452 56 451 79 C451 92 456 113 465 144 L516 310 Z M334 412 C358 412 373 398 387 379 L305 104 C280 84 267 78 245 78 C210 78 180 97 180 159 C180 249 247 412 334 412 L334 412 Z " />
<glyph glyph-name="b" unicode="b" horiz-adv-x="556" d="M247 41 C220 41 191 54 176 73 L249 366 C267 378 292 388 315 388 C356 388 378 357 378 303 C378 172 320 41 247 41 L247 41 Z M534 308 C534 392 491 472 400 472 C350 472 304 445 265 410 L261 414 L345 697 L74 682 L74 641 C136 637 165 624 156 590 L72 255 L10 53 C75 9 136 -8 210 -8 C404 -8 534 160 534 308 L534 308 Z " />
<glyph glyph-name="c" unicode="c" horiz-adv-x="488" d="M312 472 C143 472 24 323 24 177 C24 67 108 -8 230 -8 C337 -8 405 52 447 114 L420 139 C384 97 336 61 286 61 C215 61 179 105 179 183 C179 325 253 422 329 422 C354 422 367 418 381 407 C351 393 333 359 333 331 C333 286 363 264 404 264 C450 264 479 304 479 348 C479 424 412 472 312 472 L312 472 Z " />
<glyph glyph-name="d" unicode="d" horiz-adv-x="575" d="M622 697 L353 682 L353 641 C415 637 447 623 438 588 L397 427 C377 451 356 472 294 472 C182 472 24 351 24 157 C24 45 97 -8 167 -8 C222 -8 248 12 302 63 L311 60 C313 10 341 -8 400 -8 C449 -8 509 4 532 12 L532 53 C473 52 452 54 452 80 C452 94 458 114 466 143 L622 697 Z M331 408 C355 408 373 398 387 379 L305 104 C280 84 267 78 245 78 C210 78 180 97 180 159 C180 266 255 408 331 408 L331 408 Z " />
<glyph glyph-name="e" unicode="e" horiz-adv-x="490" d="M485 355 C485 418 435 472 324 472 C145 472 24 323 24 177 C24 67 108 -8 230 -8 C335 -8 400 45 451 114 L424 139 C390 92 336 61 286 61 C215 61 179 105 179 183 C179 191 179 200 180 208 C385 208 485 269 485 355 L485 355 Z M316 420 C341 420 360 404 360 367 C360 309 319 252 185 247 C203 343 261 420 316 420 L316 420 Z " />
<glyph glyph-name="f" unicode="f" horiz-adv-x="371" d="M426 404 L440 462 L313 462 L330 541 C349 629 377 658 418 658 C435 658 445 652 452 644 C437 631 424 612 424 586 C424 547 449 519 495 519 C537 519 568 546 568 596 C568 660 508 703 411 703 C285 703 207 655 169 476 L166 462 L54 462 L40 404 L154 404 L58 -24 C33 -134 -8 -163 -36 -163 C-43 -163 -51 -162 -60 -160 C-41 -148 -29 -122 -29 -100 C-29 -63 -56 -30 -98 -30 C-141 -30 -178 -65 -178 -109 C-178 -167 -132 -208 -38 -208 C114 -208 187 -108 238 120 L301 404 L426 404 Z " />
<glyph glyph-name="g" unicode="g" horiz-adv-x="556" d="M170 7 C214 7 249 23 287 53 L295 50 L291 32 C260 -105 215 -161 142 -161 C119 -161 89 -153 82 -137 C99 -125 113 -101 113 -81 C113 -50 89 -18 41 -18 C-6 -18 -44 -55 -44 -99 C-44 -150 7 -208 139 -208 C314 -208 387 -147 427 -6 L516 309 L574 471 L422 463 L406 419 C385 448 359 472 303 472 C149 472 24 315 24 160 C24 61 91 7 170 7 L170 7 Z M330 408 C358 408 373 398 387 379 L304 97 C282 85 265 79 245 79 C196 79 181 115 181 171 C181 241 235 408 330 408 L330 408 Z " />
<glyph glyph-name="h" unicode="h" horiz-adv-x="587" d="M539 314 C545 334 548 353 548 367 C548 431 502 469 438 469 C383 469 329 439 269 389 L265 393 L355 697 L84 682 L84 641 C146 637 175 624 166 590 L58 162 L3 0 L169 0 L253 345 C286 366 315 379 348 379 C377 379 391 363 391 338 C391 326 389 311 382 288 L328 122 C321 101 318 84 318 68 C318 17 355 -8 422 -8 C461 -8 526 4 549 12 L549 53 C484 52 467 57 467 80 C467 91 471 106 478 127 L539 314 Z " />
<glyph glyph-name="i" unicode="i" horiz-adv-x="339" d="M186 617 C186 569 219 543 257 543 C315 543 362 591 362 653 C362 701 330 725 293 725 C234 725 186 679 186 617 L186 617 Z M287 53 C221 52 195 57 195 87 C195 95 197 108 203 127 L313 466 L57 452 L57 411 C124 407 139 388 129 359 L54 129 C48 111 45 94 45 79 C45 25 84 -8 170 -8 C219 -8 264 4 287 12 L287 53 Z " />
<glyph glyph-name="j" unicode="j" horiz-adv-x="340" d="M195 617 C195 569 228 543 266 543 C324 543 371 591 371 653 C371 701 339 725 302 725 C243 725 195 679 195 617 L195 617 Z M-44 -208 C110 -208 169 -115 208 36 L320 466 L66 454 L66 411 C133 407 146 389 138 359 L46 -4 C13 -136 -16 -163 -48 -163 C-61 -163 -65 -161 -74 -158 C-55 -146 -45 -124 -45 -102 C-45 -64 -71 -30 -116 -30 C-159 -30 -194 -66 -194 -109 C-194 -167 -138 -208 -44 -208 L-44 -208 Z " />
<glyph glyph-name="k" unicode="k" horiz-adv-x="566" d="M355 697 L84 682 L84 641 C146 637 175 624 166 590 L58 162 L3 0 L169 0 L228 242 L238 242 C296 242 309 220 309 169 C309 150 298 107 298 75 C298 23 322 -7 410 -7 C449 -7 514 5 537 13 L537 54 C464 52 459 66 459 87 C459 120 464 133 464 160 C464 220 425 260 326 260 L326 269 C379 312 372 398 445 412 C436 400 429 378 429 363 C429 321 461 304 497 304 C541 304 575 341 575 393 C575 434 541 472 485 472 C333 472 346 273 263 273 L235 273 L355 697 Z " />
<glyph glyph-name="l" unicode="l" horiz-adv-x="317" d="M356 697 L92 682 L92 641 C154 637 183 624 174 590 L140 458 L44 139 C38 118 34 99 34 82 C34 24 75 -8 160 -8 C209 -8 254 4 277 12 L277 53 C210 52 185 57 185 87 C185 97 188 110 193 127 L356 697 Z " />
<glyph glyph-name="m" unicode="m" horiz-adv-x="854" d="M289 466 L55 452 L55 411 C117 407 120 389 112 359 L58 162 L3 0 L169 0 L253 345 C297 371 324 379 348 379 C373 379 386 367 386 345 C386 332 382 313 376 293 L285 0 L444 0 L531 314 C534 326 536 338 538 349 C571 368 596 376 620 376 C645 376 659 365 659 339 C659 326 655 308 649 288 L595 122 C588 101 585 84 585 68 C585 17 622 -8 689 -8 C728 -8 793 4 816 12 L816 53 C751 52 734 57 734 80 C734 91 738 106 745 127 L806 314 C813 334 815 352 815 369 C815 432 771 469 708 469 C653 469 601 439 537 384 C530 434 492 469 430 469 C375 469 329 439 269 389 L265 393 L289 466 Z " />
<glyph glyph-name="n" unicode="n" horiz-adv-x="584" d="M58 162 L3 0 L169 0 L253 345 C278 362 314 379 347 379 C374 379 389 365 389 340 C389 328 386 311 379 288 L325 122 C318 101 315 84 315 68 C315 17 352 -8 419 -8 C458 -8 523 4 546 12 L546 53 C481 52 464 57 464 80 C464 91 468 106 475 127 L536 314 C542 334 546 355 546 370 C546 431 502 469 438 469 C382 469 329 439 269 389 L265 393 L289 466 L55 452 L55 411 C117 407 120 389 112 359 L58 162 Z " />
<glyph glyph-name="o" unicode="o" horiz-adv-x="537" d="M318 472 C124 472 23 318 23 169 C23 73 96 -8 219 -8 C413 -8 514 146 514 295 C514 391 441 472 318 472 L318 472 Z M219 39 C190 39 173 62 173 109 C173 242 244 425 318 425 C347 425 364 402 364 355 C364 222 295 39 219 39 L219 39 Z " />
<glyph glyph-name="p" unicode="p" horiz-adv-x="564" d="M258 43 C231 43 201 57 189 82 L259 366 C277 378 302 388 325 388 C366 388 387 356 387 300 C387 166 331 43 258 43 L258 43 Z M171 7 C196 0 228 -5 255 -5 C443 -5 543 154 543 305 C543 391 501 472 410 472 C360 472 314 445 275 410 L271 414 L289 466 L55 452 L55 411 C117 407 120 389 112 359 L13 -17 L-23 -120 C-29 -137 -50 -146 -102 -148 L-102 -189 L222 -189 L222 -148 C156 -146 133 -141 138 -122 L171 7 Z " />
<glyph glyph-name="q" unicode="q" horiz-adv-x="569" d="M335 408 C359 408 374 398 388 379 L307 107 C278 85 264 78 239 78 C205 78 181 102 181 161 C181 229 230 408 335 408 L335 408 Z M244 -120 C238 -137 204 -146 152 -148 L152 -189 L477 -189 L477 -148 C420 -146 397 -142 402 -122 L502 259 L576 472 L422 463 L406 419 C385 448 358 472 309 472 C142 472 24 307 24 154 C24 51 78 -8 157 -8 C213 -8 242 20 290 64 L298 61 L244 -120 Z " />
<glyph glyph-name="r" unicode="r" horiz-adv-x="488" d="M416 469 C354 469 308 428 264 373 L260 377 L289 466 L55 452 L55 411 C117 407 120 389 112 359 L58 162 L3 0 L169 0 L246 316 C276 351 310 373 349 382 C343 369 340 351 340 340 C340 300 368 277 412 277 C466 277 504 322 504 386 C504 429 469 469 416 469 L416 469 Z " />
<glyph glyph-name="s" unicode="s" horiz-adv-x="458" d="M192 -8 C335 -8 411 70 411 157 C411 222 371 256 292 287 C214 317 194 336 194 365 C194 398 226 425 275 425 C302 425 324 416 334 408 C327 395 321 383 321 360 C321 332 349 309 385 309 C426 309 450 336 450 372 C450 433 371 472 278 472 C157 472 68 394 68 304 C68 233 117 200 196 170 C262 145 284 132 284 100 C284 66 249 39 195 39 C168 39 143 45 124 57 C131 68 137 84 137 99 C137 136 108 156 73 156 C34 156 4 129 4 90 C4 24 91 -8 192 -8 L192 -8 Z " />
<glyph glyph-name="t" unicode="t" horiz-adv-x="386" d="M408 404 L426 462 L305 462 L358 626 L197 613 L154 462 L63 462 L45 404 L136 404 L57 139 C51 118 48 98 48 86 C48 29 87 -8 173 -8 C245 -8 299 14 338 31 L342 76 C313 70 289 69 271 69 C233 69 208 80 208 115 C208 124 210 139 215 157 L288 404 L408 404 Z " />
<glyph glyph-name="u" unicode="u" horiz-adv-x="601" d="M43 147 C37 127 33 106 33 91 C33 30 77 -8 141 -8 C196 -8 259 21 317 84 L321 80 C320 73 319 65 319 59 C319 16 346 -7 419 -7 C458 -7 523 5 546 13 L546 54 C484 53 464 56 464 80 C464 90 469 106 475 127 L577 464 L414 464 L380 306 L323 120 C292 97 263 82 229 82 C205 82 190 94 190 120 C190 132 193 150 200 173 L292 466 L56 452 L56 411 C118 407 122 388 112 359 L43 147 Z " />
<glyph glyph-name="v" unicode="v" horiz-adv-x="515" d="M271 -10 L432 224 C489 307 519 351 519 395 C519 439 494 472 442 472 C392 472 360 436 360 390 C360 356 383 327 411 312 C396 267 375 227 339 173 L291 101 L272 101 L267 222 L243 467 L17 445 L17 404 C82 399 95 386 101 346 L125 184 L137 -2 L271 -10 Z " />
<glyph glyph-name="w" unicode="w" horiz-adv-x="794" d="M550 -10 L711 224 C768 307 798 351 798 395 C798 439 773 472 721 472 C671 472 639 436 639 390 C639 356 662 327 690 312 C675 267 654 227 618 173 L570 101 L555 101 L550 219 L531 467 L376 454 L393 319 C379 280 361 240 335 191 L287 101 L270 101 L265 219 L241 467 L17 445 L17 404 C83 399 95 386 101 345 L125 180 L137 -2 L267 -10 L405 217 L410 180 L422 -2 L550 -10 Z " />
<glyph glyph-name="x" unicode="x" horiz-adv-x="524" d="M265 467 L56 452 L56 411 C115 411 133 402 148 362 L196 214 L178 183 C139 116 114 82 101 75 C100 102 77 133 38 133 C-5 133 -35 100 -35 60 C-35 19 -4 -16 45 -16 C93 -16 134 8 201 138 L217 169 L231 169 L273 -5 L479 2 L479 43 C419 43 406 55 389 98 L340 243 L361 287 C389 345 409 375 425 386 C426 343 457 321 489 321 C531 321 559 355 559 398 C559 441 530 473 483 473 C428 473 390 440 352 361 L320 294 L306 294 L265 467 Z " />
<glyph glyph-name="y" unicode="y" horiz-adv-x="515" d="M242 467 L14 445 L14 404 C80 399 94 386 103 345 L138 180 L182 -42 C149 -105 76 -152 33 -153 C44 -143 53 -124 53 -102 C53 -64 27 -30 -18 -30 C-61 -30 -96 -67 -96 -112 C-96 -168 -55 -208 13 -208 C136 -208 246 -107 403 140 C483 266 519 341 519 385 C519 431 494 472 442 472 C392 472 360 436 360 390 C360 356 388 324 418 309 C407 264 391 226 334 134 L310 95 L293 95 L278 229 L242 467 Z " />
<glyph glyph-name="z" unicode="z" horiz-adv-x="480" d="M2 -15 C29 -4 71 10 110 10 C162 10 252 -11 311 -11 C401 -11 430 34 450 184 L407 188 C392 132 376 107 326 107 C299 107 263 114 229 114 C196 114 170 107 147 97 L140 109 L505 428 L492 464 L100 464 L53 280 L100 278 C135 345 154 355 238 357 L335 359 L339 344 L-22 21 L2 -15 Z " />
<glyph glyph-name="braceleft" unicode="&#x7b;" horiz-adv-x="424" d="M332 -152 L343 -110 C264 -106 235 -84 235 -30 C235 38 293 132 293 195 C293 258 252 287 150 307 L154 320 C242 331 291 354 327 390 C391 454 362 580 417 635 C444 662 475 672 555 679 L566 721 C410 718 317 700 264 647 C181 564 227 440 175 388 C151 364 109 352 36 347 L20 290 C109 284 141 263 141 225 C141 172 68 76 68 -11 C68 -105 142 -149 332 -152 L332 -152 Z " />
<glyph glyph-name="bar" unicode="&#x7c;" horiz-adv-x="290" d="M107 704 L107 -203 L183 -203 L183 704 L107 704 Z " />
<glyph glyph-name="braceright" unicode="&#x7d;" horiz-adv-x="424" d="M-113 -152 C43 -149 136 -131 189 -78 C272 5 226 129 278 181 C302 205 344 217 417 222 L433 279 C344 285 312 306 312 344 C312 397 385 493 385 580 C385 674 311 718 121 721 L110 679 C189 675 218 653 218 599 C218 531 160 437 160 374 C160 311 201 282 303 262 L299 249 C211 238 162 215 126 179 C62 115 91 -11 36 -66 C9 -93 -22 -103 -102 -110 L-113 -152 Z " />
<glyph glyph-name="asciitilde" unicode="&#x7e;" horiz-adv-x="372" d="M41 251 L101 251 C113 283 129 296 142 296 C175 296 228 252 271 252 C328 252 364 306 380 398 L320 398 C308 366 292 353 279 353 C246 353 193 397 150 397 C93 397 57 343 41 251 L41 251 Z " />
<glyph glyph-name="uni00A0" unicode="&#xa0;" horiz-adv-x="184" d="" />
<glyph glyph-name="exclamdown" unicode="&#xa1;" horiz-adv-x="287" d="M238 505 C287 505 332 543 332 594 C332 645 289 683 238 683 C189 683 144 645 144 594 C144 543 187 505 238 505 L238 505 Z M179 457 C95 286 7 148 7 72 C7 23 44 -16 100 -16 C149 -16 181 15 195 66 C213 132 210 296 222 445 L179 457 Z " />
<glyph glyph-name="cent" unicode="&#xa2;" horiz-adv-x="523" d="M233 -90 L254 -10 C351 -4 414 52 454 111 L427 136 C391 94 343 58 293 58 C285 58 278 58 271 59 L367 418 C394 414 412 403 422 392 C392 378 374 344 374 316 C374 271 404 249 445 249 C491 249 520 289 520 333 C520 396 466 448 381 464 L401 537 L342 537 L324 469 C147 466 28 318 28 174 C28 76 96 7 196 -8 L174 -90 L233 -90 Z M183 180 C183 304 242 394 317 414 L227 76 C198 95 183 131 183 180 L183 180 Z " />
<glyph glyph-name="sterling" unicode="&#xa3;" horiz-adv-x="648" d="M524 290 L538 344 L356 344 C353 377 346 413 346 450 C346 548 388 594 458 594 C497 594 517 581 529 566 C502 555 478 535 478 490 C478 444 510 416 557 416 C604 416 643 451 643 509 C643 563 594 642 447 642 C282 642 174 549 174 432 C174 402 178 372 184 344 L93 344 L79 290 L197 290 C201 268 205 249 205 234 C205 198 196 171 179 144 C166 145 152 146 139 146 C40 146 -1 99 -1 46 C-1 13 25 -17 72 -17 C120 -17 168 32 191 89 C251 33 321 -15 411 -15 C508 -15 574 25 604 183 L549 190 C522 137 508 116 445 116 C373 116 301 132 226 140 C319 178 350 229 356 290 L524 290 Z " />
<glyph glyph-name="yen" unicode="&#xa5;" horiz-adv-x="674" d="M581 145 L594 194 L415 194 L434 265 L450 285 L619 285 L632 334 L489 334 L610 485 C665 553 681 571 747 581 L759 626 L540 626 L528 581 C596 573 583 548 529 476 L418 324 L364 524 C354 561 358 578 426 581 L438 626 L119 626 L107 581 C163 574 180 561 190 525 L243 334 L100 334 L87 285 L256 285 L261 268 L241 194 L62 194 L49 145 L228 145 L214 94 C205 60 196 48 114 45 L102 0 L450 0 L462 45 C382 48 379 59 388 94 L401 145 L581 145 Z " />
<glyph glyph-name="brokenbar" unicode="&#xa6;" horiz-adv-x="290" d="M183 316 L183 704 L107 704 L107 316 L183 316 Z M107 184 L107 -203 L183 -203 L183 184 L107 184 Z " />
<glyph glyph-name="section" unicode="&#xa7;" horiz-adv-x="579" d="M231 -135 C365 -135 455 -56 455 42 C455 82 435 113 409 135 L410 141 C510 174 543 231 543 291 C543 376 476 408 386 440 C322 463 267 482 267 525 C267 562 307 592 379 592 C426 592 458 580 470 566 C457 555 448 535 448 516 C448 481 473 454 516 454 C557 454 581 486 581 525 C581 592 501 642 376 642 C237 642 151 566 151 473 C151 430 173 399 202 376 L201 371 C113 346 58 303 58 229 C58 145 138 113 213 85 C291 56 339 34 339 -12 C339 -55 296 -85 227 -85 C162 -85 121 -67 109 -54 C121 -42 135 -23 135 1 C135 35 110 61 73 61 C28 61 2 26 2 -13 C2 -85 97 -135 231 -135 L231 -135 Z M423 233 C423 216 414 182 374 159 C352 173 326 184 301 193 C236 217 178 239 178 281 C178 305 195 333 237 353 C257 343 279 335 301 327 C367 304 423 278 423 233 L423 233 Z " />
<glyph glyph-name="dieresis" unicode="&#xa8;" horiz-adv-x="439" d="M412 532 C464 532 507 576 507 632 C507 676 477 698 442 698 C390 698 347 654 347 598 C347 554 377 532 412 532 L412 532 Z M202 532 C254 532 297 576 297 632 C297 676 267 698 232 698 C180 698 137 654 137 598 C137 554 167 532 202 532 L202 532 Z " />
<glyph glyph-name="copyright" unicode="&#xa9;" horiz-adv-x="791" d="M392 142 C471 142 524 186 563 251 L534 268 C495 211 462 190 421 190 C382 190 346 215 346 286 C346 373 389 484 461 484 C498 484 521 458 538 379 L574 379 L606 523 L571 523 L547 495 C527 509 494 522 455 522 C314 522 237 400 237 292 C237 205 292 142 392 142 L392 142 Z M380 -32 C614 -32 774 158 774 380 C774 561 648 690 458 690 C224 690 64 500 64 278 C64 97 190 -32 380 -32 L380 -32 Z M388 13 C229 13 120 121 120 277 C120 475 250 645 450 645 C609 645 717 537 717 381 C717 183 588 13 388 13 L388 13 Z " />
<glyph glyph-name="ordfeminine" unicode="&#xaa;" horiz-adv-x="451" d="M195 311 C230 311 256 320 291 361 L299 359 C301 323 320 311 360 311 C394 311 433 321 450 326 L450 361 C399 359 393 373 406 417 L443 539 L484 653 L377 647 L363 614 C349 635 329 651 285 651 C207 651 94 566 94 430 C94 352 146 311 195 311 L195 311 Z M251 376 C226 376 203 390 203 434 C203 497 251 604 312 604 C329 604 341 594 351 581 L295 394 C277 380 266 376 251 376 L251 376 Z " />
<glyph glyph-name="guillemotleft" unicode="&#xab;" horiz-adv-x="532" d="M394 32 L435 57 L375 226 L529 384 L498 420 L301 290 C273 271 251 248 251 232 C251 218 256 202 272 182 L394 32 Z M172 32 L213 57 L153 226 L307 384 L276 420 L79 290 C51 271 29 248 29 232 C29 218 34 202 50 182 L172 32 Z " />
<glyph glyph-name="registered" unicode="&#xae;" horiz-adv-x="511" d="M286 242 C424 242 537 355 537 492 C537 606 454 690 332 690 C193 690 82 580 82 443 C82 327 165 242 286 242 L286 242 Z M289 273 C186 273 118 343 118 441 C118 555 199 659 329 659 C434 659 501 591 501 494 C501 378 420 273 289 273 L289 273 Z M297 488 L316 561 L332 561 C360 561 368 552 368 532 C368 514 356 488 320 488 L297 488 Z M290 460 L305 460 C334 460 340 456 337 426 L335 402 C332 371 342 359 391 359 L416 359 L423 385 C408 387 400 392 400 408 L400 425 C400 453 391 466 359 470 L360 478 C401 481 432 510 432 537 C432 567 408 589 352 589 L232 589 L225 563 C252 563 254 561 250 546 L212 404 C209 394 202 388 179 387 L172 361 L292 361 L299 387 C275 388 271 390 275 404 L290 460 Z " />
<glyph glyph-name="macron" unicode="&#xaf;" horiz-adv-x="341" d="M120 549 L391 549 L412 626 L141 626 L120 549 Z " />
<glyph glyph-name="degree" unicode="&#xb0;" horiz-adv-x="431" d="M459 548 C459 625 408 681 316 681 C184 681 114 573 114 481 C114 404 165 348 257 348 C389 348 459 456 459 548 L459 548 Z M220 439 C220 509 262 640 320 640 C340 640 353 625 353 590 C353 520 311 389 253 389 C233 389 220 404 220 439 L220 439 Z " />
<glyph glyph-name="plusminus" unicode="&#xb1;" horiz-adv-x="505" d="M393 612 L316 612 L273 452 L115 452 L95 378 L253 378 L210 218 L287 218 L330 378 L488 378 L508 452 L350 452 L393 612 Z M408 80 L427 150 L34 150 L16 80 L408 80 Z " />
<glyph glyph-name="two.sup" unicode="&#xb2;" horiz-adv-x="405" d="M28 237 L361 237 L410 404 L381 405 C348 350 331 337 286 337 L153 337 L155 348 L287 412 C406 470 462 526 462 599 C462 667 412 715 306 715 C215 715 120 663 120 586 C120 547 148 519 188 519 C230 519 253 552 253 582 C253 617 232 636 205 645 C219 659 245 671 271 671 C314 671 332 640 332 603 C332 544 301 488 175 404 L48 318 L28 237 Z " />
<glyph glyph-name="three.sup" unicode="&#xb3;" horiz-adv-x="405" d="M228 226 C359 226 416 294 416 359 C416 410 379 455 280 467 L282 475 C424 486 467 537 467 607 C467 659 430 715 307 715 C209 715 136 667 136 606 C136 571 162 545 205 545 C249 545 268 577 268 604 C268 631 252 650 227 660 C239 668 262 675 283 675 C325 675 345 649 345 608 C345 579 335 554 317 536 C295 514 259 500 220 497 L208 451 C271 440 290 416 290 374 C290 344 280 311 259 290 C244 275 227 266 203 266 C171 266 149 279 142 285 C165 292 189 312 189 346 C189 382 160 404 126 404 C81 404 53 372 53 332 C53 268 119 226 228 226 L228 226 Z " />
<glyph glyph-name="acute" unicode="&#xb4;" horiz-adv-x="268" d="M96 524 L171 524 L251 588 C346 664 359 677 359 718 C359 743 330 770 303 770 C263 770 245 750 180 651 L96 524 Z " />
<glyph glyph-name="paragraph" unicode="&#xb6;" horiz-adv-x="644" d="M216 -104 L287 -104 L470 576 L547 576 L364 -104 L434 -104 L605 531 C616 572 628 579 712 582 L724 627 L410 627 C187 627 63 494 63 355 C63 246 146 181 288 163 L216 -104 Z " />
<glyph glyph-name="periodcentered" unicode="&#xb7;" horiz-adv-x="287" d="M166 231 C215 231 260 269 260 320 C260 371 217 409 166 409 C117 409 72 371 72 320 C72 269 115 231 166 231 L166 231 Z " />
<glyph glyph-name="cedilla" unicode="&#xb8;" horiz-adv-x="322" d="M44 -251 C131 -251 190 -208 190 -147 C190 -101 156 -67 80 -65 L79 -62 L182 17 L120 17 L-13 -80 L7 -126 C19 -125 35 -122 49 -122 C86 -122 109 -135 109 -157 C109 -180 86 -202 43 -202 C12 -202 -20 -199 -40 -195 L-57 -236 C-22 -246 19 -251 44 -251 L44 -251 Z " />
<glyph glyph-name="one.sup" unicode="&#xb9;" horiz-adv-x="405" d="M158 652 C243 652 256 635 243 587 L171 318 C164 292 141 280 52 278 L41 237 L382 237 L393 278 C301 280 286 293 293 318 L398 708 L168 691 L158 652 Z " />
<glyph glyph-name="ordmasculine" unicode="&#xba;" horiz-adv-x="431" d="M243 311 C379 311 451 421 451 525 C451 592 398 651 312 651 C176 651 104 541 104 437 C104 370 157 311 243 311 L243 311 Z M243 349 C223 349 209 364 209 397 C209 490 260 613 312 613 C332 613 346 598 346 565 C346 472 295 349 243 349 L243 349 Z " />
<glyph glyph-name="guillemotright" unicode="&#xbb;" horiz-adv-x="532" d="M253 32 L450 162 C478 181 500 204 500 220 C500 234 495 250 479 270 L357 420 L316 395 L376 226 L222 68 L253 32 Z M31 32 L228 162 C256 181 278 204 278 220 C278 234 273 250 257 270 L135 420 L94 395 L154 226 L0 68 L31 32 Z " />
<glyph glyph-name="onequarter" unicode="&#xbc;" horiz-adv-x="1080" d="M959 66 L976 129 L908 129 L984 411 L846 411 L602 123 L588 66 L781 66 L766 10 C759 -15 741 -24 686 -26 L675 -67 L908 -67 L919 -26 C888 -24 869 -17 876 10 L891 66 L959 66 Z M94 583 C179 583 192 566 179 518 L107 249 C100 223 77 211 -12 209 L-23 168 L318 168 L329 209 C237 211 222 224 229 249 L334 639 L104 622 L94 583 Z M157 -82 L244 -82 L581 282 L922 646 L836 646 L499 282 L157 -82 Z M840 337 L854 337 L798 129 L666 129 L840 337 Z " />
<glyph glyph-name="onehalf" unicode="&#xbd;" horiz-adv-x="1080" d="M94 583 C179 583 192 566 179 518 L107 249 C100 223 77 211 -12 209 L-23 168 L318 168 L329 209 C237 211 222 224 229 249 L334 639 L104 622 L94 583 Z M617 -67 L950 -67 L999 100 L970 101 C937 46 920 33 875 33 L742 33 L744 44 L876 108 C995 166 1051 222 1051 295 C1051 363 1001 411 895 411 C804 411 709 359 709 282 C709 243 737 215 777 215 C819 215 842 248 842 278 C842 313 821 332 794 341 C808 355 834 367 860 367 C903 367 921 336 921 299 C921 240 890 184 764 100 L637 14 L617 -67 Z M157 -82 L244 -82 L581 282 L922 646 L836 646 L499 282 L157 -82 Z " />
<glyph glyph-name="threequarters" unicode="&#xbe;" horiz-adv-x="1080" d="M961 66 L978 129 L910 129 L986 411 L848 411 L604 123 L590 66 L783 66 L768 10 C761 -15 743 -24 688 -26 L677 -67 L910 -67 L921 -26 C890 -24 871 -17 878 10 L893 66 L961 66 Z M209 157 C340 157 397 225 397 290 C397 341 360 386 261 398 L263 406 C405 417 448 468 448 538 C448 590 411 646 288 646 C190 646 117 598 117 537 C117 502 143 476 186 476 C230 476 249 508 249 535 C249 562 233 581 208 591 C220 599 243 606 264 606 C306 606 326 580 326 539 C326 510 316 485 298 467 C276 445 240 431 201 428 L189 382 C252 371 271 347 271 305 C271 275 261 242 240 221 C225 206 208 197 184 197 C152 197 130 210 123 216 C146 223 170 243 170 277 C170 313 141 335 107 335 C62 335 34 303 34 263 C34 199 100 157 209 157 L209 157 Z M159 -82 L246 -82 L583 282 L924 646 L838 646 L501 282 L159 -82 Z M842 337 L856 337 L800 129 L668 129 L842 337 Z " />
<glyph glyph-name="questiondown" unicode="&#xbf;" horiz-adv-x="529" d="M304 442 L287 377 C88 364 -1 282 -1 158 C-1 66 76 -16 259 -16 C402 -16 493 66 493 148 C493 206 455 246 402 246 C343 246 309 197 309 153 C309 120 326 85 356 73 C344 51 305 33 263 33 C207 33 161 65 161 129 C161 203 201 313 340 325 L366 433 L304 442 Z M378 684 C329 684 284 646 284 595 C284 544 327 506 378 506 C427 506 472 544 472 595 C472 646 429 684 378 684 L378 684 Z " />
<glyph glyph-name="Agrave" unicode="&#xc0;" horiz-adv-x="708" d="M-49 0 L204 0 L217 45 C146 57 136 89 180 167 L216 231 L427 231 L437 123 C441 73 430 50 358 45 L345 0 L684 0 L697 45 C631 54 624 69 619 109 L542 668 L395 668 L109 180 C53 85 32 61 -36 45 L-49 0 Z M422 283 L245 283 L381 525 L401 525 L422 283 Z M461 734 L532 734 L467 868 C425 954 409 981 369 981 C340 981 307 954 307 920 C307 889 342 852 377 817 L461 734 Z " />
<glyph glyph-name="Aacute" unicode="&#xc1;" horiz-adv-x="708" d="M-49 0 L204 0 L217 45 C146 57 136 89 180 167 L216 231 L427 231 L437 123 C441 73 430 50 358 45 L345 0 L684 0 L697 45 C631 54 624 69 619 109 L542 668 L395 668 L109 180 C53 85 32 61 -36 45 L-49 0 Z M422 283 L245 283 L381 525 L401 525 L422 283 Z M411 734 L486 734 L566 798 C661 874 674 887 674 928 C674 953 645 980 618 980 C578 980 560 960 495 861 L411 734 Z " />
<glyph glyph-name="Acircumflex" unicode="&#xc2;" horiz-adv-x="708" d="M-49 0 L204 0 L217 45 C146 57 136 89 180 167 L216 231 L427 231 L437 123 C441 73 430 50 358 45 L345 0 L684 0 L697 45 C631 54 624 69 619 109 L542 668 L395 668 L109 180 C53 85 32 61 -36 45 L-49 0 Z M422 283 L245 283 L381 525 L401 525 L422 283 Z M313 734 L384 734 L510 834 L581 734 L642 734 L583 927 L483 927 L313 734 Z " />
<glyph glyph-name="Atilde" unicode="&#xc3;" horiz-adv-x="708" d="M-49 0 L204 0 L217 45 C146 57 136 89 180 167 L216 231 L427 231 L437 123 C441 73 430 50 358 45 L345 0 L684 0 L697 45 C631 54 624 69 619 109 L542 668 L395 668 L109 180 C53 85 32 61 -36 45 L-49 0 Z M422 283 L245 283 L381 525 L401 525 L422 283 Z M334 736 L394 736 C406 768 422 781 435 781 C468 781 521 737 564 737 C621 737 657 791 673 883 L613 883 C601 851 585 838 572 838 C539 838 486 882 443 882 C386 882 350 828 334 736 L334 736 Z " />
<glyph glyph-name="Adieresis" unicode="&#xc4;" horiz-adv-x="708" d="M-49 0 L204 0 L217 45 C146 57 136 89 180 167 L216 231 L427 231 L437 123 C441 73 430 50 358 45 L345 0 L684 0 L697 45 C631 54 624 69 619 109 L542 668 L395 668 L109 180 C53 85 32 61 -36 45 L-49 0 Z M422 283 L245 283 L381 525 L401 525 L422 283 Z M596 742 C648 742 691 786 691 842 C691 886 661 908 626 908 C574 908 531 864 531 808 C531 764 561 742 596 742 L596 742 Z M386 742 C438 742 481 786 481 842 C481 886 451 908 416 908 C364 908 321 864 321 808 C321 764 351 742 386 742 L386 742 Z " />
<glyph glyph-name="Aring" unicode="&#xc5;" horiz-adv-x="708" d="M216 231 L422 231 L432 123 C437 73 426 49 358 45 L345 0 L684 0 L697 45 C631 54 624 69 619 109 L545 643 C588 669 618 714 618 770 C618 833 566 867 505 867 C425 867 348 805 348 716 C348 685 361 661 381 644 L109 180 C53 85 32 61 -36 45 L-49 0 L204 0 L217 45 C146 57 136 89 180 167 L216 231 Z M466 665 C435 665 427 691 427 715 C427 750 450 821 500 821 C531 821 539 795 539 771 C539 736 516 665 466 665 L466 665 Z M417 283 L245 283 L377 517 L396 517 L417 283 Z " />
<glyph glyph-name="AE" unicode="&#xc6;" horiz-adv-x="1073" d="M866 213 L927 454 L874 454 C847 393 821 372 765 372 L714 372 L778 606 L858 606 C970 606 1005 546 1010 434 L1067 434 L1127 658 L418 658 L405 613 C457 607 479 596 479 579 C479 567 469 553 452 534 L122 168 C43 80 24 55 -58 39 L-69 0 L176 0 L187 39 C154 45 137 53 137 70 C137 86 155 111 189 149 L279 251 L502 251 L460 94 C452 64 431 48 365 45 L352 0 L975 0 L1041 246 L979 246 C914 118 854 53 722 53 L630 53 L701 320 L744 320 C801 320 819 294 815 213 L866 213 Z M516 303 L325 303 L577 587 L592 587 L516 303 Z " />
<glyph glyph-name="Ccedilla" unicode="&#xc7;" horiz-adv-x="691" d="M243 -251 C330 -251 389 -208 389 -147 C389 -101 355 -67 279 -65 L278 -62 L338 -16 C477 -12 576 69 646 181 L601 207 C527 100 450 58 381 58 C315 58 237 101 237 241 C237 406 342 624 473 624 C543 624 582 564 610 415 L667 415 L732 676 L677 676 L636 625 C602 648 537 674 460 674 C201 674 54 453 54 248 C54 113 128 7 278 -12 L186 -80 L206 -126 C218 -125 234 -122 248 -122 C285 -122 308 -135 308 -157 C308 -180 285 -202 242 -202 C211 -202 179 -199 159 -195 L142 -236 C177 -246 218 -251 243 -251 L243 -251 Z " />
<glyph glyph-name="Egrave" unicode="&#xc8;" horiz-adv-x="692" d="M136 658 L123 613 C201 610 206 602 196 564 L70 94 C62 64 41 48 -25 45 L-38 0 L585 0 L651 246 L589 246 C524 118 464 53 332 53 L240 53 L311 320 L354 320 C411 320 429 294 425 213 L476 213 L537 454 L484 454 C457 393 431 372 375 372 L324 372 L388 606 L468 606 C580 606 615 546 620 434 L677 434 L737 658 L136 658 Z M462 734 L533 734 L468 868 C426 954 410 981 370 981 C341 981 308 954 308 920 C308 889 343 852 378 817 L462 734 Z " />
<glyph glyph-name="Eacute" unicode="&#xc9;" horiz-adv-x="692" d="M136 658 L123 613 C201 610 206 602 196 564 L70 94 C62 64 41 48 -25 45 L-38 0 L585 0 L651 246 L589 246 C524 118 464 53 332 53 L240 53 L311 320 L354 320 C411 320 429 294 425 213 L476 213 L537 454 L484 454 C457 393 431 372 375 372 L324 372 L388 606 L468 606 C580 606 615 546 620 434 L677 434 L737 658 L136 658 Z M412 734 L487 734 L567 798 C662 874 675 887 675 928 C675 953 646 980 619 980 C579 980 561 960 496 861 L412 734 Z " />
<glyph glyph-name="Ecircumflex" unicode="&#xca;" horiz-adv-x="692" d="M136 658 L123 613 C201 610 206 602 196 564 L70 94 C62 64 41 48 -25 45 L-38 0 L585 0 L651 246 L589 246 C524 118 464 53 332 53 L240 53 L311 320 L354 320 C411 320 429 294 425 213 L476 213 L537 454 L484 454 C457 393 431 372 375 372 L324 372 L388 606 L468 606 C580 606 615 546 620 434 L677 434 L737 658 L136 658 Z M314 734 L385 734 L511 834 L582 734 L643 734 L584 927 L484 927 L314 734 Z " />
<glyph glyph-name="Edieresis" unicode="&#xcb;" horiz-adv-x="692" d="M136 658 L123 613 C201 610 206 602 196 564 L70 94 C62 64 41 48 -25 45 L-38 0 L585 0 L651 246 L589 246 C524 118 464 53 332 53 L240 53 L311 320 L354 320 C411 320 429 294 425 213 L476 213 L537 454 L484 454 C457 393 431 372 375 372 L324 372 L388 606 L468 606 C580 606 615 546 620 434 L677 434 L737 658 L136 658 Z M598 742 C650 742 693 786 693 842 C693 886 663 908 628 908 C576 908 533 864 533 808 C533 764 563 742 598 742 L598 742 Z M388 742 C440 742 483 786 483 842 C483 886 453 908 418 908 C366 908 323 864 323 808 C323 764 353 742 388 742 L388 742 Z " />
<glyph glyph-name="Igrave" unicode="&#xcc;" horiz-adv-x="415" d="M482 613 L495 658 L146 658 L133 613 C211 610 216 602 206 564 L80 94 C72 64 51 48 -15 45 L-28 0 L321 0 L334 45 C256 48 251 56 261 94 L387 564 C395 594 416 610 482 613 L482 613 Z M320 734 L391 734 L326 868 C284 954 268 981 228 981 C199 981 166 954 166 920 C166 889 201 852 236 817 L320 734 Z " />
<glyph glyph-name="Iacute" unicode="&#xcd;" horiz-adv-x="415" d="M482 613 L495 658 L146 658 L133 613 C211 610 216 602 206 564 L80 94 C72 64 51 48 -15 45 L-28 0 L321 0 L334 45 C256 48 251 56 261 94 L387 564 C395 594 416 610 482 613 L482 613 Z M270 734 L345 734 L425 798 C520 874 533 887 533 928 C533 953 504 980 477 980 C437 980 419 960 354 861 L270 734 Z " />
<glyph glyph-name="Icircumflex" unicode="&#xce;" horiz-adv-x="415" d="M482 613 L495 658 L146 658 L133 613 C211 610 216 602 206 564 L80 94 C72 64 51 48 -15 45 L-28 0 L321 0 L334 45 C256 48 251 56 261 94 L387 564 C395 594 416 610 482 613 L482 613 Z M172 734 L243 734 L369 834 L440 734 L501 734 L442 927 L342 927 L172 734 Z " />
<glyph glyph-name="Idieresis" unicode="&#xcf;" horiz-adv-x="415" d="M482 613 L495 658 L146 658 L133 613 C211 610 216 602 206 564 L80 94 C72 64 51 48 -15 45 L-28 0 L321 0 L334 45 C256 48 251 56 261 94 L387 564 C395 594 416 610 482 613 L482 613 Z M456 742 C508 742 551 786 551 842 C551 886 521 908 486 908 C434 908 391 864 391 808 C391 764 421 742 456 742 L456 742 Z M246 742 C298 742 341 786 341 842 C341 886 311 908 276 908 C224 908 181 864 181 808 C181 764 211 742 246 742 L246 742 Z " />
<glyph glyph-name="Eth" unicode="&#xd0;" horiz-adv-x="745" d="M70 94 C62 64 41 48 -25 45 L-38 0 L306 0 C455 0 560 48 630 118 C707 195 740 299 740 396 C740 550 644 658 432 658 L136 658 L123 613 C201 610 206 602 196 564 L145 374 L66 374 L49 311 L128 311 L70 94 Z M240 48 L309 311 L412 311 L429 374 L326 374 L388 610 L435 610 C516 610 558 557 558 458 C558 347 525 196 441 112 C402 73 352 48 290 48 L240 48 Z " />
<glyph glyph-name="Ntilde" unicode="&#xd1;" horiz-adv-x="780" d="M399 658 L157 658 L144 613 C222 610 220 574 206 522 L119 198 C90 92 64 49 -9 45 L-22 0 L230 0 L243 45 C161 51 155 88 180 183 L262 490 L273 490 L476 -6 L607 -6 L733 460 C762 566 788 609 861 613 L874 658 L622 658 L609 613 C691 607 697 570 672 475 L596 194 L585 194 L399 658 Z M391 736 L451 736 C463 768 479 781 492 781 C525 781 578 737 621 737 C678 737 714 791 730 883 L670 883 C658 851 642 838 629 838 C596 838 543 882 500 882 C443 882 407 828 391 736 L391 736 Z " />
<glyph glyph-name="Ograve" unicode="&#xd2;" horiz-adv-x="743" d="M336 -16 C598 -16 740 202 740 410 C740 553 640 674 458 674 C196 674 54 456 54 248 C54 105 154 -16 336 -16 L336 -16 Z M328 34 C270 34 234 80 234 177 C234 338 335 624 466 624 C524 624 560 578 560 481 C560 320 462 34 328 34 L328 34 Z M484 734 L555 734 L490 868 C448 954 432 981 392 981 C363 981 330 954 330 920 C330 889 365 852 400 817 L484 734 Z " />
<glyph glyph-name="Oacute" unicode="&#xd3;" horiz-adv-x="743" d="M336 -16 C598 -16 740 202 740 410 C740 553 640 674 458 674 C196 674 54 456 54 248 C54 105 154 -16 336 -16 L336 -16 Z M328 34 C270 34 234 80 234 177 C234 338 335 624 466 624 C524 624 560 578 560 481 C560 320 462 34 328 34 L328 34 Z M434 734 L509 734 L589 798 C684 874 697 887 697 928 C697 953 668 980 641 980 C601 980 583 960 518 861 L434 734 Z " />
<glyph glyph-name="Ocircumflex" unicode="&#xd4;" horiz-adv-x="743" d="M336 -16 C598 -16 740 202 740 410 C740 553 640 674 458 674 C196 674 54 456 54 248 C54 105 154 -16 336 -16 L336 -16 Z M328 34 C270 34 234 80 234 177 C234 338 335 624 466 624 C524 624 560 578 560 481 C560 320 462 34 328 34 L328 34 Z M336 734 L407 734 L533 834 L604 734 L665 734 L606 927 L506 927 L336 734 Z " />
<glyph glyph-name="Otilde" unicode="&#xd5;" horiz-adv-x="743" d="M336 -16 C598 -16 740 202 740 410 C740 553 640 674 458 674 C196 674 54 456 54 248 C54 105 154 -16 336 -16 L336 -16 Z M328 34 C270 34 234 80 234 177 C234 338 335 624 466 624 C524 624 560 578 560 481 C560 320 462 34 328 34 L328 34 Z M357 736 L417 736 C429 768 445 781 458 781 C491 781 544 737 587 737 C644 737 680 791 696 883 L636 883 C624 851 608 838 595 838 C562 838 509 882 466 882 C409 882 373 828 357 736 L357 736 Z " />
<glyph glyph-name="Odieresis" unicode="&#xd6;" horiz-adv-x="743" d="M336 -16 C598 -16 740 202 740 410 C740 553 640 674 458 674 C196 674 54 456 54 248 C54 105 154 -16 336 -16 L336 -16 Z M328 34 C270 34 234 80 234 177 C234 338 335 624 466 624 C524 624 560 578 560 481 C560 320 462 34 328 34 L328 34 Z M620 742 C672 742 715 786 715 842 C715 886 685 908 650 908 C598 908 555 864 555 808 C555 764 585 742 620 742 L620 742 Z M410 742 C462 742 505 786 505 842 C505 886 475 908 440 908 C388 908 345 864 345 808 C345 764 375 742 410 742 L410 742 Z " />
<glyph glyph-name="multiply" unicode="&#xd7;" horiz-adv-x="530" d="M30 152 L72 94 L274 253 L387 98 L451 148 L337 303 L539 462 L497 520 L295 361 L182 516 L118 466 L231 311 L30 152 Z " />
<glyph glyph-name="Oslash" unicode="&#xd8;" horiz-adv-x="743" d="M99 -34 L161 33 C206 2 264 -16 336 -16 C598 -16 740 202 740 410 C740 477 718 539 676 586 L772 692 L694 692 L632 624 C587 655 529 674 458 674 C196 674 54 456 54 248 C54 181 76 119 117 72 L21 -34 L99 -34 Z M328 34 C283 34 251 61 239 119 L560 470 C556 308 459 34 328 34 L328 34 Z M466 624 C511 624 542 596 554 539 L234 189 C238 352 338 624 466 624 L466 624 Z " />
<glyph glyph-name="Ugrave" unicode="&#xd9;" horiz-adv-x="759" d="M367 564 C376 599 396 610 450 613 L463 658 L126 658 L113 613 C191 610 196 602 186 564 L112 289 C103 255 98 224 98 194 C98 69 178 -16 344 -16 C553 -16 620 85 659 231 L720 460 C748 566 775 609 848 613 L861 658 L612 658 L599 613 C681 607 684 570 659 475 L602 260 C575 159 533 63 420 63 C326 63 279 115 279 196 C279 219 283 244 290 271 L367 564 Z M520 734 L591 734 L526 868 C484 954 468 981 428 981 C399 981 366 954 366 920 C366 889 401 852 436 817 L520 734 Z " />
<glyph glyph-name="Uacute" unicode="&#xda;" horiz-adv-x="759" d="M367 564 C376 599 396 610 450 613 L463 658 L126 658 L113 613 C191 610 196 602 186 564 L112 289 C103 255 98 224 98 194 C98 69 178 -16 344 -16 C553 -16 620 85 659 231 L720 460 C748 566 775 609 848 613 L861 658 L612 658 L599 613 C681 607 684 570 659 475 L602 260 C575 159 533 63 420 63 C326 63 279 115 279 196 C279 219 283 244 290 271 L367 564 Z M470 734 L545 734 L625 798 C720 874 733 887 733 928 C733 953 704 980 677 980 C637 980 619 960 554 861 L470 734 Z " />
<glyph glyph-name="Ucircumflex" unicode="&#xdb;" horiz-adv-x="759" d="M367 564 C376 599 396 610 450 613 L463 658 L126 658 L113 613 C191 610 196 602 186 564 L112 289 C103 255 98 224 98 194 C98 69 178 -16 344 -16 C553 -16 620 85 659 231 L720 460 C748 566 775 609 848 613 L861 658 L612 658 L599 613 C681 607 684 570 659 475 L602 260 C575 159 533 63 420 63 C326 63 279 115 279 196 C279 219 283 244 290 271 L367 564 Z M371 734 L442 734 L568 834 L639 734 L700 734 L641 927 L541 927 L371 734 Z " />
<glyph glyph-name="Udieresis" unicode="&#xdc;" horiz-adv-x="759" d="M367 564 C376 599 396 610 450 613 L463 658 L126 658 L113 613 C191 610 196 602 186 564 L112 289 C103 255 98 224 98 194 C98 69 178 -16 344 -16 C553 -16 620 85 659 231 L720 460 C748 566 775 609 848 613 L861 658 L612 658 L599 613 C681 607 684 570 659 475 L602 260 C575 159 533 63 420 63 C326 63 279 115 279 196 C279 219 283 244 290 271 L367 564 Z M655 742 C707 742 750 786 750 842 C750 886 720 908 685 908 C633 908 590 864 590 808 C590 764 620 742 655 742 L655 742 Z M445 742 C497 742 540 786 540 842 C540 886 510 908 475 908 C423 908 380 864 380 808 C380 764 410 742 445 742 L445 742 Z " />
<glyph glyph-name="Yacute" unicode="&#xdd;" horiz-adv-x="691" d="M641 509 C700 580 742 605 805 613 L818 658 L556 658 L543 613 C619 605 615 580 553 499 L435 346 L368 550 C354 593 354 612 433 614 L446 658 L106 658 L93 613 C149 605 172 587 185 552 L280 300 L225 94 C217 64 196 48 130 45 L117 0 L466 0 L479 45 C401 48 396 56 406 94 L459 291 L641 509 Z M432 734 L507 734 L587 798 C682 874 695 887 695 928 C695 953 666 980 639 980 C599 980 581 960 516 861 L432 734 Z " />
<glyph glyph-name="Thorn" unicode="&#xde;" horiz-adv-x="676" d="M-38 0 L321 0 L334 45 C249 49 242 61 252 98 L264 142 L356 142 C554 142 665 246 665 355 C665 454 598 536 397 536 L369 536 L377 564 C387 599 406 610 460 613 L473 658 L136 658 L123 613 C201 610 206 602 196 564 L70 94 C62 64 41 48 -25 45 L-38 0 Z M277 194 L355 484 L375 484 C444 484 486 463 486 389 C486 285 433 194 337 194 L277 194 Z " />
<glyph glyph-name="germandbls" unicode="&#xdf;" horiz-adv-x="592" d="M-93 -220 C59 -220 128 -124 183 112 L277 514 C297 598 343 659 393 659 C431 659 447 633 447 595 C447 451 299 440 299 302 C299 179 440 180 440 84 C440 47 417 29 383 29 C370 29 352 35 341 45 C348 56 354 73 354 90 C354 126 328 147 289 147 C250 147 223 118 223 79 C223 16 311 -8 373 -8 C501 -8 564 62 564 142 C564 267 397 304 397 376 C397 455 583 459 583 585 C583 644 523 703 393 703 C258 703 156 621 116 449 L3 -32 C-24 -147 -63 -175 -91 -175 C-98 -175 -106 -174 -115 -172 C-96 -160 -84 -134 -84 -112 C-84 -75 -111 -42 -153 -42 C-196 -42 -233 -77 -233 -121 C-233 -179 -187 -220 -93 -220 L-93 -220 Z " />
<glyph glyph-name="agrave" unicode="&#xe0;" horiz-adv-x="578" d="M516 310 L574 472 L422 463 L402 419 C382 450 357 472 294 472 C182 472 24 351 24 157 C24 45 97 -8 167 -8 C222 -8 248 12 302 63 L311 60 C313 11 341 -8 400 -8 C449 -8 504 6 528 14 L528 56 C471 55 452 56 451 79 C451 92 456 113 465 144 L516 310 Z M334 412 C358 412 373 398 387 379 L305 104 C280 84 267 78 245 78 C210 78 180 97 180 159 C180 249 247 412 334 412 L334 412 Z M348 524 L419 524 L354 658 C312 744 296 771 256 771 C227 771 194 744 194 710 C194 679 229 642 264 607 L348 524 Z " />
<glyph glyph-name="aacute" unicode="&#xe1;" horiz-adv-x="578" d="M516 310 L574 472 L422 463 L402 419 C382 450 357 472 294 472 C182 472 24 351 24 157 C24 45 97 -8 167 -8 C222 -8 248 12 302 63 L311 60 C313 11 341 -8 400 -8 C449 -8 504 6 528 14 L528 56 C471 55 452 56 451 79 C451 92 456 113 465 144 L516 310 Z M334 412 C358 412 373 398 387 379 L305 104 C280 84 267 78 245 78 C210 78 180 97 180 159 C180 249 247 412 334 412 L334 412 Z M298 524 L373 524 L453 588 C548 664 561 677 561 718 C561 743 532 770 505 770 C465 770 447 750 382 651 L298 524 Z " />
<glyph glyph-name="acircumflex" unicode="&#xe2;" horiz-adv-x="578" d="M516 310 L574 472 L422 463 L402 419 C382 450 357 472 294 472 C182 472 24 351 24 157 C24 45 97 -8 167 -8 C222 -8 248 12 302 63 L311 60 C313 11 341 -8 400 -8 C449 -8 504 6 528 14 L528 56 C471 55 452 56 451 79 C451 92 456 113 465 144 L516 310 Z M334 412 C358 412 373 398 387 379 L305 104 C280 84 267 78 245 78 C210 78 180 97 180 159 C180 249 247 412 334 412 L334 412 Z M200 524 L271 524 L397 624 L468 524 L529 524 L470 717 L370 717 L200 524 Z " />
<glyph glyph-name="atilde" unicode="&#xe3;" horiz-adv-x="578" d="M516 310 L574 472 L422 463 L402 419 C382 450 357 472 294 472 C182 472 24 351 24 157 C24 45 97 -8 167 -8 C222 -8 248 12 302 63 L311 60 C313 11 341 -8 400 -8 C449 -8 504 6 528 14 L528 56 C471 55 452 56 451 79 C451 92 456 113 465 144 L516 310 Z M334 412 C358 412 373 398 387 379 L305 104 C280 84 267 78 245 78 C210 78 180 97 180 159 C180 249 247 412 334 412 L334 412 Z M220 526 L280 526 C292 558 308 571 321 571 C354 571 407 527 450 527 C507 527 543 581 559 673 L499 673 C487 641 471 628 458 628 C425 628 372 672 329 672 C272 672 236 618 220 526 L220 526 Z " />
<glyph glyph-name="adieresis" unicode="&#xe4;" horiz-adv-x="578" d="M516 310 L574 472 L422 463 L402 419 C382 450 357 472 294 472 C182 472 24 351 24 157 C24 45 97 -8 167 -8 C222 -8 248 12 302 63 L311 60 C313 11 341 -8 400 -8 C449 -8 504 6 528 14 L528 56 C471 55 452 56 451 79 C451 92 456 113 465 144 L516 310 Z M334 412 C358 412 373 398 387 379 L305 104 C280 84 267 78 245 78 C210 78 180 97 180 159 C180 249 247 412 334 412 L334 412 Z M483 532 C535 532 578 576 578 632 C578 676 548 698 513 698 C461 698 418 654 418 598 C418 554 448 532 483 532 L483 532 Z M273 532 C325 532 368 576 368 632 C368 676 338 698 303 698 C251 698 208 654 208 598 C208 554 238 532 273 532 L273 532 Z " />
<glyph glyph-name="aring" unicode="&#xe5;" horiz-adv-x="578" d="M516 310 L574 472 L422 463 L402 419 C382 450 357 472 294 472 C182 472 24 351 24 157 C24 45 97 -8 167 -8 C222 -8 248 12 302 63 L311 60 C313 11 341 -8 400 -8 C449 -8 504 6 528 14 L528 56 C471 55 452 56 451 79 C451 92 456 113 465 144 L516 310 Z M381 532 C461 532 538 594 538 683 C538 746 486 780 425 780 C345 780 268 718 268 629 C268 566 320 532 381 532 L381 532 Z M334 412 C358 412 373 398 387 379 L305 104 C280 84 267 78 245 78 C210 78 180 97 180 159 C180 249 247 412 334 412 L334 412 Z M386 578 C355 578 347 604 347 628 C347 663 370 734 420 734 C451 734 459 708 459 684 C459 649 436 578 386 578 L386 578 Z " />
<glyph glyph-name="ae" unicode="&#xe6;" horiz-adv-x="765" d="M599 472 C527 472 470 450 425 416 L420 416 C387 456 332 472 260 472 C133 472 70 416 70 357 C70 319 98 291 140 291 C184 291 217 320 217 367 C217 385 211 399 203 409 C212 417 231 422 252 422 C281 422 337 416 337 321 C337 305 336 289 334 267 C84 263 2 200 2 107 C2 34 57 -8 140 -8 C248 -8 300 44 329 99 L334 99 C359 35 417 -8 505 -8 C610 -8 675 45 726 114 L699 139 C665 92 611 61 561 61 C490 61 454 105 454 183 C454 191 454 200 455 208 C660 208 760 269 760 355 C760 418 710 472 599 472 L599 472 Z M591 420 C616 420 635 404 635 367 C635 309 594 252 460 247 C478 343 536 420 591 420 L591 420 Z M219 72 C183 72 161 97 161 131 C161 181 197 223 330 228 C315 125 276 72 219 72 L219 72 Z " />
<glyph glyph-name="ccedilla" unicode="&#xe7;" horiz-adv-x="488" d="M140 -251 C227 -251 286 -208 286 -147 C286 -101 252 -67 176 -65 L175 -62 L246 -7 C344 -2 407 55 447 114 L420 139 C384 97 336 61 286 61 C215 61 179 105 179 183 C179 325 253 422 329 422 C354 422 367 418 381 407 C351 393 333 359 333 331 C333 286 363 264 404 264 C450 264 479 304 479 348 C479 424 412 472 312 472 C143 472 24 323 24 177 C24 80 88 11 186 -4 L83 -80 L103 -126 C115 -125 131 -122 145 -122 C182 -122 205 -135 205 -157 C205 -180 182 -202 139 -202 C108 -202 76 -199 56 -195 L39 -236 C74 -246 115 -251 140 -251 L140 -251 Z " />
<glyph glyph-name="egrave" unicode="&#xe8;" horiz-adv-x="490" d="M485 355 C485 418 435 472 324 472 C145 472 24 323 24 177 C24 67 108 -8 230 -8 C335 -8 400 45 451 114 L424 139 C390 92 336 61 286 61 C215 61 179 105 179 183 C179 191 179 200 180 208 C385 208 485 269 485 355 L485 355 Z M303 524 L374 524 L309 658 C267 744 251 771 211 771 C182 771 149 744 149 710 C149 679 184 642 219 607 L303 524 Z M316 420 C341 420 360 404 360 367 C360 309 319 252 185 247 C203 343 261 420 316 420 L316 420 Z " />
<glyph glyph-name="eacute" unicode="&#xe9;" horiz-adv-x="490" d="M485 355 C485 418 435 472 324 472 C145 472 24 323 24 177 C24 67 108 -8 230 -8 C335 -8 400 45 451 114 L424 139 C390 92 336 61 286 61 C215 61 179 105 179 183 C179 191 179 200 180 208 C385 208 485 269 485 355 L485 355 Z M253 524 L328 524 L408 588 C503 664 516 677 516 718 C516 743 487 770 460 770 C420 770 402 750 337 651 L253 524 Z M316 420 C341 420 360 404 360 367 C360 309 319 252 185 247 C203 343 261 420 316 420 L316 420 Z " />
<glyph glyph-name="ecircumflex" unicode="&#xea;" horiz-adv-x="490" d="M485 355 C485 418 435 472 324 472 C145 472 24 323 24 177 C24 67 108 -8 230 -8 C335 -8 400 45 451 114 L424 139 C390 92 336 61 286 61 C215 61 179 105 179 183 C179 191 179 200 180 208 C385 208 485 269 485 355 L485 355 Z M155 524 L226 524 L352 624 L423 524 L484 524 L425 717 L325 717 L155 524 Z M316 420 C341 420 360 404 360 367 C360 309 319 252 185 247 C203 343 261 420 316 420 L316 420 Z " />
<glyph glyph-name="edieresis" unicode="&#xeb;" horiz-adv-x="490" d="M485 355 C485 418 435 472 324 472 C145 472 24 323 24 177 C24 67 108 -8 230 -8 C335 -8 400 45 451 114 L424 139 C390 92 336 61 286 61 C215 61 179 105 179 183 C179 191 179 200 180 208 C385 208 485 269 485 355 L485 355 Z M228 532 C280 532 323 576 323 632 C323 676 293 698 258 698 C206 698 163 654 163 598 C163 554 193 532 228 532 L228 532 Z M438 532 C490 532 533 576 533 632 C533 676 503 698 468 698 C416 698 373 654 373 598 C373 554 403 532 438 532 L438 532 Z M316 420 C341 420 360 404 360 367 C360 309 319 252 185 247 C203 343 261 420 316 420 L316 420 Z " />
<glyph glyph-name="igrave" unicode="&#xec;" horiz-adv-x="346" d="M287 53 C221 52 195 57 195 87 C195 95 197 108 203 127 L313 466 L57 452 L57 411 C124 407 139 388 129 359 L54 129 C48 111 45 94 45 79 C45 25 84 -8 170 -8 C219 -8 264 4 287 12 L287 53 Z M219 524 L290 524 L225 658 C183 744 167 771 127 771 C98 771 65 744 65 710 C65 679 100 642 135 607 L219 524 Z " />
<glyph glyph-name="iacute" unicode="&#xed;" horiz-adv-x="346" d="M287 53 C221 52 195 57 195 87 C195 95 197 108 203 127 L313 466 L57 452 L57 411 C124 407 139 388 129 359 L54 129 C48 111 45 94 45 79 C45 25 84 -8 170 -8 C219 -8 264 4 287 12 L287 53 Z M169 524 L244 524 L324 588 C419 664 432 677 432 718 C432 743 403 770 376 770 C336 770 318 750 253 651 L169 524 Z " />
<glyph glyph-name="icircumflex" unicode="&#xee;" horiz-adv-x="346" d="M287 53 C221 52 195 57 195 87 C195 95 197 108 203 127 L313 466 L57 452 L57 411 C124 407 139 388 129 359 L54 129 C48 111 45 94 45 79 C45 25 84 -8 170 -8 C219 -8 264 4 287 12 L287 53 Z M70 524 L141 524 L267 624 L338 524 L399 524 L340 717 L240 717 L70 524 Z " />
<glyph glyph-name="idieresis" unicode="&#xef;" horiz-adv-x="346" d="M287 53 C221 52 195 57 195 87 C195 95 197 108 203 127 L313 466 L57 452 L57 411 C124 407 139 388 129 359 L54 129 C48 111 45 94 45 79 C45 25 84 -8 170 -8 C219 -8 264 4 287 12 L287 53 Z M354 532 C406 532 449 576 449 632 C449 676 419 698 384 698 C332 698 289 654 289 598 C289 554 319 532 354 532 L354 532 Z M144 532 C196 532 239 576 239 632 C239 676 209 698 174 698 C122 698 79 654 79 598 C79 554 109 532 144 532 L144 532 Z " />
<glyph glyph-name="eth" unicode="&#xf0;" horiz-adv-x="537" d="M320 560 C344 530 359 496 365 460 C347 469 328 472 309 472 C128 472 24 318 24 169 C24 73 97 -8 220 -8 C414 -8 525 157 525 355 C525 459 479 546 406 609 L486 653 L464 706 L358 643 C318 668 272 687 222 699 L197 653 C230 639 258 621 282 600 L193 551 L215 498 L320 560 Z M220 39 C191 39 174 62 174 109 C174 242 245 425 319 425 C348 425 365 402 365 355 C365 222 296 39 220 39 L220 39 Z " />
<glyph glyph-name="ntilde" unicode="&#xf1;" horiz-adv-x="584" d="M58 162 L3 0 L169 0 L253 345 C278 362 314 379 347 379 C374 379 389 365 389 340 C389 328 386 311 379 288 L325 122 C318 101 315 84 315 68 C315 17 352 -8 419 -8 C458 -8 523 4 546 12 L546 53 C481 52 464 57 464 80 C464 91 468 106 475 127 L536 314 C542 334 546 355 546 370 C546 431 502 469 438 469 C382 469 329 439 269 389 L265 393 L289 466 L55 452 L55 411 C117 407 120 389 112 359 L58 162 Z M220 526 L280 526 C292 558 308 571 321 571 C354 571 407 527 450 527 C507 527 543 581 559 673 L499 673 C487 641 471 628 458 628 C425 628 372 672 329 672 C272 672 236 618 220 526 L220 526 Z " />
<glyph glyph-name="ograve" unicode="&#xf2;" horiz-adv-x="537" d="M318 472 C124 472 23 318 23 169 C23 73 96 -8 219 -8 C413 -8 514 146 514 295 C514 391 441 472 318 472 L318 472 Z M219 39 C190 39 173 62 173 109 C173 242 244 425 318 425 C347 425 364 402 364 355 C364 222 295 39 219 39 L219 39 Z M326 524 L397 524 L332 658 C290 744 274 771 234 771 C205 771 172 744 172 710 C172 679 207 642 242 607 L326 524 Z " />
<glyph glyph-name="oacute" unicode="&#xf3;" horiz-adv-x="537" d="M318 472 C124 472 23 318 23 169 C23 73 96 -8 219 -8 C413 -8 514 146 514 295 C514 391 441 472 318 472 L318 472 Z M219 39 C190 39 173 62 173 109 C173 242 244 425 318 425 C347 425 364 402 364 355 C364 222 295 39 219 39 L219 39 Z M276 524 L351 524 L431 588 C526 664 539 677 539 718 C539 743 510 770 483 770 C443 770 425 750 360 651 L276 524 Z " />
<glyph glyph-name="ocircumflex" unicode="&#xf4;" horiz-adv-x="537" d="M318 472 C124 472 23 318 23 169 C23 73 96 -8 219 -8 C413 -8 514 146 514 295 C514 391 441 472 318 472 L318 472 Z M219 39 C190 39 173 62 173 109 C173 242 244 425 318 425 C347 425 364 402 364 355 C364 222 295 39 219 39 L219 39 Z M178 524 L249 524 L375 624 L446 524 L507 524 L448 717 L348 717 L178 524 Z " />
<glyph glyph-name="otilde" unicode="&#xf5;" horiz-adv-x="537" d="M318 472 C124 472 23 318 23 169 C23 73 96 -8 219 -8 C413 -8 514 146 514 295 C514 391 441 472 318 472 L318 472 Z M219 39 C190 39 173 62 173 109 C173 242 244 425 318 425 C347 425 364 402 364 355 C364 222 295 39 219 39 L219 39 Z M198 526 L258 526 C270 558 286 571 299 571 C332 571 385 527 428 527 C485 527 521 581 537 673 L477 673 C465 641 449 628 436 628 C403 628 350 672 307 672 C250 672 214 618 198 526 L198 526 Z " />
<glyph glyph-name="odieresis" unicode="&#xf6;" horiz-adv-x="537" d="M318 472 C124 472 23 318 23 169 C23 73 96 -8 219 -8 C413 -8 514 146 514 295 C514 391 441 472 318 472 L318 472 Z M219 39 C190 39 173 62 173 109 C173 242 244 425 318 425 C347 425 364 402 364 355 C364 222 295 39 219 39 L219 39 Z M461 532 C513 532 556 576 556 632 C556 676 526 698 491 698 C439 698 396 654 396 598 C396 554 426 532 461 532 L461 532 Z M251 532 C303 532 346 576 346 632 C346 676 316 698 281 698 C229 698 186 654 186 598 C186 554 216 532 251 532 L251 532 Z " />
<glyph glyph-name="divide" unicode="&#xf7;" horiz-adv-x="605" d="M563 269 L584 347 L83 347 L62 269 L563 269 Z M372 399 C417 399 459 434 459 481 C459 528 419 563 372 563 C327 563 285 528 285 481 C285 434 325 399 372 399 L372 399 Z M279 53 C324 53 366 88 366 135 C366 182 326 217 279 217 C234 217 192 182 192 135 C192 88 232 53 279 53 L279 53 Z " />
<glyph glyph-name="oslash" unicode="&#xf8;" horiz-adv-x="537" d="M-7 -24 L65 -24 L106 20 C136 2 174 -8 219 -8 C413 -8 514 146 514 295 C514 338 499 378 472 409 L544 488 L472 488 L431 443 C400 461 362 472 318 472 C124 472 23 318 23 169 C23 126 38 85 65 54 L-7 -24 Z M219 39 C193 39 176 57 173 94 L360 298 C345 175 284 39 219 39 L219 39 Z M318 425 C344 425 360 407 363 369 L176 165 C192 288 254 425 318 425 L318 425 Z " />
<glyph glyph-name="ugrave" unicode="&#xf9;" horiz-adv-x="601" d="M43 147 C37 127 33 106 33 91 C33 30 77 -8 141 -8 C196 -8 259 21 317 84 L321 80 C320 73 319 65 319 59 C319 16 346 -7 419 -7 C458 -7 523 5 546 13 L546 54 C484 53 464 56 464 80 C464 90 469 106 475 127 L577 464 L414 464 L380 306 L323 120 C292 97 263 82 229 82 C205 82 190 94 190 120 C190 132 193 150 200 173 L292 466 L56 452 L56 411 C118 407 122 388 112 359 L43 147 Z M349 524 L420 524 L355 658 C313 744 297 771 257 771 C228 771 195 744 195 710 C195 679 230 642 265 607 L349 524 Z " />
<glyph glyph-name="uacute" unicode="&#xfa;" horiz-adv-x="601" d="M43 147 C37 127 33 106 33 91 C33 30 77 -8 141 -8 C196 -8 259 21 317 84 L321 80 C320 73 319 65 319 59 C319 16 346 -7 419 -7 C458 -7 523 5 546 13 L546 54 C484 53 464 56 464 80 C464 90 469 106 475 127 L577 464 L414 464 L380 306 L323 120 C292 97 263 82 229 82 C205 82 190 94 190 120 C190 132 193 150 200 173 L292 466 L56 452 L56 411 C118 407 122 388 112 359 L43 147 Z M299 524 L374 524 L454 588 C549 664 562 677 562 718 C562 743 533 770 506 770 C466 770 448 750 383 651 L299 524 Z " />
<glyph glyph-name="ucircumflex" unicode="&#xfb;" horiz-adv-x="601" d="M43 147 C37 127 33 106 33 91 C33 30 77 -8 141 -8 C196 -8 259 21 317 84 L321 80 C320 73 319 65 319 59 C319 16 346 -7 419 -7 C458 -7 523 5 546 13 L546 54 C484 53 464 56 464 80 C464 90 469 106 475 127 L577 464 L414 464 L380 306 L323 120 C292 97 263 82 229 82 C205 82 190 94 190 120 C190 132 193 150 200 173 L292 466 L56 452 L56 411 C118 407 122 388 112 359 L43 147 Z M200 524 L271 524 L397 624 L468 524 L529 524 L470 717 L370 717 L200 524 Z " />
<glyph glyph-name="udieresis" unicode="&#xfc;" horiz-adv-x="601" d="M43 147 C37 127 33 106 33 91 C33 30 77 -8 141 -8 C196 -8 259 21 317 84 L321 80 C320 73 319 65 319 59 C319 16 346 -7 419 -7 C458 -7 523 5 546 13 L546 54 C484 53 464 56 464 80 C464 90 469 106 475 127 L577 464 L414 464 L380 306 L323 120 C292 97 263 82 229 82 C205 82 190 94 190 120 C190 132 193 150 200 173 L292 466 L56 452 L56 411 C118 407 122 388 112 359 L43 147 Z M484 532 C536 532 579 576 579 632 C579 676 549 698 514 698 C462 698 419 654 419 598 C419 554 449 532 484 532 L484 532 Z M274 532 C326 532 369 576 369 632 C369 676 339 698 304 698 C252 698 209 654 209 598 C209 554 239 532 274 532 L274 532 Z " />
<glyph glyph-name="yacute" unicode="&#xfd;" horiz-adv-x="515" d="M242 467 L14 445 L14 404 C80 399 94 386 103 345 L138 180 L182 -42 C149 -105 76 -152 33 -153 C44 -143 53 -124 53 -102 C53 -64 27 -30 -18 -30 C-61 -30 -96 -67 -96 -112 C-96 -168 -55 -208 13 -208 C136 -208 246 -107 403 140 C483 266 519 341 519 385 C519 431 494 472 442 472 C392 472 360 436 360 390 C360 356 388 324 418 309 C407 264 391 226 334 134 L310 95 L293 95 L278 229 L242 467 Z M231 524 L306 524 L386 588 C481 664 494 677 494 718 C494 743 465 770 438 770 C398 770 380 750 315 651 L231 524 Z " />
<glyph glyph-name="thorn" unicode="&#xfe;" horiz-adv-x="553" d="M265 410 L261 414 L345 697 L74 682 L74 641 C136 637 165 624 156 590 L75 267 L3 -17 L-33 -120 C-39 -137 -60 -146 -112 -148 L-112 -189 L212 -189 L212 -148 C146 -146 123 -141 128 -122 L160 7 C185 0 217 -5 244 -5 C432 -5 532 154 532 305 C532 391 490 472 399 472 C349 472 303 445 265 410 L265 410 Z M247 43 C220 43 190 57 178 82 L248 366 C266 378 291 388 314 388 C355 388 376 356 376 300 C376 166 320 43 247 43 L247 43 Z " />
<glyph glyph-name="ydieresis" unicode="&#xff;" horiz-adv-x="515" d="M242 467 L14 445 L14 404 C80 399 94 386 103 345 L138 180 L182 -42 C149 -105 76 -152 33 -153 C44 -143 53 -124 53 -102 C53 -64 27 -30 -18 -30 C-61 -30 -96 -67 -96 -112 C-96 -168 -55 -208 13 -208 C136 -208 246 -107 403 140 C483 266 519 341 519 385 C519 431 494 472 442 472 C392 472 360 436 360 390 C360 356 388 324 418 309 C407 264 391 226 334 134 L310 95 L293 95 L278 229 L242 467 Z M416 532 C468 532 511 576 511 632 C511 676 481 698 446 698 C394 698 351 654 351 598 C351 554 381 532 416 532 L416 532 Z M206 532 C258 532 301 576 301 632 C301 676 271 698 236 698 C184 698 141 654 141 598 C141 554 171 532 206 532 L206 532 Z " />
<glyph glyph-name="Amacron" unicode="&#x100;" horiz-adv-x="708" d="M-49 0 L204 0 L217 45 C146 57 136 89 180 167 L216 231 L427 231 L437 123 C441 73 430 50 358 45 L345 0 L684 0 L697 45 C631 54 624 69 619 109 L542 668 L395 668 L109 180 C53 85 32 61 -36 45 L-49 0 Z M422 283 L245 283 L381 525 L401 525 L422 283 Z M349 759 L620 759 L641 836 L370 836 L349 759 Z " />
<glyph glyph-name="amacron" unicode="&#x101;" horiz-adv-x="578" d="M516 310 L574 472 L422 463 L402 419 C382 450 357 472 294 472 C182 472 24 351 24 157 C24 45 97 -8 167 -8 C222 -8 248 12 302 63 L311 60 C313 11 341 -8 400 -8 C449 -8 504 6 528 14 L528 56 C471 55 452 56 451 79 C451 92 456 113 465 144 L516 310 Z M334 412 C358 412 373 398 387 379 L305 104 C280 84 267 78 245 78 C210 78 180 97 180 159 C180 249 247 412 334 412 L334 412 Z M236 549 L507 549 L528 626 L257 626 L236 549 Z " />
<glyph glyph-name="Abreve" unicode="&#x102;" horiz-adv-x="708" d="M-49 0 L204 0 L217 45 C146 57 136 89 180 167 L216 231 L427 231 L437 123 C441 73 430 50 358 45 L345 0 L684 0 L697 45 C631 54 624 69 619 109 L542 668 L395 668 L109 180 C53 85 32 61 -36 45 L-49 0 Z M422 283 L245 283 L381 525 L401 525 L422 283 Z M485 742 C570 742 639 800 665 905 L597 905 C577 860 543 829 497 829 C454 829 427 856 430 905 L367 905 C342 803 394 742 485 742 L485 742 Z " />
<glyph glyph-name="abreve" unicode="&#x103;" horiz-adv-x="578" d="M516 310 L574 472 L422 463 L402 419 C382 450 357 472 294 472 C182 472 24 351 24 157 C24 45 97 -8 167 -8 C222 -8 248 12 302 63 L311 60 C313 11 341 -8 400 -8 C449 -8 504 6 528 14 L528 56 C471 55 452 56 451 79 C451 92 456 113 465 144 L516 310 Z M334 412 C358 412 373 398 387 379 L305 104 C280 84 267 78 245 78 C210 78 180 97 180 159 C180 249 247 412 334 412 L334 412 Z M371 532 C456 532 525 590 551 695 L483 695 C463 650 429 619 383 619 C340 619 313 646 316 695 L253 695 C228 593 280 532 371 532 L371 532 Z " />
<glyph glyph-name="Aogonek" unicode="&#x104;" horiz-adv-x="707" d="M467 -241 C529 -241 578 -218 601 -204 L587 -169 C560 -178 536 -183 512 -183 C469 -183 456 -161 456 -141 C456 -121 462 -80 600 -5 L609 0 L684 0 L697 45 C631 54 624 69 619 109 L542 668 L395 668 L109 180 C53 85 32 61 -36 45 L-49 0 L204 0 L217 45 C146 57 136 89 180 167 L216 231 L427 231 L437 123 C441 73 430 50 358 45 L345 0 L532 0 L516 -7 C395 -59 359 -107 359 -156 C359 -211 403 -241 467 -241 L467 -241 Z M422 283 L245 283 L381 525 L401 525 L422 283 Z " />
<glyph glyph-name="aogonek" unicode="&#x105;" horiz-adv-x="578" d="M528 56 C471 55 452 56 451 79 C451 92 456 113 465 144 L516 310 L574 472 L422 463 L402 419 C382 450 357 472 294 472 C182 472 24 351 24 157 C24 45 97 -8 167 -8 C222 -8 248 12 302 63 L311 60 C313 11 340 -8 404 -8 L410 -8 L396 -14 C281 -62 246 -107 246 -156 C246 -211 290 -241 354 -241 C416 -241 465 -218 488 -204 L474 -169 C447 -178 423 -183 399 -183 C356 -183 343 -161 343 -141 C343 -109 369 -65 516 8 L528 14 L528 56 Z M334 412 C358 412 373 398 387 379 L305 104 C280 84 267 78 245 78 C210 78 180 97 180 159 C180 249 247 412 334 412 L334 412 Z " />
<glyph glyph-name="Cacute" unicode="&#x106;" horiz-adv-x="691" d="M329 -16 C473 -16 575 67 646 181 L601 207 C527 100 450 58 381 58 C315 58 237 101 237 241 C237 406 342 624 473 624 C543 624 582 564 610 415 L667 415 L732 676 L677 676 L636 625 C602 648 537 674 460 674 C201 674 54 453 54 248 C54 99 145 -16 329 -16 L329 -16 Z M422 734 L497 734 L577 798 C672 874 685 887 685 928 C685 953 656 980 629 980 C589 980 571 960 506 861 L422 734 Z " />
<glyph glyph-name="cacute" unicode="&#x107;" horiz-adv-x="488" d="M312 472 C143 472 24 323 24 177 C24 67 108 -8 230 -8 C337 -8 405 52 447 114 L420 139 C384 97 336 61 286 61 C215 61 179 105 179 183 C179 325 253 422 329 422 C354 422 367 418 381 407 C351 393 333 359 333 331 C333 286 363 264 404 264 C450 264 479 304 479 348 C479 424 412 472 312 472 L312 472 Z M263 524 L338 524 L418 588 C513 664 526 677 526 718 C526 743 497 770 470 770 C430 770 412 750 347 651 L263 524 Z " />
<glyph glyph-name="Cdotaccent" unicode="&#x10a;" horiz-adv-x="691" d="M329 -16 C473 -16 575 67 646 181 L601 207 C527 100 450 58 381 58 C315 58 237 101 237 241 C237 406 342 624 473 624 C543 624 582 564 610 415 L667 415 L732 676 L677 676 L636 625 C602 648 537 674 460 674 C201 674 54 453 54 248 C54 99 145 -16 329 -16 L329 -16 Z M503 742 C561 742 608 790 608 852 C608 900 576 924 539 924 C480 924 432 878 432 816 C432 768 465 742 503 742 L503 742 Z " />
<glyph glyph-name="cdotaccent" unicode="&#x10b;" horiz-adv-x="488" d="M312 472 C143 472 24 323 24 177 C24 67 108 -8 230 -8 C337 -8 405 52 447 114 L420 139 C384 97 336 61 286 61 C215 61 179 105 179 183 C179 325 253 422 329 422 C354 422 367 418 381 407 C351 393 333 359 333 331 C333 286 363 264 404 264 C450 264 479 304 479 348 C479 424 412 472 312 472 L312 472 Z M343 532 C401 532 448 580 448 642 C448 690 416 714 379 714 C320 714 272 668 272 606 C272 558 305 532 343 532 L343 532 Z " />
<glyph glyph-name="Ccaron" unicode="&#x10c;" horiz-adv-x="691" d="M329 -16 C473 -16 575 67 646 181 L601 207 C527 100 450 58 381 58 C315 58 237 101 237 241 C237 406 342 624 473 624 C543 624 582 564 610 415 L667 415 L732 676 L677 676 L636 625 C602 648 537 674 460 674 C201 674 54 453 54 248 C54 99 145 -16 329 -16 L329 -16 Z M429 734 L528 734 L700 927 L631 927 L504 825 L430 927 L370 927 L429 734 Z " />
<glyph glyph-name="ccaron" unicode="&#x10d;" horiz-adv-x="488" d="M312 472 C143 472 24 323 24 177 C24 67 108 -8 230 -8 C337 -8 405 52 447 114 L420 139 C384 97 336 61 286 61 C215 61 179 105 179 183 C179 325 253 422 329 422 C354 422 367 418 381 407 C351 393 333 359 333 331 C333 286 363 264 404 264 C450 264 479 304 479 348 C479 424 412 472 312 472 L312 472 Z M270 524 L369 524 L541 717 L472 717 L345 615 L271 717 L211 717 L270 524 Z " />
<glyph glyph-name="Dcaron" unicode="&#x10e;" horiz-adv-x="745" d="M70 94 C62 64 41 48 -25 45 L-38 0 L306 0 C455 0 560 48 630 118 C707 195 740 299 740 396 C740 550 644 658 432 658 L136 658 L123 613 C201 610 206 602 196 564 L70 94 Z M240 48 L388 610 L435 610 C516 610 558 557 558 458 C558 347 525 196 441 112 C402 73 352 48 290 48 L240 48 Z M420 734 L519 734 L691 927 L622 927 L495 825 L421 927 L361 927 L420 734 Z " />
<glyph glyph-name="dcaron" unicode="&#x10f;" horiz-adv-x="587" d="M622 697 L353 682 L353 641 C415 637 447 623 438 588 L397 427 C377 451 356 472 294 472 C182 472 24 351 24 157 C24 45 97 -8 167 -8 C222 -8 248 12 302 63 L311 60 C313 10 341 -8 400 -8 C449 -8 509 4 532 12 L532 53 C473 52 452 54 452 80 C452 94 458 114 466 143 L622 697 Z M331 408 C355 408 373 398 387 379 L305 104 C280 84 267 78 245 78 C210 78 180 97 180 159 C180 266 255 408 331 408 L331 408 Z M675 547 L727 547 L791 662 C813 702 840 744 840 777 C840 808 817 830 783 830 C734 830 718 790 705 718 L675 547 Z " />
<glyph glyph-name="Dcroat" unicode="&#x110;" horiz-adv-x="745" d="M70 94 C62 64 41 48 -25 45 L-38 0 L306 0 C455 0 560 48 630 118 C707 195 740 299 740 396 C740 550 644 658 432 658 L136 658 L123 613 C201 610 206 602 196 564 L145 374 L66 374 L49 311 L128 311 L70 94 Z M240 48 L309 311 L412 311 L429 374 L326 374 L388 610 L435 610 C516 610 558 557 558 458 C558 347 525 196 441 112 C402 73 352 48 290 48 L240 48 Z " />
<glyph glyph-name="dcroat" unicode="&#x111;" horiz-adv-x="587" d="M622 697 L353 682 L353 641 C411 637 443 624 439 594 L279 594 L264 537 L425 537 L397 427 C377 451 356 472 294 472 C182 472 24 351 24 157 C24 45 97 -8 167 -8 C222 -8 248 12 302 63 L311 60 C313 10 341 -8 400 -8 C449 -8 509 4 532 12 L532 53 C473 52 452 54 452 80 C452 94 458 114 466 143 L577 537 L642 537 L657 594 L593 594 L622 697 Z M331 408 C355 408 373 398 387 379 L305 104 C280 84 267 78 245 78 C210 78 180 97 180 159 C180 266 255 408 331 408 L331 408 Z " />
<glyph glyph-name="Emacron" unicode="&#x112;" horiz-adv-x="692" d="M136 658 L123 613 C201 610 206 602 196 564 L70 94 C62 64 41 48 -25 45 L-38 0 L585 0 L651 246 L589 246 C524 118 464 53 332 53 L240 53 L311 320 L354 320 C411 320 429 294 425 213 L476 213 L537 454 L484 454 C457 393 431 372 375 372 L324 372 L388 606 L468 606 C580 606 615 546 620 434 L677 434 L737 658 L136 658 Z M350 759 L621 759 L642 836 L371 836 L350 759 Z " />
<glyph glyph-name="emacron" unicode="&#x113;" horiz-adv-x="490" d="M485 355 C485 418 435 472 324 472 C145 472 24 323 24 177 C24 67 108 -8 230 -8 C335 -8 400 45 451 114 L424 139 C390 92 336 61 286 61 C215 61 179 105 179 183 C179 191 179 200 180 208 C385 208 485 269 485 355 L485 355 Z M191 549 L462 549 L483 626 L212 626 L191 549 Z M316 420 C341 420 360 404 360 367 C360 309 319 252 185 247 C203 343 261 420 316 420 L316 420 Z " />
<glyph glyph-name="Ebreve" unicode="&#x114;" horiz-adv-x="692" d="M136 658 L123 613 C201 610 206 602 196 564 L70 94 C62 64 41 48 -25 45 L-38 0 L585 0 L651 246 L589 246 C524 118 464 53 332 53 L240 53 L311 320 L354 320 C411 320 429 294 425 213 L476 213 L537 454 L484 454 C457 393 431 372 375 372 L324 372 L388 606 L468 606 C580 606 615 546 620 434 L677 434 L737 658 L136 658 Z M486 742 C571 742 640 800 666 905 L598 905 C578 860 544 829 498 829 C455 829 428 856 431 905 L368 905 C343 803 395 742 486 742 L486 742 Z " />
<glyph glyph-name="ebreve" unicode="&#x115;" horiz-adv-x="490" d="M485 355 C485 418 435 472 324 472 C145 472 24 323 24 177 C24 67 108 -8 230 -8 C335 -8 400 45 451 114 L424 139 C390 92 336 61 286 61 C215 61 179 105 179 183 C179 191 179 200 180 208 C385 208 485 269 485 355 L485 355 Z M326 532 C411 532 480 590 506 695 L438 695 C418 650 384 619 338 619 C295 619 268 646 271 695 L208 695 C183 593 235 532 326 532 L326 532 Z M316 420 C341 420 360 404 360 367 C360 309 319 252 185 247 C203 343 261 420 316 420 L316 420 Z " />
<glyph glyph-name="Edotaccent" unicode="&#x116;" horiz-adv-x="692" d="M136 658 L123 613 C201 610 206 602 196 564 L70 94 C62 64 41 48 -25 45 L-38 0 L585 0 L651 246 L589 246 C524 118 464 53 332 53 L240 53 L311 320 L354 320 C411 320 429 294 425 213 L476 213 L537 454 L484 454 C457 393 431 372 375 372 L324 372 L388 606 L468 606 C580 606 615 546 620 434 L677 434 L737 658 L136 658 Z M493 742 C551 742 598 790 598 852 C598 900 566 924 529 924 C470 924 422 878 422 816 C422 768 455 742 493 742 L493 742 Z " />
<glyph glyph-name="edotaccent" unicode="&#x117;" horiz-adv-x="490" d="M485 355 C485 418 435 472 324 472 C145 472 24 323 24 177 C24 67 108 -8 230 -8 C335 -8 400 45 451 114 L424 139 C390 92 336 61 286 61 C215 61 179 105 179 183 C179 191 179 200 180 208 C385 208 485 269 485 355 L485 355 Z M333 532 C391 532 438 580 438 642 C438 690 406 714 369 714 C310 714 262 668 262 606 C262 558 295 532 333 532 L333 532 Z M316 420 C341 420 360 404 360 367 C360 309 319 252 185 247 C203 343 261 420 316 420 L316 420 Z " />
<glyph glyph-name="Eogonek" unicode="&#x118;" horiz-adv-x="693" d="M386 -241 C448 -241 497 -218 520 -204 L506 -169 C479 -178 455 -183 431 -183 C388 -183 375 -161 375 -141 C375 -121 381 -80 519 -5 L528 0 L585 0 L651 246 L589 246 C524 118 464 53 332 53 L240 53 L311 320 L354 320 C411 320 429 294 425 213 L476 213 L537 454 L484 454 C457 393 431 372 375 372 L324 372 L388 606 L468 606 C580 606 615 546 620 434 L677 434 L737 658 L136 658 L123 613 C201 610 206 602 196 564 L70 94 C62 64 41 48 -25 45 L-38 0 L451 0 L435 -7 C314 -59 278 -107 278 -156 C278 -211 322 -241 386 -241 L386 -241 Z " />
<glyph glyph-name="eogonek" unicode="&#x119;" horiz-adv-x="490" d="M24 177 C24 67 108 -8 229 -8 L232 -8 L221 -13 C113 -61 77 -107 77 -156 C77 -211 121 -241 185 -241 C247 -241 296 -218 319 -204 L305 -169 C278 -178 254 -183 230 -183 C187 -183 174 -161 174 -141 C174 -121 178 -87 297 -13 L353 22 C392 47 423 77 451 114 L424 139 C390 92 336 61 286 61 C215 61 179 105 179 183 C179 191 179 200 180 208 C385 208 485 269 485 355 C485 418 435 472 324 472 C145 472 24 323 24 177 L24 177 Z M316 420 C341 420 360 404 360 367 C360 309 319 252 185 247 C203 343 261 420 316 420 L316 420 Z " />
<glyph glyph-name="Ecaron" unicode="&#x11a;" horiz-adv-x="692" d="M136 658 L123 613 C201 610 206 602 196 564 L70 94 C62 64 41 48 -25 45 L-38 0 L585 0 L651 246 L589 246 C524 118 464 53 332 53 L240 53 L311 320 L354 320 C411 320 429 294 425 213 L476 213 L537 454 L484 454 C457 393 431 372 375 372 L324 372 L388 606 L468 606 C580 606 615 546 620 434 L677 434 L737 658 L136 658 Z M420 734 L519 734 L691 927 L622 927 L495 825 L421 927 L361 927 L420 734 Z " />
<glyph glyph-name="ecaron" unicode="&#x11b;" horiz-adv-x="490" d="M485 355 C485 418 435 472 324 472 C145 472 24 323 24 177 C24 67 108 -8 230 -8 C335 -8 400 45 451 114 L424 139 C390 92 336 61 286 61 C215 61 179 105 179 183 C179 191 179 200 180 208 C385 208 485 269 485 355 L485 355 Z M260 524 L359 524 L531 717 L462 717 L335 615 L261 717 L201 717 L260 524 Z M316 420 C341 420 360 404 360 367 C360 309 319 252 185 247 C203 343 261 420 316 420 L316 420 Z " />
<glyph glyph-name="Gbreve" unicode="&#x11e;" horiz-adv-x="727" d="M732 676 L677 676 L636 626 C598 649 543 674 460 674 C201 674 54 453 54 252 C54 110 132 -16 357 -16 C442 -16 534 10 605 46 L651 219 C660 254 682 266 731 269 L744 314 L415 314 L402 269 C480 266 492 244 481 204 L440 54 C419 42 398 34 367 34 C291 34 237 100 237 213 C237 395 345 624 476 624 C546 624 580 572 613 428 L670 428 L732 676 Z M496 742 C581 742 650 800 676 905 L608 905 C588 860 554 829 508 829 C465 829 438 856 441 905 L378 905 C353 803 405 742 496 742 L496 742 Z " />
<glyph glyph-name="gbreve" unicode="&#x11f;" horiz-adv-x="556" d="M170 7 C214 7 249 23 287 53 L295 50 L291 32 C260 -105 215 -161 142 -161 C119 -161 89 -153 82 -137 C99 -125 113 -101 113 -81 C113 -50 89 -18 41 -18 C-6 -18 -44 -55 -44 -99 C-44 -150 7 -208 139 -208 C314 -208 387 -147 427 -6 L516 309 L574 471 L422 463 L406 419 C385 448 359 472 303 472 C149 472 24 315 24 160 C24 61 91 7 170 7 L170 7 Z M330 408 C358 408 373 398 387 379 L304 97 C282 85 265 79 245 79 C196 79 181 115 181 171 C181 241 235 408 330 408 L330 408 Z M368 532 C453 532 522 590 548 695 L480 695 C460 650 426 619 380 619 C337 619 310 646 313 695 L250 695 C225 593 277 532 368 532 L368 532 Z " />
<glyph glyph-name="Gdotaccent" unicode="&#x120;" horiz-adv-x="727" d="M732 676 L677 676 L636 626 C598 649 543 674 460 674 C201 674 54 453 54 252 C54 110 132 -16 357 -16 C442 -16 534 10 605 46 L651 219 C660 254 682 266 731 269 L744 314 L415 314 L402 269 C480 266 492 244 481 204 L440 54 C419 42 398 34 367 34 C291 34 237 100 237 213 C237 395 345 624 476 624 C546 624 580 572 613 428 L670 428 L732 676 Z M503 742 C561 742 608 790 608 852 C608 900 576 924 539 924 C480 924 432 878 432 816 C432 768 465 742 503 742 L503 742 Z " />
<glyph glyph-name="gdotaccent" unicode="&#x121;" horiz-adv-x="556" d="M170 7 C214 7 249 23 287 53 L295 50 L291 32 C260 -105 215 -161 142 -161 C119 -161 89 -153 82 -137 C99 -125 113 -101 113 -81 C113 -50 89 -18 41 -18 C-6 -18 -44 -55 -44 -99 C-44 -150 7 -208 139 -208 C314 -208 387 -147 427 -6 L516 309 L574 471 L422 463 L406 419 C385 448 359 472 303 472 C149 472 24 315 24 160 C24 61 91 7 170 7 L170 7 Z M330 408 C358 408 373 398 387 379 L304 97 C282 85 265 79 245 79 C196 79 181 115 181 171 C181 241 235 408 330 408 L330 408 Z M375 532 C433 532 480 580 480 642 C480 690 448 714 411 714 C352 714 304 668 304 606 C304 558 337 532 375 532 L375 532 Z " />
<glyph glyph-name="Gcommaaccent" unicode="&#x122;" horiz-adv-x="727" d="M732 676 L677 676 L636 626 C598 649 543 674 460 674 C201 674 54 453 54 252 C54 110 132 -16 357 -16 C442 -16 534 10 605 46 L651 219 C660 254 682 266 731 269 L744 314 L415 314 L402 269 C480 266 492 244 481 204 L440 54 C419 42 398 34 367 34 C291 34 237 100 237 213 C237 395 345 624 476 624 C546 624 580 572 613 428 L670 428 L732 676 Z M155 -354 C334 -302 369 -225 369 -162 C369 -108 328 -69 282 -69 C241 -69 206 -103 206 -148 C206 -185 236 -214 275 -218 L280 -222 C274 -242 243 -278 140 -316 L155 -354 Z " />
<glyph glyph-name="gcommaaccent" unicode="&#x123;" horiz-adv-x="556" d="M170 7 C214 7 249 23 287 53 L295 50 L291 32 C260 -105 215 -161 142 -161 C119 -161 89 -153 82 -137 C99 -125 113 -101 113 -81 C113 -50 89 -18 41 -18 C-6 -18 -44 -55 -44 -99 C-44 -150 7 -208 139 -208 C314 -208 387 -147 427 -6 L516 309 L574 471 L422 463 L406 419 C385 448 359 472 303 472 C149 472 24 315 24 160 C24 61 91 7 170 7 L170 7 Z M330 408 C358 408 373 398 387 379 L304 97 C282 85 265 79 245 79 C196 79 181 115 181 171 C181 241 235 408 330 408 L330 408 Z M512 834 C333 782 298 705 298 642 C298 588 339 549 385 549 C426 549 461 583 461 628 C461 665 431 694 392 698 L387 702 C393 722 424 758 527 796 L512 834 Z " />
<glyph glyph-name="Hbar" unicode="&#x126;" horiz-adv-x="799" d="M823 448 L839 507 L766 507 L781 564 C789 594 810 610 876 613 L889 658 L544 658 L531 613 C598 610 611 604 600 564 L584 507 L361 507 L377 564 C386 599 406 610 460 613 L473 658 L136 658 L123 613 C201 610 206 602 196 564 L181 507 L108 507 L92 448 L165 448 L70 94 C62 64 41 48 -25 45 L-38 0 L307 0 L320 45 C253 48 240 54 251 94 L309 306 L532 306 L474 94 C464 59 445 48 391 45 L378 0 L715 0 L728 45 C650 48 645 56 655 94 L750 448 L823 448 Z M321 358 L345 448 L568 448 L544 358 L321 358 Z " />
<glyph glyph-name="hbar" unicode="&#x127;" horiz-adv-x="611" d="M539 314 C545 334 548 353 548 367 C548 431 502 469 438 469 C383 469 329 439 269 389 L265 393 L307 537 L469 537 L484 594 L324 594 L355 697 L84 682 L84 641 C143 637 172 625 167 594 L106 594 L91 537 L152 537 L58 162 L3 0 L169 0 L253 345 C286 366 315 379 348 379 C377 379 391 363 391 338 C391 326 389 311 382 288 L328 122 C321 101 318 84 318 68 C318 17 355 -8 422 -8 C461 -8 526 4 549 12 L549 53 C484 52 467 57 467 80 C467 91 471 106 478 127 L539 314 Z " />
<glyph glyph-name="Imacron" unicode="&#x12a;" horiz-adv-x="415" d="M482 613 L495 658 L146 658 L133 613 C211 610 216 602 206 564 L80 94 C72 64 51 48 -15 45 L-28 0 L321 0 L334 45 C256 48 251 56 261 94 L387 564 C395 594 416 610 482 613 L482 613 Z M208 759 L479 759 L500 836 L229 836 L208 759 Z " />
<glyph glyph-name="imacron" unicode="&#x12b;" horiz-adv-x="346" d="M287 53 C221 52 195 57 195 87 C195 95 197 108 203 127 L313 466 L57 452 L57 411 C124 407 139 388 129 359 L54 129 C48 111 45 94 45 79 C45 25 84 -8 170 -8 C219 -8 264 4 287 12 L287 53 Z M106 549 L377 549 L398 626 L127 626 L106 549 Z " />
<glyph glyph-name="Ibreve" unicode="&#x12c;" horiz-adv-x="415" d="M482 613 L495 658 L146 658 L133 613 C211 610 216 602 206 564 L80 94 C72 64 51 48 -15 45 L-28 0 L321 0 L334 45 C256 48 251 56 261 94 L387 564 C395 594 416 610 482 613 L482 613 Z M344 742 C429 742 498 800 524 905 L456 905 C436 860 402 829 356 829 C313 829 286 856 289 905 L226 905 C201 803 253 742 344 742 L344 742 Z " />
<glyph glyph-name="ibreve" unicode="&#x12d;" horiz-adv-x="346" d="M287 53 C221 52 195 57 195 87 C195 95 197 108 203 127 L313 466 L57 452 L57 411 C124 407 139 388 129 359 L54 129 C48 111 45 94 45 79 C45 25 84 -8 170 -8 C219 -8 264 4 287 12 L287 53 Z M242 532 C327 532 396 590 422 695 L354 695 C334 650 300 619 254 619 C211 619 184 646 187 695 L124 695 C99 593 151 532 242 532 L242 532 Z " />
<glyph glyph-name="Iogonek" unicode="&#x12e;" horiz-adv-x="427" d="M84 -241 C146 -241 195 -218 218 -204 L204 -169 C177 -178 153 -183 129 -183 C86 -183 73 -161 73 -141 C73 -121 79 -80 217 -5 L226 0 L321 0 L334 45 C256 48 251 56 261 94 L387 564 C395 594 416 610 482 613 L495 658 L146 658 L133 613 C211 610 216 602 206 564 L80 94 C72 64 51 48 -15 45 L-28 0 L149 0 L133 -7 C12 -59 -24 -107 -24 -156 C-24 -211 20 -241 84 -241 L84 -241 Z " />
<glyph glyph-name="iogonek" unicode="&#x12f;" horiz-adv-x="346" d="M149 -13 C33 -62 0 -108 0 -156 C0 -211 44 -241 108 -241 C170 -241 219 -218 242 -204 L228 -169 C201 -178 177 -183 153 -183 C110 -183 97 -161 97 -141 C97 -74 227 -10 293 11 L296 12 L296 53 C230 52 204 57 204 87 C204 95 206 108 212 127 L322 466 L66 452 L66 411 C133 407 148 388 138 359 L63 129 C57 111 54 94 54 79 C54 27 90 -4 163 -7 L149 -13 Z M266 543 C324 543 371 591 371 653 C371 701 339 725 302 725 C243 725 195 679 195 617 C195 569 228 543 266 543 L266 543 Z " />
<glyph glyph-name="Idotaccent" unicode="&#x130;" horiz-adv-x="415" d="M482 613 L495 658 L146 658 L133 613 C211 610 216 602 206 564 L80 94 C72 64 51 48 -15 45 L-28 0 L321 0 L334 45 C256 48 251 56 261 94 L387 564 C395 594 416 610 482 613 L482 613 Z M351 742 C409 742 456 790 456 852 C456 900 424 924 387 924 C328 924 280 878 280 816 C280 768 313 742 351 742 L351 742 Z " />
<glyph glyph-name="dotlessi" unicode="&#x131;" horiz-adv-x="339" d="M287 53 C221 52 195 57 195 87 C195 95 197 108 203 127 L313 466 L57 452 L57 411 C124 407 139 388 129 359 L54 129 C48 111 45 94 45 79 C45 25 84 -8 170 -8 C219 -8 264 4 287 12 L287 53 Z " />
<glyph glyph-name="Kcommaaccent" unicode="&#x136;" horiz-adv-x="758" d="M841 658 L560 658 L548 615 C605 600 617 572 553 519 L312 321 L377 564 C386 599 406 610 460 613 L473 658 L136 658 L123 613 C201 610 206 602 196 564 L70 94 C62 64 41 48 -25 45 L-38 0 L307 0 L320 45 C253 48 240 54 251 94 L290 240 L364 298 L435 122 C453 77 445 48 388 43 L376 0 L707 0 L720 44 C656 59 637 82 614 137 L500 405 L606 489 C714 574 751 596 828 614 L841 658 Z M180 -354 C359 -302 394 -225 394 -162 C394 -108 353 -69 307 -69 C266 -69 231 -103 231 -148 C231 -185 261 -214 300 -218 L305 -222 C299 -242 268 -278 165 -316 L180 -354 Z " />
<glyph glyph-name="kcommaaccent" unicode="&#x137;" horiz-adv-x="566" d="M355 697 L84 682 L84 641 C146 637 175 624 166 590 L58 162 L3 0 L169 0 L228 242 L238 242 C296 242 309 220 309 169 C309 150 298 107 298 75 C298 23 322 -7 410 -7 C449 -7 514 5 537 13 L537 54 C464 52 459 66 459 87 C459 120 464 133 464 160 C464 220 425 260 326 260 L326 269 C379 312 372 398 445 412 C436 400 429 378 429 363 C429 321 461 304 497 304 C541 304 575 341 575 393 C575 434 541 472 485 472 C333 472 346 273 263 273 L235 273 L355 697 Z M66 -354 C245 -302 280 -225 280 -162 C280 -108 239 -69 193 -69 C152 -69 117 -103 117 -148 C117 -185 147 -214 186 -218 L191 -222 C185 -242 154 -278 51 -316 L66 -354 Z " />
<glyph glyph-name="Lacute" unicode="&#x139;" horiz-adv-x="642" d="M377 564 C385 594 406 610 472 613 L485 658 L136 658 L123 613 C201 610 206 602 196 564 L70 94 C62 64 41 48 -25 45 L-38 0 L554 0 L630 272 L568 272 C484 128 408 50 262 50 L239 50 L377 564 Z M276 734 L351 734 L431 798 C526 874 539 887 539 928 C539 953 510 980 483 980 C443 980 425 960 360 861 L276 734 Z " />
<glyph glyph-name="lacute" unicode="&#x13a;" horiz-adv-x="327" d="M362 697 L98 682 L98 641 C160 637 189 624 180 590 L146 458 L50 139 C44 118 40 99 40 82 C40 24 81 -8 166 -8 C215 -8 260 4 283 12 L283 53 C216 52 191 57 191 87 C191 97 194 110 199 127 L362 697 Z M226 754 L301 754 L381 818 C476 894 489 907 489 948 C489 973 460 1000 433 1000 C393 1000 375 980 310 881 L226 754 Z " />
<glyph glyph-name="Lcommaaccent" unicode="&#x13b;" horiz-adv-x="642" d="M377 564 C385 594 406 610 472 613 L485 658 L136 658 L123 613 C201 610 206 602 196 564 L70 94 C62 64 41 48 -25 45 L-38 0 L554 0 L630 272 L568 272 C484 128 408 50 262 50 L239 50 L377 564 Z M125 -354 C304 -302 339 -225 339 -162 C339 -108 298 -69 252 -69 C211 -69 176 -103 176 -148 C176 -185 206 -214 245 -218 L250 -222 C244 -242 213 -278 110 -316 L125 -354 Z " />
<glyph glyph-name="lcommaaccent" unicode="&#x13c;" horiz-adv-x="327" d="M362 697 L98 682 L98 641 C160 637 189 624 180 590 L146 458 L50 139 C44 118 40 99 40 82 C40 24 81 -8 166 -8 C215 -8 260 4 283 12 L283 53 C216 52 191 57 191 87 C191 97 194 110 199 127 L362 697 Z M-34 -354 C145 -302 180 -225 180 -162 C180 -108 139 -69 93 -69 C52 -69 17 -103 17 -148 C17 -185 47 -214 86 -218 L91 -222 C85 -242 54 -278 -49 -316 L-34 -354 Z " />
<glyph glyph-name="Lcaron" unicode="&#x13d;" horiz-adv-x="642" d="M377 564 C385 594 406 610 472 613 L485 658 L136 658 L123 613 C201 610 206 602 196 564 L70 94 C62 64 41 48 -25 45 L-38 0 L554 0 L630 272 L568 272 C484 128 408 50 262 50 L239 50 L377 564 Z M537 527 L589 527 L653 642 C675 682 702 724 702 757 C702 788 679 810 645 810 C596 810 580 770 567 698 L537 527 Z " />
<glyph glyph-name="lcaron" unicode="&#x13e;" horiz-adv-x="327" d="M362 697 L98 682 L98 641 C160 637 189 624 180 590 L146 458 L50 139 C44 118 40 99 40 82 C40 24 81 -8 166 -8 C215 -8 260 4 283 12 L283 53 C216 52 191 57 191 87 C191 97 194 110 199 127 L362 697 Z M411 547 L463 547 L527 662 C549 702 576 744 576 777 C576 808 553 830 519 830 C470 830 454 790 441 718 L411 547 Z " />
<glyph glyph-name="Ldot" unicode="&#x13f;" horiz-adv-x="642" d="M-38 0 L554 0 L624 248 L562 248 C483 127 408 50 262 50 L239 50 L377 564 C385 594 406 610 472 613 L485 658 L136 658 L123 613 C201 610 206 602 196 564 L70 94 C62 64 41 48 -25 45 L-38 0 Z M543 288 C601 288 648 336 648 398 C648 446 616 470 579 470 C520 470 472 424 472 362 C472 314 505 288 543 288 L543 288 Z " />
<glyph glyph-name="ldot" unicode="&#x140;" horiz-adv-x="425" d="M387 269 C441 269 484 313 484 370 C484 415 454 437 420 437 C366 437 321 394 321 337 C321 293 352 269 387 269 L387 269 Z M362 697 L98 682 L98 641 C160 637 189 624 180 590 L146 458 L50 139 C44 118 40 99 40 82 C40 24 81 -8 166 -8 C215 -8 260 4 283 12 L283 53 C216 52 191 57 191 87 C191 97 194 110 199 127 L362 697 Z " />
<glyph glyph-name="Lslash" unicode="&#x141;" horiz-adv-x="642" d="M377 564 C385 594 406 610 472 613 L485 658 L136 658 L123 613 C201 610 206 602 196 564 L135 338 L52 319 L52 256 L117 271 L70 94 C62 64 41 48 -25 45 L-38 0 L554 0 L630 272 L568 272 C484 128 408 50 262 50 L239 50 L311 318 L469 356 L467 416 L328 383 L377 564 Z " />
<glyph glyph-name="lslash" unicode="&#x142;" horiz-adv-x="367" d="M381 697 L117 682 L117 641 C179 637 208 624 199 590 L165 458 L137 366 L46 346 L44 286 L118 302 L69 139 C63 118 59 99 59 82 C59 24 100 -8 185 -8 C234 -8 279 4 302 12 L302 53 C235 52 210 57 210 87 C210 97 213 110 218 127 L278 338 L368 358 L370 417 L296 401 L381 697 Z " />
<glyph glyph-name="Nacute" unicode="&#x143;" horiz-adv-x="780" d="M399 658 L157 658 L144 613 C222 610 220 574 206 522 L119 198 C90 92 64 49 -9 45 L-22 0 L230 0 L243 45 C161 51 155 88 180 183 L262 490 L273 490 L476 -6 L607 -6 L733 460 C762 566 788 609 861 613 L874 658 L622 658 L609 613 C691 607 697 570 672 475 L596 194 L585 194 L399 658 Z M468 734 L543 734 L623 798 C718 874 731 887 731 928 C731 953 702 980 675 980 C635 980 617 960 552 861 L468 734 Z " />
<glyph glyph-name="nacute" unicode="&#x144;" horiz-adv-x="584" d="M58 162 L3 0 L169 0 L253 345 C278 362 314 379 347 379 C374 379 389 365 389 340 C389 328 386 311 379 288 L325 122 C318 101 315 84 315 68 C315 17 352 -8 419 -8 C458 -8 523 4 546 12 L546 53 C481 52 464 57 464 80 C464 91 468 106 475 127 L536 314 C542 334 546 355 546 370 C546 431 502 469 438 469 C382 469 329 439 269 389 L265 393 L289 466 L55 452 L55 411 C117 407 120 389 112 359 L58 162 Z M298 524 L373 524 L453 588 C548 664 561 677 561 718 C561 743 532 770 505 770 C465 770 447 750 382 651 L298 524 Z " />
<glyph glyph-name="Ncommaaccent" unicode="&#x145;" horiz-adv-x="780" d="M399 658 L157 658 L144 613 C222 610 220 574 206 522 L119 198 C90 92 64 49 -9 45 L-22 0 L230 0 L243 45 C161 51 155 88 180 183 L262 490 L273 490 L476 -6 L607 -6 L733 460 C762 566 788 609 861 613 L874 658 L622 658 L609 613 C691 607 697 570 672 475 L596 194 L585 194 L399 658 Z M186 -354 C365 -302 400 -225 400 -162 C400 -108 359 -69 313 -69 C272 -69 237 -103 237 -148 C237 -185 267 -214 306 -218 L311 -222 C305 -242 274 -278 171 -316 L186 -354 Z " />
<glyph glyph-name="ncommaaccent" unicode="&#x146;" horiz-adv-x="584" d="M58 162 L3 0 L169 0 L253 345 C278 362 314 379 347 379 C374 379 389 365 389 340 C389 328 386 311 379 288 L325 122 C318 101 315 84 315 68 C315 17 352 -8 419 -8 C458 -8 523 4 546 12 L546 53 C481 52 464 57 464 80 C464 91 468 106 475 127 L536 314 C542 334 546 355 546 370 C546 431 502 469 438 469 C382 469 329 439 269 389 L265 393 L289 466 L55 452 L55 411 C117 407 120 389 112 359 L58 162 Z M87 -354 C266 -302 301 -225 301 -162 C301 -108 260 -69 214 -69 C173 -69 138 -103 138 -148 C138 -185 168 -214 207 -218 L212 -222 C206 -242 175 -278 72 -316 L87 -354 Z " />
<glyph glyph-name="Ncaron" unicode="&#x147;" horiz-adv-x="780" d="M399 658 L157 658 L144 613 C222 610 220 574 206 522 L119 198 C90 92 64 49 -9 45 L-22 0 L230 0 L243 45 C161 51 155 88 180 183 L262 490 L273 490 L476 -6 L607 -6 L733 460 C762 566 788 609 861 613 L874 658 L622 658 L609 613 C691 607 697 570 672 475 L596 194 L585 194 L399 658 Z M475 734 L574 734 L746 927 L677 927 L550 825 L476 927 L416 927 L475 734 Z " />
<glyph glyph-name="ncaron" unicode="&#x148;" horiz-adv-x="584" d="M58 162 L3 0 L169 0 L253 345 C278 362 314 379 347 379 C374 379 389 365 389 340 C389 328 386 311 379 288 L325 122 C318 101 315 84 315 68 C315 17 352 -8 419 -8 C458 -8 523 4 546 12 L546 53 C481 52 464 57 464 80 C464 91 468 106 475 127 L536 314 C542 334 546 355 546 370 C546 431 502 469 438 469 C382 469 329 439 269 389 L265 393 L289 466 L55 452 L55 411 C117 407 120 389 112 359 L58 162 Z M305 524 L404 524 L576 717 L507 717 L380 615 L306 717 L246 717 L305 524 Z " />
<glyph glyph-name="Omacron" unicode="&#x14c;" horiz-adv-x="743" d="M336 -16 C598 -16 740 202 740 410 C740 553 640 674 458 674 C196 674 54 456 54 248 C54 105 154 -16 336 -16 L336 -16 Z M328 34 C270 34 234 80 234 177 C234 338 335 624 466 624 C524 624 560 578 560 481 C560 320 462 34 328 34 L328 34 Z M372 759 L643 759 L664 836 L393 836 L372 759 Z " />
<glyph glyph-name="omacron" unicode="&#x14d;" horiz-adv-x="537" d="M318 472 C124 472 23 318 23 169 C23 73 96 -8 219 -8 C413 -8 514 146 514 295 C514 391 441 472 318 472 L318 472 Z M219 39 C190 39 173 62 173 109 C173 242 244 425 318 425 C347 425 364 402 364 355 C364 222 295 39 219 39 L219 39 Z M214 549 L485 549 L506 626 L235 626 L214 549 Z " />
<glyph glyph-name="Obreve" unicode="&#x14e;" horiz-adv-x="743" d="M336 -16 C598 -16 740 202 740 410 C740 553 640 674 458 674 C196 674 54 456 54 248 C54 105 154 -16 336 -16 L336 -16 Z M328 34 C270 34 234 80 234 177 C234 338 335 624 466 624 C524 624 560 578 560 481 C560 320 462 34 328 34 L328 34 Z M508 742 C593 742 662 800 688 905 L620 905 C600 860 566 829 520 829 C477 829 450 856 453 905 L390 905 C365 803 417 742 508 742 L508 742 Z " />
<glyph glyph-name="obreve" unicode="&#x14f;" horiz-adv-x="537" d="M318 472 C124 472 23 318 23 169 C23 73 96 -8 219 -8 C413 -8 514 146 514 295 C514 391 441 472 318 472 L318 472 Z M219 39 C190 39 173 62 173 109 C173 242 244 425 318 425 C347 425 364 402 364 355 C364 222 295 39 219 39 L219 39 Z M349 532 C434 532 503 590 529 695 L461 695 C441 650 407 619 361 619 C318 619 291 646 294 695 L231 695 C206 593 258 532 349 532 L349 532 Z " />
<glyph glyph-name="Ohungarumlaut" unicode="&#x150;" horiz-adv-x="743" d="M336 -16 C598 -16 740 202 740 410 C740 553 640 674 458 674 C196 674 54 456 54 248 C54 105 154 -16 336 -16 L336 -16 Z M328 34 C270 34 234 80 234 177 C234 338 335 624 466 624 C524 624 560 578 560 481 C560 320 462 34 328 34 L328 34 Z M344 734 L419 734 L492 800 C580 879 592 899 592 926 C592 954 567 980 535 980 C497 980 478 960 419 861 L344 734 Z M544 734 L619 734 L692 800 C780 879 792 899 792 926 C792 954 767 980 735 980 C697 980 678 960 619 861 L544 734 Z " />
<glyph glyph-name="ohungarumlaut" unicode="&#x151;" horiz-adv-x="537" d="M318 472 C124 472 23 318 23 169 C23 73 96 -8 219 -8 C413 -8 514 146 514 295 C514 391 441 472 318 472 L318 472 Z M219 39 C190 39 173 62 173 109 C173 242 244 425 318 425 C347 425 364 402 364 355 C364 222 295 39 219 39 L219 39 Z M186 524 L261 524 L334 590 C422 669 434 689 434 716 C434 744 409 770 377 770 C339 770 320 750 261 651 L186 524 Z M386 524 L461 524 L534 590 C622 669 634 689 634 716 C634 744 609 770 577 770 C539 770 520 750 461 651 L386 524 Z " />
<glyph glyph-name="OE" unicode="&#x152;" horiz-adv-x="1042" d="M935 0 L1001 246 L939 246 C874 118 814 53 682 53 L590 53 L661 320 L704 320 C761 320 779 294 775 213 L826 213 L887 454 L834 454 C807 393 781 372 725 372 L674 372 L738 606 L818 606 C930 606 965 546 970 434 L1027 434 L1087 658 L491 658 C342 658 237 610 167 540 C90 463 57 359 57 262 C57 108 153 0 365 0 L935 0 Z M557 606 L409 52 L362 52 C281 52 239 101 239 200 C239 311 272 458 356 542 C395 581 445 606 507 606 L557 606 Z " />
<glyph glyph-name="oe" unicode="&#x153;" horiz-adv-x="810" d="M644 472 C572 472 509 448 461 409 C429 447 381 472 319 472 C125 472 24 318 24 169 C24 73 97 -8 220 -8 C296 -8 357 15 403 53 C438 15 489 -8 550 -8 C655 -8 720 45 771 114 L744 139 C710 92 656 61 606 61 C535 61 499 105 499 183 C499 191 499 200 500 208 C705 208 805 269 805 355 C805 418 755 472 644 472 L644 472 Z M220 39 C191 39 174 62 174 109 C174 242 245 425 319 425 C348 425 365 402 365 355 C365 222 296 39 220 39 L220 39 Z M636 420 C661 420 680 404 680 367 C680 309 639 252 505 247 C523 343 581 420 636 420 L636 420 Z " />
<glyph glyph-name="Racute" unicode="&#x154;" horiz-adv-x="705" d="M320 352 L389 610 L434 610 C497 610 530 582 530 523 C530 444 491 352 379 352 L320 352 Z M123 613 C201 610 206 602 196 564 L70 94 C62 64 41 48 -25 45 L-38 0 L307 0 L320 45 C253 48 240 54 251 94 L307 306 L353 306 C438 306 444 275 438 188 L433 118 C427 30 454 -7 595 -7 C630 -7 687 -6 694 -6 L707 39 C637 44 620 58 621 103 L622 171 C623 271 598 314 469 329 L470 334 C636 350 714 428 714 508 C714 593 644 658 482 658 L136 658 L123 613 Z M414 734 L489 734 L569 798 C664 874 677 887 677 928 C677 953 648 980 621 980 C581 980 563 960 498 861 L414 734 Z " />
<glyph glyph-name="racute" unicode="&#x155;" horiz-adv-x="488" d="M416 469 C354 469 308 428 264 373 L260 377 L289 466 L55 452 L55 411 C117 407 120 389 112 359 L58 162 L3 0 L169 0 L246 316 C276 351 310 373 349 382 C343 369 340 351 340 340 C340 300 368 277 412 277 C466 277 504 322 504 386 C504 429 469 469 416 469 L416 469 Z M242 524 L317 524 L397 588 C492 664 505 677 505 718 C505 743 476 770 449 770 C409 770 391 750 326 651 L242 524 Z " />
<glyph glyph-name="Rcommaaccent" unicode="&#x156;" horiz-adv-x="705" d="M320 352 L389 610 L434 610 C497 610 530 582 530 523 C530 444 491 352 379 352 L320 352 Z M123 613 C201 610 206 602 196 564 L70 94 C62 64 41 48 -25 45 L-38 0 L307 0 L320 45 C253 48 240 54 251 94 L307 306 L353 306 C438 306 444 275 438 188 L433 118 C427 30 454 -7 595 -7 C630 -7 687 -6 694 -6 L707 39 C637 44 620 58 621 103 L622 171 C623 271 598 314 469 329 L470 334 C636 350 714 428 714 508 C714 593 644 658 482 658 L136 658 L123 613 Z M146 -354 C325 -302 360 -225 360 -162 C360 -108 319 -69 273 -69 C232 -69 197 -103 197 -148 C197 -185 227 -214 266 -218 L271 -222 C265 -242 234 -278 131 -316 L146 -354 Z " />
<glyph glyph-name="rcommaaccent" unicode="&#x157;" horiz-adv-x="488" d="M416 469 C354 469 308 428 264 373 L260 377 L289 466 L55 452 L55 411 C117 407 120 389 112 359 L58 162 L3 0 L169 0 L246 316 C276 351 310 373 349 382 C343 369 340 351 340 340 C340 300 368 277 412 277 C466 277 504 322 504 386 C504 429 469 469 416 469 L416 469 Z M-75 -354 C104 -302 139 -225 139 -162 C139 -108 98 -69 52 -69 C11 -69 -24 -103 -24 -148 C-24 -185 6 -214 45 -218 L50 -222 C44 -242 13 -278 -90 -316 L-75 -354 Z " />
<glyph glyph-name="Rcaron" unicode="&#x158;" horiz-adv-x="705" d="M320 352 L389 610 L434 610 C497 610 530 582 530 523 C530 444 491 352 379 352 L320 352 Z M123 613 C201 610 206 602 196 564 L70 94 C62 64 41 48 -25 45 L-38 0 L307 0 L320 45 C253 48 240 54 251 94 L307 306 L353 306 C438 306 444 275 438 188 L433 118 C427 30 454 -7 595 -7 C630 -7 687 -6 694 -6 L707 39 C637 44 620 58 621 103 L622 171 C623 271 598 314 469 329 L470 334 C636 350 714 428 714 508 C714 593 644 658 482 658 L136 658 L123 613 Z M421 734 L520 734 L692 927 L623 927 L496 825 L422 927 L362 927 L421 734 Z " />
<glyph glyph-name="rcaron" unicode="&#x159;" horiz-adv-x="488" d="M416 469 C354 469 308 428 264 373 L260 377 L289 466 L55 452 L55 411 C117 407 120 389 112 359 L58 162 L3 0 L169 0 L246 316 C276 351 310 373 349 382 C343 369 340 351 340 340 C340 300 368 277 412 277 C466 277 504 322 504 386 C504 429 469 469 416 469 L416 469 Z M249 524 L348 524 L520 717 L451 717 L324 615 L250 717 L190 717 L249 524 Z " />
<glyph glyph-name="Sacute" unicode="&#x15a;" horiz-adv-x="584" d="M2 -18 L61 -18 L99 32 C147 2 214 -16 287 -16 C460 -16 544 97 544 216 C544 295 495 347 406 394 C309 445 269 466 269 526 C269 578 304 624 368 624 C430 624 468 582 524 455 L577 455 L627 676 L572 676 L529 626 C492 653 440 674 378 674 C219 674 125 561 125 451 C125 362 178 312 298 255 C375 219 403 190 403 140 C403 85 365 34 295 34 C226 34 172 78 112 216 L59 216 L2 -18 Z M357 734 L432 734 L512 798 C607 874 620 887 620 928 C620 953 591 980 564 980 C524 980 506 960 441 861 L357 734 Z " />
<glyph glyph-name="sacute" unicode="&#x15b;" horiz-adv-x="458" d="M192 -8 C335 -8 411 70 411 157 C411 222 371 256 292 287 C214 317 194 336 194 365 C194 398 226 425 275 425 C302 425 324 416 334 408 C327 395 321 383 321 360 C321 332 349 309 385 309 C426 309 450 336 450 372 C450 433 371 472 278 472 C157 472 68 394 68 304 C68 233 117 200 196 170 C262 145 284 132 284 100 C284 66 249 39 195 39 C168 39 143 45 124 57 C131 68 137 84 137 99 C137 136 108 156 73 156 C34 156 4 129 4 90 C4 24 91 -8 192 -8 L192 -8 Z M248 524 L323 524 L403 588 C498 664 511 677 511 718 C511 743 482 770 455 770 C415 770 397 750 332 651 L248 524 Z " />
<glyph glyph-name="Scedilla" unicode="&#x15e;" horiz-adv-x="584" d="M178 -251 C265 -251 324 -208 324 -147 C324 -101 290 -67 214 -65 L213 -62 L273 -16 L287 -16 C460 -16 544 97 544 216 C544 295 495 347 406 394 C309 445 269 466 269 526 C269 578 304 624 368 624 C430 624 468 582 524 455 L577 455 L627 676 L572 676 L529 626 C492 653 440 674 378 674 C219 674 125 561 125 451 C125 362 178 312 298 255 C375 219 403 190 403 140 C403 85 365 34 295 34 C226 34 172 78 112 216 L59 216 L2 -18 L61 -18 L99 32 C131 12 171 -2 216 -10 L121 -80 L141 -126 C153 -125 169 -122 183 -122 C220 -122 243 -135 243 -157 C243 -180 220 -202 177 -202 C146 -202 114 -199 94 -195 L77 -236 C112 -246 153 -251 178 -251 L178 -251 Z " />
<glyph glyph-name="scedilla" unicode="&#x15f;" horiz-adv-x="458" d="M125 -251 C212 -251 271 -208 271 -147 C271 -101 237 -67 161 -65 L160 -62 L234 -5 C350 8 411 79 411 157 C411 222 371 256 292 287 C214 317 194 336 194 365 C194 398 226 425 275 425 C302 425 324 416 334 408 C327 395 321 383 321 360 C321 332 349 309 385 309 C426 309 450 336 450 372 C450 433 371 472 278 472 C157 472 68 394 68 304 C68 233 117 200 196 170 C262 145 284 132 284 100 C284 66 249 39 195 39 C168 39 143 45 124 57 C131 68 137 84 137 99 C137 136 108 156 73 156 C34 156 4 129 4 90 C4 29 77 -2 167 -7 L68 -80 L88 -126 C100 -125 116 -122 130 -122 C167 -122 190 -135 190 -157 C190 -180 167 -202 124 -202 C93 -202 61 -199 41 -195 L24 -236 C59 -246 100 -251 125 -251 L125 -251 Z " />
<glyph glyph-name="Scaron" unicode="&#x160;" horiz-adv-x="584" d="M2 -18 L61 -18 L99 32 C147 2 214 -16 287 -16 C460 -16 544 97 544 216 C544 295 495 347 406 394 C309 445 269 466 269 526 C269 578 304 624 368 624 C430 624 468 582 524 455 L577 455 L627 676 L572 676 L529 626 C492 653 440 674 378 674 C219 674 125 561 125 451 C125 362 178 312 298 255 C375 219 403 190 403 140 C403 85 365 34 295 34 C226 34 172 78 112 216 L59 216 L2 -18 Z M365 734 L464 734 L636 927 L567 927 L440 825 L366 927 L306 927 L365 734 Z " />
<glyph glyph-name="scaron" unicode="&#x161;" horiz-adv-x="458" d="M192 -8 C335 -8 411 70 411 157 C411 222 371 256 292 287 C214 317 194 336 194 365 C194 398 226 425 275 425 C302 425 324 416 334 408 C327 395 321 383 321 360 C321 332 349 309 385 309 C426 309 450 336 450 372 C450 433 371 472 278 472 C157 472 68 394 68 304 C68 233 117 200 196 170 C262 145 284 132 284 100 C284 66 249 39 195 39 C168 39 143 45 124 57 C131 68 137 84 137 99 C137 136 108 156 73 156 C34 156 4 129 4 90 C4 24 91 -8 192 -8 L192 -8 Z M255 524 L354 524 L526 717 L457 717 L330 615 L256 717 L196 717 L255 524 Z " />
<glyph glyph-name="Tcommaaccent" unicode="&#x162;" horiz-adv-x="697" d="M219 94 C211 64 184 48 118 45 L105 0 L466 0 L479 45 C401 48 390 56 400 94 L538 606 L561 606 C621 606 642 552 660 422 L717 422 L781 658 L142 658 L76 422 L131 422 C223 566 271 606 333 606 L357 606 L219 94 Z M145 -354 C324 -302 359 -225 359 -162 C359 -108 318 -69 272 -69 C231 -69 196 -103 196 -148 C196 -185 226 -214 265 -218 L270 -222 C264 -242 233 -278 130 -316 L145 -354 Z " />
<glyph glyph-name="tcommaaccent" unicode="&#x163;" horiz-adv-x="386" d="M408 404 L426 462 L305 462 L358 626 L197 613 L154 462 L63 462 L45 404 L136 404 L57 139 C51 118 48 98 48 86 C48 29 87 -8 173 -8 C245 -8 299 14 338 31 L342 76 C313 70 289 69 271 69 C233 69 208 80 208 115 C208 124 210 139 215 157 L288 404 L408 404 Z M-4 -354 C175 -302 210 -225 210 -162 C210 -108 169 -69 123 -69 C82 -69 47 -103 47 -148 C47 -185 77 -214 116 -218 L121 -222 C115 -242 84 -278 -19 -316 L-4 -354 Z " />
<glyph glyph-name="Tcaron" unicode="&#x164;" horiz-adv-x="697" d="M219 94 C211 64 184 48 118 45 L105 0 L466 0 L479 45 C401 48 390 56 400 94 L538 606 L561 606 C621 606 642 552 660 422 L717 422 L781 658 L142 658 L76 422 L131 422 C223 566 271 606 333 606 L357 606 L219 94 Z M420 734 L519 734 L691 927 L622 927 L495 825 L421 927 L361 927 L420 734 Z " />
<glyph glyph-name="tcaron" unicode="&#x165;" horiz-adv-x="386" d="M408 404 L426 462 L305 462 L358 626 L197 613 L154 462 L63 462 L45 404 L136 404 L57 139 C51 118 48 98 48 86 C48 29 87 -8 173 -8 C245 -8 299 14 338 31 L342 76 C313 70 289 69 271 69 C233 69 208 80 208 115 C208 124 210 139 215 157 L288 404 L408 404 Z M419 547 L471 547 L535 662 C557 702 584 744 584 777 C584 808 561 830 527 830 C478 830 462 790 449 718 L419 547 Z " />
<glyph glyph-name="Umacron" unicode="&#x16a;" horiz-adv-x="759" d="M367 564 C376 599 396 610 450 613 L463 658 L126 658 L113 613 C191 610 196 602 186 564 L112 289 C103 255 98 224 98 194 C98 69 178 -16 344 -16 C553 -16 620 85 659 231 L720 460 C748 566 775 609 848 613 L861 658 L612 658 L599 613 C681 607 684 570 659 475 L602 260 C575 159 533 63 420 63 C326 63 279 115 279 196 C279 219 283 244 290 271 L367 564 Z M408 759 L679 759 L700 836 L429 836 L408 759 Z " />
<glyph glyph-name="umacron" unicode="&#x16b;" horiz-adv-x="601" d="M43 147 C37 127 33 106 33 91 C33 30 77 -8 141 -8 C196 -8 259 21 317 84 L321 80 C320 73 319 65 319 59 C319 16 346 -7 419 -7 C458 -7 523 5 546 13 L546 54 C484 53 464 56 464 80 C464 90 469 106 475 127 L577 464 L414 464 L380 306 L323 120 C292 97 263 82 229 82 C205 82 190 94 190 120 C190 132 193 150 200 173 L292 466 L56 452 L56 411 C118 407 122 388 112 359 L43 147 Z M236 549 L507 549 L528 626 L257 626 L236 549 Z " />
<glyph glyph-name="Ubreve" unicode="&#x16c;" horiz-adv-x="759" d="M367 564 C376 599 396 610 450 613 L463 658 L126 658 L113 613 C191 610 196 602 186 564 L112 289 C103 255 98 224 98 194 C98 69 178 -16 344 -16 C553 -16 620 85 659 231 L720 460 C748 566 775 609 848 613 L861 658 L612 658 L599 613 C681 607 684 570 659 475 L602 260 C575 159 533 63 420 63 C326 63 279 115 279 196 C279 219 283 244 290 271 L367 564 Z M543 742 C628 742 697 800 723 905 L655 905 C635 860 601 829 555 829 C512 829 485 856 488 905 L425 905 C400 803 452 742 543 742 L543 742 Z " />
<glyph glyph-name="ubreve" unicode="&#x16d;" horiz-adv-x="601" d="M43 147 C37 127 33 106 33 91 C33 30 77 -8 141 -8 C196 -8 259 21 317 84 L321 80 C320 73 319 65 319 59 C319 16 346 -7 419 -7 C458 -7 523 5 546 13 L546 54 C484 53 464 56 464 80 C464 90 469 106 475 127 L577 464 L414 464 L380 306 L323 120 C292 97 263 82 229 82 C205 82 190 94 190 120 C190 132 193 150 200 173 L292 466 L56 452 L56 411 C118 407 122 388 112 359 L43 147 Z M372 532 C457 532 526 590 552 695 L484 695 C464 650 430 619 384 619 C341 619 314 646 317 695 L254 695 C229 593 281 532 372 532 L372 532 Z " />
<glyph glyph-name="Uring" unicode="&#x16e;" horiz-adv-x="759" d="M367 564 C376 599 396 610 450 613 L463 658 L126 658 L113 613 C191 610 196 602 186 564 L112 289 C103 255 98 224 98 194 C98 69 178 -16 344 -16 C553 -16 620 85 659 231 L720 460 C748 566 775 609 848 613 L861 658 L612 658 L599 613 C681 607 684 570 659 475 L602 260 C575 159 533 63 420 63 C326 63 279 115 279 196 C279 219 283 244 290 271 L367 564 Z M553 742 C633 742 710 804 710 893 C710 956 658 990 597 990 C517 990 440 928 440 839 C440 776 492 742 553 742 L553 742 Z M558 788 C527 788 519 814 519 838 C519 873 542 944 592 944 C623 944 631 918 631 894 C631 859 608 788 558 788 L558 788 Z " />
<glyph glyph-name="uring" unicode="&#x16f;" horiz-adv-x="601" d="M43 147 C37 127 33 106 33 91 C33 30 77 -8 141 -8 C196 -8 259 21 317 84 L321 80 C320 73 319 65 319 59 C319 16 346 -7 419 -7 C458 -7 523 5 546 13 L546 54 C484 53 464 56 464 80 C464 90 469 106 475 127 L577 464 L414 464 L380 306 L323 120 C292 97 263 82 229 82 C205 82 190 94 190 120 C190 132 193 150 200 173 L292 466 L56 452 L56 411 C118 407 122 388 112 359 L43 147 Z M382 532 C462 532 539 594 539 683 C539 746 487 780 426 780 C346 780 269 718 269 629 C269 566 321 532 382 532 L382 532 Z M387 578 C356 578 348 604 348 628 C348 663 371 734 421 734 C452 734 460 708 460 684 C460 649 437 578 387 578 L387 578 Z " />
<glyph glyph-name="Uhungarumlaut" unicode="&#x170;" horiz-adv-x="759" d="M367 564 C376 599 396 610 450 613 L463 658 L126 658 L113 613 C191 610 196 602 186 564 L112 289 C103 255 98 224 98 194 C98 69 178 -16 344 -16 C553 -16 620 85 659 231 L720 460 C748 566 775 609 848 613 L861 658 L612 658 L599 613 C681 607 684 570 659 475 L602 260 C575 159 533 63 420 63 C326 63 279 115 279 196 C279 219 283 244 290 271 L367 564 Z M380 734 L455 734 L528 800 C616 879 628 899 628 926 C628 954 603 980 571 980 C533 980 514 960 455 861 L380 734 Z M580 734 L655 734 L728 800 C816 879 828 899 828 926 C828 954 803 980 771 980 C733 980 714 960 655 861 L580 734 Z " />
<glyph glyph-name="uhungarumlaut" unicode="&#x171;" horiz-adv-x="601" d="M43 147 C37 127 33 106 33 91 C33 30 77 -8 141 -8 C196 -8 259 21 317 84 L321 80 C320 73 319 65 319 59 C319 16 346 -7 419 -7 C458 -7 523 5 546 13 L546 54 C484 53 464 56 464 80 C464 90 469 106 475 127 L577 464 L414 464 L380 306 L323 120 C292 97 263 82 229 82 C205 82 190 94 190 120 C190 132 193 150 200 173 L292 466 L56 452 L56 411 C118 407 122 388 112 359 L43 147 Z M209 524 L284 524 L357 590 C445 669 457 689 457 716 C457 744 432 770 400 770 C362 770 343 750 284 651 L209 524 Z M409 524 L484 524 L557 590 C645 669 657 689 657 716 C657 744 632 770 600 770 C562 770 543 750 484 651 L409 524 Z " />
<glyph glyph-name="Uogonek" unicode="&#x172;" horiz-adv-x="771" d="M292 -241 C354 -241 403 -218 426 -204 L412 -169 C385 -178 361 -183 337 -183 C294 -183 281 -161 281 -141 C281 -121 287 -82 412 -12 C568 8 624 102 659 231 L720 460 C748 566 775 609 848 613 L861 658 L612 658 L599 613 C681 607 684 570 659 475 L602 260 C575 159 533 63 420 63 C326 63 279 115 279 196 C279 219 283 244 290 271 L367 564 C376 599 396 610 450 613 L463 658 L126 658 L113 613 C191 610 196 602 186 564 L112 289 C103 255 98 224 98 194 C98 74 170 -8 321 -15 C216 -64 184 -109 184 -156 C184 -211 228 -241 292 -241 L292 -241 Z " />
<glyph glyph-name="uogonek" unicode="&#x173;" horiz-adv-x="601" d="M464 80 C464 90 469 106 475 127 L577 464 L414 464 L380 306 L323 120 C292 97 263 82 229 82 C205 82 190 94 190 120 C190 132 193 150 200 173 L292 466 L56 452 L56 411 C118 407 122 388 112 359 L43 147 C37 127 33 106 33 91 C33 30 77 -8 141 -8 C196 -8 259 21 317 84 L321 80 C320 73 319 65 319 59 C319 16 345 -6 419 -7 L407 -12 C288 -62 254 -108 254 -156 C254 -211 298 -241 362 -241 C424 -241 473 -218 496 -204 L482 -169 C455 -178 431 -183 407 -183 C364 -183 351 -161 351 -141 C351 -65 517 1 532 7 L546 13 L546 54 C484 53 464 56 464 80 L464 80 Z " />
<glyph glyph-name="Wcircumflex" unicode="&#x174;" horiz-adv-x="1060" d="M339 552 C336 595 335 608 402 613 L415 658 L94 658 L81 613 C144 605 160 590 163 549 L210 -6 L367 -6 L564 363 L584 -6 L743 -6 L1012 476 C1061 563 1092 597 1160 613 L1173 658 L906 658 L893 613 C971 601 985 565 934 471 L764 161 L743 161 L727 552 C725 594 730 611 800 613 L813 658 L502 658 L489 613 C545 606 551 594 553 554 L558 469 L390 157 L369 157 L339 552 Z M495 734 L566 734 L692 834 L763 734 L824 734 L765 927 L665 927 L495 734 Z " />
<glyph glyph-name="wcircumflex" unicode="&#x175;" horiz-adv-x="794" d="M550 -10 L711 224 C768 307 798 351 798 395 C798 439 773 472 721 472 C671 472 639 436 639 390 C639 356 662 327 690 312 C675 267 654 227 618 173 L570 101 L555 101 L550 219 L531 467 L376 454 L393 319 C379 280 361 240 335 191 L287 101 L270 101 L265 219 L241 467 L17 445 L17 404 C83 399 95 386 101 345 L125 180 L137 -2 L267 -10 L405 217 L410 180 L422 -2 L550 -10 Z M305 524 L376 524 L502 624 L573 524 L634 524 L575 717 L475 717 L305 524 Z " />
<glyph glyph-name="Ycircumflex" unicode="&#x176;" horiz-adv-x="691" d="M641 509 C700 580 742 605 805 613 L818 658 L556 658 L543 613 C619 605 615 580 553 499 L435 346 L368 550 C354 593 354 612 433 614 L446 658 L106 658 L93 613 C149 605 172 587 185 552 L280 300 L225 94 C217 64 196 48 130 45 L117 0 L466 0 L479 45 C401 48 396 56 406 94 L459 291 L641 509 Z M334 734 L405 734 L531 834 L602 734 L663 734 L604 927 L504 927 L334 734 Z " />
<glyph glyph-name="ycircumflex" unicode="&#x177;" horiz-adv-x="515" d="M242 467 L14 445 L14 404 C80 399 94 386 103 345 L138 180 L182 -42 C149 -105 76 -152 33 -153 C44 -143 53 -124 53 -102 C53 -64 27 -30 -18 -30 C-61 -30 -96 -67 -96 -112 C-96 -168 -55 -208 13 -208 C136 -208 246 -107 403 140 C483 266 519 341 519 385 C519 431 494 472 442 472 C392 472 360 436 360 390 C360 356 388 324 418 309 C407 264 391 226 334 134 L310 95 L293 95 L278 229 L242 467 Z M132 524 L203 524 L329 624 L400 524 L461 524 L402 717 L302 717 L132 524 Z " />
<glyph glyph-name="Ydieresis" unicode="&#x178;" horiz-adv-x="691" d="M641 509 C700 580 742 605 805 613 L818 658 L556 658 L543 613 C619 605 615 580 553 499 L435 346 L368 550 C354 593 354 612 433 614 L446 658 L106 658 L93 613 C149 605 172 587 185 552 L280 300 L225 94 C217 64 196 48 130 45 L117 0 L466 0 L479 45 C401 48 396 56 406 94 L459 291 L641 509 Z M618 742 C670 742 713 786 713 842 C713 886 683 908 648 908 C596 908 553 864 553 808 C553 764 583 742 618 742 L618 742 Z M408 742 C460 742 503 786 503 842 C503 886 473 908 438 908 C386 908 343 864 343 808 C343 764 373 742 408 742 L408 742 Z " />
<glyph glyph-name="Zacute" unicode="&#x179;" horiz-adv-x="669" d="M530 606 L-4 55 L-13 0 L574 0 L642 253 L580 253 C487 107 428 52 330 52 L198 52 L732 603 L741 658 L177 658 L114 424 L177 423 C272 560 318 606 411 606 L530 606 Z M397 734 L472 734 L552 798 C647 874 660 887 660 928 C660 953 631 980 604 980 C564 980 546 960 481 861 L397 734 Z " />
<glyph glyph-name="zacute" unicode="&#x17a;" horiz-adv-x="480" d="M2 -15 C29 -4 71 10 110 10 C162 10 252 -11 311 -11 C401 -11 430 34 450 184 L407 188 C392 132 376 107 326 107 C299 107 263 114 229 114 C196 114 170 107 147 97 L140 109 L505 428 L492 464 L100 464 L53 280 L100 278 C135 345 154 355 238 357 L335 359 L339 344 L-22 21 L2 -15 Z M234 524 L309 524 L389 588 C484 664 497 677 497 718 C497 743 468 770 441 770 C401 770 383 750 318 651 L234 524 Z " />
<glyph glyph-name="Zdotaccent" unicode="&#x17b;" horiz-adv-x="669" d="M530 606 L-4 55 L-13 0 L574 0 L642 253 L580 253 C487 107 428 52 330 52 L198 52 L732 603 L741 658 L177 658 L114 424 L177 423 C272 560 318 606 411 606 L530 606 Z M478 742 C536 742 583 790 583 852 C583 900 551 924 514 924 C455 924 407 878 407 816 C407 768 440 742 478 742 L478 742 Z " />
<glyph glyph-name="zdotaccent" unicode="&#x17c;" horiz-adv-x="480" d="M2 -15 C29 -4 71 10 110 10 C162 10 252 -11 311 -11 C401 -11 430 34 450 184 L407 188 C392 132 376 107 326 107 C299 107 263 114 229 114 C196 114 170 107 147 97 L140 109 L505 428 L492 464 L100 464 L53 280 L100 278 C135 345 154 355 238 357 L335 359 L339 344 L-22 21 L2 -15 Z M315 532 C373 532 420 580 420 642 C420 690 388 714 351 714 C292 714 244 668 244 606 C244 558 277 532 315 532 L315 532 Z " />
<glyph glyph-name="Zcaron" unicode="&#x17d;" horiz-adv-x="669" d="M530 606 L-4 55 L-13 0 L574 0 L642 253 L580 253 C487 107 428 52 330 52 L198 52 L732 603 L741 658 L177 658 L114 424 L177 423 C272 560 318 606 411 606 L530 606 Z M405 734 L504 734 L676 927 L607 927 L480 825 L406 927 L346 927 L405 734 Z " />
<glyph glyph-name="zcaron" unicode="&#x17e;" horiz-adv-x="480" d="M2 -15 C29 -4 71 10 110 10 C162 10 252 -11 311 -11 C401 -11 430 34 450 184 L407 188 C392 132 376 107 326 107 C299 107 263 114 229 114 C196 114 170 107 147 97 L140 109 L505 428 L492 464 L100 464 L53 280 L100 278 C135 345 154 355 238 357 L335 359 L339 344 L-22 21 L2 -15 Z M242 524 L341 524 L513 717 L444 717 L317 615 L243 717 L183 717 L242 524 Z " />
<glyph glyph-name="Aringacute" unicode="&#x1fa;" horiz-adv-x="664" d="M216 231 L422 231 L432 123 C437 73 426 49 358 45 L345 0 L684 0 L697 45 C631 54 624 69 619 109 L545 643 C588 669 618 714 618 770 C618 833 566 867 505 867 C425 867 348 805 348 716 C348 685 361 661 381 644 L109 180 C53 85 32 61 -36 45 L-49 0 L204 0 L217 45 C146 57 136 89 180 167 L216 231 Z M466 665 C435 665 427 691 427 715 C427 750 450 821 500 821 C531 821 539 795 539 771 C539 736 516 665 466 665 L466 665 Z M417 283 L245 283 L377 517 L396 517 L417 283 Z M479 897 L554 897 L634 961 C729 1037 742 1050 742 1091 C742 1116 713 1143 686 1143 C646 1143 628 1123 563 1024 L479 897 Z " />
<glyph glyph-name="aringacute" unicode="&#x1fb;" horiz-adv-x="529" d="M516 310 L574 472 L422 463 L402 419 C382 450 357 472 294 472 C182 472 24 351 24 157 C24 45 97 -8 167 -8 C222 -8 248 12 302 63 L311 60 C313 11 341 -8 400 -8 C449 -8 504 6 528 14 L528 56 C471 55 452 56 451 79 C451 92 456 113 465 144 L516 310 Z M399 532 C479 532 556 594 556 683 C556 746 504 780 443 780 C363 780 286 718 286 629 C286 566 338 532 399 532 L399 532 Z M334 412 C358 412 373 398 387 379 L305 104 C280 84 267 78 245 78 C210 78 180 97 180 159 C180 249 247 412 334 412 L334 412 Z M428 815 L503 815 L583 879 C678 955 691 968 691 1009 C691 1034 662 1061 635 1061 C595 1061 577 1041 512 942 L428 815 Z M404 578 C373 578 365 604 365 628 C365 663 388 734 438 734 C469 734 477 708 477 684 C477 649 454 578 404 578 L404 578 Z " />
<glyph glyph-name="AEacute" unicode="&#x1fc;" horiz-adv-x="1073" d="M866 213 L927 454 L874 454 C847 393 821 372 765 372 L714 372 L778 606 L858 606 C970 606 1005 546 1010 434 L1067 434 L1127 658 L418 658 L405 613 C457 607 479 596 479 579 C479 567 469 553 452 534 L122 168 C43 80 24 55 -58 39 L-69 0 L176 0 L187 39 C154 45 137 53 137 70 C137 86 155 111 189 149 L279 251 L502 251 L460 94 C452 64 431 48 365 45 L352 0 L975 0 L1041 246 L979 246 C914 118 854 53 722 53 L630 53 L701 320 L744 320 C801 320 819 294 815 213 L866 213 Z M516 303 L325 303 L577 587 L592 587 L516 303 Z M710 734 L785 734 L865 798 C960 874 973 887 973 928 C973 953 944 980 917 980 C877 980 859 960 794 861 L710 734 Z " />
<glyph glyph-name="aeacute" unicode="&#x1fd;" horiz-adv-x="765" d="M599 472 C527 472 470 450 425 416 L420 416 C387 456 332 472 260 472 C133 472 70 416 70 357 C70 319 98 291 140 291 C184 291 217 320 217 367 C217 385 211 399 203 409 C212 417 231 422 252 422 C281 422 337 416 337 321 C337 305 336 289 334 267 C84 263 2 200 2 107 C2 34 57 -8 140 -8 C248 -8 300 44 329 99 L334 99 C359 35 417 -8 505 -8 C610 -8 675 45 726 114 L699 139 C665 92 611 61 561 61 C490 61 454 105 454 183 C454 191 454 200 455 208 C660 208 760 269 760 355 C760 418 710 472 599 472 L599 472 Z M423 524 L498 524 L578 588 C673 664 686 677 686 718 C686 743 657 770 630 770 C590 770 572 750 507 651 L423 524 Z M591 420 C616 420 635 404 635 367 C635 309 594 252 460 247 C478 343 536 420 591 420 L591 420 Z M219 72 C183 72 161 97 161 131 C161 181 197 223 330 228 C315 125 276 72 219 72 L219 72 Z " />
<glyph glyph-name="Oslashacute" unicode="&#x1fe;" horiz-adv-x="743" d="M99 -34 L161 33 C206 2 264 -16 336 -16 C598 -16 740 202 740 410 C740 477 718 539 676 586 L772 692 L694 692 L632 624 C587 655 529 674 458 674 C196 674 54 456 54 248 C54 181 76 119 117 72 L21 -34 L99 -34 Z M328 34 C283 34 251 61 239 119 L560 470 C556 308 459 34 328 34 L328 34 Z M466 624 C511 624 542 596 554 539 L234 189 C238 352 338 624 466 624 L466 624 Z M433 734 L508 734 L588 798 C683 874 696 887 696 928 C696 953 667 980 640 980 C600 980 582 960 517 861 L433 734 Z " />
<glyph glyph-name="oslashacute" unicode="&#x1ff;" horiz-adv-x="537" d="M-7 -24 L65 -24 L106 20 C136 2 174 -8 219 -8 C413 -8 514 146 514 295 C514 338 499 378 472 409 L544 488 L472 488 L431 443 C400 461 362 472 318 472 C124 472 23 318 23 169 C23 126 38 85 65 54 L-7 -24 Z M273 524 L348 524 L428 588 C523 664 536 677 536 718 C536 743 507 770 480 770 C440 770 422 750 357 651 L273 524 Z M219 39 C193 39 176 57 173 94 L360 298 C345 175 284 39 219 39 L219 39 Z M318 425 C344 425 360 407 363 369 L176 165 C192 288 254 425 318 425 L318 425 Z " />
<glyph glyph-name="Scommaaccent" unicode="&#x218;" horiz-adv-x="584" d="M2 -18 L61 -18 L99 32 C147 2 214 -16 287 -16 C460 -16 544 97 544 216 C544 295 495 347 406 394 C309 445 269 466 269 526 C269 578 304 624 368 624 C430 624 468 582 524 455 L577 455 L627 676 L572 676 L529 626 C492 653 440 674 378 674 C219 674 125 561 125 451 C125 362 178 312 298 255 C375 219 403 190 403 140 C403 85 365 34 295 34 C226 34 172 78 112 216 L59 216 L2 -18 Z M90 -354 C269 -302 304 -225 304 -162 C304 -108 263 -69 217 -69 C176 -69 141 -103 141 -148 C141 -185 171 -214 210 -218 L215 -222 C209 -242 178 -278 75 -316 L90 -354 Z " />
<glyph glyph-name="scommaaccent" unicode="&#x219;" horiz-adv-x="458" d="M192 -8 C335 -8 411 70 411 157 C411 222 371 256 292 287 C214 317 194 336 194 365 C194 398 226 425 275 425 C302 425 324 416 334 408 C327 395 321 383 321 360 C321 332 349 309 385 309 C426 309 450 336 450 372 C450 433 371 472 278 472 C157 472 68 394 68 304 C68 233 117 200 196 170 C262 145 284 132 284 100 C284 66 249 39 195 39 C168 39 143 45 124 57 C131 68 137 84 137 99 C137 136 108 156 73 156 C34 156 4 129 4 90 C4 24 91 -8 192 -8 L192 -8 Z M37 -354 C216 -302 251 -225 251 -162 C251 -108 210 -69 164 -69 C123 -69 88 -103 88 -148 C88 -185 118 -214 157 -218 L162 -222 C156 -242 125 -278 22 -316 L37 -354 Z " />
<glyph glyph-name="schwa" unicode="&#x259;" horiz-adv-x="490" d="M5 103 C5 40 55 -14 166 -14 C345 -14 466 135 466 281 C466 391 382 466 260 466 C155 466 90 413 39 344 L66 319 C100 366 154 397 204 397 C275 397 311 353 311 275 C311 266 310 258 310 249 C105 249 5 188 5 103 L5 103 Z M174 38 C149 38 130 54 130 91 C130 149 170 205 305 211 C286 114 228 38 174 38 L174 38 Z " />
<glyph glyph-name="circumflex" unicode="&#x2c6;" horiz-adv-x="351" d="M90 524 L161 524 L287 624 L358 524 L419 524 L360 717 L260 717 L90 524 Z " />
<glyph glyph-name="caron" unicode="&#x2c7;" horiz-adv-x="351" d="M198 524 L297 524 L469 717 L400 717 L273 615 L199 717 L139 717 L198 524 Z " />
<glyph glyph-name="breve" unicode="&#x2d8;" horiz-adv-x="376" d="M273 532 C358 532 427 590 453 695 L385 695 C365 650 331 619 285 619 C242 619 215 646 218 695 L155 695 C130 593 182 532 273 532 L273 532 Z " />
<glyph glyph-name="dotaccent" unicode="&#x2d9;" horiz-adv-x="263" d="M219 532 C277 532 324 580 324 642 C324 690 292 714 255 714 C196 714 148 668 148 606 C148 558 181 532 219 532 L219 532 Z " />
<glyph glyph-name="ring" unicode="&#x2da;" horiz-adv-x="344" d="M263 532 C343 532 420 594 420 683 C420 746 368 780 307 780 C227 780 150 718 150 629 C150 566 202 532 263 532 L263 532 Z M268 578 C237 578 229 604 229 628 C229 663 252 734 302 734 C333 734 341 708 341 684 C341 649 318 578 268 578 L268 578 Z " />
<glyph glyph-name="ogonek" unicode="&#x2db;" horiz-adv-x="289" d="M20 -241 C82 -241 131 -218 154 -204 L140 -169 C113 -178 89 -183 65 -183 C22 -183 9 -161 9 -141 C9 -121 15 -80 153 -5 L188 14 L118 14 L69 -7 C-52 -59 -88 -107 -88 -156 C-88 -211 -44 -241 20 -241 L20 -241 Z " />
<glyph glyph-name="tilde" unicode="&#x2dc;" horiz-adv-x="372" d="M115 526 L175 526 C187 558 203 571 216 571 C249 571 302 527 345 527 C402 527 438 581 454 673 L394 673 C382 641 366 628 353 628 C320 628 267 672 224 672 C167 672 131 618 115 526 L115 526 Z " />
<glyph glyph-name="hungarumlaut" unicode="&#x2dd;" horiz-adv-x="453" d="M96 524 L171 524 L244 590 C332 669 344 689 344 716 C344 744 319 770 287 770 C249 770 230 750 171 651 L96 524 Z M296 524 L371 524 L444 590 C532 669 544 689 544 716 C544 744 519 770 487 770 C449 770 430 750 371 651 L296 524 Z " />
<glyph glyph-name="commaaccent" unicode="&#x326;" horiz-adv-x="278" d="M-90 -354 C89 -302 124 -225 124 -162 C124 -108 83 -69 37 -69 C-4 -69 -39 -103 -39 -148 C-39 -185 -9 -214 30 -218 L35 -222 C29 -242 -2 -278 -105 -316 L-90 -354 Z " />
<glyph glyph-name="Wgrave" unicode="&#x1e80;" horiz-adv-x="1060" d="M339 552 C336 595 335 608 402 613 L415 658 L94 658 L81 613 C144 605 160 590 163 549 L210 -6 L367 -6 L564 363 L584 -6 L743 -6 L1012 476 C1061 563 1092 597 1160 613 L1173 658 L906 658 L893 613 C971 601 985 565 934 471 L764 161 L743 161 L727 552 C725 594 730 611 800 613 L813 658 L502 658 L489 613 C545 606 551 594 553 554 L558 469 L390 157 L369 157 L339 552 Z M643 734 L714 734 L649 868 C607 954 591 981 551 981 C522 981 489 954 489 920 C489 889 524 852 559 817 L643 734 Z " />
<glyph glyph-name="wgrave" unicode="&#x1e81;" horiz-adv-x="794" d="M550 -10 L711 224 C768 307 798 351 798 395 C798 439 773 472 721 472 C671 472 639 436 639 390 C639 356 662 327 690 312 C675 267 654 227 618 173 L570 101 L555 101 L550 219 L531 467 L376 454 L393 319 C379 280 361 240 335 191 L287 101 L270 101 L265 219 L241 467 L17 445 L17 404 C83 399 95 386 101 345 L125 180 L137 -2 L267 -10 L405 217 L410 180 L422 -2 L550 -10 Z M453 524 L524 524 L459 658 C417 744 401 771 361 771 C332 771 299 744 299 710 C299 679 334 642 369 607 L453 524 Z " />
<glyph glyph-name="Wacute" unicode="&#x1e82;" horiz-adv-x="1060" d="M339 552 C336 595 335 608 402 613 L415 658 L94 658 L81 613 C144 605 160 590 163 549 L210 -6 L367 -6 L564 363 L584 -6 L743 -6 L1012 476 C1061 563 1092 597 1160 613 L1173 658 L906 658 L893 613 C971 601 985 565 934 471 L764 161 L743 161 L727 552 C725 594 730 611 800 613 L813 658 L502 658 L489 613 C545 606 551 594 553 554 L558 469 L390 157 L369 157 L339 552 Z M593 734 L668 734 L748 798 C843 874 856 887 856 928 C856 953 827 980 800 980 C760 980 742 960 677 861 L593 734 Z " />
<glyph glyph-name="wacute" unicode="&#x1e83;" horiz-adv-x="794" d="M550 -10 L711 224 C768 307 798 351 798 395 C798 439 773 472 721 472 C671 472 639 436 639 390 C639 356 662 327 690 312 C675 267 654 227 618 173 L570 101 L555 101 L550 219 L531 467 L376 454 L393 319 C379 280 361 240 335 191 L287 101 L270 101 L265 219 L241 467 L17 445 L17 404 C83 399 95 386 101 345 L125 180 L137 -2 L267 -10 L405 217 L410 180 L422 -2 L550 -10 Z M403 524 L478 524 L558 588 C653 664 666 677 666 718 C666 743 637 770 610 770 C570 770 552 750 487 651 L403 524 Z " />
<glyph glyph-name="Wdieresis" unicode="&#x1e84;" horiz-adv-x="1060" d="M339 552 C336 595 335 608 402 613 L415 658 L94 658 L81 613 C144 605 160 590 163 549 L210 -6 L367 -6 L564 363 L584 -6 L743 -6 L1012 476 C1061 563 1092 597 1160 613 L1173 658 L906 658 L893 613 C971 601 985 565 934 471 L764 161 L743 161 L727 552 C725 594 730 611 800 613 L813 658 L502 658 L489 613 C545 606 551 594 553 554 L558 469 L390 157 L369 157 L339 552 Z M779 742 C831 742 874 786 874 842 C874 886 844 908 809 908 C757 908 714 864 714 808 C714 764 744 742 779 742 L779 742 Z M569 742 C621 742 664 786 664 842 C664 886 634 908 599 908 C547 908 504 864 504 808 C504 764 534 742 569 742 L569 742 Z " />
<glyph glyph-name="wdieresis" unicode="&#x1e85;" horiz-adv-x="794" d="M550 -10 L711 224 C768 307 798 351 798 395 C798 439 773 472 721 472 C671 472 639 436 639 390 C639 356 662 327 690 312 C675 267 654 227 618 173 L570 101 L555 101 L550 219 L531 467 L376 454 L393 319 C379 280 361 240 335 191 L287 101 L270 101 L265 219 L241 467 L17 445 L17 404 C83 399 95 386 101 345 L125 180 L137 -2 L267 -10 L405 217 L410 180 L422 -2 L550 -10 Z M588 532 C640 532 683 576 683 632 C683 676 653 698 618 698 C566 698 523 654 523 598 C523 554 553 532 588 532 L588 532 Z M378 532 C430 532 473 576 473 632 C473 676 443 698 408 698 C356 698 313 654 313 598 C313 554 343 532 378 532 L378 532 Z " />
<glyph glyph-name="Ygrave" unicode="&#x1ef2;" horiz-adv-x="691" d="M641 509 C700 580 742 605 805 613 L818 658 L556 658 L543 613 C619 605 615 580 553 499 L435 346 L368 550 C354 593 354 612 433 614 L446 658 L106 658 L93 613 C149 605 172 587 185 552 L280 300 L225 94 C217 64 196 48 130 45 L117 0 L466 0 L479 45 C401 48 396 56 406 94 L459 291 L641 509 Z M482 734 L553 734 L488 868 C446 954 430 981 390 981 C361 981 328 954 328 920 C328 889 363 852 398 817 L482 734 Z " />
<glyph glyph-name="ygrave" unicode="&#x1ef3;" horiz-adv-x="515" d="M242 467 L14 445 L14 404 C80 399 94 386 103 345 L138 180 L182 -42 C149 -105 76 -152 33 -153 C44 -143 53 -124 53 -102 C53 -64 27 -30 -18 -30 C-61 -30 -96 -67 -96 -112 C-96 -168 -55 -208 13 -208 C136 -208 246 -107 403 140 C483 266 519 341 519 385 C519 431 494 472 442 472 C392 472 360 436 360 390 C360 356 388 324 418 309 C407 264 391 226 334 134 L310 95 L293 95 L278 229 L242 467 Z M281 524 L352 524 L287 658 C245 744 229 771 189 771 C160 771 127 744 127 710 C127 679 162 642 197 607 L281 524 Z " />
<glyph glyph-name="enspace" unicode="&#x2002;" horiz-adv-x="500" d="" />
<glyph glyph-name="emspace" unicode="&#x2003;" horiz-adv-x="1000" d="" />
<glyph glyph-name="threeperemspace" unicode="&#x2004;" horiz-adv-x="333" d="" />
<glyph glyph-name="fourperemspace" unicode="&#x2005;" horiz-adv-x="250" d="" />
<glyph glyph-name="thinspace" unicode="&#x2009;" horiz-adv-x="133" d="" />
<glyph glyph-name="hairspace" unicode="&#x200a;" horiz-adv-x="75" d="" />
<glyph glyph-name="endash" unicode="&#x2013;" horiz-adv-x="560" d="M53 221 L503 221 L522 292 L72 292 L53 221 Z " />
<glyph glyph-name="emdash" unicode="&#x2014;" horiz-adv-x="810" d="M53 221 L753 221 L772 292 L72 292 L53 221 Z " />
<glyph glyph-name="quoteleft" unicode="&#x2018;" horiz-adv-x="277" d="M323 683 C132 626 91 540 91 468 C91 407 137 363 189 363 C236 363 276 402 276 453 C276 495 241 528 197 532 L191 537 C197 559 228 598 339 645 L323 683 Z " />
<glyph glyph-name="quoteright" unicode="&#x2019;" horiz-adv-x="277" d="M92 354 C283 411 324 497 324 569 C324 630 278 674 226 674 C179 674 139 635 139 584 C139 542 174 509 218 505 L224 500 C218 478 187 439 76 392 L92 354 Z " />
<glyph glyph-name="quotesinglbase" unicode="&#x201a;" horiz-adv-x="287" d="M-39 -157 C152 -100 193 -14 193 58 C193 119 147 163 95 163 C48 163 8 124 8 73 C8 31 43 -2 87 -6 L93 -11 C87 -33 56 -72 -55 -119 L-39 -157 Z " />
<glyph glyph-name="quotedblleft" unicode="&#x201c;" horiz-adv-x="521" d="M567 683 C376 626 335 540 335 468 C335 407 381 363 433 363 C480 363 520 402 520 453 C520 495 485 528 441 532 L435 537 C441 559 472 598 583 645 L567 683 Z M323 683 C132 626 91 540 91 468 C91 407 137 363 189 363 C236 363 276 402 276 453 C276 495 241 528 197 532 L191 537 C197 559 228 598 339 645 L323 683 Z " />
<glyph glyph-name="quotedblright" unicode="&#x201d;" horiz-adv-x="521" d="M92 354 C283 411 324 497 324 569 C324 630 278 674 226 674 C179 674 139 635 139 584 C139 542 174 509 218 505 L224 500 C218 478 187 439 76 392 L92 354 Z M336 354 C527 411 568 497 568 569 C568 630 522 674 470 674 C423 674 383 635 383 584 C383 542 418 509 462 505 L468 500 C462 478 431 439 320 392 L336 354 Z " />
<glyph glyph-name="quotedblbase" unicode="&#x201e;" horiz-adv-x="531" d="M205 -157 C396 -100 437 -14 437 58 C437 119 391 163 339 163 C292 163 252 124 252 73 C252 31 287 -2 331 -6 L337 -11 C331 -33 300 -72 189 -119 L205 -157 Z M-39 -157 C152 -100 193 -14 193 58 C193 119 147 163 95 163 C48 163 8 124 8 73 C8 31 43 -2 87 -6 L93 -11 C87 -33 56 -72 -55 -119 L-39 -157 Z " />
<glyph glyph-name="dagger" unicode="&#x2020;" horiz-adv-x="585" d="M179 -105 L221 -105 L387 275 L365 353 C362 363 361 371 361 378 C361 400 373 411 393 411 C443 411 489 374 531 374 C574 374 607 399 607 438 C607 475 579 497 530 497 C492 497 433 471 376 444 L372 449 L415 532 C442 584 462 629 462 654 C462 686 437 712 400 712 C373 712 351 694 343 665 C337 641 335 608 333 559 L329 455 L322 450 C281 475 218 517 175 517 C124 517 89 488 89 447 C89 411 120 394 148 394 C195 394 241 420 291 420 C304 420 312 413 312 402 C312 393 306 381 293 368 L238 315 L179 -105 Z " />
<glyph glyph-name="daggerdbl" unicode="&#x2021;" horiz-adv-x="585" d="M383 291 L365 353 C362 363 361 371 361 378 C361 400 373 411 393 411 C443 411 489 374 531 374 C574 374 607 399 607 438 C607 475 579 497 530 497 C492 497 433 471 376 444 L372 449 L415 532 C442 585 462 629 462 654 C462 686 437 712 400 712 C373 712 351 694 343 665 C336 641 335 608 333 559 L329 455 L322 450 C281 475 218 517 175 517 C124 517 89 488 89 447 C89 411 120 394 148 394 C195 394 241 420 291 420 C304 420 312 413 312 402 C312 393 306 380 293 368 L239 317 L258 255 C261 245 261 237 261 230 C261 208 249 197 229 197 C179 197 133 234 91 234 C48 234 15 209 15 170 C15 133 43 111 92 111 C130 111 189 137 246 164 L250 159 L207 76 C180 23 160 -21 160 -46 C160 -78 185 -104 222 -104 C249 -104 271 -86 279 -57 C286 -33 287 0 289 49 L293 153 L300 158 C341 133 404 91 447 91 C498 91 533 120 533 161 C533 197 502 214 474 214 C427 214 381 188 331 188 C318 188 310 195 310 206 C310 215 316 228 329 240 L383 291 Z " />
<glyph glyph-name="bullet" unicode="&#x2022;" horiz-adv-x="491" d="M269 171 C351 171 417 237 417 319 C417 401 351 467 269 467 C187 467 121 401 121 319 C121 237 187 171 269 171 L269 171 Z " />
<glyph glyph-name="ellipsis" unicode="&#x2026;" horiz-adv-x="821" d="M100 -16 C149 -16 194 22 194 73 C194 124 151 162 100 162 C51 162 6 124 6 73 C6 22 49 -16 100 -16 L100 -16 Z M367 -16 C416 -16 461 22 461 73 C461 124 418 162 367 162 C318 162 273 124 273 73 C273 22 316 -16 367 -16 L367 -16 Z M634 -16 C683 -16 728 22 728 73 C728 124 685 162 634 162 C585 162 540 124 540 73 C540 22 583 -16 634 -16 L634 -16 Z " />
<glyph glyph-name="guilsinglleft" unicode="&#x2039;" horiz-adv-x="310" d="M172 32 L213 57 L153 226 L307 384 L276 420 L79 290 C51 271 29 248 29 232 C29 218 34 202 50 182 L172 32 Z " />
<glyph glyph-name="guilsinglright" unicode="&#x203a;" horiz-adv-x="310" d="M31 32 L228 162 C256 181 278 204 278 220 C278 234 273 250 257 270 L135 420 L94 395 L154 226 L0 68 L31 32 Z " />
<glyph glyph-name="fraction" unicode="&#x2044;" horiz-adv-x="540" d="M-112 -82 L-25 -82 L312 282 L653 646 L567 646 L230 282 L-112 -82 Z " />
<glyph glyph-name="Euro" unicode="&#x20ac;" horiz-adv-x="645" d="M428 219 L441 269 L288 269 C291 293 295 318 301 344 L461 344 L474 394 L315 394 C350 500 416 593 506 593 C535 593 555 583 570 568 C530 552 513 517 513 486 C513 440 547 412 593 412 C649 412 685 456 685 506 C685 581 611 642 491 642 C300 642 184 520 133 394 L57 394 L44 344 L116 344 C109 318 104 293 102 269 L24 269 L11 219 L101 219 C109 79 196 -16 357 -16 C464 -16 539 24 614 111 L578 142 C511 76 471 59 419 59 C334 59 286 115 286 219 L428 219 Z " />
<glyph glyph-name="published" unicode="&#x2117;" horiz-adv-x="791" d="M222 153 L420 153 L430 188 C383 190 379 197 385 217 L406 293 L456 293 C565 293 627 353 627 413 C627 468 590 515 480 515 L318 515 L308 480 C351 479 354 474 348 453 L285 215 C280 198 269 189 232 188 L222 153 Z M415 332 L454 476 L465 476 C507 476 529 466 529 432 C529 377 500 332 448 332 L415 332 Z M380 -32 C614 -32 774 158 774 380 C774 561 648 690 458 690 C224 690 64 500 64 278 C64 97 190 -32 380 -32 L380 -32 Z M388 13 C229 13 120 121 120 277 C120 475 250 645 450 645 C609 645 717 537 717 381 C717 183 588 13 388 13 L388 13 Z " />
<glyph glyph-name="servicemark" unicode="&#x2120;" horiz-adv-x="829" d="M106 350 L135 350 L156 374 C182 360 211 352 246 352 C330 352 377 401 377 461 C377 506 352 524 296 547 C246 568 235 579 235 595 C235 620 256 633 277 633 C317 633 340 600 357 560 L384 560 L411 666 L383 666 L362 642 C342 653 317 664 282 664 C210 664 158 623 158 562 C158 515 194 494 251 472 C291 457 304 445 304 425 C304 404 288 383 256 383 C206 383 180 417 162 470 L135 470 L106 350 Z M394 392 L386 361 L518 361 L526 392 C488 397 493 406 505 450 L544 598 L560 598 L575 361 L635 361 L773 598 L793 598 L745 419 C740 400 728 393 702 392 L694 361 L863 361 L871 392 C837 393 825 399 830 418 L879 600 C884 619 900 626 934 627 L942 658 L763 658 L654 469 L647 469 L642 658 L465 658 L457 627 C496 626 504 605 500 589 L463 450 C451 406 438 396 394 392 L394 392 Z " />
<glyph glyph-name="trademark" unicode="&#x2122;" horiz-adv-x="917" d="M426 361 L558 361 L566 392 C528 397 533 406 545 450 L584 598 L600 598 L615 361 L675 361 L813 598 L833 598 L785 419 C780 400 768 393 742 392 L734 361 L903 361 L911 392 C877 393 865 399 870 418 L919 600 C924 619 940 626 974 627 L982 658 L803 658 L694 469 L687 469 L682 658 L505 658 L497 627 C536 626 544 605 540 589 L503 450 C491 406 478 396 434 392 L426 361 Z M133 361 L324 361 L332 392 C287 393 281 403 285 416 L342 626 L350 626 C385 626 397 586 402 535 L433 536 L463 658 L150 658 L116 536 L145 535 C183 589 216 626 249 626 L257 626 L200 416 C196 403 185 393 141 392 L133 361 Z " />
<glyph glyph-name="minus" unicode="&#x2212;" horiz-adv-x="541" d="M499 269 L520 347 L83 347 L62 269 L499 269 Z " />
<glyph glyph-name="f_f" unicode="&#xfb00;" horiz-adv-x="673" d="M413 703 C286 703 208 658 169 476 L166 462 L54 462 L40 404 L154 404 L58 -24 C33 -134 -8 -163 -36 -163 C-43 -163 -51 -162 -60 -160 C-41 -148 -29 -122 -29 -100 C-29 -63 -56 -30 -98 -30 C-141 -30 -178 -65 -178 -109 C-178 -167 -132 -208 -38 -208 C33 -208 86 -186 129 -140 C143 -181 187 -208 264 -208 C416 -208 489 -108 540 120 L603 404 L728 404 L742 462 L615 462 L632 541 C651 629 679 658 720 658 C737 658 747 652 754 644 C739 631 726 612 726 586 C726 547 751 519 797 519 C839 519 870 546 870 596 C870 660 810 703 713 703 C646 703 593 689 552 650 C527 683 478 703 413 703 L413 703 Z M238 120 L301 404 L456 404 L360 -24 C335 -134 294 -163 266 -163 C259 -163 251 -162 242 -160 C261 -148 273 -122 273 -100 C273 -63 246 -30 204 -30 L193 -30 C210 11 225 61 238 120 L238 120 Z M468 462 L313 462 L330 540 C349 629 378 658 419 658 C437 658 448 652 455 644 C439 631 426 612 426 586 C426 551 445 526 482 520 C478 506 474 492 471 476 L468 462 Z " />
<glyph glyph-name="fi" unicode="&#xfb01;" horiz-adv-x="645" d="M301 404 L452 404 L362 129 C356 111 353 94 353 79 C353 25 392 -8 478 -8 C527 -8 572 4 595 12 L595 53 C529 52 503 57 503 87 C503 95 505 108 511 127 L621 466 L446 462 L313 462 L326 521 C350 630 392 658 443 658 C468 658 486 651 496 643 C480 629 467 609 467 582 C467 541 493 512 541 512 C585 512 618 541 618 589 C618 647 566 703 436 703 C300 703 201 640 167 467 L166 462 L54 462 L40 404 L154 404 L58 -24 C33 -134 -8 -163 -36 -163 C-43 -163 -51 -162 -60 -160 C-41 -148 -29 -122 -29 -100 C-29 -63 -56 -30 -98 -30 C-141 -30 -178 -65 -178 -109 C-178 -167 -132 -208 -38 -208 C114 -208 187 -108 238 120 L301 404 Z " />
<glyph glyph-name="fl" unicode="&#xfb02;" horiz-adv-x="645" d="M301 404 L446 404 L366 139 C360 118 356 99 356 82 C356 24 397 -8 482 -8 C531 -8 576 4 599 12 L599 53 C532 52 507 57 507 87 C507 97 510 110 515 127 L675 686 L656 699 L525 677 C498 694 460 703 415 703 C287 703 206 653 169 475 L166 462 L54 462 L40 404 L154 404 L58 -24 C33 -134 -8 -163 -36 -163 C-43 -163 -51 -162 -60 -160 C-41 -148 -29 -122 -29 -100 C-29 -63 -56 -30 -98 -30 C-141 -30 -178 -65 -178 -109 C-178 -167 -132 -208 -38 -208 C114 -208 187 -108 238 120 L301 404 Z M463 462 L313 462 L329 538 C349 629 379 658 422 658 C440 658 453 651 460 643 C444 630 431 611 431 585 C431 553 447 529 478 521 L463 462 Z " />
<glyph glyph-name="f_f_i" unicode="&#xfb03;" horiz-adv-x="947" d="M738 703 C671 703 607 687 557 643 C535 680 483 703 413 703 C286 703 208 658 169 476 L166 462 L54 462 L40 404 L154 404 L58 -24 C33 -134 -8 -163 -36 -163 C-43 -163 -51 -162 -60 -160 C-41 -148 -29 -122 -29 -100 C-29 -63 -56 -30 -98 -30 C-141 -30 -178 -65 -178 -109 C-178 -167 -132 -208 -38 -208 C33 -208 86 -186 129 -140 C143 -181 187 -208 264 -208 C416 -208 489 -108 540 120 L603 404 L754 404 L664 129 C658 111 655 94 655 79 C655 25 694 -8 780 -8 C829 -8 874 4 897 12 L897 53 C831 52 805 57 805 87 C805 95 807 108 813 127 L923 466 L748 462 L615 462 L628 521 C652 630 694 658 745 658 C770 658 788 651 798 643 C782 629 769 609 769 582 C769 541 795 512 843 512 C887 512 920 541 920 589 C920 647 868 703 738 703 L738 703 Z M238 120 L301 404 L456 404 L360 -24 C335 -134 294 -163 266 -163 C259 -163 251 -162 242 -160 C261 -148 273 -122 273 -100 C273 -63 246 -30 204 -30 L193 -30 C210 11 225 61 238 120 L238 120 Z M471 476 L468 462 L313 462 L330 540 C349 629 378 658 419 658 C437 658 448 652 455 644 C439 631 426 612 426 586 C426 551 445 525 482 520 C478 506 474 491 471 476 L471 476 Z " />
<glyph glyph-name="f_f_l" unicode="&#xfb04;" horiz-adv-x="947" d="M166 462 L54 462 L40 404 L154 404 L58 -24 C33 -134 -8 -163 -36 -163 C-43 -163 -51 -162 -60 -160 C-41 -148 -29 -122 -29 -100 C-29 -63 -56 -30 -98 -30 C-141 -30 -178 -65 -178 -109 C-178 -167 -132 -208 -38 -208 C33 -208 86 -186 129 -140 C143 -181 187 -208 264 -208 C416 -208 489 -108 540 120 L603 404 L748 404 L668 139 C662 118 658 99 658 82 C658 24 699 -8 784 -8 C833 -8 878 4 901 12 L901 53 C834 52 809 57 809 87 C809 97 812 110 817 127 L977 686 L958 699 L827 677 C800 694 762 703 717 703 C650 703 595 689 553 649 C529 682 479 703 413 703 C286 703 208 658 169 476 L166 462 Z M238 120 L301 404 L456 404 L360 -24 C335 -134 294 -163 266 -163 C259 -163 251 -162 242 -160 C261 -148 273 -122 273 -100 C273 -63 246 -30 204 -30 L193 -30 C210 11 225 61 238 120 L238 120 Z M765 462 L615 462 L631 538 C651 629 681 658 724 658 C742 658 755 651 762 643 C746 630 733 611 733 585 C733 553 749 529 780 521 L765 462 Z M471 476 L468 462 L313 462 L330 540 C349 629 378 658 419 658 C437 658 448 652 455 644 C439 631 426 612 426 586 C426 551 445 526 482 520 C478 506 474 492 471 476 L471 476 Z " />
</font>
</svg>
