<?xml version="1.0" encoding="UTF-8"?>
<svg xmlns="http://www.w3.org/2000/svg" xmlns:xlink="http://www.w3.org/1999/xlink" version="1.2" >
<font id="Chronicle Text G2 Bold">
<font-face  font-family="Chronicle Text G2" units-per-em="1000" ascent="800" descent="-200" font-style="normal" font-weight="400" font-stretch="normal" cap-height="658" x-height="464" underline-position="-75" underline-thickness="50" />
<missing-glyph  horiz-adv-x="500" d="M0 -200 L500 -200 L500 800 L0 800 L0 -200 Z M71 750 L429 750 L250 360 L71 750 Z M50 -76 L50 676 L222 300 L50 -76 Z M450 676 L450 -76 L278 300 L450 676 Z M250 240 L429 -150 L71 -150 L250 240 Z " />
<glyph glyph-name="NULL" horiz-adv-x="1000" d="" />
<glyph glyph-name="CR" unicode="&#xd;" horiz-adv-x="250" d="" />
<glyph glyph-name="space" unicode="&#x20;" horiz-adv-x="210" d="" />
<glyph glyph-name="exclam" unicode="&#x21;" horiz-adv-x="307" d="M131 220 L176 220 C203 367 248 509 248 575 C248 643 214 684 154 684 C93 684 59 643 59 575 C59 509 104 367 131 220 L131 220 Z M154 -16 C203 -16 248 22 248 73 C248 124 205 162 154 162 C105 162 60 124 60 73 C60 22 103 -16 154 -16 L154 -16 Z " />
<glyph glyph-name="quotedbl" unicode="&#x22;" horiz-adv-x="467" d="M312 372 L367 457 C409 523 432 561 436 573 C440 583 441 593 441 602 C441 642 407 668 372 668 C348 668 325 655 313 622 C309 610 299 569 282 492 L260 393 L312 372 Z M105 372 L160 457 C202 523 225 561 229 573 C233 583 234 593 234 602 C234 642 200 668 165 668 C141 668 118 655 106 622 C102 610 92 569 75 492 L53 393 L105 372 Z " />
<glyph glyph-name="numbersign" unicode="&#x23;" horiz-adv-x="676" d="M326 675 L259 675 L223 478 L79 478 L79 415 L211 415 L175 220 L36 220 L36 157 L164 157 L128 -40 L195 -40 L231 157 L393 157 L357 -40 L424 -40 L460 157 L604 157 L604 220 L471 220 L507 415 L647 415 L647 478 L519 478 L555 675 L488 675 L452 478 L290 478 L326 675 Z M278 415 L440 415 L404 220 L242 220 L278 415 Z " />
<glyph glyph-name="dollar" unicode="&#x24;" horiz-adv-x="568" d="M257 -71 L327 -71 L327 9 C484 22 532 123 532 202 C532 300 446 351 335 384 L333 384 L333 576 C380 571 408 558 427 542 C406 530 395 511 395 485 C395 451 415 421 461 421 C501 421 522 451 522 493 C522 553 452 608 337 619 L337 690 L267 690 L267 620 C138 611 58 534 58 436 C58 325 163 278 261 248 L261 52 C198 57 150 74 135 90 C161 103 177 126 177 155 C177 190 151 218 110 218 C62 218 40 182 40 143 C40 65 136 17 257 9 L257 -71 Z M419 138 C419 91 392 57 323 51 L323 228 C389 203 419 178 419 138 L419 138 Z M179 493 C179 539 210 573 271 578 L271 405 C214 426 179 451 179 493 L179 493 Z " />
<glyph glyph-name="percent" unicode="&#x25;" horiz-adv-x="846" d="M259 640 C134 640 31 517 31 403 C31 326 77 264 168 264 C305 264 379 438 379 519 L379 520 C393 517 408 516 421 516 C484 516 527 531 576 566 L585 560 L124 -26 L210 -26 L705 654 L627 654 C579 594 511 569 454 569 C412 569 385 576 359 592 C339 623 304 640 259 640 L259 640 Z M593 -14 C730 -14 804 160 804 241 C804 316 756 360 683 360 C558 360 456 239 456 125 C456 48 502 -14 593 -14 L593 -14 Z M616 33 C576 33 560 56 560 98 C560 174 619 304 704 304 C733 304 753 283 753 244 C753 162 689 33 616 33 L616 33 Z M328 522 C328 440 264 311 191 311 C151 311 135 334 135 376 C135 442 180 550 247 577 C271 558 299 543 327 533 C328 529 328 526 328 522 L328 522 Z " />
<glyph glyph-name="ampersand" unicode="&#x26;" horiz-adv-x="769" d="M342 385 C282 436 261 466 261 508 C261 553 290 586 324 586 C365 586 393 557 393 502 C393 447 375 415 342 385 L342 385 Z M238 286 C303 230 352 171 391 108 C361 79 333 67 298 67 C234 67 187 106 187 178 C187 221 206 256 238 286 L238 286 Z M488 235 C456 283 419 320 371 360 C465 389 516 434 516 498 C516 567 455 633 334 633 C210 633 124 561 124 465 C124 408 149 376 205 314 C91 280 32 216 32 137 C32 55 94 -16 232 -16 C308 -16 365 20 411 75 C447 15 487 -16 576 -16 C627 -16 674 5 744 66 L716 104 C686 79 672 69 642 69 C604 69 563 105 512 200 C539 252 566 282 587 297 L591 293 C590 290 590 287 590 285 C590 249 623 214 664 214 C705 214 738 247 738 288 C738 329 705 373 641 373 C583 373 533 324 488 235 L488 235 Z " />
<glyph glyph-name="quotesingle" unicode="&#x27;" horiz-adv-x="260" d="M105 372 L160 457 C202 523 225 561 229 573 C233 583 234 593 234 602 C234 642 200 668 165 668 C141 668 118 655 106 622 C102 610 92 569 75 492 L53 393 L105 372 Z " />
<glyph glyph-name="parenleft" unicode="&#x28;" horiz-adv-x="381" d="M372 -157 L391 -121 C273 -37 218 63 218 282 C218 500 273 601 391 685 L372 721 C193 663 41 501 41 282 C41 63 193 -99 372 -157 L372 -157 Z " />
<glyph glyph-name="parenright" unicode="&#x29;" horiz-adv-x="381" d="M9 -157 C188 -99 340 63 340 282 C340 501 188 663 9 721 L-10 685 C108 601 163 501 163 282 C163 64 108 -37 -10 -121 L9 -157 Z " />
<glyph glyph-name="asterisk" unicode="&#x2a;" horiz-adv-x="437" d="M282 332 C304 339 321 366 311 396 C304 418 307 415 242 486 L255 503 C340 465 337 466 361 466 C392 466 413 490 413 513 C413 536 392 560 361 560 C337 560 340 561 255 523 L242 540 C307 611 304 608 311 630 C321 660 304 687 282 694 C260 701 231 689 222 659 C215 636 215 655 225 545 L203 540 C146 632 159 617 139 632 C114 651 83 643 69 625 C55 607 59 574 84 556 C103 542 100 545 192 523 L192 502 C100 482 103 483 84 470 C59 452 56 420 69 401 C82 382 114 375 139 394 C159 409 154 406 203 486 L225 481 C216 386 215 390 222 367 C231 337 260 325 282 332 L282 332 Z " />
<glyph glyph-name="plus" unicode="&#x2b;" horiz-adv-x="547" d="M52 269 L232 269 L232 86 L315 86 L315 269 L495 269 L495 347 L315 347 L315 530 L232 530 L232 347 L52 347 L52 269 Z " />
<glyph glyph-name="comma" unicode="&#x2c;" horiz-adv-x="278" d="M63 -158 C178 -116 233 -44 233 49 C233 122 186 163 132 163 C85 163 45 125 45 79 C45 27 84 -5 123 -5 C128 -5 134 -4 139 -3 L145 -8 C140 -39 117 -80 41 -119 L63 -158 Z " />
<glyph glyph-name="hyphen" unicode="&#x2d;" horiz-adv-x="366" d="M45 216 L321 216 L321 303 L45 303 L45 216 Z " />
<glyph glyph-name="period" unicode="&#x2e;" horiz-adv-x="278" d="M139 -16 C188 -16 233 22 233 73 C233 124 190 162 139 162 C90 162 45 124 45 73 C45 22 88 -16 139 -16 L139 -16 Z " />
<glyph glyph-name="slash" unicode="&#x2f;" horiz-adv-x="431" d="M-10 -203 L70 -203 L258 250 L450 704 L370 704 L182 250 L-10 -203 Z " />
<glyph glyph-name="zero" unicode="0" horiz-adv-x="636" d="M318 -16 C497 -16 603 126 603 314 C603 505 502 642 318 642 C139 642 33 500 33 312 C33 121 134 -16 318 -16 L318 -16 Z M323 34 C242 34 217 119 217 314 C217 507 232 592 313 592 C394 592 419 507 419 312 C419 119 404 34 323 34 L323 34 Z " />
<glyph glyph-name="one" unicode="1" horiz-adv-x="462" d="M43 0 L441 0 L441 45 C355 48 328 58 328 89 L328 628 L38 608 L38 564 C135 566 155 541 155 484 L155 89 C155 58 128 48 43 45 L43 0 Z " />
<glyph glyph-name="two" unicode="2" horiz-adv-x="592" d="M49 0 L539 0 L544 219 L503 221 C478 147 461 123 389 123 L178 123 L178 137 L354 229 C504 307 542 383 542 461 C542 565 462 642 299 642 C162 642 56 579 56 467 C56 407 95 364 152 364 C211 364 242 409 242 457 C242 503 210 536 164 546 C181 570 221 588 267 588 C342 588 381 542 381 467 C381 372 341 333 193 220 L49 109 L49 0 Z " />
<glyph glyph-name="three" unicode="3" horiz-adv-x="587" d="M274 -16 C459 -16 551 70 551 167 C551 259 477 309 348 317 L348 324 C472 342 538 401 538 479 C538 577 445 642 292 642 C169 642 60 581 60 488 C60 438 96 400 147 400 C203 400 229 439 229 485 C229 521 204 551 180 564 C198 579 230 593 264 593 C353 593 374 536 374 474 C374 386 339 344 233 344 L212 344 L212 290 L238 290 C339 290 385 245 385 166 C385 88 345 33 264 33 C218 33 182 49 165 62 C188 73 215 98 215 142 C215 187 182 228 128 228 C72 228 40 184 40 133 C40 44 123 -16 274 -16 L274 -16 Z " />
<glyph glyph-name="four" unicode="4" horiz-adv-x="609" d="M592 184 L592 266 L472 266 L472 624 L324 624 L22 250 L22 184 L311 184 L311 89 C311 58 294 48 219 45 L219 0 L550 0 L550 45 C501 48 472 56 472 89 L472 184 L592 184 Z M297 491 L311 491 L311 266 L118 266 L297 491 Z " />
<glyph glyph-name="five" unicode="5" horiz-adv-x="567" d="M279 -15 C453 -15 529 96 529 193 C529 292 458 381 289 381 C227 381 183 370 141 351 L148 493 L489 493 L499 626 L83 626 L70 312 L104 285 C146 308 184 324 241 324 C324 324 368 272 368 184 C368 89 331 34 242 34 C212 34 170 45 157 55 C183 68 205 100 205 134 C205 180 177 220 122 220 C64 220 30 181 30 131 C30 47 113 -15 279 -15 L279 -15 Z " />
<glyph glyph-name="six" unicode="6" horiz-adv-x="598" d="M306 -15 C484 -15 562 101 562 227 C562 337 492 418 368 418 C310 418 248 392 212 342 L204 345 C229 499 355 567 516 599 L516 643 C332 627 215 580 146 510 C75 439 38 354 38 248 C38 102 124 -15 306 -15 L306 -15 Z M307 36 C249 36 208 83 208 189 C208 313 254 349 308 349 C371 349 396 309 396 208 C396 101 367 36 307 36 L307 36 Z " />
<glyph glyph-name="seven" unicode="7" horiz-adv-x="557" d="M105 -9 L240 -9 L367 246 L542 556 L542 626 L61 626 L55 392 L97 392 C115 468 133 488 221 488 L438 488 L105 30 L105 -9 Z " />
<glyph glyph-name="eight" unicode="8" horiz-adv-x="598" d="M40 145 C40 49 126 -17 306 -17 C452 -17 557 69 557 181 C557 271 489 322 412 355 C489 384 537 427 537 490 C537 570 455 642 304 642 C149 642 59 558 59 445 C59 373 105 324 164 290 C88 260 40 213 40 145 L40 145 Z M253 251 C371 212 410 179 410 126 C410 66 366 32 305 32 C229 32 176 94 176 158 C176 202 193 235 219 263 C230 258 242 254 253 251 L253 251 Z M201 510 C201 567 249 593 290 593 C368 593 406 546 406 490 C406 446 393 412 360 375 C278 405 201 439 201 510 L201 510 Z " />
<glyph glyph-name="nine" unicode="9" horiz-adv-x="598" d="M92 -16 C275 -1 392 47 462 117 C533 188 570 269 570 369 C570 525 498 642 312 642 C134 642 46 545 46 409 C46 300 116 207 251 207 C317 207 370 241 396 285 L404 282 C380 129 252 59 92 28 L92 -16 Z M304 275 C242 275 212 312 212 413 C212 530 242 590 307 590 C364 590 400 534 400 442 C400 326 361 275 304 275 L304 275 Z " />
<glyph glyph-name="colon" unicode="&#x3a;" horiz-adv-x="298" d="M149 262 C198 262 243 300 243 351 C243 402 200 440 149 440 C100 440 55 402 55 351 C55 300 98 262 149 262 L149 262 Z M149 -16 C198 -16 243 22 243 73 C243 124 200 162 149 162 C100 162 55 124 55 73 C55 22 98 -16 149 -16 L149 -16 Z " />
<glyph glyph-name="semicolon" unicode="&#x3b;" horiz-adv-x="298" d="M151 262 C200 262 245 300 245 351 C245 402 202 440 151 440 C102 440 57 402 57 351 C57 300 100 262 151 262 L151 262 Z M71 -158 C186 -116 241 -44 241 49 C241 122 194 163 140 163 C93 163 53 125 53 79 C53 27 92 -5 131 -5 C136 -5 142 -4 147 -3 L153 -8 C148 -39 125 -80 49 -119 L71 -158 Z " />
<glyph glyph-name="less" unicode="&#x3c;" horiz-adv-x="529" d="M72 278 L457 80 L457 164 L165 310 L457 456 L457 540 L72 342 L72 278 Z " />
<glyph glyph-name="equal" unicode="&#x3d;" horiz-adv-x="549" d="M56 171 L493 171 L493 249 L56 249 L56 171 Z M56 369 L493 369 L493 447 L56 447 L56 369 Z " />
<glyph glyph-name="greater" unicode="&#x3e;" horiz-adv-x="529" d="M457 278 L457 342 L72 540 L72 456 L364 310 L72 164 L72 80 L457 278 Z " />
<glyph glyph-name="question" unicode="&#x3f;" horiz-adv-x="528" d="M211 230 L274 230 L274 296 C434 328 506 389 506 499 C506 595 439 684 251 684 C105 684 10 602 10 514 C10 461 49 413 106 413 C164 413 194 458 194 500 C194 536 171 577 136 589 C146 614 189 635 235 635 C293 635 339 591 339 505 C339 428 312 364 208 339 L211 230 Z M241 -16 C290 -16 335 22 335 73 C335 124 292 162 241 162 C192 162 147 124 147 73 C147 22 190 -16 241 -16 L241 -16 Z " />
<glyph glyph-name="at" unicode="&#x40;" horiz-adv-x="916" d="M479 -145 C597 -145 681 -109 764 -49 L734 -5 C659 -59 588 -93 484 -93 C259 -93 113 64 113 266 C113 468 262 632 491 632 C672 632 803 518 803 351 C803 212 706 122 640 122 C603 122 587 143 607 202 L645 333 L697 472 L566 465 L553 420 L540 420 C526 451 500 477 454 477 C321 477 228 343 228 214 C228 127 274 70 341 70 C388 70 431 90 466 136 L477 133 C483 79 529 59 614 59 C734 59 865 167 865 355 C865 557 700 685 496 685 C235 685 51 506 51 262 C51 16 237 -145 479 -145 L479 -145 Z M412 148 C383 148 361 170 361 220 C361 277 402 417 481 417 C507 417 520 401 533 383 L469 171 C445 152 433 148 412 148 L412 148 Z " />
<glyph glyph-name="A" unicode="A" horiz-adv-x="707" d="M439 113 C454 69 438 50 346 45 L346 0 L720 0 L720 45 C652 58 638 70 623 110 L424 668 L289 668 L97 166 C64 81 49 61 -13 45 L-13 0 L228 0 L228 45 C150 58 138 72 168 153 L198 235 L399 235 L439 113 Z M215 283 L298 511 L308 511 L383 283 L215 283 Z " />
<glyph glyph-name="B" unicode="B" horiz-adv-x="691" d="M29 0 L381 0 C599 0 656 85 656 191 C656 272 596 341 454 348 L454 352 C579 371 636 429 636 501 C636 573 591 658 372 658 L29 658 L29 613 C103 610 113 601 113 570 L113 88 C113 57 103 48 29 45 L29 0 Z M294 368 L294 610 L345 610 C430 610 458 573 458 492 C458 407 430 368 348 368 L294 368 Z M294 48 L294 320 L348 320 C442 320 476 275 476 195 C476 107 462 48 359 48 L294 48 Z " />
<glyph glyph-name="C" unicode="C" horiz-adv-x="701" d="M373 -16 C514 -16 608 59 659 180 L615 201 C560 94 493 56 419 56 C322 56 229 151 229 353 C229 535 304 624 394 624 C470 624 539 547 577 418 L638 418 L638 676 L588 676 L559 633 C513 658 446 674 390 674 C186 674 35 527 35 324 C35 133 145 -16 373 -16 L373 -16 Z " />
<glyph glyph-name="D" unicode="D" horiz-adv-x="750" d="M29 0 L374 0 C626 0 715 160 715 342 C715 531 601 658 355 658 L29 658 L29 613 C103 610 113 601 113 570 L113 88 C113 57 103 48 29 45 L29 0 Z M294 48 L294 610 L338 610 C460 610 525 553 525 329 C525 104 474 48 347 48 L294 48 Z " />
<glyph glyph-name="E" unicode="E" horiz-adv-x="693" d="M29 0 L635 0 L645 254 L591 256 C545 128 505 49 359 49 L294 49 L294 308 L309 308 C373 308 395 296 430 207 L475 207 L475 454 L430 454 C395 365 373 356 309 356 L294 356 L294 610 L369 610 C491 610 529 533 568 420 L622 422 L613 658 L29 658 L29 613 C103 610 113 601 113 570 L113 88 C113 57 103 48 29 45 L29 0 Z " />
<glyph glyph-name="F" unicode="F" horiz-adv-x="650" d="M29 0 L384 0 L384 43 C295 46 294 55 294 88 L294 300 L311 300 C375 300 395 288 430 199 L475 199 L475 438 L430 438 C397 355 375 348 311 348 L294 348 L294 610 L349 610 C471 610 517 540 559 420 L613 422 L613 658 L29 658 L29 613 C103 610 113 601 113 570 L113 88 C113 57 103 48 29 45 L29 0 Z " />
<glyph glyph-name="G" unicode="G" horiz-adv-x="726" d="M372 -16 C503 -16 594 24 651 55 L651 237 C651 270 670 277 719 280 L719 325 L376 325 L376 280 C454 277 481 266 481 235 L481 57 C458 40 428 34 395 34 C294 34 229 114 229 329 C229 543 296 624 387 624 C482 624 541 548 584 440 L638 440 L638 678 L587 678 L560 642 C527 657 468 674 393 674 C180 674 35 538 35 327 C35 115 163 -16 372 -16 L372 -16 Z " />
<glyph glyph-name="H" unicode="H" horiz-adv-x="807" d="M29 0 L372 0 L372 45 C323 48 294 55 294 88 L294 316 L513 316 L513 88 C513 55 484 48 435 45 L435 0 L778 0 L778 45 C704 48 694 57 694 88 L694 570 C694 601 704 610 778 613 L778 658 L435 658 L435 613 C484 610 513 603 513 570 L513 367 L294 367 L294 570 C294 603 323 610 372 613 L372 658 L29 658 L29 613 C103 610 113 601 113 570 L113 88 C113 57 103 48 29 45 L29 0 Z " />
<glyph glyph-name="I" unicode="I" horiz-adv-x="427" d="M37 0 L390 0 L390 45 C316 48 304 57 304 88 L304 570 C304 601 316 610 390 613 L390 658 L37 658 L37 613 C111 610 123 601 123 570 L123 88 C123 57 111 48 37 45 L37 0 Z " />
<glyph glyph-name="J" unicode="J" horiz-adv-x="614" d="M252 -16 C413 -16 504 53 504 217 L504 570 C504 601 514 610 588 613 L588 658 L239 658 L239 613 C313 610 323 601 323 570 L323 164 C323 86 297 46 242 46 C213 46 200 52 183 65 C217 91 230 111 230 156 C230 206 188 249 134 249 C75 249 26 204 26 137 C26 39 117 -16 252 -16 L252 -16 Z " />
<glyph glyph-name="K" unicode="K" horiz-adv-x="764" d="M294 322 L294 570 C294 603 323 610 372 613 L372 658 L29 658 L29 613 C103 610 113 601 113 570 L113 88 C113 57 103 48 29 45 L29 0 L355 0 L355 43 C309 47 294 53 294 86 L294 249 L345 299 L468 113 C501 62 491 47 437 43 L437 0 L763 0 L763 45 C707 55 694 74 651 137 L462 414 L538 489 C644 593 665 601 745 613 L745 658 L463 658 L463 615 C530 609 533 572 482 519 L294 322 Z " />
<glyph glyph-name="L" unicode="L" horiz-adv-x="645" d="M29 0 L614 0 L618 268 L564 270 C513 133 469 49 323 49 L294 49 L294 570 C294 601 306 610 380 613 L380 658 L29 658 L29 613 C103 610 113 601 113 570 L113 88 C113 57 103 48 29 45 L29 0 Z " />
<glyph glyph-name="M" unicode="M" horiz-adv-x="975" d="M34 0 L292 0 L292 45 C199 57 192 99 192 196 L192 549 L202 549 L405 0 L484 0 L673 549 L683 549 L683 88 C683 55 654 48 605 45 L605 0 L946 0 L946 45 C872 48 862 57 862 88 L862 570 C862 601 872 610 946 613 L946 658 L646 658 L508 231 L498 231 L350 658 L34 658 L34 613 C115 611 134 565 134 528 L134 196 C134 98 123 55 34 45 L34 0 Z " />
<glyph glyph-name="N" unicode="N" horiz-adv-x="778" d="M576 -6 L677 -6 L677 462 C677 558 681 602 770 613 L770 658 L503 658 L503 613 C598 604 619 558 619 462 L619 227 L613 227 L270 658 L34 658 L34 613 C115 611 134 571 134 518 L134 196 C134 98 123 55 34 45 L34 0 L300 0 L300 45 C204 54 192 99 192 196 L192 468 L198 468 L576 -6 Z " />
<glyph glyph-name="O" unicode="O" horiz-adv-x="744" d="M372 -16 C576 -16 709 119 709 331 C709 542 581 674 372 674 C168 674 35 538 35 327 C35 115 163 -16 372 -16 L372 -16 Z M376 34 C270 34 229 114 229 329 C229 543 262 624 368 624 C474 624 515 543 515 329 C515 114 482 34 376 34 L376 34 Z " />
<glyph glyph-name="P" unicode="P" horiz-adv-x="665" d="M29 0 L384 0 L384 43 C295 46 294 55 294 88 L294 269 L358 269 C562 269 645 364 645 465 C645 573 568 658 358 658 L29 658 L29 613 C103 610 113 601 113 570 L113 88 C113 57 103 48 29 45 L29 0 Z M294 317 L294 610 L343 610 C428 610 460 557 460 462 C460 354 431 317 340 317 L294 317 Z " />
<glyph glyph-name="Q" unicode="Q" horiz-adv-x="744" d="M376 34 C270 34 229 114 229 329 C229 543 262 624 368 624 C474 624 515 543 515 329 C515 114 482 34 376 34 L376 34 Z M434 -11 C597 15 709 142 709 331 C709 542 581 674 372 674 C168 674 35 538 35 327 C35 142 132 19 296 -10 C230 -31 170 -79 130 -139 L157 -168 C203 -118 245 -84 299 -84 C372 -84 403 -230 546 -230 C666 -230 745 -172 745 -75 C745 -29 715 10 668 10 C625 10 592 -23 592 -67 C592 -108 638 -123 638 -147 C638 -162 631 -173 611 -173 C549 -173 518 -53 434 -11 L434 -11 Z " />
<glyph glyph-name="R" unicode="R" horiz-adv-x="713" d="M294 352 L294 610 L327 610 C430 610 458 567 458 485 C458 385 437 352 334 352 L294 352 Z M294 306 L319 306 C422 306 443 286 447 190 L453 113 C459 34 481 -4 627 -4 C657 -4 690 -3 729 0 L729 45 C658 49 648 59 641 126 L633 198 C625 274 586 329 446 330 L446 333 C598 356 643 418 643 498 C643 581 584 658 384 658 L29 658 L29 613 C103 610 113 601 113 570 L113 88 C113 57 103 48 29 45 L29 0 L372 0 L372 45 C323 48 294 55 294 88 L294 306 Z " />
<glyph glyph-name="S" unicode="S" horiz-adv-x="567" d="M49 -20 L100 -20 L127 16 C166 -6 233 -16 287 -16 C460 -16 534 94 534 217 C534 341 431 388 339 416 C225 451 186 472 186 536 C186 587 222 624 276 624 C345 624 401 565 449 470 L503 470 L503 678 L452 678 L425 642 C395 659 339 674 288 674 C145 674 53 585 53 458 C53 335 157 285 268 252 C376 220 412 194 412 130 C412 83 380 34 306 34 C223 34 154 108 103 218 L49 218 L49 -20 Z " />
<glyph glyph-name="T" unicode="T" horiz-adv-x="715" d="M168 0 L547 0 L547 45 C464 47 448 57 448 88 L448 610 L456 610 C529 610 573 543 622 420 L674 422 L669 658 L46 658 L41 422 L93 420 C143 539 186 610 259 610 L267 610 L267 88 C267 57 251 47 168 45 L168 0 Z " />
<glyph glyph-name="U" unicode="U" horiz-adv-x="771" d="M402 -16 C580 -16 663 77 663 230 L663 462 C663 558 667 602 756 613 L756 658 L486 658 L486 613 C581 604 602 558 602 462 L602 247 C602 171 587 128 556 97 C531 72 497 60 454 60 C347 60 294 110 294 227 L294 570 C294 603 323 610 372 613 L372 658 L29 658 L29 613 C103 610 113 601 113 570 L113 232 C113 54 219 -16 402 -16 L402 -16 Z " />
<glyph glyph-name="V" unicode="V" horiz-adv-x="723" d="M294 -6 L436 -6 L624 492 C656 575 665 599 733 613 L733 658 L480 658 L480 613 C574 599 574 578 544 491 L426 150 L416 150 L275 556 C263 590 275 608 362 613 L362 658 L-9 658 L-9 613 C54 601 72 590 88 548 L294 -6 Z " />
<glyph glyph-name="W" unicode="W" horiz-adv-x="1059" d="M511 433 L404 150 L394 150 L278 553 C268 589 268 610 331 613 L331 658 L9 658 L9 613 C67 601 80 590 96 542 L273 -6 L421 -6 L544 330 L650 -6 L798 -6 L956 483 C987 577 1008 595 1081 613 L1081 658 L809 658 L809 613 C891 600 905 574 878 482 L781 148 L771 148 L659 553 C648 588 663 610 734 613 L734 658 L398 658 L398 613 C452 606 459 594 477 542 L511 433 Z " />
<glyph glyph-name="X" unicode="X" horiz-adv-x="715" d="M393 411 L308 551 C283 592 278 612 350 613 L350 658 L4 658 L4 613 C62 606 96 584 123 545 L285 304 L177 175 C101 84 70 57 -1 45 L-1 0 L259 0 L259 45 C187 54 175 73 234 148 L322 260 L416 107 C444 63 446 46 374 45 L374 0 L720 0 L720 45 C657 50 631 69 601 113 L430 368 L527 484 C594 564 631 603 698 613 L698 658 L448 658 L448 613 C521 605 518 573 470 511 L393 411 Z " />
<glyph glyph-name="Y" unicode="Y" horiz-adv-x="705" d="M409 346 L297 551 C275 591 274 609 359 613 L359 658 L-1 658 L-1 613 C60 606 76 592 100 552 L266 273 L266 88 C266 57 254 48 180 45 L180 0 L533 0 L533 45 C459 48 447 57 447 88 L447 295 L583 510 C626 578 646 604 706 613 L706 658 L463 658 L463 613 C542 604 548 577 502 500 L409 346 Z " />
<glyph glyph-name="Z" unicode="Z" horiz-adv-x="659" d="M32 0 L618 0 L626 247 L561 249 C510 127 476 52 378 52 L234 52 L632 608 L632 658 L62 658 L54 425 L117 423 C166 539 199 606 291 606 L430 606 L32 50 L32 0 Z " />
<glyph glyph-name="bracketleft" unicode="&#x5b;" horiz-adv-x="343" d="M62 -156 L365 -156 L365 -114 L211 -114 L211 679 L365 679 L365 721 L62 721 L62 -156 Z " />
<glyph glyph-name="backslash" unicode="&#x5c;" horiz-adv-x="431" d="M361 -203 L441 -203 L249 250 L61 704 L-19 704 L173 250 L361 -203 Z " />
<glyph glyph-name="bracketright" unicode="&#x5d;" horiz-adv-x="343" d="M-22 -156 L281 -156 L281 721 L-22 721 L-22 679 L132 679 L132 -114 L-22 -114 L-22 -156 Z " />
<glyph glyph-name="asciicircum" unicode="&#x5e;" horiz-adv-x="410" d="M25 454 L110 454 L201 596 L301 454 L385 454 L244 717 L165 717 L25 454 Z " />
<glyph glyph-name="underscore" unicode="&#x5f;" horiz-adv-x="460" d="M-2 0 L462 0 L462 61 L-2 61 L-2 0 Z " />
<glyph glyph-name="grave" unicode="&#x60;" horiz-adv-x="268" d="M163 524 L238 524 L186 651 C148 745 136 770 87 770 C58 770 27 741 27 709 C27 672 39 661 98 596 L163 524 Z " />
<glyph glyph-name="a" unicode="a" horiz-adv-x="538" d="M176 -11 C233 -11 285 16 325 55 L329 55 C347 12 365 -10 433 -10 C476 -10 513 5 551 32 L537 64 C482 53 472 60 472 109 L472 291 C472 408 420 469 289 469 C138 469 58 426 58 363 C58 319 86 289 138 289 C190 289 222 321 222 366 C222 387 215 404 209 416 C218 420 233 422 246 422 C295 422 322 401 322 330 L322 268 C281 257 169 260 99 222 C57 199 34 153 34 113 C34 54 76 -11 176 -11 L176 -11 Z M260 67 C221 67 196 96 196 141 C196 198 233 220 322 228 L322 100 C307 81 288 67 260 67 L260 67 Z " />
<glyph glyph-name="b" unicode="b" horiz-adv-x="585" d="M66 -22 L97 -22 L162 34 C207 5 273 -8 311 -8 C467 -8 553 98 553 248 C553 374 493 472 371 472 C310 472 261 448 222 414 L222 697 L-3 685 L-3 644 C59 643 68 625 68 595 L68 76 L66 -22 Z M302 39 C269 39 243 60 222 101 L222 371 C250 390 270 399 291 399 C350 399 390 348 390 233 C390 98 365 39 302 39 L302 39 Z " />
<glyph glyph-name="c" unicode="c" horiz-adv-x="504" d="M275 -11 C373 -11 438 32 485 105 L454 129 C421 84 379 58 328 58 C231 58 192 131 192 235 C192 368 227 430 289 430 C316 430 337 415 343 396 C330 388 314 361 314 338 C314 298 341 267 397 267 C447 267 475 302 475 352 C475 404 431 475 284 475 C137 475 29 384 29 225 C29 75 122 -11 275 -11 L275 -11 Z " />
<glyph glyph-name="d" unicode="d" horiz-adv-x="587" d="M231 -8 C288 -8 330 18 361 56 L361 -7 L581 3 L581 40 C525 40 513 59 513 87 L513 697 L288 685 L288 644 C349 643 359 625 359 595 L359 456 C330 466 305 472 265 472 C110 472 29 353 29 222 C29 86 104 -8 231 -8 L231 -8 Z M288 71 C232 71 191 136 191 238 C191 364 224 419 280 419 C316 419 345 398 359 373 L359 97 C340 79 320 71 288 71 L288 71 Z " />
<glyph glyph-name="e" unicode="e" horiz-adv-x="517" d="M275 -11 C373 -11 438 34 485 108 L454 132 C417 80 372 53 322 53 C232 53 191 121 191 225 L191 226 L191 228 L487 228 C495 369 421 475 274 475 C128 475 29 384 29 225 C29 71 119 -11 275 -11 L275 -11 Z M268 428 C323 428 343 359 333 272 L192 270 C196 370 219 428 268 428 L268 428 Z " />
<glyph glyph-name="f" unicode="f" horiz-adv-x="397" d="M35 0 L349 0 L349 41 C272 44 256 52 256 76 L256 395 L380 395 L380 457 L256 457 L256 526 C256 592 266 629 283 646 C294 657 305 661 319 661 C327 661 336 660 345 656 C340 644 335 619 335 606 C335 552 367 525 411 525 C461 525 488 558 488 603 C488 658 434 703 324 703 C247 703 191 686 154 648 C118 611 102 556 102 483 L102 459 L15 441 L15 393 L102 393 L102 76 C102 52 92 42 35 41 L35 0 Z " />
<glyph glyph-name="g" unicode="g" horiz-adv-x="506" d="M258 -163 C162 -163 105 -131 105 -91 C105 -67 122 -50 153 -40 L237 -40 C369 -40 395 -54 395 -89 C395 -131 346 -163 258 -163 L258 -163 Z M256 203 C205 203 187 237 187 314 C187 391 197 424 247 424 C299 424 316 381 316 314 C316 237 305 203 256 203 L256 203 Z M252 469 C129 469 41 408 41 312 C41 245 80 200 140 176 C74 148 45 118 45 76 C45 41 63 9 126 -15 L126 -20 C47 -32 15 -62 15 -104 C15 -166 108 -208 232 -208 C392 -208 499 -131 499 -40 C499 44 443 85 300 85 L252 85 C156 85 138 99 138 118 C138 135 158 148 200 161 C217 159 234 158 252 158 C374 158 462 219 462 316 C462 373 431 415 383 440 C392 462 404 479 423 488 C423 451 445 435 471 435 C506 435 524 462 524 490 C524 524 501 549 457 549 C400 549 372 505 347 455 C319 464 286 469 252 469 L252 469 Z " />
<glyph glyph-name="h" unicode="h" horiz-adv-x="611" d="M18 0 L289 0 L289 41 C254 42 239 52 239 76 L239 351 C265 364 290 375 320 375 C366 375 382 346 382 297 L382 76 C382 52 367 42 332 41 L332 0 L604 0 L604 41 C546 42 536 52 536 76 L536 320 C536 416 499 469 410 469 C346 469 288 430 239 387 L239 697 L14 685 L14 644 C75 643 85 625 85 595 L85 76 C85 52 74 42 18 41 L18 0 Z " />
<glyph glyph-name="i" unicode="i" horiz-adv-x="335" d="M168 534 C222 534 257 569 257 624 C257 677 222 711 168 711 C115 711 79 675 79 620 C79 565 115 534 168 534 L168 534 Z M21 0 L314 0 L314 41 C256 42 247 52 247 76 L247 466 L21 454 L21 413 C78 412 93 394 93 364 L93 76 C93 52 78 42 21 41 L21 0 Z " />
<glyph glyph-name="j" unicode="j" horiz-adv-x="325" d="M171 534 C225 534 260 569 260 624 C260 677 225 711 171 711 C118 711 82 675 82 620 C82 565 118 534 171 534 L171 534 Z M35 -208 C98 -208 164 -187 192 -159 C233 -118 250 -79 250 17 L250 466 L17 454 L17 413 C81 411 96 397 96 364 L96 -62 C96 -139 73 -163 38 -163 C28 -163 21 -162 12 -159 C24 -149 32 -131 32 -116 C32 -72 3 -39 -41 -39 C-85 -39 -118 -69 -118 -114 C-118 -162 -69 -208 35 -208 L35 -208 Z " />
<glyph glyph-name="k" unicode="k" horiz-adv-x="596" d="M239 172 L287 216 L362 88 C382 54 372 41 334 39 L334 0 L593 0 L593 41 C557 44 544 54 522 91 L388 311 C389 311 447 365 447 365 C490 405 510 420 566 423 L566 464 L318 464 L318 423 C379 414 387 387 355 355 L239 244 L239 697 L14 685 L14 644 C75 643 85 625 85 595 L85 76 C85 52 74 42 18 41 L18 0 L284 0 L284 39 C254 40 239 50 239 74 L239 172 Z " />
<glyph glyph-name="l" unicode="l" horiz-adv-x="321" d="M18 0 L306 0 L306 41 C249 42 239 52 239 76 L239 697 L14 685 L14 644 C75 643 85 625 85 595 L85 76 C85 52 74 42 18 41 L18 0 Z " />
<glyph glyph-name="m" unicode="m" horiz-adv-x="901" d="M337 0 L580 0 L580 41 C546 42 536 52 536 76 L536 320 C536 326 536 332 535 342 C560 359 593 375 614 375 C660 375 672 346 672 297 L672 76 C672 52 662 42 627 41 L627 0 L893 0 L893 41 C836 42 826 52 826 76 L826 320 C826 416 789 469 700 469 C637 469 575 423 530 377 C517 437 480 469 411 469 C346 469 293 430 245 387 L245 466 L25 454 L25 413 C82 412 93 394 93 364 L93 76 C93 52 82 42 25 41 L25 0 L291 0 L291 41 C256 42 247 52 247 76 L247 351 C273 364 290 375 320 375 C366 375 382 346 382 297 L382 76 C382 52 373 42 337 41 L337 0 Z " />
<glyph glyph-name="n" unicode="n" horiz-adv-x="616" d="M25 0 L296 0 L296 41 C262 42 247 52 247 76 L247 351 C273 364 297 375 328 375 C373 375 387 346 387 297 L387 76 C387 52 371 42 336 41 L336 0 L608 0 L608 41 C551 42 541 52 541 76 L541 320 C541 416 507 469 418 469 C354 469 293 430 245 387 L245 466 L25 454 L25 413 C82 412 93 394 93 364 L93 76 C93 52 82 42 25 41 L25 0 Z " />
<glyph glyph-name="o" unicode="o" horiz-adv-x="555" d="M278 -11 C430 -11 526 83 526 235 C526 386 435 475 278 475 C125 475 29 382 29 231 C29 79 119 -11 278 -11 L278 -11 Z M282 36 C214 36 192 96 192 233 C192 370 206 428 273 428 C341 428 363 370 363 233 C363 96 348 36 282 36 L282 36 Z " />
<glyph glyph-name="p" unicode="p" horiz-adv-x="590" d="M10 -189 L324 -189 L324 -148 C247 -145 231 -137 231 -113 L231 16 C264 2 300 -5 347 -5 C485 -5 561 108 561 237 C561 378 494 472 375 472 C318 472 274 445 229 407 L229 466 L9 454 L9 413 C66 412 77 394 77 364 L77 -113 C77 -137 67 -147 10 -148 L10 -189 Z M316 42 C283 42 253 56 231 100 L231 366 C259 385 283 393 304 393 C370 393 399 333 399 231 C399 86 367 42 316 42 L316 42 Z " />
<glyph glyph-name="q" unicode="q" horiz-adv-x="585" d="M273 -189 L580 -189 L580 -148 C523 -147 513 -137 513 -113 L513 388 L515 486 L484 486 L419 430 C374 459 312 472 270 472 C114 472 28 363 28 217 C28 96 88 -5 220 -5 C269 -5 321 17 359 53 L359 -113 C359 -137 343 -145 273 -148 L273 -189 Z M295 68 C231 68 191 122 191 232 C191 363 216 425 279 425 C312 425 338 404 359 363 L359 96 C331 77 311 68 295 68 L295 68 Z " />
<glyph glyph-name="r" unicode="r" horiz-adv-x="483" d="M25 0 L339 0 L339 41 C262 44 247 52 247 76 L247 340 C265 360 296 378 320 379 C319 373 318 363 318 358 C318 318 348 289 399 289 C445 289 478 327 478 379 C478 431 444 469 382 469 C327 469 279 428 245 383 L245 466 L25 454 L25 413 C82 412 93 394 93 364 L93 76 C93 52 82 42 25 41 L25 0 Z " />
<glyph glyph-name="s" unicode="s" horiz-adv-x="474" d="M46 -8 L97 -8 L127 21 C153 5 208 -8 245 -8 C362 -8 445 60 445 154 C445 240 383 279 273 305 C210 320 170 331 170 372 C170 403 198 422 234 422 C282 422 326 385 372 326 L420 326 L420 472 L371 472 L346 443 C323 458 280 472 245 472 C130 472 46 410 46 313 C46 237 89 204 197 174 C284 150 321 130 321 90 C321 61 301 42 252 42 C203 42 137 81 94 155 L46 155 L46 -8 Z " />
<glyph glyph-name="t" unicode="t" horiz-adv-x="413" d="M244 -8 C325 -8 382 35 416 111 L381 132 C359 91 331 67 304 67 C269 67 250 92 250 138 L250 400 L399 400 L399 462 L250 462 L250 628 L98 586 L98 464 L9 446 L9 398 L96 398 L96 137 C96 28 162 -8 244 -8 L244 -8 Z " />
<glyph glyph-name="u" unicode="u" horiz-adv-x="610" d="M219 -8 C281 -8 330 26 375 73 L375 0 L595 0 L595 41 C540 44 527 50 527 80 L527 466 L305 461 L305 420 C359 418 373 402 373 372 L373 109 C347 96 330 89 299 89 C254 89 235 120 235 169 L235 466 L13 462 L13 421 C70 420 81 402 81 372 L81 143 C81 47 131 -8 219 -8 L219 -8 Z " />
<glyph glyph-name="v" unicode="v" horiz-adv-x="547" d="M222 -6 L331 -6 L485 362 C501 401 526 419 557 423 L557 464 L356 464 L356 423 C399 417 416 402 416 375 C416 363 413 347 403 320 L328 124 L324 124 L230 374 C227 382 226 387 226 392 C226 411 244 418 284 423 L284 464 L-4 464 L-4 423 C42 414 55 406 73 362 L222 -6 Z " />
<glyph glyph-name="w" unicode="w" horiz-adv-x="795" d="M383 308 L316 144 L309 144 L223 374 C219 386 216 396 216 403 C216 417 225 422 250 423 L250 464 L-1 464 L-1 423 C44 418 58 403 73 362 L211 -6 L320 -6 L411 221 L485 -6 L592 -6 L716 346 C731 390 749 415 796 423 L796 464 L596 464 L596 423 C639 417 658 405 658 377 C658 368 655 351 648 331 L581 148 L574 148 L505 374 C502 385 499 394 499 400 C499 416 511 421 548 423 L548 464 L302 464 L302 423 C338 421 349 410 365 362 L383 308 Z " />
<glyph glyph-name="x" unicode="x" horiz-adv-x="537" d="M301 291 L251 369 C228 405 233 421 269 423 L269 464 L4 464 L4 423 C45 418 59 403 97 355 L206 216 L131 122 C84 63 57 50 3 41 L3 0 L215 0 L215 41 C164 50 161 62 208 128 L244 178 L296 95 C319 59 312 45 268 41 L268 0 L543 0 L543 41 C502 46 489 58 450 109 L340 255 L413 342 C461 400 481 414 529 423 L529 464 L327 464 L327 423 C375 417 382 396 336 336 L301 291 Z " />
<glyph glyph-name="y" unicode="y" horiz-adv-x="538" d="M249 2 L246 -5 C205 -102 191 -127 168 -135 C169 -131 171 -123 171 -117 C171 -82 148 -43 98 -43 C51 -43 19 -82 19 -120 C19 -172 60 -208 124 -208 C187 -208 239 -170 295 -43 L474 350 C497 401 521 420 552 423 L552 464 L351 464 L351 423 C413 414 426 386 402 331 L324 152 L233 374 C222 402 229 417 281 423 L281 464 L-6 464 L-6 423 C40 414 58 402 77 362 L249 2 Z " />
<glyph glyph-name="z" unicode="z" horiz-adv-x="502" d="M34 0 L462 0 L471 189 L424 191 C394 111 362 56 276 56 L207 56 L478 418 L476 464 L59 464 L50 284 L97 282 C128 362 153 408 239 408 L304 408 L32 46 L34 0 Z " />
<glyph glyph-name="braceleft" unicode="&#x7b;" horiz-adv-x="423" d="M456 -152 L456 -110 C347 -105 323 -74 323 23 C323 50 327 93 327 130 C327 230 271 257 150 285 L150 298 C271 326 327 349 327 449 C327 486 323 525 323 552 C323 641 347 674 456 679 L456 721 C230 717 151 658 151 551 C151 504 167 448 167 405 C167 352 134 328 26 320 L26 263 C134 256 167 227 167 174 C167 131 151 81 151 34 C151 -94 230 -148 456 -152 L456 -152 Z " />
<glyph glyph-name="bar" unicode="&#x7c;" horiz-adv-x="290" d="M107 -203 L183 -203 L183 704 L107 704 L107 -203 Z " />
<glyph glyph-name="braceright" unicode="&#x7d;" horiz-adv-x="423" d="M-33 -152 C193 -148 272 -94 272 34 C272 81 256 131 256 174 C256 227 289 256 397 263 L397 320 C289 328 256 352 256 405 C256 448 272 504 272 551 C272 658 193 717 -33 721 L-33 679 C76 674 100 641 100 552 C100 525 96 486 96 449 C96 349 152 326 273 298 L273 285 C152 257 96 230 96 130 C96 93 100 50 100 23 C100 -74 76 -105 -33 -110 L-33 -152 Z " />
<glyph glyph-name="asciitilde" unicode="&#x7e;" horiz-adv-x="421" d="M41 249 L101 249 C109 285 120 294 135 294 C177 294 228 253 275 253 C350 253 372 312 380 401 L320 401 C312 365 301 356 286 356 C244 356 193 397 146 397 C71 397 49 338 41 249 L41 249 Z " />
<glyph glyph-name="uni00A0" unicode="&#xa0;" horiz-adv-x="210" d="" />
<glyph glyph-name="exclamdown" unicode="&#xa1;" horiz-adv-x="307" d="M153 506 C202 506 247 544 247 595 C247 646 204 684 153 684 C104 684 59 646 59 595 C59 544 102 506 153 506 L153 506 Z M153 -16 C214 -16 248 25 248 93 C248 159 203 301 176 448 L131 448 C104 301 59 159 59 93 C59 25 93 -16 153 -16 L153 -16 Z " />
<glyph glyph-name="cent" unicode="&#xa2;" horiz-adv-x="564" d="M284 -90 L343 -90 L343 -5 C430 3 487 48 535 119 L504 143 C466 92 406 52 353 52 L341 52 L341 428 C381 425 420 403 430 381 C408 369 392 347 392 320 C392 276 419 251 467 251 C513 251 537 289 537 330 C537 394 461 460 343 468 L343 537 L284 537 L284 467 C145 455 49 369 49 224 C49 85 138 3 284 -6 L284 -90 Z M212 228 C212 342 238 402 292 421 L292 63 C237 87 212 147 212 228 L212 228 Z " />
<glyph glyph-name="sterling" unicode="&#xa3;" horiz-adv-x="647" d="M497 344 L331 344 C314 390 289 430 289 479 C289 548 329 593 387 593 C420 593 448 580 464 565 C444 552 427 526 427 496 C427 448 463 421 513 421 C562 421 590 463 590 506 C590 581 518 642 370 642 C188 642 123 534 123 450 C123 407 135 374 150 344 L52 344 L52 290 L180 290 C197 261 210 232 210 198 C210 182 208 170 203 156 C192 157 182 157 172 157 C94 157 34 108 34 53 C34 16 60 -16 111 -16 C161 -16 208 41 225 98 C296 29 379 -15 450 -15 C544 -15 608 50 604 204 L553 207 C544 141 518 117 458 117 C391 117 323 136 257 148 C327 180 344 230 344 273 C344 278 343 284 343 290 L497 290 L497 344 Z " />
<glyph glyph-name="yen" unicode="&#xa5;" horiz-adv-x="674" d="M71 285 L231 285 L250 250 L250 194 L71 194 L71 145 L250 145 L250 89 C250 57 244 48 163 45 L163 0 L511 0 L511 45 C430 48 424 57 424 89 L424 145 L603 145 L603 194 L424 194 L424 275 L429 285 L603 285 L603 334 L457 334 L541 485 C579 551 589 571 652 581 L652 626 L433 626 L433 581 C508 573 505 546 467 476 L385 320 L285 524 C267 561 269 578 336 581 L336 626 L12 626 L12 581 C70 574 86 561 105 525 L205 334 L71 334 L71 285 Z " />
<glyph glyph-name="brokenbar" unicode="&#xa6;" horiz-adv-x="290" d="M183 316 L183 704 L107 704 L107 316 L183 316 Z M107 184 L107 -203 L183 -203 L183 184 L107 184 Z " />
<glyph glyph-name="section" unicode="&#xa7;" horiz-adv-x="616" d="M73 228 C73 139 148 105 265 78 C386 50 424 33 424 -21 C424 -60 387 -85 317 -85 C252 -85 206 -69 192 -58 C202 -44 207 -29 207 -9 C207 29 178 60 133 60 C95 60 65 29 65 -9 C65 -79 125 -135 310 -135 C468 -135 548 -71 548 30 C548 94 508 132 454 156 L454 162 C521 196 547 245 547 290 C547 384 478 421 363 445 C255 467 213 479 213 533 C213 565 247 592 311 592 C358 592 384 581 401 571 C396 562 393 549 393 537 C393 499 428 468 466 468 C504 468 531 499 531 532 C531 599 461 642 318 642 C172 642 90 577 90 485 C90 422 121 389 171 367 L171 361 C98 322 73 276 73 228 L73 228 Z M393 178 C379 181 365 184 351 188 C231 216 177 231 177 282 C177 303 184 324 227 347 L301 329 C380 310 433 294 433 246 C433 224 428 199 393 178 L393 178 Z " />
<glyph glyph-name="dieresis" unicode="&#xa8;" horiz-adv-x="438" d="M324 532 C372 532 402 566 402 609 C402 654 374 687 324 687 C276 687 246 652 246 609 C246 564 274 532 324 532 L324 532 Z M114 532 C162 532 192 566 192 609 C192 654 164 687 114 687 C66 687 36 652 36 609 C36 564 64 532 114 532 L114 532 Z " />
<glyph glyph-name="copyright" unicode="&#xa9;" horiz-adv-x="787" d="M393 -32 C607 -32 758 125 758 329 C758 533 607 690 393 690 C179 690 29 533 29 329 C29 125 179 -32 393 -32 L393 -32 Z M393 15 C214 15 84 150 84 329 C84 508 214 643 393 643 C572 643 703 508 703 329 C703 150 572 15 393 15 L393 15 Z M401 142 C478 142 532 183 560 250 L530 265 C499 206 467 191 426 191 C360 191 316 245 316 350 C316 455 354 487 406 487 C446 487 477 451 504 383 L545 383 L545 525 L517 525 L498 502 C473 515 435 524 404 524 C289 524 209 444 209 329 C209 224 279 142 401 142 L401 142 Z " />
<glyph glyph-name="ordfeminine" unicode="&#xaa;" horiz-adv-x="414" d="M127 289 C170 289 202 308 232 339 L245 339 C254 305 269 289 320 289 C352 289 380 301 408 321 L398 351 C357 343 349 348 349 385 L349 515 C349 603 305 649 207 649 C94 649 38 616 38 570 C38 538 59 518 96 518 C133 518 156 539 156 572 C156 587 153 593 149 602 C155 605 170 608 180 608 C216 608 237 598 237 545 L237 504 C206 495 121 493 69 464 C38 447 21 412 21 382 C21 338 52 289 127 289 L127 289 Z M190 350 C161 350 142 369 142 403 C142 446 170 461 237 467 L237 375 C225 361 211 350 190 350 L190 350 Z " />
<glyph glyph-name="guillemotleft" unicode="&#xab;" horiz-adv-x="528" d="M442 30 L480 55 L371 224 L480 392 L442 418 L282 278 C259 258 248 241 248 224 C248 208 259 190 282 170 L442 30 Z M224 30 L262 55 L153 224 L262 392 L224 418 L64 278 C41 258 30 241 30 224 C30 208 41 190 64 170 L224 30 Z " />
<glyph glyph-name="registered" unicode="&#xae;" horiz-adv-x="527" d="M263 240 C399 240 490 339 490 465 C490 591 399 690 263 690 C127 690 37 591 37 465 C37 345 127 240 263 240 L263 240 Z M263 271 C151 271 73 352 73 466 C73 579 151 659 263 659 C377 659 454 579 454 466 C454 352 377 271 263 271 L263 271 Z M242 478 L242 556 L259 556 C294 556 305 542 305 521 C305 496 297 478 261 478 L242 478 Z M242 452 L263 452 C290 452 298 451 300 421 L302 395 C304 367 317 352 367 352 C377 352 384 353 393 354 L393 379 C372 379 368 383 366 399 L363 424 C360 448 348 461 303 464 L303 469 C349 478 367 500 367 528 C367 556 348 583 279 583 L152 583 L152 557 C177 556 181 553 181 542 L181 395 C181 384 177 381 152 380 L152 355 L265 355 L265 380 C248 381 242 385 242 399 L242 452 Z " />
<glyph glyph-name="macron" unicode="&#xaf;" horiz-adv-x="341" d="M25 549 L316 549 L316 626 L25 626 L25 549 Z " />
<glyph glyph-name="degree" unicode="&#xb0;" horiz-adv-x="426" d="M214 337 C322 337 391 409 391 510 C391 611 326 681 214 681 C105 681 35 608 35 507 C35 406 100 337 214 337 L214 337 Z M218 383 C171 383 143 417 143 509 C143 600 164 635 210 635 C258 635 283 599 283 508 C283 416 264 383 218 383 L218 383 Z " />
<glyph glyph-name="plusminus" unicode="&#xb1;" horiz-adv-x="505" d="M56 378 L214 378 L214 218 L291 218 L291 378 L449 378 L449 452 L291 452 L291 612 L214 612 L214 452 L56 452 L56 378 Z M56 80 L449 80 L449 150 L56 150 L56 80 Z " />
<glyph glyph-name="two.sup" unicode="&#xb2;" horiz-adv-x="405" d="M27 237 L364 237 L367 408 L340 409 C323 354 312 337 264 337 L125 337 L125 347 L231 409 C328 465 370 521 370 580 C370 658 312 715 194 715 C102 715 30 665 30 591 C30 549 54 519 97 519 C140 519 161 550 161 581 C161 618 139 640 104 646 C116 663 140 671 163 671 C212 671 239 638 239 584 C239 523 225 486 128 404 L27 318 L27 237 Z " />
<glyph glyph-name="three.sup" unicode="&#xb3;" horiz-adv-x="405" d="M182 226 C312 226 383 289 383 360 C383 431 320 467 235 473 L235 480 C317 493 374 534 374 595 C374 666 303 715 196 715 C116 715 39 666 39 602 C39 565 65 538 103 538 C142 538 164 568 164 601 C164 626 143 648 125 658 C133 667 156 675 177 675 C227 675 245 636 245 585 C245 527 229 498 159 498 L141 498 L141 450 L162 450 C229 450 252 416 252 359 C252 303 222 266 172 266 C147 266 124 274 116 283 C132 291 153 309 153 341 C153 374 130 404 91 404 C50 404 25 372 25 334 C25 273 85 226 182 226 L182 226 Z " />
<glyph glyph-name="acute" unicode="&#xb4;" horiz-adv-x="268" d="M30 524 L105 524 L170 596 C229 661 241 672 241 709 C241 741 210 770 181 770 C132 770 120 745 82 651 L30 524 Z " />
<glyph glyph-name="paragraph" unicode="&#xb6;" horiz-adv-x="668" d="M325 -104 L396 -104 L396 576 L473 576 L473 -104 L543 -104 L543 539 C543 570 553 579 637 582 L637 627 L348 627 C139 627 52 533 52 395 C52 248 159 174 325 163 L325 -104 Z " />
<glyph glyph-name="periodcentered" unicode="&#xb7;" horiz-adv-x="278" d="M139 227 C188 227 233 265 233 316 C233 367 190 405 139 405 C90 405 45 367 45 316 C45 265 88 227 139 227 L139 227 Z " />
<glyph glyph-name="cedilla" unicode="&#xb8;" horiz-adv-x="322" d="M136 -260 C216 -260 263 -217 263 -160 C263 -112 223 -73 138 -73 L137 -71 L224 6 L160 6 L54 -94 L78 -137 C94 -134 105 -132 124 -132 C163 -132 184 -150 184 -171 C184 -195 168 -213 128 -213 C96 -213 68 -204 44 -196 L24 -234 C61 -251 107 -260 136 -260 L136 -260 Z " />
<glyph glyph-name="one.sup" unicode="&#xb9;" horiz-adv-x="405" d="M39 237 L379 237 L379 278 C285 280 270 286 270 310 L270 708 L45 691 L45 652 C134 654 148 643 148 600 L148 310 C148 286 130 280 39 278 L39 237 Z " />
<glyph glyph-name="ordmasculine" unicode="&#xba;" horiz-adv-x="426" d="M214 289 C328 289 400 359 400 471 C400 583 331 649 214 649 C99 649 27 580 27 468 C27 356 94 289 214 289 L214 289 Z M217 330 C166 330 149 368 149 470 C149 571 160 608 210 608 C261 608 277 571 277 470 C277 368 266 330 217 330 L217 330 Z " />
<glyph glyph-name="guillemotright" unicode="&#xbb;" horiz-adv-x="528" d="M304 30 L464 170 C487 190 498 207 498 224 C498 240 487 258 464 278 L304 418 L266 393 L375 224 L266 56 L304 30 Z M86 30 L246 170 C269 190 280 207 280 224 C280 240 269 258 246 278 L86 418 L48 393 L157 224 L48 56 L86 30 Z " />
<glyph glyph-name="onequarter" unicode="&#xbc;" horiz-adv-x="1080" d="M15 168 L355 168 L355 209 C261 211 246 217 246 241 L246 639 L21 622 L21 583 C110 585 124 574 124 531 L124 241 C124 217 106 211 15 209 L15 168 Z M814 129 L685 129 L802 337 L814 337 L814 129 Z M926 129 L926 411 L792 411 L622 117 L622 66 L814 66 L814 7 C814 -16 805 -23 746 -26 L746 -67 L979 -67 L979 -26 C937 -23 926 -18 926 7 L926 66 L994 66 L994 129 L926 129 Z M257 -82 L338 -82 L578 282 L822 646 L742 646 L502 282 L257 -82 Z " />
<glyph glyph-name="onehalf" unicode="&#xbd;" horiz-adv-x="1080" d="M15 168 L355 168 L355 209 C261 211 246 217 246 241 L246 639 L21 622 L21 583 C110 585 124 574 124 531 L124 241 C124 217 106 211 15 209 L15 168 Z M676 -67 L1013 -67 L1016 104 L989 105 C972 50 961 33 913 33 L774 33 L774 43 L880 105 C977 161 1019 217 1019 276 C1019 354 961 411 843 411 C751 411 679 361 679 287 C679 245 703 215 746 215 C789 215 810 246 810 277 C810 314 788 336 753 342 C765 359 789 367 812 367 C861 367 888 334 888 280 C888 219 874 182 777 100 L676 14 L676 -67 Z M257 -82 L338 -82 L578 282 L822 646 L742 646 L502 282 L257 -82 Z " />
<glyph glyph-name="threequarters" unicode="&#xbe;" horiz-adv-x="1080" d="M208 157 C338 157 409 220 409 291 C409 362 346 398 261 404 L261 411 C343 424 400 465 400 526 C400 597 329 646 222 646 C142 646 65 597 65 533 C65 496 91 469 129 469 C168 469 190 499 190 532 C190 557 169 579 151 589 C159 598 182 606 203 606 C253 606 271 567 271 516 C271 458 255 429 185 429 L167 429 L167 381 L188 381 C255 381 278 347 278 290 C278 234 248 197 198 197 C173 197 150 205 142 214 C158 222 179 240 179 272 C179 305 156 335 117 335 C76 335 51 303 51 265 C51 204 111 157 208 157 L208 157 Z M816 129 L687 129 L804 337 L816 337 L816 129 Z M928 129 L928 411 L794 411 L624 117 L624 66 L816 66 L816 7 C816 -16 807 -23 748 -26 L748 -67 L981 -67 L981 -26 C939 -23 928 -18 928 7 L928 66 L996 66 L996 129 L928 129 Z M259 -82 L340 -82 L580 282 L824 646 L744 646 L504 282 L259 -82 Z " />
<glyph glyph-name="questiondown" unicode="&#xbf;" horiz-adv-x="578" d="M315 506 C364 506 409 544 409 595 C409 646 366 684 315 684 C266 684 221 646 221 595 C221 544 264 506 315 506 L315 506 Z M305 -16 C451 -16 546 66 546 154 C546 207 507 255 450 255 C392 255 362 210 362 168 C362 132 385 91 420 79 C410 54 367 33 321 33 C263 33 217 77 217 163 C217 240 244 304 348 329 L345 438 L282 438 L282 372 C122 340 50 279 50 169 C50 73 117 -16 305 -16 L305 -16 Z " />
<glyph glyph-name="Agrave" unicode="&#xc0;" horiz-adv-x="707" d="M439 113 C454 69 438 50 346 45 L346 0 L720 0 L720 45 C652 58 638 70 623 110 L424 668 L289 668 L97 166 C64 81 49 61 -13 45 L-13 0 L228 0 L228 45 C150 58 138 72 168 153 L198 235 L399 235 L439 113 Z M215 283 L298 511 L308 511 L383 283 L215 283 Z M329 734 L404 734 L352 861 C314 955 302 980 253 980 C224 980 193 951 193 919 C193 882 205 871 264 806 L329 734 Z " />
<glyph glyph-name="Aacute" unicode="&#xc1;" horiz-adv-x="707" d="M439 113 C454 69 438 50 346 45 L346 0 L720 0 L720 45 C652 58 638 70 623 110 L424 668 L289 668 L97 166 C64 81 49 61 -13 45 L-13 0 L228 0 L228 45 C150 58 138 72 168 153 L198 235 L399 235 L439 113 Z M215 283 L298 511 L308 511 L383 283 L215 283 Z M306 734 L381 734 L446 806 C505 871 517 882 517 919 C517 951 486 980 457 980 C408 980 396 955 358 861 L306 734 Z " />
<glyph glyph-name="Acircumflex" unicode="&#xc2;" horiz-adv-x="707" d="M439 113 C454 69 438 50 346 45 L346 0 L720 0 L720 45 C652 58 638 70 623 110 L424 668 L289 668 L97 166 C64 81 49 61 -13 45 L-13 0 L228 0 L228 45 C150 58 138 72 168 153 L198 235 L399 235 L439 113 Z M215 283 L298 511 L308 511 L383 283 L215 283 Z M181 734 L246 734 L347 836 L447 734 L511 734 L400 927 L301 927 L181 734 Z " />
<glyph glyph-name="Atilde" unicode="&#xc3;" horiz-adv-x="707" d="M439 113 C454 69 438 50 346 45 L346 0 L720 0 L720 45 C652 58 638 70 623 110 L424 668 L289 668 L97 166 C64 81 49 61 -13 45 L-13 0 L228 0 L228 45 C150 58 138 72 168 153 L198 235 L399 235 L439 113 Z M215 283 L298 511 L308 511 L383 283 L215 283 Z M190 736 L250 736 C258 772 269 781 284 781 C326 781 377 740 424 740 C499 740 521 799 529 888 L469 888 C461 852 450 843 435 843 C393 843 342 884 295 884 C220 884 198 825 190 736 L190 736 Z " />
<glyph glyph-name="Adieresis" unicode="&#xc4;" horiz-adv-x="707" d="M439 113 C454 69 438 50 346 45 L346 0 L720 0 L720 45 C652 58 638 70 623 110 L424 668 L289 668 L97 166 C64 81 49 61 -13 45 L-13 0 L228 0 L228 45 C150 58 138 72 168 153 L198 235 L399 235 L439 113 Z M215 283 L298 511 L308 511 L383 283 L215 283 Z M450 732 C498 732 528 766 528 809 C528 854 500 887 450 887 C402 887 372 852 372 809 C372 764 400 732 450 732 L450 732 Z M240 732 C288 732 318 766 318 809 C318 854 290 887 240 887 C192 887 162 852 162 809 C162 764 190 732 240 732 L240 732 Z " />
<glyph glyph-name="Aring" unicode="&#xc5;" horiz-adv-x="707" d="M352 669 C307 669 292 704 292 743 C292 783 306 820 352 820 C397 820 412 782 412 743 C412 703 398 669 352 669 L352 669 Z M198 235 L398 235 L439 113 C454 69 438 50 346 45 L346 0 L720 0 L720 45 C652 58 638 70 623 110 L432 639 C467 659 489 695 489 743 C489 823 432 867 352 867 C273 867 215 822 215 743 C215 691 239 654 278 635 L97 166 C64 81 49 61 -13 45 L-13 0 L228 0 L228 45 C150 58 138 72 168 153 L198 235 Z M382 283 L216 283 L301 513 L305 513 L382 283 Z " />
<glyph glyph-name="AE" unicode="&#xc6;" horiz-adv-x="1055" d="M255 255 L475 255 L475 88 C475 57 465 48 391 45 L391 0 L997 0 L1007 254 L953 256 C907 128 867 49 721 49 L656 49 L656 308 L671 308 C735 308 757 296 792 207 L837 207 L837 454 L792 454 C757 365 735 356 671 356 L656 356 L656 610 L731 610 C853 610 891 533 930 420 L984 422 L975 658 L287 658 L287 613 C347 606 370 594 370 572 C370 562 365 550 355 534 L123 168 C67 80 50 55 -28 39 L-28 0 L212 0 L212 39 C173 46 156 55 156 74 C156 90 168 114 190 149 L255 255 Z M475 303 L285 303 L460 587 L475 587 L475 303 Z " />
<glyph glyph-name="Ccedilla" unicode="&#xc7;" horiz-adv-x="701" d="M355 -260 C435 -260 482 -217 482 -160 C482 -112 442 -73 357 -73 L356 -71 L421 -13 C536 2 614 73 659 180 L615 201 C560 94 493 56 419 56 C322 56 229 151 229 353 C229 535 304 624 394 624 C470 624 539 547 577 418 L638 418 L638 676 L588 676 L559 633 C513 658 446 674 390 674 C186 674 35 527 35 324 C35 138 139 -8 356 -15 L273 -94 L297 -137 C313 -134 324 -132 343 -132 C382 -132 403 -150 403 -171 C403 -195 387 -213 347 -213 C315 -213 287 -204 263 -196 L243 -234 C280 -251 326 -260 355 -260 L355 -260 Z " />
<glyph glyph-name="Egrave" unicode="&#xc8;" horiz-adv-x="693" d="M29 0 L635 0 L645 254 L591 256 C545 128 505 49 359 49 L294 49 L294 308 L309 308 C373 308 395 296 430 207 L475 207 L475 454 L430 454 C395 365 373 356 309 356 L294 356 L294 610 L369 610 C491 610 529 533 568 420 L622 422 L613 658 L29 658 L29 613 C103 610 113 601 113 570 L113 88 C113 57 103 48 29 45 L29 0 Z M345 734 L420 734 L368 861 C330 955 318 980 269 980 C240 980 209 951 209 919 C209 882 221 871 280 806 L345 734 Z " />
<glyph glyph-name="Eacute" unicode="&#xc9;" horiz-adv-x="693" d="M29 0 L635 0 L645 254 L591 256 C545 128 505 49 359 49 L294 49 L294 308 L309 308 C373 308 395 296 430 207 L475 207 L475 454 L430 454 C395 365 373 356 309 356 L294 356 L294 610 L369 610 C491 610 529 533 568 420 L622 422 L613 658 L29 658 L29 613 C103 610 113 601 113 570 L113 88 C113 57 103 48 29 45 L29 0 Z M292 734 L367 734 L432 806 C491 871 503 882 503 919 C503 951 472 980 443 980 C394 980 382 955 344 861 L292 734 Z " />
<glyph glyph-name="Ecircumflex" unicode="&#xca;" horiz-adv-x="693" d="M29 0 L635 0 L645 254 L591 256 C545 128 505 49 359 49 L294 49 L294 308 L309 308 C373 308 395 296 430 207 L475 207 L475 454 L430 454 C395 365 373 356 309 356 L294 356 L294 610 L369 610 C491 610 529 533 568 420 L622 422 L613 658 L29 658 L29 613 C103 610 113 601 113 570 L113 88 C113 57 103 48 29 45 L29 0 Z M177 734 L242 734 L343 836 L443 734 L507 734 L396 927 L297 927 L177 734 Z " />
<glyph glyph-name="Edieresis" unicode="&#xcb;" horiz-adv-x="693" d="M29 0 L635 0 L645 254 L591 256 C545 128 505 49 359 49 L294 49 L294 308 L309 308 C373 308 395 296 430 207 L475 207 L475 454 L430 454 C395 365 373 356 309 356 L294 356 L294 610 L369 610 C491 610 529 533 568 420 L622 422 L613 658 L29 658 L29 613 C103 610 113 601 113 570 L113 88 C113 57 103 48 29 45 L29 0 Z M462 732 C510 732 540 766 540 809 C540 854 512 887 462 887 C414 887 384 852 384 809 C384 764 412 732 462 732 L462 732 Z M252 732 C300 732 330 766 330 809 C330 854 302 887 252 887 C204 887 174 852 174 809 C174 764 202 732 252 732 L252 732 Z " />
<glyph glyph-name="Igrave" unicode="&#xcc;" horiz-adv-x="427" d="M37 0 L390 0 L390 45 C316 48 304 57 304 88 L304 570 C304 601 316 610 390 613 L390 658 L37 658 L37 613 C111 610 123 601 123 570 L123 88 C123 57 111 48 37 45 L37 0 Z M207 734 L282 734 L230 861 C192 955 180 980 131 980 C102 980 71 951 71 919 C71 882 83 871 142 806 L207 734 Z " />
<glyph glyph-name="Iacute" unicode="&#xcd;" horiz-adv-x="427" d="M37 0 L390 0 L390 45 C316 48 304 57 304 88 L304 570 C304 601 316 610 390 613 L390 658 L37 658 L37 613 C111 610 123 601 123 570 L123 88 C123 57 111 48 37 45 L37 0 Z M159 734 L234 734 L299 806 C358 871 370 882 370 919 C370 951 339 980 310 980 C261 980 249 955 211 861 L159 734 Z " />
<glyph glyph-name="Icircumflex" unicode="&#xce;" horiz-adv-x="427" d="M37 0 L390 0 L390 45 C316 48 304 57 304 88 L304 570 C304 601 316 610 390 613 L390 658 L37 658 L37 613 C111 610 123 601 123 570 L123 88 C123 57 111 48 37 45 L37 0 Z M49 734 L114 734 L215 836 L315 734 L379 734 L268 927 L169 927 L49 734 Z " />
<glyph glyph-name="Idieresis" unicode="&#xcf;" horiz-adv-x="427" d="M37 0 L390 0 L390 45 C316 48 304 57 304 88 L304 570 C304 601 316 610 390 613 L390 658 L37 658 L37 613 C111 610 123 601 123 570 L123 88 C123 57 111 48 37 45 L37 0 Z M318 732 C366 732 396 766 396 809 C396 854 368 887 318 887 C270 887 240 852 240 809 C240 764 268 732 318 732 L318 732 Z M108 732 C156 732 186 766 186 809 C186 854 158 887 108 887 C60 887 30 852 30 809 C30 764 58 732 108 732 L108 732 Z " />
<glyph glyph-name="Eth" unicode="&#xd0;" horiz-adv-x="750" d="M29 0 L374 0 C626 0 715 160 715 342 C715 531 601 658 355 658 L29 658 L29 613 C103 610 113 601 113 570 L113 374 L35 374 L35 311 L113 311 L113 88 C113 57 103 48 29 45 L29 0 Z M294 48 L294 311 L398 311 L398 374 L294 374 L294 610 L338 610 C460 610 525 553 525 329 C525 104 474 48 347 48 L294 48 Z " />
<glyph glyph-name="Ntilde" unicode="&#xd1;" horiz-adv-x="778" d="M576 -6 L677 -6 L677 462 C677 558 681 602 770 613 L770 658 L503 658 L503 613 C598 604 619 558 619 462 L619 227 L613 227 L270 658 L34 658 L34 613 C115 611 134 571 134 518 L134 196 C134 98 123 55 34 45 L34 0 L300 0 L300 45 C204 54 192 99 192 196 L192 468 L198 468 L576 -6 Z M249 736 L309 736 C317 772 328 781 343 781 C385 781 436 740 483 740 C558 740 580 799 588 888 L528 888 C520 852 509 843 494 843 C452 843 401 884 354 884 C279 884 257 825 249 736 L249 736 Z " />
<glyph glyph-name="Ograve" unicode="&#xd2;" horiz-adv-x="744" d="M372 -16 C576 -16 709 119 709 331 C709 542 581 674 372 674 C168 674 35 538 35 327 C35 115 163 -16 372 -16 L372 -16 Z M376 34 C270 34 229 114 229 329 C229 543 262 624 368 624 C474 624 515 543 515 329 C515 114 482 34 376 34 L376 34 Z M361 734 L436 734 L384 861 C346 955 334 980 285 980 C256 980 225 951 225 919 C225 882 237 871 296 806 L361 734 Z " />
<glyph glyph-name="Oacute" unicode="&#xd3;" horiz-adv-x="744" d="M372 -16 C576 -16 709 119 709 331 C709 542 581 674 372 674 C168 674 35 538 35 327 C35 115 163 -16 372 -16 L372 -16 Z M376 34 C270 34 229 114 229 329 C229 543 262 624 368 624 C474 624 515 543 515 329 C515 114 482 34 376 34 L376 34 Z M318 734 L393 734 L458 806 C517 871 529 882 529 919 C529 951 498 980 469 980 C420 980 408 955 370 861 L318 734 Z " />
<glyph glyph-name="Ocircumflex" unicode="&#xd4;" horiz-adv-x="744" d="M372 -16 C576 -16 709 119 709 331 C709 542 581 674 372 674 C168 674 35 538 35 327 C35 115 163 -16 372 -16 L372 -16 Z M376 34 C270 34 229 114 229 329 C229 543 262 624 368 624 C474 624 515 543 515 329 C515 114 482 34 376 34 L376 34 Z M208 734 L273 734 L374 836 L474 734 L538 734 L427 927 L328 927 L208 734 Z " />
<glyph glyph-name="Otilde" unicode="&#xd5;" horiz-adv-x="744" d="M372 -16 C576 -16 709 119 709 331 C709 542 581 674 372 674 C168 674 35 538 35 327 C35 115 163 -16 372 -16 L372 -16 Z M376 34 C270 34 229 114 229 329 C229 543 262 624 368 624 C474 624 515 543 515 329 C515 114 482 34 376 34 L376 34 Z M218 736 L278 736 C286 772 297 781 312 781 C354 781 405 740 452 740 C527 740 549 799 557 888 L497 888 C489 852 478 843 463 843 C421 843 370 884 323 884 C248 884 226 825 218 736 L218 736 Z " />
<glyph glyph-name="Odieresis" unicode="&#xd6;" horiz-adv-x="744" d="M372 -16 C576 -16 709 119 709 331 C709 542 581 674 372 674 C168 674 35 538 35 327 C35 115 163 -16 372 -16 L372 -16 Z M376 34 C270 34 229 114 229 329 C229 543 262 624 368 624 C474 624 515 543 515 329 C515 114 482 34 376 34 L376 34 Z M477 732 C525 732 555 766 555 809 C555 854 527 887 477 887 C429 887 399 852 399 809 C399 764 427 732 477 732 L477 732 Z M267 732 C315 732 345 766 345 809 C345 854 317 887 267 887 C219 887 189 852 189 809 C189 764 217 732 267 732 L267 732 Z " />
<glyph glyph-name="multiply" unicode="&#xd7;" horiz-adv-x="530" d="M421 519 L265 363 L109 519 L53 463 L209 307 L53 151 L109 95 L265 251 L421 95 L477 151 L321 307 L477 463 L421 519 Z " />
<glyph glyph-name="Oslash" unicode="&#xd8;" horiz-adv-x="744" d="M372 -16 C576 -16 709 119 709 331 C709 434 678 519 622 578 L716 692 L638 692 L576 617 C522 653 453 674 372 674 C168 674 35 538 35 327 C35 223 65 138 121 79 L28 -34 L106 -34 L167 40 C221 3 290 -16 372 -16 L372 -16 Z M368 624 C433 624 474 593 495 519 L235 205 C231 240 229 281 229 329 C229 543 262 624 368 624 L368 624 Z M376 34 C310 34 270 64 248 138 L508 453 C513 418 515 376 515 329 C515 114 482 34 376 34 L376 34 Z " />
<glyph glyph-name="Ugrave" unicode="&#xd9;" horiz-adv-x="771" d="M402 -16 C580 -16 663 77 663 230 L663 462 C663 558 667 602 756 613 L756 658 L486 658 L486 613 C581 604 602 558 602 462 L602 247 C602 171 587 128 556 97 C531 72 497 60 454 60 C347 60 294 110 294 227 L294 570 C294 603 323 610 372 613 L372 658 L29 658 L29 613 C103 610 113 601 113 570 L113 232 C113 54 219 -16 402 -16 L402 -16 Z M409 734 L484 734 L432 861 C394 955 382 980 333 980 C304 980 273 951 273 919 C273 882 285 871 344 806 L409 734 Z " />
<glyph glyph-name="Uacute" unicode="&#xda;" horiz-adv-x="771" d="M402 -16 C580 -16 663 77 663 230 L663 462 C663 558 667 602 756 613 L756 658 L486 658 L486 613 C581 604 602 558 602 462 L602 247 C602 171 587 128 556 97 C531 72 497 60 454 60 C347 60 294 110 294 227 L294 570 C294 603 323 610 372 613 L372 658 L29 658 L29 613 C103 610 113 601 113 570 L113 232 C113 54 219 -16 402 -16 L402 -16 Z M379 734 L454 734 L519 806 C578 871 590 882 590 919 C590 951 559 980 530 980 C481 980 469 955 431 861 L379 734 Z " />
<glyph glyph-name="Ucircumflex" unicode="&#xdb;" horiz-adv-x="771" d="M402 -16 C580 -16 663 77 663 230 L663 462 C663 558 667 602 756 613 L756 658 L486 658 L486 613 C581 604 602 558 602 462 L602 247 C602 171 587 128 556 97 C531 72 497 60 454 60 C347 60 294 110 294 227 L294 570 C294 603 323 610 372 613 L372 658 L29 658 L29 613 C103 610 113 601 113 570 L113 232 C113 54 219 -16 402 -16 L402 -16 Z M274 734 L339 734 L440 836 L540 734 L604 734 L493 927 L394 927 L274 734 Z " />
<glyph glyph-name="Udieresis" unicode="&#xdc;" horiz-adv-x="771" d="M402 -16 C580 -16 663 77 663 230 L663 462 C663 558 667 602 756 613 L756 658 L486 658 L486 613 C581 604 602 558 602 462 L602 247 C602 171 587 128 556 97 C531 72 497 60 454 60 C347 60 294 110 294 227 L294 570 C294 603 323 610 372 613 L372 658 L29 658 L29 613 C103 610 113 601 113 570 L113 232 C113 54 219 -16 402 -16 L402 -16 Z M532 732 C580 732 610 766 610 809 C610 854 582 887 532 887 C484 887 454 852 454 809 C454 764 482 732 532 732 L532 732 Z M322 732 C370 732 400 766 400 809 C400 854 372 887 322 887 C274 887 244 852 244 809 C244 764 272 732 322 732 L322 732 Z " />
<glyph glyph-name="Yacute" unicode="&#xdd;" horiz-adv-x="705" d="M409 346 L297 551 C275 591 274 609 359 613 L359 658 L-1 658 L-1 613 C60 606 76 592 100 552 L266 273 L266 88 C266 57 254 48 180 45 L180 0 L533 0 L533 45 C459 48 447 57 447 88 L447 295 L583 510 C626 578 646 604 706 613 L706 658 L463 658 L463 613 C542 604 548 577 502 500 L409 346 Z M346 734 L421 734 L486 806 C545 871 557 882 557 919 C557 951 526 980 497 980 C448 980 436 955 398 861 L346 734 Z " />
<glyph glyph-name="Thorn" unicode="&#xde;" horiz-adv-x="665" d="M29 0 L384 0 L384 43 C295 46 294 55 294 88 L294 144 L358 144 C562 144 645 239 645 340 C645 448 568 533 358 533 L294 533 L294 570 C295 603 295 612 384 615 L384 658 L29 658 L29 613 C103 610 113 601 113 570 L113 88 C113 57 103 48 29 45 L29 0 Z M294 192 L294 485 L343 485 C428 485 460 432 460 337 C460 229 431 192 340 192 L294 192 Z " />
<glyph glyph-name="germandbls" unicode="&#xdf;" horiz-adv-x="669" d="M470 -11 C585 -11 653 54 653 139 C653 229 588 281 529 312 C468 344 439 363 439 396 C439 423 451 439 506 465 C567 494 582 524 582 572 C582 649 502 703 367 703 C187 703 102 630 102 473 L102 459 L15 441 L15 393 L102 393 L102 76 C102 52 92 42 35 41 L35 0 L256 0 L256 516 C256 622 298 660 351 660 C403 660 431 614 431 550 C431 485 411 462 374 432 C344 407 324 382 324 345 C324 276 376 242 430 213 C481 185 529 152 529 103 C529 64 503 40 462 40 C443 40 427 47 417 56 C431 67 441 82 441 105 C441 137 419 169 380 169 C337 169 314 136 314 98 C314 20 393 -11 470 -11 L470 -11 Z " />
<glyph glyph-name="agrave" unicode="&#xe0;" horiz-adv-x="538" d="M176 -11 C233 -11 285 16 325 55 L329 55 C347 12 365 -10 433 -10 C476 -10 513 5 551 32 L537 64 C482 53 472 60 472 109 L472 291 C472 408 420 469 289 469 C138 469 58 426 58 363 C58 319 86 289 138 289 C190 289 222 321 222 366 C222 387 215 404 209 416 C218 420 233 422 246 422 C295 422 322 401 322 330 L322 268 C281 257 169 260 99 222 C57 199 34 153 34 113 C34 54 76 -11 176 -11 L176 -11 Z M260 67 C221 67 196 96 196 141 C196 198 233 220 322 228 L322 100 C307 81 288 67 260 67 L260 67 Z M248 524 L323 524 L271 651 C233 745 221 770 172 770 C143 770 112 741 112 709 C112 672 124 661 183 596 L248 524 Z " />
<glyph glyph-name="aacute" unicode="&#xe1;" horiz-adv-x="538" d="M176 -11 C233 -11 285 16 325 55 L329 55 C347 12 365 -10 433 -10 C476 -10 513 5 551 32 L537 64 C482 53 472 60 472 109 L472 291 C472 408 420 469 289 469 C138 469 58 426 58 363 C58 319 86 289 138 289 C190 289 222 321 222 366 C222 387 215 404 209 416 C218 420 233 422 246 422 C295 422 322 401 322 330 L322 268 C281 257 169 260 99 222 C57 199 34 153 34 113 C34 54 76 -11 176 -11 L176 -11 Z M260 67 C221 67 196 96 196 141 C196 198 233 220 322 228 L322 100 C307 81 288 67 260 67 L260 67 Z M212 524 L287 524 L352 596 C411 661 423 672 423 709 C423 741 392 770 363 770 C314 770 302 745 264 651 L212 524 Z " />
<glyph glyph-name="acircumflex" unicode="&#xe2;" horiz-adv-x="538" d="M176 -11 C233 -11 285 16 325 55 L329 55 C347 12 365 -10 433 -10 C476 -10 513 5 551 32 L537 64 C482 53 472 60 472 109 L472 291 C472 408 420 469 289 469 C138 469 58 426 58 363 C58 319 86 289 138 289 C190 289 222 321 222 366 C222 387 215 404 209 416 C218 420 233 422 246 422 C295 422 322 401 322 330 L322 268 C281 257 169 260 99 222 C57 199 34 153 34 113 C34 54 76 -11 176 -11 L176 -11 Z M260 67 C221 67 196 96 196 141 C196 198 233 220 322 228 L322 100 C307 81 288 67 260 67 L260 67 Z M105 524 L170 524 L271 626 L371 524 L435 524 L324 717 L225 717 L105 524 Z " />
<glyph glyph-name="atilde" unicode="&#xe3;" horiz-adv-x="538" d="M176 -11 C233 -11 285 16 325 55 L329 55 C347 12 365 -10 433 -10 C476 -10 513 5 551 32 L537 64 C482 53 472 60 472 109 L472 291 C472 408 420 469 289 469 C138 469 58 426 58 363 C58 319 86 289 138 289 C190 289 222 321 222 366 C222 387 215 404 209 416 C218 420 233 422 246 422 C295 422 322 401 322 330 L322 268 C281 257 169 260 99 222 C57 199 34 153 34 113 C34 54 76 -11 176 -11 L176 -11 Z M260 67 C221 67 196 96 196 141 C196 198 233 220 322 228 L322 100 C307 81 288 67 260 67 L260 67 Z M105 526 L165 526 C173 562 184 571 199 571 C241 571 292 530 339 530 C414 530 436 589 444 678 L384 678 C376 642 365 633 350 633 C308 633 257 674 210 674 C135 674 113 615 105 526 L105 526 Z " />
<glyph glyph-name="adieresis" unicode="&#xe4;" horiz-adv-x="538" d="M176 -11 C233 -11 285 16 325 55 L329 55 C347 12 365 -10 433 -10 C476 -10 513 5 551 32 L537 64 C482 53 472 60 472 109 L472 291 C472 408 420 469 289 469 C138 469 58 426 58 363 C58 319 86 289 138 289 C190 289 222 321 222 366 C222 387 215 404 209 416 C218 420 233 422 246 422 C295 422 322 401 322 330 L322 268 C281 257 169 260 99 222 C57 199 34 153 34 113 C34 54 76 -11 176 -11 L176 -11 Z M260 67 C221 67 196 96 196 141 C196 198 233 220 322 228 L322 100 C307 81 288 67 260 67 L260 67 Z M374 532 C422 532 452 566 452 609 C452 654 424 687 374 687 C326 687 296 652 296 609 C296 564 324 532 374 532 L374 532 Z M164 532 C212 532 242 566 242 609 C242 654 214 687 164 687 C116 687 86 652 86 609 C86 564 114 532 164 532 L164 532 Z " />
<glyph glyph-name="aring" unicode="&#xe5;" horiz-adv-x="538" d="M176 -11 C233 -11 285 16 325 55 L329 55 C347 12 365 -10 433 -10 C476 -10 513 5 551 32 L537 64 C482 53 472 60 472 109 L472 291 C472 408 420 469 289 469 C138 469 58 426 58 363 C58 319 86 289 138 289 C190 289 222 321 222 366 C222 387 215 404 209 416 C218 420 233 422 246 422 C295 422 322 401 322 330 L322 268 C281 257 169 260 99 222 C57 199 34 153 34 113 C34 54 76 -11 176 -11 L176 -11 Z M260 67 C221 67 196 96 196 141 C196 198 233 220 322 228 L322 100 C307 81 288 67 260 67 L260 67 Z M270 532 C349 532 407 577 407 656 C407 736 350 780 270 780 C191 780 133 735 133 656 C133 576 190 532 270 532 L270 532 Z M270 579 C225 579 210 617 210 656 C210 696 224 733 270 733 C315 733 330 695 330 656 C330 616 316 579 270 579 L270 579 Z " />
<glyph glyph-name="ae" unicode="&#xe6;" horiz-adv-x="804" d="M567 475 C510 475 463 457 417 422 C390 452 349 469 279 469 C140 469 58 426 58 363 C58 319 86 289 138 289 C190 289 222 321 222 366 C222 387 215 404 209 416 C218 420 233 422 246 422 C295 422 332 401 332 330 L332 270 C291 259 169 260 99 222 C57 199 34 153 34 113 C34 54 76 -11 176 -11 C245 -11 316 24 361 78 L371 78 C407 19 466 -11 562 -11 C660 -11 725 34 772 108 L741 132 C704 80 659 53 609 53 C519 53 478 121 478 225 L478 226 L478 228 L774 228 C782 369 710 475 567 475 L567 475 Z M555 428 C610 428 630 359 620 272 L479 270 C483 370 506 428 555 428 L555 428 Z M260 67 C221 67 196 96 196 141 C196 198 243 222 332 230 L332 100 C317 81 288 67 260 67 L260 67 Z " />
<glyph glyph-name="ccedilla" unicode="&#xe7;" horiz-adv-x="504" d="M252 -260 C332 -260 379 -217 379 -160 C379 -112 339 -73 254 -73 L253 -71 L325 -6 C396 6 446 45 485 105 L454 129 C421 84 379 58 328 58 C231 58 192 131 192 235 C192 368 227 430 289 430 C316 430 337 415 343 396 C330 388 314 361 314 338 C314 298 341 267 397 267 C447 267 475 302 475 352 C475 404 431 475 284 475 C137 475 29 384 29 225 C29 80 115 -5 258 -11 L170 -94 L194 -137 C210 -134 221 -132 240 -132 C279 -132 300 -150 300 -171 C300 -195 284 -213 244 -213 C212 -213 184 -204 160 -196 L140 -234 C177 -251 223 -260 252 -260 L252 -260 Z " />
<glyph glyph-name="egrave" unicode="&#xe8;" horiz-adv-x="517" d="M275 -11 C373 -11 438 34 485 108 L454 132 C417 80 372 53 322 53 C232 53 191 121 191 225 L191 226 L191 228 L487 228 C495 369 421 475 274 475 C128 475 29 384 29 225 C29 71 119 -11 275 -11 L275 -11 Z M247 524 L322 524 L270 651 C232 745 220 770 171 770 C142 770 111 741 111 709 C111 672 123 661 182 596 L247 524 Z M268 428 C323 428 343 359 333 272 L192 270 C196 370 219 428 268 428 L268 428 Z " />
<glyph glyph-name="eacute" unicode="&#xe9;" horiz-adv-x="517" d="M275 -11 C373 -11 438 34 485 108 L454 132 C417 80 372 53 322 53 C232 53 191 121 191 225 L191 226 L191 228 L487 228 C495 369 421 475 274 475 C128 475 29 384 29 225 C29 71 119 -11 275 -11 L275 -11 Z M214 524 L289 524 L354 596 C413 661 425 672 425 709 C425 741 394 770 365 770 C316 770 304 745 266 651 L214 524 Z M268 428 C323 428 343 359 333 272 L192 270 C196 370 219 428 268 428 L268 428 Z " />
<glyph glyph-name="ecircumflex" unicode="&#xea;" horiz-adv-x="517" d="M275 -11 C373 -11 438 34 485 108 L454 132 C417 80 372 53 322 53 C232 53 191 121 191 225 L191 226 L191 228 L487 228 C495 369 421 475 274 475 C128 475 29 384 29 225 C29 71 119 -11 275 -11 L275 -11 Z M104 524 L169 524 L270 626 L370 524 L434 524 L323 717 L224 717 L104 524 Z M268 428 C323 428 343 359 333 272 L192 270 C196 370 219 428 268 428 L268 428 Z " />
<glyph glyph-name="edieresis" unicode="&#xeb;" horiz-adv-x="517" d="M275 -11 C373 -11 438 34 485 108 L454 132 C417 80 372 53 322 53 C232 53 191 121 191 225 L191 226 L191 228 L487 228 C495 369 421 475 274 475 C128 475 29 384 29 225 C29 71 119 -11 275 -11 L275 -11 Z M163 532 C211 532 241 566 241 609 C241 654 213 687 163 687 C115 687 85 652 85 609 C85 564 113 532 163 532 L163 532 Z M373 532 C421 532 451 566 451 609 C451 654 423 687 373 687 C325 687 295 652 295 609 C295 564 323 532 373 532 L373 532 Z M268 428 C323 428 343 359 333 272 L192 270 C196 370 219 428 268 428 L268 428 Z " />
<glyph glyph-name="igrave" unicode="&#xec;" horiz-adv-x="335" d="M21 0 L314 0 L314 41 C256 42 247 52 247 76 L247 466 L21 454 L21 413 C78 412 93 394 93 364 L93 76 C93 52 78 42 21 41 L21 0 Z M146 524 L221 524 L169 651 C131 745 119 770 70 770 C41 770 10 741 10 709 C10 672 22 661 81 596 L146 524 Z " />
<glyph glyph-name="iacute" unicode="&#xed;" horiz-adv-x="335" d="M21 0 L314 0 L314 41 C256 42 247 52 247 76 L247 466 L21 454 L21 413 C78 412 93 394 93 364 L93 76 C93 52 78 42 21 41 L21 0 Z M93 524 L168 524 L233 596 C292 661 304 672 304 709 C304 741 273 770 244 770 C195 770 183 745 145 651 L93 524 Z " />
<glyph glyph-name="icircumflex" unicode="&#xee;" horiz-adv-x="335" d="M21 0 L314 0 L314 41 C256 42 247 52 247 76 L247 466 L21 454 L21 413 C78 412 93 394 93 364 L93 76 C93 52 78 42 21 41 L21 0 Z M-7 524 L58 524 L159 626 L259 524 L323 524 L212 717 L113 717 L-7 524 Z " />
<glyph glyph-name="idieresis" unicode="&#xef;" horiz-adv-x="335" d="M21 0 L314 0 L314 41 C256 42 247 52 247 76 L247 466 L21 454 L21 413 C78 412 93 394 93 364 L93 76 C93 52 78 42 21 41 L21 0 Z M262 532 C310 532 340 566 340 609 C340 654 312 687 262 687 C214 687 184 652 184 609 C184 564 212 532 262 532 L262 532 Z M52 532 C100 532 130 566 130 609 C130 654 102 687 52 687 C4 687 -26 652 -26 609 C-26 564 2 532 52 532 L52 532 Z " />
<glyph glyph-name="eth" unicode="&#xf0;" horiz-adv-x="562" d="M484 627 L462 680 L338 632 C282 662 219 683 155 699 L138 653 C179 637 216 619 248 597 L141 555 L163 502 L298 554 C331 519 356 476 369 421 L363 416 C338 455 298 472 253 472 C121 472 29 376 29 227 C29 73 129 -8 270 -8 C441 -8 534 104 534 311 C534 442 479 531 397 593 L484 627 Z M287 39 C213 39 187 125 187 232 C187 358 227 425 286 425 C351 425 370 348 370 249 C370 112 345 39 287 39 L287 39 Z " />
<glyph glyph-name="ntilde" unicode="&#xf1;" horiz-adv-x="616" d="M25 0 L296 0 L296 41 C262 42 247 52 247 76 L247 351 C273 364 297 375 328 375 C373 375 387 346 387 297 L387 76 C387 52 371 42 336 41 L336 0 L608 0 L608 41 C551 42 541 52 541 76 L541 320 C541 416 507 469 418 469 C354 469 293 430 245 387 L245 466 L25 454 L25 413 C82 412 93 394 93 364 L93 76 C93 52 82 42 25 41 L25 0 Z M143 526 L203 526 C211 562 222 571 237 571 C279 571 330 530 377 530 C452 530 474 589 482 678 L422 678 C414 642 403 633 388 633 C346 633 295 674 248 674 C173 674 151 615 143 526 L143 526 Z " />
<glyph glyph-name="ograve" unicode="&#xf2;" horiz-adv-x="555" d="M278 -11 C430 -11 526 83 526 235 C526 386 435 475 278 475 C125 475 29 382 29 231 C29 79 119 -11 278 -11 L278 -11 Z M282 36 C214 36 192 96 192 233 C192 370 206 428 273 428 C341 428 363 370 363 233 C363 96 348 36 282 36 L282 36 Z M256 524 L331 524 L279 651 C241 745 229 770 180 770 C151 770 120 741 120 709 C120 672 132 661 191 596 L256 524 Z " />
<glyph glyph-name="oacute" unicode="&#xf3;" horiz-adv-x="555" d="M278 -11 C430 -11 526 83 526 235 C526 386 435 475 278 475 C125 475 29 382 29 231 C29 79 119 -11 278 -11 L278 -11 Z M282 36 C214 36 192 96 192 233 C192 370 206 428 273 428 C341 428 363 370 363 233 C363 96 348 36 282 36 L282 36 Z M223 524 L298 524 L363 596 C422 661 434 672 434 709 C434 741 403 770 374 770 C325 770 313 745 275 651 L223 524 Z " />
<glyph glyph-name="ocircumflex" unicode="&#xf4;" horiz-adv-x="555" d="M278 -11 C430 -11 526 83 526 235 C526 386 435 475 278 475 C125 475 29 382 29 231 C29 79 119 -11 278 -11 L278 -11 Z M282 36 C214 36 192 96 192 233 C192 370 206 428 273 428 C341 428 363 370 363 233 C363 96 348 36 282 36 L282 36 Z M116 524 L181 524 L282 626 L382 524 L446 524 L335 717 L236 717 L116 524 Z " />
<glyph glyph-name="otilde" unicode="&#xf5;" horiz-adv-x="555" d="M278 -11 C430 -11 526 83 526 235 C526 386 435 475 278 475 C125 475 29 382 29 231 C29 79 119 -11 278 -11 L278 -11 Z M282 36 C214 36 192 96 192 233 C192 370 206 428 273 428 C341 428 363 370 363 233 C363 96 348 36 282 36 L282 36 Z M114 526 L174 526 C182 562 193 571 208 571 C250 571 301 530 348 530 C423 530 445 589 453 678 L393 678 C385 642 374 633 359 633 C317 633 266 674 219 674 C144 674 122 615 114 526 L114 526 Z " />
<glyph glyph-name="odieresis" unicode="&#xf6;" horiz-adv-x="555" d="M278 -11 C430 -11 526 83 526 235 C526 386 435 475 278 475 C125 475 29 382 29 231 C29 79 119 -11 278 -11 L278 -11 Z M282 36 C214 36 192 96 192 233 C192 370 206 428 273 428 C341 428 363 370 363 233 C363 96 348 36 282 36 L282 36 Z M381 532 C429 532 459 566 459 609 C459 654 431 687 381 687 C333 687 303 652 303 609 C303 564 331 532 381 532 L381 532 Z M171 532 C219 532 249 566 249 609 C249 654 221 687 171 687 C123 687 93 652 93 609 C93 564 121 532 171 532 L171 532 Z " />
<glyph glyph-name="divide" unicode="&#xf7;" horiz-adv-x="605" d="M52 269 L553 269 L553 347 L52 347 L52 269 Z M302 399 C347 399 389 434 389 481 C389 528 349 563 302 563 C257 563 215 528 215 481 C215 434 255 399 302 399 L302 399 Z M302 53 C347 53 389 88 389 135 C389 182 349 217 302 217 C257 217 215 182 215 135 C215 88 255 53 302 53 L302 53 Z " />
<glyph glyph-name="oslash" unicode="&#xf8;" horiz-adv-x="555" d="M96 -24 L134 22 C173 0 221 -11 278 -11 C430 -11 526 83 526 235 C526 308 504 367 464 408 L531 488 L459 488 L420 441 C382 463 334 475 278 475 C125 475 29 382 29 231 C29 157 50 98 90 56 L24 -24 L96 -24 Z M192 233 C192 370 206 428 273 428 C314 428 339 406 351 358 L194 168 C192 187 192 209 192 233 L192 233 Z M282 36 C241 36 216 58 203 106 L361 296 C362 277 363 256 363 233 C363 96 348 36 282 36 L282 36 Z " />
<glyph glyph-name="ugrave" unicode="&#xf9;" horiz-adv-x="610" d="M219 -8 C281 -8 330 26 375 73 L375 0 L595 0 L595 41 C540 44 527 50 527 80 L527 466 L305 461 L305 420 C359 418 373 402 373 372 L373 109 C347 96 330 89 299 89 C254 89 235 120 235 169 L235 466 L13 462 L13 421 C70 420 81 402 81 372 L81 143 C81 47 131 -8 219 -8 L219 -8 Z M280 524 L355 524 L303 651 C265 745 253 770 204 770 C175 770 144 741 144 709 C144 672 156 661 215 596 L280 524 Z " />
<glyph glyph-name="uacute" unicode="&#xfa;" horiz-adv-x="610" d="M219 -8 C281 -8 330 26 375 73 L375 0 L595 0 L595 41 C540 44 527 50 527 80 L527 466 L305 461 L305 420 C359 418 373 402 373 372 L373 109 C347 96 330 89 299 89 C254 89 235 120 235 169 L235 466 L13 462 L13 421 C70 420 81 402 81 372 L81 143 C81 47 131 -8 219 -8 L219 -8 Z M221 524 L296 524 L361 596 C420 661 432 672 432 709 C432 741 401 770 372 770 C323 770 311 745 273 651 L221 524 Z " />
<glyph glyph-name="ucircumflex" unicode="&#xfb;" horiz-adv-x="610" d="M219 -8 C281 -8 330 26 375 73 L375 0 L595 0 L595 41 C540 44 527 50 527 80 L527 466 L305 461 L305 420 C359 418 373 402 373 372 L373 109 C347 96 330 89 299 89 C254 89 235 120 235 169 L235 466 L13 462 L13 421 C70 420 81 402 81 372 L81 143 C81 47 131 -8 219 -8 L219 -8 Z M125 524 L190 524 L291 626 L391 524 L455 524 L344 717 L245 717 L125 524 Z " />
<glyph glyph-name="udieresis" unicode="&#xfc;" horiz-adv-x="610" d="M219 -8 C281 -8 330 26 375 73 L375 0 L595 0 L595 41 C540 44 527 50 527 80 L527 466 L305 461 L305 420 C359 418 373 402 373 372 L373 109 C347 96 330 89 299 89 C254 89 235 120 235 169 L235 466 L13 462 L13 421 C70 420 81 402 81 372 L81 143 C81 47 131 -8 219 -8 L219 -8 Z M394 532 C442 532 472 566 472 609 C472 654 444 687 394 687 C346 687 316 652 316 609 C316 564 344 532 394 532 L394 532 Z M184 532 C232 532 262 566 262 609 C262 654 234 687 184 687 C136 687 106 652 106 609 C106 564 134 532 184 532 L184 532 Z " />
<glyph glyph-name="yacute" unicode="&#xfd;" horiz-adv-x="538" d="M249 2 L246 -5 C205 -102 191 -127 168 -135 C169 -131 171 -123 171 -117 C171 -82 148 -43 98 -43 C51 -43 19 -82 19 -120 C19 -172 60 -208 124 -208 C187 -208 239 -170 295 -43 L474 350 C497 401 521 420 552 423 L552 464 L351 464 L351 423 C413 414 426 386 402 331 L324 152 L233 374 C222 402 229 417 281 423 L281 464 L-6 464 L-6 423 C40 414 58 402 77 362 L249 2 Z M283 524 L358 524 L423 596 C482 661 494 672 494 709 C494 741 463 770 434 770 C385 770 373 745 335 651 L283 524 Z " />
<glyph glyph-name="thorn" unicode="&#xfe;" horiz-adv-x="581" d="M222 697 L-3 685 L-3 644 C59 643 68 625 68 595 L68 -113 C68 -137 58 -147 1 -148 L1 -189 L315 -189 L315 -148 C238 -145 222 -137 222 -113 L222 16 C255 2 291 -5 338 -5 C476 -5 552 108 552 237 C552 378 485 472 366 472 C309 472 266 445 222 407 L222 697 Z M307 42 C274 42 244 56 222 100 L222 366 C250 385 274 393 295 393 C361 393 390 333 390 231 C390 86 358 42 307 42 L307 42 Z " />
<glyph glyph-name="ydieresis" unicode="&#xff;" horiz-adv-x="538" d="M249 2 L246 -5 C205 -102 191 -127 168 -135 C169 -131 171 -123 171 -117 C171 -82 148 -43 98 -43 C51 -43 19 -82 19 -120 C19 -172 60 -208 124 -208 C187 -208 239 -170 295 -43 L474 350 C497 401 521 420 552 423 L552 464 L351 464 L351 423 C413 414 426 386 402 331 L324 152 L233 374 C222 402 229 417 281 423 L281 464 L-6 464 L-6 423 C40 414 58 402 77 362 L249 2 Z M392 532 C440 532 470 566 470 609 C470 654 442 687 392 687 C344 687 314 652 314 609 C314 564 342 532 392 532 L392 532 Z M182 532 C230 532 260 566 260 609 C260 654 232 687 182 687 C134 687 104 652 104 609 C104 564 132 532 182 532 L182 532 Z " />
<glyph glyph-name="Amacron" unicode="&#x100;" horiz-adv-x="707" d="M439 113 C454 69 438 50 346 45 L346 0 L720 0 L720 45 C652 58 638 70 623 110 L424 668 L289 668 L97 166 C64 81 49 61 -13 45 L-13 0 L228 0 L228 45 C150 58 138 72 168 153 L198 235 L399 235 L439 113 Z M215 283 L298 511 L308 511 L383 283 L215 283 Z M208 749 L499 749 L499 826 L208 826 L208 749 Z " />
<glyph glyph-name="amacron" unicode="&#x101;" horiz-adv-x="538" d="M176 -11 C233 -11 285 16 325 55 L329 55 C347 12 365 -10 433 -10 C476 -10 513 5 551 32 L537 64 C482 53 472 60 472 109 L472 291 C472 408 420 469 289 469 C138 469 58 426 58 363 C58 319 86 289 138 289 C190 289 222 321 222 366 C222 387 215 404 209 416 C218 420 233 422 246 422 C295 422 322 401 322 330 L322 268 C281 257 169 260 99 222 C57 199 34 153 34 113 C34 54 76 -11 176 -11 L176 -11 Z M260 67 C221 67 196 96 196 141 C196 198 233 220 322 228 L322 100 C307 81 288 67 260 67 L260 67 Z M133 549 L424 549 L424 626 L133 626 L133 549 Z " />
<glyph glyph-name="Abreve" unicode="&#x102;" horiz-adv-x="707" d="M439 113 C454 69 438 50 346 45 L346 0 L720 0 L720 45 C652 58 638 70 623 110 L424 668 L289 668 L97 166 C64 81 49 61 -13 45 L-13 0 L228 0 L228 45 C150 58 138 72 168 153 L198 235 L399 235 L439 113 Z M215 283 L298 511 L308 511 L383 283 L215 283 Z M354 732 C439 732 502 793 502 910 L441 910 C433 852 404 820 354 820 C302 820 273 852 265 910 L204 910 C204 793 266 732 354 732 L354 732 Z " />
<glyph glyph-name="abreve" unicode="&#x103;" horiz-adv-x="538" d="M176 -11 C233 -11 285 16 325 55 L329 55 C347 12 365 -10 433 -10 C476 -10 513 5 551 32 L537 64 C482 53 472 60 472 109 L472 291 C472 408 420 469 289 469 C138 469 58 426 58 363 C58 319 86 289 138 289 C190 289 222 321 222 366 C222 387 215 404 209 416 C218 420 233 422 246 422 C295 422 322 401 322 330 L322 268 C281 257 169 260 99 222 C57 199 34 153 34 113 C34 54 76 -11 176 -11 L176 -11 Z M260 67 C221 67 196 96 196 141 C196 198 233 220 322 228 L322 100 C307 81 288 67 260 67 L260 67 Z M280 532 C365 532 428 593 428 710 L367 710 C359 652 330 620 280 620 C228 620 199 652 191 710 L130 710 C130 593 192 532 280 532 L280 532 Z " />
<glyph glyph-name="Aogonek" unicode="&#x104;" horiz-adv-x="707" d="M576 -242 C622 -242 663 -227 707 -197 L689 -161 C659 -175 634 -181 610 -181 C574 -181 550 -164 550 -130 C550 -104 562 -75 614 -21 L634 0 L720 0 L720 45 C652 58 638 70 623 110 L424 668 L289 668 L97 166 C64 81 49 61 -13 45 L-13 0 L228 0 L228 45 C150 58 138 72 168 153 L198 235 L399 235 L439 113 C454 69 438 50 346 45 L346 0 L571 0 L565 -4 C494 -50 455 -95 455 -145 C455 -207 506 -242 576 -242 L576 -242 Z M215 283 L298 511 L308 511 L383 283 L215 283 Z " />
<glyph glyph-name="aogonek" unicode="&#x105;" horiz-adv-x="538" d="M551 32 L537 64 C482 53 472 60 472 109 L472 291 C472 408 420 469 289 469 C138 469 58 426 58 363 C58 319 86 289 138 289 C190 289 222 321 222 366 C222 387 215 404 209 416 C218 420 233 422 246 422 C295 422 322 401 322 330 L322 268 C281 257 169 260 99 222 C57 199 34 153 34 113 C34 54 76 -11 176 -11 C233 -11 285 16 325 55 L329 55 C343 20 373 -1 428 -5 L430 -5 L426 -7 C346 -44 302 -93 302 -145 C302 -207 353 -242 423 -242 C469 -242 510 -227 554 -197 L536 -161 C506 -175 481 -181 457 -181 C421 -181 397 -163 397 -126 C397 -95 415 -61 475 -20 L551 32 Z M260 67 C221 67 196 96 196 141 C196 198 233 220 322 228 L322 100 C307 81 288 67 260 67 L260 67 Z " />
<glyph glyph-name="Cacute" unicode="&#x106;" horiz-adv-x="701" d="M373 -16 C514 -16 608 59 659 180 L615 201 C560 94 493 56 419 56 C322 56 229 151 229 353 C229 535 304 624 394 624 C470 624 539 547 577 418 L638 418 L638 676 L588 676 L559 633 C513 658 446 674 390 674 C186 674 35 527 35 324 C35 133 145 -16 373 -16 L373 -16 Z M321 734 L396 734 L461 806 C520 871 532 882 532 919 C532 951 501 980 472 980 C423 980 411 955 373 861 L321 734 Z " />
<glyph glyph-name="cacute" unicode="&#x107;" horiz-adv-x="504" d="M275 -11 C373 -11 438 32 485 105 L454 129 C421 84 379 58 328 58 C231 58 192 131 192 235 C192 368 227 430 289 430 C316 430 337 415 343 396 C330 388 314 361 314 338 C314 298 341 267 397 267 C447 267 475 302 475 352 C475 404 431 475 284 475 C137 475 29 384 29 225 C29 75 122 -11 275 -11 L275 -11 Z M218 524 L293 524 L358 596 C417 661 429 672 429 709 C429 741 398 770 369 770 C320 770 308 745 270 651 L218 524 Z " />
<glyph glyph-name="Cdotaccent" unicode="&#x10a;" horiz-adv-x="701" d="M373 -16 C514 -16 608 59 659 180 L615 201 C560 94 493 56 419 56 C322 56 229 151 229 353 C229 535 304 624 394 624 C470 624 539 547 577 418 L638 418 L638 676 L588 676 L559 633 C513 658 446 674 390 674 C186 674 35 527 35 324 C35 133 145 -16 373 -16 L373 -16 Z M384 732 C438 732 473 767 473 822 C473 875 438 909 384 909 C331 909 295 873 295 818 C295 763 331 732 384 732 L384 732 Z " />
<glyph glyph-name="cdotaccent" unicode="&#x10b;" horiz-adv-x="504" d="M275 -11 C373 -11 438 32 485 105 L454 129 C421 84 379 58 328 58 C231 58 192 131 192 235 C192 368 227 430 289 430 C316 430 337 415 343 396 C330 388 314 361 314 338 C314 298 341 267 397 267 C447 267 475 302 475 352 C475 404 431 475 284 475 C137 475 29 384 29 225 C29 75 122 -11 275 -11 L275 -11 Z M282 532 C336 532 371 567 371 622 C371 675 336 709 282 709 C229 709 193 673 193 618 C193 563 229 532 282 532 L282 532 Z " />
<glyph glyph-name="Ccaron" unicode="&#x10c;" horiz-adv-x="701" d="M373 -16 C514 -16 608 59 659 180 L615 201 C560 94 493 56 419 56 C322 56 229 151 229 353 C229 535 304 624 394 624 C470 624 539 547 577 418 L638 418 L638 676 L588 676 L559 633 C513 658 446 674 390 674 C186 674 35 527 35 324 C35 133 145 -16 373 -16 L373 -16 Z M326 724 L425 724 L545 917 L480 917 L379 815 L279 917 L215 917 L326 724 Z " />
<glyph glyph-name="ccaron" unicode="&#x10d;" horiz-adv-x="504" d="M275 -11 C373 -11 438 32 485 105 L454 129 C421 84 379 58 328 58 C231 58 192 131 192 235 C192 368 227 430 289 430 C316 430 337 415 343 396 C330 388 314 361 314 338 C314 298 341 267 397 267 C447 267 475 302 475 352 C475 404 431 475 284 475 C137 475 29 384 29 225 C29 75 122 -11 275 -11 L275 -11 Z M228 524 L327 524 L447 717 L382 717 L281 615 L181 717 L117 717 L228 524 Z " />
<glyph glyph-name="Dcaron" unicode="&#x10e;" horiz-adv-x="750" d="M29 0 L374 0 C626 0 715 160 715 342 C715 531 601 658 355 658 L29 658 L29 613 C103 610 113 601 113 570 L113 88 C113 57 103 48 29 45 L29 0 Z M294 48 L294 610 L338 610 C460 610 525 553 525 329 C525 104 474 48 347 48 L294 48 Z M321 724 L420 724 L540 917 L475 917 L374 815 L274 917 L210 917 L321 724 Z " />
<glyph glyph-name="dcaron" unicode="&#x10f;" horiz-adv-x="587" d="M231 -8 C288 -8 330 18 361 56 L361 -7 L581 3 L581 40 C525 40 513 59 513 87 L513 697 L288 685 L288 644 C349 643 359 625 359 595 L359 456 C330 466 305 472 265 472 C110 472 29 353 29 222 C29 86 104 -8 231 -8 L231 -8 Z M288 71 C232 71 191 136 191 238 C191 364 224 419 280 419 C316 419 345 398 359 373 L359 97 C340 79 320 71 288 71 L288 71 Z M617 547 L669 547 L707 686 C710 696 724 745 724 768 C724 813 691 830 664 830 C634 830 598 811 598 752 C598 724 605 664 605 662 L617 547 Z " />
<glyph glyph-name="Dcroat" unicode="&#x110;" horiz-adv-x="750" d="M29 0 L374 0 C626 0 715 160 715 342 C715 531 601 658 355 658 L29 658 L29 613 C103 610 113 601 113 570 L113 374 L35 374 L35 311 L113 311 L113 88 C113 57 103 48 29 45 L29 0 Z M294 48 L294 311 L398 311 L398 374 L294 374 L294 610 L338 610 C460 610 525 553 525 329 C525 104 474 48 347 48 L294 48 Z " />
<glyph glyph-name="dcroat" unicode="&#x111;" horiz-adv-x="587" d="M231 -8 C288 -8 330 18 361 56 L361 -7 L581 3 L581 40 C525 40 513 59 513 87 L513 537 L576 537 L576 594 L513 594 L513 697 L288 685 L288 644 C349 643 359 625 359 595 L359 594 L198 594 L198 537 L359 537 L359 456 C330 466 305 472 265 472 C110 472 29 353 29 222 C29 86 104 -8 231 -8 L231 -8 Z M288 71 C232 71 191 136 191 238 C191 364 224 419 280 419 C316 419 345 398 359 373 L359 97 C340 79 320 71 288 71 L288 71 Z " />
<glyph glyph-name="Emacron" unicode="&#x112;" horiz-adv-x="693" d="M29 0 L635 0 L645 254 L591 256 C545 128 505 49 359 49 L294 49 L294 308 L309 308 C373 308 395 296 430 207 L475 207 L475 454 L430 454 C395 365 373 356 309 356 L294 356 L294 610 L369 610 C491 610 529 533 568 420 L622 422 L613 658 L29 658 L29 613 C103 610 113 601 113 570 L113 88 C113 57 103 48 29 45 L29 0 Z M201 749 L492 749 L492 826 L201 826 L201 749 Z " />
<glyph glyph-name="emacron" unicode="&#x113;" horiz-adv-x="517" d="M275 -11 C373 -11 438 34 485 108 L454 132 C417 80 372 53 322 53 C232 53 191 121 191 225 L191 226 L191 228 L487 228 C495 369 421 475 274 475 C128 475 29 384 29 225 C29 71 119 -11 275 -11 L275 -11 Z M123 549 L414 549 L414 626 L123 626 L123 549 Z M268 428 C323 428 343 359 333 272 L192 270 C196 370 219 428 268 428 L268 428 Z " />
<glyph glyph-name="Ebreve" unicode="&#x114;" horiz-adv-x="693" d="M29 0 L635 0 L645 254 L591 256 C545 128 505 49 359 49 L294 49 L294 308 L309 308 C373 308 395 296 430 207 L475 207 L475 454 L430 454 C395 365 373 356 309 356 L294 356 L294 610 L369 610 C491 610 529 533 568 420 L622 422 L613 658 L29 658 L29 613 C103 610 113 601 113 570 L113 88 C113 57 103 48 29 45 L29 0 Z M347 732 C432 732 495 793 495 910 L434 910 C426 852 397 820 347 820 C295 820 266 852 258 910 L197 910 C197 793 259 732 347 732 L347 732 Z " />
<glyph glyph-name="ebreve" unicode="&#x115;" horiz-adv-x="517" d="M275 -11 C373 -11 438 34 485 108 L454 132 C417 80 372 53 322 53 C232 53 191 121 191 225 L191 226 L191 228 L487 228 C495 369 421 475 274 475 C128 475 29 384 29 225 C29 71 119 -11 275 -11 L275 -11 Z M274 532 C359 532 422 593 422 710 L361 710 C353 652 324 620 274 620 C222 620 193 652 185 710 L124 710 C124 593 186 532 274 532 L274 532 Z M268 428 C323 428 343 359 333 272 L192 270 C196 370 219 428 268 428 L268 428 Z " />
<glyph glyph-name="Edotaccent" unicode="&#x116;" horiz-adv-x="693" d="M29 0 L635 0 L645 254 L591 256 C545 128 505 49 359 49 L294 49 L294 308 L309 308 C373 308 395 296 430 207 L475 207 L475 454 L430 454 C395 365 373 356 309 356 L294 356 L294 610 L369 610 C491 610 529 533 568 420 L622 422 L613 658 L29 658 L29 613 C103 610 113 601 113 570 L113 88 C113 57 103 48 29 45 L29 0 Z M346 732 C400 732 435 767 435 822 C435 875 400 909 346 909 C293 909 257 873 257 818 C257 763 293 732 346 732 L346 732 Z " />
<glyph glyph-name="edotaccent" unicode="&#x117;" horiz-adv-x="517" d="M275 -11 C373 -11 438 34 485 108 L454 132 C417 80 372 53 322 53 C232 53 191 121 191 225 L191 226 L191 228 L487 228 C495 369 421 475 274 475 C128 475 29 384 29 225 C29 71 119 -11 275 -11 L275 -11 Z M270 532 C324 532 359 567 359 622 C359 675 324 709 270 709 C217 709 181 673 181 618 C181 563 217 532 270 532 L270 532 Z M268 428 C323 428 343 359 333 272 L192 270 C196 370 219 428 268 428 L268 428 Z " />
<glyph glyph-name="Eogonek" unicode="&#x118;" horiz-adv-x="693" d="M29 0 L490 0 L484 -4 C413 -50 374 -95 374 -145 C374 -207 425 -242 495 -242 C541 -242 582 -227 626 -197 L608 -161 C578 -175 553 -181 529 -181 C493 -181 469 -164 469 -130 C469 -104 481 -75 533 -21 L553 0 L635 0 L645 254 L591 256 C545 128 505 49 359 49 L294 49 L294 308 L309 308 C373 308 395 296 430 207 L475 207 L475 454 L430 454 C395 365 373 356 309 356 L294 356 L294 610 L369 610 C491 610 529 533 568 420 L622 422 L613 658 L29 658 L29 613 C103 610 113 601 113 570 L113 88 C113 57 103 48 29 45 L29 0 Z " />
<glyph glyph-name="eogonek" unicode="&#x119;" horiz-adv-x="517" d="M454 132 C417 80 372 53 322 53 C232 53 191 121 191 225 L191 226 L191 228 L487 228 C495 369 421 475 274 475 C128 475 29 384 29 225 C29 71 119 -11 275 -11 C289 -11 303 -10 316 -8 L312 -11 C249 -53 212 -97 212 -145 C212 -207 263 -242 333 -242 C379 -242 420 -227 464 -197 L446 -161 C416 -175 391 -181 367 -181 C331 -181 307 -164 307 -130 C307 -104 321 -72 371 -21 L447 59 C460 73 472 87 485 108 L454 132 Z M268 428 C323 428 343 359 333 272 L192 270 C196 370 219 428 268 428 L268 428 Z " />
<glyph glyph-name="Ecaron" unicode="&#x11a;" horiz-adv-x="693" d="M29 0 L635 0 L645 254 L591 256 C545 128 505 49 359 49 L294 49 L294 308 L309 308 C373 308 395 296 430 207 L475 207 L475 454 L430 454 C395 365 373 356 309 356 L294 356 L294 610 L369 610 C491 610 529 533 568 420 L622 422 L613 658 L29 658 L29 613 C103 610 113 601 113 570 L113 88 C113 57 103 48 29 45 L29 0 Z M292 724 L391 724 L511 917 L446 917 L345 815 L245 917 L181 917 L292 724 Z " />
<glyph glyph-name="ecaron" unicode="&#x11b;" horiz-adv-x="517" d="M275 -11 C373 -11 438 34 485 108 L454 132 C417 80 372 53 322 53 C232 53 191 121 191 225 L191 226 L191 228 L487 228 C495 369 421 475 274 475 C128 475 29 384 29 225 C29 71 119 -11 275 -11 L275 -11 Z M219 524 L318 524 L438 717 L373 717 L272 615 L172 717 L108 717 L219 524 Z M268 428 C323 428 343 359 333 272 L192 270 C196 370 219 428 268 428 L268 428 Z " />
<glyph glyph-name="Gbreve" unicode="&#x11e;" horiz-adv-x="726" d="M372 -16 C503 -16 594 24 651 55 L651 237 C651 270 670 277 719 280 L719 325 L376 325 L376 280 C454 277 481 266 481 235 L481 57 C458 40 428 34 395 34 C294 34 229 114 229 329 C229 543 296 624 387 624 C482 624 541 548 584 440 L638 440 L638 678 L587 678 L560 642 C527 657 468 674 393 674 C180 674 35 538 35 327 C35 115 163 -16 372 -16 L372 -16 Z M389 732 C474 732 537 793 537 910 L476 910 C468 852 439 820 389 820 C337 820 308 852 300 910 L239 910 C239 793 301 732 389 732 L389 732 Z " />
<glyph glyph-name="gbreve" unicode="&#x11f;" horiz-adv-x="506" d="M258 -163 C162 -163 105 -131 105 -91 C105 -67 122 -50 153 -40 L237 -40 C369 -40 395 -54 395 -89 C395 -131 346 -163 258 -163 L258 -163 Z M256 203 C205 203 187 237 187 314 C187 391 197 424 247 424 C299 424 316 381 316 314 C316 237 305 203 256 203 L256 203 Z M252 469 C129 469 41 408 41 312 C41 245 80 200 140 176 C74 148 45 118 45 76 C45 41 63 9 126 -15 L126 -20 C47 -32 15 -62 15 -104 C15 -166 108 -208 232 -208 C392 -208 499 -131 499 -40 C499 44 443 85 300 85 L252 85 C156 85 138 99 138 118 C138 135 158 148 200 161 C217 159 234 158 252 158 C374 158 462 219 462 316 C462 373 431 415 383 440 C392 462 404 479 423 488 C423 451 445 435 471 435 C506 435 524 462 524 490 C524 524 501 549 457 549 C400 549 372 505 347 455 C319 464 286 469 252 469 L252 469 Z M249 532 C334 532 397 593 397 710 L336 710 C328 652 299 620 249 620 C197 620 168 652 160 710 L99 710 C99 593 161 532 249 532 L249 532 Z " />
<glyph glyph-name="Gdotaccent" unicode="&#x120;" horiz-adv-x="726" d="M372 -16 C503 -16 594 24 651 55 L651 237 C651 270 670 277 719 280 L719 325 L376 325 L376 280 C454 277 481 266 481 235 L481 57 C458 40 428 34 395 34 C294 34 229 114 229 329 C229 543 296 624 387 624 C482 624 541 548 584 440 L638 440 L638 678 L587 678 L560 642 C527 657 468 674 393 674 C180 674 35 538 35 327 C35 115 163 -16 372 -16 L372 -16 Z M388 732 C442 732 477 767 477 822 C477 875 442 909 388 909 C335 909 299 873 299 818 C299 763 335 732 388 732 L388 732 Z " />
<glyph glyph-name="gdotaccent" unicode="&#x121;" horiz-adv-x="506" d="M258 -163 C162 -163 105 -131 105 -91 C105 -67 122 -50 153 -40 L237 -40 C369 -40 395 -54 395 -89 C395 -131 346 -163 258 -163 L258 -163 Z M256 203 C205 203 187 237 187 314 C187 391 197 424 247 424 C299 424 316 381 316 314 C316 237 305 203 256 203 L256 203 Z M252 469 C129 469 41 408 41 312 C41 245 80 200 140 176 C74 148 45 118 45 76 C45 41 63 9 126 -15 L126 -20 C47 -32 15 -62 15 -104 C15 -166 108 -208 232 -208 C392 -208 499 -131 499 -40 C499 44 443 85 300 85 L252 85 C156 85 138 99 138 118 C138 135 158 148 200 161 C217 159 234 158 252 158 C374 158 462 219 462 316 C462 373 431 415 383 440 C392 462 404 479 423 488 C423 451 445 435 471 435 C506 435 524 462 524 490 C524 524 501 549 457 549 C400 549 372 505 347 455 C319 464 286 469 252 469 L252 469 Z M248 532 C302 532 337 567 337 622 C337 675 302 709 248 709 C195 709 159 673 159 618 C159 563 195 532 248 532 L248 532 Z " />
<glyph glyph-name="Gcommaaccent" unicode="&#x122;" horiz-adv-x="726" d="M372 -16 C503 -16 594 24 651 55 L651 237 C651 270 670 277 719 280 L719 325 L376 325 L376 280 C454 277 481 266 481 235 L481 57 C458 40 428 34 395 34 C294 34 229 114 229 329 C229 543 296 624 387 624 C482 624 541 548 584 440 L638 440 L638 678 L587 678 L560 642 C527 657 468 674 393 674 C180 674 35 538 35 327 C35 115 163 -16 372 -16 L372 -16 Z M301 -351 C406 -312 454 -246 454 -168 C454 -105 414 -69 367 -69 C327 -69 293 -102 293 -141 C293 -185 326 -213 359 -213 C364 -213 369 -212 374 -211 L378 -216 C375 -241 348 -278 280 -314 L301 -351 Z " />
<glyph glyph-name="gcommaaccent" unicode="&#x123;" horiz-adv-x="506" d="M319 814 C214 775 166 709 166 631 C166 568 206 532 253 532 C293 532 327 565 327 604 C327 648 294 676 261 676 C256 676 251 675 246 674 L242 679 C245 704 272 741 340 777 L319 814 Z M258 -163 C162 -163 105 -131 105 -91 C105 -67 122 -50 153 -40 L237 -40 C369 -40 395 -54 395 -89 C395 -131 346 -163 258 -163 L258 -163 Z M256 203 C205 203 187 237 187 314 C187 391 197 424 247 424 C299 424 316 381 316 314 C316 237 305 203 256 203 L256 203 Z M252 469 C129 469 41 408 41 312 C41 245 80 200 140 176 C74 148 45 118 45 76 C45 41 63 9 126 -15 L126 -20 C47 -32 15 -62 15 -104 C15 -166 108 -208 232 -208 C392 -208 499 -131 499 -40 C499 44 443 85 300 85 L252 85 C156 85 138 99 138 118 C138 135 158 148 200 161 C217 159 234 158 252 158 C374 158 462 219 462 316 C462 373 431 415 383 440 C392 462 404 479 423 488 C423 451 445 435 471 435 C506 435 524 462 524 490 C524 524 501 549 457 549 C400 549 372 505 347 455 C319 464 286 469 252 469 L252 469 Z " />
<glyph glyph-name="Hbar" unicode="&#x126;" horiz-adv-x="807" d="M29 0 L372 0 L372 45 C323 48 294 55 294 88 L294 306 L513 306 L513 88 C513 55 484 48 435 45 L435 0 L778 0 L778 45 C704 48 694 57 694 88 L694 448 L772 448 L772 507 L694 507 L694 570 C694 601 704 610 778 613 L778 658 L435 658 L435 613 C484 610 513 603 513 570 L513 507 L294 507 L294 570 C294 603 323 610 372 613 L372 658 L29 658 L29 613 C103 610 113 601 113 570 L113 507 L35 507 L35 448 L113 448 L113 88 C113 57 103 48 29 45 L29 0 Z M294 357 L294 448 L513 448 L513 357 L294 357 Z " />
<glyph glyph-name="hbar" unicode="&#x127;" horiz-adv-x="611" d="M18 0 L289 0 L289 41 C254 42 239 52 239 76 L239 351 C265 364 290 375 320 375 C366 375 382 346 382 297 L382 76 C382 52 367 42 332 41 L332 0 L604 0 L604 41 C546 42 536 52 536 76 L536 320 C536 416 499 469 410 469 C346 469 288 430 239 387 L239 537 L400 537 L400 594 L239 594 L239 697 L14 685 L14 644 C75 643 85 625 85 595 L85 594 L22 594 L22 537 L85 537 L85 76 C85 52 74 42 18 41 L18 0 Z " />
<glyph glyph-name="Imacron" unicode="&#x12a;" horiz-adv-x="427" d="M37 0 L390 0 L390 45 C316 48 304 57 304 88 L304 570 C304 601 316 610 390 613 L390 658 L37 658 L37 613 C111 610 123 601 123 570 L123 88 C123 57 111 48 37 45 L37 0 Z M68 749 L359 749 L359 826 L68 826 L68 749 Z " />
<glyph glyph-name="imacron" unicode="&#x12b;" horiz-adv-x="335" d="M27 549 L308 549 L308 626 L27 626 L27 549 Z M21 0 L314 0 L314 41 C256 42 247 52 247 76 L247 466 L21 454 L21 413 C78 412 93 394 93 364 L93 76 C93 52 78 42 21 41 L21 0 Z " />
<glyph glyph-name="Ibreve" unicode="&#x12c;" horiz-adv-x="427" d="M37 0 L390 0 L390 45 C316 48 304 57 304 88 L304 570 C304 601 316 610 390 613 L390 658 L37 658 L37 613 C111 610 123 601 123 570 L123 88 C123 57 111 48 37 45 L37 0 Z M214 732 C299 732 362 793 362 910 L301 910 C293 852 264 820 214 820 C162 820 133 852 125 910 L64 910 C64 793 126 732 214 732 L214 732 Z " />
<glyph glyph-name="ibreve" unicode="&#x12d;" horiz-adv-x="335" d="M21 0 L314 0 L314 41 C256 42 247 52 247 76 L247 466 L21 454 L21 413 C78 412 93 394 93 364 L93 76 C93 52 78 42 21 41 L21 0 Z M168 532 C253 532 316 593 316 710 L255 710 C247 652 218 620 168 620 C116 620 87 652 79 710 L18 710 C18 593 80 532 168 532 L168 532 Z " />
<glyph glyph-name="Iogonek" unicode="&#x12e;" horiz-adv-x="427" d="M37 0 L198 0 L192 -4 C121 -50 82 -95 82 -145 C82 -207 133 -242 203 -242 C249 -242 290 -227 334 -197 L316 -161 C286 -175 261 -181 237 -181 C201 -181 177 -164 177 -130 C177 -104 189 -75 241 -21 L261 0 L390 0 L390 45 C316 48 304 57 304 88 L304 570 C304 601 316 610 390 613 L390 658 L37 658 L37 613 C111 610 123 601 123 570 L123 88 C123 57 111 48 37 45 L37 0 Z " />
<glyph glyph-name="iogonek" unicode="&#x12f;" horiz-adv-x="335" d="M21 0 L148 0 L142 -4 C71 -50 32 -95 32 -145 C32 -207 83 -242 153 -242 C199 -242 240 -227 284 -197 L266 -161 C236 -175 211 -181 187 -181 C151 -181 127 -164 127 -130 C127 -104 139 -75 191 -21 L211 0 L314 0 L314 41 C256 42 247 52 247 76 L247 466 L21 454 L21 413 C78 412 93 394 93 364 L93 76 C93 52 78 42 21 41 L21 0 Z M168 534 C222 534 257 569 257 624 C257 677 222 711 168 711 C115 711 79 675 79 620 C79 565 115 534 168 534 L168 534 Z " />
<glyph glyph-name="Idotaccent" unicode="&#x130;" horiz-adv-x="427" d="M37 0 L390 0 L390 45 C316 48 304 57 304 88 L304 570 C304 601 316 610 390 613 L390 658 L37 658 L37 613 C111 610 123 601 123 570 L123 88 C123 57 111 48 37 45 L37 0 Z M213 732 C267 732 302 767 302 822 C302 875 267 909 213 909 C160 909 124 873 124 818 C124 763 160 732 213 732 L213 732 Z " />
<glyph glyph-name="dotlessi" unicode="&#x131;" horiz-adv-x="335" d="M21 0 L314 0 L314 41 C256 42 247 52 247 76 L247 466 L21 454 L21 413 C78 412 93 394 93 364 L93 76 C93 52 78 42 21 41 L21 0 Z " />
<glyph glyph-name="Kcommaaccent" unicode="&#x136;" horiz-adv-x="764" d="M294 322 L294 570 C294 603 323 610 372 613 L372 658 L29 658 L29 613 C103 610 113 601 113 570 L113 88 C113 57 103 48 29 45 L29 0 L355 0 L355 43 C309 47 294 53 294 86 L294 249 L345 299 L468 113 C501 62 491 47 437 43 L437 0 L763 0 L763 45 C707 55 694 74 651 137 L462 414 L538 489 C644 593 665 601 745 613 L745 658 L463 658 L463 615 C530 609 533 572 482 519 L294 322 Z M310 -351 C415 -312 463 -246 463 -168 C463 -105 423 -69 376 -69 C336 -69 302 -102 302 -141 C302 -185 335 -213 368 -213 C373 -213 378 -212 383 -211 L387 -216 C384 -241 357 -278 289 -314 L310 -351 Z " />
<glyph glyph-name="kcommaaccent" unicode="&#x137;" horiz-adv-x="596" d="M239 172 L287 216 L362 88 C382 54 372 41 334 39 L334 0 L593 0 L593 41 C557 44 544 54 522 91 L388 311 C389 311 447 365 447 365 C490 405 510 420 566 423 L566 464 L318 464 L318 423 C379 414 387 387 355 355 L239 244 L239 697 L14 685 L14 644 C75 643 85 625 85 595 L85 76 C85 52 74 42 18 41 L18 0 L284 0 L284 39 C254 40 239 50 239 74 L239 172 Z M226 -351 C331 -312 379 -246 379 -168 C379 -105 339 -69 292 -69 C252 -69 218 -102 218 -141 C218 -185 251 -213 284 -213 C289 -213 294 -212 299 -211 L303 -216 C300 -241 273 -278 205 -314 L226 -351 Z " />
<glyph glyph-name="Lacute" unicode="&#x139;" horiz-adv-x="645" d="M29 0 L614 0 L618 268 L564 270 C513 133 469 49 323 49 L294 49 L294 570 C294 601 306 610 380 613 L380 658 L29 658 L29 613 C103 610 113 601 113 570 L113 88 C113 57 103 48 29 45 L29 0 Z M188 734 L263 734 L328 806 C387 871 399 882 399 919 C399 951 368 980 339 980 C290 980 278 955 240 861 L188 734 Z " />
<glyph glyph-name="lacute" unicode="&#x13a;" horiz-adv-x="321" d="M18 0 L306 0 L306 41 C249 42 239 52 239 76 L239 697 L14 685 L14 644 C75 643 85 625 85 595 L85 76 C85 52 74 42 18 41 L18 0 Z M101 752 L176 752 L241 824 C300 889 312 900 312 937 C312 969 281 998 252 998 C203 998 191 973 153 879 L101 752 Z " />
<glyph glyph-name="Lcommaaccent" unicode="&#x13b;" horiz-adv-x="645" d="M29 0 L614 0 L618 268 L564 270 C513 133 469 49 323 49 L294 49 L294 570 C294 601 306 610 380 613 L380 658 L29 658 L29 613 C103 610 113 601 113 570 L113 88 C113 57 103 48 29 45 L29 0 Z M250 -351 C355 -312 403 -246 403 -168 C403 -105 363 -69 316 -69 C276 -69 242 -102 242 -141 C242 -185 275 -213 308 -213 C313 -213 318 -212 323 -211 L327 -216 C324 -241 297 -278 229 -314 L250 -351 Z " />
<glyph glyph-name="lcommaaccent" unicode="&#x13c;" horiz-adv-x="321" d="M18 0 L306 0 L306 41 C249 42 239 52 239 76 L239 697 L14 685 L14 644 C75 643 85 625 85 595 L85 76 C85 52 74 42 18 41 L18 0 Z M88 -351 C193 -312 241 -246 241 -168 C241 -105 201 -69 154 -69 C114 -69 80 -102 80 -141 C80 -185 113 -213 146 -213 C151 -213 156 -212 161 -211 L165 -216 C162 -241 135 -278 67 -314 L88 -351 Z " />
<glyph glyph-name="Lcaron" unicode="&#x13d;" horiz-adv-x="645" d="M29 0 L614 0 L618 268 L564 270 C513 133 469 49 323 49 L294 49 L294 570 C294 601 306 610 380 613 L380 658 L29 658 L29 613 C103 610 113 601 113 570 L113 88 C113 57 103 48 29 45 L29 0 Z M469 488 L521 488 L559 627 C562 637 576 686 576 709 C576 754 543 771 516 771 C486 771 450 752 450 693 C450 665 457 605 457 603 L469 488 Z " />
<glyph glyph-name="lcaron" unicode="&#x13e;" horiz-adv-x="321" d="M18 0 L306 0 L306 41 C249 42 239 52 239 76 L239 697 L14 685 L14 644 C75 643 85 625 85 595 L85 76 C85 52 74 42 18 41 L18 0 Z M343 547 L395 547 L433 686 C436 696 450 745 450 768 C450 813 417 830 390 830 C360 830 324 811 324 752 C324 724 331 664 331 662 L343 547 Z " />
<glyph glyph-name="Ldot" unicode="&#x13f;" horiz-adv-x="645" d="M29 0 L614 0 L618 257 L564 258 C513 128 469 49 323 49 L294 49 L294 570 C294 601 306 610 380 613 L380 658 L29 658 L29 613 C103 610 113 601 113 570 L113 88 C113 57 103 48 29 45 L29 0 Z M522 318 C576 318 611 353 611 408 C611 461 576 495 522 495 C469 495 433 459 433 404 C433 349 469 318 522 318 L522 318 Z " />
<glyph glyph-name="ldot" unicode="&#x140;" horiz-adv-x="432" d="M378 264 C432 264 467 299 467 354 C467 407 432 441 378 441 C325 441 289 405 289 350 C289 295 325 264 378 264 L378 264 Z M18 0 L306 0 L306 41 C249 42 239 52 239 76 L239 697 L14 685 L14 644 C75 643 85 625 85 595 L85 76 C85 52 74 42 18 41 L18 0 Z " />
<glyph glyph-name="Lslash" unicode="&#x141;" horiz-adv-x="645" d="M29 0 L614 0 L618 268 L564 270 C513 133 469 49 323 49 L294 49 L294 318 L441 356 L423 416 L294 383 L294 570 C294 601 306 610 380 613 L380 658 L29 658 L29 613 C103 610 113 601 113 570 L113 338 L34 319 L51 256 L113 272 L113 88 C113 57 103 48 29 45 L29 0 Z " />
<glyph glyph-name="lslash" unicode="&#x142;" horiz-adv-x="371" d="M43 0 L331 0 L331 41 C274 42 264 52 264 76 L264 338 L360 361 L346 420 L264 401 L264 697 L39 685 L39 644 C100 643 110 625 110 595 L110 365 L13 343 L27 283 L110 302 L110 76 C110 52 99 42 43 41 L43 0 Z " />
<glyph glyph-name="Nacute" unicode="&#x143;" horiz-adv-x="778" d="M576 -6 L677 -6 L677 462 C677 558 681 602 770 613 L770 658 L503 658 L503 613 C598 604 619 558 619 462 L619 227 L613 227 L270 658 L34 658 L34 613 C115 611 134 571 134 518 L134 196 C134 98 123 55 34 45 L34 0 L300 0 L300 45 C204 54 192 99 192 196 L192 468 L198 468 L576 -6 Z M370 734 L445 734 L510 806 C569 871 581 882 581 919 C581 951 550 980 521 980 C472 980 460 955 422 861 L370 734 Z " />
<glyph glyph-name="nacute" unicode="&#x144;" horiz-adv-x="616" d="M25 0 L296 0 L296 41 C262 42 247 52 247 76 L247 351 C273 364 297 375 328 375 C373 375 387 346 387 297 L387 76 C387 52 371 42 336 41 L336 0 L608 0 L608 41 C551 42 541 52 541 76 L541 320 C541 416 507 469 418 469 C354 469 293 430 245 387 L245 466 L25 454 L25 413 C82 412 93 394 93 364 L93 76 C93 52 82 42 25 41 L25 0 Z M259 524 L334 524 L399 596 C458 661 470 672 470 709 C470 741 439 770 410 770 C361 770 349 745 311 651 L259 524 Z " />
<glyph glyph-name="Ncommaaccent" unicode="&#x145;" horiz-adv-x="778" d="M576 -6 L677 -6 L677 462 C677 558 681 602 770 613 L770 658 L503 658 L503 613 C598 604 619 558 619 462 L619 227 L613 227 L270 658 L34 658 L34 613 C115 611 134 571 134 518 L134 196 C134 98 123 55 34 45 L34 0 L300 0 L300 45 C204 54 192 99 192 196 L192 468 L198 468 L576 -6 Z M317 -351 C422 -312 470 -246 470 -168 C470 -105 430 -69 383 -69 C343 -69 309 -102 309 -141 C309 -185 342 -213 375 -213 C380 -213 385 -212 390 -211 L394 -216 C391 -241 364 -278 296 -314 L317 -351 Z " />
<glyph glyph-name="ncommaaccent" unicode="&#x146;" horiz-adv-x="616" d="M25 0 L296 0 L296 41 C262 42 247 52 247 76 L247 351 C273 364 297 375 328 375 C373 375 387 346 387 297 L387 76 C387 52 371 42 336 41 L336 0 L608 0 L608 41 C551 42 541 52 541 76 L541 320 C541 416 507 469 418 469 C354 469 293 430 245 387 L245 466 L25 454 L25 413 C82 412 93 394 93 364 L93 76 C93 52 82 42 25 41 L25 0 Z M236 -351 C341 -312 389 -246 389 -168 C389 -105 349 -69 302 -69 C262 -69 228 -102 228 -141 C228 -185 261 -213 294 -213 C299 -213 304 -212 309 -211 L313 -216 C310 -241 283 -278 215 -314 L236 -351 Z " />
<glyph glyph-name="Ncaron" unicode="&#x147;" horiz-adv-x="778" d="M576 -6 L677 -6 L677 462 C677 558 681 602 770 613 L770 658 L503 658 L503 613 C598 604 619 558 619 462 L619 227 L613 227 L270 658 L34 658 L34 613 C115 611 134 571 134 518 L134 196 C134 98 123 55 34 45 L34 0 L300 0 L300 45 C204 54 192 99 192 196 L192 468 L198 468 L576 -6 Z M356 724 L455 724 L575 917 L510 917 L409 815 L309 917 L245 917 L356 724 Z " />
<glyph glyph-name="ncaron" unicode="&#x148;" horiz-adv-x="616" d="M25 0 L296 0 L296 41 C262 42 247 52 247 76 L247 351 C273 364 297 375 328 375 C373 375 387 346 387 297 L387 76 C387 52 371 42 336 41 L336 0 L608 0 L608 41 C551 42 541 52 541 76 L541 320 C541 416 507 469 418 469 C354 469 293 430 245 387 L245 466 L25 454 L25 413 C82 412 93 394 93 364 L93 76 C93 52 82 42 25 41 L25 0 Z M261 524 L360 524 L480 717 L415 717 L314 615 L214 717 L150 717 L261 524 Z " />
<glyph glyph-name="Omacron" unicode="&#x14c;" horiz-adv-x="744" d="M372 -16 C576 -16 709 119 709 331 C709 542 581 674 372 674 C168 674 35 538 35 327 C35 115 163 -16 372 -16 L372 -16 Z M376 34 C270 34 229 114 229 329 C229 543 262 624 368 624 C474 624 515 543 515 329 C515 114 482 34 376 34 L376 34 Z M226 749 L517 749 L517 826 L226 826 L226 749 Z " />
<glyph glyph-name="omacron" unicode="&#x14d;" horiz-adv-x="555" d="M278 -11 C430 -11 526 83 526 235 C526 386 435 475 278 475 C125 475 29 382 29 231 C29 79 119 -11 278 -11 L278 -11 Z M282 36 C214 36 192 96 192 233 C192 370 206 428 273 428 C341 428 363 370 363 233 C363 96 348 36 282 36 L282 36 Z M132 549 L423 549 L423 626 L132 626 L132 549 Z " />
<glyph glyph-name="Obreve" unicode="&#x14e;" horiz-adv-x="744" d="M372 -16 C576 -16 709 119 709 331 C709 542 581 674 372 674 C168 674 35 538 35 327 C35 115 163 -16 372 -16 L372 -16 Z M376 34 C270 34 229 114 229 329 C229 543 262 624 368 624 C474 624 515 543 515 329 C515 114 482 34 376 34 L376 34 Z M373 732 C458 732 521 793 521 910 L460 910 C452 852 423 820 373 820 C321 820 292 852 284 910 L223 910 C223 793 285 732 373 732 L373 732 Z " />
<glyph glyph-name="obreve" unicode="&#x14f;" horiz-adv-x="555" d="M278 -11 C430 -11 526 83 526 235 C526 386 435 475 278 475 C125 475 29 382 29 231 C29 79 119 -11 278 -11 L278 -11 Z M282 36 C214 36 192 96 192 233 C192 370 206 428 273 428 C341 428 363 370 363 233 C363 96 348 36 282 36 L282 36 Z M278 532 C363 532 426 593 426 710 L365 710 C357 652 328 620 278 620 C226 620 197 652 189 710 L128 710 C128 593 190 532 278 532 L278 532 Z " />
<glyph glyph-name="Ohungarumlaut" unicode="&#x150;" horiz-adv-x="744" d="M372 -16 C576 -16 709 119 709 331 C709 542 581 674 372 674 C168 674 35 538 35 327 C35 115 163 -16 372 -16 L372 -16 Z M376 34 C270 34 229 114 229 329 C229 543 262 624 368 624 C474 624 515 543 515 329 C515 114 482 34 376 34 L376 34 Z M428 724 L503 724 L563 798 C619 867 626 878 626 911 C626 943 590 970 561 970 C512 970 502 947 471 853 C471 853 429 724 428 724 L428 724 Z M231 724 L306 724 L366 798 C422 867 429 878 429 911 C429 943 393 970 364 970 C315 970 305 947 274 853 C274 853 232 724 231 724 L231 724 Z " />
<glyph glyph-name="ohungarumlaut" unicode="&#x151;" horiz-adv-x="555" d="M278 -11 C430 -11 526 83 526 235 C526 386 435 475 278 475 C125 475 29 382 29 231 C29 79 119 -11 278 -11 L278 -11 Z M282 36 C214 36 192 96 192 233 C192 370 206 428 273 428 C341 428 363 370 363 233 C363 96 348 36 282 36 L282 36 Z M324 524 L399 524 L459 598 C515 667 522 678 522 711 C522 743 486 770 457 770 C408 770 398 747 367 653 C367 653 325 524 324 524 L324 524 Z M127 524 L202 524 L262 598 C318 667 325 678 325 711 C325 743 289 770 260 770 C211 770 201 747 170 653 C170 653 128 524 127 524 L127 524 Z " />
<glyph glyph-name="OE" unicode="&#x152;" horiz-adv-x="1030" d="M389 0 L972 0 L982 254 L928 256 C882 128 842 49 696 49 L631 49 L631 308 L646 308 C710 308 732 296 767 207 L812 207 L812 454 L767 454 C732 365 710 356 646 356 L631 356 L631 610 L706 610 C828 610 866 533 905 420 L959 422 L950 658 L370 658 C118 658 29 498 29 316 C29 127 143 0 389 0 L389 0 Z M396 48 C292 48 219 102 219 329 C219 554 274 610 392 610 C437 610 450 596 450 570 L450 88 C450 64 439 48 396 48 L396 48 Z " />
<glyph glyph-name="oe" unicode="&#x153;" horiz-adv-x="847" d="M605 -11 C703 -11 768 34 815 108 L784 132 C747 80 702 53 652 53 C562 53 521 121 521 225 L521 226 L521 228 L817 228 C825 369 751 475 604 475 C539 475 483 453 444 412 C405 452 348 475 278 475 C126 475 29 380 29 230 C29 81 120 -11 277 -11 C342 -11 401 11 439 49 C477 10 534 -11 605 -11 L605 -11 Z M363 232 C363 97 348 36 282 36 C214 36 192 97 192 232 C192 367 207 428 273 428 C341 428 363 367 363 232 L363 232 Z M598 428 C653 428 673 359 663 272 L522 270 C526 370 549 428 598 428 L598 428 Z " />
<glyph glyph-name="Racute" unicode="&#x154;" horiz-adv-x="713" d="M294 352 L294 610 L327 610 C430 610 458 567 458 485 C458 385 437 352 334 352 L294 352 Z M294 306 L319 306 C422 306 443 286 447 190 L453 113 C459 34 481 -4 627 -4 C657 -4 690 -3 729 0 L729 45 C658 49 648 59 641 126 L633 198 C625 274 586 329 446 330 L446 333 C598 356 643 418 643 498 C643 581 584 658 384 658 L29 658 L29 613 C103 610 113 601 113 570 L113 88 C113 57 103 48 29 45 L29 0 L372 0 L372 45 C323 48 294 55 294 88 L294 306 Z M309 734 L384 734 L449 806 C508 871 520 882 520 919 C520 951 489 980 460 980 C411 980 399 955 361 861 L309 734 Z " />
<glyph glyph-name="racute" unicode="&#x155;" horiz-adv-x="483" d="M25 0 L339 0 L339 41 C262 44 247 52 247 76 L247 340 C265 360 296 378 320 379 C319 373 318 363 318 358 C318 318 348 289 399 289 C445 289 478 327 478 379 C478 431 444 469 382 469 C327 469 279 428 245 383 L245 466 L25 454 L25 413 C82 412 93 394 93 364 L93 76 C93 52 82 42 25 41 L25 0 Z M192 524 L267 524 L332 596 C391 661 403 672 403 709 C403 741 372 770 343 770 C294 770 282 745 244 651 L192 524 Z " />
<glyph glyph-name="Rcommaaccent" unicode="&#x156;" horiz-adv-x="713" d="M294 352 L294 610 L327 610 C430 610 458 567 458 485 C458 385 437 352 334 352 L294 352 Z M294 306 L319 306 C422 306 443 286 447 190 L453 113 C459 34 481 -4 627 -4 C657 -4 690 -3 729 0 L729 45 C658 49 648 59 641 126 L633 198 C625 274 586 329 446 330 L446 333 C598 356 643 418 643 498 C643 581 584 658 384 658 L29 658 L29 613 C103 610 113 601 113 570 L113 88 C113 57 103 48 29 45 L29 0 L372 0 L372 45 C323 48 294 55 294 88 L294 306 Z M284 -351 C389 -312 437 -246 437 -168 C437 -105 397 -69 350 -69 C310 -69 276 -102 276 -141 C276 -185 309 -213 342 -213 C347 -213 352 -212 357 -211 L361 -216 C358 -241 331 -278 263 -314 L284 -351 Z " />
<glyph glyph-name="rcommaaccent" unicode="&#x157;" horiz-adv-x="483" d="M25 0 L339 0 L339 41 C262 44 247 52 247 76 L247 340 C265 360 296 378 320 379 C319 373 318 363 318 358 C318 318 348 289 399 289 C445 289 478 327 478 379 C478 431 444 469 382 469 C327 469 279 428 245 383 L245 466 L25 454 L25 413 C82 412 93 394 93 364 L93 76 C93 52 82 42 25 41 L25 0 Z M92 -351 C197 -312 245 -246 245 -168 C245 -105 205 -69 158 -69 C118 -69 84 -102 84 -141 C84 -185 117 -213 150 -213 C155 -213 160 -212 165 -211 L169 -216 C166 -241 139 -278 71 -314 L92 -351 Z " />
<glyph glyph-name="Rcaron" unicode="&#x158;" horiz-adv-x="713" d="M294 352 L294 610 L327 610 C430 610 458 567 458 485 C458 385 437 352 334 352 L294 352 Z M294 306 L319 306 C422 306 443 286 447 190 L453 113 C459 34 481 -4 627 -4 C657 -4 690 -3 729 0 L729 45 C658 49 648 59 641 126 L633 198 C625 274 586 329 446 330 L446 333 C598 356 643 418 643 498 C643 581 584 658 384 658 L29 658 L29 613 C103 610 113 601 113 570 L113 88 C113 57 103 48 29 45 L29 0 L372 0 L372 45 C323 48 294 55 294 88 L294 306 Z M302 724 L401 724 L521 917 L456 917 L355 815 L255 917 L191 917 L302 724 Z " />
<glyph glyph-name="rcaron" unicode="&#x159;" horiz-adv-x="483" d="M25 0 L339 0 L339 41 C262 44 247 52 247 76 L247 340 C265 360 296 378 320 379 C319 373 318 363 318 358 C318 318 348 289 399 289 C445 289 478 327 478 379 C478 431 444 469 382 469 C327 469 279 428 245 383 L245 466 L25 454 L25 413 C82 412 93 394 93 364 L93 76 C93 52 82 42 25 41 L25 0 Z M212 524 L311 524 L431 717 L366 717 L265 615 L165 717 L101 717 L212 524 Z " />
<glyph glyph-name="Sacute" unicode="&#x15a;" horiz-adv-x="567" d="M49 -20 L100 -20 L127 16 C166 -6 233 -16 287 -16 C460 -16 534 94 534 217 C534 341 431 388 339 416 C225 451 186 472 186 536 C186 587 222 624 276 624 C345 624 401 565 449 470 L503 470 L503 678 L452 678 L425 642 C395 659 339 674 288 674 C145 674 53 585 53 458 C53 335 157 285 268 252 C376 220 412 194 412 130 C412 83 380 34 306 34 C223 34 154 108 103 218 L49 218 L49 -20 Z M229 734 L304 734 L369 806 C428 871 440 882 440 919 C440 951 409 980 380 980 C331 980 319 955 281 861 L229 734 Z " />
<glyph glyph-name="sacute" unicode="&#x15b;" horiz-adv-x="474" d="M46 -8 L97 -8 L127 21 C153 5 208 -8 245 -8 C362 -8 445 60 445 154 C445 240 383 279 273 305 C210 320 170 331 170 372 C170 403 198 422 234 422 C282 422 326 385 372 326 L420 326 L420 472 L371 472 L346 443 C323 458 280 472 245 472 C130 472 46 410 46 313 C46 237 89 204 197 174 C284 150 321 130 321 90 C321 61 301 42 252 42 C203 42 137 81 94 155 L46 155 L46 -8 Z M193 524 L268 524 L333 596 C392 661 404 672 404 709 C404 741 373 770 344 770 C295 770 283 745 245 651 L193 524 Z " />
<glyph glyph-name="Scedilla" unicode="&#x15e;" horiz-adv-x="567" d="M258 -260 C338 -260 385 -217 385 -160 C385 -112 345 -73 260 -73 L259 -71 L323 -14 C470 0 534 103 534 217 C534 341 431 388 339 416 C225 451 186 472 186 536 C186 587 222 624 276 624 C345 624 401 565 449 470 L503 470 L503 678 L452 678 L425 642 C395 659 339 674 288 674 C145 674 53 585 53 458 C53 335 157 285 268 252 C376 220 412 194 412 130 C412 83 380 34 306 34 C223 34 154 108 103 218 L49 218 L49 -20 L100 -20 L127 16 C159 -2 211 -12 259 -15 L176 -94 L200 -137 C216 -134 227 -132 246 -132 C285 -132 306 -150 306 -171 C306 -195 290 -213 250 -213 C218 -213 190 -204 166 -196 L146 -234 C183 -251 229 -260 258 -260 L258 -260 Z " />
<glyph glyph-name="scedilla" unicode="&#x15f;" horiz-adv-x="474" d="M212 -260 C292 -260 339 -217 339 -160 C339 -112 299 -73 214 -73 L213 -71 L287 -5 C381 9 445 72 445 154 C445 240 383 279 273 305 C210 320 170 331 170 372 C170 403 198 422 234 422 C282 422 326 385 372 326 L420 326 L420 472 L371 472 L346 443 C323 458 280 472 245 472 C130 472 46 410 46 313 C46 237 89 204 197 174 C284 150 321 130 321 90 C321 61 301 42 252 42 C203 42 137 81 94 155 L46 155 L46 -8 L97 -8 L127 21 C148 8 188 -3 222 -7 L130 -94 L154 -137 C170 -134 181 -132 200 -132 C239 -132 260 -150 260 -171 C260 -195 244 -213 204 -213 C172 -213 144 -204 120 -196 L100 -234 C137 -251 183 -260 212 -260 L212 -260 Z " />
<glyph glyph-name="Scaron" unicode="&#x160;" horiz-adv-x="567" d="M49 -20 L100 -20 L127 16 C166 -6 233 -16 287 -16 C460 -16 534 94 534 217 C534 341 431 388 339 416 C225 451 186 472 186 536 C186 587 222 624 276 624 C345 624 401 565 449 470 L503 470 L503 678 L452 678 L425 642 C395 659 339 674 288 674 C145 674 53 585 53 458 C53 335 157 285 268 252 C376 220 412 194 412 130 C412 83 380 34 306 34 C223 34 154 108 103 218 L49 218 L49 -20 Z M255 734 L354 734 L474 927 L409 927 L308 825 L208 927 L144 927 L255 734 Z " />
<glyph glyph-name="scaron" unicode="&#x161;" horiz-adv-x="474" d="M46 -8 L97 -8 L127 21 C153 5 208 -8 245 -8 C362 -8 445 60 445 154 C445 240 383 279 273 305 C210 320 170 331 170 372 C170 403 198 422 234 422 C282 422 326 385 372 326 L420 326 L420 472 L371 472 L346 443 C323 458 280 472 245 472 C130 472 46 410 46 313 C46 237 89 204 197 174 C284 150 321 130 321 90 C321 61 301 42 252 42 C203 42 137 81 94 155 L46 155 L46 -8 Z M199 524 L298 524 L418 717 L353 717 L252 615 L152 717 L88 717 L199 524 Z " />
<glyph glyph-name="Tcommaaccent" unicode="&#x162;" horiz-adv-x="715" d="M168 0 L547 0 L547 45 C464 47 448 57 448 88 L448 610 L456 610 C529 610 573 543 622 420 L674 422 L669 658 L46 658 L41 422 L93 420 C143 539 186 610 259 610 L267 610 L267 88 C267 57 251 47 168 45 L168 0 Z M285 -351 C390 -312 438 -246 438 -168 C438 -105 398 -69 351 -69 C311 -69 277 -102 277 -141 C277 -185 310 -213 343 -213 C348 -213 353 -212 358 -211 L362 -216 C359 -241 332 -278 264 -314 L285 -351 Z " />
<glyph glyph-name="tcommaaccent" unicode="&#x163;" horiz-adv-x="413" d="M244 -8 C325 -8 382 35 416 111 L381 132 C359 91 331 67 304 67 C269 67 250 92 250 138 L250 400 L399 400 L399 462 L250 462 L250 628 L98 586 L98 464 L9 446 L9 398 L96 398 L96 137 C96 28 162 -8 244 -8 L244 -8 Z M151 -351 C256 -312 304 -246 304 -168 C304 -105 264 -69 217 -69 C177 -69 143 -102 143 -141 C143 -185 176 -213 209 -213 C214 -213 219 -212 224 -211 L228 -216 C225 -241 198 -278 130 -314 L151 -351 Z " />
<glyph glyph-name="Tcaron" unicode="&#x164;" horiz-adv-x="715" d="M168 0 L547 0 L547 45 C464 47 448 57 448 88 L448 610 L456 610 C529 610 573 543 622 420 L674 422 L669 658 L46 658 L41 422 L93 420 C143 539 186 610 259 610 L267 610 L267 88 C267 57 251 47 168 45 L168 0 Z M303 734 L402 734 L522 927 L457 927 L356 825 L256 927 L192 927 L303 734 Z " />
<glyph glyph-name="tcaron" unicode="&#x165;" horiz-adv-x="413" d="M349 552 L401 552 L439 691 C442 701 456 750 456 773 C456 818 423 835 396 835 C366 835 330 816 330 757 C330 729 337 669 337 667 L349 552 Z M244 -8 C325 -8 382 35 416 111 L381 132 C359 91 331 67 304 67 C269 67 250 92 250 138 L250 400 L399 400 L399 462 L250 462 L250 628 L98 586 L98 464 L9 446 L9 398 L96 398 L96 137 C96 28 162 -8 244 -8 L244 -8 Z " />
<glyph glyph-name="Umacron" unicode="&#x16a;" horiz-adv-x="771" d="M402 -16 C580 -16 663 77 663 230 L663 462 C663 558 667 602 756 613 L756 658 L486 658 L486 613 C581 604 602 558 602 462 L602 247 C602 171 587 128 556 97 C531 72 497 60 454 60 C347 60 294 110 294 227 L294 570 C294 603 323 610 372 613 L372 658 L29 658 L29 613 C103 610 113 601 113 570 L113 232 C113 54 219 -16 402 -16 L402 -16 Z M280 749 L571 749 L571 826 L280 826 L280 749 Z " />
<glyph glyph-name="umacron" unicode="&#x16b;" horiz-adv-x="610" d="M219 -8 C281 -8 330 26 375 73 L375 0 L595 0 L595 41 C540 44 527 50 527 80 L527 466 L305 461 L305 420 C359 418 373 402 373 372 L373 109 C347 96 330 89 299 89 C254 89 235 120 235 169 L235 466 L13 462 L13 421 C70 420 81 402 81 372 L81 143 C81 47 131 -8 219 -8 L219 -8 Z M159 549 L450 549 L450 626 L159 626 L159 549 Z " />
<glyph glyph-name="Ubreve" unicode="&#x16c;" horiz-adv-x="771" d="M402 -16 C580 -16 663 77 663 230 L663 462 C663 558 667 602 756 613 L756 658 L486 658 L486 613 C581 604 602 558 602 462 L602 247 C602 171 587 128 556 97 C531 72 497 60 454 60 C347 60 294 110 294 227 L294 570 C294 603 323 610 372 613 L372 658 L29 658 L29 613 C103 610 113 601 113 570 L113 232 C113 54 219 -16 402 -16 L402 -16 Z M426 732 C511 732 574 793 574 910 L513 910 C505 852 476 820 426 820 C374 820 345 852 337 910 L276 910 C276 793 338 732 426 732 L426 732 Z " />
<glyph glyph-name="ubreve" unicode="&#x16d;" horiz-adv-x="610" d="M219 -8 C281 -8 330 26 375 73 L375 0 L595 0 L595 41 C540 44 527 50 527 80 L527 466 L305 461 L305 420 C359 418 373 402 373 372 L373 109 C347 96 330 89 299 89 C254 89 235 120 235 169 L235 466 L13 462 L13 421 C70 420 81 402 81 372 L81 143 C81 47 131 -8 219 -8 L219 -8 Z M306 532 C391 532 454 593 454 710 L393 710 C385 652 356 620 306 620 C254 620 225 652 217 710 L156 710 C156 593 218 532 306 532 L306 532 Z " />
<glyph glyph-name="Uring" unicode="&#x16e;" horiz-adv-x="771" d="M402 -16 C580 -16 663 77 663 230 L663 462 C663 558 667 602 756 613 L756 658 L486 658 L486 613 C581 604 602 558 602 462 L602 247 C602 171 587 128 556 97 C531 72 497 60 454 60 C347 60 294 110 294 227 L294 570 C294 603 323 610 372 613 L372 658 L29 658 L29 613 C103 610 113 601 113 570 L113 232 C113 54 219 -16 402 -16 L402 -16 Z M425 732 C504 732 562 777 562 856 C562 936 505 980 425 980 C346 980 288 935 288 856 C288 776 345 732 425 732 L425 732 Z M425 779 C380 779 365 817 365 856 C365 896 379 933 425 933 C470 933 485 895 485 856 C485 816 471 779 425 779 L425 779 Z " />
<glyph glyph-name="uring" unicode="&#x16f;" horiz-adv-x="610" d="M219 -8 C281 -8 330 26 375 73 L375 0 L595 0 L595 41 C540 44 527 50 527 80 L527 466 L305 461 L305 420 C359 418 373 402 373 372 L373 109 C347 96 330 89 299 89 C254 89 235 120 235 169 L235 466 L13 462 L13 421 C70 420 81 402 81 372 L81 143 C81 47 131 -8 219 -8 L219 -8 Z M305 532 C384 532 442 577 442 656 C442 736 385 780 305 780 C226 780 168 735 168 656 C168 576 225 532 305 532 L305 532 Z M305 579 C260 579 245 617 245 656 C245 696 259 733 305 733 C350 733 365 695 365 656 C365 616 351 579 305 579 L305 579 Z " />
<glyph glyph-name="Uhungarumlaut" unicode="&#x170;" horiz-adv-x="771" d="M402 -16 C580 -16 663 77 663 230 L663 462 C663 558 667 602 756 613 L756 658 L486 658 L486 613 C581 604 602 558 602 462 L602 247 C602 171 587 128 556 97 C531 72 497 60 454 60 C347 60 294 110 294 227 L294 570 C294 603 323 610 372 613 L372 658 L29 658 L29 613 C103 610 113 601 113 570 L113 232 C113 54 219 -16 402 -16 L402 -16 Z M462 724 L537 724 L597 798 C653 867 660 878 660 911 C660 943 624 970 595 970 C546 970 536 947 505 853 C505 853 463 724 462 724 L462 724 Z M265 724 L340 724 L400 798 C456 867 463 878 463 911 C463 943 427 970 398 970 C349 970 339 947 308 853 C308 853 266 724 265 724 L265 724 Z " />
<glyph glyph-name="uhungarumlaut" unicode="&#x171;" horiz-adv-x="610" d="M219 -8 C281 -8 330 26 375 73 L375 0 L595 0 L595 41 C540 44 527 50 527 80 L527 466 L305 461 L305 420 C359 418 373 402 373 372 L373 109 C347 96 330 89 299 89 C254 89 235 120 235 169 L235 466 L13 462 L13 421 C70 420 81 402 81 372 L81 143 C81 47 131 -8 219 -8 L219 -8 Z M346 524 L421 524 L481 598 C537 667 544 678 544 711 C544 743 508 770 479 770 C430 770 420 747 389 653 C389 653 347 524 346 524 L346 524 Z M149 524 L224 524 L284 598 C340 667 347 678 347 711 C347 743 311 770 282 770 C233 770 223 747 192 653 C192 653 150 524 149 524 L149 524 Z " />
<glyph glyph-name="Uogonek" unicode="&#x172;" horiz-adv-x="771" d="M401 -242 C447 -242 488 -227 532 -197 L514 -161 C484 -175 459 -181 435 -181 C399 -181 375 -164 375 -130 C375 -104 387 -75 439 -21 L446 -14 C593 0 663 90 663 230 L663 462 C663 558 667 602 756 613 L756 658 L486 658 L486 613 C581 604 602 558 602 462 L602 247 C602 171 587 128 556 97 C531 72 497 60 454 60 C347 60 294 110 294 227 L294 570 C294 603 323 610 372 613 L372 658 L29 658 L29 613 C103 610 113 601 113 570 L113 232 C113 63 208 -8 373 -15 C313 -57 280 -99 280 -145 C280 -207 331 -242 401 -242 L401 -242 Z " />
<glyph glyph-name="uogonek" unicode="&#x173;" horiz-adv-x="610" d="M219 -8 C281 -8 330 26 375 73 L375 0 L467 0 L461 -4 C390 -50 351 -95 351 -145 C351 -207 402 -242 472 -242 C518 -242 559 -227 603 -197 L585 -161 C555 -175 530 -181 506 -181 C470 -181 446 -164 446 -130 C446 -104 458 -75 510 -21 L530 0 L595 0 L595 41 C540 44 527 50 527 80 L527 466 L305 461 L305 420 C359 418 373 402 373 372 L373 109 C347 96 330 89 299 89 C254 89 235 120 235 169 L235 466 L13 462 L13 421 C70 420 81 402 81 372 L81 143 C81 47 131 -8 219 -8 L219 -8 Z " />
<glyph glyph-name="Wcircumflex" unicode="&#x174;" horiz-adv-x="1059" d="M511 433 L404 150 L394 150 L278 553 C268 589 268 610 331 613 L331 658 L9 658 L9 613 C67 601 80 590 96 542 L273 -6 L421 -6 L544 330 L650 -6 L798 -6 L956 483 C987 577 1008 595 1081 613 L1081 658 L809 658 L809 613 C891 600 905 574 878 482 L781 148 L771 148 L659 553 C648 588 663 610 734 613 L734 658 L398 658 L398 613 C452 606 459 594 477 542 L511 433 Z M399 734 L464 734 L565 836 L665 734 L729 734 L618 927 L519 927 L399 734 Z " />
<glyph glyph-name="wcircumflex" unicode="&#x175;" horiz-adv-x="795" d="M383 308 L316 144 L309 144 L223 374 C219 386 216 396 216 403 C216 417 225 422 250 423 L250 464 L-1 464 L-1 423 C44 418 58 403 73 362 L211 -6 L320 -6 L411 221 L485 -6 L592 -6 L716 346 C731 390 749 415 796 423 L796 464 L596 464 L596 423 C639 417 658 405 658 377 C658 368 655 351 648 331 L581 148 L574 148 L505 374 C502 385 499 394 499 400 C499 416 511 421 548 423 L548 464 L302 464 L302 423 C338 421 349 410 365 362 L383 308 Z M251 524 L316 524 L417 626 L517 524 L581 524 L470 717 L371 717 L251 524 Z " />
<glyph glyph-name="Ycircumflex" unicode="&#x176;" horiz-adv-x="705" d="M409 346 L297 551 C275 591 274 609 359 613 L359 658 L-1 658 L-1 613 C60 606 76 592 100 552 L266 273 L266 88 C266 57 254 48 180 45 L180 0 L533 0 L533 45 C459 48 447 57 447 88 L447 295 L583 510 C626 578 646 604 706 613 L706 658 L463 658 L463 613 C542 604 548 577 502 500 L409 346 Z M219 734 L284 734 L385 836 L485 734 L549 734 L438 927 L339 927 L219 734 Z " />
<glyph glyph-name="ycircumflex" unicode="&#x177;" horiz-adv-x="538" d="M249 2 L246 -5 C205 -102 191 -127 168 -135 C169 -131 171 -123 171 -117 C171 -82 148 -43 98 -43 C51 -43 19 -82 19 -120 C19 -172 60 -208 124 -208 C187 -208 239 -170 295 -43 L474 350 C497 401 521 420 552 423 L552 464 L351 464 L351 423 C413 414 426 386 402 331 L324 152 L233 374 C222 402 229 417 281 423 L281 464 L-6 464 L-6 423 C40 414 58 402 77 362 L249 2 Z M132 524 L197 524 L298 626 L398 524 L462 524 L351 717 L252 717 L132 524 Z " />
<glyph glyph-name="Ydieresis" unicode="&#x178;" horiz-adv-x="705" d="M409 346 L297 551 C275 591 274 609 359 613 L359 658 L-1 658 L-1 613 C60 606 76 592 100 552 L266 273 L266 88 C266 57 254 48 180 45 L180 0 L533 0 L533 45 C459 48 447 57 447 88 L447 295 L583 510 C626 578 646 604 706 613 L706 658 L463 658 L463 613 C542 604 548 577 502 500 L409 346 Z M472 732 C520 732 550 766 550 809 C550 854 522 887 472 887 C424 887 394 852 394 809 C394 764 422 732 472 732 L472 732 Z M262 732 C310 732 340 766 340 809 C340 854 312 887 262 887 C214 887 184 852 184 809 C184 764 212 732 262 732 L262 732 Z " />
<glyph glyph-name="Zacute" unicode="&#x179;" horiz-adv-x="659" d="M32 0 L618 0 L626 247 L561 249 C510 127 476 52 378 52 L234 52 L632 608 L632 658 L62 658 L54 425 L117 423 C166 539 199 606 291 606 L430 606 L32 50 L32 0 Z M285 734 L360 734 L425 806 C484 871 496 882 496 919 C496 951 465 980 436 980 C387 980 375 955 337 861 L285 734 Z " />
<glyph glyph-name="zacute" unicode="&#x17a;" horiz-adv-x="502" d="M34 0 L462 0 L471 189 L424 191 C394 111 362 56 276 56 L207 56 L478 418 L476 464 L59 464 L50 284 L97 282 C128 362 153 408 239 408 L304 408 L32 46 L34 0 Z M210 524 L285 524 L350 596 C409 661 421 672 421 709 C421 741 390 770 361 770 C312 770 300 745 262 651 L210 524 Z " />
<glyph glyph-name="Zdotaccent" unicode="&#x17b;" horiz-adv-x="659" d="M32 0 L618 0 L626 247 L561 249 C510 127 476 52 378 52 L234 52 L632 608 L632 658 L62 658 L54 425 L117 423 C166 539 199 606 291 606 L430 606 L32 50 L32 0 Z M344 732 C398 732 433 767 433 822 C433 875 398 909 344 909 C291 909 255 873 255 818 C255 763 291 732 344 732 L344 732 Z " />
<glyph glyph-name="zdotaccent" unicode="&#x17c;" horiz-adv-x="502" d="M34 0 L462 0 L471 189 L424 191 C394 111 362 56 276 56 L207 56 L478 418 L476 464 L59 464 L50 284 L97 282 C128 362 153 408 239 408 L304 408 L32 46 L34 0 Z M271 532 C325 532 360 567 360 622 C360 675 325 709 271 709 C218 709 182 673 182 618 C182 563 218 532 271 532 L271 532 Z " />
<glyph glyph-name="Zcaron" unicode="&#x17d;" horiz-adv-x="659" d="M32 0 L618 0 L626 247 L561 249 C510 127 476 52 378 52 L234 52 L632 608 L632 658 L62 658 L54 425 L117 423 C166 539 199 606 291 606 L430 606 L32 50 L32 0 Z M265 734 L364 734 L484 927 L419 927 L318 825 L218 927 L154 927 L265 734 Z " />
<glyph glyph-name="zcaron" unicode="&#x17e;" horiz-adv-x="502" d="M34 0 L462 0 L471 189 L424 191 C394 111 362 56 276 56 L207 56 L478 418 L476 464 L59 464 L50 284 L97 282 C128 362 153 408 239 408 L304 408 L32 46 L34 0 Z M195 524 L294 524 L414 717 L349 717 L248 615 L148 717 L84 717 L195 524 Z " />
<glyph glyph-name="Aringacute" unicode="&#x1fa;" horiz-adv-x="707" d="M306 897 L381 897 L446 969 C505 1034 517 1045 517 1082 C517 1114 486 1143 457 1143 C408 1143 396 1118 358 1024 L306 897 Z M352 669 C307 669 292 704 292 743 C292 783 306 820 352 820 C397 820 412 782 412 743 C412 703 398 669 352 669 L352 669 Z M198 235 L398 235 L439 113 C454 69 438 50 346 45 L346 0 L720 0 L720 45 C652 58 638 70 623 110 L432 639 C467 659 489 695 489 743 C489 823 432 867 352 867 C273 867 215 822 215 743 C215 691 239 654 278 635 L97 166 C64 81 49 61 -13 45 L-13 0 L228 0 L228 45 C150 58 138 72 168 153 L198 235 Z M382 283 L216 283 L301 513 L305 513 L382 283 Z " />
<glyph glyph-name="aringacute" unicode="&#x1fb;" horiz-adv-x="538" d="M176 -11 C233 -11 285 16 325 55 L329 55 C347 12 365 -10 433 -10 C476 -10 513 5 551 32 L537 64 C482 53 472 60 472 109 L472 291 C472 408 420 469 289 469 C138 469 58 426 58 363 C58 319 86 289 138 289 C190 289 222 321 222 366 C222 387 215 404 209 416 C218 420 233 422 246 422 C295 422 322 401 322 330 L322 268 C281 257 169 260 99 222 C57 199 34 153 34 113 C34 54 76 -11 176 -11 L176 -11 Z M260 67 C221 67 196 96 196 141 C196 198 233 220 322 228 L322 100 C307 81 288 67 260 67 L260 67 Z M270 532 C349 532 407 577 407 656 C407 736 350 780 270 780 C191 780 133 735 133 656 C133 576 190 532 270 532 L270 532 Z M270 579 C225 579 210 617 210 656 C210 696 224 733 270 733 C315 733 330 695 330 656 C330 616 316 579 270 579 L270 579 Z M232 810 L307 810 L372 882 C431 947 443 958 443 995 C443 1027 412 1056 383 1056 C334 1056 322 1031 284 937 L232 810 Z " />
<glyph glyph-name="AEacute" unicode="&#x1fc;" horiz-adv-x="1055" d="M565 734 L640 734 L705 806 C764 871 776 882 776 919 C776 951 745 980 716 980 C667 980 655 955 617 861 L565 734 Z M255 255 L475 255 L475 88 C475 57 465 48 391 45 L391 0 L997 0 L1007 254 L953 256 C907 128 867 49 721 49 L656 49 L656 308 L671 308 C735 308 757 296 792 207 L837 207 L837 454 L792 454 C757 365 735 356 671 356 L656 356 L656 610 L731 610 C853 610 891 533 930 420 L984 422 L975 658 L287 658 L287 613 C347 606 370 594 370 572 C370 562 365 550 355 534 L123 168 C67 80 50 55 -28 39 L-28 0 L212 0 L212 39 C173 46 156 55 156 74 C156 90 168 114 190 149 L255 255 Z M475 303 L285 303 L460 587 L475 587 L475 303 Z " />
<glyph glyph-name="aeacute" unicode="&#x1fd;" horiz-adv-x="804" d="M567 475 C510 475 463 457 417 422 C390 452 349 469 279 469 C140 469 58 426 58 363 C58 319 86 289 138 289 C190 289 222 321 222 366 C222 387 215 404 209 416 C218 420 233 422 246 422 C295 422 332 401 332 330 L332 270 C291 259 169 260 99 222 C57 199 34 153 34 113 C34 54 76 -11 176 -11 C245 -11 316 24 361 78 L371 78 C407 19 466 -11 562 -11 C660 -11 725 34 772 108 L741 132 C704 80 659 53 609 53 C519 53 478 121 478 225 L478 226 L478 228 L774 228 C782 369 710 475 567 475 L567 475 Z M364 524 L439 524 L504 596 C563 661 575 672 575 709 C575 741 544 770 515 770 C466 770 454 745 416 651 L364 524 Z M555 428 C610 428 630 359 620 272 L479 270 C483 370 506 428 555 428 L555 428 Z M260 67 C221 67 196 96 196 141 C196 198 243 222 332 230 L332 100 C317 81 288 67 260 67 L260 67 Z " />
<glyph glyph-name="Oslashacute" unicode="&#x1fe;" horiz-adv-x="744" d="M372 -16 C290 -16 221 3 167 40 L106 -34 L28 -34 L121 79 C65 138 35 223 35 327 C35 538 168 674 372 674 C453 674 522 653 576 617 L638 692 L716 692 L622 578 C678 519 709 434 709 331 C709 119 576 -16 372 -16 L372 -16 Z M368 624 C262 624 229 543 229 329 C229 281 231 240 235 205 L495 519 C474 593 433 624 368 624 L368 624 Z M376 34 C482 34 515 114 515 329 C515 376 513 418 508 453 L248 138 C270 64 310 34 376 34 L376 34 Z M318 734 L393 734 L458 806 C517 871 529 882 529 919 C529 951 498 980 469 980 C420 980 408 955 370 861 L318 734 Z " />
<glyph glyph-name="oslashacute" unicode="&#x1ff;" horiz-adv-x="555" d="M96 -24 L134 22 C173 0 221 -11 278 -11 C430 -11 526 83 526 235 C526 308 504 367 464 408 L531 488 L459 488 L420 441 C382 463 334 475 278 475 C125 475 29 382 29 231 C29 157 50 98 90 56 L24 -24 L96 -24 Z M223 524 L298 524 L363 596 C422 661 434 672 434 709 C434 741 403 770 374 770 C325 770 313 745 275 651 L223 524 Z M192 233 C192 370 206 428 273 428 C314 428 339 406 351 358 L194 168 C192 187 192 209 192 233 L192 233 Z M282 36 C241 36 216 58 203 106 L361 296 C362 277 363 256 363 233 C363 96 348 36 282 36 L282 36 Z " />
<glyph glyph-name="Scommaaccent" unicode="&#x218;" horiz-adv-x="567" d="M49 -20 L100 -20 L127 16 C166 -6 233 -16 287 -16 C460 -16 534 94 534 217 C534 341 431 388 339 416 C225 451 186 472 186 536 C186 587 222 624 276 624 C345 624 401 565 449 470 L503 470 L503 678 L452 678 L425 642 C395 659 339 674 288 674 C145 674 53 585 53 458 C53 335 157 285 268 252 C376 220 412 194 412 130 C412 83 380 34 306 34 C223 34 154 108 103 218 L49 218 L49 -20 Z M211 -351 C316 -312 364 -246 364 -168 C364 -105 324 -69 277 -69 C237 -69 203 -102 203 -141 C203 -185 236 -213 269 -213 C274 -213 279 -212 284 -211 L288 -216 C285 -241 258 -278 190 -314 L211 -351 Z " />
<glyph glyph-name="scommaaccent" unicode="&#x219;" horiz-adv-x="474" d="M46 -8 L97 -8 L127 21 C153 5 208 -8 245 -8 C362 -8 445 60 445 154 C445 240 383 279 273 305 C210 320 170 331 170 372 C170 403 198 422 234 422 C282 422 326 385 372 326 L420 326 L420 472 L371 472 L346 443 C323 458 280 472 245 472 C130 472 46 410 46 313 C46 237 89 204 197 174 C284 150 321 130 321 90 C321 61 301 42 252 42 C203 42 137 81 94 155 L46 155 L46 -8 Z M165 -351 C270 -312 318 -246 318 -168 C318 -105 278 -69 231 -69 C191 -69 157 -102 157 -141 C157 -185 190 -213 223 -213 C228 -213 233 -212 238 -211 L242 -216 C239 -241 212 -278 144 -314 L165 -351 Z " />
<glyph glyph-name="schwa" unicode="&#x259;" horiz-adv-x="517" d="M242 475 C144 475 79 430 32 356 L63 332 C100 384 145 411 195 411 C285 411 326 343 326 239 L326 238 L326 236 L30 236 C22 95 96 -11 243 -11 C389 -11 488 80 488 239 C488 393 398 475 242 475 L242 475 Z M249 36 C194 36 174 105 184 192 L325 193 C320 94 298 36 249 36 L249 36 Z " />
<glyph glyph-name="circumflex" unicode="&#x2c6;" horiz-adv-x="350" d="M10 524 L75 524 L176 626 L276 524 L340 524 L229 717 L130 717 L10 524 Z " />
<glyph glyph-name="caron" unicode="&#x2c7;" horiz-adv-x="350" d="M121 524 L220 524 L340 717 L275 717 L174 615 L74 717 L10 717 L121 524 Z " />
<glyph glyph-name="breve" unicode="&#x2d8;" horiz-adv-x="376" d="M189 532 C274 532 337 593 337 710 L276 710 C268 652 239 620 189 620 C137 620 108 652 100 710 L39 710 C39 593 101 532 189 532 L189 532 Z " />
<glyph glyph-name="dotaccent" unicode="&#x2d9;" horiz-adv-x="262" d="M131 532 C185 532 220 567 220 622 C220 675 185 709 131 709 C78 709 42 673 42 618 C42 563 78 532 131 532 L131 532 Z " />
<glyph glyph-name="ring" unicode="&#x2da;" horiz-adv-x="344" d="M172 532 C251 532 309 577 309 656 C309 736 252 780 172 780 C93 780 35 735 35 656 C35 576 92 532 172 532 L172 532 Z M172 579 C127 579 112 617 112 656 C112 696 126 733 172 733 C217 733 232 695 232 656 C232 616 218 579 172 579 L172 579 Z " />
<glyph glyph-name="ogonek" unicode="&#x2db;" horiz-adv-x="289" d="M133 -242 C179 -242 220 -227 264 -197 L246 -161 C216 -175 191 -181 167 -181 C131 -181 107 -164 107 -130 C107 -104 119 -75 171 -21 L205 14 L150 14 L122 -4 C51 -50 12 -95 12 -145 C12 -207 63 -242 133 -242 L133 -242 Z " />
<glyph glyph-name="tilde" unicode="&#x2dc;" horiz-adv-x="371" d="M16 526 L76 526 C84 562 95 571 110 571 C152 571 203 530 250 530 C325 530 347 589 355 678 L295 678 C287 642 276 633 261 633 C219 633 168 674 121 674 C46 674 24 615 16 526 L16 526 Z " />
<glyph glyph-name="hungarumlaut" unicode="&#x2dd;" horiz-adv-x="475" d="M234 524 L309 524 L369 598 C425 667 432 678 432 711 C432 743 396 770 367 770 C318 770 308 747 277 653 C277 653 235 524 234 524 L234 524 Z M37 524 L112 524 L172 598 C228 667 235 678 235 711 C235 743 199 770 170 770 C121 770 111 747 80 653 C80 653 38 524 37 524 L37 524 Z " />
<glyph glyph-name="commaaccent" unicode="&#x326;" horiz-adv-x="278" d="M67 -351 C172 -312 220 -246 220 -168 C220 -105 180 -69 133 -69 C93 -69 59 -102 59 -141 C59 -185 92 -213 125 -213 C130 -213 135 -212 140 -211 L144 -216 C141 -241 114 -278 46 -314 L67 -351 Z " />
<glyph glyph-name="Wgrave" unicode="&#x1e80;" horiz-adv-x="1059" d="M511 433 L404 150 L394 150 L278 553 C268 589 268 610 331 613 L331 658 L9 658 L9 613 C67 601 80 590 96 542 L273 -6 L421 -6 L544 330 L650 -6 L798 -6 L956 483 C987 577 1008 595 1081 613 L1081 658 L809 658 L809 613 C891 600 905 574 878 482 L781 148 L771 148 L659 553 C648 588 663 610 734 613 L734 658 L398 658 L398 613 C452 606 459 594 477 542 L511 433 Z M523 734 L598 734 L546 861 C508 955 496 980 447 980 C418 980 387 951 387 919 C387 882 399 871 458 806 L523 734 Z " />
<glyph glyph-name="wgrave" unicode="&#x1e81;" horiz-adv-x="795" d="M383 308 L316 144 L309 144 L223 374 C219 386 216 396 216 403 C216 417 225 422 250 423 L250 464 L-1 464 L-1 423 C44 418 58 403 73 362 L211 -6 L320 -6 L411 221 L485 -6 L592 -6 L716 346 C731 390 749 415 796 423 L796 464 L596 464 L596 423 C639 417 658 405 658 377 C658 368 655 351 648 331 L581 148 L574 148 L505 374 C502 385 499 394 499 400 C499 416 511 421 548 423 L548 464 L302 464 L302 423 C338 421 349 410 365 362 L383 308 Z M376 524 L451 524 L399 651 C361 745 349 770 300 770 C271 770 240 741 240 709 C240 672 252 661 311 596 L376 524 Z " />
<glyph glyph-name="Wacute" unicode="&#x1e82;" horiz-adv-x="1059" d="M511 433 L404 150 L394 150 L278 553 C268 589 268 610 331 613 L331 658 L9 658 L9 613 C67 601 80 590 96 542 L273 -6 L421 -6 L544 330 L650 -6 L798 -6 L956 483 C987 577 1008 595 1081 613 L1081 658 L809 658 L809 613 C891 600 905 574 878 482 L781 148 L771 148 L659 553 C648 588 663 610 734 613 L734 658 L398 658 L398 613 C452 606 459 594 477 542 L511 433 Z M515 734 L590 734 L655 806 C714 871 726 882 726 919 C726 951 695 980 666 980 C617 980 605 955 567 861 L515 734 Z " />
<glyph glyph-name="wacute" unicode="&#x1e83;" horiz-adv-x="795" d="M383 308 L316 144 L309 144 L223 374 C219 386 216 396 216 403 C216 417 225 422 250 423 L250 464 L-1 464 L-1 423 C44 418 58 403 73 362 L211 -6 L320 -6 L411 221 L485 -6 L592 -6 L716 346 C731 390 749 415 796 423 L796 464 L596 464 L596 423 C639 417 658 405 658 377 C658 368 655 351 648 331 L581 148 L574 148 L505 374 C502 385 499 394 499 400 C499 416 511 421 548 423 L548 464 L302 464 L302 423 C338 421 349 410 365 362 L383 308 Z M383 524 L458 524 L523 596 C582 661 594 672 594 709 C594 741 563 770 534 770 C485 770 473 745 435 651 L383 524 Z " />
<glyph glyph-name="Wdieresis" unicode="&#x1e84;" horiz-adv-x="1059" d="M511 433 L404 150 L394 150 L278 553 C268 589 268 610 331 613 L331 658 L9 658 L9 613 C67 601 80 590 96 542 L273 -6 L421 -6 L544 330 L650 -6 L798 -6 L956 483 C987 577 1008 595 1081 613 L1081 658 L809 658 L809 613 C891 600 905 574 878 482 L781 148 L771 148 L659 553 C648 588 663 610 734 613 L734 658 L398 658 L398 613 C452 606 459 594 477 542 L511 433 Z M669 732 C717 732 747 766 747 809 C747 854 719 887 669 887 C621 887 591 852 591 809 C591 764 619 732 669 732 L669 732 Z M459 732 C507 732 537 766 537 809 C537 854 509 887 459 887 C411 887 381 852 381 809 C381 764 409 732 459 732 L459 732 Z " />
<glyph glyph-name="wdieresis" unicode="&#x1e85;" horiz-adv-x="795" d="M383 308 L316 144 L309 144 L223 374 C219 386 216 396 216 403 C216 417 225 422 250 423 L250 464 L-1 464 L-1 423 C44 418 58 403 73 362 L211 -6 L320 -6 L411 221 L485 -6 L592 -6 L716 346 C731 390 749 415 796 423 L796 464 L596 464 L596 423 C639 417 658 405 658 377 C658 368 655 351 648 331 L581 148 L574 148 L505 374 C502 385 499 394 499 400 C499 416 511 421 548 423 L548 464 L302 464 L302 423 C338 421 349 410 365 362 L383 308 Z M522 532 C570 532 600 566 600 609 C600 654 572 687 522 687 C474 687 444 652 444 609 C444 564 472 532 522 532 L522 532 Z M312 532 C360 532 390 566 390 609 C390 654 362 687 312 687 C264 687 234 652 234 609 C234 564 262 532 312 532 L312 532 Z " />
<glyph glyph-name="Ygrave" unicode="&#x1ef2;" horiz-adv-x="705" d="M409 346 L297 551 C275 591 274 609 359 613 L359 658 L-1 658 L-1 613 C60 606 76 592 100 552 L266 273 L266 88 C266 57 254 48 180 45 L180 0 L533 0 L533 45 C459 48 447 57 447 88 L447 295 L583 510 C626 578 646 604 706 613 L706 658 L463 658 L463 613 C542 604 548 577 502 500 L409 346 Z M336 734 L411 734 L359 861 C321 955 309 980 260 980 C231 980 200 951 200 919 C200 882 212 871 271 806 L336 734 Z " />
<glyph glyph-name="ygrave" unicode="&#x1ef3;" horiz-adv-x="538" d="M249 2 L246 -5 C205 -102 191 -127 168 -135 C169 -131 171 -123 171 -117 C171 -82 148 -43 98 -43 C51 -43 19 -82 19 -120 C19 -172 60 -208 124 -208 C187 -208 239 -170 295 -43 L474 350 C497 401 521 420 552 423 L552 464 L351 464 L351 423 C413 414 426 386 402 331 L324 152 L233 374 C222 402 229 417 281 423 L281 464 L-6 464 L-6 423 C40 414 58 402 77 362 L249 2 Z M266 524 L341 524 L289 651 C251 745 239 770 190 770 C161 770 130 741 130 709 C130 672 142 661 201 596 L266 524 Z " />
<glyph glyph-name="enspace" unicode="&#x2002;" horiz-adv-x="500" d="" />
<glyph glyph-name="emspace" unicode="&#x2003;" horiz-adv-x="1000" d="" />
<glyph glyph-name="threeperemspace" unicode="&#x2004;" horiz-adv-x="333" d="" />
<glyph glyph-name="fourperemspace" unicode="&#x2005;" horiz-adv-x="250" d="" />
<glyph glyph-name="thinspace" unicode="&#x2009;" horiz-adv-x="133" d="" />
<glyph glyph-name="hairspace" unicode="&#x200a;" horiz-adv-x="75" d="" />
<glyph glyph-name="endash" unicode="&#x2013;" horiz-adv-x="540" d="M45 221 L495 221 L495 292 L45 292 L45 221 Z " />
<glyph glyph-name="emdash" unicode="&#x2014;" horiz-adv-x="790" d="M45 221 L745 221 L745 292 L45 292 L45 221 Z " />
<glyph glyph-name="quoteleft" unicode="&#x2018;" horiz-adv-x="278" d="M146 363 C193 363 233 401 233 447 C233 499 194 531 155 531 C150 531 144 530 139 529 L133 534 C138 565 161 606 237 645 L215 684 C100 642 45 570 45 477 C45 404 92 363 146 363 L146 363 Z " />
<glyph glyph-name="quoteright" unicode="&#x2019;" horiz-adv-x="278" d="M63 353 C178 395 233 467 233 560 C233 633 186 674 132 674 C85 674 45 636 45 590 C45 538 84 506 123 506 C128 506 134 507 139 508 L145 503 C140 472 117 431 41 392 L63 353 Z " />
<glyph glyph-name="quotesinglbase" unicode="&#x201a;" horiz-adv-x="278" d="M63 -158 C178 -116 233 -44 233 49 C233 122 186 163 132 163 C85 163 45 125 45 79 C45 27 84 -5 123 -5 C128 -5 134 -4 139 -3 L145 -8 C140 -39 117 -80 41 -119 L63 -158 Z " />
<glyph glyph-name="quotedblleft" unicode="&#x201c;" horiz-adv-x="520" d="M388 363 C435 363 475 401 475 447 C475 499 436 531 397 531 C392 531 386 530 381 529 L375 534 C380 565 403 606 479 645 L457 684 C342 642 287 570 287 477 C287 404 334 363 388 363 L388 363 Z M146 363 C193 363 233 401 233 447 C233 499 194 531 155 531 C150 531 144 530 139 529 L133 534 C138 565 161 606 237 645 L215 684 C100 642 45 570 45 477 C45 404 92 363 146 363 L146 363 Z " />
<glyph glyph-name="quotedblright" unicode="&#x201d;" horiz-adv-x="520" d="M305 353 C420 395 475 467 475 560 C475 633 428 674 374 674 C327 674 287 636 287 590 C287 538 326 506 365 506 C370 506 376 507 381 508 L387 503 C382 472 359 431 283 392 L305 353 Z M63 353 C178 395 233 467 233 560 C233 633 186 674 132 674 C85 674 45 636 45 590 C45 538 84 506 123 506 C128 506 134 507 139 508 L145 503 C140 472 117 431 41 392 L63 353 Z " />
<glyph glyph-name="quotedblbase" unicode="&#x201e;" horiz-adv-x="520" d="M305 -158 C420 -116 475 -44 475 49 C475 122 428 163 374 163 C327 163 287 125 287 79 C287 27 326 -5 365 -5 C370 -5 376 -4 381 -3 L387 -8 C382 -39 359 -80 283 -119 L305 -158 Z M63 -158 C178 -116 233 -44 233 49 C233 122 186 163 132 163 C85 163 45 125 45 79 C45 27 84 -5 123 -5 C128 -5 134 -4 139 -3 L145 -8 C140 -39 117 -80 41 -119 L63 -158 Z " />
<glyph glyph-name="dagger" unicode="&#x2020;" horiz-adv-x="574" d="M266 -105 L308 -105 L364 291 L319 367 C313 377 311 387 311 395 C311 410 321 420 337 420 C387 420 439 384 486 384 C514 384 545 406 545 442 C545 483 512 507 463 507 C425 507 362 475 314 450 L309 455 L329 542 C340 590 347 622 347 647 C347 683 324 710 287 710 C251 710 227 683 227 647 C227 622 234 590 245 542 L265 455 L260 450 C212 475 149 507 111 507 C62 507 29 483 29 442 C29 406 60 384 88 384 C135 384 187 420 237 420 C253 420 263 410 263 395 C263 387 261 377 255 367 L210 291 L266 -105 Z " />
<glyph glyph-name="daggerdbl" unicode="&#x2021;" horiz-adv-x="574" d="M287 -104 C323 -104 347 -77 347 -41 C347 -16 341 11 329 59 L309 141 L314 146 C362 121 425 89 463 89 C512 89 545 113 545 154 C545 190 514 212 486 212 C439 212 387 176 337 176 C321 176 311 186 311 201 C311 209 313 219 319 229 L364 303 L319 377 C313 387 311 397 311 405 C311 420 321 430 337 430 C387 430 439 394 486 394 C514 394 545 416 545 452 C545 493 512 517 463 517 C425 517 362 485 314 460 L309 465 L329 547 C341 596 347 622 347 647 C347 683 324 710 287 710 C251 710 227 683 227 647 C227 622 233 595 245 547 L265 465 L260 460 C212 485 149 517 111 517 C62 517 29 493 29 452 C29 416 60 394 88 394 C135 394 187 430 237 430 C253 430 263 420 263 405 C263 397 261 387 255 377 L210 303 L255 229 C261 219 263 209 263 201 C263 186 253 176 237 176 C187 176 135 212 88 212 C60 212 29 190 29 154 C29 113 62 89 111 89 C149 89 212 121 260 146 L265 141 L245 59 C233 10 227 -16 227 -41 C227 -77 250 -104 287 -104 L287 -104 Z " />
<glyph glyph-name="bullet" unicode="&#x2022;" horiz-adv-x="490" d="M245 171 C327 171 393 237 393 319 C393 401 327 467 245 467 C163 467 97 401 97 319 C97 237 163 171 245 171 L245 171 Z " />
<glyph glyph-name="ellipsis" unicode="&#x2026;" horiz-adv-x="814" d="M675 -16 C724 -16 769 22 769 73 C769 124 726 162 675 162 C626 162 581 124 581 73 C581 22 624 -16 675 -16 L675 -16 Z M407 -16 C456 -16 501 22 501 73 C501 124 458 162 407 162 C358 162 313 124 313 73 C313 22 356 -16 407 -16 L407 -16 Z M139 -16 C188 -16 233 22 233 73 C233 124 190 162 139 162 C90 162 45 124 45 73 C45 22 88 -16 139 -16 L139 -16 Z " />
<glyph glyph-name="guilsinglleft" unicode="&#x2039;" horiz-adv-x="310" d="M224 30 L262 55 L153 224 L262 392 L224 418 L64 278 C41 258 30 241 30 224 C30 208 41 190 64 170 L224 30 Z " />
<glyph glyph-name="guilsinglright" unicode="&#x203a;" horiz-adv-x="310" d="M86 30 L246 170 C269 190 280 207 280 224 C280 240 269 258 246 278 L86 418 L48 393 L157 224 L48 56 L86 30 Z " />
<glyph glyph-name="fraction" unicode="&#x2044;" horiz-adv-x="540" d="M-12 -82 L69 -82 L309 282 L553 646 L473 646 L233 282 L-12 -82 Z " />
<glyph glyph-name="Euro" unicode="&#x20ac;" horiz-adv-x="669" d="M446 219 L446 269 L289 269 C288 284 288 299 288 316 L288 344 L446 344 L446 394 L291 394 C303 538 352 593 432 593 C467 593 490 581 504 568 C475 552 461 519 461 492 C461 440 494 412 547 412 C598 412 630 455 630 506 C630 592 527 642 420 642 C253 642 139 544 109 394 L29 394 L29 344 L103 344 C102 333 102 323 102 312 C102 297 102 283 103 269 L29 269 L29 219 L110 219 C137 78 229 -16 401 -16 C513 -16 587 37 638 118 L596 149 C546 84 495 59 444 59 C356 59 309 112 294 219 L446 219 Z " />
<glyph glyph-name="published" unicode="&#x2117;" horiz-adv-x="787" d="M393 -32 C607 -32 758 125 758 329 C758 533 607 690 393 690 C179 690 29 533 29 329 C29 125 179 -32 393 -32 L393 -32 Z M393 15 C214 15 84 150 84 329 C84 508 214 643 393 643 C572 643 703 508 703 329 C703 150 572 15 393 15 L393 15 Z M238 148 L437 148 L437 182 C387 184 387 189 387 208 L387 294 L423 294 C537 294 583 352 583 409 C583 469 540 517 423 517 L238 517 L238 482 C280 480 285 475 285 457 L285 208 C285 190 280 185 238 183 L238 148 Z M387 331 L387 480 L414 480 C462 480 480 454 480 407 C480 353 463 331 412 331 L387 331 Z " />
<glyph glyph-name="servicemark" unicode="&#x2120;" horiz-adv-x="881" d="M72 470 L72 350 L98 350 L112 370 C135 359 160 352 191 352 C278 352 315 402 315 457 C315 513 266 535 215 549 C156 565 146 581 146 599 C146 618 162 632 186 632 C221 632 253 602 272 560 L299 560 L299 666 L274 666 L260 646 C241 656 218 664 190 664 C120 664 74 624 74 568 C74 511 123 486 182 471 C239 456 249 442 249 422 C249 401 233 384 205 384 C157 384 122 420 99 470 L72 470 Z M355 361 L487 361 L487 392 C448 397 450 406 450 450 L450 598 L466 598 L544 361 L604 361 L679 598 L699 598 L699 419 C699 400 689 393 663 392 L663 361 L832 361 L832 392 C798 393 784 399 784 418 L784 600 C784 619 798 626 832 627 L832 658 L658 658 L599 469 L592 469 L537 658 L355 658 L355 627 C394 626 408 606 408 589 L408 450 C408 406 398 396 355 392 L355 361 Z " />
<glyph glyph-name="trademark" unicode="&#x2122;" horiz-adv-x="917" d="M391 361 L523 361 L523 392 C484 397 486 406 486 450 L486 598 L502 598 L580 361 L640 361 L715 598 L735 598 L735 419 C735 400 725 393 699 392 L699 361 L868 361 L868 392 C834 393 820 399 820 418 L820 600 C820 619 834 626 868 627 L868 658 L694 658 L635 469 L628 469 L573 658 L391 658 L391 627 C430 626 444 606 444 589 L444 450 C444 406 434 396 391 392 L391 361 Z M98 361 L289 361 L289 392 C244 393 236 402 236 416 L236 626 L244 626 C279 626 302 586 321 535 L351 536 L349 658 L36 658 L34 536 L64 535 C87 589 110 626 143 626 L151 626 L151 416 C151 402 142 393 98 392 L98 361 Z " />
<glyph glyph-name="minus" unicode="&#x2212;" horiz-adv-x="541" d="M52 269 L489 269 L489 347 L52 347 L52 269 Z " />
<glyph glyph-name="f_f" unicode="&#xfb00;" horiz-adv-x="721" d="M338 699 C255 699 198 680 160 642 C123 605 102 551 102 479 L102 459 L15 441 L15 393 L102 393 L102 76 C102 52 92 42 35 41 L35 0 L313 0 L313 41 C267 44 256 52 256 76 L256 395 L426 395 L426 76 C426 52 409 42 369 41 L369 0 L673 0 L673 41 C596 44 580 52 580 76 L580 395 L704 395 L704 457 L580 457 L580 526 C580 592 590 629 607 646 C618 657 629 661 643 661 C651 661 660 660 669 656 C664 644 659 619 659 606 C659 552 691 525 735 525 C785 525 812 558 812 603 C812 658 758 703 648 703 C575 703 520 687 483 653 C456 682 405 699 338 699 L338 699 Z M426 483 L426 457 L256 457 L256 522 C256 586 262 616 284 638 C299 653 318 657 341 657 C355 657 367 653 375 649 C368 635 362 618 362 599 C362 555 386 527 427 522 C426 509 426 496 426 483 L426 483 Z " />
<glyph glyph-name="fi" unicode="&#xfb01;" horiz-adv-x="668" d="M35 0 L313 0 L313 41 C267 44 256 52 256 76 L256 395 L426 395 L426 76 C426 52 409 42 369 41 L369 0 L647 0 L647 41 C589 42 580 52 580 76 L580 466 L376 457 L256 457 L256 516 C256 579 269 615 290 636 C309 655 335 661 363 661 C386 661 404 657 411 653 C399 641 391 620 391 600 C391 557 424 526 472 526 C522 526 550 555 550 600 C550 655 493 703 362 703 C267 703 200 681 157 638 C119 600 102 545 102 473 L102 459 L15 441 L15 393 L102 393 L102 76 C102 52 92 42 35 41 L35 0 Z " />
<glyph glyph-name="fl" unicode="&#xfb02;" horiz-adv-x="662" d="M426 395 L426 76 C426 52 409 42 369 41 L369 0 L647 0 L647 41 C590 42 580 52 580 76 L580 697 L455 688 C428 697 393 703 350 703 C261 703 197 682 157 642 C120 605 102 550 102 478 L102 459 L15 441 L15 393 L102 393 L102 76 C102 52 92 42 35 41 L35 0 L313 0 L313 41 C267 44 256 52 256 76 L256 395 L426 395 Z M426 530 L426 457 L256 457 L256 521 C256 584 268 620 287 639 C304 656 328 661 353 661 C370 661 386 657 393 654 C385 642 378 619 378 603 C378 566 397 540 426 530 L426 530 Z " />
<glyph glyph-name="f_f_i" unicode="&#xfb03;" horiz-adv-x="992" d="M338 699 C255 699 198 680 160 642 C123 605 102 551 102 479 L102 459 L15 441 L15 393 L102 393 L102 76 C102 52 92 42 35 41 L35 0 L313 0 L313 41 C267 44 256 52 256 76 L256 395 L426 395 L426 76 C426 52 409 42 369 41 L369 0 L637 0 L637 41 C591 44 580 52 580 76 L580 395 L750 395 L750 76 C750 52 733 42 693 41 L693 0 L971 0 L971 41 C913 42 904 52 904 76 L904 466 L700 457 L580 457 L580 516 C580 579 593 615 614 636 C633 655 659 661 687 661 C710 661 728 657 735 653 C723 641 715 620 715 600 C715 557 748 526 796 526 C846 526 874 555 874 600 C874 655 813 703 686 703 C597 703 533 684 490 646 C464 680 410 699 338 699 L338 699 Z M426 457 L256 457 L256 522 C256 586 262 616 284 638 C299 653 318 657 341 657 C355 657 367 653 375 649 C368 635 362 618 362 599 C362 555 386 526 429 521 C427 506 426 490 426 473 L426 457 Z " />
<glyph glyph-name="f_f_l" unicode="&#xfb04;" horiz-adv-x="986" d="M674 703 C582 703 525 680 488 649 C462 681 408 699 338 699 C255 699 198 680 160 642 C123 605 102 551 102 479 L102 459 L15 441 L15 393 L102 393 L102 76 C102 52 92 42 35 41 L35 0 L313 0 L313 41 C267 44 256 52 256 76 L256 395 L426 395 L426 76 C426 52 416 42 369 41 L369 0 L637 0 L637 41 C591 44 580 52 580 76 L580 395 L750 395 L750 76 C750 52 733 42 693 41 L693 0 L971 0 L971 41 C914 42 904 52 904 76 L904 697 L779 688 C752 697 717 703 674 703 L674 703 Z M750 457 L580 457 L580 526 C580 590 592 620 611 639 C628 656 652 661 677 661 C694 661 710 657 717 654 C709 642 702 619 702 603 C702 566 721 540 750 530 L750 457 Z M426 483 L426 457 L256 457 L256 522 C256 586 262 616 284 638 C299 653 318 657 341 657 C355 657 367 653 375 649 C368 635 362 618 362 599 C362 555 386 527 427 522 C426 510 426 497 426 483 L426 483 Z " />
</font>
</svg>
