<?xml version="1.0" standalone="no"?>
<!DOCTYPE svg PUBLIC "-//W3C//DTD SVG 1.1//EN" "http://www.w3.org/Graphics/SVG/1.1/DTD/svg11.dtd" >
<svg xmlns="http://www.w3.org/2000/svg">
<metadata></metadata>
<defs>
<font id="foundation_sansBdCnIt" horiz-adv-x="441" >
<font-face units-per-em="1000" ascent="825" descent="-175" />
<missing-glyph horiz-adv-x="233" />
<glyph unicode="&#xfb01;" horiz-adv-x="453" d="M10 0l89 416h-39l17 82h39l10 48q14 70 39 94q33 33 93 33q25 0 59 -6l-19 -86q-14 2 -19 2q-17 0 -26.5 -11.5t-15.5 -39.5l-7 -34h51l-18 -82h-50l-89 -416h-114zM359 564l22 103h113l-22 -103h-113zM239 0l106 498h113l-106 -498h-113z" />
<glyph unicode="&#xfb02;" horiz-adv-x="453" d="M10 0l89 416h-39l17 82h39l10 48q14 70 39 94q33 33 93 33q25 0 59 -6l-19 -86q-14 2 -19 2q-17 0 -26.5 -11.5t-15.5 -39.5l-7 -34h51l-18 -82h-50l-89 -416h-114zM239 0l142 667h112l-141 -667h-113z" />
<glyph unicode="&#xfb03;" horiz-adv-x="684" d="M10 0l89 416h-39l17 82h39l10 48q14 70 39 94q33 33 93 33q25 0 59 -6l-19 -86q-14 2 -19 2q-17 0 -26.5 -11.5t-15.5 -39.5l-7 -34h117l11 48q17 74 39 94q33 33 92 33q27 0 59 -6l-18 -86q-16 2 -20 2q-17 0 -26 -11t-15 -40l-7 -34h50l-17 -82h-51l-89 -416h-114 l89 416h-117l-89 -416h-114zM590 564l22 103h113l-22 -103h-113zM470 0l106 498h114l-107 -498h-113z" />
<glyph unicode="&#xfb04;" horiz-adv-x="684" d="M10 0l89 416h-39l17 82h39l10 48q14 70 39 94q33 33 93 33q25 0 59 -6l-19 -86q-14 2 -19 2q-17 0 -26.5 -11.5t-15.5 -39.5l-7 -34h117l11 48q17 74 39 94q33 33 92 33q27 0 59 -6l-18 -86q-16 2 -20 2q-17 0 -26 -11t-15 -40l-7 -34h50l-17 -82h-51l-89 -416h-114 l89 416h-117l-89 -416h-114zM470 0l142 667h113l-142 -667h-113z" />
<glyph horiz-adv-x="1000" />
<glyph horiz-adv-x="1000" />
<glyph unicode="&#xd;" horiz-adv-x="1000" />
<glyph unicode=" "  horiz-adv-x="233" />
<glyph unicode="&#x09;" horiz-adv-x="233" />
<glyph unicode="&#xa0;" horiz-adv-x="233" />
<glyph unicode="!" horiz-adv-x="248" d="M76 175l35 311l38 181h121l-44 -208l-77 -284h-73zM15 0l25 116h119l-25 -116h-119z" />
<glyph unicode="&#x22;" horiz-adv-x="370" d="M264 399l40 268h94l-69 -268h-65zM93 399l39 268h94l-68 -268h-65z" />
<glyph unicode="#" horiz-adv-x="477" d="M32 0l64 204h-64l22 71h64l40 129h-64l22 71h64l60 192h79l-60 -192h83l60 192h81l-60 -192h62l-22 -71h-62l-40 -129h62l-22 -71h-62l-64 -204h-82l64 204h-82l-64 -204h-79zM197 275h82l41 129h-83z" />
<glyph unicode="$" d="M130 -73l14 68q-40 13 -55.5 21.5t-30.5 25.5q-41 46 -41 111q0 31 4 63h107q-6 -33 -6 -57q0 -36 23 -57t62 -21q35 0 57 23.5t22 60.5q0 40 -31 71q-13 13 -75 63q-96 79 -96 172q0 79 49.5 125t134.5 46h14l12 55h43l-12 -55q55 -14 83 -45q34 -40 34 -101 q0 -12 -2 -46h-101q2 28 2 39q0 68 -69 68q-36 0 -58 -20.5t-22 -54.5t26 -64q14 -16 74 -61q49 -37 76 -86t27 -99q0 -55 -25 -97.5t-69 -61.5q-42 -19 -114 -18l-14 -68h-43z" />
<glyph unicode="%" horiz-adv-x="740" d="M239 380q-95 0 -95 100q0 30 11 75t25 69q30 51 95 51q96 0 96 -93q0 -37 -10.5 -81t-25.5 -69q-30 -52 -96 -52zM176 -7l369 681h67l-369 -681h-67zM242 429q23 0 35 28q10 24 19 67t9 65q0 37 -32 37q-16 0 -25.5 -10.5t-17.5 -38.5q-19 -68 -19 -106q0 -42 31 -42z M404 93q0 30 11 75t25 69q30 51 95 51q96 0 96 -93q0 -37 -10.5 -81t-25.5 -69q-30 -52 -96 -52q-95 0 -95 100zM471 84q0 -42 31 -42q23 0 35 28q10 24 19 67t9 65q0 37 -32 37q-16 0 -25.5 -10.5t-17.5 -38.5q-19 -68 -19 -106z" />
<glyph unicode="&#x26;" horiz-adv-x="535" d="M354 0l-19 38q-37 -28 -65 -38.5t-66 -10.5q-80 0 -130 51.5t-50 133.5q0 71 34 122.5t113 100.5q-36 72 -36 128q0 65 41 105t108 40q64 0 103 -36.5t39 -95.5q0 -50 -28 -90t-93 -82l69 -145q17 44 33 119h95q-11 -77 -26.5 -119t-53.5 -103l56 -118h-124zM263 453 q15 10 21 15q44 33 44 76q0 19 -12 31t-31 12q-22 0 -34.5 -13.5t-12.5 -37.5q0 -30 25 -83zM296 123l-88 182q-76 -51 -76 -111q0 -41 27 -71t64 -30q34 0 73 30z" />
<glyph unicode="'" horiz-adv-x="198" d="M90 399l41 268h99l-72 -268h-68z" />
<glyph unicode="(" horiz-adv-x="288" d="M114 -107q-77 143 -77 293q0 162 78 310q25 47 52.5 83t78.5 88h77q-58 -74 -85.5 -128.5t-52.5 -148.5q-43 -158 -43 -289q0 -70 7 -108t32 -100h-67z" />
<glyph unicode=")" horiz-adv-x="288" d="M-23 -107q58 73 85 127.5t53 147.5q43 158 43 287q0 72 -7 110t-32 102h67q77 -144 77 -295q0 -162 -78 -310q-43 -81 -131 -169h-77z" />
<glyph unicode="*" horiz-adv-x="370" d="M162 408l-43 41l75 77l-90 42l23 55l93 -48l20 95l59 -9l-18 -86l101 23l13 -59l-103 -22l53 -92l-51 -30l-54 96z" />
<glyph unicode="+" d="M153 153l33 155h-132l17 80h132l31 148h88l-32 -148h133l-17 -80h-133l-33 -155h-87z" />
<glyph unicode="," horiz-adv-x="214" d="M-6 0l25 117h119l-22 -106q-14 -71 -48.5 -103.5t-100.5 -35.5l8 37q37 4 57 25.5t28 65.5h-66z" />
<glyph unicode="-" horiz-adv-x="187" d="M-7 216l21 99h187l-21 -99h-187z" />
<glyph unicode="." horiz-adv-x="214" d="M-6 0l25 116h119l-25 -116h-119z" />
<glyph unicode="/" horiz-adv-x="247" d="M-22 -107l222 774h73l-223 -774h-72z" />
<glyph unicode="0" d="M25 133q2 44 29.5 181t50.5 220q20 71 62.5 104t115.5 33q78 0 121.5 -35.5t43.5 -97.5q0 -82 -67 -367q-17 -69 -35 -104t-47 -54q-40 -26 -107 -26q-83 0 -127 38t-40 108zM264 188l20 93q48 214 48 253q0 23 -13 36t-35 13q-30 0 -45.5 -24t-30.5 -93 q-65 -306 -67 -338q-2 -25 11 -40t36 -15q31 0 47 24t29 91z" />
<glyph unicode="1" d="M143 0l104 487q-85 -12 -148 -12l16 78q85 6 133 33t70 81h85l-141 -667h-119z" />
<glyph unicode="2" d="M1 0q14 116 62.5 189t177.5 175q91 71 91 143q0 70 -59 70q-37 0 -54 -27t-24 -94h-117q11 110 57.5 162t137.5 52q86 0 131 -41.5t45 -120.5q0 -72 -32 -123t-123 -124q-75 -60 -105 -91.5t-47 -68.5h237l-22 -101h-356z" />
<glyph unicode="3" d="M197 476h-115q8 55 19.5 84.5t33.5 54.5q51 55 137 55q167 0 167 -154q0 -79 -36 -130q-24 -33 -80 -51q39 -22 55 -51t16 -79q0 -95 -51 -160q-45 -58 -145 -58q-90 0 -135 46q-42 43 -42 117q0 22 7 74h115q-7 -54 -7 -74q0 -76 58 -76q42 0 59 41q21 53 21 108 q0 41 -24.5 63t-71.5 22h-17l18 85q24 -2 33 -2q114 0 114 131q0 27 -15 43t-40 16q-32 0 -49.5 -25t-24.5 -80z" />
<glyph unicode="4" d="M3 137l22 105l276 425h135l-93 -437h67l-20 -93h-66l-30 -137h-109l29 137h-211zM111 230h123l62 289z" />
<glyph unicode="5" d="M222 558l-36 -139q44 24 82 24q65 0 102 -45t37 -124q0 -123 -52 -209q-47 -78 -156 -78q-75 0 -120 37q-50 41 -50 133q0 28 5 62h113q-7 -48 -7 -69q0 -76 57 -76q47 0 67 59q24 72 24 150q0 74 -56 74q-38 0 -62 -42h-115l96 344h300l-21 -101h-208z" />
<glyph unicode="6" d="M447 501h-114q3 25 3 31q0 50 -45 50q-42 0 -60 -56q-10 -33 -28 -116q44 26 83 26q56 0 88.5 -34.5t32.5 -92.5q0 -47 -13 -112.5t-32 -109.5q-41 -100 -165 -100q-163 0 -163 144q0 53 29 194q32 150 48 205q21 72 66 106t119 34q73 0 113 -33t40 -94q0 -12 -2 -42z M148 131q-2 -26 11 -42t37 -16q22 0 36.5 14.5t26.5 48.5q10 31 20.5 87.5t10.5 80.5q0 22 -12.5 35.5t-32.5 13.5q-45 0 -67 -69q-26 -82 -30 -153z" />
<glyph unicode="7" d="M80 0q31 140 101 286t161 263h-241l22 101h365l-17 -82q-88 -110 -156 -258.5t-105 -309.5h-130z" />
<glyph unicode="8" d="M23 151q0 105 54 169q25 29 75 41q-32 25 -44 50.5t-12 66.5q0 87 49.5 139.5t131.5 52.5q69 0 113 -36q47 -38 47 -117q0 -81 -39 -135q-23 -31 -73 -49q37 -23 50.5 -50t13.5 -74q0 -103 -53 -165q-48 -57 -146 -57q-80 0 -123.5 42.5t-43.5 121.5zM251 389q37 0 53 37 q22 49 22 105q0 24 -13 38t-36 14q-33 0 -48 -32q-23 -44 -26 -106q-1 -24 12.5 -40t35.5 -16zM139 136q0 -29 14 -45.5t38 -16.5q47 0 66 57q21 63 21 114q0 27 -14.5 43t-39.5 16q-26 0 -42 -18t-28 -62q-15 -57 -15 -88z" />
<glyph unicode="9" d="M27 154h113q-2 -22 -2 -29q0 -52 45 -52q34 0 51 32.5t39 140.5q-47 -27 -84 -27q-55 0 -89 35t-34 91q0 53 17.5 127.5t40.5 116.5q43 81 155 81q77 0 117.5 -33.5t40.5 -98.5q0 -57 -19.5 -170.5t-48.5 -222.5q-22 -85 -66 -121.5t-122 -36.5q-75 0 -115.5 33t-40.5 94 q0 10 2 40zM230 301q24 0 39.5 16t27.5 54q10 34 19 85t9 77q0 23 -12.5 36.5t-33.5 13.5q-44 0 -66 -68q-8 -25 -17.5 -78t-10.5 -79q-2 -26 10.5 -41.5t34.5 -15.5z" />
<glyph unicode=":" horiz-adv-x="214" d="M74 374l24 116h119l-25 -116h-118zM-6 0l25 116h119l-25 -116h-119z" />
<glyph unicode=";" horiz-adv-x="214" d="M74 374l24 116h119l-24 -116h-119zM-6 0l25 117h119l-22 -106q-14 -71 -48.5 -103.5t-100.5 -35.5l8 37q37 4 57 25.5t28 65.5h-66z" />
<glyph unicode="&#x3c;" horiz-adv-x="500" d="M33 283v101l433 218v-119l-306 -150l306 -149v-119z" />
<glyph unicode="=" d="M91 401l17 80h319l-17 -80h-319zM51 215l17 80h319l-17 -80h-319z" />
<glyph unicode="&#x3e;" horiz-adv-x="500" d="M60 65v119l306 149l-306 150v119l433 -218v-101z" />
<glyph unicode="?" horiz-adv-x="397" d="M122 179q14 84 34 119t90 104q62 59 62 128q0 64 -52 64q-29 0 -42.5 -17.5t-21.5 -65.5h-107q6 88 48 130.5t124 42.5q77 0 122 -45t45 -122q0 -55 -22 -97q-10 -20 -24 -35.5t-53 -50.5q-60 -55 -75.5 -79t-23.5 -76h-104zM73 0l25 116h119l-25 -116h-119z" />
<glyph unicode="@" horiz-adv-x="599" d="M483 502l-61 -217q-11 -40 -11 -56q0 -19 10 -31t27 -12q38 0 69 68t31 150q0 100 -52 162t-137 62q-105 0 -180 -95t-75 -228q0 -105 50 -179q57 -86 168 -86q82 0 167 55l11 -45q-90 -62 -183 -62q-119 0 -193.5 87.5t-74.5 227.5q0 154 92 265t220 111 q106 0 172.5 -76t66.5 -195q0 -130 -71 -218q-35 -42 -84 -42q-53 0 -93 47q-52 -45 -100 -45q-72 0 -72 73q0 58 39 170q21 62 48 90.5t66 28.5q50 0 61 -50l12 40h77zM286 210q29 0 47 47q16 40 28 87t12 65q0 32 -26 32q-19 0 -31.5 -18.5t-28.5 -69.5q-26 -87 -26 -112 q0 -31 25 -31z" />
<glyph unicode="A" horiz-adv-x="477" d="M-45 0l284 667h160l16 -667h-124l1 169h-139l-65 -169h-133zM188 262h103l7 300z" />
<glyph unicode="B" horiz-adv-x="494" d="M2 0l142 667h150q108 0 152.5 -34.5t44.5 -118.5q0 -87 -44 -137q-26 -29 -72 -38q41 -20 57 -48t16 -81q0 -66 -26 -117t-70 -73q-40 -20 -156 -20h-194zM209 393h36q60 0 82 14q43 28 43 104q0 36 -20.5 50.5t-71.5 14.5h-30zM145 94h45q42 0 58 2.5t31 12.5 q21 14 34.5 47t13.5 70q0 43 -23.5 60t-80.5 17h-33z" />
<glyph unicode="C" horiz-adv-x="487" d="M334 219h122q-17 -74 -33 -111t-43 -65q-56 -60 -153 -60q-92 0 -141.5 45t-49.5 129q0 65 26.5 195.5t52.5 193.5q30 73 79 105.5t130 32.5q186 0 186 -165q0 -30 -8 -82h-122q9 48 9 72q0 78 -68 78q-54 0 -77 -49q-15 -31 -23 -61t-31 -138q-30 -141 -30 -189 q0 -33 18 -51t51 -18q40 0 62.5 29.5t42.5 108.5z" />
<glyph unicode="D" horiz-adv-x="524" d="M2 0l142 667h155q117 0 162 -31q59 -43 59 -128q0 -117 -55 -325q-38 -146 -136 -173q-38 -10 -118 -10h-209zM145 95h54q49 0 75.5 11t43.5 38q29 46 64 244q15 83 15 107q0 41 -24 58.5t-80 17.5h-47z" />
<glyph unicode="E" horiz-adv-x="436" d="M2 0l142 667h326l-23 -105h-204l-35 -166h204l-22 -105h-205l-39 -186h224l-23 -105h-345z" />
<glyph unicode="F" horiz-adv-x="416" d="M2 0l142 667h335l-23 -105h-211l-36 -167h212l-22 -105h-212l-62 -290h-123z" />
<glyph unicode="G" horiz-adv-x="518" d="M331 0l15 67q-28 -44 -62.5 -64t-84.5 -20q-79 0 -121.5 43t-42.5 123q0 61 19 165.5t47 192.5q28 93 80.5 135t138.5 42q192 0 192 -154q0 -27 -4 -82h-120q6 38 6 63q0 37 -18.5 57.5t-53.5 20.5q-36 0 -59.5 -24.5t-39.5 -79.5q-6 -19 -46 -201q-21 -92 -21 -131 q0 -35 20 -55.5t55 -20.5q44 0 69.5 38t45.5 135h-77l22 105h204l-75 -355h-89z" />
<glyph unicode="H" horiz-adv-x="529" d="M2 0l142 667h123l-54 -258h171l55 258h123l-142 -667h-123l64 304h-171l-65 -304h-123z" />
<glyph unicode="I" horiz-adv-x="234" d="M2 0l142 667h123l-142 -667h-123z" />
<glyph unicode="J" horiz-adv-x="378" d="M417 667l-106 -497q-23 -105 -61.5 -146t-116.5 -41q-67 0 -103 33.5t-36 94.5q0 38 14 102h106q-15 -70 -15 -96q0 -19 9 -30t25 -11q25 0 41 36l2 8q2 7 6.5 25t8.5 38l103 484h123z" />
<glyph unicode="K" horiz-adv-x="482" d="M2 0l142 667h116l-65 -306l204 306h149l-238 -318l114 -349h-133l-75 260l-49 -63l-42 -197h-123z" />
<glyph unicode="L" horiz-adv-x="421" d="M2 0l142 667h121l-119 -562h232l-23 -105h-353z" />
<glyph unicode="M" horiz-adv-x="670" d="M2 0l142 667h180l7 -435l183 435h190l-142 -667h-119l113 531l-232 -531h-79l-13 531l-113 -531h-117z" />
<glyph unicode="N" horiz-adv-x="531" d="M2 0l142 667h136l70 -419l89 419h126l-142 -667h-135l-73 425l-90 -425h-123z" />
<glyph unicode="O" horiz-adv-x="518" d="M34 159q0 45 22 156t49 200q35 113 110 149q40 20 108 20q194 0 194 -168q0 -122 -57 -323q-25 -86 -51.5 -127.5t-69.5 -62.5q-43 -20 -106 -20q-199 0 -199 176zM158 155q0 -75 71 -75q41 0 63 26.5t43 100.5q24 87 42 179.5t18 131.5q0 32 -19 50.5t-51 18.5 q-43 0 -68.5 -32.5t-44.5 -109.5q-54 -216 -54 -290z" />
<glyph unicode="P" horiz-adv-x="473" d="M2 0l142 667h185q90 0 131.5 -40.5t41.5 -128.5q0 -65 -25 -117t-67 -74q-51 -27 -161 -27q-8 0 -64 2l-60 -282h-123zM205 374q36 -2 44 -2q67 0 93 22q15 14 26 43.5t11 58.5q0 43 -21 59.5t-76 16.5h-35z" />
<glyph unicode="Q" horiz-adv-x="517" d="M405 -69l-69 73q-52 -21 -105 -21q-96 0 -146.5 43.5t-50.5 125.5q0 53 21 163t48 197q28 90 80 131t140 41q95 0 144 -41.5t49 -121.5q0 -114 -53 -319q-15 -55 -25.5 -82t-32.5 -61l65 -66zM295 169l21 -22q25 69 44 162q27 131 31.5 157t4.5 50q0 33 -20 52t-54 19 t-55 -20t-38 -69q-10 -28 -47 -187q-25 -113 -25 -160q0 -73 74 -73q12 0 27 5l-25 26z" />
<glyph unicode="R" horiz-adv-x="519" d="M2 0l142 667h189q97 0 141.5 -37t44.5 -118q0 -90 -43 -140q-17 -20 -36 -30.5t-54 -19.5q36 -11 51.5 -32t15.5 -58q0 -23 -13 -93q-10 -60 -10 -88q0 -25 17 -51h-139q-4 32 -4 37q0 30 21 150q4 19 4 34q0 50 -41 61q-29 8 -101 8l-62 -290h-123zM207 383q26 -2 51 -2 q69 0 97 22q39 31 39 95q0 41 -22 57.5t-77 16.5h-48z" />
<glyph unicode="S" horiz-adv-x="466" d="M471 456h-119q6 25 6 47q0 85 -72 85q-34 0 -55.5 -22.5t-21.5 -57.5q0 -38 29 -70q14 -15 70 -57q62 -46 89 -94t27 -111q0 -93 -68 -150q-52 -43 -139 -43q-99 0 -151 51q-46 45 -46 141q0 28 5 63h123q-6 -36 -6 -63q0 -96 77 -96q36 0 59 25.5t23 65.5q0 34 -19 62 q-12 17 -22 26.5t-58 46.5q-61 48 -87 92t-26 98q0 89 53.5 139t147.5 50t139.5 -43t45.5 -132q0 -20 -4 -53z" />
<glyph unicode="T" horiz-adv-x="444" d="M113 0l120 562h-152l22 105h413l-22 -105h-140l-119 -562h-122z" />
<glyph unicode="U" horiz-adv-x="516" d="M555 667l-98 -462q-22 -108 -54 -151q-28 -38 -67 -54.5t-100 -16.5q-196 0 -196 160q0 61 14 125l85 399h123l-90 -425q-14 -65 -14 -92q0 -33 20.5 -51.5t55.5 -18.5q51 0 77 52q11 23 28 100l93 435h123z" />
<glyph unicode="V" horiz-adv-x="475" d="M110 0l-13 667h128l-8 -528l209 528h129l-284 -667h-161z" />
<glyph unicode="W" horiz-adv-x="735" d="M109 0l-9 667h125l-18 -548l189 548h107l-1 -548l173 548h130l-249 -667h-144l-2 436l-152 -436h-149z" />
<glyph unicode="X" horiz-adv-x="483" d="M-21 0l204 338l-101 329h128l53 -228l122 228h140l-200 -336l111 -331h-128l-65 234l-125 -234h-139z" />
<glyph unicode="Y" horiz-adv-x="453" d="M132 0l58 272l-118 395h134l58 -261l140 261h136l-227 -395l-58 -272h-123z" />
<glyph unicode="Z" horiz-adv-x="439" d="M-9 0l23 105l300 457h-220l23 105h363l-22 -100l-302 -462h236l-22 -105h-379z" />
<glyph unicode="[" horiz-adv-x="287" d="M-22 -107l164 774h189l-15 -67h-78l-135 -638h78l-15 -69h-188z" />
<glyph unicode="\" horiz-adv-x="247" d="M108 -107l-8 774h74l6 -774h-72z" />
<glyph unicode="]" horiz-adv-x="287" d="M-17 -40h78l136 638h-78l14 69h189l-165 -774h-188z" />
<glyph unicode="^" horiz-adv-x="500" d="M49 360l161 310h134l161 -310h-108l-120 229l-120 -229h-108z" />
<glyph unicode="_" horiz-adv-x="500" d="M0 -63h500v-73h-500v73z" />
<glyph unicode="`" horiz-adv-x="500" d="M265 568l-102 128h118l56 -128h-72z" />
<glyph unicode="a" horiz-adv-x="428" d="M227 0l9 42q-25 -31 -49.5 -44t-59.5 -13q-55 0 -87.5 35t-32.5 94q0 47 20 86t54 59q35 20 142 45q37 9 53 26.5t16 48.5q0 23 -15 37t-39 14q-62 0 -70 -81h-111q13 86 56 123q46 41 131 41q76 0 118.5 -30t42.5 -84q0 -35 -10 -85l-47 -222q-11 -52 -11 -92h-110z M249 233l-79 -32q-51 -20 -51 -83q0 -24 13.5 -38t37.5 -14q28 0 47.5 20.5t27.5 58.5l22 101q-13 -11 -18 -13z" />
<glyph unicode="b" horiz-adv-x="432" d="M-6 0l142 667h113l-45 -215q26 34 49 47.5t56 13.5q48 0 76 -31.5t28 -84.5q0 -66 -22.5 -171.5t-47.5 -153.5q-43 -87 -126 -87q-38 0 -60.5 16t-37.5 53l-12 -54h-113zM142 130q-1 -23 11 -38.5t31 -15.5q41 0 65 71q14 40 29 114t15 102q0 22 -11.5 35.5t-30.5 13.5 q-42 0 -65 -77q-14 -48 -28.5 -113t-15.5 -92z" />
<glyph unicode="c" horiz-adv-x="394" d="M241 186h112q-20 -106 -51 -149q-39 -52 -133 -52q-58 0 -100 24q-51 29 -51 108q0 76 46 253q20 74 61.5 108.5t111.5 34.5q76 0 112 -31.5t36 -99.5q0 -25 -4 -66h-112q7 49 7 65q0 45 -38 45q-49 0 -69 -102q-37 -189 -37 -205q0 -22 11.5 -34.5t30.5 -12.5 q26 0 40 24t27 90z" />
<glyph unicode="d" horiz-adv-x="424" d="M220 0l9 44q-30 -33 -54.5 -46t-56.5 -13q-47 0 -75 30.5t-28 80.5q0 41 15 122t34 148q21 71 57 109t83 38q46 0 76 -33q12 -14 23 -46l49 233h113l-142 -667h-103zM134 127q0 -52 41 -52q42 0 68 85q14 47 25.5 107.5t11.5 87.5q0 51 -40 51q-26 0 -42 -23t-32 -86 q-32 -125 -32 -170z" />
<glyph unicode="e" horiz-adv-x="425" d="M258 164h112q-20 -99 -61.5 -139t-125.5 -40q-88 0 -131 43q-31 31 -31 100q0 46 17.5 133t38.5 146q38 106 169 106q159 0 159 -132q0 -48 -20 -149h-235q-18 -86 -18 -112q0 -24 14 -37.5t38 -13.5q31 0 48 21.5t26 73.5zM167 312h121q8 49 8 69q0 23 -13.5 36 t-37.5 13q-33 0 -47.5 -22t-30.5 -96z" />
<glyph unicode="f" horiz-adv-x="251" d="M10 0l89 416h-39l17 82h39l10 48q14 70 39 94q33 33 93 33q25 0 59 -6l-19 -86q-14 2 -19 2q-17 0 -26.5 -11.5t-15.5 -39.5l-7 -34h51l-18 -82h-50l-89 -416h-114z" />
<glyph unicode="g" horiz-adv-x="428" d="M-13 -61h108q6 -33 44 -33q29 0 46 18.5t26 61.5l10 49q-42 -50 -96 -50q-107 0 -107 125q0 49 17.5 137.5t40.5 153.5q18 52 54 82t82 30q39 0 61.5 -17t34.5 -56l12 58h113l-101 -476q-13 -64 -24 -92t-28 -48q-45 -51 -138 -51q-145 0 -155 108zM135 128q0 -55 39 -55 q37 0 58 51q15 34 32 116.5t17 118.5q0 23 -11 37t-30 14q-42 0 -63 -71q-15 -52 -28.5 -119.5t-13.5 -91.5z" />
<glyph unicode="h" horiz-adv-x="426" d="M-6 0l142 667h113l-44 -210q50 56 109 56q43 0 69 -25t26 -67q0 -41 -10 -85l-72 -336h-113l69 324q10 49 10 63q0 17 -10.5 27.5t-27.5 10.5q-33 0 -57 -40q-10 -18 -14.5 -31t-13.5 -58l-63 -296h-113z" />
<glyph unicode="i" horiz-adv-x="208" d="M114 564l22 103h113l-22 -103h-113zM-6 0l106 498h113l-106 -498h-113z" />
<glyph unicode="j" horiz-adv-x="216" d="M115 562l22 105h120l-23 -105h-119zM-1 -12l103 510h119l-108 -508q-19 -88 -30 -108q-31 -53 -104 -53q-19 0 -56 4l18 83q5 -1 12 -1q20 0 28.5 12t14.5 46q0 6 3 15z" />
<glyph unicode="k" horiz-adv-x="407" d="M-6 0l142 667h112l-79 -372l155 203h125l-170 -213l63 -285h-117l-38 199l-50 -54l-31 -145h-112z" />
<glyph unicode="l" horiz-adv-x="208" d="M-6 0l142 667h113l-142 -667h-113z" />
<glyph unicode="m" horiz-adv-x="663" d="M-6 0l106 498h105l-10 -48q56 63 123 63q71 0 94 -71q64 71 132 71q48 0 74.5 -26.5t26.5 -75.5q0 -29 -7 -62l-74 -349h-114l72 338q6 26 6 51q0 19 -11 29.5t-30 10.5q-58 0 -85 -121l-66 -308h-113l74 347q5 23 5 37q0 18 -11.5 30.5t-28.5 12.5q-63 0 -85 -102 l-70 -325h-113z" />
<glyph unicode="n" horiz-adv-x="426" d="M-6 0l106 498h107l-10 -47q49 62 115 62q46 0 71.5 -25.5t25.5 -70.5q0 -36 -11 -85l-71 -332h-113l73 345q7 33 7 46q0 16 -11 26t-29 10q-25 0 -45.5 -25t-29.5 -68l-72 -334h-113z" />
<glyph unicode="o" horiz-adv-x="429" d="M20 126q4 79 27.5 179.5t46.5 138.5q44 69 152 69q95 0 131 -41q30 -34 30 -93q0 -70 -25 -176.5t-51 -148.5q-42 -69 -146 -69q-85 0 -127 35.5t-38 105.5zM255 157l18 88q22 88 22 135q0 21 -14 34.5t-36 13.5q-42 0 -61 -49q-8 -23 -29 -124t-22 -127q-2 -28 11 -43 t39 -15q55 0 72 87z" />
<glyph unicode="p" horiz-adv-x="424" d="M121 64l-49 -231h-113l141 665h103l-9 -44q52 59 111 59q47 0 74 -29t27 -79q0 -67 -19 -164.5t-44 -155.5q-42 -100 -122 -100q-38 0 -66 23q-21 17 -34 56zM188 91q19 0 32 15t26 50q16 44 30.5 115t14.5 104q0 23 -11 36.5t-30 13.5q-47 0 -68 -79 q-13 -47 -25.5 -110.5t-12.5 -83.5q0 -61 44 -61z" />
<glyph unicode="q" horiz-adv-x="427" d="M177 -167l42 200q-41 -48 -96 -48q-106 0 -106 129q0 44 18 131.5t41 153.5q39 114 132 114q76 0 98 -73l12 58h114l-142 -665h-113zM132 126q-2 -23 10.5 -38t31.5 -15q42 0 65 69q13 38 27 110.5t14 102.5q0 25 -11.5 40t-29.5 15q-39 0 -62 -68q-14 -44 -29 -114.5 t-16 -101.5z" />
<glyph unicode="r" horiz-adv-x="296" d="M-6 0l106 498h116l-19 -88q19 52 47 75.5t71 23.5q12 0 20 -1l-28 -129q-9 1 -20 1q-51 0 -79 -22.5t-38 -73.5l-60 -284h-116z" />
<glyph unicode="s" horiz-adv-x="375" d="M373 335h-106q4 29 4 38q0 25 -14.5 40t-40.5 15q-24 0 -38 -14t-14 -39q0 -30 22 -49q9 -9 53 -39q93 -65 93 -148q0 -71 -46.5 -112.5t-125.5 -41.5q-78 0 -119.5 36.5t-41.5 105.5q0 13 3 44h106q-4 -24 -4 -36q0 -32 16 -50t44 -18q26 0 41.5 15t15.5 41q0 24 -16 41 q-13 15 -68 56q-82 59 -82 145q0 68 44.5 108t120.5 40q75 0 115 -37t40 -107q0 -2 -2 -34z" />
<glyph unicode="t" horiz-adv-x="242" d="M183 79l-18 -86q-32 -8 -53 -8q-96 0 -96 78q0 19 11 72l60 281h-38l18 82h38l28 135h114l-29 -135h54l-17 -82h-55l-57 -269q-7 -32 -7 -47q0 -24 25 -24q4 0 22 3z" />
<glyph unicode="u" horiz-adv-x="427" d="M222 0l11 49q-45 -64 -122 -64q-43 0 -69 26.5t-26 70.5q0 31 8 66l75 350h113l-70 -331q-9 -44 -9 -58q0 -17 11 -27.5t28 -10.5q32 0 50.5 29.5t34.5 103.5l62 294h114l-106 -498h-105z" />
<glyph unicode="v" horiz-adv-x="396" d="M88 0l-31 498h115v-403l146 403h120l-212 -498h-138z" />
<glyph unicode="w" horiz-adv-x="601" d="M81 0l-23 498h113l-7 -389l134 389h98l6 -391l119 391h117l-192 -498h-129v320l-107 -320h-129z" />
<glyph unicode="x" horiz-adv-x="368" d="M-47 0l167 260l-70 238h114l33 -141l78 141h134l-172 -256l80 -242h-120l-33 147l-82 -147h-129z" />
<glyph unicode="y" horiz-adv-x="399" d="M17 -81q7 -1 20 -1q56 0 55 88l-1 48l-34 444h118l5 -380l139 380h123l-250 -566q-20 -43 -32 -60q-32 -41 -98 -41q-22 0 -63 5z" />
<glyph unicode="z" horiz-adv-x="347" d="M-29 0l19 86l221 319h-160l19 93h295l-17 -82l-224 -323h177l-20 -93h-310z" />
<glyph unicode="{" horiz-adv-x="311" d="M197 -107h-49q-73 0 -107.5 23.5t-34.5 72.5q0 23 8 60l23 105q4 22 4 38q0 40 -46 49l17 78q35 7 52.5 26t26.5 61l22 105q18 87 63.5 121.5t138.5 34.5h48l-18 -83h-21q-62 0 -78 -28q-6 -11 -18 -62l-18 -83q-14 -64 -33.5 -88t-69.5 -43q53 -31 53 -73q0 -21 -7 -58 l-17 -83q-9 -42 -9 -55q0 -19 14.5 -26.5t52.5 -7.5h21z" />
<glyph unicode="|" horiz-adv-x="500" d="M190 -167v834h120v-834h-120z" />
<glyph unicode="}" horiz-adv-x="311" d="M-2 -24q62 0 78 28q6 11 18 62l18 83q14 64 33.5 88t69.5 43q-54 32 -54 73q0 29 7 58l18 83q9 39 9 55q0 19 -14.5 26.5t-52.5 7.5h-21l18 84h48q74 0 108.5 -23.5t34.5 -72.5q0 -25 -8 -60l-23 -105q-5 -20 -5 -38q0 -40 47 -49l-17 -78q-35 -7 -52.5 -26t-26.5 -61 l-23 -105q-19 -87 -63.5 -121.5t-137.5 -34.5h-48l18 83h21z" />
<glyph unicode="~" horiz-adv-x="667" d="M233 564l-60 49q55 127 142 127q35 0 112 -35q65 -30 88 -30q42 0 80 67l59 -49q-29 -67 -63 -97t-79 -30q-29 0 -107 35q-68 31 -93 31q-23 0 -40.5 -15t-38.5 -53z" />
<glyph unicode="&#xa1;" horiz-adv-x="248" d="M100 442l24 116h119l-25 -116h-118zM32 100l77 284h73l-35 -311l-38 -181h-121z" />
<glyph unicode="&#xa2;" d="M156 2l15 69q-116 21 -116 122q0 52 20 152t41 153q24 63 78 84q34 15 67 15q2 0 22 -2l13 64h41l-14 -65q51 -12 74 -40.5t23 -78.5q0 -22 -3 -74h-106q5 36 5 58q0 24 -6 34q-12 19 -40 19q-30 0 -46 -44q-16 -42 -35.5 -136t-19.5 -125q0 -50 40 -50q33 0 46 28 q10 20 23 86h110q-22 -116 -59 -159.5t-117 -44.5l-13 -65h-43z" />
<glyph unicode="&#xa3;" d="M16 -15l-18 83q54 29 85 80t31 110q0 8 -2 42h-76l9 44h57q-10 58 -10 101q0 103 55 164t148 61q74 0 121.5 -44t47.5 -113q0 -20 -3 -47h-114q4 32 4 42q0 31 -18 51.5t-45 20.5q-77 0 -77 -129q0 -39 8 -107h116l-9 -44h-107q2 -80 -25 -130t-92 -88q46 20 89 20 q18 0 69 -12q28 -6 46 -6q35 0 78 20l-21 -97q-48 -20 -79 -20q-32 0 -89 18q-57 19 -80 19q-54 0 -99 -39z" />
<glyph unicode="&#xa4;" horiz-adv-x="667" d="M58 100l96 98q-48 66 -48 140q0 73 49 140l-99 98l50 50l98 -97q69 49 143 49t141 -49l97 97l50 -50l-97 -97q50 -69 50 -141t-48 -140l97 -97l-49 -50l-98 97q-68 -49 -142 -49q-72 0 -144 48l-97 -96zM192 338q0 -64 45.5 -109.5t109.5 -45.5t109.5 45.5t45.5 109.5 t-45 110t-108 46q-66 0 -111.5 -45.5t-45.5 -110.5z" />
<glyph unicode="&#xa5;" d="M126 0l49 228h-101l9 44h101l-17 96h-64l9 44h47l-46 255h114l29 -329l129 329h116l-125 -255h52l-9 -44h-64l-48 -96h89l-9 -44h-89l-49 -228h-123z" />
<glyph unicode="&#xa6;" horiz-adv-x="500" d="M190 322v345h120v-345h-120zM190 153h120v-320h-120v320z" />
<glyph unicode="&#xa7;" horiz-adv-x="463" d="M29 30v16h103q-1 -8 -1 -23q0 -25 14.5 -40t37.5 -15q28 0 44 15t16 40q0 33 -42 79q-90 96 -112.5 131t-22.5 78q0 60 41 104q24 25 59 34q-30 47 -30 87q0 62 43 100t114 38q66 0 106.5 -33t40.5 -87q0 -8 -2 -32h-98q1 8 1 21q0 22 -14.5 35t-38.5 13 q-23 0 -36.5 -12.5t-13.5 -33.5q0 -24 14 -47t66 -80q58 -65 77 -98t19 -71q0 -48 -33 -87q-23 -28 -64 -42q31 -51 31 -92q0 -56 -43 -99t-119 -43q-70 0 -115 37q-42 33 -42 107zM272 181q43 24 43 53q0 25 -28 56l-84 97q-41 -26 -41 -52q0 -31 24 -57z" />
<glyph unicode="&#xa8;" horiz-adv-x="500" d="M359 579l22 103h105l-22 -103h-105zM176 579l22 103h104l-21 -103h-105z" />
<glyph unicode="&#xa9;" horiz-adv-x="667" d="M35 314q0 150 98.5 257.5t235.5 107.5q121 0 205.5 -95t84.5 -231q0 -148 -98 -256.5t-231 -108.5q-124 0 -209.5 94.5t-85.5 231.5zM88 316q0 -118 70.5 -200t172.5 -82q112 0 193.5 94.5t81.5 222.5q0 118 -69.5 200t-169.5 82q-115 0 -197 -93.5t-82 -223.5zM378 278 h77q-15 -63 -30 -87q-33 -53 -104 -53q-53 0 -82 26.5t-29 74.5q0 36 15.5 109t29.5 108q18 43 46 61.5t74 18.5q109 0 109 -97q0 -13 -5 -50h-77q5 31 5 45q0 39 -33 39q-27 0 -39 -25q-13 -26 -29.5 -103.5t-16.5 -108.5q0 -34 34 -34q21 0 32 15t23 61z" />
<glyph unicode="&#xaa;" horiz-adv-x="299" d="M194 267l3 13q-23 -22 -59 -22t-57.5 21.5t-21.5 58.5q0 29 13 53t35 36t90 27q39 9 39 39q0 26 -29 26q-19 0 -28 -11t-12 -37h-77q7 57 35.5 81.5t85.5 24.5q49 0 76.5 -19t27.5 -52q0 -24 -6 -52l-30 -130q-6 -25 -6 -57h-79zM207 357l11 48q-2 -1 -6.5 -3t-12.5 -4.5 t-15 -5.5q-27 -10 -36.5 -21t-9.5 -31q0 -26 27 -26q33 0 42 43z" />
<glyph unicode="&#xab;" horiz-adv-x="379" d="M138 90l-111 137l17 78l166 122l-22 -101l-95 -70l64 -79zM189 225l18 81l166 120l-21 -95l-96 -75l64 -79l-19 -90z" />
<glyph unicode="&#xac;" horiz-adv-x="500" d="M7 180v105h433v-285h-117v180h-316z" />
<glyph unicode="&#xad;" horiz-adv-x="187" d="M-7 216l21 99h187l-21 -99h-187z" />
<glyph unicode="&#xae;" horiz-adv-x="667" d="M35 314q0 150 98.5 257.5t235.5 107.5q121 0 205.5 -95t84.5 -231q0 -148 -98 -256.5t-231 -108.5q-124 0 -209.5 94.5t-85.5 231.5zM88 316q0 -118 70.5 -200t172.5 -82q112 0 193.5 94.5t81.5 222.5q0 118 -69.5 200t-169.5 82q-115 0 -197 -93.5t-82 -223.5zM197 147 l81 380h110q56 0 82.5 -22t26.5 -69q0 -85 -65 -106q28 -16 28 -49q0 -13 -7 -53q-6 -34 -6 -48t9 -26l4 -7h-90q-3 21 -3 24q0 24 12 86q2 14 2 17q0 21 -13.5 27.5t-57.5 6.5l-34 -161h-79zM323 369q16 -1 23 -1q36 0 52 11q20 16 20 50q0 20 -11 28t-40 8h-23z" />
<glyph unicode="&#xaf;" horiz-adv-x="500" d="M172 603l12 59h308l-13 -59h-307z" />
<glyph unicode="&#xb0;" horiz-adv-x="413" d="M260 394q-58 0 -99 41t-41 99t41 99t99 41t99 -41.5t41 -100.5q0 -56 -41.5 -97t-98.5 -41zM260 451q34 0 58.5 24.5t24.5 57.5q0 35 -24 59.5t-59 24.5q-34 0 -58.5 -24.5t-24.5 -58.5t24.5 -58.5t58.5 -24.5z" />
<glyph unicode="&#xb1;" d="M160 187l33 154h-132l17 80h132l31 148h88l-32 -148h133l-17 -80h-133l-33 -154h-87zM-3 41l17 80h352l-17 -80h-352z" />
<glyph unicode="&#xb2;" horiz-adv-x="299" d="M44 267q7 71 38 115.5t113 105.5q55 42 55 80q0 40 -35 40q-22 0 -31.5 -15.5t-13.5 -56.5h-82q6 69 36.5 101t90.5 32q57 0 87 -26t30 -75q0 -42 -20.5 -72.5t-77.5 -73.5q-75 -56 -92 -89h151l-15 -66h-234z" />
<glyph unicode="&#xb3;" horiz-adv-x="299" d="M170 547h-80q8 62 34 88q33 34 90 34q111 0 111 -97q0 -84 -66 -105q41 -24 41 -79q0 -56 -32 -94q-30 -36 -97 -36q-55 0 -85.5 26.5t-30.5 75.5q0 14 4 45h81q-4 -30 -4 -45q0 -44 35 -44q21 0 33 22t12 60q0 50 -60 50h-14l12 57q9 -1 23 -1q69 0 69 71q0 16 -9 25 t-24 9q-19 0 -29 -14t-14 -48z" />
<glyph unicode="&#xb4;" horiz-adv-x="500" d="M236 566l75 128h112l-112 -128h-75z" />
<glyph unicode="&#xb5;" horiz-adv-x="415" d="M97 -15l-33 -152h-113l142 665h113l-70 -331q-10 -49 -10 -59q0 -16 11 -26.5t28 -10.5q32 0 51 30t35 103l62 294h114l-107 -498h-104l11 49q-45 -64 -120 -64h-10z" />
<glyph unicode="&#xb6;" d="M112 -107l90 423q-34 2 -50.5 7.5t-32.5 18.5q-51 40 -51 115q0 58 29 111.5t74 78.5q36 20 120 20h180l-164 -774h-75l148 694h-46l-147 -694h-75z" />
<glyph unicode="&#xb7;" horiz-adv-x="225" d="M25 145l27 127h131l-27 -127h-131z" />
<glyph unicode="&#xb8;" horiz-adv-x="500" d="M117 -75l53 75h38l-39 -57q18 3 24 3q27 0 45.5 -15.5t18.5 -38.5q0 -32 -27.5 -51t-73.5 -19q-33 0 -76 16l13 32q36 -13 55 -13q17 0 27.5 8.5t10.5 21.5t-10 21t-24 8q-10 0 -24 -5z" />
<glyph unicode="&#xb9;" horiz-adv-x="299" d="M136 267l61 287q-55 -7 -94 -7l11 52q56 4 86 19.5t43 48.5h61l-85 -400h-83z" />
<glyph unicode="&#xba;" horiz-adv-x="299" d="M175 257q-55 0 -82 22.5t-25 65.5q2 48 17 107t30 82q28 43 99 43q103 0 103 -83q0 -42 -15.5 -105.5t-32.5 -89.5q-28 -42 -94 -42zM173 316q29 0 40 48q10 46 12 51q13 54 13 79q0 10 -7.5 17t-18.5 7q-24 0 -34 -26q-4 -13 -16.5 -72.5t-14.5 -74.5q-2 -29 26 -29z " />
<glyph unicode="&#xbb;" horiz-adv-x="379" d="M172 90l22 102l96 70l-64 81l18 84l112 -137l-16 -76zM10 92l21 99l96 71l-64 78l18 87l113 -137l-17 -78z" />
<glyph unicode="&#xbc;" horiz-adv-x="723" d="M136 267l61 287q-55 -7 -94 -7l11 52q56 4 86 19.5t43 48.5h61l-85 -400h-83zM159 -5l366 667h67l-366 -667h-67zM411 81l13 65l174 254h92l-55 -258h43l-13 -61h-43l-17 -81h-77l18 81h-135zM489 142h70l32 151l-3 -5l-14 -22z" />
<glyph unicode="&#xbd;" horiz-adv-x="723" d="M136 267l61 287q-55 -7 -94 -7l11 52q56 4 86 19.5t43 48.5h61l-85 -400h-83zM159 -5l366 667h67l-366 -667h-67zM411 0q8 71 38.5 115.5t112.5 105.5q55 42 55 80q0 40 -35 40q-22 0 -31.5 -15.5t-13.5 -56.5h-81q5 69 35.5 101t90.5 32q57 0 87 -26t30 -75 q0 -42 -20.5 -72.5t-77.5 -73.5q-74 -55 -92 -89h151l-15 -66h-234z" />
<glyph unicode="&#xbe;" horiz-adv-x="723" d="M170 547h-80q8 62 34 88q33 34 90 34q111 0 111 -97q0 -84 -66 -105q41 -24 41 -79q0 -56 -32 -94q-30 -36 -97 -36q-55 0 -85.5 26.5t-30.5 75.5q0 14 4 45h81q-4 -30 -4 -45q0 -44 35 -44q21 0 33 22t12 60q0 50 -60 50h-14l12 57q9 -1 23 -1q69 0 69 71q0 16 -9 25 t-24 9q-19 0 -29 -14t-14 -48zM158 -5l366 667h67l-366 -667h-67zM410 81l14 65l174 254h92l-55 -258h43l-13 -61h-43l-17 -81h-77l17 81h-135zM488 142h70l32 151l-3 -5l-14 -22z" />
<glyph unicode="&#xbf;" horiz-adv-x="397" d="M190 442l25 116h119l-25 -116h-119zM218 49h108q-10 -172 -172 -172q-77 0 -122 44.5t-45 121.5q0 56 22 98q10 19 23.5 34t53.5 51q61 56 76 79.5t23 75.5h104q-14 -84 -33.5 -119.5t-90.5 -103.5q-62 -62 -62 -127q0 -64 52 -64q29 0 42.5 17.5t20.5 64.5z" />
<glyph unicode="&#xc0;" horiz-adv-x="477" d="M295 729l-95 114h119l53 -114h-77zM-45 0l284 667h160l16 -667h-124l1 169h-139l-65 -169h-133zM188 262h103l7 300z" />
<glyph unicode="&#xc1;" horiz-adv-x="477" d="M296 732l74 112h126l-120 -112h-80zM-45 0l284 667h160l16 -667h-124l1 169h-139l-65 -169h-133zM188 262h103l7 300z" />
<glyph unicode="&#xc2;" horiz-adv-x="477" d="M196 731l103 113h108l51 -113h-75l-35 74l-73 -74h-79zM-45 0l284 667h160l16 -667h-124l1 169h-139l-65 -169h-133zM188 262h103l7 300z" />
<glyph unicode="&#xc3;" horiz-adv-x="477" d="M199 734q24 105 101 105q25 0 60 -16q37 -17 53 -17q36 0 42 40h45q-7 -49 -32.5 -77.5t-62.5 -28.5q-22 0 -62 18q-36 16 -53 16q-32 0 -46 -40h-45zM-45 0l284 667h160l16 -667h-124l1 169h-139l-65 -169h-133zM188 262h103l7 300z" />
<glyph unicode="&#xc4;" horiz-adv-x="477" d="M373 735l22 106h102l-22 -106h-102zM208 735l22 106h103l-23 -106h-102zM-45 0l284 667h160l16 -667h-124l1 169h-139l-65 -169h-133zM188 262h103l7 300z" />
<glyph unicode="&#xc5;" horiz-adv-x="477" d="M341 709q-37 0 -63.5 26.5t-26.5 63.5q0 38 26.5 64t64.5 26q37 0 63 -26.5t26 -63.5t-26.5 -63.5t-63.5 -26.5zM340 749q21 0 36 14.5t15 35.5q0 20 -14.5 35t-34.5 15q-22 0 -36.5 -14.5t-14.5 -35.5t14.5 -35.5t34.5 -14.5zM-45 0l284 667h160l16 -667h-124l1 169 h-139l-65 -169h-133zM188 262h103l7 300z" />
<glyph unicode="&#xc6;" horiz-adv-x="707" d="M-58 0l380 667h422l-23 -105h-201l-35 -165h201l-22 -105h-201l-40 -187h218l-22 -105h-341l36 169h-147l-79 -169h-146zM210 262h123l64 300h-36z" />
<glyph unicode="&#xc7;" horiz-adv-x="487" d="M138 -75l43 61q-145 25 -145 171q0 65 26.5 195.5t52.5 193.5q30 73 79 105.5t130 32.5q186 0 186 -165q0 -30 -8 -82h-122q9 48 9 72q0 78 -68 78q-54 0 -77 -49q-15 -31 -23 -61t-31 -138q-30 -141 -30 -189q0 -33 18 -51t51 -18q40 0 62.5 29.5t42.5 108.5h122 q-17 -73 -33.5 -110.5t-42.5 -65.5q-56 -60 -152 -60h-11l-28 -40q18 3 24 3q28 0 46 -15.5t18 -38.5q0 -32 -27.5 -51t-72.5 -19q-33 0 -76 16l13 32q36 -13 54 -13q17 0 27.5 8.5t10.5 21.5t-9.5 21t-24.5 8q-9 0 -23 -5z" />
<glyph unicode="&#xc8;" horiz-adv-x="436" d="M298 729l-95 114h119l53 -114h-77zM2 0l142 667h326l-23 -105h-204l-35 -166h204l-22 -105h-205l-39 -186h224l-23 -105h-345z" />
<glyph unicode="&#xc9;" horiz-adv-x="436" d="M269 732l74 112h126l-120 -112h-80zM2 0l142 667h326l-23 -105h-204l-35 -166h204l-22 -105h-205l-39 -186h224l-23 -105h-345z" />
<glyph unicode="&#xca;" horiz-adv-x="436" d="M193 731l103 113h108l51 -113h-75l-35 74l-73 -74h-79zM2 0l142 667h326l-23 -105h-204l-35 -166h204l-22 -105h-205l-39 -186h224l-23 -105h-345z" />
<glyph unicode="&#xcb;" horiz-adv-x="436" d="M353 735l22 106h102l-22 -106h-102zM188 735l22 106h103l-23 -106h-102zM2 0l142 667h326l-23 -105h-204l-35 -166h204l-22 -105h-205l-39 -186h224l-23 -105h-345z" />
<glyph unicode="&#xcc;" horiz-adv-x="234" d="M187 729l-95 114h119l53 -114h-77zM2 0l142 667h123l-142 -667h-123z" />
<glyph unicode="&#xcd;" horiz-adv-x="234" d="M178 732l74 112h126l-120 -112h-80zM2 0l142 667h123l-142 -667h-123z" />
<glyph unicode="&#xce;" horiz-adv-x="234" d="M89 731l103 113h108l51 -113h-75l-35 74l-73 -74h-79zM2 0l142 667h123l-142 -667h-123z" />
<glyph unicode="&#xcf;" horiz-adv-x="234" d="M250 736l22 100h97l-21 -100h-98zM94 736l21 100h98l-22 -100h-97zM2 0l142 667h123l-142 -667h-123z" />
<glyph unicode="&#xd0;" horiz-adv-x="534" d="M12 0l69 325h-45l13 59h45l60 283h155q117 0 162 -31q59 -43 59 -128q0 -115 -55 -325q-38 -146 -136 -173q-38 -10 -118 -10h-209zM155 95h54q49 0 75.5 11t43.5 38q29 46 64 244q15 83 15 107q0 41 -24 58.5t-80 17.5h-46l-40 -187h101l-13 -59h-101z" />
<glyph unicode="&#xd1;" horiz-adv-x="531" d="M237 734q24 105 101 105q25 0 60 -16q37 -17 53 -17q36 0 42 40h45q-7 -49 -32.5 -77.5t-62.5 -28.5q-22 0 -62 18q-36 16 -53 16q-32 0 -46 -40h-45zM2 0l142 667h136l70 -419l89 419h126l-142 -667h-135l-73 425l-90 -425h-123z" />
<glyph unicode="&#xd2;" horiz-adv-x="518" d="M329 729l-95 114h119l53 -114h-77zM34 159q0 45 22 156t49 200q35 113 110 149q40 20 108 20q194 0 194 -168q0 -122 -57 -323q-25 -86 -51.5 -127.5t-69.5 -62.5q-43 -20 -106 -20q-199 0 -199 176zM158 155q0 -75 71 -75q41 0 63 26.5t43 100.5q24 87 42 179.5 t18 131.5q0 32 -19 50.5t-51 18.5q-43 0 -68.5 -32.5t-44.5 -109.5q-54 -216 -54 -290z" />
<glyph unicode="&#xd3;" horiz-adv-x="518" d="M294 732l74 112h126l-120 -112h-80zM34 159q0 45 22 156t49 200q35 113 110 149q40 20 108 20q194 0 194 -168q0 -122 -57 -323q-25 -86 -51.5 -127.5t-69.5 -62.5q-43 -20 -106 -20q-199 0 -199 176zM158 155q0 -75 71 -75q41 0 63 26.5t43 100.5q24 87 42 179.5 t18 131.5q0 32 -19 50.5t-51 18.5q-43 0 -68.5 -32.5t-44.5 -109.5q-54 -216 -54 -290z" />
<glyph unicode="&#xd4;" horiz-adv-x="518" d="M224 731l103 113h108l51 -113h-75l-35 74l-73 -74h-79zM34 159q0 45 22 156t49 200q35 113 110 149q40 20 108 20q194 0 194 -168q0 -122 -57 -323q-25 -86 -51.5 -127.5t-69.5 -62.5q-43 -20 -106 -20q-199 0 -199 176zM158 155q0 -75 71 -75q41 0 63 26.5t43 100.5 q24 87 42 179.5t18 131.5q0 32 -19 50.5t-51 18.5q-43 0 -68.5 -32.5t-44.5 -109.5q-54 -216 -54 -290z" />
<glyph unicode="&#xd5;" horiz-adv-x="518" d="M227 734q24 105 101 105q25 0 60 -16q37 -17 53 -17q36 0 42 40h45q-7 -49 -32.5 -77.5t-62.5 -28.5q-22 0 -62 18q-36 16 -53 16q-32 0 -46 -40h-45zM34 159q0 45 22 156t49 200q35 113 110 149q40 20 108 20q194 0 194 -168q0 -122 -57 -323q-25 -86 -51.5 -127.5 t-69.5 -62.5q-43 -20 -106 -20q-199 0 -199 176zM158 155q0 -75 71 -75q41 0 63 26.5t43 100.5q24 87 42 179.5t18 131.5q0 32 -19 50.5t-51 18.5q-43 0 -68.5 -32.5t-44.5 -109.5q-54 -216 -54 -290z" />
<glyph unicode="&#xd6;" horiz-adv-x="518" d="M391 735l22 106h102l-22 -106h-102zM226 735l22 106h103l-23 -106h-102zM34 159q0 45 22 156t49 200q35 113 110 149q40 20 108 20q194 0 194 -168q0 -122 -57 -323q-25 -86 -51.5 -127.5t-69.5 -62.5q-43 -20 -106 -20q-199 0 -199 176zM158 155q0 -75 71 -75 q41 0 63 26.5t43 100.5q24 87 42 179.5t18 131.5q0 32 -19 50.5t-51 18.5q-43 0 -68.5 -32.5t-44.5 -109.5q-54 -216 -54 -290z" />
<glyph unicode="&#xd7;" d="M78 167l-54 68l152 120l-94 119l68 54l94 -120l152 120l53 -69l-151 -119l95 -121l-68 -54l-96 122z" />
<glyph unicode="&#xd8;" horiz-adv-x="512" d="M-20 7l61 77q-8 51 -8 78q0 42 23.5 163t44.5 186q19 58 42.5 91t60.5 53q53 29 124 29q108 0 148 -57l52 64l40 -33l-63 -78q11 -40 11 -66q0 -81 -28.5 -213t-60.5 -200q-54 -118 -200 -118q-47 0 -76 10t-81 44l-48 -61zM151 198l246 331q-8 34 -27.5 49t-53.5 15 q-53 0 -85 -56q-14 -25 -24 -65.5t-35 -171.5q0 -2 -7.5 -38.5t-13.5 -63.5zM151 130q13 -31 29.5 -43t44.5 -12q73 0 102 92q14 43 72 301z" />
<glyph unicode="&#xd9;" horiz-adv-x="516" d="M329 729l-95 114h119l53 -114h-77zM555 667l-98 -462q-22 -108 -54 -151q-28 -38 -67 -54.5t-100 -16.5q-196 0 -196 160q0 61 14 125l85 399h123l-90 -425q-14 -65 -14 -92q0 -33 20.5 -51.5t55.5 -18.5q51 0 77 52q11 23 28 100l93 435h123z" />
<glyph unicode="&#xda;" horiz-adv-x="516" d="M320 732l74 112h126l-120 -112h-80zM555 667l-98 -462q-22 -108 -54 -151q-28 -38 -67 -54.5t-100 -16.5q-196 0 -196 160q0 61 14 125l85 399h123l-90 -425q-14 -65 -14 -92q0 -33 20.5 -51.5t55.5 -18.5q51 0 77 52q11 23 28 100l93 435h123z" />
<glyph unicode="&#xdb;" horiz-adv-x="516" d="M233 731l103 113h108l51 -113h-75l-35 74l-73 -74h-79zM555 667l-98 -462q-22 -108 -54 -151q-28 -38 -67 -54.5t-100 -16.5q-196 0 -196 160q0 61 14 125l85 399h123l-90 -425q-14 -65 -14 -92q0 -33 20.5 -51.5t55.5 -18.5q51 0 77 52q11 23 28 100l93 435h123z" />
<glyph unicode="&#xdc;" horiz-adv-x="516" d="M397 735l22 106h102l-22 -106h-102zM232 735l22 106h103l-23 -106h-102zM555 667l-98 -462q-22 -108 -54 -151q-28 -38 -67 -54.5t-100 -16.5q-196 0 -196 160q0 61 14 125l85 399h123l-90 -425q-14 -65 -14 -92q0 -33 20.5 -51.5t55.5 -18.5q51 0 77 52q11 23 28 100 l93 435h123z" />
<glyph unicode="&#xdd;" horiz-adv-x="453" d="M275 732l74 112h126l-120 -112h-80zM132 0l58 272l-118 395h134l58 -261l140 261h136l-227 -395l-58 -272h-123z" />
<glyph unicode="&#xde;" horiz-adv-x="473" d="M2 0l142 667h123l-20 -94h62q90 0 131.5 -40.5t41.5 -128.5q0 -65 -25 -117t-67 -74q-51 -27 -161 -27q-23 0 -63 3l-41 -189h-123zM185 280q36 -2 44 -2q67 0 93 22q15 14 26 43.5t11 58.5q0 43 -21 59.5t-76 16.5h-35z" />
<glyph unicode="&#xdf;" horiz-adv-x="423" d="M-6 0l110 517q34 161 169 161q69 0 112 -39t43 -102q0 -84 -37 -134q-20 -26 -67 -30q59 -30 59 -105q0 -52 -15.5 -114.5t-37.5 -96.5q-40 -63 -102 -63q-32 0 -73 22l18 87q20 -12 33 -12q14 0 23 12t18 44q26 92 26 150q0 46 -48 50l16 76q15 -4 21 -4q26 0 40 37 q17 42 17 90q0 22 -12.5 35t-32.5 13q-24 0 -37.5 -20.5t-24.5 -74.5l-106 -499h-112z" />
<glyph unicode="&#xe0;" horiz-adv-x="428" d="M252 568l-102 128h118l56 -128h-72zM227 0l9 42q-25 -31 -49.5 -44t-59.5 -13q-55 0 -87.5 35t-32.5 94q0 47 20 86t54 59q35 20 142 45q37 9 53 26.5t16 48.5q0 23 -15 37t-39 14q-62 0 -70 -81h-111q13 86 56 123q46 41 131 41q76 0 118.5 -30t42.5 -84q0 -35 -10 -85 l-47 -222q-11 -52 -11 -92h-110zM249 233l-79 -32q-51 -20 -51 -83q0 -24 13.5 -38t37.5 -14q28 0 47.5 20.5t27.5 58.5l22 101q-13 -11 -18 -13z" />
<glyph unicode="&#xe1;" horiz-adv-x="428" d="M220 566l75 128h112l-112 -128h-75zM227 0l9 42q-25 -31 -49.5 -44t-59.5 -13q-55 0 -87.5 35t-32.5 94q0 47 20 86t54 59q35 20 142 45q37 9 53 26.5t16 48.5q0 23 -15 37t-39 14q-62 0 -70 -81h-111q13 86 56 123q46 41 131 41q76 0 118.5 -30t42.5 -84q0 -35 -10 -85 l-47 -222q-11 -52 -11 -92h-110zM249 233l-79 -32q-51 -20 -51 -83q0 -24 13.5 -38t37.5 -14q28 0 47.5 20.5t27.5 58.5l22 101q-13 -11 -18 -13z" />
<glyph unicode="&#xe2;" horiz-adv-x="428" d="M133 569l117 128h100l65 -128h-77l-44 81l-71 -81h-90zM227 0l9 42q-25 -31 -49.5 -44t-59.5 -13q-55 0 -87.5 35t-32.5 94q0 47 20 86t54 59q35 20 142 45q37 9 53 26.5t16 48.5q0 23 -15 37t-39 14q-62 0 -70 -81h-111q13 86 56 123q46 41 131 41q76 0 118.5 -30 t42.5 -84q0 -35 -10 -85l-47 -222q-11 -52 -11 -92h-110zM249 233l-79 -32q-51 -20 -51 -83q0 -24 13.5 -38t37.5 -14q28 0 47.5 20.5t27.5 58.5l22 101q-13 -11 -18 -13z" />
<glyph unicode="&#xe3;" horiz-adv-x="428" d="M137 583q10 51 34 75q27 25 66 25q31 0 75 -20q33 -14 48 -14q36 0 45 31h44q-15 -97 -98 -97q-28 0 -64 15q-42 19 -59 19q-35 0 -47 -34h-44zM227 0l9 42q-25 -31 -49.5 -44t-59.5 -13q-55 0 -87.5 35t-32.5 94q0 47 20 86t54 59q35 20 142 45q37 9 53 26.5t16 48.5 q0 23 -15 37t-39 14q-62 0 -70 -81h-111q13 86 56 123q46 41 131 41q76 0 118.5 -30t42.5 -84q0 -35 -10 -85l-47 -222q-11 -52 -11 -92h-110zM249 233l-79 -32q-51 -20 -51 -83q0 -24 13.5 -38t37.5 -14q28 0 47.5 20.5t27.5 58.5l22 101q-13 -11 -18 -13z" />
<glyph unicode="&#xe4;" horiz-adv-x="428" d="M327 579l22 103h105l-22 -103h-105zM144 579l22 103h104l-21 -103h-105zM227 0l9 42q-25 -31 -49.5 -44t-59.5 -13q-55 0 -87.5 35t-32.5 94q0 47 20 86t54 59q35 20 142 45q37 9 53 26.5t16 48.5q0 23 -15 37t-39 14q-62 0 -70 -81h-111q13 86 56 123q46 41 131 41 q76 0 118.5 -30t42.5 -84q0 -35 -10 -85l-47 -222q-11 -52 -11 -92h-110zM249 233l-79 -32q-51 -20 -51 -83q0 -24 13.5 -38t37.5 -14q28 0 47.5 20.5t27.5 58.5l22 101q-13 -11 -18 -13z" />
<glyph unicode="&#xe5;" horiz-adv-x="428" d="M285 558q-38 0 -65.5 27.5t-27.5 65.5q0 39 27.5 66t66.5 27q38 0 65 -27.5t27 -65.5t-27.5 -65.5t-65.5 -27.5zM284 597q23 0 39 15.5t16 38.5q0 22 -15.5 38t-37.5 16q-23 0 -39 -15.5t-16 -38.5q0 -22 15.5 -38t37.5 -16zM227 0l9 42q-25 -31 -49.5 -44t-59.5 -13 q-55 0 -87.5 35t-32.5 94q0 47 20 86t54 59q35 20 142 45q37 9 53 26.5t16 48.5q0 23 -15 37t-39 14q-62 0 -70 -81h-111q13 86 56 123q46 41 131 41q76 0 118.5 -30t42.5 -84q0 -35 -10 -85l-47 -222q-11 -52 -11 -92h-110zM249 233l-79 -32q-51 -20 -51 -83 q0 -24 13.5 -38t37.5 -14q28 0 47.5 20.5t27.5 58.5l22 101q-13 -11 -18 -13z" />
<glyph unicode="&#xe6;" horiz-adv-x="632" d="M467 164h109q-18 -100 -58.5 -139.5t-124.5 -39.5q-49 0 -79 11.5t-56 40.5q-34 -29 -62.5 -40.5t-66.5 -11.5q-61 0 -93 32.5t-32 94.5q0 86 55 133q28 25 105 43q55 13 70.5 17.5t25.5 13.5q25 20 25 63q0 47 -53 47q-32 0 -47 -17t-20 -59h-108q6 45 18.5 71.5 t36.5 48.5q46 40 119 40q72 0 114 -39q30 22 55 30.5t62 8.5q72 0 111 -33.5t39 -94.5q0 -35 -22 -153h-227q-17 -92 -17 -115q0 -48 48 -48q30 0 44.5 18.5t28.5 76.5zM382 313h115q7 49 7 67q0 50 -47 50q-31 0 -47 -25t-28 -92zM230 220l-38 -13q-74 -25 -74 -94 q0 -21 12.5 -33t34.5 -12q52 0 72 89l16 75q-20 -12 -23 -12z" />
<glyph unicode="&#xe7;" horiz-adv-x="394" d="M84 -75l45 63q-59 11 -85 41t-26 87q0 77 46 254q20 74 61.5 108.5t111.5 34.5q76 0 112 -31.5t36 -99.5q0 -25 -4 -66h-112q7 49 7 65q0 45 -38 45q-49 0 -69 -102q-37 -189 -37 -205q0 -22 11.5 -34.5t30.5 -12.5q26 0 40 24t27 90h112q-15 -80 -31 -116.5t-44 -56.5 q-37 -28 -111 -28h-2l-29 -42q18 3 24 3q28 0 46 -15.5t18 -38.5q0 -32 -27.5 -51t-73.5 -19q-32 0 -76 16l14 32q36 -13 54 -13q17 0 27.5 8.5t10.5 21.5t-9.5 21t-24.5 8q-10 0 -23 -5z" />
<glyph unicode="&#xe8;" horiz-adv-x="425" d="M231 568l-102 128h118l56 -128h-72zM258 164h112q-20 -99 -61.5 -139t-125.5 -40q-88 0 -131 43q-31 31 -31 100q0 46 17.5 133t38.5 146q38 106 169 106q159 0 159 -132q0 -48 -20 -149h-235q-18 -86 -18 -112q0 -24 14 -37.5t38 -13.5q31 0 48 21.5t26 73.5zM167 312 h121q8 49 8 69q0 23 -13.5 36t-37.5 13q-33 0 -47.5 -22t-30.5 -96z" />
<glyph unicode="&#xe9;" horiz-adv-x="425" d="M222 566l75 128h112l-112 -128h-75zM258 164h112q-20 -99 -61.5 -139t-125.5 -40q-88 0 -131 43q-31 31 -31 100q0 46 17.5 133t38.5 146q38 106 169 106q159 0 159 -132q0 -48 -20 -149h-235q-18 -86 -18 -112q0 -24 14 -37.5t38 -13.5q31 0 48 21.5t26 73.5zM167 312 h121q8 49 8 69q0 23 -13.5 36t-37.5 13q-33 0 -47.5 -22t-30.5 -96z" />
<glyph unicode="&#xea;" horiz-adv-x="425" d="M135 569l117 128h100l65 -128h-77l-44 81l-71 -81h-90zM258 164h112q-20 -99 -61.5 -139t-125.5 -40q-88 0 -131 43q-31 31 -31 100q0 46 17.5 133t38.5 146q38 106 169 106q159 0 159 -132q0 -48 -20 -149h-235q-18 -86 -18 -112q0 -24 14 -37.5t38 -13.5q31 0 48 21.5 t26 73.5zM167 312h121q8 49 8 69q0 23 -13.5 36t-37.5 13q-33 0 -47.5 -22t-30.5 -96z" />
<glyph unicode="&#xeb;" horiz-adv-x="425" d="M325 579l22 103h105l-22 -103h-105zM142 579l22 103h104l-21 -103h-105zM258 164h112q-20 -99 -61.5 -139t-125.5 -40q-88 0 -131 43q-31 31 -31 100q0 46 17.5 133t38.5 146q38 106 169 106q159 0 159 -132q0 -48 -20 -149h-235q-18 -86 -18 -112q0 -24 14 -37.5 t38 -13.5q31 0 48 21.5t26 73.5zM167 312h121q8 49 8 69q0 23 -13.5 36t-37.5 13q-33 0 -47.5 -22t-30.5 -96z" />
<glyph unicode="&#xec;" horiz-adv-x="208" d="M139 568l-102 128h118l56 -128h-72zM-6 0l106 498h113l-106 -498h-113z" />
<glyph unicode="&#xed;" horiz-adv-x="208" d="M136 566l75 128h112l-112 -128h-75zM-6 0l106 498h113l-106 -498h-113z" />
<glyph unicode="&#xee;" horiz-adv-x="208" d="M29 569l117 128h100l65 -128h-77l-44 81l-71 -81h-90zM-6 0l106 498h113l-106 -498h-113z" />
<glyph unicode="&#xef;" horiz-adv-x="208" d="M200 579l22 103h98l-22 -103h-98zM57 579l22 103h97l-21 -103h-98zM-6 0l106 498h113l-106 -498h-113z" />
<glyph unicode="&#xf0;" horiz-adv-x="429" d="M411 661l-69 -36q39 -70 55 -120t16 -104q0 -103 -53 -289q-20 -68 -60 -98t-112 -30q-166 0 -166 129q0 74 23 180.5t49 150.5q40 69 131 69q44 0 84 -22q-6 32 -25 77l-9 21l-67 -36l-24 46l70 37l-4 11q-4 10 -13 27l56 32l23 -37l71 38zM135 120q0 -24 13 -37.5 t36 -13.5q30 0 47 20t27 67q31 149 45 247q-30 26 -57 26t-42.5 -16.5t-25.5 -56.5q-13 -51 -28 -134t-15 -102z" />
<glyph unicode="&#xf1;" horiz-adv-x="426" d="M146 583q10 51 34 75q27 25 66 25q31 0 75 -20q33 -14 48 -14q36 0 45 31h44q-15 -97 -98 -97q-28 0 -64 15q-42 19 -59 19q-35 0 -47 -34h-44zM-6 0l106 498h107l-10 -47q49 62 115 62q46 0 71.5 -25.5t25.5 -70.5q0 -36 -11 -85l-71 -332h-113l73 345q7 33 7 46 q0 16 -11 26t-29 10q-25 0 -45.5 -25t-29.5 -68l-72 -334h-113z" />
<glyph unicode="&#xf2;" horiz-adv-x="429" d="M227 568l-102 128h118l56 -128h-72zM20 126q4 79 27.5 179.5t46.5 138.5q44 69 152 69q95 0 131 -41q30 -34 30 -93q0 -70 -25 -176.5t-51 -148.5q-42 -69 -146 -69q-85 0 -127 35.5t-38 105.5zM255 157l18 88q22 88 22 135q0 21 -14 34.5t-36 13.5q-42 0 -61 -49 q-8 -23 -29 -124t-22 -127q-2 -28 11 -43t39 -15q55 0 72 87z" />
<glyph unicode="&#xf3;" horiz-adv-x="429" d="M215 566l75 128h112l-112 -128h-75zM20 126q4 79 27.5 179.5t46.5 138.5q44 69 152 69q95 0 131 -41q30 -34 30 -93q0 -70 -25 -176.5t-51 -148.5q-42 -69 -146 -69q-85 0 -127 35.5t-38 105.5zM255 157l18 88q22 88 22 135q0 21 -14 34.5t-36 13.5q-42 0 -61 -49 q-8 -23 -29 -124t-22 -127q-2 -28 11 -43t39 -15q55 0 72 87z" />
<glyph unicode="&#xf4;" horiz-adv-x="429" d="M138 569l117 128h100l65 -128h-77l-44 81l-71 -81h-90zM20 126q4 79 27.5 179.5t46.5 138.5q44 69 152 69q95 0 131 -41q30 -34 30 -93q0 -70 -25 -176.5t-51 -148.5q-42 -69 -146 -69q-85 0 -127 35.5t-38 105.5zM255 157l18 88q22 88 22 135q0 21 -14 34.5t-36 13.5 q-42 0 -61 -49q-8 -23 -29 -124t-22 -127q-2 -28 11 -43t39 -15q55 0 72 87z" />
<glyph unicode="&#xf5;" horiz-adv-x="429" d="M138 583q10 51 34 75q27 25 66 25q31 0 75 -20q33 -14 48 -14q36 0 45 31h44q-15 -97 -98 -97q-28 0 -64 15q-42 19 -59 19q-35 0 -47 -34h-44zM20 126q4 79 27.5 179.5t46.5 138.5q44 69 152 69q95 0 131 -41q30 -34 30 -93q0 -70 -25 -176.5t-51 -148.5 q-42 -69 -146 -69q-85 0 -127 35.5t-38 105.5zM255 157l18 88q22 88 22 135q0 21 -14 34.5t-36 13.5q-42 0 -61 -49q-8 -23 -29 -124t-22 -127q-2 -28 11 -43t39 -15q55 0 72 87z" />
<glyph unicode="&#xf6;" horiz-adv-x="429" d="M310 579l22 103h105l-22 -103h-105zM127 579l22 103h104l-21 -103h-105zM20 126q4 79 27.5 179.5t46.5 138.5q44 69 152 69q95 0 131 -41q30 -34 30 -93q0 -70 -25 -176.5t-51 -148.5q-42 -69 -146 -69q-85 0 -127 35.5t-38 105.5zM255 157l18 88q22 88 22 135 q0 21 -14 34.5t-36 13.5q-42 0 -61 -49q-8 -23 -29 -124t-22 -127q-2 -28 11 -43t39 -15q55 0 72 87z" />
<glyph unicode="&#xf7;" d="M275 468q-25 0 -42.5 17.5t-17.5 42.5t18 42.5t43 17.5q24 0 41.5 -17.5t17.5 -42.5t-17.5 -42.5t-42.5 -17.5zM54 308l17 80h352l-17 -80h-352zM143 168q0 25 18 42.5t43 17.5q24 0 41.5 -17.5t17.5 -42.5t-17.5 -42.5t-42.5 -17.5t-42.5 17.5t-17.5 42.5z" />
<glyph unicode="&#xf8;" horiz-adv-x="429" d="M-26 -1l54 68q-8 29 -8 55q0 87 40 229q26 91 67.5 126.5t122.5 35.5q70 0 115 -34l42 51l36 -31l-48 -59q14 -25 14 -54q0 -63 -22 -164t-45 -147q-25 -48 -62 -69t-98 -21q-38 0 -64 8t-63 30l-44 -53zM129 159l169 231q-7 42 -50 42q-40 0 -58 -38q-11 -22 -15.5 -39 t-27.5 -119zM132 106q8 -41 51 -41q25 0 41 16t28 53q5 16 45 197z" />
<glyph unicode="&#xf9;" horiz-adv-x="427" d="M248 568l-102 128h118l56 -128h-72zM222 0l11 49q-45 -64 -122 -64q-43 0 -69 26.5t-26 70.5q0 31 8 66l75 350h113l-70 -331q-9 -44 -9 -58q0 -17 11 -27.5t28 -10.5q32 0 50.5 29.5t34.5 103.5l62 294h114l-106 -498h-105z" />
<glyph unicode="&#xfa;" horiz-adv-x="427" d="M239 566l75 128h112l-112 -128h-75zM222 0l11 49q-45 -64 -122 -64q-43 0 -69 26.5t-26 70.5q0 31 8 66l75 350h113l-70 -331q-9 -44 -9 -58q0 -17 11 -27.5t28 -10.5q32 0 50.5 29.5t34.5 103.5l62 294h114l-106 -498h-105z" />
<glyph unicode="&#xfb;" horiz-adv-x="427" d="M146 569l117 128h100l65 -128h-77l-44 81l-71 -81h-90zM222 0l11 49q-45 -64 -122 -64q-43 0 -69 26.5t-26 70.5q0 31 8 66l75 350h113l-70 -331q-9 -44 -9 -58q0 -17 11 -27.5t28 -10.5q32 0 50.5 29.5t34.5 103.5l62 294h114l-106 -498h-105z" />
<glyph unicode="&#xfc;" horiz-adv-x="427" d="M324 579l22 103h105l-22 -103h-105zM141 579l22 103h104l-21 -103h-105zM222 0l11 49q-45 -64 -122 -64q-43 0 -69 26.5t-26 70.5q0 31 8 66l75 350h113l-70 -331q-9 -44 -9 -58q0 -17 11 -27.5t28 -10.5q32 0 50.5 29.5t34.5 103.5l62 294h114l-106 -498h-105z" />
<glyph unicode="&#xfd;" horiz-adv-x="399" d="M218 566l75 128h112l-112 -128h-75zM17 -81q7 -1 20 -1q56 0 55 88l-1 48l-34 444h118l5 -380l139 380h123l-250 -566q-20 -43 -32 -60q-32 -41 -98 -41q-22 0 -63 5z" />
<glyph unicode="&#xfe;" horiz-adv-x="424" d="M121 63l-49 -230h-113l177 834h103l-46 -214q31 34 55.5 47t56.5 13q47 0 74 -29t27 -80q0 -66 -19 -164t-44 -155q-43 -100 -122 -100q-74 0 -100 78zM188 91q19 0 32 15t26 50q16 44 30.5 115t14.5 104q0 23 -11 36.5t-30 13.5q-47 0 -68 -79q-13 -47 -25.5 -110.5 t-12.5 -83.5q0 -61 44 -61z" />
<glyph unicode="&#xff;" horiz-adv-x="399" d="M312 579l22 103h105l-22 -103h-105zM129 579l22 103h104l-21 -103h-105zM17 -81q7 -1 20 -1q56 0 55 88l-1 48l-34 444h118l5 -380l139 380h123l-250 -566q-20 -43 -32 -60q-32 -41 -98 -41q-22 0 -63 5z" />
<glyph unicode="&#x152;" horiz-adv-x="730" d="M319 0l12 54q-28 -44 -54 -57.5t-81 -13.5q-163 0 -163 152q0 100 50 311q32 131 82.5 182t147.5 51q53 0 78.5 -14t39.5 -49l11 51h323l-23 -105h-204l-35 -165h204l-22 -105h-204l-39 -187h221l-22 -105h-322zM156 162q-2 -39 17 -60t58 -21q35 0 56.5 21t37.5 71 q22 68 45 183.5t23 157.5q0 34 -19.5 52.5t-56.5 18.5q-32 0 -53.5 -21.5t-36.5 -68.5q-24 -76 -46 -179t-25 -154z" />
<glyph unicode="&#x153;" horiz-adv-x="670" d="M503 163h112q-11 -54 -23.5 -83t-33.5 -50q-45 -45 -130 -45q-75 0 -121 43q-31 -24 -59 -33.5t-70 -9.5q-74 0 -117 34.5t-43 93.5q0 39 16 124.5t35 145.5q21 68 63 99t113 31q47 0 74.5 -10.5t50.5 -38.5q49 49 125 49q74 0 115 -34t41 -95q0 -47 -22 -153h-236 q-18 -91 -18 -114t14 -36t38 -13q30 0 46.5 21t29.5 74zM410 312h123q9 48 9 65q0 24 -14 38t-38 14q-33 0 -50 -24.5t-30 -92.5zM135 123q0 -53 50 -53q32 0 47.5 21.5t28.5 81.5q2 12 27 118q12 55 12 80q0 55 -51 55q-29 0 -43.5 -16t-25.5 -59q-15 -55 -30 -131.5 t-15 -96.5z" />
<glyph unicode="&#x178;" horiz-adv-x="453" d="M362 735l22 106h102l-22 -106h-102zM197 735l22 106h103l-23 -106h-102zM132 0l58 272l-118 395h134l58 -261l140 261h136l-227 -395l-58 -272h-123z" />
<glyph unicode="&#x2c6;" horiz-adv-x="500" d="M175 569l117 128h100l65 -128h-77l-44 81l-71 -81h-90z" />
<glyph unicode="&#x2dc;" horiz-adv-x="500" d="M163 583q10 51 34 75q27 25 66 25q31 0 75 -20q33 -14 48 -14q36 0 45 31h44q-15 -97 -98 -97q-28 0 -64 15q-42 19 -59 19q-35 0 -47 -34h-44z" />
<glyph unicode="&#x2000;" horiz-adv-x="444" />
<glyph unicode="&#x2001;" horiz-adv-x="889" />
<glyph unicode="&#x2002;" horiz-adv-x="444" />
<glyph unicode="&#x2003;" horiz-adv-x="889" />
<glyph unicode="&#x2004;" horiz-adv-x="296" />
<glyph unicode="&#x2005;" horiz-adv-x="222" />
<glyph unicode="&#x2006;" horiz-adv-x="148" />
<glyph unicode="&#x2007;" horiz-adv-x="148" />
<glyph unicode="&#x2008;" horiz-adv-x="111" />
<glyph unicode="&#x2009;" horiz-adv-x="177" />
<glyph unicode="&#x200a;" horiz-adv-x="49" />
<glyph unicode="&#x2010;" horiz-adv-x="187" d="M-7 216l21 99h187l-21 -99h-187z" />
<glyph unicode="&#x2011;" horiz-adv-x="187" d="M-7 216l21 99h187l-21 -99h-187z" />
<glyph unicode="&#x2012;" horiz-adv-x="187" d="M-7 216l21 99h187l-21 -99h-187z" />
<glyph unicode="&#x2013;" horiz-adv-x="428" d="M40 216l21 99h334l-22 -99h-333z" />
<glyph unicode="&#x2014;" horiz-adv-x="570" d="M-7 216l21 99h570l-21 -99h-570z" />
<glyph unicode="&#x2018;" horiz-adv-x="214" d="M86 435l22 106q14 71 48.5 103.5t100.5 35.5l-8 -37q-37 -4 -57 -25.5t-28 -65.5h66l-25 -117h-119z" />
<glyph unicode="&#x2019;" horiz-adv-x="214" d="M84 422l8 37q37 4 57 25.5t28 65.5h-66l25 117h119l-22 -106q-14 -71 -48.5 -103.5t-100.5 -35.5z" />
<glyph unicode="&#x201a;" horiz-adv-x="214" d="M-6 0l25 117h119l-22 -106q-14 -71 -48.5 -103.5t-100.5 -35.5l8 37q37 4 57 25.5t28 65.5h-66z" />
<glyph unicode="&#x201c;" horiz-adv-x="393" d="M265 435l23 106q15 71 49.5 103.5t98.5 35.5l-7 -37q-38 -4 -58 -25.5t-27 -65.5h65l-25 -117h-119zM86 435l22 106q14 71 48.5 103.5t100.5 35.5l-8 -37q-37 -4 -57 -25.5t-28 -65.5h66l-25 -117h-119z" />
<glyph unicode="&#x201d;" horiz-adv-x="393" d="M263 422l8 37q38 4 58 25.5t27 65.5h-65l25 117h118l-22 -106q-14 -71 -48.5 -103.5t-100.5 -35.5zM84 422l8 37q37 4 57 25.5t28 65.5h-66l25 117h119l-22 -106q-14 -71 -48.5 -103.5t-100.5 -35.5z" />
<glyph unicode="&#x201e;" horiz-adv-x="393" d="M174 0l25 117h118l-22 -106q-14 -71 -48.5 -103.5t-100.5 -35.5l8 37q72 7 85 91h-65zM-6 0l25 117h119l-22 -106q-14 -71 -48.5 -103.5t-100.5 -35.5l8 37q37 4 57 25.5t28 65.5h-66z" />
<glyph unicode="&#x2022;" horiz-adv-x="667" d="M335 200q-58 0 -98.5 40.5t-40.5 97.5q0 58 40.5 98.5t99.5 40.5q56 0 96.5 -41t40.5 -98t-40.5 -97.5t-97.5 -40.5z" />
<glyph unicode="&#x2026;" horiz-adv-x="641" d="M421 0l25 116h119l-25 -116h-119zM208 0l24 116h119l-25 -116h-118zM-6 0l25 116h119l-25 -116h-119z" />
<glyph unicode="&#x202f;" horiz-adv-x="177" />
<glyph unicode="&#x2039;" horiz-adv-x="217" d="M139 92l-112 137l16 78l168 120l-21 -99l-97 -71l65 -78z" />
<glyph unicode="&#x203a;" horiz-adv-x="217" d="M10 92l21 99l96 71l-64 78l18 87l113 -137l-17 -78z" />
<glyph unicode="&#x205f;" horiz-adv-x="222" />
<glyph unicode="&#x20ac;" horiz-adv-x="545" d="M376 219h121q-16 -73 -32 -110t-43 -66q-56 -60 -154 -60q-91 0 -140.5 45t-49.5 129q0 46 10 102h-63l29 53h43q3 19 8 42h-60l30 53h42q35 159 87.5 218t160.5 59q186 0 186 -165q0 -26 -7 -82h-122q8 47 8 70q0 42 -16.5 61t-51.5 19q-46 0 -69.5 -37t-46.5 -143h133 l-30 -53h-114l-9 -42h99l-30 -53h-80q-13 -68 -13 -109q0 -33 18 -51t51 -18q40 0 62.5 29t42.5 109z" />
<glyph unicode="&#x2122;" horiz-adv-x="624" d="M278 287l82 380h109l3 -224l96 224h114l-81 -380h-76l55 256l-113 -256h-52l-6 260l-56 -260h-75zM92 287l67 312h-85l15 68h240l-14 -68h-79l-66 -312h-78z" />
</font>
</defs>
</svg>
