<?xml version="1.0" standalone="no"?>
<!DOCTYPE svg PUBLIC "-//W3C//DTD SVG 1.1//EN" "http://www.w3.org/Graphics/SVG/1.1/DTD/svg11.dtd" >
<svg xmlns="http://www.w3.org/2000/svg">
<metadata></metadata>
<defs>
<font id="foundation_sansultra_light" horiz-adv-x="567" >
<font-face units-per-em="1000" ascent="825" descent="-175" />
<missing-glyph horiz-adv-x="250" />
<glyph unicode="&#xfb01;" horiz-adv-x="470" d="M116 0v457h-76v16h76v64q0 48 4.5 68.5t18.5 36.5q23 27 78 27q14 0 23 -1v-15q-40 0 -53.5 -2.5t-26.5 -11.5q-28 -20 -28 -89v-77h97v-16h-97v-457h-16zM384 571v96h16v-96h-16zM384 0v473h16v-473h-16z" />
<glyph unicode="&#xfb02;" horiz-adv-x="470" d="M116 0v457h-76v16h76v64q0 48 4.5 68.5t18.5 36.5q23 27 78 27q14 0 23 -1v-15q-40 0 -53.5 -2.5t-26.5 -11.5q-28 -20 -28 -89v-77h97v-16h-97v-457h-16zM384 0v667h16v-667h-16z" />
<glyph unicode="&#xfb03;" horiz-adv-x="739" d="M116 0v457h-76v16h76v64q0 48 4.5 68.5t18.5 36.5q23 27 78 27q14 0 23 -1v-15q-40 0 -53.5 -2.5t-26.5 -11.5q-28 -20 -28 -89v-77h252v64q0 48 4.5 68.5t18.5 36.5q24 27 79 27q14 0 23 -1v-15q-41 0 -54.5 -2.5t-26.5 -11.5q-28 -19 -28 -89v-77h98v-16h-98v-457h-16 v457h-252v-457h-16zM653 571v96h16v-96h-16zM653 0v473h16v-473h-16z" />
<glyph unicode="&#xfb04;" horiz-adv-x="739" d="M116 0v457h-76v16h76v64q0 48 4.5 68.5t18.5 36.5q23 27 78 27q14 0 23 -1v-15q-40 0 -53.5 -2.5t-26.5 -11.5q-28 -20 -28 -89v-77h252v64q0 48 4.5 68.5t18.5 36.5q24 27 79 27q14 0 23 -1v-15q-41 0 -54.5 -2.5t-26.5 -11.5q-28 -19 -28 -89v-77h98v-16h-98v-457h-16 v457h-252v-457h-16zM653 0v667h16v-667h-16z" />
<glyph horiz-adv-x="1000" />
<glyph horiz-adv-x="1000" />
<glyph unicode="&#xd;" horiz-adv-x="1000" />
<glyph unicode=" "  horiz-adv-x="250" />
<glyph unicode="&#x09;" horiz-adv-x="250" />
<glyph unicode="&#xa0;" horiz-adv-x="250" />
<glyph unicode="!" horiz-adv-x="162" d="M73 173v494h16v-494h-16zM73 0v91h16v-91h-16z" />
<glyph unicode="&#x22;" horiz-adv-x="298" d="M193 403l-4 264h23l-4 -264h-15zM90 403l-3 264h22l-3 -264h-16z" />
<glyph unicode="#" horiz-adv-x="571" d="M88 0l45 229h-99l3 16h99l41 213h-98l3 16h98l38 193h15l-37 -193h227l37 193h16l-38 -193h99l-3 -16h-99l-41 -213h99l-3 -16h-99l-45 -229h-15l44 229h-227l-44 -229h-16zM152 245h226l42 213h-227z" />
<glyph unicode="$" d="M54 187q0 -92 51.5 -135.5t169.5 -50.5v321q-97 20 -128 37q-76 42 -76 125q0 73 54 116.5t150 47.5v67h16v-67q110 -5 160.5 -50.5t47.5 -135.5h-17q2 83 -44 124.5t-147 45.5v-296q130 -23 184.5 -63.5t54.5 -113.5q0 -52 -28 -91.5t-80 -60.5q-45 -18 -131 -22v-68 h-16v68q-247 6 -238 210h17v-8zM275 339v293q-86 -1 -137 -41t-51 -108q0 -80 79 -116q24 -11 109 -28zM291 0q87 3 137 27q86 42 86 133q0 46 -25 77t-79 51q-35 13 -119 30v-318z" />
<glyph unicode="%" horiz-adv-x="642" d="M89 -26l438 703h22l-438 -704zM165 344q-67 0 -105 42.5t-38 116.5q0 73 39 115t107 42q65 0 103.5 -43t38.5 -115q0 -71 -40 -114.5t-105 -43.5zM165 360q59 0 94 39t35 104q0 66 -33.5 103.5t-92.5 37.5q-61 0 -95.5 -37.5t-34.5 -105.5q0 -67 33.5 -104t93.5 -37z M335 148q0 74 39 116t106 42q65 0 103.5 -42t38.5 -114q0 -74 -38.5 -117t-104.5 -43q-68 0 -106 42t-38 116zM351 147q0 -67 33.5 -104t93.5 -37q59 0 93.5 39t34.5 106q0 64 -34 101.5t-92 37.5q-63 0 -96 -36.5t-33 -106.5z" />
<glyph unicode="&#x26;" horiz-adv-x="572" d="M513 0l-88 112q-74 -125 -193 -125q-81 0 -136.5 49t-55.5 120q0 76 72 137q28 25 110 76l-53 63q-47 56 -47 107q0 56 38.5 92t98.5 36q57 0 95 -35.5t38 -90.5q0 -63 -67 -119q-13 -11 -78 -58l175 -220q24 54 24 115h18q0 -68 -31 -132l99 -127h-19zM236 378 q67 44 89 63q51 47 51 100q0 49 -33 79.5t-86 30.5t-86 -30.5t-33 -79.5q0 -24 9 -43t33 -50zM414 126l-183 229q-79 -48 -116 -80q-59 -51 -59 -118q0 -64 51 -109t125 -45q66 0 119 44q30 24 63 79z" />
<glyph unicode="'" horiz-adv-x="196" d="M90 403l-3 264h22l-3 -264h-16z" />
<glyph unicode="(" horiz-adv-x="347" d="M286 -117q-113 202 -113 407q0 102 24 191.5t79 195.5h17q-59 -116 -81.5 -201t-22.5 -188q0 -209 117 -405h-20z" />
<glyph unicode=")" horiz-adv-x="347" d="M54 -117q59 116 81.5 201t22.5 188q0 209 -118 405h20q60 -107 87 -203t27 -204q0 -102 -24 -192t-80 -195h-16z" />
<glyph unicode="*" horiz-adv-x="365" d="M111 439l-13 11l69 89l-106 38l5 15l108 -37v112h17v-112l108 37l5 -15l-106 -38l69 -89l-13 -11l-71 91z" />
<glyph unicode="+" d="M276 153v176h-177v16h177v177h16v-177h176v-16h-176v-176h-16z" />
<glyph unicode="," horiz-adv-x="146" d="M63 3v88h16v-83q0 -39 -8 -63t-31 -55v27q23 31 23 86z" />
<glyph unicode="-" horiz-adv-x="208" d="M0 229v16h208v-16h-208z" />
<glyph unicode="." horiz-adv-x="149" d="M67 0v91h16v-91h-16z" />
<glyph unicode="/" horiz-adv-x="397" d="M7 -117h-19l353 794h20z" />
<glyph unicode="0" d="M283 -13q-109 0 -173.5 88.5t-64.5 238.5q0 151 65.5 243.5t172.5 92.5q52 0 99.5 -25t77.5 -69q62 -89 62 -250q0 -145 -65 -232t-174 -87zM283 3q102 0 162.5 82.5t60.5 220.5q0 156 -59 240q-28 41 -72 64.5t-92 23.5q-100 0 -161 -87.5t-61 -232.5q0 -143 59.5 -227 t162.5 -84z" />
<glyph unicode="1" d="M307 0v621q-22 -37 -70 -70t-101 -50v16q47 14 93.5 46.5t77.5 73.5h16v-637h-16z" />
<glyph unicode="2" d="M69 0q12 69 49.5 110.5t165.5 129.5q97 66 140 122.5t43 116.5q0 70 -49 112.5t-131 42.5q-88 0 -138.5 -51.5t-50.5 -142.5v-13h-16q-1 8 -1 17q0 94 55.5 150t150.5 56q87 0 141.5 -47t54.5 -123q0 -85 -88 -170q-30 -29 -54 -47.5t-101 -71.5q-81 -56 -111 -91.5 t-38 -83.5h407v-16h-429z" />
<glyph unicode="3" d="M90 438h-18q2 53 13 85t37 60q62 67 170 67q87 0 142 -45t55 -116q0 -59 -38 -96.5t-106 -47.5q69 -11 101 -35q61 -47 61 -129q0 -86 -62 -140t-161 -54q-67 0 -118.5 26.5t-78.5 74.5q-28 48 -28 128h19q-1 -4 -1 -9q0 -77 33 -124q56 -80 172 -80q92 0 150.5 50 t58.5 129q0 51 -26.5 87.5t-74.5 52.5q-35 11 -134 15v17h4h10q82 0 123 18q80 35 80 117q0 65 -49.5 105t-131.5 40q-113 0 -167 -73q-34 -46 -35 -123z" />
<glyph unicode="4" d="M56 170v23l315 444h22v-451h118v-16h-118v-170h-16v170h-321zM72 186h305v431z" />
<glyph unicode="5" d="M165 621l-61 -274q65 88 178 88q100 0 158 -60q29 -29 46 -73.5t17 -89.5q0 -94 -63 -157t-156 -63q-61 0 -112 26t-79 70q-31 51 -30 122h16v-6q0 -16 6 -50q16 -76 80 -114q54 -32 120 -32q86 0 144 58t58 146q0 92 -56.5 149.5t-147.5 57.5q-122 0 -179 -97h-20 l67 315h329v-16h-315z" />
<glyph unicode="6" d="M489 488h-16q-16 71 -63 108.5t-119 37.5q-79 0 -129.5 -46t-68.5 -136q-15 -72 -15 -202q8 44 21.5 69.5t39.5 49.5q63 57 149 57q91 0 154.5 -63.5t63.5 -154.5q0 -93 -63.5 -157t-155.5 -64q-55 0 -104 26t-78 71q-43 65 -43 200q0 187 56 276.5t173 89.5 q78 0 128.5 -41.5t69.5 -120.5zM83 206q0 -84 59.5 -143.5t143.5 -59.5q85 0 144.5 59.5t59.5 143.5t-59 144t-141 60q-88 0 -147.5 -59t-59.5 -145z" />
<glyph unicode="7" d="M187 0q5 174 82.5 341t205.5 280h-396v16h408v-24q-127 -114 -203 -279t-79 -334h-18z" />
<glyph unicode="8" d="M56 176q0 45 22 84t59 61q35 19 98 27q-66 9 -94 27q-30 18 -47 49.5t-17 68.5q0 73 54.5 115t148.5 42q96 0 153 -43.5t57 -116.5q0 -74 -64 -115q-30 -19 -88 -27q72 -9 107 -34q30 -22 47.5 -60t17.5 -81q0 -84 -63.5 -135t-167.5 -51q-97 0 -160 53.5t-63 135.5z M287 357q89 0 138 34.5t49 97.5q0 67 -52.5 106t-141.5 39q-87 0 -137 -38t-50 -104t49.5 -100.5t144.5 -34.5zM72 178q0 -77 59 -126t151 -49q95 0 153.5 46.5t58.5 121.5q0 169 -213 169q-96 0 -147 -37q-62 -45 -62 -125z" />
<glyph unicode="9" d="M79 149h15q35 -146 182 -146q160 0 198 182q16 76 16 202q-15 -76 -61 -119q-63 -57 -150 -57q-90 0 -153.5 63.5t-63.5 154.5q0 93 63.5 157t155.5 64q55 0 104 -26t78 -71q43 -65 43 -200q0 -187 -56 -276.5t-173 -89.5q-161 0 -198 162zM282 227q83 0 143 60t60 144 q0 83 -59.5 143t-141.5 60q-87 0 -146.5 -59t-59.5 -145q0 -84 60 -143.5t144 -59.5z" />
<glyph unicode=":" horiz-adv-x="149" d="M67 383v90h16v-90h-16zM67 0v91h16v-91h-16z" />
<glyph unicode=";" horiz-adv-x="146" d="M64 383v90h16v-90h-16zM63 3v88h16v-83q0 -39 -8 -63t-31 -55v27q23 31 23 86z" />
<glyph unicode="&#x3c;" horiz-adv-x="500" d="M33 323v21l433 186v-21l-410 -176l410 -176v-20z" />
<glyph unicode="=" d="M99 390v16h369v-16h-369zM99 268v16h369v-16h-369z" />
<glyph unicode="&#x3e;" horiz-adv-x="500" d="M34 137v20l410 176l-410 176v21l433 -186v-21z" />
<glyph unicode="?" horiz-adv-x="467" d="M229 171v13q0 51 16.5 80.5t72.5 81.5q52 48 72.5 81.5t20.5 71.5q0 66 -48.5 107.5t-125.5 41.5q-105 0 -154 -82q-23 -38 -27 -120h-16q2 53 10 83.5t28 58.5q57 76 160 76q83 0 136 -46t53 -117q0 -46 -20 -78.5t-82 -90.5q-53 -49 -66.5 -75.5t-13.5 -80.5v-5h-16z M229 0v91h16v-91h-16z" />
<glyph unicode="@" horiz-adv-x="705" d="M600 56l6 -19q-104 -50 -226 -50q-149 0 -241 98q-43 47 -67.5 112.5t-24.5 135.5q0 146 93 246t228 100q126 0 208.5 -85t82.5 -214q0 -93 -41.5 -164.5t-94.5 -71.5q-23 0 -38 20.5t-15 52.5q0 8 2 32q-54 -107 -169 -107q-63 0 -99 36t-36 98q0 97 51 163 q55 71 147 71q72 0 110 -47q15 -19 23 -57l17 93h16l-41 -230q-6 -31 -6 -48q0 -28 11.5 -44.5t31.5 -16.5q43 0 79 69t36 152q0 124 -77.5 203t-197.5 79q-129 0 -217 -95.5t-88 -235.5q0 -136 83 -232q84 -97 233 -97q105 0 221 53zM184 279q0 -55 34 -88t90 -33 q80 0 130.5 59t50.5 153q0 56 -34.5 90t-90.5 34q-92 0 -141 -76q-39 -59 -39 -139z" />
<glyph unicode="A" horiz-adv-x="571" d="M7 0l273 667h18l267 -667h-19l-87 217h-345l-89 -217h-18zM122 233h329l-163 411z" />
<glyph unicode="B" horiz-adv-x="618" d="M90 0v667h250q103 0 162 -44.5t59 -121.5q0 -71 -53 -118q-33 -28 -95 -39q74 -7 117 -42q55 -44 55 -123q0 -94 -82 -146q-54 -33 -163 -33h-250zM106 353h248q93 0 142 40q49 41 49 107q0 71 -54.5 111t-150.5 40h-234v-298zM106 16h234q116 0 167 39q62 48 62 124 q0 86 -74 129q-50 29 -141 29h-248v-321z" />
<glyph unicode="C" horiz-adv-x="658" d="M608 257h16q-7 -86 -51 -147q-89 -123 -236 -123q-125 0 -211 88q-93 96 -93 255q0 156 85.5 253t223.5 97q148 0 230 -112q32 -44 44 -106h-17q-20 95 -88 148.5t-168 53.5q-133 0 -213.5 -92t-80.5 -243t88 -243q81 -83 199 -83q74 0 135.5 35.5t100.5 100.5 q29 48 36 118z" />
<glyph unicode="D" horiz-adv-x="638" d="M90 0v667h196q154 0 232 -77q41 -41 64.5 -108.5t23.5 -146.5t-24.5 -147.5t-68.5 -111.5q-41 -41 -93.5 -58.5t-134.5 -17.5h-195zM106 16h174q89 0 142 19.5t93 66.5q75 87 75 237q0 167 -96 251q-37 33 -87 47t-128 14h-173v-635z" />
<glyph unicode="E" horiz-adv-x="609" d="M90 0v667h445v-16h-429v-298h403v-16h-403v-321h429v-16h-445z" />
<glyph unicode="F" horiz-adv-x="573" d="M90 0v667h413v-16h-397v-298h352v-16h-352v-337h-16z" />
<glyph unicode="G" horiz-adv-x="690" d="M620 0v194q-20 -74 -60 -118q-36 -41 -93 -65t-120 -24q-61 0 -119 23t-100 63q-95 92 -95 251q0 156 85.5 253.5t222.5 97.5q102 0 177 -59t102 -161h-15q-25 94 -95.5 149t-167.5 55q-131 0 -212 -92.5t-81 -241.5q0 -151 90 -240q85 -82 209 -82q75 0 135.5 33 t96.5 93q20 34 28.5 69.5t11.5 98.5h-262v16h278v-313h-16z" />
<glyph unicode="H" horiz-adv-x="683" d="M90 0v667h16v-313h471v313h16v-667h-16v338h-471v-338h-16z" />
<glyph unicode="I" horiz-adv-x="222" d="M103 0v667h16v-667h-16z" />
<glyph unicode="J" horiz-adv-x="482" d="M392 667v-488q0 -53 -10.5 -84.5t-35.5 -56.5q-51 -51 -141 -51q-119 0 -157 88q-15 37 -15 132h16v-35q0 -169 156 -169q100 0 146 69q25 37 25 135v460h16z" />
<glyph unicode="K" horiz-adv-x="642" d="M90 0v667h16v-408l466 408h24l-322 -282l342 -385h-20l-334 375l-156 -136v-239h-16z" />
<glyph unicode="L" horiz-adv-x="528" d="M90 0v667h16v-651h395v-16h-411z" />
<glyph unicode="M" horiz-adv-x="809" d="M90 0v667h27l287 -650l289 650h26v-667h-16v644l-289 -644h-21l-287 644v-644h-16z" />
<glyph unicode="N" horiz-adv-x="683" d="M90 0v667h24l463 -646v646h16v-667h-22l-465 649v-649h-16z" />
<glyph unicode="O" horiz-adv-x="686" d="M33 334q0 154 86 250t224 96q137 0 223 -96t86 -249q0 -156 -87 -252t-227 -96q-134 0 -219.5 97t-85.5 250zM49 334q0 -146 80.5 -238.5t208.5 -92.5q134 0 216 91q82 92 82 241q0 146 -81.5 237.5t-211.5 91.5q-132 0 -213 -91t-81 -239z" />
<glyph unicode="P" horiz-adv-x="580" d="M90 0v667h269q104 0 152 -52q49 -51 49 -127q0 -90 -66 -140q-52 -40 -146 -40h-242v-308h-16zM106 324h242q97 0 148 46q48 43 48 118q0 82 -56 128q-42 35 -140 35h-242v-327z" />
<glyph unicode="Q" horiz-adv-x="685" d="M655 -17l-112 78q-83 -74 -199 -74q-138 0 -224.5 94t-86.5 244q0 159 85.5 257t224.5 98q137 0 223 -96t86 -249q0 -155 -96 -262l109 -75zM421 164l121 -81q50 58 72 117.5t22 136.5q0 144 -82 235.5t-211 91.5q-131 0 -212.5 -94.5t-81.5 -245.5q0 -137 74 -221 q86 -100 220 -100q111 0 185 68l-116 79z" />
<glyph unicode="R" horiz-adv-x="624" d="M91 0v667h244q118 0 170 -39q64 -50 64 -138q0 -80 -59 -128q-37 -29 -101 -39q50 -6 77.5 -19.5t45.5 -41.5q17 -28 21 -56t9 -142q1 -36 9 -64h-17q-7 26 -8 64q-5 126 -13 155q-15 52 -57.5 74t-127.5 22h-241v-315h-16zM107 331h246q94 0 147 42.5t53 117.5 q0 91 -73 134q-43 26 -158 26h-215v-320z" />
<glyph unicode="S" horiz-adv-x="613" d="M53 226v27h16v-31q0 -107 63 -163t184 -56q93 0 151 37q77 49 77 136q0 71 -53 105q-37 24 -120 46l-131 35q-73 19 -108 41q-59 37 -59 112q0 76 60 120.5t163 44.5q170 0 223 -111q13 -26 16.5 -45.5t3.5 -67.5h-17q-1 46 -4 64.5t-14 42.5q-22 48 -77 74.5t-132 26.5 q-93 0 -149.5 -41t-56.5 -109q0 -62 49 -95q28 -20 105 -41l133 -37q92 -25 127 -49q57 -40 57 -116q0 -86 -67.5 -137.5t-179.5 -51.5q-126 0 -193 61.5t-67 177.5z" />
<glyph unicode="T" horiz-adv-x="554" d="M268 0v651h-241v16h501v-16h-244v-651h-16z" />
<glyph unicode="U" horiz-adv-x="676" d="M586 667v-398q0 -84 -13.5 -130.5t-48.5 -83.5q-64 -68 -186 -68q-135 0 -199 83q-28 36 -38.5 78.5t-10.5 120.5v398h16v-398q0 -76 12.5 -121t42.5 -79q59 -66 177 -66q130 0 188 80q24 33 34 75t10 111v398h16z" />
<glyph unicode="V" horiz-adv-x="558" d="M269 0l-262 667h19l254 -649l253 649h19l-260 -667h-23z" />
<glyph unicode="W" horiz-adv-x="851" d="M207 0l-200 667h18l192 -642l195 642h29l196 -651l190 651h17l-195 -667h-24l-199 658l-200 -658h-19z" />
<glyph unicode="X" horiz-adv-x="591" d="M27 0l259 343l-244 324h21l233 -311l235 311h21l-245 -324l257 -343h-20l-248 329l-248 -329h-21z" />
<glyph unicode="Y" horiz-adv-x="576" d="M284 0v282l-277 385h20l265 -371l258 371h20l-270 -385v-282h-16z" />
<glyph unicode="Z" horiz-adv-x="602" d="M53 0v24l467 627h-446v16h462v-22l-468 -629h480v-16h-495z" />
<glyph unicode="[" horiz-adv-x="329" d="M173 -107v774h142v-16h-126v-742h126v-16h-142z" />
<glyph unicode="\" horiz-adv-x="397" d="M388 -117l-354 794h20l353 -794h-19z" />
<glyph unicode="]" horiz-adv-x="329" d="M13 -91h126v742h-126v16h142v-774h-142v16z" />
<glyph unicode="^" horiz-adv-x="500" d="M45 393l192 274h26l193 -274h-27l-180 259l-179 -259h-25z" />
<glyph unicode="_" horiz-adv-x="500" d="M0 -83h500v-21h-500v21z" />
<glyph unicode="`" horiz-adv-x="500" d="M261 550l-159 98h30l160 -98h-31z" />
<glyph unicode="a" horiz-adv-x="475" d="M383 66v50q-55 -129 -189 -129q-73 0 -118.5 37t-45.5 96q0 90 95 125q37 14 171 22q65 4 80 22q7 9 7 35v18q0 70 -41 101q-38 27 -105 27q-77 0 -115 -32.5t-47 -105.5h-17q15 154 176 154q80 0 126 -38q22 -19 30.5 -43t8.5 -67v-265q0 -38 7 -47.5t38 -9.5h18v-16 q-47 0 -59 7q-13 7 -16.5 18t-3.5 41zM383 194v87q-15 -18 -40.5 -23.5t-109.5 -9.5q-187 -9 -187 -129q0 -52 40.5 -84t107.5 -32q90 0 146 69q43 53 43 122z" />
<glyph unicode="b" horiz-adv-x="516" d="M70 0v667h16v-323q20 57 49 86q56 56 142 56q98 0 153.5 -68t55.5 -187q0 -114 -55 -179t-150 -65q-96 0 -149 61q-26 29 -46 89v-137h-16zM86 241q0 -110 52.5 -174t142.5 -64q86 0 137.5 61t51.5 164q0 112 -52 177t-141 65q-86 0 -138.5 -63t-52.5 -166z" />
<glyph unicode="c" horiz-adv-x="471" d="M425 163h16q-12 -72 -47 -112q-55 -64 -152 -64q-94 0 -153 69.5t-59 181.5q0 111 59.5 179.5t156.5 68.5q80 0 132 -42t56 -109h-17q-3 60 -50 97.5t-120 37.5q-91 0 -146 -63t-55 -167q0 -107 53.5 -172t141.5 -65q154 0 184 160z" />
<glyph unicode="d" horiz-adv-x="516" d="M430 0v137q-20 -60 -46 -89q-53 -61 -149 -61t-150.5 65t-54.5 179q0 119 55.5 187t153.5 68q86 0 142 -56q29 -29 49 -86v323h16v-667h-16zM236 3q89 0 141.5 64.5t52.5 173.5q0 103 -52.5 166t-138.5 63q-88 0 -140.5 -64t-52.5 -171q0 -108 51 -170t139 -62z" />
<glyph unicode="e" horiz-adv-x="478" d="M448 228h-400q3 -92 40 -146q53 -79 154 -79q73 0 121.5 43t61.5 119h17q-16 -84 -69 -131t-132 -47q-94 0 -152.5 67.5t-58.5 176.5q0 116 59 185.5t156 69.5q58 0 104.5 -28.5t72.5 -80.5q26 -53 26 -138v-11zM48 244h383q1 56 -12 96q-20 62 -66 96t-109 34 q-89 0 -141 -60t-55 -166z" />
<glyph unicode="f" horiz-adv-x="267" d="M116 0v457h-76v16h76v64q0 48 4.5 68.5t18.5 36.5q23 27 78 27q14 0 23 -1v-15q-40 0 -53.5 -2.5t-26.5 -11.5q-28 -20 -28 -89v-77h97v-16h-97v-457h-16z" />
<glyph unicode="g" horiz-adv-x="506" d="M56 -28h17q9 -129 164 -129q102 0 149 61q34 44 34 142v115q-17 -50 -48 -80q-57 -54 -143 -54q-91 0 -145.5 61.5t-54.5 165.5q0 106 55.5 169t149.5 63q87 0 144 -59q22 -22 42 -70v116h16v-429q0 -65 -9.5 -98.5t-37.5 -62.5q-51 -56 -154 -56q-101 0 -147 55 q-27 32 -32 90zM230 43q85 0 139 59q51 56 51 150q0 102 -53 159q-54 59 -135 59q-85 0 -136 -58.5t-51 -156.5q0 -97 50 -154.5t135 -57.5z" />
<glyph unicode="h" horiz-adv-x="499" d="M70 6v661h16v-316q24 58 53 86q52 49 125 49q92 0 140 -64q35 -45 35 -126v-296h-16v283q0 53 -8.5 83.5t-30.5 54.5q-44 49 -120 49q-100 0 -150 -90q-28 -48 -28 -130v-250z" />
<glyph unicode="i" horiz-adv-x="156" d="M70 571v96h16v-96h-16zM70 0v473h16v-473h-16z" />
<glyph unicode="j" horiz-adv-x="167" d="M81 571v96h16v-96h-16zM81 -57v530h16v-547q0 -57 -32 -76q-22 -14 -85 -14v15q8 1 17 1q54 1 71 20q13 14 13 71z" />
<glyph unicode="k" horiz-adv-x="460" d="M70 0v667h16v-462l332 268h23l-216 -176l235 -297h-19l-228 287l-127 -103v-184h-16z" />
<glyph unicode="l" horiz-adv-x="156" d="M70 0v667h16v-667h-16z" />
<glyph unicode="m" horiz-adv-x="757" d="M70 0v473h16v-112q17 51 43 79q43 46 114 46q74 0 115 -49q20 -24 29 -66q20 52 47 76q44 39 111 39q75 0 119 -50q20 -23 26.5 -46.5t6.5 -69.5v-320h-16v320q0 78 -34 112q-38 38 -99 38q-70 0 -113 -45t-43 -118v-307h-16v307q0 86 -32 122q-36 41 -101 41 q-71 0 -114 -53.5t-43 -142.5v-274h-16z" />
<glyph unicode="n" horiz-adv-x="499" d="M70 0v473h16v-122q25 59 53 87q51 48 125 48q91 0 140 -63q35 -46 35 -127v-296h-16v283q0 53 -8.5 83.5t-30.5 54.5q-44 49 -120 49q-100 0 -150 -90q-28 -48 -28 -130v-250h-16z" />
<glyph unicode="o" horiz-adv-x="490" d="M30 237q0 112 59.5 180.5t156.5 68.5q99 0 156.5 -69.5t57.5 -190.5q0 -109 -58.5 -174t-156.5 -65q-97 0 -156 69t-59 181zM46 237q0 -105 54.5 -169.5t144.5 -64.5q92 0 145.5 60t53.5 163q0 113 -53 178.5t-145 65.5q-90 0 -145 -64t-55 -169z" />
<glyph unicode="p" horiz-adv-x="516" d="M86 473v-137q20 60 46 89q53 61 149 61t150.5 -65t54.5 -179q0 -119 -55.5 -187t-153.5 -68q-86 0 -142 56q-29 29 -49 86v-289h-16v633h16zM86 232q0 -103 52.5 -166t138.5 -63q88 0 140.5 64.5t52.5 171.5t-51 169t-139 62q-89 0 -141.5 -64t-52.5 -174z" />
<glyph unicode="q" horiz-adv-x="516" d="M430 -160v289q-20 -57 -49 -86q-56 -56 -142 -56q-98 0 -153.5 68t-55.5 187q0 114 55 179t150 65q96 0 149 -61q26 -29 46 -89v137h16v-633h-16zM239 3q86 0 138.5 63t52.5 166q0 110 -52.5 174t-142.5 64q-86 0 -137.5 -61t-51.5 -164q0 -112 52 -177t141 -65z" />
<glyph unicode="r" horiz-adv-x="277" d="M70 0v473h16v-139q23 73 69 106.5t122 32.5v-14q-48 -2 -75.5 -12t-52.5 -33q-63 -59 -63 -181v-233h-16z" />
<glyph unicode="s" horiz-adv-x="459" d="M47 162h17q0 -76 44.5 -117.5t127.5 -41.5q74 0 117.5 32.5t43.5 87.5t-47 79q-37 18 -107 34l-38 9q-61 15 -91 32q-49 29 -49 85t44 90t118 34q103 0 145 -56q26 -32 26 -92h-16q-1 61 -30 91q-39 41 -127 41q-66 0 -105 -29t-39 -78q0 -40 28 -62.5t99 -39.5l39 -9 q94 -22 130 -50t36 -78q0 -62 -48.5 -99.5t-128.5 -37.5q-89 0 -138.5 45t-50.5 130z" />
<glyph unicode="t" horiz-adv-x="289" d="M237 1h-19q-35 0 -54 9.5t-30 32.5q-10 20 -10 79v335h-81v16h81v155h16v-155h102v-16h-102v-335q0 -62 16 -83t63 -21h18v-17z" />
<glyph unicode="u" horiz-adv-x="491" d="M405 0v116q-17 -59 -63 -94t-107 -35q-88 0 -139 68q-36 48 -36 134v284h16v-284q0 -84 39 -132q46 -54 118 -54q87 0 138 74q19 27 26.5 55.5t7.5 76.5v264h16v-473h-16z" />
<glyph unicode="v" horiz-adv-x="420" d="M208 0l-201 473h19l193 -456l176 456h19l-183 -473h-23z" />
<glyph unicode="w" horiz-adv-x="701" d="M174 0l-154 473h17l149 -460l153 460h25l147 -454l152 454h18l-158 -473h-23l-149 459l-152 -459h-25z" />
<glyph unicode="x" horiz-adv-x="477" d="M20 0l205 249l-185 224h20l177 -212l173 212h23l-184 -224l208 -249h-24l-196 237l-197 -237h-20z" />
<glyph unicode="y" horiz-adv-x="418" d="M63 -144q14 -1 27 -1q39 0 56 14t35 59l29 73l-203 472h19l193 -453l175 453h18l-211 -543q-22 -56 -43 -73.5t-67 -17.5q-14 0 -28 1v16z" />
<glyph unicode="z" horiz-adv-x="453" d="M43 0v23l340 434h-315v16h334v-21l-342 -436h359v-16h-376z" />
<glyph unicode="{" horiz-adv-x="329" d="M179 45v128q0 45 -12.5 66.5t-46.5 32.5v16q34 11 46.5 32.5t12.5 66.5v128q0 78 15 107q10 21 33 33t51 12h12v-16h-13q-82 0 -82 -108v-152q0 -46 -12 -70.5t-42 -40.5q30 -16 42 -40.5t12 -70.5v-152q0 -60 24 -85q21 -23 57 -23h14v-16h-12q-28 0 -51 12t-33 33 q-15 29 -15 107z" />
<glyph unicode="|" horiz-adv-x="500" d="M240 -167v834h19v-834h-19z" />
<glyph unicode="}" horiz-adv-x="329" d="M40 -91h13q82 0 82 108v152q0 46 12 70.5t42 40.5q-30 16 -42 40.5t-12 70.5v152q0 60 -24 85q-21 23 -57 23h-14v16h12q28 0 51 -12t33 -33q15 -29 15 -107v-128q0 -45 12.5 -66.5t46.5 -32.5v-16q-34 -11 -46.5 -32.5t-12.5 -66.5v-128q0 -78 -15 -107q-10 -21 -33 -33 t-51 -12h-12v16z" />
<glyph unicode="~" horiz-adv-x="667" d="M113 603l-17 10q28 49 57.5 71t66.5 22q39 0 119 -44q74 -40 107 -40q32 0 56.5 19.5t52.5 66.5l16 -10q-28 -50 -57 -72t-67 -22q-24 0 -50 10t-88 44q-55 30 -89 30q-31 0 -56 -19.5t-51 -65.5z" />
<glyph unicode="&#xa1;" horiz-adv-x="162" d="M73 456v91h16v-91h-16zM73 -120v493h16v-493h-16z" />
<glyph unicode="&#xa2;" d="M285 -21v98q-49 3 -82 17.5t-61 45.5q-63 71 -63 193q0 109 55 174.5t151 73.5v82h16v-82q76 -4 123 -44.5t56 -110.5h-17q-9 63 -53.5 101t-108.5 37v-470q143 8 169 162h18q-10 -79 -60.5 -127.5t-126.5 -51.5v-98h-16zM285 94v470q-76 -7 -122 -49q-68 -63 -68 -182 q0 -127 70 -192q44 -41 120 -47z" />
<glyph unicode="&#xa3;" d="M48 7q53 47 68 69q43 61 43 120q0 43 -30 112h-73v16h66q-3 4 -6 9t-5 8.5t-3 4.5q-35 57 -45.5 83t-10.5 57q0 74 59 119t155 45q102 0 158 -52t56 -147v-18h-16q-1 88 -35 133q-51 68 -162 68q-92 0 -145.5 -40.5t-53.5 -110.5q0 -29 8.5 -48.5t49.5 -87.5l14 -23h150 v-16h-143q28 -60 28 -111q0 -53 -25.5 -97.5t-82.5 -92.5q42 27 61.5 34t51.5 7q37 0 89 -19q67 -26 98 -26q70 0 141 78l11 -12q-69 -82 -152 -82q-39 0 -100 24q-56 21 -91 21q-54 0 -114 -43z" />
<glyph unicode="&#xa4;" horiz-adv-x="543" d="M38 94l-11 11l64 64q-61 73 -61 175q0 100 55 169l-58 58l11 11l58 -57q68 68 176 68q107 0 175 -68l58 57l11 -11l-59 -58q56 -69 56 -178q0 -104 -58 -169l61 -61l-11 -11l-61 61q-68 -62 -173 -62q-104 0 -169 64zM272 109q103 0 164 60.5t61 162.5q0 114 -60 179.5 t-165 65.5q-102 0 -164 -64t-62 -169q0 -106 62 -170.5t164 -64.5z" />
<glyph unicode="&#xa5;" d="M278 0v262h-179v16h179v3l-66 115h-113v16h104l-148 255h20l145 -255h130l141 255h20l-144 -255h100v-16h-109l-64 -115v-3h173v-16h-173v-262h-16zM286 295l55 101h-112z" />
<glyph unicode="&#xa6;" horiz-adv-x="500" d="M240 347v320h19v-320h-19zM240 153h19v-320h-19v320z" />
<glyph unicode="&#xa7;" horiz-adv-x="455" d="M38 48h17q-1 -9 -1 -23q0 -61 48.5 -96t133.5 -35q73 0 117.5 36t44.5 95q0 53 -40 81q-26 19 -92 37l-95 27q-121 35 -121 132q0 60 47 99q26 22 74 39q-38 11 -59 27q-47 36 -47 94q0 56 44 87.5t123 31.5q118 0 151 -54q16 -26 19 -80h-15q-6 70 -38 94.5t-118 24.5 q-151 0 -151 -103q0 -51 39 -84q16 -12 73 -30l101 -31q65 -20 95 -50t30 -75q0 -56 -40 -93q-21 -20 -81 -48q61 -19 88.5 -48.5t27.5 -76.5q0 -67 -49 -107t-129 -40q-140 0 -182 82q-15 31 -15 87zM297 400l-106 33q-126 -36 -126 -129q0 -50 35 -83q21 -22 84 -39 l94 -26q3 1 6.5 3t5.5 3.5t3 1.5q59 29 75 45q35 35 35 81q0 40 -25 66.5t-81 43.5z" />
<glyph unicode="&#xa8;" horiz-adv-x="500" d="M337 549v99h16v-99h-16zM147 549v99h16v-99h-16z" />
<glyph unicode="&#xa9;" horiz-adv-x="782" d="M47 333q0 145 101.5 245.5t247.5 100.5q139 0 239.5 -102t100.5 -244q0 -143 -101 -244t-243 -101t-243.5 101t-101.5 244zM63 333q0 -136 96.5 -232.5t232.5 -96.5t232 96.5t96 232.5q0 135 -95.5 232.5t-228.5 97.5q-139 0 -236 -96t-97 -234zM545 297h16 q-3 -35 -11 -53q-19 -48 -61.5 -76.5t-92.5 -28.5q-77 0 -125.5 55t-48.5 141q0 88 49 143.5t127 55.5q47 0 85 -21.5t58 -58.5q10 -18 15 -49h-16q-11 54 -48 83.5t-93 29.5q-73 0 -117 -50.5t-44 -133.5q0 -80 44 -129.5t114 -49.5q46 0 84.5 26.5t54.5 69.5q7 17 10 46z " />
<glyph unicode="&#xaa;" horiz-adv-x="322" d="M242 309v14q-40 -65 -110 -65q-46 0 -74 22.5t-28 59.5q0 55 59 77q21 8 104 13q32 1 40.5 6.5t8.5 23.5v11q0 38 -20.5 55.5t-64.5 17.5q-46 0 -67 -18.5t-26 -63.5h-17q5 51 31 74.5t78 23.5q50 0 78 -23q24 -20 24 -68v-156q0 -23 5.5 -27.5t32.5 -3.5v-16 q-35 0 -44.5 7.5t-9.5 35.5zM242 384v43q-14 -11 -87 -14q-109 -5 -109 -73q0 -30 23.5 -48t62.5 -18q47 0 78.5 31.5t31.5 78.5z" />
<glyph unicode="&#xab;" horiz-adv-x="304" d="M264 108l-91 123v17l91 126v-31l-76 -103l76 -102v-30zM151 108l-91 123v17l91 126v-31l-76 -103l76 -102v-30z" />
<glyph unicode="&#xac;" horiz-adv-x="500" d="M33 249v18h433v-267h-19v249h-414z" />
<glyph unicode="&#xad;" horiz-adv-x="208" d="M0 229v16h208v-16h-208z" />
<glyph unicode="&#xae;" horiz-adv-x="782" d="M47 333q0 145 101.5 245.5t247.5 100.5q139 0 239.5 -102t100.5 -244q0 -143 -101 -244t-243 -101t-243.5 101t-101.5 244zM63 333q0 -136 96.5 -232.5t232.5 -96.5t232 96.5t96 232.5q0 135 -95.5 232.5t-228.5 97.5q-139 0 -236 -96t-97 -234zM253 147v380h140 q68 0 98 -23q37 -29 37 -80q0 -74 -74 -94q43 -11 55.5 -37t14.5 -107q1 -23 6 -39h-17q-4 13 -5 39q-2 61 -6.5 81t-17.5 33q-22 22 -83 22h-132v-175h-16zM269 338h134q52 0 80.5 22.5t28.5 63.5q0 48 -39 73q-23 14 -87 14h-117v-173z" />
<glyph unicode="&#xaf;" horiz-adv-x="500" d="M105 593v16h290v-16h-290z" />
<glyph unicode="&#xb0;" horiz-adv-x="343" d="M171 396q-60 0 -99 39t-39 98q0 61 39 99.5t101 38.5q59 0 98 -39.5t39 -98.5t-39 -98t-100 -39zM171 412q54 0 88.5 34t34.5 87t-34 87.5t-87 34.5q-56 0 -90 -33.5t-34 -88.5q0 -53 34.5 -87t87.5 -34z" />
<glyph unicode="&#xb1;" d="M276 153v176h-177v16h177v177h16v-177h176v-16h-176v-176h-16zM99 63v16h369v-16h-369z" />
<glyph unicode="&#xb2;" horiz-adv-x="373" d="M54 254q5 42 29 68.5t102 79.5q108 72 108 139q0 40 -29 64t-76 24q-52 0 -81.5 -29.5t-29.5 -81.5q0 -6 1 -12h-16q-1 4 -1 8q0 62 33.5 96.5t93.5 34.5q54 0 87.5 -29t33.5 -75q0 -44 -30 -79.5t-118 -94.5q-46 -32 -64 -52t-23 -45h244v-16h-264z" />
<glyph unicode="&#xb3;" horiz-adv-x="373" d="M74 513h-17q1 44 14 68q34 64 121 64q54 0 88 -27.5t34 -70.5q0 -66 -71 -86q38 -7 59.5 -33t21.5 -64q0 -52 -38 -85t-99 -33q-64 0 -101 36t-37 99v7h18v-8v-9q0 -49 33 -79t86 -30q54 0 88 28.5t34 74.5q0 33 -20 55.5t-54 27.5q-23 4 -67 5v17q39 0 63 4 q31 6 49.5 25.5t18.5 46.5q0 38 -29 60.5t-77 22.5q-115 0 -118 -116z" />
<glyph unicode="&#xb4;" horiz-adv-x="500" d="M208 550l160 98h30l-159 -98h-31z" />
<glyph unicode="&#xb5;" d="M114 473v-238q0 -30 11.5 -75t25.5 -71q46 -86 123 -86q39 0 75 19.5t60 54.5q19 27 26.5 55.5t7.5 76.5v264h16v-473h-16v116q-16 -58 -61.5 -93.5t-103.5 -35.5q-115 0 -159 152l-5 17v-316h-16v633h16z" />
<glyph unicode="&#xb6;" horiz-adv-x="520" d="M304 -80v388h-42q-103 0 -156 48q-56 50 -56 132q0 83 58 136q49 43 143 43h182v-747h-16v731h-97v-731h-16z" />
<glyph unicode="&#xb7;" horiz-adv-x="136" d="M60 200v91h16v-91h-16z" />
<glyph unicode="&#xb8;" horiz-adv-x="500" d="M256 -66h16v-66q0 -41 -8.5 -59.5t-36.5 -41.5v22q19 16 24 31t5 50v64z" />
<glyph unicode="&#xb9;" horiz-adv-x="373" d="M190 254v360q-32 -44 -103 -65v17q63 16 105 71h14v-383h-16z" />
<glyph unicode="&#xba;" horiz-adv-x="327" d="M163 259q-59 0 -95.5 42t-36.5 110q0 67 37 108.5t96 41.5q61 0 96.5 -42.5t35.5 -114.5q0 -66 -36 -105.5t-97 -39.5zM163 275q54 0 85.5 35t31.5 94q0 65 -31 103t-85 38q-53 0 -85 -37t-32 -98t32 -98t84 -37z" />
<glyph unicode="&#xbb;" horiz-adv-x="304" d="M153 108v30l76 102l-76 103v31l91 -126v-17zM40 108v30l76 102l-76 103v31l91 -126v-17z" />
<glyph unicode="&#xbc;" horiz-adv-x="849" d="M211 0l427 667h20l-427 -667h-20zM190 254v360q-32 -44 -103 -65v17q63 16 105 71h14v-383h-16zM522 100v18l191 265h18v-267h71v-16h-71v-100h-16v100h-193zM542 116h173v241z" />
<glyph unicode="&#xbd;" horiz-adv-x="849" d="M211 0l427 667h20l-427 -667h-20zM190 254v360q-32 -44 -103 -65v17q63 16 105 71h14v-383h-16zM530 0q7 43 30 69t101 79q108 72 108 139q0 40 -29 64t-76 24q-52 0 -81.5 -29.5t-29.5 -81.5q0 -6 1 -12h-16q-1 4 -1 8q0 62 33.5 96.5t93.5 34.5q54 0 87.5 -29t33.5 -75 q0 -43 -30 -78.5t-118 -95.5q-46 -31 -64 -51t-23 -46h244v-16h-264z" />
<glyph unicode="&#xbe;" horiz-adv-x="849" d="M211 0l428 667h19l-427 -667h-20zM74 513h-17q1 44 14 68q34 64 121 64q54 0 88 -27.5t34 -70.5q0 -66 -71 -86q38 -7 59.5 -33t21.5 -64q0 -52 -38 -85t-99 -33q-64 0 -101 36t-37 99v7h18v-8v-9q0 -49 33 -79t86 -30q54 0 88 28.5t34 74.5q0 33 -20 55.5t-54 27.5 q-23 4 -67 5v17q39 0 63 4q31 6 49.5 25.5t18.5 46.5q0 38 -29 60.5t-77 22.5q-115 0 -118 -116zM522 100v18l191 265h18v-267h71v-16h-71v-100h-16v100h-193zM542 116h173v241z" />
<glyph unicode="&#xbf;" horiz-adv-x="467" d="M222 456v91h16v-91h-16zM411 101h16q-1 -92 -38 -141q-56 -76 -160 -76q-83 0 -136 46t-53 117q0 45 20 77.5t82 90.5q53 49 66.5 75.5t13.5 80.5v5h16q0 -61 -16 -92.5t-73 -82.5q-52 -47 -72.5 -81t-20.5 -72q0 -66 48.5 -107t126.5 -41q104 0 153 82q23 37 27 119z " />
<glyph unicode="&#xc0;" horiz-adv-x="571" d="M286 737l-159 98h30l160 -98h-31zM7 0l273 667h18l267 -667h-19l-87 217h-345l-89 -217h-18zM122 233h329l-163 411z" />
<glyph unicode="&#xc1;" horiz-adv-x="571" d="M264 737l160 98h30l-159 -98h-31zM7 0l273 667h18l267 -667h-19l-87 217h-345l-89 -217h-18zM122 233h329l-163 411z" />
<glyph unicode="&#xc2;" horiz-adv-x="571" d="M147 736l133 99h22l135 -99h-28l-119 86l-115 -86h-28zM7 0l273 667h18l267 -667h-19l-87 217h-345l-89 -217h-18zM122 233h329l-163 411z" />
<glyph unicode="&#xc3;" horiz-adv-x="571" d="M174 754q6 33 24 53t42 20q25 0 63 -31q37 -30 58 -30q31 0 46 57h17q-12 -71 -63 -71q-26 0 -60 28q-41 32 -61 32q-37 0 -49 -58h-17zM7 0l273 667h18l267 -667h-19l-87 217h-345l-89 -217h-18zM122 233h329l-163 411z" />
<glyph unicode="&#xc4;" horiz-adv-x="571" d="M379 736v98h16v-98h-16zM189 736v98h16v-98h-16zM7 0l273 667h18l267 -667h-19l-87 217h-345l-89 -217h-18zM122 233h329l-163 411z" />
<glyph unicode="&#xc5;" horiz-adv-x="571" d="M288 719q-31 0 -51 20t-20 51t20.5 51t51.5 20t51 -20t20 -51t-20.5 -51t-51.5 -20zM288 735q25 0 40.5 15.5t15.5 39.5t-15.5 39.5t-39.5 15.5q-25 0 -40.5 -15.5t-15.5 -39.5t15.5 -39.5t39.5 -15.5zM7 0l273 667h18l267 -667h-19l-87 217h-345l-89 -217h-18zM122 233 h329l-163 411z" />
<glyph unicode="&#xc6;" horiz-adv-x="892" d="M7 0l259 667h573v-16h-409v-299h365v-16h-365v-320h409v-16h-425v219h-304l-85 -219h-18zM117 235h297v416h-137z" />
<glyph unicode="&#xc7;" horiz-adv-x="658" d="M608 257h16q-7 -86 -51 -147q-89 -123 -236 -123q-125 0 -211 88q-93 96 -93 255q0 156 85.5 253t223.5 97q148 0 230 -112q32 -44 44 -106h-17q-20 95 -88 148.5t-168 53.5q-133 0 -213.5 -92t-80.5 -243t88 -243q81 -83 199 -83q74 0 135.5 35.5t100.5 100.5 q29 48 36 118zM329 -61h16v-70q0 -48 -8.5 -68.5t-37.5 -41.5v24q19 15 24.5 31t5.5 55v70z" />
<glyph unicode="&#xc8;" horiz-adv-x="609" d="M318 737l-159 98h30l160 -98h-31zM90 0v667h445v-16h-429v-298h403v-16h-403v-321h429v-16h-445z" />
<glyph unicode="&#xc9;" horiz-adv-x="609" d="M279 737l160 98h30l-159 -98h-31zM90 0v667h445v-16h-429v-298h403v-16h-403v-321h429v-16h-445z" />
<glyph unicode="&#xca;" horiz-adv-x="609" d="M179 736l133 99h22l135 -99h-28l-119 86l-115 -86h-28zM90 0v667h445v-16h-429v-298h403v-16h-403v-321h429v-16h-445z" />
<glyph unicode="&#xcb;" horiz-adv-x="609" d="M408 736v98h16v-98h-16zM218 736v98h16v-98h-16zM90 0v667h445v-16h-429v-298h403v-16h-403v-321h429v-16h-445z" />
<glyph unicode="&#xcc;" horiz-adv-x="222" d="M112 737l-159 98h30l160 -98h-31zM103 0v667h16v-667h-16z" />
<glyph unicode="&#xcd;" horiz-adv-x="222" d="M89 737l160 98h30l-159 -98h-31zM103 0v667h16v-667h-16z" />
<glyph unicode="&#xce;" horiz-adv-x="222" d="M-3 736h-28l133 99h22l135 -99h-28l-119 86zM103 0v667h16v-667h-16z" />
<glyph unicode="&#xcf;" horiz-adv-x="222" d="M135 736v98h16v-98h-16zM78 736v98h16v-98h-16zM103 0v667h16v-667h-16z" />
<glyph unicode="&#xd0;" horiz-adv-x="638" d="M90 0v337h-67v16h67v314h196q155 0 232 -77q41 -41 64 -109t23 -147q0 -166 -93 -259q-41 -40 -93.5 -57.5t-133.5 -17.5h-195zM106 16h174q88 0 141 19t93 66q75 89 75 237q0 168 -96 252q-37 33 -87 47t-128 14h-172v-298h320v-16h-320v-321z" />
<glyph unicode="&#xd1;" horiz-adv-x="683" d="M240 754q6 33 24 53t42 20q25 0 63 -31q37 -30 58 -30q31 0 46 57h17q-12 -71 -63 -71q-26 0 -60 28q-41 32 -61 32q-37 0 -49 -58h-17zM90 0v667h24l463 -646v646h16v-667h-22l-465 649v-649h-16z" />
<glyph unicode="&#xd2;" horiz-adv-x="686" d="M343 737l-159 98h30l160 -98h-31zM33 334q0 154 86 250t224 96q137 0 223 -96t86 -249q0 -156 -87 -252t-227 -96q-134 0 -219.5 97t-85.5 250zM49 334q0 -146 80.5 -238.5t208.5 -92.5q134 0 216 91q82 92 82 241q0 146 -81.5 237.5t-211.5 91.5q-132 0 -213 -91 t-81 -239z" />
<glyph unicode="&#xd3;" horiz-adv-x="686" d="M317 737l160 98h30l-159 -98h-31zM33 334q0 154 86 250t224 96q137 0 223 -96t86 -249q0 -156 -87 -252t-227 -96q-134 0 -219.5 97t-85.5 250zM49 334q0 -146 80.5 -238.5t208.5 -92.5q134 0 216 91q82 92 82 241q0 146 -81.5 237.5t-211.5 91.5q-132 0 -213 -91 t-81 -239z" />
<glyph unicode="&#xd4;" horiz-adv-x="686" d="M204 736l133 99h22l135 -99h-28l-119 86l-115 -86h-28zM33 334q0 154 86 250t224 96q137 0 223 -96t86 -249q0 -156 -87 -252t-227 -96q-134 0 -219.5 97t-85.5 250zM49 334q0 -146 80.5 -238.5t208.5 -92.5q134 0 216 91q82 92 82 241q0 146 -81.5 237.5t-211.5 91.5 q-132 0 -213 -91t-81 -239z" />
<glyph unicode="&#xd5;" horiz-adv-x="686" d="M237 754q6 33 24 53t42 20q25 0 63 -31q37 -30 58 -30q31 0 46 57h17q-12 -71 -63 -71q-26 0 -60 28q-41 32 -61 32q-37 0 -49 -58h-17zM33 334q0 154 86 250t224 96q137 0 223 -96t86 -249q0 -156 -87 -252t-227 -96q-134 0 -219.5 97t-85.5 250zM49 334 q0 -146 80.5 -238.5t208.5 -92.5q134 0 216 91q82 92 82 241q0 146 -81.5 237.5t-211.5 91.5q-132 0 -213 -91t-81 -239z" />
<glyph unicode="&#xd6;" horiz-adv-x="686" d="M436 736v98h16v-98h-16zM246 736v98h16v-98h-16zM33 334q0 154 86 250t224 96q137 0 223 -96t86 -249q0 -156 -87 -252t-227 -96q-134 0 -219.5 97t-85.5 250zM49 334q0 -146 80.5 -238.5t208.5 -92.5q134 0 216 91q82 92 82 241q0 146 -81.5 237.5t-211.5 91.5 q-132 0 -213 -91t-81 -239z" />
<glyph unicode="&#xd7;" d="M121 164l-11 11l163 162l-163 163l11 11l163 -163l162 163l11 -11l-162 -163l162 -162l-11 -11l-162 162z" />
<glyph unicode="&#xd8;" horiz-adv-x="685" d="M44 17l68 76q-46 62 -62.5 113.5t-16.5 129.5q0 156 85 249q87 95 222 95q128 0 217 -88l56 64l12 -12l-57 -64q83 -99 83 -247q0 -163 -87 -254q-87 -92 -224 -92q-127 0 -217 93l-67 -74zM124 106l422 474q-84 84 -207 84q-126 0 -210 -92q-80 -89 -80 -235 q0 -74 17 -126t58 -105zM134 93q50 -50 96 -70t109 -20q131 0 213 88q83 87 83 238q0 143 -78 239z" />
<glyph unicode="&#xd9;" horiz-adv-x="676" d="M352 737l-159 98h30l160 -98h-31zM586 667v-398q0 -84 -13.5 -130.5t-48.5 -83.5q-64 -68 -186 -68q-135 0 -199 83q-28 36 -38.5 78.5t-10.5 120.5v398h16v-398q0 -76 12.5 -121t42.5 -79q59 -66 177 -66q130 0 188 80q24 33 34 75t10 111v398h16z" />
<glyph unicode="&#xda;" horiz-adv-x="676" d="M306 737l160 98h30l-159 -98h-31zM586 667v-398q0 -84 -13.5 -130.5t-48.5 -83.5q-64 -68 -186 -68q-135 0 -199 83q-28 36 -38.5 78.5t-10.5 120.5v398h16v-398q0 -76 12.5 -121t42.5 -79q59 -66 177 -66q130 0 188 80q24 33 34 75t10 111v398h16z" />
<glyph unicode="&#xdb;" horiz-adv-x="676" d="M206 736l133 99h22l135 -99h-28l-119 86l-115 -86h-28zM586 667v-398q0 -84 -13.5 -130.5t-48.5 -83.5q-64 -68 -186 -68q-135 0 -199 83q-28 36 -38.5 78.5t-10.5 120.5v398h16v-398q0 -76 12.5 -121t42.5 -79q59 -66 177 -66q130 0 188 80q24 33 34 75t10 111v398h16z " />
<glyph unicode="&#xdc;" horiz-adv-x="676" d="M435 736v98h16v-98h-16zM245 736v98h16v-98h-16zM586 667v-398q0 -84 -13.5 -130.5t-48.5 -83.5q-64 -68 -186 -68q-135 0 -199 83q-28 36 -38.5 78.5t-10.5 120.5v398h16v-398q0 -76 12.5 -121t42.5 -79q59 -66 177 -66q130 0 188 80q24 33 34 75t10 111v398h16z" />
<glyph unicode="&#xdd;" horiz-adv-x="576" d="M277 737l160 98h30l-159 -98h-31zM284 0v282l-277 385h20l265 -371l258 371h20l-270 -385v-282h-16z" />
<glyph unicode="&#xde;" horiz-adv-x="580" d="M90 0v667h16v-80h253q104 0 152 -52q49 -51 49 -127q0 -90 -66 -140q-52 -40 -146 -40h-242v-228h-16zM106 244h242q97 0 148 46q48 43 48 118q0 82 -56 128q-42 35 -140 35h-242v-327z" />
<glyph unicode="&#xdf;" horiz-adv-x="470" d="M70 0v508q0 51 10 80.5t35 52.5q44 39 113 39q77 0 126 -44.5t49 -115.5q0 -112 -117 -145q65 -12 96 -35q58 -44 58 -147q0 -126 -92 -173q-23 -12 -51.5 -16t-91.5 -4v18l38 -1q93 -3 138 47q43 47 43 131q0 121 -93 154q-39 15 -126 16v17q75 -1 115 21q67 39 67 118 q0 64 -44 103.5t-114 39.5q-81 0 -119 -55q-15 -21 -19.5 -42t-4.5 -71v-496h-16z" />
<glyph unicode="&#xe0;" horiz-adv-x="475" d="M235 550l-159 98h30l160 -98h-31zM383 66v50q-55 -129 -189 -129q-73 0 -118.5 37t-45.5 96q0 90 95 125q37 14 171 22q65 4 80 22q7 9 7 35v18q0 70 -41 101q-38 27 -105 27q-77 0 -115 -32.5t-47 -105.5h-17q15 154 176 154q80 0 126 -38q22 -19 30.5 -43t8.5 -67v-265 q0 -38 7 -47.5t38 -9.5h18v-16q-47 0 -59 7q-13 7 -16.5 18t-3.5 41zM383 194v87q-15 -18 -40.5 -23.5t-109.5 -9.5q-187 -9 -187 -129q0 -52 40.5 -84t107.5 -32q90 0 146 69q43 53 43 122z" />
<glyph unicode="&#xe1;" horiz-adv-x="475" d="M219 550l160 98h30l-159 -98h-31zM383 66v50q-55 -129 -189 -129q-73 0 -118.5 37t-45.5 96q0 90 95 125q37 14 171 22q65 4 80 22q7 9 7 35v18q0 70 -41 101q-38 27 -105 27q-77 0 -115 -32.5t-47 -105.5h-17q15 154 176 154q80 0 126 -38q22 -19 30.5 -43t8.5 -67v-265 q0 -38 7 -47.5t38 -9.5h18v-16q-47 0 -59 7q-13 7 -16.5 18t-3.5 41zM383 194v87q-15 -18 -40.5 -23.5t-109.5 -9.5q-187 -9 -187 -129q0 -52 40.5 -84t107.5 -32q90 0 146 69q43 53 43 122z" />
<glyph unicode="&#xe2;" horiz-adv-x="475" d="M102 550l133 100h22l135 -100h-28l-119 87l-115 -87h-28zM383 66v50q-55 -129 -189 -129q-73 0 -118.5 37t-45.5 96q0 90 95 125q37 14 171 22q65 4 80 22q7 9 7 35v18q0 70 -41 101q-38 27 -105 27q-77 0 -115 -32.5t-47 -105.5h-17q15 154 176 154q80 0 126 -38 q22 -19 30.5 -43t8.5 -67v-265q0 -38 7 -47.5t38 -9.5h18v-16q-47 0 -59 7q-13 7 -16.5 18t-3.5 41zM383 194v87q-15 -18 -40.5 -23.5t-109.5 -9.5q-187 -9 -187 -129q0 -52 40.5 -84t107.5 -32q90 0 146 69q43 53 43 122z" />
<glyph unicode="&#xe3;" horiz-adv-x="475" d="M121 567q6 33 24 53t42 20q25 0 63 -31q37 -30 58 -30q31 0 46 57h17q-12 -71 -63 -71q-26 0 -60 28q-41 32 -61 32q-37 0 -49 -58h-17zM383 66v50q-55 -129 -189 -129q-73 0 -118.5 37t-45.5 96q0 90 95 125q37 14 171 22q65 4 80 22q7 9 7 35v18q0 70 -41 101 q-38 27 -105 27q-77 0 -115 -32.5t-47 -105.5h-17q15 154 176 154q80 0 126 -38q22 -19 30.5 -43t8.5 -67v-265q0 -38 7 -47.5t38 -9.5h18v-16q-47 0 -59 7q-13 7 -16.5 18t-3.5 41zM383 194v87q-15 -18 -40.5 -23.5t-109.5 -9.5q-187 -9 -187 -129q0 -52 40.5 -84 t107.5 -32q90 0 146 69q43 53 43 122z" />
<glyph unicode="&#xe4;" horiz-adv-x="475" d="M338 549v99h16v-99h-16zM148 549v99h16v-99h-16zM383 66v50q-55 -129 -189 -129q-73 0 -118.5 37t-45.5 96q0 90 95 125q37 14 171 22q65 4 80 22q7 9 7 35v18q0 70 -41 101q-38 27 -105 27q-77 0 -115 -32.5t-47 -105.5h-17q15 154 176 154q80 0 126 -38 q22 -19 30.5 -43t8.5 -67v-265q0 -38 7 -47.5t38 -9.5h18v-16q-47 0 -59 7q-13 7 -16.5 18t-3.5 41zM383 194v87q-15 -18 -40.5 -23.5t-109.5 -9.5q-187 -9 -187 -129q0 -52 40.5 -84t107.5 -32q90 0 146 69q43 53 43 122z" />
<glyph unicode="&#xe5;" horiz-adv-x="475" d="M240 533q-31 0 -51 20t-20 51t20.5 51t51.5 20t51 -20t20 -51t-20.5 -51t-51.5 -20zM240 549q25 0 40.5 15.5t15.5 39.5t-15.5 39.5t-39.5 15.5q-25 0 -40.5 -15.5t-15.5 -39.5t15.5 -39.5t39.5 -15.5zM383 66v50q-55 -129 -189 -129q-73 0 -118.5 37t-45.5 96 q0 90 95 125q37 14 171 22q65 4 80 22q7 9 7 35v18q0 70 -41 101q-38 27 -105 27q-77 0 -115 -32.5t-47 -105.5h-17q15 154 176 154q80 0 126 -38q22 -19 30.5 -43t8.5 -67v-265q0 -38 7 -47.5t38 -9.5h18v-16q-47 0 -59 7q-13 7 -16.5 18t-3.5 41zM383 194v87 q-15 -18 -40.5 -23.5t-109.5 -9.5q-187 -9 -187 -129q0 -52 40.5 -84t107.5 -32q90 0 146 69q43 53 43 122z" />
<glyph unicode="&#xe6;" horiz-adv-x="831" d="M778 165h17q-16 -84 -69 -131t-132 -47q-106 0 -168 87q-17 25 -34 76q-13 -55 -36 -85q-59 -78 -162 -78q-73 0 -118.5 37t-45.5 97q0 89 95 124q41 15 171 22q66 4 80 21q7 8 7 46q0 45 -9 69t-32 40q-38 27 -105 27q-77 0 -115 -32.5t-47 -105.5h-17q15 154 177 154 q81 0 125 -38q23 -19 31.5 -43t8.5 -67q14 45 37 74q61 74 161 74q58 0 104.5 -28.5t72.5 -80.5t26 -138v-11h-401q3 -92 40 -146q54 -79 155 -79q73 0 121.5 43t61.5 119zM400 244h384q0 60 -12 96q-20 62 -66 96t-110 34q-89 0 -141 -60t-55 -166zM383 195v86 q-15 -18 -40.5 -23.5t-109.5 -9.5q-187 -9 -187 -128q0 -53 40.5 -85t107.5 -32q90 0 146 69q43 54 43 123z" />
<glyph unicode="&#xe7;" horiz-adv-x="471" d="M425 163h16q-12 -72 -47 -112q-55 -64 -152 -64q-94 0 -153 69.5t-59 181.5q0 111 59.5 179.5t156.5 68.5q80 0 132 -42t56 -109h-17q-3 60 -50 97.5t-120 37.5q-91 0 -146 -63t-55 -167q0 -107 53.5 -172t141.5 -65q154 0 184 160zM235 -66h16v-66q0 -41 -8.5 -59.5 t-36.5 -41.5v22q19 16 24 31t5 50v64z" />
<glyph unicode="&#xe8;" horiz-adv-x="478" d="M239 550l-159 98h30l160 -98h-31zM448 228h-400q3 -92 40 -146q53 -79 154 -79q73 0 121.5 43t61.5 119h17q-16 -84 -69 -131t-132 -47q-94 0 -152.5 67.5t-58.5 176.5q0 116 59 185.5t156 69.5q58 0 104.5 -28.5t72.5 -80.5q26 -53 26 -138v-11zM48 244h383q1 56 -12 96 q-20 62 -66 96t-109 34q-89 0 -141 -60t-55 -166z" />
<glyph unicode="&#xe9;" horiz-adv-x="478" d="M220 550l160 98h30l-159 -98h-31zM448 228h-400q3 -92 40 -146q53 -79 154 -79q73 0 121.5 43t61.5 119h17q-16 -84 -69 -131t-132 -47q-94 0 -152.5 67.5t-58.5 176.5q0 116 59 185.5t156 69.5q58 0 104.5 -28.5t72.5 -80.5q26 -53 26 -138v-11zM48 244h383q1 56 -12 96 q-20 62 -66 96t-109 34q-89 0 -141 -60t-55 -166z" />
<glyph unicode="&#xea;" horiz-adv-x="478" d="M107 550l133 100h22l135 -100h-28l-119 87l-115 -87h-28zM448 228h-400q3 -92 40 -146q53 -79 154 -79q73 0 121.5 43t61.5 119h17q-16 -84 -69 -131t-132 -47q-94 0 -152.5 67.5t-58.5 176.5q0 116 59 185.5t156 69.5q58 0 104.5 -28.5t72.5 -80.5q26 -53 26 -138v-11z M48 244h383q1 56 -12 96q-20 62 -66 96t-109 34q-89 0 -141 -60t-55 -166z" />
<glyph unicode="&#xeb;" horiz-adv-x="478" d="M336 549v99h16v-99h-16zM146 549v99h16v-99h-16zM448 228h-400q3 -92 40 -146q53 -79 154 -79q73 0 121.5 43t61.5 119h17q-16 -84 -69 -131t-132 -47q-94 0 -152.5 67.5t-58.5 176.5q0 116 59 185.5t156 69.5q58 0 104.5 -28.5t72.5 -80.5q26 -53 26 -138v-11zM48 244 h383q1 56 -12 96q-20 62 -66 96t-109 34q-89 0 -141 -60t-55 -166z" />
<glyph unicode="&#xec;" horiz-adv-x="156" d="M75 550l-159 98h30l160 -98h-31zM70 0v473h16v-473h-16z" />
<glyph unicode="&#xed;" horiz-adv-x="156" d="M59 550l160 98h30l-159 -98h-31zM70 0v473h16v-473h-16z" />
<glyph unicode="&#xee;" horiz-adv-x="156" d="M-36 550h-28l133 100h22l135 -100h-28l-119 87zM70 0v473h16v-473h-16z" />
<glyph unicode="&#xef;" horiz-adv-x="156" d="M105 549v99h16v-99h-16zM42 549v99h16v-99h-16zM71 0v473h16v-473h-16z" />
<glyph unicode="&#xf0;" horiz-adv-x="490" d="M342 682l-83 -64q80 -90 120 -153q46 -71 63.5 -122.5t17.5 -113.5q0 -112 -58 -177t-157 -65q-97 0 -156 69t-59 181t59.5 180.5t156.5 68.5q71 0 127 -41q-39 68 -126 163l-85 -65l-10 12l84 65q-50 56 -69 78l12 9l70 -78l84 65zM46 237q0 -105 54.5 -169.5 t144.5 -64.5q92 0 145.5 60t53.5 163q0 113 -53 178.5t-145 65.5q-90 0 -145 -64t-55 -169z" />
<glyph unicode="&#xf1;" horiz-adv-x="499" d="M144 567q6 33 24 53t42 20q25 0 63 -31q37 -30 58 -30q31 0 46 57h17q-12 -71 -63 -71q-26 0 -60 28q-41 32 -61 32q-37 0 -49 -58h-17zM70 0v473h16v-122q25 59 53 87q51 48 125 48q91 0 140 -63q35 -46 35 -127v-296h-16v283q0 53 -8.5 83.5t-30.5 54.5q-44 49 -120 49 q-100 0 -150 -90q-28 -48 -28 -130v-250h-16z" />
<glyph unicode="&#xf2;" horiz-adv-x="490" d="M242 550l-159 98h30l160 -98h-31zM30 237q0 112 59.5 180.5t156.5 68.5q99 0 156.5 -69.5t57.5 -190.5q0 -109 -58.5 -174t-156.5 -65q-97 0 -156 69t-59 181zM46 237q0 -105 54.5 -169.5t144.5 -64.5q92 0 145.5 60t53.5 163q0 113 -53 178.5t-145 65.5q-90 0 -145 -64 t-55 -169z" />
<glyph unicode="&#xf3;" horiz-adv-x="490" d="M226 550l160 98h30l-159 -98h-31zM30 237q0 112 59.5 180.5t156.5 68.5q99 0 156.5 -69.5t57.5 -190.5q0 -109 -58.5 -174t-156.5 -65q-97 0 -156 69t-59 181zM46 237q0 -105 54.5 -169.5t144.5 -64.5q92 0 145.5 60t53.5 163q0 113 -53 178.5t-145 65.5q-90 0 -145 -64 t-55 -169z" />
<glyph unicode="&#xf4;" horiz-adv-x="490" d="M106 550l133 100h22l135 -100h-28l-119 87l-115 -87h-28zM30 237q0 112 59.5 180.5t156.5 68.5q99 0 156.5 -69.5t57.5 -190.5q0 -109 -58.5 -174t-156.5 -65q-97 0 -156 69t-59 181zM46 237q0 -105 54.5 -169.5t144.5 -64.5q92 0 145.5 60t53.5 163q0 113 -53 178.5 t-145 65.5q-90 0 -145 -64t-55 -169z" />
<glyph unicode="&#xf5;" horiz-adv-x="490" d="M143 567q6 33 24 53t42 20q25 0 63 -31q37 -30 58 -30q31 0 46 57h17q-12 -71 -63 -71q-26 0 -60 28q-41 32 -61 32q-37 0 -49 -58h-17zM30 237q0 112 59.5 180.5t156.5 68.5q99 0 156.5 -69.5t57.5 -190.5q0 -109 -58.5 -174t-156.5 -65q-97 0 -156 69t-59 181zM46 237 q0 -105 54.5 -169.5t144.5 -64.5q92 0 145.5 60t53.5 163q0 113 -53 178.5t-145 65.5q-90 0 -145 -64t-55 -169z" />
<glyph unicode="&#xf6;" horiz-adv-x="490" d="M342 549v99h16v-99h-16zM152 549v99h16v-99h-16zM30 237q0 112 59.5 180.5t156.5 68.5q99 0 156.5 -69.5t57.5 -190.5q0 -109 -58.5 -174t-156.5 -65q-97 0 -156 69t-59 181zM46 237q0 -105 54.5 -169.5t144.5 -64.5q92 0 145.5 60t53.5 163q0 113 -53 178.5t-145 65.5 q-90 0 -145 -64t-55 -169z" />
<glyph unicode="&#xf7;" d="M284 460q-10 0 -17 7t-7 17t7 17t17 7t17 -7t7 -17t-7 -17t-17 -7zM99 329v16h369v-16h-369zM260 182q0 10 7 17t17 7t17 -7t7 -17t-7 -17t-17 -7t-17 7t-7 17z" />
<glyph unicode="&#xf8;" horiz-adv-x="494" d="M30 20l50 54q-46 72 -46 165q0 111 59.5 179t156.5 68q89 0 158 -68l43 47l13 -13l-46 -48q46 -74 46 -172q0 -113 -57.5 -179t-156.5 -66q-98 0 -160 72l-47 -51zM92 86l303 320q-61 64 -148 64q-88 0 -142.5 -63.5t-54.5 -166.5q0 -97 42 -154zM101 72q61 -69 149 -69 q91 0 144.5 61t53.5 164q0 97 -42 164z" />
<glyph unicode="&#xf9;" horiz-adv-x="491" d="M246 550l-159 98h30l160 -98h-31zM405 0v116q-17 -59 -63 -94t-107 -35q-88 0 -139 68q-36 48 -36 134v284h16v-284q0 -84 39 -132q46 -54 118 -54q87 0 138 74q19 27 26.5 55.5t7.5 76.5v264h16v-473h-16z" />
<glyph unicode="&#xfa;" horiz-adv-x="491" d="M224 550l160 98h30l-159 -98h-31zM405 0v116q-17 -59 -63 -94t-107 -35q-88 0 -139 68q-36 48 -36 134v284h16v-284q0 -84 39 -132q46 -54 118 -54q87 0 138 74q19 27 26.5 55.5t7.5 76.5v264h16v-473h-16z" />
<glyph unicode="&#xfb;" horiz-adv-x="491" d="M107 550l133 100h22l135 -100h-28l-119 87l-115 -87h-28zM405 0v116q-17 -59 -63 -94t-107 -35q-88 0 -139 68q-36 48 -36 134v284h16v-284q0 -84 39 -132q46 -54 118 -54q87 0 138 74q19 27 26.5 55.5t7.5 76.5v264h16v-473h-16z" />
<glyph unicode="&#xfc;" horiz-adv-x="491" d="M339 549v99h16v-99h-16zM149 549v99h16v-99h-16zM405 0v116q-17 -59 -63 -94t-107 -35q-88 0 -139 68q-36 48 -36 134v284h16v-284q0 -84 39 -132q46 -54 118 -54q87 0 138 74q19 27 26.5 55.5t7.5 76.5v264h16v-473h-16z" />
<glyph unicode="&#xfd;" horiz-adv-x="418" d="M198 550l160 98h30l-159 -98h-31zM63 -144q14 -1 27 -1q39 0 56 14t35 59l29 73l-203 472h19l193 -453l175 453h18l-211 -543q-22 -56 -43 -73.5t-67 -17.5q-14 0 -28 1v16z" />
<glyph unicode="&#xfe;" horiz-adv-x="516" d="M86 667v-331q19 58 46 89q53 61 149 61t150.5 -65t54.5 -179q0 -119 -55.5 -187t-153.5 -68q-86 0 -142 56q-29 29 -49 86v-289h-16v827h16zM86 232q0 -103 52.5 -166t138.5 -63q88 0 140.5 64.5t52.5 171.5t-51 169t-139 62q-89 0 -141.5 -64t-52.5 -174z" />
<glyph unicode="&#xff;" horiz-adv-x="418" d="M310 549v99h16v-99h-16zM120 549v99h16v-99h-16zM63 -144q14 -1 27 -1q39 0 56 14t35 59l29 73l-203 472h19l193 -453l175 453h18l-211 -543q-22 -56 -43 -73.5t-67 -17.5q-14 0 -28 1v16z" />
<glyph unicode="&#x152;" horiz-adv-x="1037" d="M554 0v69q-86 -82 -206 -82q-136 0 -227 99q-88 95 -88 240q0 155 89.5 254.5t229.5 99.5q114 0 202 -76v63h430v-16h-414v-299h369v-16h-369v-320h414v-16h-430zM554 89v497q-51 42 -98 60t-105 18q-133 0 -217.5 -93t-84.5 -238q0 -146 83.5 -238t216.5 -92 q122 0 205 86z" />
<glyph unicode="&#x153;" horiz-adv-x="840" d="M789 156h19q-15 -71 -53 -110q-57 -59 -148 -59q-78 0 -127 44t-62 125q-32 -169 -183 -169q-95 0 -150 65.5t-55 179.5q0 118 54 186t147 68q103 0 154 -76q23 -34 33 -86q16 76 66.5 119t124.5 43q69 0 121 -40t68 -106q10 -44 10 -113h-380q0 -92 28 -141 q46 -83 151 -83q145 0 182 153zM428 243h364v6q0 82 -27 132q-22 41 -63 65t-91 24q-51 0 -93 -25t-64 -69q-26 -52 -26 -133zM234 3q84 0 130.5 60.5t46.5 167.5q0 117 -46 178t-135 61q-86 0 -135 -63.5t-49 -174.5q0 -106 50.5 -167.5t137.5 -61.5z" />
<glyph unicode="&#x178;" horiz-adv-x="576" d="M385 736v98h16v-98h-16zM195 736v98h16v-98h-16zM284 0v282l-277 385h20l265 -371l258 371h20l-270 -385v-282h-16z" />
<glyph unicode="&#x2c6;" horiz-adv-x="500" d="M105 550l133 100h22l135 -100h-28l-119 87l-115 -87h-28z" />
<glyph unicode="&#x2dc;" horiz-adv-x="500" d="M125 567q6 33 24 53t42 20q25 0 63 -31q37 -30 58 -30q31 0 46 57h17q-12 -71 -63 -71q-26 0 -60 28q-41 32 -61 32q-37 0 -49 -58h-17z" />
<glyph unicode="&#x2000;" horiz-adv-x="430" />
<glyph unicode="&#x2001;" horiz-adv-x="861" />
<glyph unicode="&#x2002;" horiz-adv-x="430" />
<glyph unicode="&#x2003;" horiz-adv-x="861" />
<glyph unicode="&#x2004;" horiz-adv-x="287" />
<glyph unicode="&#x2005;" horiz-adv-x="215" />
<glyph unicode="&#x2006;" horiz-adv-x="143" />
<glyph unicode="&#x2007;" horiz-adv-x="143" />
<glyph unicode="&#x2008;" horiz-adv-x="107" />
<glyph unicode="&#x2009;" horiz-adv-x="172" />
<glyph unicode="&#x200a;" horiz-adv-x="47" />
<glyph unicode="&#x2010;" horiz-adv-x="208" d="M0 229v16h208v-16h-208z" />
<glyph unicode="&#x2011;" horiz-adv-x="208" d="M0 229v16h208v-16h-208z" />
<glyph unicode="&#x2012;" horiz-adv-x="208" d="M0 229v16h208v-16h-208z" />
<glyph unicode="&#x2013;" horiz-adv-x="499" d="M70 229v16h369v-16h-369z" />
<glyph unicode="&#x2014;" horiz-adv-x="623" d="M0 229v16h623v-16h-623z" />
<glyph unicode="&#x2018;" horiz-adv-x="145" d="M67 484v83q0 50 7 71.5t32 48.5v-27q-14 -20 -18.5 -37.5t-4.5 -55.5v-83h-16z" />
<glyph unicode="&#x2019;" horiz-adv-x="119" d="M40 465v27q23 32 23 87v88h16v-83q0 -40 -8 -63.5t-31 -55.5z" />
<glyph unicode="&#x201a;" horiz-adv-x="119" d="M63 3v88h16v-83q0 -39 -8 -63t-31 -55v27q23 31 23 86z" />
<glyph unicode="&#x201c;" horiz-adv-x="238" d="M160 484v83q0 50 7 71.5t32 48.5v-27q-14 -20 -18.5 -37.5t-4.5 -55.5v-83h-16zM67 484v83q0 50 7 71.5t32 48.5v-27q-14 -20 -18.5 -37.5t-4.5 -55.5v-83h-16z" />
<glyph unicode="&#x201d;" horiz-adv-x="238" d="M133 464v27q14 20 18.5 37.5t4.5 55.5v83h16v-83q0 -50 -7 -71.5t-32 -48.5zM40 464v27q14 20 18.5 37.5t4.5 55.5v83h16v-83q0 -50 -7 -71.5t-32 -48.5z" />
<glyph unicode="&#x201e;" horiz-adv-x="242" d="M159 -2v92h16v-89q0 -79 -41 -118v29q25 35 25 86zM65 -4v94h16v-93q0 -68 -41 -112v26q25 36 25 85z" />
<glyph unicode="&#x2022;" horiz-adv-x="667" d="M335 200q-58 0 -98.5 40.5t-40.5 97.5q0 58 40.5 98.5t99.5 40.5q56 0 96.5 -41t40.5 -98t-40.5 -97.5t-97.5 -40.5z" />
<glyph unicode="&#x2026;" horiz-adv-x="447" d="M365 0v91h16v-91h-16zM216 0v91h16v-91h-16zM67 0v91h16v-91h-16z" />
<glyph unicode="&#x202f;" horiz-adv-x="172" />
<glyph unicode="&#x2039;" horiz-adv-x="197" d="M158 108l-91 123v17l91 126v-31l-76 -103l76 -102v-30z" />
<glyph unicode="&#x203a;" horiz-adv-x="197" d="M40 108v30l76 102l-76 103v31l91 -126v-17z" />
<glyph unicode="&#x205f;" horiz-adv-x="215" />
<glyph unicode="&#x20ac;" horiz-adv-x="695" d="M542 308h-414q4 -107 53 -180q85 -125 233 -125q147 0 230 125v-28q-89 -113 -229 -113q-128 0 -212.5 89.5t-90.5 231.5h-67l7 17h59q0 12 1 17h-67l7 17h60q9 145 93 233t215 88q147 0 231 -112l-8 -18q-73 114 -222 114q-85 0 -151.5 -40.5t-104.5 -114.5 q-30 -58 -37 -150h435l-7 -17h-429v-17h422z" />
<glyph unicode="&#x2122;" horiz-adv-x="763" d="M358 287v380h21l159 -359l160 359h19v-380h-16v348l-155 -348h-17l-155 348v-348h-16zM147 287v364h-135v16h287v-16h-136v-364h-16z" />
</font>
</defs>
</svg>
